%TF.GenerationSoftware,KiCad,Pcbnew,9.0.5*%
%TF.CreationDate,2025-11-21T15:13:49+01:00*%
%TF.ProjectId,7segment-driver-board,37736567-6d65-46e7-942d-647269766572,1.0*%
%TF.SameCoordinates,Original*%
%TF.FileFunction,Legend,Top*%
%TF.FilePolarity,Positive*%
%FSLAX46Y46*%
G04 Gerber Fmt 4.6, Leading zero omitted, Abs format (unit mm)*
G04 Created by KiCad (PCBNEW 9.0.5) date 2025-11-21 15:13:49*
%MOMM*%
%LPD*%
G01*
G04 APERTURE LIST*
%ADD10C,0.250000*%
%ADD11C,0.120000*%
G04 APERTURE END LIST*
D10*
X97420026Y-114410980D02*
X98181931Y-114410980D01*
X97800978Y-114791933D02*
X97800978Y-114030028D01*
X99134311Y-113791933D02*
X98658121Y-113791933D01*
X98658121Y-113791933D02*
X98610502Y-114268123D01*
X98610502Y-114268123D02*
X98658121Y-114220504D01*
X98658121Y-114220504D02*
X98753359Y-114172885D01*
X98753359Y-114172885D02*
X98991454Y-114172885D01*
X98991454Y-114172885D02*
X99086692Y-114220504D01*
X99086692Y-114220504D02*
X99134311Y-114268123D01*
X99134311Y-114268123D02*
X99181930Y-114363361D01*
X99181930Y-114363361D02*
X99181930Y-114601456D01*
X99181930Y-114601456D02*
X99134311Y-114696694D01*
X99134311Y-114696694D02*
X99086692Y-114744314D01*
X99086692Y-114744314D02*
X98991454Y-114791933D01*
X98991454Y-114791933D02*
X98753359Y-114791933D01*
X98753359Y-114791933D02*
X98658121Y-114744314D01*
X98658121Y-114744314D02*
X98610502Y-114696694D01*
X99467645Y-113791933D02*
X99800978Y-114791933D01*
X99800978Y-114791933D02*
X100134311Y-113791933D01*
X116583044Y-116094619D02*
X116773520Y-116094619D01*
X116773520Y-116094619D02*
X116868758Y-116142238D01*
X116868758Y-116142238D02*
X116963996Y-116237476D01*
X116963996Y-116237476D02*
X117011615Y-116427952D01*
X117011615Y-116427952D02*
X117011615Y-116761285D01*
X117011615Y-116761285D02*
X116963996Y-116951761D01*
X116963996Y-116951761D02*
X116868758Y-117047000D01*
X116868758Y-117047000D02*
X116773520Y-117094619D01*
X116773520Y-117094619D02*
X116583044Y-117094619D01*
X116583044Y-117094619D02*
X116487806Y-117047000D01*
X116487806Y-117047000D02*
X116392568Y-116951761D01*
X116392568Y-116951761D02*
X116344949Y-116761285D01*
X116344949Y-116761285D02*
X116344949Y-116427952D01*
X116344949Y-116427952D02*
X116392568Y-116237476D01*
X116392568Y-116237476D02*
X116487806Y-116142238D01*
X116487806Y-116142238D02*
X116583044Y-116094619D01*
X117440187Y-116094619D02*
X117440187Y-116904142D01*
X117440187Y-116904142D02*
X117487806Y-116999380D01*
X117487806Y-116999380D02*
X117535425Y-117047000D01*
X117535425Y-117047000D02*
X117630663Y-117094619D01*
X117630663Y-117094619D02*
X117821139Y-117094619D01*
X117821139Y-117094619D02*
X117916377Y-117047000D01*
X117916377Y-117047000D02*
X117963996Y-116999380D01*
X117963996Y-116999380D02*
X118011615Y-116904142D01*
X118011615Y-116904142D02*
X118011615Y-116094619D01*
X118344949Y-116094619D02*
X118916377Y-116094619D01*
X118630663Y-117094619D02*
X118630663Y-116094619D01*
X119249711Y-117094619D02*
X119249711Y-116094619D01*
X119249711Y-116094619D02*
X119630663Y-116094619D01*
X119630663Y-116094619D02*
X119725901Y-116142238D01*
X119725901Y-116142238D02*
X119773520Y-116189857D01*
X119773520Y-116189857D02*
X119821139Y-116285095D01*
X119821139Y-116285095D02*
X119821139Y-116427952D01*
X119821139Y-116427952D02*
X119773520Y-116523190D01*
X119773520Y-116523190D02*
X119725901Y-116570809D01*
X119725901Y-116570809D02*
X119630663Y-116618428D01*
X119630663Y-116618428D02*
X119249711Y-116618428D01*
X120249711Y-116094619D02*
X120249711Y-116904142D01*
X120249711Y-116904142D02*
X120297330Y-116999380D01*
X120297330Y-116999380D02*
X120344949Y-117047000D01*
X120344949Y-117047000D02*
X120440187Y-117094619D01*
X120440187Y-117094619D02*
X120630663Y-117094619D01*
X120630663Y-117094619D02*
X120725901Y-117047000D01*
X120725901Y-117047000D02*
X120773520Y-116999380D01*
X120773520Y-116999380D02*
X120821139Y-116904142D01*
X120821139Y-116904142D02*
X120821139Y-116094619D01*
X121154473Y-116094619D02*
X121725901Y-116094619D01*
X121440187Y-117094619D02*
X121440187Y-116094619D01*
X95862568Y-103814619D02*
X95862568Y-102814619D01*
X96338758Y-103814619D02*
X96338758Y-102814619D01*
X96338758Y-102814619D02*
X96910186Y-103814619D01*
X96910186Y-103814619D02*
X96910186Y-102814619D01*
X97386377Y-103814619D02*
X97386377Y-102814619D01*
X97386377Y-102814619D02*
X97767329Y-102814619D01*
X97767329Y-102814619D02*
X97862567Y-102862238D01*
X97862567Y-102862238D02*
X97910186Y-102909857D01*
X97910186Y-102909857D02*
X97957805Y-103005095D01*
X97957805Y-103005095D02*
X97957805Y-103147952D01*
X97957805Y-103147952D02*
X97910186Y-103243190D01*
X97910186Y-103243190D02*
X97862567Y-103290809D01*
X97862567Y-103290809D02*
X97767329Y-103338428D01*
X97767329Y-103338428D02*
X97386377Y-103338428D01*
X98386377Y-102814619D02*
X98386377Y-103624142D01*
X98386377Y-103624142D02*
X98433996Y-103719380D01*
X98433996Y-103719380D02*
X98481615Y-103767000D01*
X98481615Y-103767000D02*
X98576853Y-103814619D01*
X98576853Y-103814619D02*
X98767329Y-103814619D01*
X98767329Y-103814619D02*
X98862567Y-103767000D01*
X98862567Y-103767000D02*
X98910186Y-103719380D01*
X98910186Y-103719380D02*
X98957805Y-103624142D01*
X98957805Y-103624142D02*
X98957805Y-102814619D01*
X99291139Y-102814619D02*
X99862567Y-102814619D01*
X99576853Y-103814619D02*
X99576853Y-102814619D01*
D11*
%TO.C,D1*%
X105412125Y-114093697D02*
X101402125Y-114093697D01*
X105412125Y-116093697D02*
X101402125Y-116093697D01*
X105412125Y-116093697D02*
X105412125Y-114093697D01*
%TO.C,C2*%
X103839204Y-110540108D02*
X103558044Y-110540108D01*
X103839204Y-111560108D02*
X103558044Y-111560108D01*
%TO.C,P2*%
X88260000Y-116125203D02*
X88260000Y-117375203D01*
X88260000Y-117375203D02*
X89510000Y-117375203D01*
X88550000Y-101965203D02*
X88550000Y-117085203D01*
X88550000Y-117085203D02*
X94520000Y-117085203D01*
X88560000Y-101975203D02*
X88560000Y-103775203D01*
X88560000Y-103775203D02*
X89310000Y-103775203D01*
X88560000Y-105275203D02*
X88560000Y-113775203D01*
X88560000Y-113775203D02*
X89310000Y-113775203D01*
X88560000Y-115275203D02*
X88560000Y-117075203D01*
X88560000Y-117075203D02*
X89310000Y-117075203D01*
X89310000Y-101975203D02*
X88560000Y-101975203D01*
X89310000Y-103775203D02*
X89310000Y-101975203D01*
X89310000Y-105275203D02*
X88560000Y-105275203D01*
X89310000Y-113775203D02*
X89310000Y-105275203D01*
X89310000Y-115275203D02*
X88560000Y-115275203D01*
X89310000Y-117075203D02*
X89310000Y-115275203D01*
X90810000Y-101975203D02*
X90810000Y-102725203D01*
X90810000Y-102725203D02*
X93760000Y-102725203D01*
X90810000Y-116325203D02*
X93760000Y-116325203D01*
X90810000Y-117075203D02*
X90810000Y-116325203D01*
X93760000Y-102725203D02*
X93760000Y-109525203D01*
X93760000Y-116325203D02*
X93760000Y-109525203D01*
X94520000Y-101965203D02*
X88550000Y-101965203D01*
X94520000Y-117085203D02*
X94520000Y-101965203D01*
%TO.C,R2*%
X103461366Y-112498240D02*
X103935882Y-112498240D01*
X103461366Y-113543240D02*
X103935882Y-113543240D01*
%TO.C,C1*%
X102203695Y-106034450D02*
X102203695Y-110254450D01*
X102203695Y-110254450D02*
X105223695Y-110254450D01*
X105223695Y-110254450D02*
X105223695Y-106034450D01*
%TO.C,D2*%
X105353284Y-102806774D02*
X101343284Y-102806774D01*
X105353284Y-104806774D02*
X101343284Y-104806774D01*
X105353284Y-104806774D02*
X105353284Y-102806774D01*
%TO.C,P3*%
X121940000Y-116060000D02*
X121940000Y-117310000D01*
X121940000Y-117310000D02*
X123190000Y-117310000D01*
X122230000Y-101900000D02*
X122230000Y-117020000D01*
X122230000Y-117020000D02*
X128200000Y-117020000D01*
X122240000Y-101910000D02*
X122240000Y-103710000D01*
X122240000Y-103710000D02*
X122990000Y-103710000D01*
X122240000Y-105210000D02*
X122240000Y-113710000D01*
X122240000Y-113710000D02*
X122990000Y-113710000D01*
X122240000Y-115210000D02*
X122240000Y-117010000D01*
X122240000Y-117010000D02*
X122990000Y-117010000D01*
X122990000Y-101910000D02*
X122240000Y-101910000D01*
X122990000Y-103710000D02*
X122990000Y-101910000D01*
X122990000Y-105210000D02*
X122240000Y-105210000D01*
X122990000Y-113710000D02*
X122990000Y-105210000D01*
X122990000Y-115210000D02*
X122240000Y-115210000D01*
X122990000Y-117010000D02*
X122990000Y-115210000D01*
X124490000Y-101910000D02*
X124490000Y-102660000D01*
X124490000Y-102660000D02*
X127440000Y-102660000D01*
X124490000Y-116260000D02*
X127440000Y-116260000D01*
X124490000Y-117010000D02*
X124490000Y-116260000D01*
X127440000Y-102660000D02*
X127440000Y-109460000D01*
X127440000Y-116260000D02*
X127440000Y-109460000D01*
X128200000Y-101900000D02*
X122230000Y-101900000D01*
X128200000Y-117020000D02*
X128200000Y-101900000D01*
%TO.C,IC1*%
X106000000Y-105665203D02*
X106265000Y-105665203D01*
X106000000Y-113385203D02*
X106000000Y-105665203D01*
X106265000Y-113385203D02*
X106000000Y-113385203D01*
X121355000Y-105665203D02*
X121620000Y-105665203D01*
X121620000Y-105665203D02*
X121620000Y-113385203D01*
X121620000Y-113385203D02*
X121355000Y-113385203D01*
X121830000Y-105215203D02*
X121360000Y-104875203D01*
X121830000Y-104535203D01*
X121830000Y-105215203D01*
G36*
X121830000Y-105215203D02*
G01*
X121360000Y-104875203D01*
X121830000Y-104535203D01*
X121830000Y-105215203D01*
G37*
%TO.C,P1*%
X94908472Y-112361747D02*
X94908472Y-113611747D01*
X94908472Y-113611747D02*
X96158472Y-113611747D01*
X95198472Y-105701747D02*
X95198472Y-113321747D01*
X95198472Y-113321747D02*
X101168472Y-113321747D01*
X95208472Y-105711747D02*
X95208472Y-107511747D01*
X95208472Y-107511747D02*
X95958472Y-107511747D01*
X95208472Y-109011747D02*
X95208472Y-110011747D01*
X95208472Y-110011747D02*
X95958472Y-110011747D01*
X95208472Y-111511747D02*
X95208472Y-113311747D01*
X95208472Y-113311747D02*
X95958472Y-113311747D01*
X95958472Y-105711747D02*
X95208472Y-105711747D01*
X95958472Y-107511747D02*
X95958472Y-105711747D01*
X95958472Y-109011747D02*
X95208472Y-109011747D01*
X95958472Y-110011747D02*
X95958472Y-109011747D01*
X95958472Y-111511747D02*
X95208472Y-111511747D01*
X95958472Y-113311747D02*
X95958472Y-111511747D01*
X97458472Y-105711747D02*
X97458472Y-106461747D01*
X97458472Y-106461747D02*
X100408472Y-106461747D01*
X97458472Y-112561747D02*
X100408472Y-112561747D01*
X97458472Y-113311747D02*
X97458472Y-112561747D01*
X100408472Y-106461747D02*
X100408472Y-109511747D01*
X100408472Y-112561747D02*
X100408472Y-109511747D01*
X101168472Y-105701747D02*
X95198472Y-105701747D01*
X101168472Y-113321747D02*
X101168472Y-105701747D01*
%TD*%
%LPC*%
G36*
X101665558Y-114450341D02*
G01*
X101711931Y-114457686D01*
X101717982Y-114460769D01*
X101732746Y-114463706D01*
X101761650Y-114483020D01*
X101788436Y-114496668D01*
X101801243Y-114509475D01*
X101822286Y-114523536D01*
X101836346Y-114544578D01*
X101849153Y-114557385D01*
X101862799Y-114584168D01*
X101882116Y-114613076D01*
X101885052Y-114627841D01*
X101888135Y-114633890D01*
X101895476Y-114680242D01*
X101903125Y-114718697D01*
X101903125Y-115468697D01*
X101895475Y-115507155D01*
X101888135Y-115553503D01*
X101885053Y-115559551D01*
X101882116Y-115574318D01*
X101862797Y-115603229D01*
X101849153Y-115630008D01*
X101836348Y-115642812D01*
X101822286Y-115663858D01*
X101801240Y-115677920D01*
X101788436Y-115690725D01*
X101761657Y-115704369D01*
X101732746Y-115723688D01*
X101717979Y-115726625D01*
X101711931Y-115729707D01*
X101665583Y-115737047D01*
X101627125Y-115744697D01*
X101177125Y-115744697D01*
X101138670Y-115737048D01*
X101092318Y-115729707D01*
X101086269Y-115726624D01*
X101071504Y-115723688D01*
X101042596Y-115704371D01*
X101015813Y-115690725D01*
X101003006Y-115677918D01*
X100981964Y-115663858D01*
X100967903Y-115642815D01*
X100955096Y-115630008D01*
X100941448Y-115603222D01*
X100922134Y-115574318D01*
X100919197Y-115559554D01*
X100916114Y-115553503D01*
X100908769Y-115507130D01*
X100901125Y-115468697D01*
X100901125Y-114718697D01*
X100908769Y-114680267D01*
X100916114Y-114633890D01*
X100919197Y-114627838D01*
X100922134Y-114613076D01*
X100941445Y-114584174D01*
X100955096Y-114557385D01*
X100967905Y-114544575D01*
X100981964Y-114523536D01*
X101003003Y-114509477D01*
X101015813Y-114496668D01*
X101042602Y-114483017D01*
X101071504Y-114463706D01*
X101086266Y-114460769D01*
X101092318Y-114457686D01*
X101138695Y-114450341D01*
X101177125Y-114442697D01*
X101627125Y-114442697D01*
X101665558Y-114450341D01*
G37*
G36*
X104965558Y-114450341D02*
G01*
X105011931Y-114457686D01*
X105017982Y-114460769D01*
X105032746Y-114463706D01*
X105061650Y-114483020D01*
X105088436Y-114496668D01*
X105101243Y-114509475D01*
X105122286Y-114523536D01*
X105136346Y-114544578D01*
X105149153Y-114557385D01*
X105162799Y-114584168D01*
X105182116Y-114613076D01*
X105185052Y-114627841D01*
X105188135Y-114633890D01*
X105195476Y-114680242D01*
X105203125Y-114718697D01*
X105203125Y-115468697D01*
X105195475Y-115507155D01*
X105188135Y-115553503D01*
X105185053Y-115559551D01*
X105182116Y-115574318D01*
X105162797Y-115603229D01*
X105149153Y-115630008D01*
X105136348Y-115642812D01*
X105122286Y-115663858D01*
X105101240Y-115677920D01*
X105088436Y-115690725D01*
X105061657Y-115704369D01*
X105032746Y-115723688D01*
X105017979Y-115726625D01*
X105011931Y-115729707D01*
X104965583Y-115737047D01*
X104927125Y-115744697D01*
X104477125Y-115744697D01*
X104438670Y-115737048D01*
X104392318Y-115729707D01*
X104386269Y-115726624D01*
X104371504Y-115723688D01*
X104342596Y-115704371D01*
X104315813Y-115690725D01*
X104303006Y-115677918D01*
X104281964Y-115663858D01*
X104267903Y-115642815D01*
X104255096Y-115630008D01*
X104241448Y-115603222D01*
X104222134Y-115574318D01*
X104219197Y-115559554D01*
X104216114Y-115553503D01*
X104208769Y-115507130D01*
X104201125Y-115468697D01*
X104201125Y-114718697D01*
X104208769Y-114680267D01*
X104216114Y-114633890D01*
X104219197Y-114627838D01*
X104222134Y-114613076D01*
X104241445Y-114584174D01*
X104255096Y-114557385D01*
X104267905Y-114544575D01*
X104281964Y-114523536D01*
X104303003Y-114509477D01*
X104315813Y-114496668D01*
X104342602Y-114483017D01*
X104371504Y-114463706D01*
X104386266Y-114460769D01*
X104392318Y-114457686D01*
X104438695Y-114450341D01*
X104477125Y-114442697D01*
X104927125Y-114442697D01*
X104965558Y-114450341D01*
G37*
G36*
X91803914Y-113632198D02*
G01*
X91819726Y-113639179D01*
X91827531Y-113640416D01*
X91860039Y-113656979D01*
X91905106Y-113676879D01*
X91983324Y-113755097D01*
X92003226Y-113800170D01*
X92019786Y-113832671D01*
X92021021Y-113840473D01*
X92028005Y-113856289D01*
X92036000Y-113925203D01*
X92036000Y-115125203D01*
X92028005Y-115194117D01*
X92021021Y-115209932D01*
X92019786Y-115217734D01*
X92003229Y-115250227D01*
X91983324Y-115295309D01*
X91905106Y-115373527D01*
X91860024Y-115393432D01*
X91827531Y-115409989D01*
X91819729Y-115411224D01*
X91803914Y-115418208D01*
X91735000Y-115426203D01*
X90285000Y-115426203D01*
X90216086Y-115418208D01*
X90200270Y-115411224D01*
X90192468Y-115409989D01*
X90159967Y-115393429D01*
X90114894Y-115373527D01*
X90036676Y-115295309D01*
X90016776Y-115250242D01*
X90000213Y-115217734D01*
X89998976Y-115209929D01*
X89991995Y-115194117D01*
X89984000Y-115125203D01*
X89984000Y-113925203D01*
X89991995Y-113856289D01*
X89998976Y-113840477D01*
X90000213Y-113832671D01*
X90016780Y-113800156D01*
X90036676Y-113755097D01*
X90114894Y-113676879D01*
X90159953Y-113656983D01*
X90192468Y-113640416D01*
X90200274Y-113639179D01*
X90216086Y-113632198D01*
X90285000Y-113624203D01*
X91735000Y-113624203D01*
X91803914Y-113632198D01*
G37*
G36*
X125483914Y-113566995D02*
G01*
X125499726Y-113573976D01*
X125507531Y-113575213D01*
X125540039Y-113591776D01*
X125585106Y-113611676D01*
X125663324Y-113689894D01*
X125683226Y-113734967D01*
X125699786Y-113767468D01*
X125701021Y-113775270D01*
X125708005Y-113791086D01*
X125716000Y-113860000D01*
X125716000Y-115060000D01*
X125708005Y-115128914D01*
X125701021Y-115144729D01*
X125699786Y-115152531D01*
X125683229Y-115185024D01*
X125663324Y-115230106D01*
X125585106Y-115308324D01*
X125540024Y-115328229D01*
X125507531Y-115344786D01*
X125499729Y-115346021D01*
X125483914Y-115353005D01*
X125415000Y-115361000D01*
X123965000Y-115361000D01*
X123896086Y-115353005D01*
X123880270Y-115346021D01*
X123872468Y-115344786D01*
X123839967Y-115328226D01*
X123794894Y-115308324D01*
X123716676Y-115230106D01*
X123696776Y-115185039D01*
X123680213Y-115152531D01*
X123678976Y-115144726D01*
X123671995Y-115128914D01*
X123664000Y-115060000D01*
X123664000Y-113860000D01*
X123671995Y-113791086D01*
X123678976Y-113775274D01*
X123680213Y-113767468D01*
X123696780Y-113734953D01*
X123716676Y-113689894D01*
X123794894Y-113611676D01*
X123839953Y-113591780D01*
X123872468Y-113575213D01*
X123880274Y-113573976D01*
X123896086Y-113566995D01*
X123965000Y-113559000D01*
X125415000Y-113559000D01*
X125483914Y-113566995D01*
G37*
G36*
X106991040Y-113102393D02*
G01*
X107023987Y-113106731D01*
X107032274Y-113110595D01*
X107051919Y-113114503D01*
X107077938Y-113131889D01*
X107089180Y-113137131D01*
X107096019Y-113143970D01*
X107117128Y-113158075D01*
X107131232Y-113179183D01*
X107138071Y-113186022D01*
X107143312Y-113197261D01*
X107160700Y-113223284D01*
X107164607Y-113242930D01*
X107168471Y-113251215D01*
X107172806Y-113284149D01*
X107176000Y-113300203D01*
X107176000Y-115050203D01*
X107172806Y-115066257D01*
X107168471Y-115099190D01*
X107164608Y-115107473D01*
X107160700Y-115127122D01*
X107143310Y-115153146D01*
X107138071Y-115164383D01*
X107131234Y-115171219D01*
X107117128Y-115192331D01*
X107096016Y-115206437D01*
X107089180Y-115213274D01*
X107077943Y-115218513D01*
X107051919Y-115235903D01*
X107032270Y-115239811D01*
X107023987Y-115243674D01*
X106991054Y-115248009D01*
X106975000Y-115251203D01*
X106675000Y-115251203D01*
X106658946Y-115248009D01*
X106626012Y-115243674D01*
X106617727Y-115239810D01*
X106598081Y-115235903D01*
X106572058Y-115218515D01*
X106560819Y-115213274D01*
X106553980Y-115206435D01*
X106532872Y-115192331D01*
X106518767Y-115171222D01*
X106511928Y-115164383D01*
X106506686Y-115153141D01*
X106489300Y-115127122D01*
X106485392Y-115107477D01*
X106481528Y-115099190D01*
X106477190Y-115066243D01*
X106474000Y-115050203D01*
X106474000Y-113300203D01*
X106477190Y-113284164D01*
X106481528Y-113251215D01*
X106485392Y-113242926D01*
X106489300Y-113223284D01*
X106506684Y-113197266D01*
X106511928Y-113186022D01*
X106518769Y-113179180D01*
X106532872Y-113158075D01*
X106553977Y-113143972D01*
X106560819Y-113137131D01*
X106572063Y-113131887D01*
X106598081Y-113114503D01*
X106617723Y-113110595D01*
X106626012Y-113106731D01*
X106658961Y-113102393D01*
X106675000Y-113099203D01*
X106975000Y-113099203D01*
X106991040Y-113102393D01*
G37*
G36*
X108261040Y-113102393D02*
G01*
X108293987Y-113106731D01*
X108302274Y-113110595D01*
X108321919Y-113114503D01*
X108347938Y-113131889D01*
X108359180Y-113137131D01*
X108366019Y-113143970D01*
X108387128Y-113158075D01*
X108401232Y-113179183D01*
X108408071Y-113186022D01*
X108413312Y-113197261D01*
X108430700Y-113223284D01*
X108434607Y-113242930D01*
X108438471Y-113251215D01*
X108442806Y-113284149D01*
X108446000Y-113300203D01*
X108446000Y-115050203D01*
X108442806Y-115066257D01*
X108438471Y-115099190D01*
X108434608Y-115107473D01*
X108430700Y-115127122D01*
X108413310Y-115153146D01*
X108408071Y-115164383D01*
X108401234Y-115171219D01*
X108387128Y-115192331D01*
X108366016Y-115206437D01*
X108359180Y-115213274D01*
X108347943Y-115218513D01*
X108321919Y-115235903D01*
X108302270Y-115239811D01*
X108293987Y-115243674D01*
X108261054Y-115248009D01*
X108245000Y-115251203D01*
X107945000Y-115251203D01*
X107928946Y-115248009D01*
X107896012Y-115243674D01*
X107887727Y-115239810D01*
X107868081Y-115235903D01*
X107842058Y-115218515D01*
X107830819Y-115213274D01*
X107823980Y-115206435D01*
X107802872Y-115192331D01*
X107788767Y-115171222D01*
X107781928Y-115164383D01*
X107776686Y-115153141D01*
X107759300Y-115127122D01*
X107755392Y-115107477D01*
X107751528Y-115099190D01*
X107747190Y-115066243D01*
X107744000Y-115050203D01*
X107744000Y-113300203D01*
X107747190Y-113284164D01*
X107751528Y-113251215D01*
X107755392Y-113242926D01*
X107759300Y-113223284D01*
X107776684Y-113197266D01*
X107781928Y-113186022D01*
X107788769Y-113179180D01*
X107802872Y-113158075D01*
X107823977Y-113143972D01*
X107830819Y-113137131D01*
X107842063Y-113131887D01*
X107868081Y-113114503D01*
X107887723Y-113110595D01*
X107896012Y-113106731D01*
X107928961Y-113102393D01*
X107945000Y-113099203D01*
X108245000Y-113099203D01*
X108261040Y-113102393D01*
G37*
G36*
X109531040Y-113102393D02*
G01*
X109563987Y-113106731D01*
X109572274Y-113110595D01*
X109591919Y-113114503D01*
X109617938Y-113131889D01*
X109629180Y-113137131D01*
X109636019Y-113143970D01*
X109657128Y-113158075D01*
X109671232Y-113179183D01*
X109678071Y-113186022D01*
X109683312Y-113197261D01*
X109700700Y-113223284D01*
X109704607Y-113242930D01*
X109708471Y-113251215D01*
X109712806Y-113284149D01*
X109716000Y-113300203D01*
X109716000Y-115050203D01*
X109712806Y-115066257D01*
X109708471Y-115099190D01*
X109704608Y-115107473D01*
X109700700Y-115127122D01*
X109683310Y-115153146D01*
X109678071Y-115164383D01*
X109671234Y-115171219D01*
X109657128Y-115192331D01*
X109636016Y-115206437D01*
X109629180Y-115213274D01*
X109617943Y-115218513D01*
X109591919Y-115235903D01*
X109572270Y-115239811D01*
X109563987Y-115243674D01*
X109531054Y-115248009D01*
X109515000Y-115251203D01*
X109215000Y-115251203D01*
X109198946Y-115248009D01*
X109166012Y-115243674D01*
X109157727Y-115239810D01*
X109138081Y-115235903D01*
X109112058Y-115218515D01*
X109100819Y-115213274D01*
X109093980Y-115206435D01*
X109072872Y-115192331D01*
X109058767Y-115171222D01*
X109051928Y-115164383D01*
X109046686Y-115153141D01*
X109029300Y-115127122D01*
X109025392Y-115107477D01*
X109021528Y-115099190D01*
X109017190Y-115066243D01*
X109014000Y-115050203D01*
X109014000Y-113300203D01*
X109017190Y-113284164D01*
X109021528Y-113251215D01*
X109025392Y-113242926D01*
X109029300Y-113223284D01*
X109046684Y-113197266D01*
X109051928Y-113186022D01*
X109058769Y-113179180D01*
X109072872Y-113158075D01*
X109093977Y-113143972D01*
X109100819Y-113137131D01*
X109112063Y-113131887D01*
X109138081Y-113114503D01*
X109157723Y-113110595D01*
X109166012Y-113106731D01*
X109198961Y-113102393D01*
X109215000Y-113099203D01*
X109515000Y-113099203D01*
X109531040Y-113102393D01*
G37*
G36*
X110801040Y-113102393D02*
G01*
X110833987Y-113106731D01*
X110842274Y-113110595D01*
X110861919Y-113114503D01*
X110887938Y-113131889D01*
X110899180Y-113137131D01*
X110906019Y-113143970D01*
X110927128Y-113158075D01*
X110941232Y-113179183D01*
X110948071Y-113186022D01*
X110953312Y-113197261D01*
X110970700Y-113223284D01*
X110974607Y-113242930D01*
X110978471Y-113251215D01*
X110982806Y-113284149D01*
X110986000Y-113300203D01*
X110986000Y-115050203D01*
X110982806Y-115066257D01*
X110978471Y-115099190D01*
X110974608Y-115107473D01*
X110970700Y-115127122D01*
X110953310Y-115153146D01*
X110948071Y-115164383D01*
X110941234Y-115171219D01*
X110927128Y-115192331D01*
X110906016Y-115206437D01*
X110899180Y-115213274D01*
X110887943Y-115218513D01*
X110861919Y-115235903D01*
X110842270Y-115239811D01*
X110833987Y-115243674D01*
X110801054Y-115248009D01*
X110785000Y-115251203D01*
X110485000Y-115251203D01*
X110468946Y-115248009D01*
X110436012Y-115243674D01*
X110427727Y-115239810D01*
X110408081Y-115235903D01*
X110382058Y-115218515D01*
X110370819Y-115213274D01*
X110363980Y-115206435D01*
X110342872Y-115192331D01*
X110328767Y-115171222D01*
X110321928Y-115164383D01*
X110316686Y-115153141D01*
X110299300Y-115127122D01*
X110295392Y-115107477D01*
X110291528Y-115099190D01*
X110287190Y-115066243D01*
X110284000Y-115050203D01*
X110284000Y-113300203D01*
X110287190Y-113284164D01*
X110291528Y-113251215D01*
X110295392Y-113242926D01*
X110299300Y-113223284D01*
X110316684Y-113197266D01*
X110321928Y-113186022D01*
X110328769Y-113179180D01*
X110342872Y-113158075D01*
X110363977Y-113143972D01*
X110370819Y-113137131D01*
X110382063Y-113131887D01*
X110408081Y-113114503D01*
X110427723Y-113110595D01*
X110436012Y-113106731D01*
X110468961Y-113102393D01*
X110485000Y-113099203D01*
X110785000Y-113099203D01*
X110801040Y-113102393D01*
G37*
G36*
X112071040Y-113102393D02*
G01*
X112103987Y-113106731D01*
X112112274Y-113110595D01*
X112131919Y-113114503D01*
X112157938Y-113131889D01*
X112169180Y-113137131D01*
X112176019Y-113143970D01*
X112197128Y-113158075D01*
X112211232Y-113179183D01*
X112218071Y-113186022D01*
X112223312Y-113197261D01*
X112240700Y-113223284D01*
X112244607Y-113242930D01*
X112248471Y-113251215D01*
X112252806Y-113284149D01*
X112256000Y-113300203D01*
X112256000Y-115050203D01*
X112252806Y-115066257D01*
X112248471Y-115099190D01*
X112244608Y-115107473D01*
X112240700Y-115127122D01*
X112223310Y-115153146D01*
X112218071Y-115164383D01*
X112211234Y-115171219D01*
X112197128Y-115192331D01*
X112176016Y-115206437D01*
X112169180Y-115213274D01*
X112157943Y-115218513D01*
X112131919Y-115235903D01*
X112112270Y-115239811D01*
X112103987Y-115243674D01*
X112071054Y-115248009D01*
X112055000Y-115251203D01*
X111755000Y-115251203D01*
X111738946Y-115248009D01*
X111706012Y-115243674D01*
X111697727Y-115239810D01*
X111678081Y-115235903D01*
X111652058Y-115218515D01*
X111640819Y-115213274D01*
X111633980Y-115206435D01*
X111612872Y-115192331D01*
X111598767Y-115171222D01*
X111591928Y-115164383D01*
X111586686Y-115153141D01*
X111569300Y-115127122D01*
X111565392Y-115107477D01*
X111561528Y-115099190D01*
X111557190Y-115066243D01*
X111554000Y-115050203D01*
X111554000Y-113300203D01*
X111557190Y-113284164D01*
X111561528Y-113251215D01*
X111565392Y-113242926D01*
X111569300Y-113223284D01*
X111586684Y-113197266D01*
X111591928Y-113186022D01*
X111598769Y-113179180D01*
X111612872Y-113158075D01*
X111633977Y-113143972D01*
X111640819Y-113137131D01*
X111652063Y-113131887D01*
X111678081Y-113114503D01*
X111697723Y-113110595D01*
X111706012Y-113106731D01*
X111738961Y-113102393D01*
X111755000Y-113099203D01*
X112055000Y-113099203D01*
X112071040Y-113102393D01*
G37*
G36*
X113341040Y-113102393D02*
G01*
X113373987Y-113106731D01*
X113382274Y-113110595D01*
X113401919Y-113114503D01*
X113427938Y-113131889D01*
X113439180Y-113137131D01*
X113446019Y-113143970D01*
X113467128Y-113158075D01*
X113481232Y-113179183D01*
X113488071Y-113186022D01*
X113493312Y-113197261D01*
X113510700Y-113223284D01*
X113514607Y-113242930D01*
X113518471Y-113251215D01*
X113522806Y-113284149D01*
X113526000Y-113300203D01*
X113526000Y-115050203D01*
X113522806Y-115066257D01*
X113518471Y-115099190D01*
X113514608Y-115107473D01*
X113510700Y-115127122D01*
X113493310Y-115153146D01*
X113488071Y-115164383D01*
X113481234Y-115171219D01*
X113467128Y-115192331D01*
X113446016Y-115206437D01*
X113439180Y-115213274D01*
X113427943Y-115218513D01*
X113401919Y-115235903D01*
X113382270Y-115239811D01*
X113373987Y-115243674D01*
X113341054Y-115248009D01*
X113325000Y-115251203D01*
X113025000Y-115251203D01*
X113008946Y-115248009D01*
X112976012Y-115243674D01*
X112967727Y-115239810D01*
X112948081Y-115235903D01*
X112922058Y-115218515D01*
X112910819Y-115213274D01*
X112903980Y-115206435D01*
X112882872Y-115192331D01*
X112868767Y-115171222D01*
X112861928Y-115164383D01*
X112856686Y-115153141D01*
X112839300Y-115127122D01*
X112835392Y-115107477D01*
X112831528Y-115099190D01*
X112827190Y-115066243D01*
X112824000Y-115050203D01*
X112824000Y-113300203D01*
X112827190Y-113284164D01*
X112831528Y-113251215D01*
X112835392Y-113242926D01*
X112839300Y-113223284D01*
X112856684Y-113197266D01*
X112861928Y-113186022D01*
X112868769Y-113179180D01*
X112882872Y-113158075D01*
X112903977Y-113143972D01*
X112910819Y-113137131D01*
X112922063Y-113131887D01*
X112948081Y-113114503D01*
X112967723Y-113110595D01*
X112976012Y-113106731D01*
X113008961Y-113102393D01*
X113025000Y-113099203D01*
X113325000Y-113099203D01*
X113341040Y-113102393D01*
G37*
G36*
X114611040Y-113102393D02*
G01*
X114643987Y-113106731D01*
X114652274Y-113110595D01*
X114671919Y-113114503D01*
X114697938Y-113131889D01*
X114709180Y-113137131D01*
X114716019Y-113143970D01*
X114737128Y-113158075D01*
X114751232Y-113179183D01*
X114758071Y-113186022D01*
X114763312Y-113197261D01*
X114780700Y-113223284D01*
X114784607Y-113242930D01*
X114788471Y-113251215D01*
X114792806Y-113284149D01*
X114796000Y-113300203D01*
X114796000Y-115050203D01*
X114792806Y-115066257D01*
X114788471Y-115099190D01*
X114784608Y-115107473D01*
X114780700Y-115127122D01*
X114763310Y-115153146D01*
X114758071Y-115164383D01*
X114751234Y-115171219D01*
X114737128Y-115192331D01*
X114716016Y-115206437D01*
X114709180Y-115213274D01*
X114697943Y-115218513D01*
X114671919Y-115235903D01*
X114652270Y-115239811D01*
X114643987Y-115243674D01*
X114611054Y-115248009D01*
X114595000Y-115251203D01*
X114295000Y-115251203D01*
X114278946Y-115248009D01*
X114246012Y-115243674D01*
X114237727Y-115239810D01*
X114218081Y-115235903D01*
X114192058Y-115218515D01*
X114180819Y-115213274D01*
X114173980Y-115206435D01*
X114152872Y-115192331D01*
X114138767Y-115171222D01*
X114131928Y-115164383D01*
X114126686Y-115153141D01*
X114109300Y-115127122D01*
X114105392Y-115107477D01*
X114101528Y-115099190D01*
X114097190Y-115066243D01*
X114094000Y-115050203D01*
X114094000Y-113300203D01*
X114097190Y-113284164D01*
X114101528Y-113251215D01*
X114105392Y-113242926D01*
X114109300Y-113223284D01*
X114126684Y-113197266D01*
X114131928Y-113186022D01*
X114138769Y-113179180D01*
X114152872Y-113158075D01*
X114173977Y-113143972D01*
X114180819Y-113137131D01*
X114192063Y-113131887D01*
X114218081Y-113114503D01*
X114237723Y-113110595D01*
X114246012Y-113106731D01*
X114278961Y-113102393D01*
X114295000Y-113099203D01*
X114595000Y-113099203D01*
X114611040Y-113102393D01*
G37*
G36*
X115881040Y-113102393D02*
G01*
X115913987Y-113106731D01*
X115922274Y-113110595D01*
X115941919Y-113114503D01*
X115967938Y-113131889D01*
X115979180Y-113137131D01*
X115986019Y-113143970D01*
X116007128Y-113158075D01*
X116021232Y-113179183D01*
X116028071Y-113186022D01*
X116033312Y-113197261D01*
X116050700Y-113223284D01*
X116054607Y-113242930D01*
X116058471Y-113251215D01*
X116062806Y-113284149D01*
X116066000Y-113300203D01*
X116066000Y-115050203D01*
X116062806Y-115066257D01*
X116058471Y-115099190D01*
X116054608Y-115107473D01*
X116050700Y-115127122D01*
X116033310Y-115153146D01*
X116028071Y-115164383D01*
X116021234Y-115171219D01*
X116007128Y-115192331D01*
X115986016Y-115206437D01*
X115979180Y-115213274D01*
X115967943Y-115218513D01*
X115941919Y-115235903D01*
X115922270Y-115239811D01*
X115913987Y-115243674D01*
X115881054Y-115248009D01*
X115865000Y-115251203D01*
X115565000Y-115251203D01*
X115548946Y-115248009D01*
X115516012Y-115243674D01*
X115507727Y-115239810D01*
X115488081Y-115235903D01*
X115462058Y-115218515D01*
X115450819Y-115213274D01*
X115443980Y-115206435D01*
X115422872Y-115192331D01*
X115408767Y-115171222D01*
X115401928Y-115164383D01*
X115396686Y-115153141D01*
X115379300Y-115127122D01*
X115375392Y-115107477D01*
X115371528Y-115099190D01*
X115367190Y-115066243D01*
X115364000Y-115050203D01*
X115364000Y-113300203D01*
X115367190Y-113284164D01*
X115371528Y-113251215D01*
X115375392Y-113242926D01*
X115379300Y-113223284D01*
X115396684Y-113197266D01*
X115401928Y-113186022D01*
X115408769Y-113179180D01*
X115422872Y-113158075D01*
X115443977Y-113143972D01*
X115450819Y-113137131D01*
X115462063Y-113131887D01*
X115488081Y-113114503D01*
X115507723Y-113110595D01*
X115516012Y-113106731D01*
X115548961Y-113102393D01*
X115565000Y-113099203D01*
X115865000Y-113099203D01*
X115881040Y-113102393D01*
G37*
G36*
X117151040Y-113102393D02*
G01*
X117183987Y-113106731D01*
X117192274Y-113110595D01*
X117211919Y-113114503D01*
X117237938Y-113131889D01*
X117249180Y-113137131D01*
X117256019Y-113143970D01*
X117277128Y-113158075D01*
X117291232Y-113179183D01*
X117298071Y-113186022D01*
X117303312Y-113197261D01*
X117320700Y-113223284D01*
X117324607Y-113242930D01*
X117328471Y-113251215D01*
X117332806Y-113284149D01*
X117336000Y-113300203D01*
X117336000Y-115050203D01*
X117332806Y-115066257D01*
X117328471Y-115099190D01*
X117324608Y-115107473D01*
X117320700Y-115127122D01*
X117303310Y-115153146D01*
X117298071Y-115164383D01*
X117291234Y-115171219D01*
X117277128Y-115192331D01*
X117256016Y-115206437D01*
X117249180Y-115213274D01*
X117237943Y-115218513D01*
X117211919Y-115235903D01*
X117192270Y-115239811D01*
X117183987Y-115243674D01*
X117151054Y-115248009D01*
X117135000Y-115251203D01*
X116835000Y-115251203D01*
X116818946Y-115248009D01*
X116786012Y-115243674D01*
X116777727Y-115239810D01*
X116758081Y-115235903D01*
X116732058Y-115218515D01*
X116720819Y-115213274D01*
X116713980Y-115206435D01*
X116692872Y-115192331D01*
X116678767Y-115171222D01*
X116671928Y-115164383D01*
X116666686Y-115153141D01*
X116649300Y-115127122D01*
X116645392Y-115107477D01*
X116641528Y-115099190D01*
X116637190Y-115066243D01*
X116634000Y-115050203D01*
X116634000Y-113300203D01*
X116637190Y-113284164D01*
X116641528Y-113251215D01*
X116645392Y-113242926D01*
X116649300Y-113223284D01*
X116666684Y-113197266D01*
X116671928Y-113186022D01*
X116678769Y-113179180D01*
X116692872Y-113158075D01*
X116713977Y-113143972D01*
X116720819Y-113137131D01*
X116732063Y-113131887D01*
X116758081Y-113114503D01*
X116777723Y-113110595D01*
X116786012Y-113106731D01*
X116818961Y-113102393D01*
X116835000Y-113099203D01*
X117135000Y-113099203D01*
X117151040Y-113102393D01*
G37*
G36*
X118421040Y-113102393D02*
G01*
X118453987Y-113106731D01*
X118462274Y-113110595D01*
X118481919Y-113114503D01*
X118507938Y-113131889D01*
X118519180Y-113137131D01*
X118526019Y-113143970D01*
X118547128Y-113158075D01*
X118561232Y-113179183D01*
X118568071Y-113186022D01*
X118573312Y-113197261D01*
X118590700Y-113223284D01*
X118594607Y-113242930D01*
X118598471Y-113251215D01*
X118602806Y-113284149D01*
X118606000Y-113300203D01*
X118606000Y-115050203D01*
X118602806Y-115066257D01*
X118598471Y-115099190D01*
X118594608Y-115107473D01*
X118590700Y-115127122D01*
X118573310Y-115153146D01*
X118568071Y-115164383D01*
X118561234Y-115171219D01*
X118547128Y-115192331D01*
X118526016Y-115206437D01*
X118519180Y-115213274D01*
X118507943Y-115218513D01*
X118481919Y-115235903D01*
X118462270Y-115239811D01*
X118453987Y-115243674D01*
X118421054Y-115248009D01*
X118405000Y-115251203D01*
X118105000Y-115251203D01*
X118088946Y-115248009D01*
X118056012Y-115243674D01*
X118047727Y-115239810D01*
X118028081Y-115235903D01*
X118002058Y-115218515D01*
X117990819Y-115213274D01*
X117983980Y-115206435D01*
X117962872Y-115192331D01*
X117948767Y-115171222D01*
X117941928Y-115164383D01*
X117936686Y-115153141D01*
X117919300Y-115127122D01*
X117915392Y-115107477D01*
X117911528Y-115099190D01*
X117907190Y-115066243D01*
X117904000Y-115050203D01*
X117904000Y-113300203D01*
X117907190Y-113284164D01*
X117911528Y-113251215D01*
X117915392Y-113242926D01*
X117919300Y-113223284D01*
X117936684Y-113197266D01*
X117941928Y-113186022D01*
X117948769Y-113179180D01*
X117962872Y-113158075D01*
X117983977Y-113143972D01*
X117990819Y-113137131D01*
X118002063Y-113131887D01*
X118028081Y-113114503D01*
X118047723Y-113110595D01*
X118056012Y-113106731D01*
X118088961Y-113102393D01*
X118105000Y-113099203D01*
X118405000Y-113099203D01*
X118421040Y-113102393D01*
G37*
G36*
X119691040Y-113102393D02*
G01*
X119723987Y-113106731D01*
X119732274Y-113110595D01*
X119751919Y-113114503D01*
X119777938Y-113131889D01*
X119789180Y-113137131D01*
X119796019Y-113143970D01*
X119817128Y-113158075D01*
X119831232Y-113179183D01*
X119838071Y-113186022D01*
X119843312Y-113197261D01*
X119860700Y-113223284D01*
X119864607Y-113242930D01*
X119868471Y-113251215D01*
X119872806Y-113284149D01*
X119876000Y-113300203D01*
X119876000Y-115050203D01*
X119872806Y-115066257D01*
X119868471Y-115099190D01*
X119864608Y-115107473D01*
X119860700Y-115127122D01*
X119843310Y-115153146D01*
X119838071Y-115164383D01*
X119831234Y-115171219D01*
X119817128Y-115192331D01*
X119796016Y-115206437D01*
X119789180Y-115213274D01*
X119777943Y-115218513D01*
X119751919Y-115235903D01*
X119732270Y-115239811D01*
X119723987Y-115243674D01*
X119691054Y-115248009D01*
X119675000Y-115251203D01*
X119375000Y-115251203D01*
X119358946Y-115248009D01*
X119326012Y-115243674D01*
X119317727Y-115239810D01*
X119298081Y-115235903D01*
X119272058Y-115218515D01*
X119260819Y-115213274D01*
X119253980Y-115206435D01*
X119232872Y-115192331D01*
X119218767Y-115171222D01*
X119211928Y-115164383D01*
X119206686Y-115153141D01*
X119189300Y-115127122D01*
X119185392Y-115107477D01*
X119181528Y-115099190D01*
X119177190Y-115066243D01*
X119174000Y-115050203D01*
X119174000Y-113300203D01*
X119177190Y-113284164D01*
X119181528Y-113251215D01*
X119185392Y-113242926D01*
X119189300Y-113223284D01*
X119206684Y-113197266D01*
X119211928Y-113186022D01*
X119218769Y-113179180D01*
X119232872Y-113158075D01*
X119253977Y-113143972D01*
X119260819Y-113137131D01*
X119272063Y-113131887D01*
X119298081Y-113114503D01*
X119317723Y-113110595D01*
X119326012Y-113106731D01*
X119358961Y-113102393D01*
X119375000Y-113099203D01*
X119675000Y-113099203D01*
X119691040Y-113102393D01*
G37*
G36*
X120961040Y-113102393D02*
G01*
X120993987Y-113106731D01*
X121002274Y-113110595D01*
X121021919Y-113114503D01*
X121047938Y-113131889D01*
X121059180Y-113137131D01*
X121066019Y-113143970D01*
X121087128Y-113158075D01*
X121101232Y-113179183D01*
X121108071Y-113186022D01*
X121113312Y-113197261D01*
X121130700Y-113223284D01*
X121134607Y-113242930D01*
X121138471Y-113251215D01*
X121142806Y-113284149D01*
X121146000Y-113300203D01*
X121146000Y-115050203D01*
X121142806Y-115066257D01*
X121138471Y-115099190D01*
X121134608Y-115107473D01*
X121130700Y-115127122D01*
X121113310Y-115153146D01*
X121108071Y-115164383D01*
X121101234Y-115171219D01*
X121087128Y-115192331D01*
X121066016Y-115206437D01*
X121059180Y-115213274D01*
X121047943Y-115218513D01*
X121021919Y-115235903D01*
X121002270Y-115239811D01*
X120993987Y-115243674D01*
X120961054Y-115248009D01*
X120945000Y-115251203D01*
X120645000Y-115251203D01*
X120628946Y-115248009D01*
X120596012Y-115243674D01*
X120587727Y-115239810D01*
X120568081Y-115235903D01*
X120542058Y-115218515D01*
X120530819Y-115213274D01*
X120523980Y-115206435D01*
X120502872Y-115192331D01*
X120488767Y-115171222D01*
X120481928Y-115164383D01*
X120476686Y-115153141D01*
X120459300Y-115127122D01*
X120455392Y-115107477D01*
X120451528Y-115099190D01*
X120447190Y-115066243D01*
X120444000Y-115050203D01*
X120444000Y-113300203D01*
X120447190Y-113284164D01*
X120451528Y-113251215D01*
X120455392Y-113242926D01*
X120459300Y-113223284D01*
X120476684Y-113197266D01*
X120481928Y-113186022D01*
X120488769Y-113179180D01*
X120502872Y-113158075D01*
X120523977Y-113143972D01*
X120530819Y-113137131D01*
X120542063Y-113131887D01*
X120568081Y-113114503D01*
X120587723Y-113110595D01*
X120596012Y-113106731D01*
X120628961Y-113102393D01*
X120645000Y-113099203D01*
X120945000Y-113099203D01*
X120961040Y-113102393D01*
G37*
G36*
X103098417Y-112499671D02*
G01*
X103143557Y-112506248D01*
X103151841Y-112510298D01*
X103169678Y-112513846D01*
X103198521Y-112533118D01*
X103218468Y-112542870D01*
X103229246Y-112553648D01*
X103251108Y-112568256D01*
X103265715Y-112590117D01*
X103276493Y-112600895D01*
X103286243Y-112620839D01*
X103305518Y-112649686D01*
X103309066Y-112667523D01*
X103313115Y-112675806D01*
X103319689Y-112720930D01*
X103324624Y-112745740D01*
X103324624Y-113295740D01*
X103319688Y-113320552D01*
X103313115Y-113365673D01*
X103309066Y-113373954D01*
X103305518Y-113391794D01*
X103286241Y-113420643D01*
X103276493Y-113440584D01*
X103265717Y-113451359D01*
X103251108Y-113473224D01*
X103229243Y-113487833D01*
X103218468Y-113498609D01*
X103198527Y-113508357D01*
X103169678Y-113527634D01*
X103151838Y-113531182D01*
X103143557Y-113535231D01*
X103098436Y-113541804D01*
X103073624Y-113546740D01*
X102673624Y-113546740D01*
X102648814Y-113541805D01*
X102603690Y-113535231D01*
X102595407Y-113531182D01*
X102577570Y-113527634D01*
X102548723Y-113508359D01*
X102528779Y-113498609D01*
X102518001Y-113487831D01*
X102496140Y-113473224D01*
X102481532Y-113451362D01*
X102470754Y-113440584D01*
X102461002Y-113420637D01*
X102441730Y-113391794D01*
X102438182Y-113373957D01*
X102434132Y-113365673D01*
X102427555Y-113320533D01*
X102422624Y-113295740D01*
X102422624Y-112745740D01*
X102427555Y-112720949D01*
X102434132Y-112675806D01*
X102438182Y-112667520D01*
X102441730Y-112649686D01*
X102461000Y-112620845D01*
X102470754Y-112600895D01*
X102481534Y-112590114D01*
X102496140Y-112568256D01*
X102517998Y-112553650D01*
X102528779Y-112542870D01*
X102548729Y-112533116D01*
X102577570Y-112513846D01*
X102595404Y-112510298D01*
X102603690Y-112506248D01*
X102648833Y-112499671D01*
X102673624Y-112494740D01*
X103073624Y-112494740D01*
X103098417Y-112499671D01*
G37*
G36*
X104748417Y-112499671D02*
G01*
X104793557Y-112506248D01*
X104801841Y-112510298D01*
X104819678Y-112513846D01*
X104848521Y-112533118D01*
X104868468Y-112542870D01*
X104879246Y-112553648D01*
X104901108Y-112568256D01*
X104915715Y-112590117D01*
X104926493Y-112600895D01*
X104936243Y-112620839D01*
X104955518Y-112649686D01*
X104959066Y-112667523D01*
X104963115Y-112675806D01*
X104969689Y-112720930D01*
X104974624Y-112745740D01*
X104974624Y-113295740D01*
X104969688Y-113320552D01*
X104963115Y-113365673D01*
X104959066Y-113373954D01*
X104955518Y-113391794D01*
X104936241Y-113420643D01*
X104926493Y-113440584D01*
X104915717Y-113451359D01*
X104901108Y-113473224D01*
X104879243Y-113487833D01*
X104868468Y-113498609D01*
X104848527Y-113508357D01*
X104819678Y-113527634D01*
X104801838Y-113531182D01*
X104793557Y-113535231D01*
X104748436Y-113541804D01*
X104723624Y-113546740D01*
X104323624Y-113546740D01*
X104298814Y-113541805D01*
X104253690Y-113535231D01*
X104245407Y-113531182D01*
X104227570Y-113527634D01*
X104198723Y-113508359D01*
X104178779Y-113498609D01*
X104168001Y-113487831D01*
X104146140Y-113473224D01*
X104131532Y-113451362D01*
X104120754Y-113440584D01*
X104111002Y-113420637D01*
X104091730Y-113391794D01*
X104088182Y-113373957D01*
X104084132Y-113365673D01*
X104077555Y-113320533D01*
X104072624Y-113295740D01*
X104072624Y-112745740D01*
X104077555Y-112720949D01*
X104084132Y-112675806D01*
X104088182Y-112667520D01*
X104091730Y-112649686D01*
X104111000Y-112620845D01*
X104120754Y-112600895D01*
X104131534Y-112590114D01*
X104146140Y-112568256D01*
X104167998Y-112553650D01*
X104178779Y-112542870D01*
X104198729Y-112533116D01*
X104227570Y-112513846D01*
X104245404Y-112510298D01*
X104253690Y-112506248D01*
X104298833Y-112499671D01*
X104323624Y-112494740D01*
X104723624Y-112494740D01*
X104748417Y-112499671D01*
G37*
G36*
X91223313Y-111128542D02*
G01*
X91396546Y-111163000D01*
X91559728Y-111230592D01*
X91706588Y-111328721D01*
X91831482Y-111453615D01*
X91929611Y-111600475D01*
X91997203Y-111763657D01*
X92031661Y-111936890D01*
X92031661Y-112113516D01*
X91997203Y-112286749D01*
X91929611Y-112449931D01*
X91831482Y-112596791D01*
X91706588Y-112721685D01*
X91559728Y-112819814D01*
X91396546Y-112887406D01*
X91223313Y-112921864D01*
X91135000Y-112926203D01*
X91131941Y-112926203D01*
X90888059Y-112926203D01*
X90885000Y-112926203D01*
X90796687Y-112921864D01*
X90623454Y-112887406D01*
X90460272Y-112819814D01*
X90313412Y-112721685D01*
X90188518Y-112596791D01*
X90090389Y-112449931D01*
X90022797Y-112286749D01*
X89988339Y-112113516D01*
X89988339Y-111936890D01*
X90022797Y-111763657D01*
X90090389Y-111600475D01*
X90188518Y-111453615D01*
X90313412Y-111328721D01*
X90460272Y-111230592D01*
X90623454Y-111163000D01*
X90796687Y-111128542D01*
X90885000Y-111124203D01*
X91135000Y-111124203D01*
X91223313Y-111128542D01*
G37*
G36*
X124903313Y-111063339D02*
G01*
X125076546Y-111097797D01*
X125239728Y-111165389D01*
X125386588Y-111263518D01*
X125511482Y-111388412D01*
X125609611Y-111535272D01*
X125677203Y-111698454D01*
X125711661Y-111871687D01*
X125711661Y-112048313D01*
X125677203Y-112221546D01*
X125609611Y-112384728D01*
X125511482Y-112531588D01*
X125386588Y-112656482D01*
X125239728Y-112754611D01*
X125076546Y-112822203D01*
X124903313Y-112856661D01*
X124815000Y-112861000D01*
X124811941Y-112861000D01*
X124568059Y-112861000D01*
X124565000Y-112861000D01*
X124476687Y-112856661D01*
X124303454Y-112822203D01*
X124140272Y-112754611D01*
X123993412Y-112656482D01*
X123868518Y-112531588D01*
X123770389Y-112384728D01*
X123702797Y-112221546D01*
X123668339Y-112048313D01*
X123668339Y-111871687D01*
X123702797Y-111698454D01*
X123770389Y-111535272D01*
X123868518Y-111388412D01*
X123993412Y-111263518D01*
X124140272Y-111165389D01*
X124303454Y-111097797D01*
X124476687Y-111063339D01*
X124565000Y-111059000D01*
X124815000Y-111059000D01*
X124903313Y-111063339D01*
G37*
G36*
X98477386Y-109868742D02*
G01*
X98493198Y-109875723D01*
X98501003Y-109876960D01*
X98533511Y-109893523D01*
X98578578Y-109913423D01*
X98656796Y-109991641D01*
X98676698Y-110036714D01*
X98693258Y-110069215D01*
X98694493Y-110077017D01*
X98701477Y-110092833D01*
X98709472Y-110161747D01*
X98709472Y-111361747D01*
X98701477Y-111430661D01*
X98694493Y-111446476D01*
X98693258Y-111454278D01*
X98676701Y-111486771D01*
X98656796Y-111531853D01*
X98578578Y-111610071D01*
X98533496Y-111629976D01*
X98501003Y-111646533D01*
X98493201Y-111647768D01*
X98477386Y-111654752D01*
X98408472Y-111662747D01*
X96908472Y-111662747D01*
X96839558Y-111654752D01*
X96823742Y-111647768D01*
X96815940Y-111646533D01*
X96783439Y-111629973D01*
X96738366Y-111610071D01*
X96660148Y-111531853D01*
X96640248Y-111486786D01*
X96623685Y-111454278D01*
X96622448Y-111446473D01*
X96615467Y-111430661D01*
X96607472Y-111361747D01*
X96607472Y-110161747D01*
X96615467Y-110092833D01*
X96622448Y-110077021D01*
X96623685Y-110069215D01*
X96640252Y-110036700D01*
X96660148Y-109991641D01*
X96738366Y-109913423D01*
X96783425Y-109893527D01*
X96815940Y-109876960D01*
X96823746Y-109875723D01*
X96839558Y-109868742D01*
X96908472Y-109860747D01*
X98408472Y-109860747D01*
X98477386Y-109868742D01*
G37*
G36*
X103187057Y-110531752D02*
G01*
X103233430Y-110539097D01*
X103239481Y-110542180D01*
X103254245Y-110545117D01*
X103283149Y-110564431D01*
X103309935Y-110578079D01*
X103322742Y-110590886D01*
X103343785Y-110604947D01*
X103357845Y-110625989D01*
X103370652Y-110638796D01*
X103384298Y-110665579D01*
X103403615Y-110694487D01*
X103406551Y-110709252D01*
X103409634Y-110715301D01*
X103416975Y-110761653D01*
X103424624Y-110800108D01*
X103424624Y-111300108D01*
X103416974Y-111338566D01*
X103409634Y-111384914D01*
X103406552Y-111390962D01*
X103403615Y-111405729D01*
X103384296Y-111434640D01*
X103370652Y-111461419D01*
X103357847Y-111474223D01*
X103343785Y-111495269D01*
X103322739Y-111509331D01*
X103309935Y-111522136D01*
X103283156Y-111535780D01*
X103254245Y-111555099D01*
X103239478Y-111558036D01*
X103233430Y-111561118D01*
X103187082Y-111568458D01*
X103148624Y-111576108D01*
X102698624Y-111576108D01*
X102660169Y-111568459D01*
X102613817Y-111561118D01*
X102607768Y-111558035D01*
X102593003Y-111555099D01*
X102564095Y-111535782D01*
X102537312Y-111522136D01*
X102524505Y-111509329D01*
X102503463Y-111495269D01*
X102489402Y-111474226D01*
X102476595Y-111461419D01*
X102462947Y-111434633D01*
X102443633Y-111405729D01*
X102440696Y-111390965D01*
X102437613Y-111384914D01*
X102430268Y-111338541D01*
X102422624Y-111300108D01*
X102422624Y-110800108D01*
X102430268Y-110761678D01*
X102437613Y-110715301D01*
X102440696Y-110709249D01*
X102443633Y-110694487D01*
X102462944Y-110665585D01*
X102476595Y-110638796D01*
X102489404Y-110625986D01*
X102503463Y-110604947D01*
X102524502Y-110590888D01*
X102537312Y-110578079D01*
X102564101Y-110564428D01*
X102593003Y-110545117D01*
X102607765Y-110542180D01*
X102613817Y-110539097D01*
X102660194Y-110531752D01*
X102698624Y-110524108D01*
X103148624Y-110524108D01*
X103187057Y-110531752D01*
G37*
G36*
X104737057Y-110531752D02*
G01*
X104783430Y-110539097D01*
X104789481Y-110542180D01*
X104804245Y-110545117D01*
X104833149Y-110564431D01*
X104859935Y-110578079D01*
X104872742Y-110590886D01*
X104893785Y-110604947D01*
X104907845Y-110625989D01*
X104920652Y-110638796D01*
X104934298Y-110665579D01*
X104953615Y-110694487D01*
X104956551Y-110709252D01*
X104959634Y-110715301D01*
X104966975Y-110761653D01*
X104974624Y-110800108D01*
X104974624Y-111300108D01*
X104966974Y-111338566D01*
X104959634Y-111384914D01*
X104956552Y-111390962D01*
X104953615Y-111405729D01*
X104934296Y-111434640D01*
X104920652Y-111461419D01*
X104907847Y-111474223D01*
X104893785Y-111495269D01*
X104872739Y-111509331D01*
X104859935Y-111522136D01*
X104833156Y-111535780D01*
X104804245Y-111555099D01*
X104789478Y-111558036D01*
X104783430Y-111561118D01*
X104737082Y-111568458D01*
X104698624Y-111576108D01*
X104248624Y-111576108D01*
X104210169Y-111568459D01*
X104163817Y-111561118D01*
X104157768Y-111558035D01*
X104143003Y-111555099D01*
X104114095Y-111535782D01*
X104087312Y-111522136D01*
X104074505Y-111509329D01*
X104053463Y-111495269D01*
X104039402Y-111474226D01*
X104026595Y-111461419D01*
X104012947Y-111434633D01*
X103993633Y-111405729D01*
X103990696Y-111390965D01*
X103987613Y-111384914D01*
X103980268Y-111338541D01*
X103972624Y-111300108D01*
X103972624Y-110800108D01*
X103980268Y-110761678D01*
X103987613Y-110715301D01*
X103990696Y-110709249D01*
X103993633Y-110694487D01*
X104012944Y-110665585D01*
X104026595Y-110638796D01*
X104039404Y-110625986D01*
X104053463Y-110604947D01*
X104074502Y-110590888D01*
X104087312Y-110578079D01*
X104114101Y-110564428D01*
X104143003Y-110545117D01*
X104157765Y-110542180D01*
X104163817Y-110539097D01*
X104210194Y-110531752D01*
X104248624Y-110524108D01*
X104698624Y-110524108D01*
X104737057Y-110531752D01*
G37*
G36*
X91223313Y-108628542D02*
G01*
X91396546Y-108663000D01*
X91559728Y-108730592D01*
X91706588Y-108828721D01*
X91831482Y-108953615D01*
X91929611Y-109100475D01*
X91997203Y-109263657D01*
X92031661Y-109436890D01*
X92031661Y-109613516D01*
X91997203Y-109786749D01*
X91929611Y-109949931D01*
X91831482Y-110096791D01*
X91706588Y-110221685D01*
X91559728Y-110319814D01*
X91396546Y-110387406D01*
X91223313Y-110421864D01*
X91135000Y-110426203D01*
X91131941Y-110426203D01*
X90888059Y-110426203D01*
X90885000Y-110426203D01*
X90796687Y-110421864D01*
X90623454Y-110387406D01*
X90460272Y-110319814D01*
X90313412Y-110221685D01*
X90188518Y-110096791D01*
X90090389Y-109949931D01*
X90022797Y-109786749D01*
X89988339Y-109613516D01*
X89988339Y-109436890D01*
X90022797Y-109263657D01*
X90090389Y-109100475D01*
X90188518Y-108953615D01*
X90313412Y-108828721D01*
X90460272Y-108730592D01*
X90623454Y-108663000D01*
X90796687Y-108628542D01*
X90885000Y-108624203D01*
X91135000Y-108624203D01*
X91223313Y-108628542D01*
G37*
G36*
X124903313Y-108563339D02*
G01*
X125076546Y-108597797D01*
X125239728Y-108665389D01*
X125386588Y-108763518D01*
X125511482Y-108888412D01*
X125609611Y-109035272D01*
X125677203Y-109198454D01*
X125711661Y-109371687D01*
X125711661Y-109548313D01*
X125677203Y-109721546D01*
X125609611Y-109884728D01*
X125511482Y-110031588D01*
X125386588Y-110156482D01*
X125239728Y-110254611D01*
X125076546Y-110322203D01*
X124903313Y-110356661D01*
X124815000Y-110361000D01*
X124811941Y-110361000D01*
X124568059Y-110361000D01*
X124565000Y-110361000D01*
X124476687Y-110356661D01*
X124303454Y-110322203D01*
X124140272Y-110254611D01*
X123993412Y-110156482D01*
X123868518Y-110031588D01*
X123770389Y-109884728D01*
X123702797Y-109721546D01*
X123668339Y-109548313D01*
X123668339Y-109371687D01*
X123702797Y-109198454D01*
X123770389Y-109035272D01*
X123868518Y-108888412D01*
X123993412Y-108763518D01*
X124140272Y-108665389D01*
X124303454Y-108597797D01*
X124476687Y-108563339D01*
X124565000Y-108559000D01*
X124815000Y-108559000D01*
X124903313Y-108563339D01*
G37*
G36*
X104727609Y-108611445D02*
G01*
X104743421Y-108618426D01*
X104751226Y-108619663D01*
X104783734Y-108636226D01*
X104828801Y-108656126D01*
X104907019Y-108734344D01*
X104926921Y-108779417D01*
X104943481Y-108811918D01*
X104944716Y-108819720D01*
X104951700Y-108835536D01*
X104959695Y-108904450D01*
X104959695Y-109744450D01*
X104951700Y-109813364D01*
X104944716Y-109829179D01*
X104943481Y-109836981D01*
X104926924Y-109869474D01*
X104907019Y-109914556D01*
X104828801Y-109992774D01*
X104783719Y-110012679D01*
X104751226Y-110029236D01*
X104743424Y-110030471D01*
X104727609Y-110037455D01*
X104658695Y-110045450D01*
X102768695Y-110045450D01*
X102699781Y-110037455D01*
X102683965Y-110030471D01*
X102676163Y-110029236D01*
X102643662Y-110012676D01*
X102598589Y-109992774D01*
X102520371Y-109914556D01*
X102500471Y-109869489D01*
X102483908Y-109836981D01*
X102482671Y-109829176D01*
X102475690Y-109813364D01*
X102467695Y-109744450D01*
X102467695Y-108904450D01*
X102475690Y-108835536D01*
X102482671Y-108819724D01*
X102483908Y-108811918D01*
X102500475Y-108779403D01*
X102520371Y-108734344D01*
X102598589Y-108656126D01*
X102643648Y-108636230D01*
X102676163Y-108619663D01*
X102683969Y-108618426D01*
X102699781Y-108611445D01*
X102768695Y-108603450D01*
X104658695Y-108603450D01*
X104727609Y-108611445D01*
G37*
G36*
X97896785Y-107365086D02*
G01*
X98070018Y-107399544D01*
X98233200Y-107467136D01*
X98380060Y-107565265D01*
X98504954Y-107690159D01*
X98603083Y-107837019D01*
X98670675Y-108000201D01*
X98705133Y-108173434D01*
X98705133Y-108350060D01*
X98670675Y-108523293D01*
X98603083Y-108686475D01*
X98504954Y-108833335D01*
X98380060Y-108958229D01*
X98233200Y-109056358D01*
X98070018Y-109123950D01*
X97896785Y-109158408D01*
X97808472Y-109162747D01*
X97805413Y-109162747D01*
X97511531Y-109162747D01*
X97508472Y-109162747D01*
X97420159Y-109158408D01*
X97246926Y-109123950D01*
X97083744Y-109056358D01*
X96936884Y-108958229D01*
X96811990Y-108833335D01*
X96713861Y-108686475D01*
X96646269Y-108523293D01*
X96611811Y-108350060D01*
X96611811Y-108173434D01*
X96646269Y-108000201D01*
X96713861Y-107837019D01*
X96811990Y-107690159D01*
X96936884Y-107565265D01*
X97083744Y-107467136D01*
X97246926Y-107399544D01*
X97420159Y-107365086D01*
X97508472Y-107360747D01*
X97808472Y-107360747D01*
X97896785Y-107365086D01*
G37*
G36*
X91223313Y-106128542D02*
G01*
X91396546Y-106163000D01*
X91559728Y-106230592D01*
X91706588Y-106328721D01*
X91831482Y-106453615D01*
X91929611Y-106600475D01*
X91997203Y-106763657D01*
X92031661Y-106936890D01*
X92031661Y-107113516D01*
X91997203Y-107286749D01*
X91929611Y-107449931D01*
X91831482Y-107596791D01*
X91706588Y-107721685D01*
X91559728Y-107819814D01*
X91396546Y-107887406D01*
X91223313Y-107921864D01*
X91135000Y-107926203D01*
X91131941Y-107926203D01*
X90888059Y-107926203D01*
X90885000Y-107926203D01*
X90796687Y-107921864D01*
X90623454Y-107887406D01*
X90460272Y-107819814D01*
X90313412Y-107721685D01*
X90188518Y-107596791D01*
X90090389Y-107449931D01*
X90022797Y-107286749D01*
X89988339Y-107113516D01*
X89988339Y-106936890D01*
X90022797Y-106763657D01*
X90090389Y-106600475D01*
X90188518Y-106453615D01*
X90313412Y-106328721D01*
X90460272Y-106230592D01*
X90623454Y-106163000D01*
X90796687Y-106128542D01*
X90885000Y-106124203D01*
X91135000Y-106124203D01*
X91223313Y-106128542D01*
G37*
G36*
X124903313Y-106063339D02*
G01*
X125076546Y-106097797D01*
X125239728Y-106165389D01*
X125386588Y-106263518D01*
X125511482Y-106388412D01*
X125609611Y-106535272D01*
X125677203Y-106698454D01*
X125711661Y-106871687D01*
X125711661Y-107048313D01*
X125677203Y-107221546D01*
X125609611Y-107384728D01*
X125511482Y-107531588D01*
X125386588Y-107656482D01*
X125239728Y-107754611D01*
X125076546Y-107822203D01*
X124903313Y-107856661D01*
X124815000Y-107861000D01*
X124811941Y-107861000D01*
X124568059Y-107861000D01*
X124565000Y-107861000D01*
X124476687Y-107856661D01*
X124303454Y-107822203D01*
X124140272Y-107754611D01*
X123993412Y-107656482D01*
X123868518Y-107531588D01*
X123770389Y-107384728D01*
X123702797Y-107221546D01*
X123668339Y-107048313D01*
X123668339Y-106871687D01*
X123702797Y-106698454D01*
X123770389Y-106535272D01*
X123868518Y-106388412D01*
X123993412Y-106263518D01*
X124140272Y-106165389D01*
X124303454Y-106097797D01*
X124476687Y-106063339D01*
X124565000Y-106059000D01*
X124815000Y-106059000D01*
X124903313Y-106063339D01*
G37*
G36*
X104727609Y-105531445D02*
G01*
X104743421Y-105538426D01*
X104751226Y-105539663D01*
X104783734Y-105556226D01*
X104828801Y-105576126D01*
X104907019Y-105654344D01*
X104926921Y-105699417D01*
X104943481Y-105731918D01*
X104944716Y-105739720D01*
X104951700Y-105755536D01*
X104959695Y-105824450D01*
X104959695Y-106664450D01*
X104951700Y-106733364D01*
X104944716Y-106749179D01*
X104943481Y-106756981D01*
X104926924Y-106789474D01*
X104907019Y-106834556D01*
X104828801Y-106912774D01*
X104783719Y-106932679D01*
X104751226Y-106949236D01*
X104743424Y-106950471D01*
X104727609Y-106957455D01*
X104658695Y-106965450D01*
X102768695Y-106965450D01*
X102699781Y-106957455D01*
X102683965Y-106950471D01*
X102676163Y-106949236D01*
X102643662Y-106932676D01*
X102598589Y-106912774D01*
X102520371Y-106834556D01*
X102500471Y-106789489D01*
X102483908Y-106756981D01*
X102482671Y-106749176D01*
X102475690Y-106733364D01*
X102467695Y-106664450D01*
X102467695Y-105824450D01*
X102475690Y-105755536D01*
X102482671Y-105739724D01*
X102483908Y-105731918D01*
X102500475Y-105699403D01*
X102520371Y-105654344D01*
X102598589Y-105576126D01*
X102643648Y-105556230D01*
X102676163Y-105539663D01*
X102683969Y-105538426D01*
X102699781Y-105531445D01*
X102768695Y-105523450D01*
X104658695Y-105523450D01*
X104727609Y-105531445D01*
G37*
G36*
X106991040Y-103802393D02*
G01*
X107023987Y-103806731D01*
X107032274Y-103810595D01*
X107051919Y-103814503D01*
X107077938Y-103831889D01*
X107089180Y-103837131D01*
X107096019Y-103843970D01*
X107117128Y-103858075D01*
X107131232Y-103879183D01*
X107138071Y-103886022D01*
X107143312Y-103897261D01*
X107160700Y-103923284D01*
X107164607Y-103942930D01*
X107168471Y-103951215D01*
X107172806Y-103984149D01*
X107176000Y-104000203D01*
X107176000Y-105750203D01*
X107172806Y-105766257D01*
X107168471Y-105799190D01*
X107164608Y-105807473D01*
X107160700Y-105827122D01*
X107143310Y-105853146D01*
X107138071Y-105864383D01*
X107131234Y-105871219D01*
X107117128Y-105892331D01*
X107096016Y-105906437D01*
X107089180Y-105913274D01*
X107077943Y-105918513D01*
X107051919Y-105935903D01*
X107032270Y-105939811D01*
X107023987Y-105943674D01*
X106991054Y-105948009D01*
X106975000Y-105951203D01*
X106675000Y-105951203D01*
X106658946Y-105948009D01*
X106626012Y-105943674D01*
X106617727Y-105939810D01*
X106598081Y-105935903D01*
X106572058Y-105918515D01*
X106560819Y-105913274D01*
X106553980Y-105906435D01*
X106532872Y-105892331D01*
X106518767Y-105871222D01*
X106511928Y-105864383D01*
X106506686Y-105853141D01*
X106489300Y-105827122D01*
X106485392Y-105807477D01*
X106481528Y-105799190D01*
X106477190Y-105766243D01*
X106474000Y-105750203D01*
X106474000Y-104000203D01*
X106477190Y-103984164D01*
X106481528Y-103951215D01*
X106485392Y-103942926D01*
X106489300Y-103923284D01*
X106506684Y-103897266D01*
X106511928Y-103886022D01*
X106518769Y-103879180D01*
X106532872Y-103858075D01*
X106553977Y-103843972D01*
X106560819Y-103837131D01*
X106572063Y-103831887D01*
X106598081Y-103814503D01*
X106617723Y-103810595D01*
X106626012Y-103806731D01*
X106658961Y-103802393D01*
X106675000Y-103799203D01*
X106975000Y-103799203D01*
X106991040Y-103802393D01*
G37*
G36*
X108261040Y-103802393D02*
G01*
X108293987Y-103806731D01*
X108302274Y-103810595D01*
X108321919Y-103814503D01*
X108347938Y-103831889D01*
X108359180Y-103837131D01*
X108366019Y-103843970D01*
X108387128Y-103858075D01*
X108401232Y-103879183D01*
X108408071Y-103886022D01*
X108413312Y-103897261D01*
X108430700Y-103923284D01*
X108434607Y-103942930D01*
X108438471Y-103951215D01*
X108442806Y-103984149D01*
X108446000Y-104000203D01*
X108446000Y-105750203D01*
X108442806Y-105766257D01*
X108438471Y-105799190D01*
X108434608Y-105807473D01*
X108430700Y-105827122D01*
X108413310Y-105853146D01*
X108408071Y-105864383D01*
X108401234Y-105871219D01*
X108387128Y-105892331D01*
X108366016Y-105906437D01*
X108359180Y-105913274D01*
X108347943Y-105918513D01*
X108321919Y-105935903D01*
X108302270Y-105939811D01*
X108293987Y-105943674D01*
X108261054Y-105948009D01*
X108245000Y-105951203D01*
X107945000Y-105951203D01*
X107928946Y-105948009D01*
X107896012Y-105943674D01*
X107887727Y-105939810D01*
X107868081Y-105935903D01*
X107842058Y-105918515D01*
X107830819Y-105913274D01*
X107823980Y-105906435D01*
X107802872Y-105892331D01*
X107788767Y-105871222D01*
X107781928Y-105864383D01*
X107776686Y-105853141D01*
X107759300Y-105827122D01*
X107755392Y-105807477D01*
X107751528Y-105799190D01*
X107747190Y-105766243D01*
X107744000Y-105750203D01*
X107744000Y-104000203D01*
X107747190Y-103984164D01*
X107751528Y-103951215D01*
X107755392Y-103942926D01*
X107759300Y-103923284D01*
X107776684Y-103897266D01*
X107781928Y-103886022D01*
X107788769Y-103879180D01*
X107802872Y-103858075D01*
X107823977Y-103843972D01*
X107830819Y-103837131D01*
X107842063Y-103831887D01*
X107868081Y-103814503D01*
X107887723Y-103810595D01*
X107896012Y-103806731D01*
X107928961Y-103802393D01*
X107945000Y-103799203D01*
X108245000Y-103799203D01*
X108261040Y-103802393D01*
G37*
G36*
X109531040Y-103802393D02*
G01*
X109563987Y-103806731D01*
X109572274Y-103810595D01*
X109591919Y-103814503D01*
X109617938Y-103831889D01*
X109629180Y-103837131D01*
X109636019Y-103843970D01*
X109657128Y-103858075D01*
X109671232Y-103879183D01*
X109678071Y-103886022D01*
X109683312Y-103897261D01*
X109700700Y-103923284D01*
X109704607Y-103942930D01*
X109708471Y-103951215D01*
X109712806Y-103984149D01*
X109716000Y-104000203D01*
X109716000Y-105750203D01*
X109712806Y-105766257D01*
X109708471Y-105799190D01*
X109704608Y-105807473D01*
X109700700Y-105827122D01*
X109683310Y-105853146D01*
X109678071Y-105864383D01*
X109671234Y-105871219D01*
X109657128Y-105892331D01*
X109636016Y-105906437D01*
X109629180Y-105913274D01*
X109617943Y-105918513D01*
X109591919Y-105935903D01*
X109572270Y-105939811D01*
X109563987Y-105943674D01*
X109531054Y-105948009D01*
X109515000Y-105951203D01*
X109215000Y-105951203D01*
X109198946Y-105948009D01*
X109166012Y-105943674D01*
X109157727Y-105939810D01*
X109138081Y-105935903D01*
X109112058Y-105918515D01*
X109100819Y-105913274D01*
X109093980Y-105906435D01*
X109072872Y-105892331D01*
X109058767Y-105871222D01*
X109051928Y-105864383D01*
X109046686Y-105853141D01*
X109029300Y-105827122D01*
X109025392Y-105807477D01*
X109021528Y-105799190D01*
X109017190Y-105766243D01*
X109014000Y-105750203D01*
X109014000Y-104000203D01*
X109017190Y-103984164D01*
X109021528Y-103951215D01*
X109025392Y-103942926D01*
X109029300Y-103923284D01*
X109046684Y-103897266D01*
X109051928Y-103886022D01*
X109058769Y-103879180D01*
X109072872Y-103858075D01*
X109093977Y-103843972D01*
X109100819Y-103837131D01*
X109112063Y-103831887D01*
X109138081Y-103814503D01*
X109157723Y-103810595D01*
X109166012Y-103806731D01*
X109198961Y-103802393D01*
X109215000Y-103799203D01*
X109515000Y-103799203D01*
X109531040Y-103802393D01*
G37*
G36*
X110801040Y-103802393D02*
G01*
X110833987Y-103806731D01*
X110842274Y-103810595D01*
X110861919Y-103814503D01*
X110887938Y-103831889D01*
X110899180Y-103837131D01*
X110906019Y-103843970D01*
X110927128Y-103858075D01*
X110941232Y-103879183D01*
X110948071Y-103886022D01*
X110953312Y-103897261D01*
X110970700Y-103923284D01*
X110974607Y-103942930D01*
X110978471Y-103951215D01*
X110982806Y-103984149D01*
X110986000Y-104000203D01*
X110986000Y-105750203D01*
X110982806Y-105766257D01*
X110978471Y-105799190D01*
X110974608Y-105807473D01*
X110970700Y-105827122D01*
X110953310Y-105853146D01*
X110948071Y-105864383D01*
X110941234Y-105871219D01*
X110927128Y-105892331D01*
X110906016Y-105906437D01*
X110899180Y-105913274D01*
X110887943Y-105918513D01*
X110861919Y-105935903D01*
X110842270Y-105939811D01*
X110833987Y-105943674D01*
X110801054Y-105948009D01*
X110785000Y-105951203D01*
X110485000Y-105951203D01*
X110468946Y-105948009D01*
X110436012Y-105943674D01*
X110427727Y-105939810D01*
X110408081Y-105935903D01*
X110382058Y-105918515D01*
X110370819Y-105913274D01*
X110363980Y-105906435D01*
X110342872Y-105892331D01*
X110328767Y-105871222D01*
X110321928Y-105864383D01*
X110316686Y-105853141D01*
X110299300Y-105827122D01*
X110295392Y-105807477D01*
X110291528Y-105799190D01*
X110287190Y-105766243D01*
X110284000Y-105750203D01*
X110284000Y-104000203D01*
X110287190Y-103984164D01*
X110291528Y-103951215D01*
X110295392Y-103942926D01*
X110299300Y-103923284D01*
X110316684Y-103897266D01*
X110321928Y-103886022D01*
X110328769Y-103879180D01*
X110342872Y-103858075D01*
X110363977Y-103843972D01*
X110370819Y-103837131D01*
X110382063Y-103831887D01*
X110408081Y-103814503D01*
X110427723Y-103810595D01*
X110436012Y-103806731D01*
X110468961Y-103802393D01*
X110485000Y-103799203D01*
X110785000Y-103799203D01*
X110801040Y-103802393D01*
G37*
G36*
X112071040Y-103802393D02*
G01*
X112103987Y-103806731D01*
X112112274Y-103810595D01*
X112131919Y-103814503D01*
X112157938Y-103831889D01*
X112169180Y-103837131D01*
X112176019Y-103843970D01*
X112197128Y-103858075D01*
X112211232Y-103879183D01*
X112218071Y-103886022D01*
X112223312Y-103897261D01*
X112240700Y-103923284D01*
X112244607Y-103942930D01*
X112248471Y-103951215D01*
X112252806Y-103984149D01*
X112256000Y-104000203D01*
X112256000Y-105750203D01*
X112252806Y-105766257D01*
X112248471Y-105799190D01*
X112244608Y-105807473D01*
X112240700Y-105827122D01*
X112223310Y-105853146D01*
X112218071Y-105864383D01*
X112211234Y-105871219D01*
X112197128Y-105892331D01*
X112176016Y-105906437D01*
X112169180Y-105913274D01*
X112157943Y-105918513D01*
X112131919Y-105935903D01*
X112112270Y-105939811D01*
X112103987Y-105943674D01*
X112071054Y-105948009D01*
X112055000Y-105951203D01*
X111755000Y-105951203D01*
X111738946Y-105948009D01*
X111706012Y-105943674D01*
X111697727Y-105939810D01*
X111678081Y-105935903D01*
X111652058Y-105918515D01*
X111640819Y-105913274D01*
X111633980Y-105906435D01*
X111612872Y-105892331D01*
X111598767Y-105871222D01*
X111591928Y-105864383D01*
X111586686Y-105853141D01*
X111569300Y-105827122D01*
X111565392Y-105807477D01*
X111561528Y-105799190D01*
X111557190Y-105766243D01*
X111554000Y-105750203D01*
X111554000Y-104000203D01*
X111557190Y-103984164D01*
X111561528Y-103951215D01*
X111565392Y-103942926D01*
X111569300Y-103923284D01*
X111586684Y-103897266D01*
X111591928Y-103886022D01*
X111598769Y-103879180D01*
X111612872Y-103858075D01*
X111633977Y-103843972D01*
X111640819Y-103837131D01*
X111652063Y-103831887D01*
X111678081Y-103814503D01*
X111697723Y-103810595D01*
X111706012Y-103806731D01*
X111738961Y-103802393D01*
X111755000Y-103799203D01*
X112055000Y-103799203D01*
X112071040Y-103802393D01*
G37*
G36*
X113341040Y-103802393D02*
G01*
X113373987Y-103806731D01*
X113382274Y-103810595D01*
X113401919Y-103814503D01*
X113427938Y-103831889D01*
X113439180Y-103837131D01*
X113446019Y-103843970D01*
X113467128Y-103858075D01*
X113481232Y-103879183D01*
X113488071Y-103886022D01*
X113493312Y-103897261D01*
X113510700Y-103923284D01*
X113514607Y-103942930D01*
X113518471Y-103951215D01*
X113522806Y-103984149D01*
X113526000Y-104000203D01*
X113526000Y-105750203D01*
X113522806Y-105766257D01*
X113518471Y-105799190D01*
X113514608Y-105807473D01*
X113510700Y-105827122D01*
X113493310Y-105853146D01*
X113488071Y-105864383D01*
X113481234Y-105871219D01*
X113467128Y-105892331D01*
X113446016Y-105906437D01*
X113439180Y-105913274D01*
X113427943Y-105918513D01*
X113401919Y-105935903D01*
X113382270Y-105939811D01*
X113373987Y-105943674D01*
X113341054Y-105948009D01*
X113325000Y-105951203D01*
X113025000Y-105951203D01*
X113008946Y-105948009D01*
X112976012Y-105943674D01*
X112967727Y-105939810D01*
X112948081Y-105935903D01*
X112922058Y-105918515D01*
X112910819Y-105913274D01*
X112903980Y-105906435D01*
X112882872Y-105892331D01*
X112868767Y-105871222D01*
X112861928Y-105864383D01*
X112856686Y-105853141D01*
X112839300Y-105827122D01*
X112835392Y-105807477D01*
X112831528Y-105799190D01*
X112827190Y-105766243D01*
X112824000Y-105750203D01*
X112824000Y-104000203D01*
X112827190Y-103984164D01*
X112831528Y-103951215D01*
X112835392Y-103942926D01*
X112839300Y-103923284D01*
X112856684Y-103897266D01*
X112861928Y-103886022D01*
X112868769Y-103879180D01*
X112882872Y-103858075D01*
X112903977Y-103843972D01*
X112910819Y-103837131D01*
X112922063Y-103831887D01*
X112948081Y-103814503D01*
X112967723Y-103810595D01*
X112976012Y-103806731D01*
X113008961Y-103802393D01*
X113025000Y-103799203D01*
X113325000Y-103799203D01*
X113341040Y-103802393D01*
G37*
G36*
X114611040Y-103802393D02*
G01*
X114643987Y-103806731D01*
X114652274Y-103810595D01*
X114671919Y-103814503D01*
X114697938Y-103831889D01*
X114709180Y-103837131D01*
X114716019Y-103843970D01*
X114737128Y-103858075D01*
X114751232Y-103879183D01*
X114758071Y-103886022D01*
X114763312Y-103897261D01*
X114780700Y-103923284D01*
X114784607Y-103942930D01*
X114788471Y-103951215D01*
X114792806Y-103984149D01*
X114796000Y-104000203D01*
X114796000Y-105750203D01*
X114792806Y-105766257D01*
X114788471Y-105799190D01*
X114784608Y-105807473D01*
X114780700Y-105827122D01*
X114763310Y-105853146D01*
X114758071Y-105864383D01*
X114751234Y-105871219D01*
X114737128Y-105892331D01*
X114716016Y-105906437D01*
X114709180Y-105913274D01*
X114697943Y-105918513D01*
X114671919Y-105935903D01*
X114652270Y-105939811D01*
X114643987Y-105943674D01*
X114611054Y-105948009D01*
X114595000Y-105951203D01*
X114295000Y-105951203D01*
X114278946Y-105948009D01*
X114246012Y-105943674D01*
X114237727Y-105939810D01*
X114218081Y-105935903D01*
X114192058Y-105918515D01*
X114180819Y-105913274D01*
X114173980Y-105906435D01*
X114152872Y-105892331D01*
X114138767Y-105871222D01*
X114131928Y-105864383D01*
X114126686Y-105853141D01*
X114109300Y-105827122D01*
X114105392Y-105807477D01*
X114101528Y-105799190D01*
X114097190Y-105766243D01*
X114094000Y-105750203D01*
X114094000Y-104000203D01*
X114097190Y-103984164D01*
X114101528Y-103951215D01*
X114105392Y-103942926D01*
X114109300Y-103923284D01*
X114126684Y-103897266D01*
X114131928Y-103886022D01*
X114138769Y-103879180D01*
X114152872Y-103858075D01*
X114173977Y-103843972D01*
X114180819Y-103837131D01*
X114192063Y-103831887D01*
X114218081Y-103814503D01*
X114237723Y-103810595D01*
X114246012Y-103806731D01*
X114278961Y-103802393D01*
X114295000Y-103799203D01*
X114595000Y-103799203D01*
X114611040Y-103802393D01*
G37*
G36*
X115881040Y-103802393D02*
G01*
X115913987Y-103806731D01*
X115922274Y-103810595D01*
X115941919Y-103814503D01*
X115967938Y-103831889D01*
X115979180Y-103837131D01*
X115986019Y-103843970D01*
X116007128Y-103858075D01*
X116021232Y-103879183D01*
X116028071Y-103886022D01*
X116033312Y-103897261D01*
X116050700Y-103923284D01*
X116054607Y-103942930D01*
X116058471Y-103951215D01*
X116062806Y-103984149D01*
X116066000Y-104000203D01*
X116066000Y-105750203D01*
X116062806Y-105766257D01*
X116058471Y-105799190D01*
X116054608Y-105807473D01*
X116050700Y-105827122D01*
X116033310Y-105853146D01*
X116028071Y-105864383D01*
X116021234Y-105871219D01*
X116007128Y-105892331D01*
X115986016Y-105906437D01*
X115979180Y-105913274D01*
X115967943Y-105918513D01*
X115941919Y-105935903D01*
X115922270Y-105939811D01*
X115913987Y-105943674D01*
X115881054Y-105948009D01*
X115865000Y-105951203D01*
X115565000Y-105951203D01*
X115548946Y-105948009D01*
X115516012Y-105943674D01*
X115507727Y-105939810D01*
X115488081Y-105935903D01*
X115462058Y-105918515D01*
X115450819Y-105913274D01*
X115443980Y-105906435D01*
X115422872Y-105892331D01*
X115408767Y-105871222D01*
X115401928Y-105864383D01*
X115396686Y-105853141D01*
X115379300Y-105827122D01*
X115375392Y-105807477D01*
X115371528Y-105799190D01*
X115367190Y-105766243D01*
X115364000Y-105750203D01*
X115364000Y-104000203D01*
X115367190Y-103984164D01*
X115371528Y-103951215D01*
X115375392Y-103942926D01*
X115379300Y-103923284D01*
X115396684Y-103897266D01*
X115401928Y-103886022D01*
X115408769Y-103879180D01*
X115422872Y-103858075D01*
X115443977Y-103843972D01*
X115450819Y-103837131D01*
X115462063Y-103831887D01*
X115488081Y-103814503D01*
X115507723Y-103810595D01*
X115516012Y-103806731D01*
X115548961Y-103802393D01*
X115565000Y-103799203D01*
X115865000Y-103799203D01*
X115881040Y-103802393D01*
G37*
G36*
X117151040Y-103802393D02*
G01*
X117183987Y-103806731D01*
X117192274Y-103810595D01*
X117211919Y-103814503D01*
X117237938Y-103831889D01*
X117249180Y-103837131D01*
X117256019Y-103843970D01*
X117277128Y-103858075D01*
X117291232Y-103879183D01*
X117298071Y-103886022D01*
X117303312Y-103897261D01*
X117320700Y-103923284D01*
X117324607Y-103942930D01*
X117328471Y-103951215D01*
X117332806Y-103984149D01*
X117336000Y-104000203D01*
X117336000Y-105750203D01*
X117332806Y-105766257D01*
X117328471Y-105799190D01*
X117324608Y-105807473D01*
X117320700Y-105827122D01*
X117303310Y-105853146D01*
X117298071Y-105864383D01*
X117291234Y-105871219D01*
X117277128Y-105892331D01*
X117256016Y-105906437D01*
X117249180Y-105913274D01*
X117237943Y-105918513D01*
X117211919Y-105935903D01*
X117192270Y-105939811D01*
X117183987Y-105943674D01*
X117151054Y-105948009D01*
X117135000Y-105951203D01*
X116835000Y-105951203D01*
X116818946Y-105948009D01*
X116786012Y-105943674D01*
X116777727Y-105939810D01*
X116758081Y-105935903D01*
X116732058Y-105918515D01*
X116720819Y-105913274D01*
X116713980Y-105906435D01*
X116692872Y-105892331D01*
X116678767Y-105871222D01*
X116671928Y-105864383D01*
X116666686Y-105853141D01*
X116649300Y-105827122D01*
X116645392Y-105807477D01*
X116641528Y-105799190D01*
X116637190Y-105766243D01*
X116634000Y-105750203D01*
X116634000Y-104000203D01*
X116637190Y-103984164D01*
X116641528Y-103951215D01*
X116645392Y-103942926D01*
X116649300Y-103923284D01*
X116666684Y-103897266D01*
X116671928Y-103886022D01*
X116678769Y-103879180D01*
X116692872Y-103858075D01*
X116713977Y-103843972D01*
X116720819Y-103837131D01*
X116732063Y-103831887D01*
X116758081Y-103814503D01*
X116777723Y-103810595D01*
X116786012Y-103806731D01*
X116818961Y-103802393D01*
X116835000Y-103799203D01*
X117135000Y-103799203D01*
X117151040Y-103802393D01*
G37*
G36*
X118421040Y-103802393D02*
G01*
X118453987Y-103806731D01*
X118462274Y-103810595D01*
X118481919Y-103814503D01*
X118507938Y-103831889D01*
X118519180Y-103837131D01*
X118526019Y-103843970D01*
X118547128Y-103858075D01*
X118561232Y-103879183D01*
X118568071Y-103886022D01*
X118573312Y-103897261D01*
X118590700Y-103923284D01*
X118594607Y-103942930D01*
X118598471Y-103951215D01*
X118602806Y-103984149D01*
X118606000Y-104000203D01*
X118606000Y-105750203D01*
X118602806Y-105766257D01*
X118598471Y-105799190D01*
X118594608Y-105807473D01*
X118590700Y-105827122D01*
X118573310Y-105853146D01*
X118568071Y-105864383D01*
X118561234Y-105871219D01*
X118547128Y-105892331D01*
X118526016Y-105906437D01*
X118519180Y-105913274D01*
X118507943Y-105918513D01*
X118481919Y-105935903D01*
X118462270Y-105939811D01*
X118453987Y-105943674D01*
X118421054Y-105948009D01*
X118405000Y-105951203D01*
X118105000Y-105951203D01*
X118088946Y-105948009D01*
X118056012Y-105943674D01*
X118047727Y-105939810D01*
X118028081Y-105935903D01*
X118002058Y-105918515D01*
X117990819Y-105913274D01*
X117983980Y-105906435D01*
X117962872Y-105892331D01*
X117948767Y-105871222D01*
X117941928Y-105864383D01*
X117936686Y-105853141D01*
X117919300Y-105827122D01*
X117915392Y-105807477D01*
X117911528Y-105799190D01*
X117907190Y-105766243D01*
X117904000Y-105750203D01*
X117904000Y-104000203D01*
X117907190Y-103984164D01*
X117911528Y-103951215D01*
X117915392Y-103942926D01*
X117919300Y-103923284D01*
X117936684Y-103897266D01*
X117941928Y-103886022D01*
X117948769Y-103879180D01*
X117962872Y-103858075D01*
X117983977Y-103843972D01*
X117990819Y-103837131D01*
X118002063Y-103831887D01*
X118028081Y-103814503D01*
X118047723Y-103810595D01*
X118056012Y-103806731D01*
X118088961Y-103802393D01*
X118105000Y-103799203D01*
X118405000Y-103799203D01*
X118421040Y-103802393D01*
G37*
G36*
X119691040Y-103802393D02*
G01*
X119723987Y-103806731D01*
X119732274Y-103810595D01*
X119751919Y-103814503D01*
X119777938Y-103831889D01*
X119789180Y-103837131D01*
X119796019Y-103843970D01*
X119817128Y-103858075D01*
X119831232Y-103879183D01*
X119838071Y-103886022D01*
X119843312Y-103897261D01*
X119860700Y-103923284D01*
X119864607Y-103942930D01*
X119868471Y-103951215D01*
X119872806Y-103984149D01*
X119876000Y-104000203D01*
X119876000Y-105750203D01*
X119872806Y-105766257D01*
X119868471Y-105799190D01*
X119864608Y-105807473D01*
X119860700Y-105827122D01*
X119843310Y-105853146D01*
X119838071Y-105864383D01*
X119831234Y-105871219D01*
X119817128Y-105892331D01*
X119796016Y-105906437D01*
X119789180Y-105913274D01*
X119777943Y-105918513D01*
X119751919Y-105935903D01*
X119732270Y-105939811D01*
X119723987Y-105943674D01*
X119691054Y-105948009D01*
X119675000Y-105951203D01*
X119375000Y-105951203D01*
X119358946Y-105948009D01*
X119326012Y-105943674D01*
X119317727Y-105939810D01*
X119298081Y-105935903D01*
X119272058Y-105918515D01*
X119260819Y-105913274D01*
X119253980Y-105906435D01*
X119232872Y-105892331D01*
X119218767Y-105871222D01*
X119211928Y-105864383D01*
X119206686Y-105853141D01*
X119189300Y-105827122D01*
X119185392Y-105807477D01*
X119181528Y-105799190D01*
X119177190Y-105766243D01*
X119174000Y-105750203D01*
X119174000Y-104000203D01*
X119177190Y-103984164D01*
X119181528Y-103951215D01*
X119185392Y-103942926D01*
X119189300Y-103923284D01*
X119206684Y-103897266D01*
X119211928Y-103886022D01*
X119218769Y-103879180D01*
X119232872Y-103858075D01*
X119253977Y-103843972D01*
X119260819Y-103837131D01*
X119272063Y-103831887D01*
X119298081Y-103814503D01*
X119317723Y-103810595D01*
X119326012Y-103806731D01*
X119358961Y-103802393D01*
X119375000Y-103799203D01*
X119675000Y-103799203D01*
X119691040Y-103802393D01*
G37*
G36*
X120961040Y-103802393D02*
G01*
X120993987Y-103806731D01*
X121002274Y-103810595D01*
X121021919Y-103814503D01*
X121047938Y-103831889D01*
X121059180Y-103837131D01*
X121066019Y-103843970D01*
X121087128Y-103858075D01*
X121101232Y-103879183D01*
X121108071Y-103886022D01*
X121113312Y-103897261D01*
X121130700Y-103923284D01*
X121134607Y-103942930D01*
X121138471Y-103951215D01*
X121142806Y-103984149D01*
X121146000Y-104000203D01*
X121146000Y-105750203D01*
X121142806Y-105766257D01*
X121138471Y-105799190D01*
X121134608Y-105807473D01*
X121130700Y-105827122D01*
X121113310Y-105853146D01*
X121108071Y-105864383D01*
X121101234Y-105871219D01*
X121087128Y-105892331D01*
X121066016Y-105906437D01*
X121059180Y-105913274D01*
X121047943Y-105918513D01*
X121021919Y-105935903D01*
X121002270Y-105939811D01*
X120993987Y-105943674D01*
X120961054Y-105948009D01*
X120945000Y-105951203D01*
X120645000Y-105951203D01*
X120628946Y-105948009D01*
X120596012Y-105943674D01*
X120587727Y-105939810D01*
X120568081Y-105935903D01*
X120542058Y-105918515D01*
X120530819Y-105913274D01*
X120523980Y-105906435D01*
X120502872Y-105892331D01*
X120488767Y-105871222D01*
X120481928Y-105864383D01*
X120476686Y-105853141D01*
X120459300Y-105827122D01*
X120455392Y-105807477D01*
X120451528Y-105799190D01*
X120447190Y-105766243D01*
X120444000Y-105750203D01*
X120444000Y-104000203D01*
X120447190Y-103984164D01*
X120451528Y-103951215D01*
X120455392Y-103942926D01*
X120459300Y-103923284D01*
X120476684Y-103897266D01*
X120481928Y-103886022D01*
X120488769Y-103879180D01*
X120502872Y-103858075D01*
X120523977Y-103843972D01*
X120530819Y-103837131D01*
X120542063Y-103831887D01*
X120568081Y-103814503D01*
X120587723Y-103810595D01*
X120596012Y-103806731D01*
X120628961Y-103802393D01*
X120645000Y-103799203D01*
X120945000Y-103799203D01*
X120961040Y-103802393D01*
G37*
G36*
X91223313Y-103628542D02*
G01*
X91396546Y-103663000D01*
X91559728Y-103730592D01*
X91706588Y-103828721D01*
X91831482Y-103953615D01*
X91929611Y-104100475D01*
X91997203Y-104263657D01*
X92031661Y-104436890D01*
X92031661Y-104613516D01*
X91997203Y-104786749D01*
X91929611Y-104949931D01*
X91831482Y-105096791D01*
X91706588Y-105221685D01*
X91559728Y-105319814D01*
X91396546Y-105387406D01*
X91223313Y-105421864D01*
X91135000Y-105426203D01*
X91131941Y-105426203D01*
X90888059Y-105426203D01*
X90885000Y-105426203D01*
X90796687Y-105421864D01*
X90623454Y-105387406D01*
X90460272Y-105319814D01*
X90313412Y-105221685D01*
X90188518Y-105096791D01*
X90090389Y-104949931D01*
X90022797Y-104786749D01*
X89988339Y-104613516D01*
X89988339Y-104436890D01*
X90022797Y-104263657D01*
X90090389Y-104100475D01*
X90188518Y-103953615D01*
X90313412Y-103828721D01*
X90460272Y-103730592D01*
X90623454Y-103663000D01*
X90796687Y-103628542D01*
X90885000Y-103624203D01*
X91135000Y-103624203D01*
X91223313Y-103628542D01*
G37*
G36*
X124903313Y-103563339D02*
G01*
X125076546Y-103597797D01*
X125239728Y-103665389D01*
X125386588Y-103763518D01*
X125511482Y-103888412D01*
X125609611Y-104035272D01*
X125677203Y-104198454D01*
X125711661Y-104371687D01*
X125711661Y-104548313D01*
X125677203Y-104721546D01*
X125609611Y-104884728D01*
X125511482Y-105031588D01*
X125386588Y-105156482D01*
X125239728Y-105254611D01*
X125076546Y-105322203D01*
X124903313Y-105356661D01*
X124815000Y-105361000D01*
X124811941Y-105361000D01*
X124568059Y-105361000D01*
X124565000Y-105361000D01*
X124476687Y-105356661D01*
X124303454Y-105322203D01*
X124140272Y-105254611D01*
X123993412Y-105156482D01*
X123868518Y-105031588D01*
X123770389Y-104884728D01*
X123702797Y-104721546D01*
X123668339Y-104548313D01*
X123668339Y-104371687D01*
X123702797Y-104198454D01*
X123770389Y-104035272D01*
X123868518Y-103888412D01*
X123993412Y-103763518D01*
X124140272Y-103665389D01*
X124303454Y-103597797D01*
X124476687Y-103563339D01*
X124565000Y-103559000D01*
X124815000Y-103559000D01*
X124903313Y-103563339D01*
G37*
G36*
X101606717Y-103163418D02*
G01*
X101653090Y-103170763D01*
X101659141Y-103173846D01*
X101673905Y-103176783D01*
X101702809Y-103196097D01*
X101729595Y-103209745D01*
X101742402Y-103222552D01*
X101763445Y-103236613D01*
X101777505Y-103257655D01*
X101790312Y-103270462D01*
X101803958Y-103297245D01*
X101823275Y-103326153D01*
X101826211Y-103340918D01*
X101829294Y-103346967D01*
X101836635Y-103393319D01*
X101844284Y-103431774D01*
X101844284Y-104181774D01*
X101836634Y-104220232D01*
X101829294Y-104266580D01*
X101826212Y-104272628D01*
X101823275Y-104287395D01*
X101803956Y-104316306D01*
X101790312Y-104343085D01*
X101777507Y-104355889D01*
X101763445Y-104376935D01*
X101742399Y-104390997D01*
X101729595Y-104403802D01*
X101702816Y-104417446D01*
X101673905Y-104436765D01*
X101659138Y-104439702D01*
X101653090Y-104442784D01*
X101606742Y-104450124D01*
X101568284Y-104457774D01*
X101118284Y-104457774D01*
X101079829Y-104450125D01*
X101033477Y-104442784D01*
X101027428Y-104439701D01*
X101012663Y-104436765D01*
X100983755Y-104417448D01*
X100956972Y-104403802D01*
X100944165Y-104390995D01*
X100923123Y-104376935D01*
X100909062Y-104355892D01*
X100896255Y-104343085D01*
X100882607Y-104316299D01*
X100863293Y-104287395D01*
X100860356Y-104272631D01*
X100857273Y-104266580D01*
X100849928Y-104220207D01*
X100842284Y-104181774D01*
X100842284Y-103431774D01*
X100849928Y-103393344D01*
X100857273Y-103346967D01*
X100860356Y-103340915D01*
X100863293Y-103326153D01*
X100882604Y-103297251D01*
X100896255Y-103270462D01*
X100909064Y-103257652D01*
X100923123Y-103236613D01*
X100944162Y-103222554D01*
X100956972Y-103209745D01*
X100983761Y-103196094D01*
X101012663Y-103176783D01*
X101027425Y-103173846D01*
X101033477Y-103170763D01*
X101079854Y-103163418D01*
X101118284Y-103155774D01*
X101568284Y-103155774D01*
X101606717Y-103163418D01*
G37*
G36*
X104906717Y-103163418D02*
G01*
X104953090Y-103170763D01*
X104959141Y-103173846D01*
X104973905Y-103176783D01*
X105002809Y-103196097D01*
X105029595Y-103209745D01*
X105042402Y-103222552D01*
X105063445Y-103236613D01*
X105077505Y-103257655D01*
X105090312Y-103270462D01*
X105103958Y-103297245D01*
X105123275Y-103326153D01*
X105126211Y-103340918D01*
X105129294Y-103346967D01*
X105136635Y-103393319D01*
X105144284Y-103431774D01*
X105144284Y-104181774D01*
X105136634Y-104220232D01*
X105129294Y-104266580D01*
X105126212Y-104272628D01*
X105123275Y-104287395D01*
X105103956Y-104316306D01*
X105090312Y-104343085D01*
X105077507Y-104355889D01*
X105063445Y-104376935D01*
X105042399Y-104390997D01*
X105029595Y-104403802D01*
X105002816Y-104417446D01*
X104973905Y-104436765D01*
X104959138Y-104439702D01*
X104953090Y-104442784D01*
X104906742Y-104450124D01*
X104868284Y-104457774D01*
X104418284Y-104457774D01*
X104379829Y-104450125D01*
X104333477Y-104442784D01*
X104327428Y-104439701D01*
X104312663Y-104436765D01*
X104283755Y-104417448D01*
X104256972Y-104403802D01*
X104244165Y-104390995D01*
X104223123Y-104376935D01*
X104209062Y-104355892D01*
X104196255Y-104343085D01*
X104182607Y-104316299D01*
X104163293Y-104287395D01*
X104160356Y-104272631D01*
X104157273Y-104266580D01*
X104149928Y-104220207D01*
X104142284Y-104181774D01*
X104142284Y-103431774D01*
X104149928Y-103393344D01*
X104157273Y-103346967D01*
X104160356Y-103340915D01*
X104163293Y-103326153D01*
X104182604Y-103297251D01*
X104196255Y-103270462D01*
X104209064Y-103257652D01*
X104223123Y-103236613D01*
X104244162Y-103222554D01*
X104256972Y-103209745D01*
X104283761Y-103196094D01*
X104312663Y-103176783D01*
X104327425Y-103173846D01*
X104333477Y-103170763D01*
X104379854Y-103163418D01*
X104418284Y-103155774D01*
X104868284Y-103155774D01*
X104906717Y-103163418D01*
G37*
%LPD*%
M02*
