%TF.GenerationSoftware,KiCad,Pcbnew,9.0.5*%
%TF.CreationDate,2025-11-21T15:13:49+01:00*%
%TF.ProjectId,7segment-driver-board,37736567-6d65-46e7-942d-647269766572,1.0*%
%TF.SameCoordinates,Original*%
%TF.FileFunction,Legend,Bot*%
%TF.FilePolarity,Positive*%
%FSLAX46Y46*%
G04 Gerber Fmt 4.6, Leading zero omitted, Abs format (unit mm)*
G04 Created by KiCad (PCBNEW 9.0.5) date 2025-11-21 15:13:49*
%MOMM*%
%LPD*%
G01*
G04 APERTURE LIST*
%ADD10C,0.203200*%
%ADD11C,0.120000*%
G04 APERTURE END LIST*
D10*
X95010574Y-114026337D02*
X95131527Y-113965861D01*
X95131527Y-113965861D02*
X95312955Y-113965861D01*
X95312955Y-113965861D02*
X95494384Y-114026337D01*
X95494384Y-114026337D02*
X95615336Y-114147289D01*
X95615336Y-114147289D02*
X95675813Y-114268242D01*
X95675813Y-114268242D02*
X95736289Y-114510146D01*
X95736289Y-114510146D02*
X95736289Y-114691575D01*
X95736289Y-114691575D02*
X95675813Y-114933480D01*
X95675813Y-114933480D02*
X95615336Y-115054432D01*
X95615336Y-115054432D02*
X95494384Y-115175385D01*
X95494384Y-115175385D02*
X95312955Y-115235861D01*
X95312955Y-115235861D02*
X95192003Y-115235861D01*
X95192003Y-115235861D02*
X95010574Y-115175385D01*
X95010574Y-115175385D02*
X94950098Y-115114908D01*
X94950098Y-115114908D02*
X94950098Y-114691575D01*
X94950098Y-114691575D02*
X95192003Y-114691575D01*
X94405813Y-115235861D02*
X94405813Y-113965861D01*
X94405813Y-113965861D02*
X93680098Y-115235861D01*
X93680098Y-115235861D02*
X93680098Y-113965861D01*
X93075337Y-115235861D02*
X93075337Y-113965861D01*
X93075337Y-113965861D02*
X92772956Y-113965861D01*
X92772956Y-113965861D02*
X92591527Y-114026337D01*
X92591527Y-114026337D02*
X92470575Y-114147289D01*
X92470575Y-114147289D02*
X92410098Y-114268242D01*
X92410098Y-114268242D02*
X92349622Y-114510146D01*
X92349622Y-114510146D02*
X92349622Y-114691575D01*
X92349622Y-114691575D02*
X92410098Y-114933480D01*
X92410098Y-114933480D02*
X92470575Y-115054432D01*
X92470575Y-115054432D02*
X92591527Y-115175385D01*
X92591527Y-115175385D02*
X92772956Y-115235861D01*
X92772956Y-115235861D02*
X93075337Y-115235861D01*
X95675813Y-112072051D02*
X94708194Y-112072051D01*
X95192003Y-112555861D02*
X95192003Y-111588242D01*
X93498670Y-111285861D02*
X94103432Y-111285861D01*
X94103432Y-111285861D02*
X94163908Y-111890623D01*
X94163908Y-111890623D02*
X94103432Y-111830146D01*
X94103432Y-111830146D02*
X93982479Y-111769670D01*
X93982479Y-111769670D02*
X93680098Y-111769670D01*
X93680098Y-111769670D02*
X93559146Y-111830146D01*
X93559146Y-111830146D02*
X93498670Y-111890623D01*
X93498670Y-111890623D02*
X93438193Y-112011575D01*
X93438193Y-112011575D02*
X93438193Y-112313956D01*
X93438193Y-112313956D02*
X93498670Y-112434908D01*
X93498670Y-112434908D02*
X93559146Y-112495385D01*
X93559146Y-112495385D02*
X93680098Y-112555861D01*
X93680098Y-112555861D02*
X93982479Y-112555861D01*
X93982479Y-112555861D02*
X94103432Y-112495385D01*
X94103432Y-112495385D02*
X94163908Y-112434908D01*
X93075336Y-111285861D02*
X92652003Y-112555861D01*
X92652003Y-112555861D02*
X92228669Y-111285861D01*
X123453496Y-112058061D02*
X122485877Y-112058061D01*
X122969686Y-112541871D02*
X122969686Y-111574252D01*
X121276353Y-111271871D02*
X121881115Y-111271871D01*
X121881115Y-111271871D02*
X121941591Y-111876633D01*
X121941591Y-111876633D02*
X121881115Y-111816156D01*
X121881115Y-111816156D02*
X121760162Y-111755680D01*
X121760162Y-111755680D02*
X121457781Y-111755680D01*
X121457781Y-111755680D02*
X121336829Y-111816156D01*
X121336829Y-111816156D02*
X121276353Y-111876633D01*
X121276353Y-111876633D02*
X121215876Y-111997585D01*
X121215876Y-111997585D02*
X121215876Y-112299966D01*
X121215876Y-112299966D02*
X121276353Y-112420918D01*
X121276353Y-112420918D02*
X121336829Y-112481395D01*
X121336829Y-112481395D02*
X121457781Y-112541871D01*
X121457781Y-112541871D02*
X121760162Y-112541871D01*
X121760162Y-112541871D02*
X121881115Y-112481395D01*
X121881115Y-112481395D02*
X121941591Y-112420918D01*
X120853019Y-111271871D02*
X120429686Y-112541871D01*
X120429686Y-112541871D02*
X120006352Y-111271871D01*
X93559146Y-107461971D02*
X93619622Y-107522448D01*
X93619622Y-107522448D02*
X93801051Y-107582924D01*
X93801051Y-107582924D02*
X93922003Y-107582924D01*
X93922003Y-107582924D02*
X94103432Y-107522448D01*
X94103432Y-107522448D02*
X94224384Y-107401495D01*
X94224384Y-107401495D02*
X94284861Y-107280543D01*
X94284861Y-107280543D02*
X94345337Y-107038638D01*
X94345337Y-107038638D02*
X94345337Y-106857209D01*
X94345337Y-106857209D02*
X94284861Y-106615305D01*
X94284861Y-106615305D02*
X94224384Y-106494352D01*
X94224384Y-106494352D02*
X94103432Y-106373400D01*
X94103432Y-106373400D02*
X93922003Y-106312924D01*
X93922003Y-106312924D02*
X93801051Y-106312924D01*
X93801051Y-106312924D02*
X93619622Y-106373400D01*
X93619622Y-106373400D02*
X93559146Y-106433876D01*
X93075337Y-107522448D02*
X92893908Y-107582924D01*
X92893908Y-107582924D02*
X92591527Y-107582924D01*
X92591527Y-107582924D02*
X92470575Y-107522448D01*
X92470575Y-107522448D02*
X92410099Y-107461971D01*
X92410099Y-107461971D02*
X92349622Y-107341019D01*
X92349622Y-107341019D02*
X92349622Y-107220067D01*
X92349622Y-107220067D02*
X92410099Y-107099114D01*
X92410099Y-107099114D02*
X92470575Y-107038638D01*
X92470575Y-107038638D02*
X92591527Y-106978162D01*
X92591527Y-106978162D02*
X92833432Y-106917686D01*
X92833432Y-106917686D02*
X92954384Y-106857209D01*
X92954384Y-106857209D02*
X93014861Y-106796733D01*
X93014861Y-106796733D02*
X93075337Y-106675781D01*
X93075337Y-106675781D02*
X93075337Y-106554828D01*
X93075337Y-106554828D02*
X93014861Y-106433876D01*
X93014861Y-106433876D02*
X92954384Y-106373400D01*
X92954384Y-106373400D02*
X92833432Y-106312924D01*
X92833432Y-106312924D02*
X92531051Y-106312924D01*
X92531051Y-106312924D02*
X92349622Y-106373400D01*
X122727781Y-105015058D02*
X122788257Y-105075535D01*
X122788257Y-105075535D02*
X122969686Y-105136011D01*
X122969686Y-105136011D02*
X123090638Y-105136011D01*
X123090638Y-105136011D02*
X123272067Y-105075535D01*
X123272067Y-105075535D02*
X123393019Y-104954582D01*
X123393019Y-104954582D02*
X123453496Y-104833630D01*
X123453496Y-104833630D02*
X123513972Y-104591725D01*
X123513972Y-104591725D02*
X123513972Y-104410296D01*
X123513972Y-104410296D02*
X123453496Y-104168392D01*
X123453496Y-104168392D02*
X123393019Y-104047439D01*
X123393019Y-104047439D02*
X123272067Y-103926487D01*
X123272067Y-103926487D02*
X123090638Y-103866011D01*
X123090638Y-103866011D02*
X122969686Y-103866011D01*
X122969686Y-103866011D02*
X122788257Y-103926487D01*
X122788257Y-103926487D02*
X122727781Y-103986963D01*
X121578734Y-105136011D02*
X122183496Y-105136011D01*
X122183496Y-105136011D02*
X122183496Y-103866011D01*
X121155401Y-105136011D02*
X121155401Y-103866011D01*
X120429686Y-105136011D02*
X120973972Y-104410296D01*
X120429686Y-103866011D02*
X121155401Y-104591725D01*
X89838472Y-107034115D02*
X88568472Y-107034115D01*
X89838472Y-107638877D02*
X88568472Y-107638877D01*
X88568472Y-107638877D02*
X89838472Y-108364592D01*
X89838472Y-108364592D02*
X88568472Y-108364592D01*
X89838472Y-108969353D02*
X88568472Y-108969353D01*
X88568472Y-108969353D02*
X88568472Y-109453163D01*
X88568472Y-109453163D02*
X88628948Y-109574115D01*
X88628948Y-109574115D02*
X88689424Y-109634592D01*
X88689424Y-109634592D02*
X88810376Y-109695068D01*
X88810376Y-109695068D02*
X88991805Y-109695068D01*
X88991805Y-109695068D02*
X89112757Y-109634592D01*
X89112757Y-109634592D02*
X89173234Y-109574115D01*
X89173234Y-109574115D02*
X89233710Y-109453163D01*
X89233710Y-109453163D02*
X89233710Y-108969353D01*
X88568472Y-110239353D02*
X89596567Y-110239353D01*
X89596567Y-110239353D02*
X89717519Y-110299830D01*
X89717519Y-110299830D02*
X89777996Y-110360306D01*
X89777996Y-110360306D02*
X89838472Y-110481258D01*
X89838472Y-110481258D02*
X89838472Y-110723163D01*
X89838472Y-110723163D02*
X89777996Y-110844115D01*
X89777996Y-110844115D02*
X89717519Y-110904592D01*
X89717519Y-110904592D02*
X89596567Y-110965068D01*
X89596567Y-110965068D02*
X88568472Y-110965068D01*
X88568472Y-111388401D02*
X88568472Y-112114115D01*
X89838472Y-111751258D02*
X88568472Y-111751258D01*
X122788257Y-114012347D02*
X122909210Y-113951871D01*
X122909210Y-113951871D02*
X123090638Y-113951871D01*
X123090638Y-113951871D02*
X123272067Y-114012347D01*
X123272067Y-114012347D02*
X123393019Y-114133299D01*
X123393019Y-114133299D02*
X123453496Y-114254252D01*
X123453496Y-114254252D02*
X123513972Y-114496156D01*
X123513972Y-114496156D02*
X123513972Y-114677585D01*
X123513972Y-114677585D02*
X123453496Y-114919490D01*
X123453496Y-114919490D02*
X123393019Y-115040442D01*
X123393019Y-115040442D02*
X123272067Y-115161395D01*
X123272067Y-115161395D02*
X123090638Y-115221871D01*
X123090638Y-115221871D02*
X122969686Y-115221871D01*
X122969686Y-115221871D02*
X122788257Y-115161395D01*
X122788257Y-115161395D02*
X122727781Y-115100918D01*
X122727781Y-115100918D02*
X122727781Y-114677585D01*
X122727781Y-114677585D02*
X122969686Y-114677585D01*
X122183496Y-115221871D02*
X122183496Y-113951871D01*
X122183496Y-113951871D02*
X121457781Y-115221871D01*
X121457781Y-115221871D02*
X121457781Y-113951871D01*
X120853020Y-115221871D02*
X120853020Y-113951871D01*
X120853020Y-113951871D02*
X120550639Y-113951871D01*
X120550639Y-113951871D02*
X120369210Y-114012347D01*
X120369210Y-114012347D02*
X120248258Y-114133299D01*
X120248258Y-114133299D02*
X120187781Y-114254252D01*
X120187781Y-114254252D02*
X120127305Y-114496156D01*
X120127305Y-114496156D02*
X120127305Y-114677585D01*
X120127305Y-114677585D02*
X120187781Y-114919490D01*
X120187781Y-114919490D02*
X120248258Y-115040442D01*
X120248258Y-115040442D02*
X120369210Y-115161395D01*
X120369210Y-115161395D02*
X120550639Y-115221871D01*
X120550639Y-115221871D02*
X120853020Y-115221871D01*
X95010575Y-110072924D02*
X95010575Y-108802924D01*
X95010575Y-108802924D02*
X94708194Y-108802924D01*
X94708194Y-108802924D02*
X94526765Y-108863400D01*
X94526765Y-108863400D02*
X94405813Y-108984352D01*
X94405813Y-108984352D02*
X94345336Y-109105305D01*
X94345336Y-109105305D02*
X94284860Y-109347209D01*
X94284860Y-109347209D02*
X94284860Y-109528638D01*
X94284860Y-109528638D02*
X94345336Y-109770543D01*
X94345336Y-109770543D02*
X94405813Y-109891495D01*
X94405813Y-109891495D02*
X94526765Y-110012448D01*
X94526765Y-110012448D02*
X94708194Y-110072924D01*
X94708194Y-110072924D02*
X95010575Y-110072924D01*
X93740575Y-110072924D02*
X93740575Y-108802924D01*
X93135813Y-110072924D02*
X93135813Y-108802924D01*
X93135813Y-108802924D02*
X92410098Y-110072924D01*
X92410098Y-110072924D02*
X92410098Y-108802924D01*
X126438208Y-106427039D02*
X126438208Y-106668944D01*
X126438208Y-106668944D02*
X126498684Y-106789896D01*
X126498684Y-106789896D02*
X126619636Y-106910849D01*
X126619636Y-106910849D02*
X126861541Y-106971325D01*
X126861541Y-106971325D02*
X127284874Y-106971325D01*
X127284874Y-106971325D02*
X127526779Y-106910849D01*
X127526779Y-106910849D02*
X127647732Y-106789896D01*
X127647732Y-106789896D02*
X127708208Y-106668944D01*
X127708208Y-106668944D02*
X127708208Y-106427039D01*
X127708208Y-106427039D02*
X127647732Y-106306087D01*
X127647732Y-106306087D02*
X127526779Y-106185134D01*
X127526779Y-106185134D02*
X127284874Y-106124658D01*
X127284874Y-106124658D02*
X126861541Y-106124658D01*
X126861541Y-106124658D02*
X126619636Y-106185134D01*
X126619636Y-106185134D02*
X126498684Y-106306087D01*
X126498684Y-106306087D02*
X126438208Y-106427039D01*
X126438208Y-107515610D02*
X127466303Y-107515610D01*
X127466303Y-107515610D02*
X127587255Y-107576087D01*
X127587255Y-107576087D02*
X127647732Y-107636563D01*
X127647732Y-107636563D02*
X127708208Y-107757515D01*
X127708208Y-107757515D02*
X127708208Y-107999420D01*
X127708208Y-107999420D02*
X127647732Y-108120372D01*
X127647732Y-108120372D02*
X127587255Y-108180849D01*
X127587255Y-108180849D02*
X127466303Y-108241325D01*
X127466303Y-108241325D02*
X126438208Y-108241325D01*
X126438208Y-108664658D02*
X126438208Y-109390372D01*
X127708208Y-109027515D02*
X126438208Y-109027515D01*
X127708208Y-109813705D02*
X126438208Y-109813705D01*
X126438208Y-109813705D02*
X126438208Y-110297515D01*
X126438208Y-110297515D02*
X126498684Y-110418467D01*
X126498684Y-110418467D02*
X126559160Y-110478944D01*
X126559160Y-110478944D02*
X126680112Y-110539420D01*
X126680112Y-110539420D02*
X126861541Y-110539420D01*
X126861541Y-110539420D02*
X126982493Y-110478944D01*
X126982493Y-110478944D02*
X127042970Y-110418467D01*
X127042970Y-110418467D02*
X127103446Y-110297515D01*
X127103446Y-110297515D02*
X127103446Y-109813705D01*
X126438208Y-111083705D02*
X127466303Y-111083705D01*
X127466303Y-111083705D02*
X127587255Y-111144182D01*
X127587255Y-111144182D02*
X127647732Y-111204658D01*
X127647732Y-111204658D02*
X127708208Y-111325610D01*
X127708208Y-111325610D02*
X127708208Y-111567515D01*
X127708208Y-111567515D02*
X127647732Y-111688467D01*
X127647732Y-111688467D02*
X127587255Y-111748944D01*
X127587255Y-111748944D02*
X127466303Y-111809420D01*
X127466303Y-111809420D02*
X126438208Y-111809420D01*
X126438208Y-112232753D02*
X126438208Y-112958467D01*
X127708208Y-112595610D02*
X126438208Y-112595610D01*
X97808921Y-103734711D02*
X97808921Y-104702331D01*
X98292731Y-104218521D02*
X97325112Y-104218521D01*
X97022731Y-105911854D02*
X97022731Y-105307092D01*
X97022731Y-105307092D02*
X97627493Y-105246616D01*
X97627493Y-105246616D02*
X97567016Y-105307092D01*
X97567016Y-105307092D02*
X97506540Y-105428045D01*
X97506540Y-105428045D02*
X97506540Y-105730426D01*
X97506540Y-105730426D02*
X97567016Y-105851378D01*
X97567016Y-105851378D02*
X97627493Y-105911854D01*
X97627493Y-105911854D02*
X97748445Y-105972331D01*
X97748445Y-105972331D02*
X98050826Y-105972331D01*
X98050826Y-105972331D02*
X98171778Y-105911854D01*
X98171778Y-105911854D02*
X98232255Y-105851378D01*
X98232255Y-105851378D02*
X98292731Y-105730426D01*
X98292731Y-105730426D02*
X98292731Y-105428045D01*
X98292731Y-105428045D02*
X98232255Y-105307092D01*
X98232255Y-105307092D02*
X98171778Y-105246616D01*
X97022731Y-106335188D02*
X98292731Y-106758521D01*
X98292731Y-106758521D02*
X97022731Y-107181855D01*
X123537232Y-110180767D02*
X123537232Y-108910767D01*
X123537232Y-108910767D02*
X123234851Y-108910767D01*
X123234851Y-108910767D02*
X123053422Y-108971243D01*
X123053422Y-108971243D02*
X122932470Y-109092195D01*
X122932470Y-109092195D02*
X122871993Y-109213148D01*
X122871993Y-109213148D02*
X122811517Y-109455052D01*
X122811517Y-109455052D02*
X122811517Y-109636481D01*
X122811517Y-109636481D02*
X122871993Y-109878386D01*
X122871993Y-109878386D02*
X122932470Y-109999338D01*
X122932470Y-109999338D02*
X123053422Y-110120291D01*
X123053422Y-110120291D02*
X123234851Y-110180767D01*
X123234851Y-110180767D02*
X123537232Y-110180767D01*
X122025327Y-108910767D02*
X121783422Y-108910767D01*
X121783422Y-108910767D02*
X121662470Y-108971243D01*
X121662470Y-108971243D02*
X121541517Y-109092195D01*
X121541517Y-109092195D02*
X121481041Y-109334100D01*
X121481041Y-109334100D02*
X121481041Y-109757433D01*
X121481041Y-109757433D02*
X121541517Y-109999338D01*
X121541517Y-109999338D02*
X121662470Y-110120291D01*
X121662470Y-110120291D02*
X121783422Y-110180767D01*
X121783422Y-110180767D02*
X122025327Y-110180767D01*
X122025327Y-110180767D02*
X122146279Y-110120291D01*
X122146279Y-110120291D02*
X122267232Y-109999338D01*
X122267232Y-109999338D02*
X122327708Y-109757433D01*
X122327708Y-109757433D02*
X122327708Y-109334100D01*
X122327708Y-109334100D02*
X122267232Y-109092195D01*
X122267232Y-109092195D02*
X122146279Y-108971243D01*
X122146279Y-108971243D02*
X122025327Y-108910767D01*
X120936756Y-108910767D02*
X120936756Y-109938862D01*
X120936756Y-109938862D02*
X120876279Y-110059814D01*
X120876279Y-110059814D02*
X120815803Y-110120291D01*
X120815803Y-110120291D02*
X120694851Y-110180767D01*
X120694851Y-110180767D02*
X120452946Y-110180767D01*
X120452946Y-110180767D02*
X120331994Y-110120291D01*
X120331994Y-110120291D02*
X120271517Y-110059814D01*
X120271517Y-110059814D02*
X120211041Y-109938862D01*
X120211041Y-109938862D02*
X120211041Y-108910767D01*
X119787708Y-108910767D02*
X119061994Y-108910767D01*
X119424851Y-110180767D02*
X119424851Y-108910767D01*
X119289953Y-101864404D02*
X118443286Y-101864404D01*
X118443286Y-101864404D02*
X118987572Y-103134404D01*
X118019953Y-103073928D02*
X117838524Y-103134404D01*
X117838524Y-103134404D02*
X117536143Y-103134404D01*
X117536143Y-103134404D02*
X117415191Y-103073928D01*
X117415191Y-103073928D02*
X117354715Y-103013451D01*
X117354715Y-103013451D02*
X117294238Y-102892499D01*
X117294238Y-102892499D02*
X117294238Y-102771547D01*
X117294238Y-102771547D02*
X117354715Y-102650594D01*
X117354715Y-102650594D02*
X117415191Y-102590118D01*
X117415191Y-102590118D02*
X117536143Y-102529642D01*
X117536143Y-102529642D02*
X117778048Y-102469166D01*
X117778048Y-102469166D02*
X117899000Y-102408689D01*
X117899000Y-102408689D02*
X117959477Y-102348213D01*
X117959477Y-102348213D02*
X118019953Y-102227261D01*
X118019953Y-102227261D02*
X118019953Y-102106308D01*
X118019953Y-102106308D02*
X117959477Y-101985356D01*
X117959477Y-101985356D02*
X117899000Y-101924880D01*
X117899000Y-101924880D02*
X117778048Y-101864404D01*
X117778048Y-101864404D02*
X117475667Y-101864404D01*
X117475667Y-101864404D02*
X117294238Y-101924880D01*
X116266143Y-103073928D02*
X116387095Y-103134404D01*
X116387095Y-103134404D02*
X116629000Y-103134404D01*
X116629000Y-103134404D02*
X116749953Y-103073928D01*
X116749953Y-103073928D02*
X116810429Y-102952975D01*
X116810429Y-102952975D02*
X116810429Y-102469166D01*
X116810429Y-102469166D02*
X116749953Y-102348213D01*
X116749953Y-102348213D02*
X116629000Y-102287737D01*
X116629000Y-102287737D02*
X116387095Y-102287737D01*
X116387095Y-102287737D02*
X116266143Y-102348213D01*
X116266143Y-102348213D02*
X116205667Y-102469166D01*
X116205667Y-102469166D02*
X116205667Y-102590118D01*
X116205667Y-102590118D02*
X116810429Y-102711070D01*
X115117096Y-102287737D02*
X115117096Y-103315832D01*
X115117096Y-103315832D02*
X115177572Y-103436785D01*
X115177572Y-103436785D02*
X115238048Y-103497261D01*
X115238048Y-103497261D02*
X115359001Y-103557737D01*
X115359001Y-103557737D02*
X115540429Y-103557737D01*
X115540429Y-103557737D02*
X115661382Y-103497261D01*
X115117096Y-103073928D02*
X115238048Y-103134404D01*
X115238048Y-103134404D02*
X115479953Y-103134404D01*
X115479953Y-103134404D02*
X115600905Y-103073928D01*
X115600905Y-103073928D02*
X115661382Y-103013451D01*
X115661382Y-103013451D02*
X115721858Y-102892499D01*
X115721858Y-102892499D02*
X115721858Y-102529642D01*
X115721858Y-102529642D02*
X115661382Y-102408689D01*
X115661382Y-102408689D02*
X115600905Y-102348213D01*
X115600905Y-102348213D02*
X115479953Y-102287737D01*
X115479953Y-102287737D02*
X115238048Y-102287737D01*
X115238048Y-102287737D02*
X115117096Y-102348213D01*
X114512334Y-103134404D02*
X114512334Y-102287737D01*
X114512334Y-102408689D02*
X114451857Y-102348213D01*
X114451857Y-102348213D02*
X114330905Y-102287737D01*
X114330905Y-102287737D02*
X114149476Y-102287737D01*
X114149476Y-102287737D02*
X114028524Y-102348213D01*
X114028524Y-102348213D02*
X113968048Y-102469166D01*
X113968048Y-102469166D02*
X113968048Y-103134404D01*
X113968048Y-102469166D02*
X113907572Y-102348213D01*
X113907572Y-102348213D02*
X113786619Y-102287737D01*
X113786619Y-102287737D02*
X113605191Y-102287737D01*
X113605191Y-102287737D02*
X113484238Y-102348213D01*
X113484238Y-102348213D02*
X113423762Y-102469166D01*
X113423762Y-102469166D02*
X113423762Y-103134404D01*
X112335191Y-103073928D02*
X112456143Y-103134404D01*
X112456143Y-103134404D02*
X112698048Y-103134404D01*
X112698048Y-103134404D02*
X112819001Y-103073928D01*
X112819001Y-103073928D02*
X112879477Y-102952975D01*
X112879477Y-102952975D02*
X112879477Y-102469166D01*
X112879477Y-102469166D02*
X112819001Y-102348213D01*
X112819001Y-102348213D02*
X112698048Y-102287737D01*
X112698048Y-102287737D02*
X112456143Y-102287737D01*
X112456143Y-102287737D02*
X112335191Y-102348213D01*
X112335191Y-102348213D02*
X112274715Y-102469166D01*
X112274715Y-102469166D02*
X112274715Y-102590118D01*
X112274715Y-102590118D02*
X112879477Y-102711070D01*
X111730430Y-102287737D02*
X111730430Y-103134404D01*
X111730430Y-102408689D02*
X111669953Y-102348213D01*
X111669953Y-102348213D02*
X111549001Y-102287737D01*
X111549001Y-102287737D02*
X111367572Y-102287737D01*
X111367572Y-102287737D02*
X111246620Y-102348213D01*
X111246620Y-102348213D02*
X111186144Y-102469166D01*
X111186144Y-102469166D02*
X111186144Y-103134404D01*
X110762810Y-102287737D02*
X110279001Y-102287737D01*
X110581382Y-101864404D02*
X110581382Y-102952975D01*
X110581382Y-102952975D02*
X110520905Y-103073928D01*
X110520905Y-103073928D02*
X110399953Y-103134404D01*
X110399953Y-103134404D02*
X110279001Y-103134404D01*
X108888049Y-103134404D02*
X108888049Y-101864404D01*
X108888049Y-101864404D02*
X108585668Y-101864404D01*
X108585668Y-101864404D02*
X108404239Y-101924880D01*
X108404239Y-101924880D02*
X108283287Y-102045832D01*
X108283287Y-102045832D02*
X108222810Y-102166785D01*
X108222810Y-102166785D02*
X108162334Y-102408689D01*
X108162334Y-102408689D02*
X108162334Y-102590118D01*
X108162334Y-102590118D02*
X108222810Y-102832023D01*
X108222810Y-102832023D02*
X108283287Y-102952975D01*
X108283287Y-102952975D02*
X108404239Y-103073928D01*
X108404239Y-103073928D02*
X108585668Y-103134404D01*
X108585668Y-103134404D02*
X108888049Y-103134404D01*
X107618049Y-103134404D02*
X107618049Y-102287737D01*
X107618049Y-102529642D02*
X107557572Y-102408689D01*
X107557572Y-102408689D02*
X107497096Y-102348213D01*
X107497096Y-102348213D02*
X107376144Y-102287737D01*
X107376144Y-102287737D02*
X107255191Y-102287737D01*
X106831859Y-103134404D02*
X106831859Y-102287737D01*
X106831859Y-101864404D02*
X106892335Y-101924880D01*
X106892335Y-101924880D02*
X106831859Y-101985356D01*
X106831859Y-101985356D02*
X106771382Y-101924880D01*
X106771382Y-101924880D02*
X106831859Y-101864404D01*
X106831859Y-101864404D02*
X106831859Y-101985356D01*
X106348049Y-102287737D02*
X106045668Y-103134404D01*
X106045668Y-103134404D02*
X105743287Y-102287737D01*
X104775668Y-103073928D02*
X104896620Y-103134404D01*
X104896620Y-103134404D02*
X105138525Y-103134404D01*
X105138525Y-103134404D02*
X105259478Y-103073928D01*
X105259478Y-103073928D02*
X105319954Y-102952975D01*
X105319954Y-102952975D02*
X105319954Y-102469166D01*
X105319954Y-102469166D02*
X105259478Y-102348213D01*
X105259478Y-102348213D02*
X105138525Y-102287737D01*
X105138525Y-102287737D02*
X104896620Y-102287737D01*
X104896620Y-102287737D02*
X104775668Y-102348213D01*
X104775668Y-102348213D02*
X104715192Y-102469166D01*
X104715192Y-102469166D02*
X104715192Y-102590118D01*
X104715192Y-102590118D02*
X105319954Y-102711070D01*
X104170907Y-103134404D02*
X104170907Y-102287737D01*
X104170907Y-102529642D02*
X104110430Y-102408689D01*
X104110430Y-102408689D02*
X104049954Y-102348213D01*
X104049954Y-102348213D02*
X103929002Y-102287737D01*
X103929002Y-102287737D02*
X103808049Y-102287737D01*
X101993764Y-102469166D02*
X101812336Y-102529642D01*
X101812336Y-102529642D02*
X101751859Y-102590118D01*
X101751859Y-102590118D02*
X101691383Y-102711070D01*
X101691383Y-102711070D02*
X101691383Y-102892499D01*
X101691383Y-102892499D02*
X101751859Y-103013451D01*
X101751859Y-103013451D02*
X101812336Y-103073928D01*
X101812336Y-103073928D02*
X101933288Y-103134404D01*
X101933288Y-103134404D02*
X102417098Y-103134404D01*
X102417098Y-103134404D02*
X102417098Y-101864404D01*
X102417098Y-101864404D02*
X101993764Y-101864404D01*
X101993764Y-101864404D02*
X101872812Y-101924880D01*
X101872812Y-101924880D02*
X101812336Y-101985356D01*
X101812336Y-101985356D02*
X101751859Y-102106308D01*
X101751859Y-102106308D02*
X101751859Y-102227261D01*
X101751859Y-102227261D02*
X101812336Y-102348213D01*
X101812336Y-102348213D02*
X101872812Y-102408689D01*
X101872812Y-102408689D02*
X101993764Y-102469166D01*
X101993764Y-102469166D02*
X102417098Y-102469166D01*
X100965669Y-103134404D02*
X101086621Y-103073928D01*
X101086621Y-103073928D02*
X101147098Y-103013451D01*
X101147098Y-103013451D02*
X101207574Y-102892499D01*
X101207574Y-102892499D02*
X101207574Y-102529642D01*
X101207574Y-102529642D02*
X101147098Y-102408689D01*
X101147098Y-102408689D02*
X101086621Y-102348213D01*
X101086621Y-102348213D02*
X100965669Y-102287737D01*
X100965669Y-102287737D02*
X100784240Y-102287737D01*
X100784240Y-102287737D02*
X100663288Y-102348213D01*
X100663288Y-102348213D02*
X100602812Y-102408689D01*
X100602812Y-102408689D02*
X100542336Y-102529642D01*
X100542336Y-102529642D02*
X100542336Y-102892499D01*
X100542336Y-102892499D02*
X100602812Y-103013451D01*
X100602812Y-103013451D02*
X100663288Y-103073928D01*
X100663288Y-103073928D02*
X100784240Y-103134404D01*
X100784240Y-103134404D02*
X100965669Y-103134404D01*
X99453764Y-103134404D02*
X99453764Y-102469166D01*
X99453764Y-102469166D02*
X99514240Y-102348213D01*
X99514240Y-102348213D02*
X99635192Y-102287737D01*
X99635192Y-102287737D02*
X99877097Y-102287737D01*
X99877097Y-102287737D02*
X99998050Y-102348213D01*
X99453764Y-103073928D02*
X99574716Y-103134404D01*
X99574716Y-103134404D02*
X99877097Y-103134404D01*
X99877097Y-103134404D02*
X99998050Y-103073928D01*
X99998050Y-103073928D02*
X100058526Y-102952975D01*
X100058526Y-102952975D02*
X100058526Y-102832023D01*
X100058526Y-102832023D02*
X99998050Y-102711070D01*
X99998050Y-102711070D02*
X99877097Y-102650594D01*
X99877097Y-102650594D02*
X99574716Y-102650594D01*
X99574716Y-102650594D02*
X99453764Y-102590118D01*
X98849002Y-103134404D02*
X98849002Y-102287737D01*
X98849002Y-102529642D02*
X98788525Y-102408689D01*
X98788525Y-102408689D02*
X98728049Y-102348213D01*
X98728049Y-102348213D02*
X98607097Y-102287737D01*
X98607097Y-102287737D02*
X98486144Y-102287737D01*
X97518526Y-103134404D02*
X97518526Y-101864404D01*
X97518526Y-103073928D02*
X97639478Y-103134404D01*
X97639478Y-103134404D02*
X97881383Y-103134404D01*
X97881383Y-103134404D02*
X98002335Y-103073928D01*
X98002335Y-103073928D02*
X98062812Y-103013451D01*
X98062812Y-103013451D02*
X98123288Y-102892499D01*
X98123288Y-102892499D02*
X98123288Y-102529642D01*
X98123288Y-102529642D02*
X98062812Y-102408689D01*
X98062812Y-102408689D02*
X98002335Y-102348213D01*
X98002335Y-102348213D02*
X97881383Y-102287737D01*
X97881383Y-102287737D02*
X97639478Y-102287737D01*
X97639478Y-102287737D02*
X97518526Y-102348213D01*
X110279001Y-103909033D02*
X109855668Y-105179033D01*
X109855668Y-105179033D02*
X109432334Y-103909033D01*
X108343763Y-105179033D02*
X109069478Y-105179033D01*
X108706621Y-105179033D02*
X108706621Y-103909033D01*
X108706621Y-103909033D02*
X108827573Y-104090461D01*
X108827573Y-104090461D02*
X108948525Y-104211414D01*
X108948525Y-104211414D02*
X109069478Y-104271890D01*
X107799478Y-105058080D02*
X107739001Y-105118557D01*
X107739001Y-105118557D02*
X107799478Y-105179033D01*
X107799478Y-105179033D02*
X107859954Y-105118557D01*
X107859954Y-105118557D02*
X107799478Y-105058080D01*
X107799478Y-105058080D02*
X107799478Y-105179033D01*
X106952811Y-103909033D02*
X106831858Y-103909033D01*
X106831858Y-103909033D02*
X106710906Y-103969509D01*
X106710906Y-103969509D02*
X106650430Y-104029985D01*
X106650430Y-104029985D02*
X106589954Y-104150937D01*
X106589954Y-104150937D02*
X106529477Y-104392842D01*
X106529477Y-104392842D02*
X106529477Y-104695223D01*
X106529477Y-104695223D02*
X106589954Y-104937128D01*
X106589954Y-104937128D02*
X106650430Y-105058080D01*
X106650430Y-105058080D02*
X106710906Y-105118557D01*
X106710906Y-105118557D02*
X106831858Y-105179033D01*
X106831858Y-105179033D02*
X106952811Y-105179033D01*
X106952811Y-105179033D02*
X107073763Y-105118557D01*
X107073763Y-105118557D02*
X107134239Y-105058080D01*
X107134239Y-105058080D02*
X107194716Y-104937128D01*
X107194716Y-104937128D02*
X107255192Y-104695223D01*
X107255192Y-104695223D02*
X107255192Y-104392842D01*
X107255192Y-104392842D02*
X107194716Y-104150937D01*
X107194716Y-104150937D02*
X107134239Y-104029985D01*
X107134239Y-104029985D02*
X107073763Y-103969509D01*
X107073763Y-103969509D02*
X106952811Y-103909033D01*
X94653802Y-104968587D02*
X94714278Y-105029064D01*
X94714278Y-105029064D02*
X94895707Y-105089540D01*
X94895707Y-105089540D02*
X95016659Y-105089540D01*
X95016659Y-105089540D02*
X95198088Y-105029064D01*
X95198088Y-105029064D02*
X95319040Y-104908111D01*
X95319040Y-104908111D02*
X95379517Y-104787159D01*
X95379517Y-104787159D02*
X95439993Y-104545254D01*
X95439993Y-104545254D02*
X95439993Y-104363825D01*
X95439993Y-104363825D02*
X95379517Y-104121921D01*
X95379517Y-104121921D02*
X95319040Y-104000968D01*
X95319040Y-104000968D02*
X95198088Y-103880016D01*
X95198088Y-103880016D02*
X95016659Y-103819540D01*
X95016659Y-103819540D02*
X94895707Y-103819540D01*
X94895707Y-103819540D02*
X94714278Y-103880016D01*
X94714278Y-103880016D02*
X94653802Y-103940492D01*
X93504755Y-105089540D02*
X94109517Y-105089540D01*
X94109517Y-105089540D02*
X94109517Y-103819540D01*
X93081422Y-105089540D02*
X93081422Y-103819540D01*
X92355707Y-105089540D02*
X92899993Y-104363825D01*
X92355707Y-103819540D02*
X93081422Y-104545254D01*
X122727781Y-107535058D02*
X122788257Y-107595535D01*
X122788257Y-107595535D02*
X122969686Y-107656011D01*
X122969686Y-107656011D02*
X123090638Y-107656011D01*
X123090638Y-107656011D02*
X123272067Y-107595535D01*
X123272067Y-107595535D02*
X123393019Y-107474582D01*
X123393019Y-107474582D02*
X123453496Y-107353630D01*
X123453496Y-107353630D02*
X123513972Y-107111725D01*
X123513972Y-107111725D02*
X123513972Y-106930296D01*
X123513972Y-106930296D02*
X123453496Y-106688392D01*
X123453496Y-106688392D02*
X123393019Y-106567439D01*
X123393019Y-106567439D02*
X123272067Y-106446487D01*
X123272067Y-106446487D02*
X123090638Y-106386011D01*
X123090638Y-106386011D02*
X122969686Y-106386011D01*
X122969686Y-106386011D02*
X122788257Y-106446487D01*
X122788257Y-106446487D02*
X122727781Y-106506963D01*
X122243972Y-107595535D02*
X122062543Y-107656011D01*
X122062543Y-107656011D02*
X121760162Y-107656011D01*
X121760162Y-107656011D02*
X121639210Y-107595535D01*
X121639210Y-107595535D02*
X121578734Y-107535058D01*
X121578734Y-107535058D02*
X121518257Y-107414106D01*
X121518257Y-107414106D02*
X121518257Y-107293154D01*
X121518257Y-107293154D02*
X121578734Y-107172201D01*
X121578734Y-107172201D02*
X121639210Y-107111725D01*
X121639210Y-107111725D02*
X121760162Y-107051249D01*
X121760162Y-107051249D02*
X122002067Y-106990773D01*
X122002067Y-106990773D02*
X122123019Y-106930296D01*
X122123019Y-106930296D02*
X122183496Y-106869820D01*
X122183496Y-106869820D02*
X122243972Y-106748868D01*
X122243972Y-106748868D02*
X122243972Y-106627915D01*
X122243972Y-106627915D02*
X122183496Y-106506963D01*
X122183496Y-106506963D02*
X122123019Y-106446487D01*
X122123019Y-106446487D02*
X122002067Y-106386011D01*
X122002067Y-106386011D02*
X121699686Y-106386011D01*
X121699686Y-106386011D02*
X121518257Y-106446487D01*
X118379391Y-116223532D02*
X118379391Y-114953532D01*
X118379391Y-114953532D02*
X117956057Y-115860675D01*
X117956057Y-115860675D02*
X117532724Y-114953532D01*
X117532724Y-114953532D02*
X117532724Y-116223532D01*
X116746533Y-116223532D02*
X116867485Y-116163056D01*
X116867485Y-116163056D02*
X116927962Y-116102579D01*
X116927962Y-116102579D02*
X116988438Y-115981627D01*
X116988438Y-115981627D02*
X116988438Y-115618770D01*
X116988438Y-115618770D02*
X116927962Y-115497817D01*
X116927962Y-115497817D02*
X116867485Y-115437341D01*
X116867485Y-115437341D02*
X116746533Y-115376865D01*
X116746533Y-115376865D02*
X116565104Y-115376865D01*
X116565104Y-115376865D02*
X116444152Y-115437341D01*
X116444152Y-115437341D02*
X116383676Y-115497817D01*
X116383676Y-115497817D02*
X116323200Y-115618770D01*
X116323200Y-115618770D02*
X116323200Y-115981627D01*
X116323200Y-115981627D02*
X116383676Y-116102579D01*
X116383676Y-116102579D02*
X116444152Y-116163056D01*
X116444152Y-116163056D02*
X116565104Y-116223532D01*
X116565104Y-116223532D02*
X116746533Y-116223532D01*
X115778914Y-116223532D02*
X115778914Y-114953532D01*
X115778914Y-115437341D02*
X115657961Y-115376865D01*
X115657961Y-115376865D02*
X115416056Y-115376865D01*
X115416056Y-115376865D02*
X115295104Y-115437341D01*
X115295104Y-115437341D02*
X115234628Y-115497817D01*
X115234628Y-115497817D02*
X115174152Y-115618770D01*
X115174152Y-115618770D02*
X115174152Y-115981627D01*
X115174152Y-115981627D02*
X115234628Y-116102579D01*
X115234628Y-116102579D02*
X115295104Y-116163056D01*
X115295104Y-116163056D02*
X115416056Y-116223532D01*
X115416056Y-116223532D02*
X115657961Y-116223532D01*
X115657961Y-116223532D02*
X115778914Y-116163056D01*
X114629866Y-116223532D02*
X114629866Y-115376865D01*
X114629866Y-114953532D02*
X114690342Y-115014008D01*
X114690342Y-115014008D02*
X114629866Y-115074484D01*
X114629866Y-115074484D02*
X114569389Y-115014008D01*
X114569389Y-115014008D02*
X114629866Y-114953532D01*
X114629866Y-114953532D02*
X114629866Y-115074484D01*
X113601770Y-115558294D02*
X114025104Y-115558294D01*
X114025104Y-116223532D02*
X114025104Y-114953532D01*
X114025104Y-114953532D02*
X113420342Y-114953532D01*
X112755104Y-116223532D02*
X112876056Y-116163056D01*
X112876056Y-116163056D02*
X112936533Y-116042103D01*
X112936533Y-116042103D02*
X112936533Y-114953532D01*
X112271295Y-116223532D02*
X112271295Y-115376865D01*
X112271295Y-114953532D02*
X112331771Y-115014008D01*
X112331771Y-115014008D02*
X112271295Y-115074484D01*
X112271295Y-115074484D02*
X112210818Y-115014008D01*
X112210818Y-115014008D02*
X112271295Y-114953532D01*
X112271295Y-114953532D02*
X112271295Y-115074484D01*
X111122247Y-115376865D02*
X111122247Y-116404960D01*
X111122247Y-116404960D02*
X111182723Y-116525913D01*
X111182723Y-116525913D02*
X111243199Y-116586389D01*
X111243199Y-116586389D02*
X111364152Y-116646865D01*
X111364152Y-116646865D02*
X111545580Y-116646865D01*
X111545580Y-116646865D02*
X111666533Y-116586389D01*
X111122247Y-116163056D02*
X111243199Y-116223532D01*
X111243199Y-116223532D02*
X111485104Y-116223532D01*
X111485104Y-116223532D02*
X111606056Y-116163056D01*
X111606056Y-116163056D02*
X111666533Y-116102579D01*
X111666533Y-116102579D02*
X111727009Y-115981627D01*
X111727009Y-115981627D02*
X111727009Y-115618770D01*
X111727009Y-115618770D02*
X111666533Y-115497817D01*
X111666533Y-115497817D02*
X111606056Y-115437341D01*
X111606056Y-115437341D02*
X111485104Y-115376865D01*
X111485104Y-115376865D02*
X111243199Y-115376865D01*
X111243199Y-115376865D02*
X111122247Y-115437341D01*
X110517485Y-116223532D02*
X110517485Y-114953532D01*
X109973199Y-116223532D02*
X109973199Y-115558294D01*
X109973199Y-115558294D02*
X110033675Y-115437341D01*
X110033675Y-115437341D02*
X110154627Y-115376865D01*
X110154627Y-115376865D02*
X110336056Y-115376865D01*
X110336056Y-115376865D02*
X110457008Y-115437341D01*
X110457008Y-115437341D02*
X110517485Y-115497817D01*
X109549865Y-115376865D02*
X109066056Y-115376865D01*
X109368437Y-114953532D02*
X109368437Y-116042103D01*
X109368437Y-116042103D02*
X109307960Y-116163056D01*
X109307960Y-116163056D02*
X109187008Y-116223532D01*
X109187008Y-116223532D02*
X109066056Y-116223532D01*
X108642723Y-116102579D02*
X108582246Y-116163056D01*
X108582246Y-116163056D02*
X108642723Y-116223532D01*
X108642723Y-116223532D02*
X108703199Y-116163056D01*
X108703199Y-116163056D02*
X108642723Y-116102579D01*
X108642723Y-116102579D02*
X108642723Y-116223532D01*
X107493675Y-116163056D02*
X107614627Y-116223532D01*
X107614627Y-116223532D02*
X107856532Y-116223532D01*
X107856532Y-116223532D02*
X107977484Y-116163056D01*
X107977484Y-116163056D02*
X108037961Y-116102579D01*
X108037961Y-116102579D02*
X108098437Y-115981627D01*
X108098437Y-115981627D02*
X108098437Y-115618770D01*
X108098437Y-115618770D02*
X108037961Y-115497817D01*
X108037961Y-115497817D02*
X107977484Y-115437341D01*
X107977484Y-115437341D02*
X107856532Y-115376865D01*
X107856532Y-115376865D02*
X107614627Y-115376865D01*
X107614627Y-115376865D02*
X107493675Y-115437341D01*
X106767961Y-116223532D02*
X106888913Y-116163056D01*
X106888913Y-116163056D02*
X106949390Y-116102579D01*
X106949390Y-116102579D02*
X107009866Y-115981627D01*
X107009866Y-115981627D02*
X107009866Y-115618770D01*
X107009866Y-115618770D02*
X106949390Y-115497817D01*
X106949390Y-115497817D02*
X106888913Y-115437341D01*
X106888913Y-115437341D02*
X106767961Y-115376865D01*
X106767961Y-115376865D02*
X106586532Y-115376865D01*
X106586532Y-115376865D02*
X106465580Y-115437341D01*
X106465580Y-115437341D02*
X106405104Y-115497817D01*
X106405104Y-115497817D02*
X106344628Y-115618770D01*
X106344628Y-115618770D02*
X106344628Y-115981627D01*
X106344628Y-115981627D02*
X106405104Y-116102579D01*
X106405104Y-116102579D02*
X106465580Y-116163056D01*
X106465580Y-116163056D02*
X106586532Y-116223532D01*
X106586532Y-116223532D02*
X106767961Y-116223532D01*
X105800342Y-116223532D02*
X105800342Y-115376865D01*
X105800342Y-115497817D02*
X105739865Y-115437341D01*
X105739865Y-115437341D02*
X105618913Y-115376865D01*
X105618913Y-115376865D02*
X105437484Y-115376865D01*
X105437484Y-115376865D02*
X105316532Y-115437341D01*
X105316532Y-115437341D02*
X105256056Y-115558294D01*
X105256056Y-115558294D02*
X105256056Y-116223532D01*
X105256056Y-115558294D02*
X105195580Y-115437341D01*
X105195580Y-115437341D02*
X105074627Y-115376865D01*
X105074627Y-115376865D02*
X104893199Y-115376865D01*
X104893199Y-115376865D02*
X104772246Y-115437341D01*
X104772246Y-115437341D02*
X104711770Y-115558294D01*
X104711770Y-115558294D02*
X104711770Y-116223532D01*
X103199866Y-114893056D02*
X104288437Y-116525913D01*
X102897485Y-114953532D02*
X102050818Y-114953532D01*
X102050818Y-114953532D02*
X102595104Y-116223532D01*
X101627485Y-116163056D02*
X101506532Y-116223532D01*
X101506532Y-116223532D02*
X101264628Y-116223532D01*
X101264628Y-116223532D02*
X101143675Y-116163056D01*
X101143675Y-116163056D02*
X101083199Y-116042103D01*
X101083199Y-116042103D02*
X101083199Y-115981627D01*
X101083199Y-115981627D02*
X101143675Y-115860675D01*
X101143675Y-115860675D02*
X101264628Y-115800198D01*
X101264628Y-115800198D02*
X101446056Y-115800198D01*
X101446056Y-115800198D02*
X101567009Y-115739722D01*
X101567009Y-115739722D02*
X101627485Y-115618770D01*
X101627485Y-115618770D02*
X101627485Y-115558294D01*
X101627485Y-115558294D02*
X101567009Y-115437341D01*
X101567009Y-115437341D02*
X101446056Y-115376865D01*
X101446056Y-115376865D02*
X101264628Y-115376865D01*
X101264628Y-115376865D02*
X101143675Y-115437341D01*
X99994628Y-116223532D02*
X99994628Y-114953532D01*
X99994628Y-116163056D02*
X100115580Y-116223532D01*
X100115580Y-116223532D02*
X100357485Y-116223532D01*
X100357485Y-116223532D02*
X100478437Y-116163056D01*
X100478437Y-116163056D02*
X100538914Y-116102579D01*
X100538914Y-116102579D02*
X100599390Y-115981627D01*
X100599390Y-115981627D02*
X100599390Y-115618770D01*
X100599390Y-115618770D02*
X100538914Y-115497817D01*
X100538914Y-115497817D02*
X100478437Y-115437341D01*
X100478437Y-115437341D02*
X100357485Y-115376865D01*
X100357485Y-115376865D02*
X100115580Y-115376865D01*
X100115580Y-115376865D02*
X99994628Y-115437341D01*
X99389866Y-116223532D02*
X99389866Y-114953532D01*
X99389866Y-115437341D02*
X99268913Y-115376865D01*
X99268913Y-115376865D02*
X99027008Y-115376865D01*
X99027008Y-115376865D02*
X98906056Y-115437341D01*
X98906056Y-115437341D02*
X98845580Y-115497817D01*
X98845580Y-115497817D02*
X98785104Y-115618770D01*
X98785104Y-115618770D02*
X98785104Y-115981627D01*
X98785104Y-115981627D02*
X98845580Y-116102579D01*
X98845580Y-116102579D02*
X98906056Y-116163056D01*
X98906056Y-116163056D02*
X99027008Y-116223532D01*
X99027008Y-116223532D02*
X99268913Y-116223532D01*
X99268913Y-116223532D02*
X99389866Y-116163056D01*
D11*
%TO.C,P4*%
X98511171Y-106946562D02*
X98511171Y-112146562D01*
X98511171Y-106946562D02*
X99081171Y-106946562D01*
X98511171Y-112146562D02*
X99081171Y-112146562D01*
X99081171Y-112146562D02*
X99081171Y-113506562D01*
X100601171Y-106946562D02*
X101621171Y-106946562D01*
X100601171Y-112146562D02*
X101621171Y-112146562D01*
X103141171Y-106946562D02*
X104161171Y-106946562D01*
X103141171Y-112146562D02*
X104161171Y-112146562D01*
X105681171Y-106946562D02*
X106701171Y-106946562D01*
X105681171Y-112146562D02*
X106701171Y-112146562D01*
X108221171Y-106946562D02*
X109241171Y-106946562D01*
X108221171Y-112146562D02*
X109241171Y-112146562D01*
X110761171Y-106946562D02*
X111781171Y-106946562D01*
X110761171Y-112146562D02*
X111781171Y-112146562D01*
X113301171Y-106946562D02*
X114321171Y-106946562D01*
X113301171Y-112146562D02*
X114321171Y-112146562D01*
X115841171Y-106946562D02*
X116861171Y-106946562D01*
X115841171Y-112146562D02*
X116861171Y-112146562D01*
X118381171Y-106946562D02*
X118951171Y-106946562D01*
X118381171Y-112146562D02*
X118951171Y-112146562D01*
X118951171Y-106946562D02*
X118951171Y-112146562D01*
%TD*%
%LPC*%
G36*
X91803914Y-113632198D02*
G01*
X91819726Y-113639179D01*
X91827531Y-113640416D01*
X91860039Y-113656979D01*
X91905106Y-113676879D01*
X91983324Y-113755097D01*
X92003226Y-113800170D01*
X92019786Y-113832671D01*
X92021021Y-113840473D01*
X92028005Y-113856289D01*
X92036000Y-113925203D01*
X92036000Y-115125203D01*
X92028005Y-115194117D01*
X92021021Y-115209932D01*
X92019786Y-115217734D01*
X92003229Y-115250227D01*
X91983324Y-115295309D01*
X91905106Y-115373527D01*
X91860024Y-115393432D01*
X91827531Y-115409989D01*
X91819729Y-115411224D01*
X91803914Y-115418208D01*
X91735000Y-115426203D01*
X90285000Y-115426203D01*
X90216086Y-115418208D01*
X90200270Y-115411224D01*
X90192468Y-115409989D01*
X90159967Y-115393429D01*
X90114894Y-115373527D01*
X90036676Y-115295309D01*
X90016776Y-115250242D01*
X90000213Y-115217734D01*
X89998976Y-115209929D01*
X89991995Y-115194117D01*
X89984000Y-115125203D01*
X89984000Y-113925203D01*
X89991995Y-113856289D01*
X89998976Y-113840477D01*
X90000213Y-113832671D01*
X90016780Y-113800156D01*
X90036676Y-113755097D01*
X90114894Y-113676879D01*
X90159953Y-113656983D01*
X90192468Y-113640416D01*
X90200274Y-113639179D01*
X90216086Y-113632198D01*
X90285000Y-113624203D01*
X91735000Y-113624203D01*
X91803914Y-113632198D01*
G37*
G36*
X125483914Y-113566995D02*
G01*
X125499726Y-113573976D01*
X125507531Y-113575213D01*
X125540039Y-113591776D01*
X125585106Y-113611676D01*
X125663324Y-113689894D01*
X125683226Y-113734967D01*
X125699786Y-113767468D01*
X125701021Y-113775270D01*
X125708005Y-113791086D01*
X125716000Y-113860000D01*
X125716000Y-115060000D01*
X125708005Y-115128914D01*
X125701021Y-115144729D01*
X125699786Y-115152531D01*
X125683229Y-115185024D01*
X125663324Y-115230106D01*
X125585106Y-115308324D01*
X125540024Y-115328229D01*
X125507531Y-115344786D01*
X125499729Y-115346021D01*
X125483914Y-115353005D01*
X125415000Y-115361000D01*
X123965000Y-115361000D01*
X123896086Y-115353005D01*
X123880270Y-115346021D01*
X123872468Y-115344786D01*
X123839967Y-115328226D01*
X123794894Y-115308324D01*
X123716676Y-115230106D01*
X123696776Y-115185039D01*
X123680213Y-115152531D01*
X123678976Y-115144726D01*
X123671995Y-115128914D01*
X123664000Y-115060000D01*
X123664000Y-113860000D01*
X123671995Y-113791086D01*
X123678976Y-113775274D01*
X123680213Y-113767468D01*
X123696780Y-113734953D01*
X123716676Y-113689894D01*
X123794894Y-113611676D01*
X123839953Y-113591780D01*
X123872468Y-113575213D01*
X123880274Y-113573976D01*
X123896086Y-113566995D01*
X123965000Y-113559000D01*
X125415000Y-113559000D01*
X125483914Y-113566995D01*
G37*
G36*
X100360688Y-110519444D02*
G01*
X100377233Y-110530500D01*
X100388289Y-110547045D01*
X100392171Y-110566562D01*
X100392171Y-113566562D01*
X100388289Y-113586079D01*
X100377233Y-113602624D01*
X100360688Y-113613680D01*
X100341171Y-113617562D01*
X99341171Y-113617562D01*
X99321654Y-113613680D01*
X99305109Y-113602624D01*
X99294053Y-113586079D01*
X99290171Y-113566562D01*
X99290171Y-110566562D01*
X99294053Y-110547045D01*
X99305109Y-110530500D01*
X99321654Y-110519444D01*
X99341171Y-110515562D01*
X100341171Y-110515562D01*
X100360688Y-110519444D01*
G37*
G36*
X102900688Y-110519444D02*
G01*
X102917233Y-110530500D01*
X102928289Y-110547045D01*
X102932171Y-110566562D01*
X102932171Y-113566562D01*
X102928289Y-113586079D01*
X102917233Y-113602624D01*
X102900688Y-113613680D01*
X102881171Y-113617562D01*
X101881171Y-113617562D01*
X101861654Y-113613680D01*
X101845109Y-113602624D01*
X101834053Y-113586079D01*
X101830171Y-113566562D01*
X101830171Y-110566562D01*
X101834053Y-110547045D01*
X101845109Y-110530500D01*
X101861654Y-110519444D01*
X101881171Y-110515562D01*
X102881171Y-110515562D01*
X102900688Y-110519444D01*
G37*
G36*
X105440688Y-110519444D02*
G01*
X105457233Y-110530500D01*
X105468289Y-110547045D01*
X105472171Y-110566562D01*
X105472171Y-113566562D01*
X105468289Y-113586079D01*
X105457233Y-113602624D01*
X105440688Y-113613680D01*
X105421171Y-113617562D01*
X104421171Y-113617562D01*
X104401654Y-113613680D01*
X104385109Y-113602624D01*
X104374053Y-113586079D01*
X104370171Y-113566562D01*
X104370171Y-110566562D01*
X104374053Y-110547045D01*
X104385109Y-110530500D01*
X104401654Y-110519444D01*
X104421171Y-110515562D01*
X105421171Y-110515562D01*
X105440688Y-110519444D01*
G37*
G36*
X107980688Y-110519444D02*
G01*
X107997233Y-110530500D01*
X108008289Y-110547045D01*
X108012171Y-110566562D01*
X108012171Y-113566562D01*
X108008289Y-113586079D01*
X107997233Y-113602624D01*
X107980688Y-113613680D01*
X107961171Y-113617562D01*
X106961171Y-113617562D01*
X106941654Y-113613680D01*
X106925109Y-113602624D01*
X106914053Y-113586079D01*
X106910171Y-113566562D01*
X106910171Y-110566562D01*
X106914053Y-110547045D01*
X106925109Y-110530500D01*
X106941654Y-110519444D01*
X106961171Y-110515562D01*
X107961171Y-110515562D01*
X107980688Y-110519444D01*
G37*
G36*
X110520688Y-110519444D02*
G01*
X110537233Y-110530500D01*
X110548289Y-110547045D01*
X110552171Y-110566562D01*
X110552171Y-113566562D01*
X110548289Y-113586079D01*
X110537233Y-113602624D01*
X110520688Y-113613680D01*
X110501171Y-113617562D01*
X109501171Y-113617562D01*
X109481654Y-113613680D01*
X109465109Y-113602624D01*
X109454053Y-113586079D01*
X109450171Y-113566562D01*
X109450171Y-110566562D01*
X109454053Y-110547045D01*
X109465109Y-110530500D01*
X109481654Y-110519444D01*
X109501171Y-110515562D01*
X110501171Y-110515562D01*
X110520688Y-110519444D01*
G37*
G36*
X113060688Y-110519444D02*
G01*
X113077233Y-110530500D01*
X113088289Y-110547045D01*
X113092171Y-110566562D01*
X113092171Y-113566562D01*
X113088289Y-113586079D01*
X113077233Y-113602624D01*
X113060688Y-113613680D01*
X113041171Y-113617562D01*
X112041171Y-113617562D01*
X112021654Y-113613680D01*
X112005109Y-113602624D01*
X111994053Y-113586079D01*
X111990171Y-113566562D01*
X111990171Y-110566562D01*
X111994053Y-110547045D01*
X112005109Y-110530500D01*
X112021654Y-110519444D01*
X112041171Y-110515562D01*
X113041171Y-110515562D01*
X113060688Y-110519444D01*
G37*
G36*
X115600688Y-110519444D02*
G01*
X115617233Y-110530500D01*
X115628289Y-110547045D01*
X115632171Y-110566562D01*
X115632171Y-113566562D01*
X115628289Y-113586079D01*
X115617233Y-113602624D01*
X115600688Y-113613680D01*
X115581171Y-113617562D01*
X114581171Y-113617562D01*
X114561654Y-113613680D01*
X114545109Y-113602624D01*
X114534053Y-113586079D01*
X114530171Y-113566562D01*
X114530171Y-110566562D01*
X114534053Y-110547045D01*
X114545109Y-110530500D01*
X114561654Y-110519444D01*
X114581171Y-110515562D01*
X115581171Y-110515562D01*
X115600688Y-110519444D01*
G37*
G36*
X118140688Y-110519444D02*
G01*
X118157233Y-110530500D01*
X118168289Y-110547045D01*
X118172171Y-110566562D01*
X118172171Y-113566562D01*
X118168289Y-113586079D01*
X118157233Y-113602624D01*
X118140688Y-113613680D01*
X118121171Y-113617562D01*
X117121171Y-113617562D01*
X117101654Y-113613680D01*
X117085109Y-113602624D01*
X117074053Y-113586079D01*
X117070171Y-113566562D01*
X117070171Y-110566562D01*
X117074053Y-110547045D01*
X117085109Y-110530500D01*
X117101654Y-110519444D01*
X117121171Y-110515562D01*
X118121171Y-110515562D01*
X118140688Y-110519444D01*
G37*
G36*
X91223313Y-111128542D02*
G01*
X91396546Y-111163000D01*
X91559728Y-111230592D01*
X91706588Y-111328721D01*
X91831482Y-111453615D01*
X91929611Y-111600475D01*
X91997203Y-111763657D01*
X92031661Y-111936890D01*
X92031661Y-112113516D01*
X91997203Y-112286749D01*
X91929611Y-112449931D01*
X91831482Y-112596791D01*
X91706588Y-112721685D01*
X91559728Y-112819814D01*
X91396546Y-112887406D01*
X91223313Y-112921864D01*
X91135000Y-112926203D01*
X91131941Y-112926203D01*
X90888059Y-112926203D01*
X90885000Y-112926203D01*
X90796687Y-112921864D01*
X90623454Y-112887406D01*
X90460272Y-112819814D01*
X90313412Y-112721685D01*
X90188518Y-112596791D01*
X90090389Y-112449931D01*
X90022797Y-112286749D01*
X89988339Y-112113516D01*
X89988339Y-111936890D01*
X90022797Y-111763657D01*
X90090389Y-111600475D01*
X90188518Y-111453615D01*
X90313412Y-111328721D01*
X90460272Y-111230592D01*
X90623454Y-111163000D01*
X90796687Y-111128542D01*
X90885000Y-111124203D01*
X91135000Y-111124203D01*
X91223313Y-111128542D01*
G37*
G36*
X124903313Y-111063339D02*
G01*
X125076546Y-111097797D01*
X125239728Y-111165389D01*
X125386588Y-111263518D01*
X125511482Y-111388412D01*
X125609611Y-111535272D01*
X125677203Y-111698454D01*
X125711661Y-111871687D01*
X125711661Y-112048313D01*
X125677203Y-112221546D01*
X125609611Y-112384728D01*
X125511482Y-112531588D01*
X125386588Y-112656482D01*
X125239728Y-112754611D01*
X125076546Y-112822203D01*
X124903313Y-112856661D01*
X124815000Y-112861000D01*
X124811941Y-112861000D01*
X124568059Y-112861000D01*
X124565000Y-112861000D01*
X124476687Y-112856661D01*
X124303454Y-112822203D01*
X124140272Y-112754611D01*
X123993412Y-112656482D01*
X123868518Y-112531588D01*
X123770389Y-112384728D01*
X123702797Y-112221546D01*
X123668339Y-112048313D01*
X123668339Y-111871687D01*
X123702797Y-111698454D01*
X123770389Y-111535272D01*
X123868518Y-111388412D01*
X123993412Y-111263518D01*
X124140272Y-111165389D01*
X124303454Y-111097797D01*
X124476687Y-111063339D01*
X124565000Y-111059000D01*
X124815000Y-111059000D01*
X124903313Y-111063339D01*
G37*
G36*
X98477386Y-109868742D02*
G01*
X98493198Y-109875723D01*
X98501003Y-109876960D01*
X98533511Y-109893523D01*
X98578578Y-109913423D01*
X98656796Y-109991641D01*
X98676698Y-110036714D01*
X98693258Y-110069215D01*
X98694493Y-110077017D01*
X98701477Y-110092833D01*
X98709472Y-110161747D01*
X98709472Y-111361747D01*
X98701477Y-111430661D01*
X98694493Y-111446476D01*
X98693258Y-111454278D01*
X98676701Y-111486771D01*
X98656796Y-111531853D01*
X98578578Y-111610071D01*
X98533496Y-111629976D01*
X98501003Y-111646533D01*
X98493201Y-111647768D01*
X98477386Y-111654752D01*
X98408472Y-111662747D01*
X96908472Y-111662747D01*
X96839558Y-111654752D01*
X96823742Y-111647768D01*
X96815940Y-111646533D01*
X96783439Y-111629973D01*
X96738366Y-111610071D01*
X96660148Y-111531853D01*
X96640248Y-111486786D01*
X96623685Y-111454278D01*
X96622448Y-111446473D01*
X96615467Y-111430661D01*
X96607472Y-111361747D01*
X96607472Y-110161747D01*
X96615467Y-110092833D01*
X96622448Y-110077021D01*
X96623685Y-110069215D01*
X96640252Y-110036700D01*
X96660148Y-109991641D01*
X96738366Y-109913423D01*
X96783425Y-109893527D01*
X96815940Y-109876960D01*
X96823746Y-109875723D01*
X96839558Y-109868742D01*
X96908472Y-109860747D01*
X98408472Y-109860747D01*
X98477386Y-109868742D01*
G37*
G36*
X91223313Y-108628542D02*
G01*
X91396546Y-108663000D01*
X91559728Y-108730592D01*
X91706588Y-108828721D01*
X91831482Y-108953615D01*
X91929611Y-109100475D01*
X91997203Y-109263657D01*
X92031661Y-109436890D01*
X92031661Y-109613516D01*
X91997203Y-109786749D01*
X91929611Y-109949931D01*
X91831482Y-110096791D01*
X91706588Y-110221685D01*
X91559728Y-110319814D01*
X91396546Y-110387406D01*
X91223313Y-110421864D01*
X91135000Y-110426203D01*
X91131941Y-110426203D01*
X90888059Y-110426203D01*
X90885000Y-110426203D01*
X90796687Y-110421864D01*
X90623454Y-110387406D01*
X90460272Y-110319814D01*
X90313412Y-110221685D01*
X90188518Y-110096791D01*
X90090389Y-109949931D01*
X90022797Y-109786749D01*
X89988339Y-109613516D01*
X89988339Y-109436890D01*
X90022797Y-109263657D01*
X90090389Y-109100475D01*
X90188518Y-108953615D01*
X90313412Y-108828721D01*
X90460272Y-108730592D01*
X90623454Y-108663000D01*
X90796687Y-108628542D01*
X90885000Y-108624203D01*
X91135000Y-108624203D01*
X91223313Y-108628542D01*
G37*
G36*
X124903313Y-108563339D02*
G01*
X125076546Y-108597797D01*
X125239728Y-108665389D01*
X125386588Y-108763518D01*
X125511482Y-108888412D01*
X125609611Y-109035272D01*
X125677203Y-109198454D01*
X125711661Y-109371687D01*
X125711661Y-109548313D01*
X125677203Y-109721546D01*
X125609611Y-109884728D01*
X125511482Y-110031588D01*
X125386588Y-110156482D01*
X125239728Y-110254611D01*
X125076546Y-110322203D01*
X124903313Y-110356661D01*
X124815000Y-110361000D01*
X124811941Y-110361000D01*
X124568059Y-110361000D01*
X124565000Y-110361000D01*
X124476687Y-110356661D01*
X124303454Y-110322203D01*
X124140272Y-110254611D01*
X123993412Y-110156482D01*
X123868518Y-110031588D01*
X123770389Y-109884728D01*
X123702797Y-109721546D01*
X123668339Y-109548313D01*
X123668339Y-109371687D01*
X123702797Y-109198454D01*
X123770389Y-109035272D01*
X123868518Y-108888412D01*
X123993412Y-108763518D01*
X124140272Y-108665389D01*
X124303454Y-108597797D01*
X124476687Y-108563339D01*
X124565000Y-108559000D01*
X124815000Y-108559000D01*
X124903313Y-108563339D01*
G37*
G36*
X97896785Y-107365086D02*
G01*
X98070018Y-107399544D01*
X98233200Y-107467136D01*
X98380060Y-107565265D01*
X98504954Y-107690159D01*
X98603083Y-107837019D01*
X98670675Y-108000201D01*
X98705133Y-108173434D01*
X98705133Y-108350060D01*
X98670675Y-108523293D01*
X98603083Y-108686475D01*
X98504954Y-108833335D01*
X98380060Y-108958229D01*
X98233200Y-109056358D01*
X98070018Y-109123950D01*
X97896785Y-109158408D01*
X97808472Y-109162747D01*
X97805413Y-109162747D01*
X97511531Y-109162747D01*
X97508472Y-109162747D01*
X97420159Y-109158408D01*
X97246926Y-109123950D01*
X97083744Y-109056358D01*
X96936884Y-108958229D01*
X96811990Y-108833335D01*
X96713861Y-108686475D01*
X96646269Y-108523293D01*
X96611811Y-108350060D01*
X96611811Y-108173434D01*
X96646269Y-108000201D01*
X96713861Y-107837019D01*
X96811990Y-107690159D01*
X96936884Y-107565265D01*
X97083744Y-107467136D01*
X97246926Y-107399544D01*
X97420159Y-107365086D01*
X97508472Y-107360747D01*
X97808472Y-107360747D01*
X97896785Y-107365086D01*
G37*
G36*
X100360688Y-105479444D02*
G01*
X100377233Y-105490500D01*
X100388289Y-105507045D01*
X100392171Y-105526562D01*
X100392171Y-108526562D01*
X100388289Y-108546079D01*
X100377233Y-108562624D01*
X100360688Y-108573680D01*
X100341171Y-108577562D01*
X99341171Y-108577562D01*
X99321654Y-108573680D01*
X99305109Y-108562624D01*
X99294053Y-108546079D01*
X99290171Y-108526562D01*
X99290171Y-105526562D01*
X99294053Y-105507045D01*
X99305109Y-105490500D01*
X99321654Y-105479444D01*
X99341171Y-105475562D01*
X100341171Y-105475562D01*
X100360688Y-105479444D01*
G37*
G36*
X102900688Y-105479444D02*
G01*
X102917233Y-105490500D01*
X102928289Y-105507045D01*
X102932171Y-105526562D01*
X102932171Y-108526562D01*
X102928289Y-108546079D01*
X102917233Y-108562624D01*
X102900688Y-108573680D01*
X102881171Y-108577562D01*
X101881171Y-108577562D01*
X101861654Y-108573680D01*
X101845109Y-108562624D01*
X101834053Y-108546079D01*
X101830171Y-108526562D01*
X101830171Y-105526562D01*
X101834053Y-105507045D01*
X101845109Y-105490500D01*
X101861654Y-105479444D01*
X101881171Y-105475562D01*
X102881171Y-105475562D01*
X102900688Y-105479444D01*
G37*
G36*
X105440688Y-105479444D02*
G01*
X105457233Y-105490500D01*
X105468289Y-105507045D01*
X105472171Y-105526562D01*
X105472171Y-108526562D01*
X105468289Y-108546079D01*
X105457233Y-108562624D01*
X105440688Y-108573680D01*
X105421171Y-108577562D01*
X104421171Y-108577562D01*
X104401654Y-108573680D01*
X104385109Y-108562624D01*
X104374053Y-108546079D01*
X104370171Y-108526562D01*
X104370171Y-105526562D01*
X104374053Y-105507045D01*
X104385109Y-105490500D01*
X104401654Y-105479444D01*
X104421171Y-105475562D01*
X105421171Y-105475562D01*
X105440688Y-105479444D01*
G37*
G36*
X107980688Y-105479444D02*
G01*
X107997233Y-105490500D01*
X108008289Y-105507045D01*
X108012171Y-105526562D01*
X108012171Y-108526562D01*
X108008289Y-108546079D01*
X107997233Y-108562624D01*
X107980688Y-108573680D01*
X107961171Y-108577562D01*
X106961171Y-108577562D01*
X106941654Y-108573680D01*
X106925109Y-108562624D01*
X106914053Y-108546079D01*
X106910171Y-108526562D01*
X106910171Y-105526562D01*
X106914053Y-105507045D01*
X106925109Y-105490500D01*
X106941654Y-105479444D01*
X106961171Y-105475562D01*
X107961171Y-105475562D01*
X107980688Y-105479444D01*
G37*
G36*
X110520688Y-105479444D02*
G01*
X110537233Y-105490500D01*
X110548289Y-105507045D01*
X110552171Y-105526562D01*
X110552171Y-108526562D01*
X110548289Y-108546079D01*
X110537233Y-108562624D01*
X110520688Y-108573680D01*
X110501171Y-108577562D01*
X109501171Y-108577562D01*
X109481654Y-108573680D01*
X109465109Y-108562624D01*
X109454053Y-108546079D01*
X109450171Y-108526562D01*
X109450171Y-105526562D01*
X109454053Y-105507045D01*
X109465109Y-105490500D01*
X109481654Y-105479444D01*
X109501171Y-105475562D01*
X110501171Y-105475562D01*
X110520688Y-105479444D01*
G37*
G36*
X113060688Y-105479444D02*
G01*
X113077233Y-105490500D01*
X113088289Y-105507045D01*
X113092171Y-105526562D01*
X113092171Y-108526562D01*
X113088289Y-108546079D01*
X113077233Y-108562624D01*
X113060688Y-108573680D01*
X113041171Y-108577562D01*
X112041171Y-108577562D01*
X112021654Y-108573680D01*
X112005109Y-108562624D01*
X111994053Y-108546079D01*
X111990171Y-108526562D01*
X111990171Y-105526562D01*
X111994053Y-105507045D01*
X112005109Y-105490500D01*
X112021654Y-105479444D01*
X112041171Y-105475562D01*
X113041171Y-105475562D01*
X113060688Y-105479444D01*
G37*
G36*
X115600688Y-105479444D02*
G01*
X115617233Y-105490500D01*
X115628289Y-105507045D01*
X115632171Y-105526562D01*
X115632171Y-108526562D01*
X115628289Y-108546079D01*
X115617233Y-108562624D01*
X115600688Y-108573680D01*
X115581171Y-108577562D01*
X114581171Y-108577562D01*
X114561654Y-108573680D01*
X114545109Y-108562624D01*
X114534053Y-108546079D01*
X114530171Y-108526562D01*
X114530171Y-105526562D01*
X114534053Y-105507045D01*
X114545109Y-105490500D01*
X114561654Y-105479444D01*
X114581171Y-105475562D01*
X115581171Y-105475562D01*
X115600688Y-105479444D01*
G37*
G36*
X118140688Y-105479444D02*
G01*
X118157233Y-105490500D01*
X118168289Y-105507045D01*
X118172171Y-105526562D01*
X118172171Y-108526562D01*
X118168289Y-108546079D01*
X118157233Y-108562624D01*
X118140688Y-108573680D01*
X118121171Y-108577562D01*
X117121171Y-108577562D01*
X117101654Y-108573680D01*
X117085109Y-108562624D01*
X117074053Y-108546079D01*
X117070171Y-108526562D01*
X117070171Y-105526562D01*
X117074053Y-105507045D01*
X117085109Y-105490500D01*
X117101654Y-105479444D01*
X117121171Y-105475562D01*
X118121171Y-105475562D01*
X118140688Y-105479444D01*
G37*
G36*
X91223313Y-106128542D02*
G01*
X91396546Y-106163000D01*
X91559728Y-106230592D01*
X91706588Y-106328721D01*
X91831482Y-106453615D01*
X91929611Y-106600475D01*
X91997203Y-106763657D01*
X92031661Y-106936890D01*
X92031661Y-107113516D01*
X91997203Y-107286749D01*
X91929611Y-107449931D01*
X91831482Y-107596791D01*
X91706588Y-107721685D01*
X91559728Y-107819814D01*
X91396546Y-107887406D01*
X91223313Y-107921864D01*
X91135000Y-107926203D01*
X91131941Y-107926203D01*
X90888059Y-107926203D01*
X90885000Y-107926203D01*
X90796687Y-107921864D01*
X90623454Y-107887406D01*
X90460272Y-107819814D01*
X90313412Y-107721685D01*
X90188518Y-107596791D01*
X90090389Y-107449931D01*
X90022797Y-107286749D01*
X89988339Y-107113516D01*
X89988339Y-106936890D01*
X90022797Y-106763657D01*
X90090389Y-106600475D01*
X90188518Y-106453615D01*
X90313412Y-106328721D01*
X90460272Y-106230592D01*
X90623454Y-106163000D01*
X90796687Y-106128542D01*
X90885000Y-106124203D01*
X91135000Y-106124203D01*
X91223313Y-106128542D01*
G37*
G36*
X124903313Y-106063339D02*
G01*
X125076546Y-106097797D01*
X125239728Y-106165389D01*
X125386588Y-106263518D01*
X125511482Y-106388412D01*
X125609611Y-106535272D01*
X125677203Y-106698454D01*
X125711661Y-106871687D01*
X125711661Y-107048313D01*
X125677203Y-107221546D01*
X125609611Y-107384728D01*
X125511482Y-107531588D01*
X125386588Y-107656482D01*
X125239728Y-107754611D01*
X125076546Y-107822203D01*
X124903313Y-107856661D01*
X124815000Y-107861000D01*
X124811941Y-107861000D01*
X124568059Y-107861000D01*
X124565000Y-107861000D01*
X124476687Y-107856661D01*
X124303454Y-107822203D01*
X124140272Y-107754611D01*
X123993412Y-107656482D01*
X123868518Y-107531588D01*
X123770389Y-107384728D01*
X123702797Y-107221546D01*
X123668339Y-107048313D01*
X123668339Y-106871687D01*
X123702797Y-106698454D01*
X123770389Y-106535272D01*
X123868518Y-106388412D01*
X123993412Y-106263518D01*
X124140272Y-106165389D01*
X124303454Y-106097797D01*
X124476687Y-106063339D01*
X124565000Y-106059000D01*
X124815000Y-106059000D01*
X124903313Y-106063339D01*
G37*
G36*
X91223313Y-103628542D02*
G01*
X91396546Y-103663000D01*
X91559728Y-103730592D01*
X91706588Y-103828721D01*
X91831482Y-103953615D01*
X91929611Y-104100475D01*
X91997203Y-104263657D01*
X92031661Y-104436890D01*
X92031661Y-104613516D01*
X91997203Y-104786749D01*
X91929611Y-104949931D01*
X91831482Y-105096791D01*
X91706588Y-105221685D01*
X91559728Y-105319814D01*
X91396546Y-105387406D01*
X91223313Y-105421864D01*
X91135000Y-105426203D01*
X91131941Y-105426203D01*
X90888059Y-105426203D01*
X90885000Y-105426203D01*
X90796687Y-105421864D01*
X90623454Y-105387406D01*
X90460272Y-105319814D01*
X90313412Y-105221685D01*
X90188518Y-105096791D01*
X90090389Y-104949931D01*
X90022797Y-104786749D01*
X89988339Y-104613516D01*
X89988339Y-104436890D01*
X90022797Y-104263657D01*
X90090389Y-104100475D01*
X90188518Y-103953615D01*
X90313412Y-103828721D01*
X90460272Y-103730592D01*
X90623454Y-103663000D01*
X90796687Y-103628542D01*
X90885000Y-103624203D01*
X91135000Y-103624203D01*
X91223313Y-103628542D01*
G37*
G36*
X124903313Y-103563339D02*
G01*
X125076546Y-103597797D01*
X125239728Y-103665389D01*
X125386588Y-103763518D01*
X125511482Y-103888412D01*
X125609611Y-104035272D01*
X125677203Y-104198454D01*
X125711661Y-104371687D01*
X125711661Y-104548313D01*
X125677203Y-104721546D01*
X125609611Y-104884728D01*
X125511482Y-105031588D01*
X125386588Y-105156482D01*
X125239728Y-105254611D01*
X125076546Y-105322203D01*
X124903313Y-105356661D01*
X124815000Y-105361000D01*
X124811941Y-105361000D01*
X124568059Y-105361000D01*
X124565000Y-105361000D01*
X124476687Y-105356661D01*
X124303454Y-105322203D01*
X124140272Y-105254611D01*
X123993412Y-105156482D01*
X123868518Y-105031588D01*
X123770389Y-104884728D01*
X123702797Y-104721546D01*
X123668339Y-104548313D01*
X123668339Y-104371687D01*
X123702797Y-104198454D01*
X123770389Y-104035272D01*
X123868518Y-103888412D01*
X123993412Y-103763518D01*
X124140272Y-103665389D01*
X124303454Y-103597797D01*
X124476687Y-103563339D01*
X124565000Y-103559000D01*
X124815000Y-103559000D01*
X124903313Y-103563339D01*
G37*
%LPD*%
M02*
