%TF.GenerationSoftware,KiCad,Pcbnew,9.0.5*%
%TF.CreationDate,2025-11-21T15:13:49+01:00*%
%TF.ProjectId,7segment-driver-board,37736567-6d65-46e7-942d-647269766572,1.0*%
%TF.SameCoordinates,Original*%
%TF.FileFunction,Copper,L1,Top*%
%TF.FilePolarity,Positive*%
%FSLAX46Y46*%
G04 Gerber Fmt 4.6, Leading zero omitted, Abs format (unit mm)*
G04 Created by KiCad (PCBNEW 9.0.5) date 2025-11-21 15:13:49*
%MOMM*%
%LPD*%
G01*
G04 APERTURE LIST*
G04 Aperture macros list*
%AMRoundRect*
0 Rectangle with rounded corners*
0 $1 Rounding radius*
0 $2 $3 $4 $5 $6 $7 $8 $9 X,Y pos of 4 corners*
0 Add a 4 corners polygon primitive as box body*
4,1,4,$2,$3,$4,$5,$6,$7,$8,$9,$2,$3,0*
0 Add four circle primitives for the rounded corners*
1,1,$1+$1,$2,$3*
1,1,$1+$1,$4,$5*
1,1,$1+$1,$6,$7*
1,1,$1+$1,$8,$9*
0 Add four rect primitives between the rounded corners*
20,1,$1+$1,$2,$3,$4,$5,0*
20,1,$1+$1,$4,$5,$6,$7,0*
20,1,$1+$1,$6,$7,$8,$9,0*
20,1,$1+$1,$8,$9,$2,$3,0*%
G04 Aperture macros list end*
%TA.AperFunction,SMDPad,CuDef*%
%ADD10RoundRect,0.225000X0.225000X0.375000X-0.225000X0.375000X-0.225000X-0.375000X0.225000X-0.375000X0*%
%TD*%
%TA.AperFunction,SMDPad,CuDef*%
%ADD11RoundRect,0.225000X0.225000X0.250000X-0.225000X0.250000X-0.225000X-0.250000X0.225000X-0.250000X0*%
%TD*%
%TA.AperFunction,ComponentPad*%
%ADD12RoundRect,0.250000X0.725000X-0.600000X0.725000X0.600000X-0.725000X0.600000X-0.725000X-0.600000X0*%
%TD*%
%TA.AperFunction,ComponentPad*%
%ADD13O,1.950000X1.700000*%
%TD*%
%TA.AperFunction,SMDPad,CuDef*%
%ADD14RoundRect,0.200000X-0.200000X-0.275000X0.200000X-0.275000X0.200000X0.275000X-0.200000X0.275000X0*%
%TD*%
%TA.AperFunction,SMDPad,CuDef*%
%ADD15RoundRect,0.250000X0.945000X-0.420000X0.945000X0.420000X-0.945000X0.420000X-0.945000X-0.420000X0*%
%TD*%
%TA.AperFunction,SMDPad,CuDef*%
%ADD16RoundRect,0.150000X-0.150000X0.875000X-0.150000X-0.875000X0.150000X-0.875000X0.150000X0.875000X0*%
%TD*%
%TA.AperFunction,ComponentPad*%
%ADD17RoundRect,0.250000X0.750000X-0.600000X0.750000X0.600000X-0.750000X0.600000X-0.750000X-0.600000X0*%
%TD*%
%TA.AperFunction,ComponentPad*%
%ADD18O,2.000000X1.700000*%
%TD*%
%TA.AperFunction,ViaPad*%
%ADD19C,0.800000*%
%TD*%
%TA.AperFunction,Conductor*%
%ADD20C,0.381000*%
%TD*%
%TA.AperFunction,Conductor*%
%ADD21C,0.254000*%
%TD*%
%TA.AperFunction,Conductor*%
%ADD22C,0.250000*%
%TD*%
G04 APERTURE END LIST*
D10*
%TO.P,D1,1,K*%
%TO.N,VCC*%
X104702125Y-115093697D03*
%TO.P,D1,2,A*%
%TO.N,Net-(D1-A)*%
X101402125Y-115093697D03*
%TD*%
D11*
%TO.P,C2,1*%
%TO.N,VCC*%
X104473624Y-111050108D03*
%TO.P,C2,2*%
%TO.N,GND*%
X102923624Y-111050108D03*
%TD*%
D12*
%TO.P,P2,1,Pin_1*%
%TO.N,GND*%
X91010000Y-114525203D03*
D13*
%TO.P,P2,2,Pin_2*%
%TO.N,Net-(D1-A)*%
X91010000Y-112025203D03*
%TO.P,P2,3,Pin_3*%
%TO.N,/Din*%
X91010000Y-109525203D03*
%TO.P,P2,4,Pin_4*%
%TO.N,/Sel*%
X91010000Y-107025203D03*
%TO.P,P2,5,Pin_5*%
%TO.N,/Clk*%
X91010000Y-104525203D03*
%TD*%
D14*
%TO.P,R2,1*%
%TO.N,Net-(IC1-ISET)*%
X102873624Y-113020740D03*
%TO.P,R2,2*%
%TO.N,VCC*%
X104523624Y-113020740D03*
%TD*%
D15*
%TO.P,C1,1*%
%TO.N,VCC*%
X103713695Y-109324450D03*
%TO.P,C1,2*%
%TO.N,GND*%
X103713695Y-106244450D03*
%TD*%
D10*
%TO.P,D2,1,K*%
%TO.N,VCC*%
X104643284Y-103806774D03*
%TO.P,D2,2,A*%
%TO.N,Net-(D2-A)*%
X101343284Y-103806774D03*
%TD*%
D12*
%TO.P,P3,1,Pin_1*%
%TO.N,GND*%
X124690000Y-114460000D03*
D13*
%TO.P,P3,2,Pin_2*%
%TO.N,Net-(D1-A)*%
X124690000Y-111960000D03*
%TO.P,P3,3,Pin_3*%
%TO.N,/DOut*%
X124690000Y-109460000D03*
%TO.P,P3,4,Pin_4*%
%TO.N,/Sel*%
X124690000Y-106960000D03*
%TO.P,P3,5,Pin_5*%
%TO.N,/Clk*%
X124690000Y-104460000D03*
%TD*%
D16*
%TO.P,IC1,1,DIN*%
%TO.N,/Din*%
X120795000Y-104875203D03*
%TO.P,IC1,2,DIG_0*%
%TO.N,/DIG_0*%
X119525000Y-104875203D03*
%TO.P,IC1,3,DIG_4*%
%TO.N,/DIG_4*%
X118255000Y-104875203D03*
%TO.P,IC1,4,GND*%
%TO.N,GND*%
X116985000Y-104875203D03*
%TO.P,IC1,5,DIG_6*%
%TO.N,/DIG_6*%
X115715000Y-104875203D03*
%TO.P,IC1,6,DIG_2*%
%TO.N,/DIG_2*%
X114445000Y-104875203D03*
%TO.P,IC1,7,DIG_3*%
%TO.N,/DIG_3*%
X113175000Y-104875203D03*
%TO.P,IC1,8,DIG_7*%
%TO.N,/DIG_7*%
X111905000Y-104875203D03*
%TO.P,IC1,9,GND*%
%TO.N,GND*%
X110635000Y-104875203D03*
%TO.P,IC1,10,DIG_5*%
%TO.N,/DIG_5*%
X109365000Y-104875203D03*
%TO.P,IC1,11,DIG_1*%
%TO.N,/DIG_1*%
X108095000Y-104875203D03*
%TO.P,IC1,12,LOAD*%
%TO.N,/Sel*%
X106825000Y-104875203D03*
%TO.P,IC1,13,CLK*%
%TO.N,/Clk*%
X106825000Y-114175203D03*
%TO.P,IC1,14,SEG_A*%
%TO.N,/SEG_A*%
X108095000Y-114175203D03*
%TO.P,IC1,15,SEG_F*%
%TO.N,/SEG_F*%
X109365000Y-114175203D03*
%TO.P,IC1,16,SEG_B*%
%TO.N,/SEG_B*%
X110635000Y-114175203D03*
%TO.P,IC1,17,SEG_G*%
%TO.N,/SEG_G*%
X111905000Y-114175203D03*
%TO.P,IC1,18,ISET*%
%TO.N,Net-(IC1-ISET)*%
X113175000Y-114175203D03*
%TO.P,IC1,19,V+*%
%TO.N,VCC*%
X114445000Y-114175203D03*
%TO.P,IC1,20,SEG_C*%
%TO.N,/SEG_C*%
X115715000Y-114175203D03*
%TO.P,IC1,21,SEG_E*%
%TO.N,/SEG_E*%
X116985000Y-114175203D03*
%TO.P,IC1,22,SEG_DP*%
%TO.N,/SEG_DP*%
X118255000Y-114175203D03*
%TO.P,IC1,23,SEG_D*%
%TO.N,/SEG_D*%
X119525000Y-114175203D03*
%TO.P,IC1,24,DOUT*%
%TO.N,/DOut*%
X120795000Y-114175203D03*
%TD*%
D17*
%TO.P,P1,1,Pin_1*%
%TO.N,GND*%
X97658472Y-110761747D03*
D18*
%TO.P,P1,2,Pin_2*%
%TO.N,Net-(D2-A)*%
X97658472Y-108261747D03*
%TD*%
D19*
%TO.N,/SEG_B*%
X106247762Y-110350000D03*
%TO.N,/SEG_F*%
X113654500Y-112070000D03*
%TO.N,/DIG_1*%
X108095000Y-104875203D03*
%TO.N,GND*%
X120360000Y-108250000D03*
X121730000Y-112110000D03*
%TO.N,/Din*%
X95730000Y-107840000D03*
X120795000Y-104875203D03*
%TO.N,/Clk*%
X106825000Y-114175203D03*
%TO.N,/SEG_G*%
X111122933Y-112100000D03*
%TO.N,/DIG_2*%
X114445000Y-104875203D03*
%TO.N,/SEG_A*%
X107079696Y-109625000D03*
%TO.N,/DIG_4*%
X118255000Y-104875203D03*
%TO.N,/DIG_5*%
X109365000Y-104875203D03*
%TO.N,/DIG_7*%
X116350000Y-106480000D03*
%TO.N,/SEG_D*%
X119840000Y-112510000D03*
%TO.N,/DIG_3*%
X113175000Y-104875203D03*
%TO.N,/SEG_DP*%
X118800000Y-112040000D03*
%TO.N,/SEG_C*%
X106247762Y-112180000D03*
%TO.N,/DIG_6*%
X115715000Y-104875203D03*
%TO.N,/SEG_E*%
X116521169Y-112030000D03*
%TO.N,/DIG_0*%
X119525000Y-104875203D03*
%TO.N,Net-(D1-A)*%
X99350000Y-114900203D03*
X100250000Y-114900203D03*
X98480000Y-114910000D03*
%TD*%
D20*
%TO.N,VCC*%
X105258145Y-107780000D02*
X103713695Y-109324450D01*
X114446000Y-113434000D02*
X114446000Y-111742149D01*
X114446000Y-111742149D02*
X113733851Y-111030000D01*
X114445000Y-113435000D02*
X114446000Y-113434000D01*
X109068222Y-107780000D02*
X105258145Y-107780000D01*
X114445000Y-114175203D02*
X114445000Y-113435000D01*
X113733851Y-111030000D02*
X112318222Y-111030000D01*
X112318222Y-111030000D02*
X109068222Y-107780000D01*
D21*
%TO.N,Net-(IC1-ISET)*%
X108853452Y-108298500D02*
X113175000Y-112620048D01*
X106521500Y-108298500D02*
X108853452Y-108298500D01*
X105519762Y-109300238D02*
X106521500Y-108298500D01*
X113175000Y-112620048D02*
X113175000Y-114175203D01*
X105519762Y-115695066D02*
X105519762Y-109300238D01*
X105532259Y-115707563D02*
X105519762Y-115695066D01*
D20*
%TO.N,Net-(D1-A)*%
X101459446Y-115092082D02*
X101459446Y-115076961D01*
X101267567Y-114900203D02*
X101459446Y-115092082D01*
X100250000Y-114900203D02*
X101267567Y-114900203D01*
D22*
%TO.N,Net-(IC1-ISET)*%
X102870000Y-115490000D02*
X102870000Y-112950000D01*
X103430000Y-116050000D02*
X102870000Y-115490000D01*
X105186994Y-116050000D02*
X103430000Y-116050000D01*
X105529431Y-115707563D02*
X105186994Y-116050000D01*
X105532259Y-115707563D02*
X105529431Y-115707563D01*
D21*
%TO.N,/SEG_B*%
X110370000Y-113180000D02*
X110635000Y-113445000D01*
X110635000Y-113445000D02*
X110635000Y-114175203D01*
X107381244Y-108897000D02*
X110370000Y-111885756D01*
X110370000Y-111885756D02*
X110370000Y-113180000D01*
X106351696Y-109323452D02*
X106778148Y-108897000D01*
X106351696Y-110246066D02*
X106351696Y-109323452D01*
X106247762Y-110350000D02*
X106351696Y-110246066D01*
X106778148Y-108897000D02*
X107381244Y-108897000D01*
D20*
%TO.N,Net-(D1-A)*%
X99340203Y-114910000D02*
X98480000Y-114910000D01*
X99350000Y-114900203D02*
X99340203Y-114910000D01*
X99350000Y-114900203D02*
X100250000Y-114900203D01*
D22*
%TO.N,/SEG_A*%
X108044000Y-110589304D02*
X108044000Y-114124203D01*
X107079696Y-109625000D02*
X108044000Y-110589304D01*
X108044000Y-114124203D02*
X108095000Y-114175203D01*
D20*
%TO.N,VCC*%
X104643284Y-104653284D02*
X104643284Y-103806774D01*
X105630000Y-107408145D02*
X105630000Y-105640000D01*
X105630000Y-105640000D02*
X104643284Y-104653284D01*
X103713695Y-109324450D02*
X105630000Y-107408145D01*
D21*
%TO.N,/SEG_G*%
X111905000Y-112882067D02*
X111905000Y-114175203D01*
X111122933Y-112100000D02*
X111905000Y-112882067D01*
%TO.N,/Sel*%
X96644797Y-107025203D02*
X91010000Y-107025203D01*
X105853570Y-102878774D02*
X100791226Y-102878774D01*
X106825000Y-103850204D02*
X105853570Y-102878774D01*
X106825000Y-104875203D02*
X106825000Y-103850204D01*
X100791226Y-102878774D02*
X96644797Y-107025203D01*
X124400000Y-107250000D02*
X124690000Y-106960000D01*
X107430000Y-107250000D02*
X124400000Y-107250000D01*
X106825000Y-106645000D02*
X107430000Y-107250000D01*
X106825000Y-104875203D02*
X106825000Y-106645000D01*
D22*
%TO.N,/DIG_7*%
X112240000Y-106480000D02*
X111905000Y-106145000D01*
X116350000Y-106480000D02*
X112240000Y-106480000D01*
X111905000Y-106145000D02*
X111905000Y-104875203D01*
D20*
%TO.N,VCC*%
X103713695Y-109324450D02*
X104473624Y-110084379D01*
X104473624Y-110084379D02*
X104473624Y-111050108D01*
D22*
%TO.N,/SEG_D*%
X119525000Y-112825000D02*
X119840000Y-112510000D01*
X119525000Y-114175203D02*
X119525000Y-112825000D01*
%TO.N,/SEG_DP*%
X118800000Y-112040000D02*
X118255000Y-112585000D01*
X118255000Y-112585000D02*
X118255000Y-114175203D01*
%TO.N,/SEG_E*%
X116985000Y-112493831D02*
X116985000Y-114175203D01*
X116521169Y-112030000D02*
X116985000Y-112493831D01*
%TO.N,/SEG_F*%
X109365000Y-115205000D02*
X109365000Y-114175203D01*
X113405525Y-115647000D02*
X109807000Y-115647000D01*
X113801000Y-115251525D02*
X113405525Y-115647000D01*
X113801000Y-112411000D02*
X113801000Y-115251525D01*
X109807000Y-115647000D02*
X109365000Y-115205000D01*
X113654500Y-112070000D02*
X113654500Y-112264500D01*
X113654500Y-112264500D02*
X113801000Y-112411000D01*
D21*
%TO.N,/SEG_C*%
X115715000Y-115200202D02*
X115715000Y-114175203D01*
X114815202Y-116100000D02*
X115715000Y-115200202D01*
X106097000Y-115152353D02*
X107044647Y-116100000D01*
X106097000Y-112330762D02*
X106097000Y-115152353D01*
X107044647Y-116100000D02*
X114815202Y-116100000D01*
X106247762Y-112180000D02*
X106097000Y-112330762D01*
D20*
%TO.N,Net-(D2-A)*%
X97658472Y-107491586D02*
X97658472Y-108261747D01*
X101343284Y-103806774D02*
X97658472Y-107491586D01*
X97658472Y-107827406D02*
X97750000Y-107735878D01*
X97658472Y-108261747D02*
X97658472Y-107827406D01*
%TO.N,GND*%
X124652000Y-114498000D02*
X124690000Y-114460000D01*
%TO.N,VCC*%
X104754259Y-115097269D02*
X104759446Y-115092082D01*
X104520000Y-114863010D02*
X104754259Y-115097269D01*
X104759446Y-115092082D02*
X104759446Y-115076961D01*
X104772731Y-115097269D02*
X104754259Y-115097269D01*
X104474771Y-111285403D02*
X104474771Y-112904771D01*
X104520000Y-112950000D02*
X104520000Y-114863010D01*
X104474771Y-112904771D02*
X104520000Y-112950000D01*
D22*
%TO.N,/Din*%
X95720000Y-109210000D02*
X95390000Y-109540000D01*
X95390000Y-109540000D02*
X91010000Y-109540000D01*
X95730000Y-107840000D02*
X95720000Y-107850000D01*
X95720000Y-107850000D02*
X95720000Y-109210000D01*
D21*
X91491127Y-109527027D02*
X91502371Y-109538271D01*
X91510000Y-109540000D02*
X91510000Y-110037358D01*
D22*
%TO.N,/Clk*%
X124321373Y-104875905D02*
X124652000Y-104545278D01*
%TO.N,/SEG_A*%
X108040000Y-114230203D02*
X108095000Y-114175203D01*
D21*
%TO.N,/SEG_D*%
X119410487Y-113334208D02*
X119424496Y-113348217D01*
D22*
%TO.N,/Sel*%
X91491127Y-107451127D02*
X91491127Y-107027027D01*
%TO.N,/DOut*%
X120795000Y-114175203D02*
X120795000Y-110895000D01*
X120795000Y-110895000D02*
X122230000Y-109460000D01*
X122230000Y-109460000D02*
X124690000Y-109460000D01*
%TD*%
%TA.AperFunction,Conductor*%
%TO.N,GND*%
G36*
X123550682Y-107886144D02*
G01*
X123580669Y-107892668D01*
X123585684Y-107896422D01*
X123588281Y-107897185D01*
X123608923Y-107913819D01*
X123685209Y-107990105D01*
X123685214Y-107990109D01*
X123849793Y-108109682D01*
X123892459Y-108165011D01*
X123898438Y-108234625D01*
X123865833Y-108296420D01*
X123849793Y-108310318D01*
X123685214Y-108429890D01*
X123685209Y-108429894D01*
X123534890Y-108580213D01*
X123409950Y-108752180D01*
X123402503Y-108766797D01*
X123354527Y-108817592D01*
X123292019Y-108834500D01*
X122291606Y-108834500D01*
X122168393Y-108834500D01*
X122067427Y-108854583D01*
X122067426Y-108854582D01*
X122047552Y-108858536D01*
X122047549Y-108858536D01*
X122047548Y-108858537D01*
X122047546Y-108858537D01*
X122047545Y-108858538D01*
X121933716Y-108905687D01*
X121836058Y-108970941D01*
X121836056Y-108970942D01*
X121831266Y-108974142D01*
X121831263Y-108974144D01*
X120752646Y-110052763D01*
X120396269Y-110409140D01*
X120396267Y-110409142D01*
X120352704Y-110452704D01*
X120309142Y-110496266D01*
X120280765Y-110538736D01*
X120277717Y-110543298D01*
X120240688Y-110598714D01*
X120220592Y-110647232D01*
X120218035Y-110653404D01*
X120218030Y-110653414D01*
X120193538Y-110712545D01*
X120193535Y-110712555D01*
X120169500Y-110833389D01*
X120169500Y-111506305D01*
X120149815Y-111573344D01*
X120097011Y-111619099D01*
X120027853Y-111629043D01*
X120021309Y-111627922D01*
X119928695Y-111609500D01*
X119928691Y-111609500D01*
X119751309Y-111609500D01*
X119719297Y-111615867D01*
X119694926Y-111620715D01*
X119625335Y-111614486D01*
X119570158Y-111571623D01*
X119567634Y-111567988D01*
X119549328Y-111540592D01*
X119499464Y-111465965D01*
X119499461Y-111465961D01*
X119374038Y-111340538D01*
X119374034Y-111340535D01*
X119226553Y-111241990D01*
X119226540Y-111241983D01*
X119062667Y-111174106D01*
X119062658Y-111174103D01*
X118888694Y-111139500D01*
X118888691Y-111139500D01*
X118711309Y-111139500D01*
X118711306Y-111139500D01*
X118537341Y-111174103D01*
X118537332Y-111174106D01*
X118373459Y-111241983D01*
X118373446Y-111241990D01*
X118225965Y-111340535D01*
X118225961Y-111340538D01*
X118100538Y-111465961D01*
X118100535Y-111465965D01*
X118001990Y-111613446D01*
X118001983Y-111613459D01*
X117934106Y-111777332D01*
X117934103Y-111777341D01*
X117899500Y-111951304D01*
X117899500Y-112004547D01*
X117890855Y-112033987D01*
X117884332Y-112063974D01*
X117880577Y-112068989D01*
X117879815Y-112071586D01*
X117863181Y-112092228D01*
X117856269Y-112099140D01*
X117856267Y-112099142D01*
X117827207Y-112128202D01*
X117769143Y-112186265D01*
X117753042Y-112210362D01*
X117727463Y-112231737D01*
X117702471Y-112253793D01*
X117700758Y-112254055D01*
X117699429Y-112255166D01*
X117666346Y-112259320D01*
X117633405Y-112264361D01*
X117631823Y-112263655D01*
X117630103Y-112263872D01*
X117600031Y-112249483D01*
X117569589Y-112235913D01*
X117568283Y-112234293D01*
X117567077Y-112233716D01*
X117546236Y-112209449D01*
X117540821Y-112201188D01*
X117539312Y-112197545D01*
X117493304Y-112128691D01*
X117470858Y-112095098D01*
X117470855Y-112095094D01*
X117457988Y-112082227D01*
X117424503Y-112020904D01*
X117421669Y-111994546D01*
X117421669Y-111941306D01*
X117421668Y-111941304D01*
X117387065Y-111767341D01*
X117387062Y-111767332D01*
X117319185Y-111603459D01*
X117319178Y-111603446D01*
X117220633Y-111455965D01*
X117220630Y-111455961D01*
X117095207Y-111330538D01*
X117095203Y-111330535D01*
X116947722Y-111231990D01*
X116947709Y-111231983D01*
X116783836Y-111164106D01*
X116783827Y-111164103D01*
X116609863Y-111129500D01*
X116609860Y-111129500D01*
X116432478Y-111129500D01*
X116432475Y-111129500D01*
X116258510Y-111164103D01*
X116258501Y-111164106D01*
X116094628Y-111231983D01*
X116094615Y-111231990D01*
X115947134Y-111330535D01*
X115947130Y-111330538D01*
X115821707Y-111455961D01*
X115821704Y-111455965D01*
X115723159Y-111603446D01*
X115723152Y-111603459D01*
X115655275Y-111767332D01*
X115655272Y-111767341D01*
X115620669Y-111941304D01*
X115620669Y-112118695D01*
X115655272Y-112292658D01*
X115655275Y-112292667D01*
X115723152Y-112456540D01*
X115723161Y-112456556D01*
X115723336Y-112456818D01*
X115723385Y-112456976D01*
X115726029Y-112461922D01*
X115725090Y-112462423D01*
X115744210Y-112523496D01*
X115725722Y-112590875D01*
X115673741Y-112637563D01*
X115620230Y-112649703D01*
X115499298Y-112649703D01*
X115462432Y-112652604D01*
X115462426Y-112652605D01*
X115297110Y-112700635D01*
X115296271Y-112697747D01*
X115240862Y-112704568D01*
X115177909Y-112674257D01*
X115141337Y-112614724D01*
X115137000Y-112582214D01*
X115137000Y-111674088D01*
X115110446Y-111540597D01*
X115110445Y-111540596D01*
X115110445Y-111540592D01*
X115058356Y-111414838D01*
X115047336Y-111398345D01*
X115036405Y-111381986D01*
X114982735Y-111301663D01*
X114982732Y-111301659D01*
X114174343Y-110493269D01*
X114174336Y-110493263D01*
X114061163Y-110417644D01*
X114061160Y-110417642D01*
X113935412Y-110365556D01*
X113935402Y-110365553D01*
X113801911Y-110339000D01*
X113801909Y-110339000D01*
X112655806Y-110339000D01*
X112588767Y-110319315D01*
X112568125Y-110302681D01*
X110354625Y-108089181D01*
X110321140Y-108027858D01*
X110326124Y-107958166D01*
X110367996Y-107902233D01*
X110433460Y-107877816D01*
X110442306Y-107877500D01*
X123521242Y-107877500D01*
X123550682Y-107886144D01*
G37*
%TD.AperFunction*%
%TA.AperFunction,Conductor*%
G36*
X128276303Y-101555388D02*
G01*
X128322058Y-101608192D01*
X128333264Y-101659703D01*
X128333264Y-117390703D01*
X128313579Y-117457742D01*
X128260775Y-117503497D01*
X128209264Y-117514703D01*
X88597976Y-117514703D01*
X88530937Y-117495018D01*
X88485182Y-117442214D01*
X88473976Y-117390913D01*
X88452320Y-104418916D01*
X89534500Y-104418916D01*
X89534500Y-104631490D01*
X89535027Y-104634818D01*
X89550517Y-104732620D01*
X89567754Y-104841446D01*
X89628621Y-105028776D01*
X89633444Y-105043617D01*
X89729951Y-105233023D01*
X89854890Y-105404989D01*
X90005209Y-105555308D01*
X90005214Y-105555312D01*
X90169793Y-105674885D01*
X90212459Y-105730214D01*
X90218438Y-105799828D01*
X90185833Y-105861623D01*
X90169793Y-105875521D01*
X90005214Y-105995093D01*
X90005209Y-105995097D01*
X89854890Y-106145416D01*
X89729951Y-106317382D01*
X89633444Y-106506788D01*
X89567753Y-106708963D01*
X89534500Y-106918916D01*
X89534500Y-107131489D01*
X89552203Y-107243265D01*
X89567754Y-107341446D01*
X89615027Y-107486938D01*
X89633444Y-107543617D01*
X89729951Y-107733023D01*
X89854890Y-107904989D01*
X90005209Y-108055308D01*
X90005214Y-108055312D01*
X90169793Y-108174885D01*
X90212459Y-108230214D01*
X90218438Y-108299828D01*
X90185833Y-108361623D01*
X90169793Y-108375521D01*
X90005214Y-108495093D01*
X90005209Y-108495097D01*
X89854890Y-108645416D01*
X89729951Y-108817382D01*
X89633444Y-109006788D01*
X89567753Y-109208963D01*
X89534500Y-109418916D01*
X89534500Y-109631489D01*
X89566807Y-109835471D01*
X89567754Y-109841446D01*
X89627673Y-110025858D01*
X89633444Y-110043617D01*
X89729951Y-110233023D01*
X89854890Y-110404989D01*
X90005209Y-110555308D01*
X90005214Y-110555312D01*
X90169793Y-110674885D01*
X90212459Y-110730214D01*
X90218438Y-110799828D01*
X90185833Y-110861623D01*
X90169793Y-110875521D01*
X90005214Y-110995093D01*
X90005209Y-110995097D01*
X89854890Y-111145416D01*
X89729951Y-111317382D01*
X89633444Y-111506788D01*
X89567753Y-111708963D01*
X89556923Y-111777341D01*
X89534500Y-111918916D01*
X89534500Y-112131490D01*
X89536747Y-112145675D01*
X89562860Y-112310551D01*
X89567754Y-112341446D01*
X89623010Y-112511507D01*
X89633444Y-112543617D01*
X89729951Y-112733023D01*
X89854890Y-112904989D01*
X89994068Y-113044167D01*
X90027553Y-113105490D01*
X90022569Y-113175182D01*
X89980697Y-113231115D01*
X89971484Y-113237386D01*
X89816659Y-113332883D01*
X89816655Y-113332886D01*
X89692684Y-113456857D01*
X89600643Y-113606078D01*
X89600641Y-113606083D01*
X89545494Y-113772505D01*
X89545493Y-113772512D01*
X89535000Y-113875216D01*
X89535000Y-114275203D01*
X90605854Y-114275203D01*
X90567370Y-114341860D01*
X90535000Y-114462668D01*
X90535000Y-114587738D01*
X90567370Y-114708546D01*
X90605854Y-114775203D01*
X89535001Y-114775203D01*
X89535001Y-115175189D01*
X89545494Y-115277900D01*
X89600641Y-115444322D01*
X89600643Y-115444327D01*
X89692684Y-115593548D01*
X89816654Y-115717518D01*
X89965875Y-115809559D01*
X89965880Y-115809561D01*
X90132302Y-115864708D01*
X90132309Y-115864709D01*
X90235019Y-115875202D01*
X90759999Y-115875202D01*
X90760000Y-115875201D01*
X90760000Y-114929348D01*
X90826657Y-114967833D01*
X90947465Y-115000203D01*
X91072535Y-115000203D01*
X91193343Y-114967833D01*
X91260000Y-114929348D01*
X91260000Y-115875202D01*
X91784972Y-115875202D01*
X91784986Y-115875201D01*
X91887697Y-115864708D01*
X92054119Y-115809561D01*
X92054124Y-115809559D01*
X92203345Y-115717518D01*
X92327315Y-115593548D01*
X92419356Y-115444327D01*
X92419358Y-115444322D01*
X92474505Y-115277900D01*
X92474506Y-115277893D01*
X92484999Y-115175189D01*
X92485000Y-115175176D01*
X92485000Y-114775203D01*
X91414146Y-114775203D01*
X91452630Y-114708546D01*
X91485000Y-114587738D01*
X91485000Y-114462668D01*
X91452630Y-114341860D01*
X91414146Y-114275203D01*
X92484999Y-114275203D01*
X92484999Y-113875231D01*
X92484998Y-113875216D01*
X92474505Y-113772505D01*
X92419358Y-113606083D01*
X92419356Y-113606078D01*
X92327315Y-113456857D01*
X92203345Y-113332887D01*
X92048515Y-113237387D01*
X92001791Y-113185439D01*
X91990568Y-113116476D01*
X92018412Y-113052394D01*
X92025909Y-113044189D01*
X92165104Y-112904995D01*
X92212477Y-112839792D01*
X92290048Y-112733023D01*
X92290047Y-112733023D01*
X92290051Y-112733019D01*
X92386557Y-112543615D01*
X92452246Y-112341446D01*
X92485500Y-112131490D01*
X92485500Y-111918916D01*
X92452246Y-111708960D01*
X92386557Y-111506791D01*
X92290051Y-111317387D01*
X92290049Y-111317384D01*
X92290048Y-111317382D01*
X92165109Y-111145416D01*
X92014792Y-110995099D01*
X91959242Y-110954740D01*
X91850204Y-110875519D01*
X91807540Y-110820192D01*
X91801561Y-110750579D01*
X91834166Y-110688783D01*
X91850199Y-110674889D01*
X92014792Y-110555307D01*
X92165104Y-110404995D01*
X92165106Y-110404991D01*
X92165109Y-110404989D01*
X92227354Y-110319315D01*
X92290051Y-110233019D01*
X92290054Y-110233013D01*
X92292596Y-110228867D01*
X92293519Y-110229432D01*
X92337929Y-110182410D01*
X92400441Y-110165500D01*
X95451608Y-110165500D01*
X95451608Y-110165499D01*
X95551291Y-110145672D01*
X95572452Y-110141463D01*
X95605792Y-110127652D01*
X95686286Y-110094312D01*
X95748459Y-110052768D01*
X95788733Y-110025858D01*
X95875858Y-109938733D01*
X95875859Y-109938730D01*
X95979119Y-109835470D01*
X96040442Y-109801987D01*
X96110133Y-109806971D01*
X96166067Y-109848843D01*
X96190483Y-109914308D01*
X96184505Y-109962156D01*
X96168967Y-110009045D01*
X96168965Y-110009056D01*
X96158472Y-110111760D01*
X96158472Y-110511747D01*
X97225460Y-110511747D01*
X97192547Y-110568754D01*
X97158472Y-110695921D01*
X97158472Y-110827573D01*
X97192547Y-110954740D01*
X97225460Y-111011747D01*
X96158473Y-111011747D01*
X96158473Y-111411733D01*
X96168966Y-111514444D01*
X96224113Y-111680866D01*
X96224115Y-111680871D01*
X96316156Y-111830092D01*
X96440126Y-111954062D01*
X96589347Y-112046103D01*
X96589352Y-112046105D01*
X96755774Y-112101252D01*
X96755781Y-112101253D01*
X96858491Y-112111746D01*
X97408471Y-112111746D01*
X97408472Y-112111745D01*
X97408472Y-111194759D01*
X97465479Y-111227672D01*
X97592646Y-111261747D01*
X97724298Y-111261747D01*
X97851465Y-111227672D01*
X97908472Y-111194759D01*
X97908472Y-112111746D01*
X98458444Y-112111746D01*
X98458458Y-112111745D01*
X98561169Y-112101252D01*
X98727591Y-112046105D01*
X98727596Y-112046103D01*
X98876817Y-111954062D01*
X99000787Y-111830092D01*
X99092828Y-111680871D01*
X99092830Y-111680866D01*
X99147977Y-111514444D01*
X99147978Y-111514437D01*
X99158471Y-111411733D01*
X99158472Y-111411720D01*
X99158472Y-111011747D01*
X98091484Y-111011747D01*
X98124397Y-110954740D01*
X98158472Y-110827573D01*
X98158472Y-110695921D01*
X98124397Y-110568754D01*
X98091484Y-110511747D01*
X99158471Y-110511747D01*
X99158471Y-110111775D01*
X99158470Y-110111760D01*
X99147977Y-110009049D01*
X99092830Y-109842627D01*
X99092828Y-109842622D01*
X99000787Y-109693401D01*
X98876817Y-109569431D01*
X98721987Y-109473931D01*
X98675263Y-109421983D01*
X98664040Y-109353020D01*
X98691884Y-109288938D01*
X98699381Y-109280733D01*
X98838576Y-109141539D01*
X98963523Y-108969563D01*
X99060029Y-108780159D01*
X99125718Y-108577990D01*
X99158972Y-108368034D01*
X99158972Y-108155460D01*
X99125718Y-107945504D01*
X99060029Y-107743335D01*
X98963523Y-107553931D01*
X98861584Y-107413623D01*
X98838104Y-107347817D01*
X98853929Y-107279763D01*
X98874217Y-107253061D01*
X99412842Y-106714436D01*
X102018696Y-106714436D01*
X102029189Y-106817147D01*
X102084336Y-106983569D01*
X102084338Y-106983574D01*
X102176379Y-107132795D01*
X102300349Y-107256765D01*
X102449570Y-107348806D01*
X102449575Y-107348808D01*
X102615997Y-107403955D01*
X102616004Y-107403956D01*
X102718714Y-107414449D01*
X103463694Y-107414449D01*
X103463695Y-107414448D01*
X103463695Y-106494450D01*
X102018696Y-106494450D01*
X102018696Y-106714436D01*
X99412842Y-106714436D01*
X100352816Y-105774463D01*
X102018695Y-105774463D01*
X102018695Y-105994450D01*
X103463695Y-105994450D01*
X103463695Y-105074450D01*
X102718723Y-105074450D01*
X102718707Y-105074451D01*
X102615997Y-105084944D01*
X102449575Y-105140091D01*
X102449570Y-105140093D01*
X102300349Y-105232134D01*
X102176379Y-105356104D01*
X102084338Y-105505325D01*
X102084336Y-105505330D01*
X102029189Y-105671752D01*
X102029188Y-105671759D01*
X102018695Y-105774463D01*
X100352816Y-105774463D01*
X101183687Y-104943592D01*
X101245010Y-104910107D01*
X101271368Y-104907273D01*
X101616622Y-104907273D01*
X101616628Y-104907273D01*
X101616636Y-104907272D01*
X101616639Y-104907272D01*
X101671044Y-104901714D01*
X101715992Y-104897123D01*
X101876981Y-104843777D01*
X102021328Y-104754742D01*
X102141252Y-104634818D01*
X102230287Y-104490471D01*
X102283633Y-104329482D01*
X102293784Y-104230119D01*
X102293783Y-103630273D01*
X102313467Y-103563235D01*
X102366271Y-103517480D01*
X102417783Y-103506274D01*
X103568784Y-103506274D01*
X103635823Y-103525959D01*
X103681578Y-103578763D01*
X103692784Y-103630274D01*
X103692784Y-104230111D01*
X103692785Y-104230129D01*
X103702934Y-104329481D01*
X103702935Y-104329484D01*
X103756280Y-104490468D01*
X103756285Y-104490479D01*
X103845313Y-104634814D01*
X103845316Y-104634818D01*
X103930762Y-104720264D01*
X103938174Y-104732620D01*
X103946749Y-104739908D01*
X103955783Y-104761976D01*
X103961718Y-104771870D01*
X103963500Y-104777733D01*
X103978839Y-104854841D01*
X104009334Y-104928463D01*
X104011094Y-104934250D01*
X104011373Y-104963382D01*
X104014487Y-104992342D01*
X104011704Y-104997900D01*
X104011764Y-105004117D01*
X103996248Y-105028776D01*
X103983211Y-105054821D01*
X103980139Y-105058005D01*
X103963695Y-105074449D01*
X103963695Y-107414449D01*
X104347111Y-107414449D01*
X104414150Y-107434134D01*
X104459905Y-107486938D01*
X104469849Y-107556096D01*
X104440824Y-107619652D01*
X104434792Y-107626130D01*
X104171243Y-107889680D01*
X103943291Y-108117631D01*
X103881968Y-108151116D01*
X103855610Y-108153950D01*
X102718693Y-108153950D01*
X102718676Y-108153951D01*
X102615898Y-108164450D01*
X102615895Y-108164451D01*
X102449363Y-108219635D01*
X102449358Y-108219637D01*
X102300037Y-108311739D01*
X102175984Y-108435792D01*
X102083882Y-108585113D01*
X102083880Y-108585118D01*
X102056044Y-108669120D01*
X102028696Y-108751653D01*
X102028696Y-108751654D01*
X102028695Y-108751654D01*
X102018195Y-108854433D01*
X102018195Y-109794451D01*
X102018196Y-109794469D01*
X102028695Y-109897246D01*
X102028696Y-109897249D01*
X102083880Y-110063781D01*
X102083884Y-110063790D01*
X102156686Y-110181821D01*
X102175126Y-110249213D01*
X102154203Y-110315877D01*
X102138831Y-110334596D01*
X102126048Y-110347379D01*
X102037081Y-110491615D01*
X102037076Y-110491626D01*
X101983768Y-110652501D01*
X101973624Y-110751785D01*
X101973624Y-110800108D01*
X102799624Y-110800108D01*
X102866663Y-110819793D01*
X102912418Y-110872597D01*
X102923624Y-110924108D01*
X102923624Y-111176108D01*
X102903939Y-111243147D01*
X102851135Y-111288902D01*
X102799624Y-111300108D01*
X101973625Y-111300108D01*
X101973625Y-111348430D01*
X101983768Y-111447715D01*
X102037076Y-111608589D01*
X102037081Y-111608600D01*
X102126048Y-111752836D01*
X102126051Y-111752840D01*
X102245891Y-111872680D01*
X102245895Y-111872683D01*
X102329406Y-111924194D01*
X102376131Y-111976142D01*
X102387352Y-112045104D01*
X102359509Y-112109186D01*
X102328459Y-112135848D01*
X102294700Y-112156256D01*
X102238435Y-112190270D01*
X102118154Y-112310551D01*
X102030146Y-112456133D01*
X101979537Y-112618547D01*
X101973124Y-112689126D01*
X101973124Y-113352353D01*
X101979537Y-113422932D01*
X101979537Y-113422934D01*
X101979538Y-113422936D01*
X102030146Y-113585346D01*
X102118152Y-113730925D01*
X102208182Y-113820955D01*
X102222888Y-113847886D01*
X102239477Y-113873700D01*
X102240368Y-113879899D01*
X102241666Y-113882276D01*
X102244500Y-113908635D01*
X102244500Y-114024914D01*
X102224815Y-114091953D01*
X102172011Y-114137708D01*
X102102853Y-114147652D01*
X102055403Y-114130453D01*
X101935824Y-114056695D01*
X101935819Y-114056693D01*
X101774834Y-114003348D01*
X101675471Y-113993197D01*
X101128787Y-113993197D01*
X101128769Y-113993198D01*
X101029417Y-114003347D01*
X101029414Y-114003348D01*
X100868430Y-114056693D01*
X100868421Y-114056697D01*
X100800504Y-114098589D01*
X100733111Y-114117029D01*
X100682456Y-114103840D01*
X100682175Y-114104521D01*
X100677274Y-114102491D01*
X100676955Y-114102408D01*
X100676546Y-114102189D01*
X100512667Y-114034309D01*
X100512658Y-114034306D01*
X100338694Y-113999703D01*
X100338691Y-113999703D01*
X100161309Y-113999703D01*
X100161306Y-113999703D01*
X99987341Y-114034306D01*
X99987332Y-114034309D01*
X99847452Y-114092249D01*
X99777983Y-114099718D01*
X99752548Y-114092249D01*
X99612667Y-114034309D01*
X99612658Y-114034306D01*
X99438694Y-113999703D01*
X99438691Y-113999703D01*
X99261309Y-113999703D01*
X99261306Y-113999703D01*
X99087341Y-114034306D01*
X99087337Y-114034308D01*
X99087335Y-114034308D01*
X99087334Y-114034309D01*
X99063689Y-114044103D01*
X98950624Y-114090935D01*
X98881155Y-114098403D01*
X98855721Y-114090934D01*
X98742667Y-114044106D01*
X98742658Y-114044103D01*
X98568694Y-114009500D01*
X98568691Y-114009500D01*
X98391309Y-114009500D01*
X98391306Y-114009500D01*
X98217341Y-114044103D01*
X98217332Y-114044106D01*
X98053459Y-114111983D01*
X98053446Y-114111990D01*
X97905965Y-114210535D01*
X97905961Y-114210538D01*
X97780538Y-114335961D01*
X97780535Y-114335965D01*
X97681990Y-114483446D01*
X97681983Y-114483459D01*
X97614106Y-114647332D01*
X97614103Y-114647341D01*
X97579500Y-114821304D01*
X97579500Y-114998695D01*
X97614103Y-115172658D01*
X97614106Y-115172667D01*
X97681983Y-115336540D01*
X97681990Y-115336553D01*
X97780535Y-115484034D01*
X97780538Y-115484038D01*
X97905961Y-115609461D01*
X97905965Y-115609464D01*
X98053446Y-115708009D01*
X98053459Y-115708016D01*
X98146877Y-115746710D01*
X98217334Y-115775894D01*
X98217336Y-115775894D01*
X98217341Y-115775896D01*
X98391304Y-115810499D01*
X98391307Y-115810500D01*
X98391309Y-115810500D01*
X98568693Y-115810500D01*
X98568694Y-115810499D01*
X98672098Y-115789931D01*
X98742658Y-115775896D01*
X98742661Y-115775894D01*
X98742666Y-115775894D01*
X98879374Y-115719267D01*
X98948843Y-115711799D01*
X98974276Y-115719267D01*
X99087334Y-115766097D01*
X99087336Y-115766097D01*
X99087341Y-115766099D01*
X99261304Y-115800702D01*
X99261307Y-115800703D01*
X99261309Y-115800703D01*
X99438693Y-115800703D01*
X99438694Y-115800702D01*
X99511170Y-115786286D01*
X99612658Y-115766099D01*
X99612661Y-115766097D01*
X99612666Y-115766097D01*
X99696125Y-115731527D01*
X99752548Y-115708157D01*
X99822017Y-115700688D01*
X99847452Y-115708157D01*
X99934846Y-115744356D01*
X99987334Y-115766097D01*
X99987336Y-115766097D01*
X99987341Y-115766099D01*
X100161304Y-115800702D01*
X100161307Y-115800703D01*
X100161309Y-115800703D01*
X100338692Y-115800703D01*
X100354276Y-115797602D01*
X100424148Y-115783704D01*
X100493737Y-115789931D01*
X100548915Y-115832793D01*
X100553876Y-115840224D01*
X100604154Y-115921737D01*
X100604157Y-115921741D01*
X100724080Y-116041664D01*
X100724084Y-116041667D01*
X100868419Y-116130695D01*
X100868422Y-116130696D01*
X100868428Y-116130700D01*
X101029417Y-116184046D01*
X101128780Y-116194197D01*
X101675469Y-116194196D01*
X101675477Y-116194195D01*
X101675480Y-116194195D01*
X101729885Y-116188637D01*
X101774833Y-116184046D01*
X101935822Y-116130700D01*
X102080169Y-116041665D01*
X102200093Y-115921741D01*
X102200567Y-115920971D01*
X102201031Y-115920554D01*
X102204574Y-115916074D01*
X102205339Y-115916679D01*
X102217858Y-115905417D01*
X102231797Y-115886797D01*
X102243347Y-115882488D01*
X102252512Y-115874245D01*
X102275466Y-115870508D01*
X102297261Y-115862379D01*
X102309307Y-115864999D01*
X102321474Y-115863019D01*
X102342806Y-115872286D01*
X102365535Y-115877230D01*
X102381226Y-115888976D01*
X102385558Y-115890858D01*
X102393784Y-115898376D01*
X102393790Y-115898381D01*
X102471267Y-115975858D01*
X102471269Y-115975859D01*
X102478338Y-115982928D01*
X103031263Y-116535855D01*
X103031267Y-116535858D01*
X103133710Y-116604309D01*
X103133711Y-116604309D01*
X103133715Y-116604312D01*
X103200397Y-116631932D01*
X103247548Y-116651463D01*
X103267597Y-116655451D01*
X103332624Y-116668385D01*
X103368392Y-116675501D01*
X103368394Y-116675501D01*
X103497721Y-116675501D01*
X103497741Y-116675500D01*
X105248601Y-116675500D01*
X105309023Y-116663481D01*
X105369446Y-116651463D01*
X105402786Y-116637652D01*
X105483280Y-116604312D01*
X105534503Y-116570084D01*
X105585727Y-116535858D01*
X105672852Y-116448733D01*
X105672853Y-116448731D01*
X105679919Y-116441665D01*
X105679922Y-116441661D01*
X105906615Y-116214967D01*
X105909226Y-116212433D01*
X105916759Y-116205334D01*
X105932267Y-116194974D01*
X106005848Y-116121392D01*
X106007199Y-116120120D01*
X106036770Y-116105096D01*
X106065877Y-116089203D01*
X106067785Y-116089339D01*
X106069491Y-116088473D01*
X106102480Y-116091820D01*
X106135569Y-116094187D01*
X106137400Y-116095364D01*
X106139004Y-116095527D01*
X106144660Y-116100029D01*
X106179916Y-116122688D01*
X106557236Y-116500008D01*
X106627312Y-116570084D01*
X106644640Y-116587412D01*
X106747407Y-116656079D01*
X106747420Y-116656086D01*
X106861607Y-116703383D01*
X106861612Y-116703385D01*
X106861616Y-116703385D01*
X106861617Y-116703386D01*
X106982841Y-116727500D01*
X106982844Y-116727500D01*
X114877006Y-116727500D01*
X114877007Y-116727499D01*
X114998237Y-116703386D01*
X115078986Y-116669937D01*
X115112435Y-116656083D01*
X115215210Y-116587411D01*
X115302613Y-116500008D01*
X116176182Y-115626437D01*
X116198339Y-115608846D01*
X116199524Y-115608108D01*
X116266865Y-115568284D01*
X116272389Y-115562759D01*
X116284480Y-115555235D01*
X116304940Y-115549547D01*
X116323579Y-115539358D01*
X116337934Y-115540377D01*
X116351798Y-115536524D01*
X116372088Y-115542802D01*
X116393274Y-115544307D01*
X116408432Y-115554048D01*
X116418545Y-115557178D01*
X116424719Y-115564516D01*
X116425695Y-115565143D01*
X116426969Y-115563501D01*
X116433132Y-115568281D01*
X116433135Y-115568284D01*
X116574602Y-115651947D01*
X116575869Y-115652315D01*
X116732426Y-115697800D01*
X116732429Y-115697800D01*
X116732431Y-115697801D01*
X116769306Y-115700703D01*
X116769314Y-115700703D01*
X117200686Y-115700703D01*
X117200694Y-115700703D01*
X117237569Y-115697801D01*
X117237571Y-115697800D01*
X117237573Y-115697800D01*
X117290080Y-115682545D01*
X117395398Y-115651947D01*
X117536865Y-115568284D01*
X117536870Y-115568278D01*
X117543031Y-115563501D01*
X117544933Y-115565953D01*
X117593579Y-115539358D01*
X117663274Y-115544307D01*
X117695695Y-115565143D01*
X117696969Y-115563501D01*
X117703132Y-115568281D01*
X117703135Y-115568284D01*
X117844602Y-115651947D01*
X117845869Y-115652315D01*
X118002426Y-115697800D01*
X118002429Y-115697800D01*
X118002431Y-115697801D01*
X118039306Y-115700703D01*
X118039314Y-115700703D01*
X118470686Y-115700703D01*
X118470694Y-115700703D01*
X118507569Y-115697801D01*
X118507571Y-115697800D01*
X118507573Y-115697800D01*
X118560080Y-115682545D01*
X118665398Y-115651947D01*
X118806865Y-115568284D01*
X118806870Y-115568278D01*
X118813031Y-115563501D01*
X118814933Y-115565953D01*
X118863579Y-115539358D01*
X118933274Y-115544307D01*
X118965695Y-115565143D01*
X118966969Y-115563501D01*
X118973132Y-115568281D01*
X118973135Y-115568284D01*
X119114602Y-115651947D01*
X119115869Y-115652315D01*
X119272426Y-115697800D01*
X119272429Y-115697800D01*
X119272431Y-115697801D01*
X119309306Y-115700703D01*
X119309314Y-115700703D01*
X119740686Y-115700703D01*
X119740694Y-115700703D01*
X119777569Y-115697801D01*
X119777571Y-115697800D01*
X119777573Y-115697800D01*
X119830080Y-115682545D01*
X119935398Y-115651947D01*
X120076865Y-115568284D01*
X120076870Y-115568278D01*
X120083031Y-115563501D01*
X120084933Y-115565953D01*
X120133579Y-115539358D01*
X120203274Y-115544307D01*
X120235695Y-115565143D01*
X120236969Y-115563501D01*
X120243132Y-115568281D01*
X120243135Y-115568284D01*
X120384602Y-115651947D01*
X120385869Y-115652315D01*
X120542426Y-115697800D01*
X120542429Y-115697800D01*
X120542431Y-115697801D01*
X120579306Y-115700703D01*
X120579314Y-115700703D01*
X121010686Y-115700703D01*
X121010694Y-115700703D01*
X121047569Y-115697801D01*
X121047571Y-115697800D01*
X121047573Y-115697800D01*
X121100080Y-115682545D01*
X121205398Y-115651947D01*
X121346865Y-115568284D01*
X121463081Y-115452068D01*
X121546744Y-115310601D01*
X121592598Y-115152772D01*
X121595500Y-115115897D01*
X121595500Y-113234509D01*
X121592598Y-113197634D01*
X121565827Y-113105490D01*
X121546745Y-113039809D01*
X121546744Y-113039806D01*
X121546744Y-113039805D01*
X121463081Y-112898338D01*
X121463079Y-112898336D01*
X121463076Y-112898332D01*
X121456819Y-112892075D01*
X121423334Y-112830752D01*
X121420500Y-112804394D01*
X121420500Y-111205452D01*
X121440185Y-111138413D01*
X121456819Y-111117771D01*
X122452772Y-110121819D01*
X122514095Y-110088334D01*
X122540453Y-110085500D01*
X123292019Y-110085500D01*
X123359058Y-110105185D01*
X123402503Y-110153203D01*
X123409950Y-110167819D01*
X123534890Y-110339786D01*
X123685209Y-110490105D01*
X123685214Y-110490109D01*
X123849793Y-110609682D01*
X123892459Y-110665011D01*
X123898438Y-110734625D01*
X123865833Y-110796420D01*
X123849793Y-110810318D01*
X123685214Y-110929890D01*
X123685209Y-110929894D01*
X123534890Y-111080213D01*
X123409951Y-111252179D01*
X123313444Y-111441585D01*
X123247753Y-111643760D01*
X123226597Y-111777334D01*
X123214500Y-111853713D01*
X123214500Y-112066287D01*
X123219704Y-112099142D01*
X123246558Y-112268695D01*
X123247754Y-112276243D01*
X123306336Y-112456540D01*
X123313444Y-112478414D01*
X123409951Y-112667820D01*
X123534890Y-112839786D01*
X123674068Y-112978964D01*
X123707553Y-113040287D01*
X123702569Y-113109979D01*
X123660697Y-113165912D01*
X123651484Y-113172183D01*
X123496659Y-113267680D01*
X123496655Y-113267683D01*
X123372684Y-113391654D01*
X123280643Y-113540875D01*
X123280641Y-113540880D01*
X123225494Y-113707302D01*
X123225493Y-113707309D01*
X123215000Y-113810013D01*
X123215000Y-114210000D01*
X124285854Y-114210000D01*
X124247370Y-114276657D01*
X124215000Y-114397465D01*
X124215000Y-114522535D01*
X124247370Y-114643343D01*
X124285854Y-114710000D01*
X123215001Y-114710000D01*
X123215001Y-115109986D01*
X123225494Y-115212697D01*
X123280641Y-115379119D01*
X123280643Y-115379124D01*
X123372684Y-115528345D01*
X123496654Y-115652315D01*
X123645875Y-115744356D01*
X123645880Y-115744358D01*
X123812302Y-115799505D01*
X123812309Y-115799506D01*
X123915019Y-115809999D01*
X124439999Y-115809999D01*
X124440000Y-115809998D01*
X124440000Y-114864145D01*
X124506657Y-114902630D01*
X124627465Y-114935000D01*
X124752535Y-114935000D01*
X124873343Y-114902630D01*
X124940000Y-114864145D01*
X124940000Y-115809999D01*
X125464972Y-115809999D01*
X125464986Y-115809998D01*
X125567697Y-115799505D01*
X125734119Y-115744358D01*
X125734124Y-115744356D01*
X125883345Y-115652315D01*
X126007315Y-115528345D01*
X126099356Y-115379124D01*
X126099358Y-115379119D01*
X126154505Y-115212697D01*
X126154506Y-115212690D01*
X126164999Y-115109986D01*
X126165000Y-115109973D01*
X126165000Y-114710000D01*
X125094146Y-114710000D01*
X125132630Y-114643343D01*
X125165000Y-114522535D01*
X125165000Y-114397465D01*
X125132630Y-114276657D01*
X125094146Y-114210000D01*
X126164999Y-114210000D01*
X126164999Y-113810028D01*
X126164998Y-113810013D01*
X126154505Y-113707302D01*
X126099358Y-113540880D01*
X126099356Y-113540875D01*
X126007315Y-113391654D01*
X125883345Y-113267684D01*
X125728515Y-113172184D01*
X125681791Y-113120236D01*
X125670568Y-113051273D01*
X125698412Y-112987191D01*
X125705909Y-112978986D01*
X125845104Y-112839792D01*
X125887004Y-112782122D01*
X125970048Y-112667820D01*
X125970047Y-112667820D01*
X125970051Y-112667816D01*
X126066557Y-112478412D01*
X126132246Y-112276243D01*
X126165500Y-112066287D01*
X126165500Y-111853713D01*
X126132246Y-111643757D01*
X126066557Y-111441588D01*
X125970051Y-111252184D01*
X125970049Y-111252181D01*
X125970048Y-111252179D01*
X125845109Y-111080213D01*
X125694792Y-110929896D01*
X125686724Y-110924034D01*
X125530204Y-110810316D01*
X125487540Y-110754989D01*
X125481561Y-110685376D01*
X125514166Y-110623580D01*
X125530199Y-110609686D01*
X125694792Y-110490104D01*
X125845104Y-110339792D01*
X125845106Y-110339788D01*
X125845109Y-110339786D01*
X125970048Y-110167820D01*
X125970049Y-110167819D01*
X125970051Y-110167816D01*
X126066557Y-109978412D01*
X126132246Y-109776243D01*
X126165500Y-109566287D01*
X126165500Y-109353713D01*
X126132246Y-109143757D01*
X126066557Y-108941588D01*
X125970051Y-108752184D01*
X125970049Y-108752181D01*
X125970048Y-108752179D01*
X125845109Y-108580213D01*
X125694792Y-108429896D01*
X125619952Y-108375522D01*
X125530204Y-108310316D01*
X125487540Y-108254989D01*
X125481561Y-108185376D01*
X125514166Y-108123580D01*
X125530199Y-108109686D01*
X125694792Y-107990104D01*
X125845104Y-107839792D01*
X125845106Y-107839788D01*
X125845109Y-107839786D01*
X125970048Y-107667820D01*
X125970047Y-107667820D01*
X125970051Y-107667816D01*
X126066557Y-107478412D01*
X126132246Y-107276243D01*
X126165500Y-107066287D01*
X126165500Y-106853713D01*
X126132246Y-106643757D01*
X126066557Y-106441588D01*
X125970051Y-106252184D01*
X125970049Y-106252181D01*
X125970048Y-106252179D01*
X125845109Y-106080213D01*
X125694792Y-105929896D01*
X125689735Y-105926222D01*
X125530204Y-105810316D01*
X125487540Y-105754989D01*
X125481561Y-105685376D01*
X125514166Y-105623580D01*
X125530199Y-105609686D01*
X125694792Y-105490104D01*
X125845104Y-105339792D01*
X125845106Y-105339788D01*
X125845109Y-105339786D01*
X125970048Y-105167820D01*
X125970047Y-105167820D01*
X125970051Y-105167816D01*
X126066557Y-104978412D01*
X126132246Y-104776243D01*
X126165500Y-104566287D01*
X126165500Y-104353713D01*
X126132246Y-104143757D01*
X126066557Y-103941588D01*
X125970051Y-103752184D01*
X125970049Y-103752181D01*
X125970048Y-103752179D01*
X125845109Y-103580213D01*
X125694786Y-103429890D01*
X125522820Y-103304951D01*
X125333414Y-103208444D01*
X125333413Y-103208443D01*
X125333412Y-103208443D01*
X125131243Y-103142754D01*
X125131241Y-103142753D01*
X125131240Y-103142753D01*
X124969957Y-103117208D01*
X124921287Y-103109500D01*
X124458713Y-103109500D01*
X124410042Y-103117208D01*
X124248760Y-103142753D01*
X124046585Y-103208444D01*
X123857179Y-103304951D01*
X123685213Y-103429890D01*
X123534890Y-103580213D01*
X123409951Y-103752179D01*
X123313444Y-103941585D01*
X123247753Y-104143760D01*
X123214500Y-104353713D01*
X123214500Y-104566286D01*
X123244348Y-104754742D01*
X123247754Y-104776243D01*
X123308726Y-104963896D01*
X123313444Y-104978414D01*
X123409951Y-105167820D01*
X123534890Y-105339786D01*
X123685209Y-105490105D01*
X123685214Y-105490109D01*
X123849793Y-105609682D01*
X123892459Y-105665011D01*
X123898438Y-105734625D01*
X123865833Y-105796420D01*
X123849793Y-105810318D01*
X123685214Y-105929890D01*
X123685209Y-105929894D01*
X123534890Y-106080213D01*
X123409951Y-106252179D01*
X123313444Y-106441585D01*
X123282501Y-106536818D01*
X123243063Y-106594494D01*
X123178705Y-106621692D01*
X123164570Y-106622500D01*
X121145419Y-106622500D01*
X121078380Y-106602815D01*
X121032625Y-106550011D01*
X121022681Y-106480853D01*
X121051706Y-106417297D01*
X121110484Y-106379523D01*
X121110824Y-106379424D01*
X121158040Y-106365705D01*
X121205398Y-106351947D01*
X121346865Y-106268284D01*
X121463081Y-106152068D01*
X121546744Y-106010601D01*
X121580505Y-105894394D01*
X121592597Y-105852776D01*
X121592598Y-105852770D01*
X121595499Y-105815904D01*
X121595500Y-105815897D01*
X121595500Y-105320410D01*
X121604939Y-105272958D01*
X121648488Y-105167820D01*
X121660894Y-105137869D01*
X121695500Y-104963894D01*
X121695500Y-104786512D01*
X121695500Y-104786509D01*
X121695499Y-104786507D01*
X121660896Y-104612544D01*
X121660893Y-104612535D01*
X121655319Y-104599079D01*
X121604939Y-104477448D01*
X121595500Y-104429996D01*
X121595500Y-103934516D01*
X121595499Y-103934501D01*
X121592598Y-103897635D01*
X121592597Y-103897629D01*
X121546745Y-103739809D01*
X121546744Y-103739806D01*
X121546744Y-103739805D01*
X121463081Y-103598338D01*
X121463079Y-103598336D01*
X121463076Y-103598332D01*
X121346870Y-103482126D01*
X121346862Y-103482120D01*
X121248525Y-103423964D01*
X121205398Y-103398459D01*
X121205397Y-103398458D01*
X121205396Y-103398458D01*
X121205393Y-103398457D01*
X121047573Y-103352605D01*
X121047567Y-103352604D01*
X121010701Y-103349703D01*
X121010694Y-103349703D01*
X120579306Y-103349703D01*
X120579298Y-103349703D01*
X120542432Y-103352604D01*
X120542426Y-103352605D01*
X120384606Y-103398457D01*
X120384603Y-103398458D01*
X120243137Y-103482120D01*
X120236969Y-103486905D01*
X120235072Y-103484459D01*
X120186358Y-103511060D01*
X120116666Y-103506076D01*
X120084296Y-103485272D01*
X120083031Y-103486905D01*
X120076862Y-103482120D01*
X119978525Y-103423964D01*
X119935398Y-103398459D01*
X119935397Y-103398458D01*
X119935396Y-103398458D01*
X119935393Y-103398457D01*
X119777573Y-103352605D01*
X119777567Y-103352604D01*
X119740701Y-103349703D01*
X119740694Y-103349703D01*
X119309306Y-103349703D01*
X119309298Y-103349703D01*
X119272432Y-103352604D01*
X119272426Y-103352605D01*
X119114606Y-103398457D01*
X119114603Y-103398458D01*
X118973137Y-103482120D01*
X118966969Y-103486905D01*
X118965072Y-103484459D01*
X118916358Y-103511060D01*
X118846666Y-103506076D01*
X118814296Y-103485272D01*
X118813031Y-103486905D01*
X118806862Y-103482120D01*
X118708525Y-103423964D01*
X118665398Y-103398459D01*
X118665397Y-103398458D01*
X118665396Y-103398458D01*
X118665393Y-103398457D01*
X118507573Y-103352605D01*
X118507567Y-103352604D01*
X118470701Y-103349703D01*
X118470694Y-103349703D01*
X118039306Y-103349703D01*
X118039298Y-103349703D01*
X118002432Y-103352604D01*
X118002426Y-103352605D01*
X117844606Y-103398457D01*
X117844603Y-103398458D01*
X117703140Y-103482118D01*
X117696974Y-103486902D01*
X117695174Y-103484582D01*
X117645913Y-103511433D01*
X117576225Y-103506396D01*
X117543992Y-103485664D01*
X117542722Y-103487303D01*
X117536552Y-103482517D01*
X117395196Y-103398920D01*
X117395193Y-103398919D01*
X117237494Y-103353103D01*
X117237497Y-103353103D01*
X117235000Y-103352906D01*
X117235000Y-104751203D01*
X117215315Y-104818242D01*
X117162511Y-104863997D01*
X117111000Y-104875203D01*
X116859000Y-104875203D01*
X116791961Y-104855518D01*
X116746206Y-104802714D01*
X116735000Y-104751203D01*
X116735000Y-103352906D01*
X116732503Y-103353103D01*
X116574806Y-103398919D01*
X116574803Y-103398920D01*
X116433449Y-103482516D01*
X116427283Y-103487300D01*
X116425389Y-103484858D01*
X116376580Y-103511442D01*
X116306894Y-103506382D01*
X116274227Y-103485362D01*
X116273031Y-103486905D01*
X116266862Y-103482120D01*
X116168525Y-103423964D01*
X116125398Y-103398459D01*
X116125397Y-103398458D01*
X116125396Y-103398458D01*
X116125393Y-103398457D01*
X115967573Y-103352605D01*
X115967567Y-103352604D01*
X115930701Y-103349703D01*
X115930694Y-103349703D01*
X115499306Y-103349703D01*
X115499298Y-103349703D01*
X115462432Y-103352604D01*
X115462426Y-103352605D01*
X115304606Y-103398457D01*
X115304603Y-103398458D01*
X115163137Y-103482120D01*
X115156969Y-103486905D01*
X115155072Y-103484459D01*
X115106358Y-103511060D01*
X115036666Y-103506076D01*
X115004296Y-103485272D01*
X115003031Y-103486905D01*
X114996862Y-103482120D01*
X114898525Y-103423964D01*
X114855398Y-103398459D01*
X114855397Y-103398458D01*
X114855396Y-103398458D01*
X114855393Y-103398457D01*
X114697573Y-103352605D01*
X114697567Y-103352604D01*
X114660701Y-103349703D01*
X114660694Y-103349703D01*
X114229306Y-103349703D01*
X114229298Y-103349703D01*
X114192432Y-103352604D01*
X114192426Y-103352605D01*
X114034606Y-103398457D01*
X114034603Y-103398458D01*
X113893137Y-103482120D01*
X113886969Y-103486905D01*
X113885072Y-103484459D01*
X113836358Y-103511060D01*
X113766666Y-103506076D01*
X113734296Y-103485272D01*
X113733031Y-103486905D01*
X113726862Y-103482120D01*
X113628525Y-103423964D01*
X113585398Y-103398459D01*
X113585397Y-103398458D01*
X113585396Y-103398458D01*
X113585393Y-103398457D01*
X113427573Y-103352605D01*
X113427567Y-103352604D01*
X113390701Y-103349703D01*
X113390694Y-103349703D01*
X112959306Y-103349703D01*
X112959298Y-103349703D01*
X112922432Y-103352604D01*
X112922426Y-103352605D01*
X112764606Y-103398457D01*
X112764603Y-103398458D01*
X112623137Y-103482120D01*
X112616969Y-103486905D01*
X112615072Y-103484459D01*
X112566358Y-103511060D01*
X112496666Y-103506076D01*
X112464296Y-103485272D01*
X112463031Y-103486905D01*
X112456862Y-103482120D01*
X112358525Y-103423964D01*
X112315398Y-103398459D01*
X112315397Y-103398458D01*
X112315396Y-103398458D01*
X112315393Y-103398457D01*
X112157573Y-103352605D01*
X112157567Y-103352604D01*
X112120701Y-103349703D01*
X112120694Y-103349703D01*
X111689306Y-103349703D01*
X111689298Y-103349703D01*
X111652432Y-103352604D01*
X111652426Y-103352605D01*
X111494606Y-103398457D01*
X111494603Y-103398458D01*
X111353140Y-103482118D01*
X111346974Y-103486902D01*
X111345174Y-103484582D01*
X111295913Y-103511433D01*
X111226225Y-103506396D01*
X111193992Y-103485664D01*
X111192722Y-103487303D01*
X111186552Y-103482517D01*
X111045196Y-103398920D01*
X111045193Y-103398919D01*
X110887494Y-103353103D01*
X110887497Y-103353103D01*
X110885000Y-103352906D01*
X110885000Y-104751203D01*
X110865315Y-104818242D01*
X110812511Y-104863997D01*
X110761000Y-104875203D01*
X110509000Y-104875203D01*
X110441961Y-104855518D01*
X110396206Y-104802714D01*
X110385000Y-104751203D01*
X110385000Y-103352906D01*
X110382503Y-103353103D01*
X110224806Y-103398919D01*
X110224803Y-103398920D01*
X110083449Y-103482516D01*
X110077283Y-103487300D01*
X110075389Y-103484858D01*
X110026580Y-103511442D01*
X109956894Y-103506382D01*
X109924227Y-103485362D01*
X109923031Y-103486905D01*
X109916862Y-103482120D01*
X109818525Y-103423964D01*
X109775398Y-103398459D01*
X109775397Y-103398458D01*
X109775396Y-103398458D01*
X109775393Y-103398457D01*
X109617573Y-103352605D01*
X109617567Y-103352604D01*
X109580701Y-103349703D01*
X109580694Y-103349703D01*
X109149306Y-103349703D01*
X109149298Y-103349703D01*
X109112432Y-103352604D01*
X109112426Y-103352605D01*
X108954606Y-103398457D01*
X108954603Y-103398458D01*
X108813137Y-103482120D01*
X108806969Y-103486905D01*
X108805072Y-103484459D01*
X108756358Y-103511060D01*
X108686666Y-103506076D01*
X108654296Y-103485272D01*
X108653031Y-103486905D01*
X108646862Y-103482120D01*
X108548525Y-103423964D01*
X108505398Y-103398459D01*
X108505397Y-103398458D01*
X108505396Y-103398458D01*
X108505393Y-103398457D01*
X108347573Y-103352605D01*
X108347567Y-103352604D01*
X108310701Y-103349703D01*
X108310694Y-103349703D01*
X107879306Y-103349703D01*
X107879298Y-103349703D01*
X107842432Y-103352604D01*
X107842426Y-103352605D01*
X107684606Y-103398457D01*
X107684603Y-103398458D01*
X107543137Y-103482120D01*
X107536969Y-103486905D01*
X107535072Y-103484459D01*
X107486358Y-103511060D01*
X107416666Y-103506076D01*
X107394479Y-103495170D01*
X107382387Y-103487644D01*
X107376865Y-103482122D01*
X107309529Y-103442299D01*
X107308339Y-103441559D01*
X107307163Y-103440241D01*
X107286179Y-103423964D01*
X107225008Y-103362793D01*
X106253581Y-102391365D01*
X106253577Y-102391362D01*
X106150809Y-102322694D01*
X106150796Y-102322687D01*
X106117355Y-102308836D01*
X106036605Y-102275388D01*
X106036597Y-102275386D01*
X105915377Y-102251274D01*
X105915373Y-102251274D01*
X100729423Y-102251274D01*
X100729421Y-102251274D01*
X100608196Y-102275387D01*
X100608186Y-102275390D01*
X100493999Y-102322687D01*
X100493986Y-102322694D01*
X100391218Y-102391362D01*
X100391214Y-102391365D01*
X96421197Y-106361384D01*
X96359874Y-106394869D01*
X96333516Y-106397703D01*
X92406961Y-106397703D01*
X92339922Y-106378018D01*
X92296475Y-106329995D01*
X92290050Y-106317384D01*
X92165109Y-106145416D01*
X92014792Y-105995099D01*
X92013899Y-105994450D01*
X91850204Y-105875519D01*
X91807540Y-105820192D01*
X91801561Y-105750579D01*
X91834166Y-105688783D01*
X91850199Y-105674889D01*
X92014792Y-105555307D01*
X92165104Y-105404995D01*
X92165106Y-105404991D01*
X92165109Y-105404989D01*
X92290048Y-105233023D01*
X92290047Y-105233023D01*
X92290051Y-105233019D01*
X92386557Y-105043615D01*
X92452246Y-104841446D01*
X92485500Y-104631490D01*
X92485500Y-104418916D01*
X92452246Y-104208960D01*
X92386557Y-104006791D01*
X92290051Y-103817387D01*
X92290049Y-103817384D01*
X92290048Y-103817382D01*
X92165109Y-103645416D01*
X92014786Y-103495093D01*
X91842820Y-103370154D01*
X91653414Y-103273647D01*
X91653413Y-103273646D01*
X91653412Y-103273646D01*
X91451243Y-103207957D01*
X91451241Y-103207956D01*
X91451240Y-103207956D01*
X91289957Y-103182411D01*
X91241287Y-103174703D01*
X90778713Y-103174703D01*
X90730042Y-103182411D01*
X90568760Y-103207956D01*
X90366585Y-103273647D01*
X90177179Y-103370154D01*
X90005213Y-103495093D01*
X89854890Y-103645416D01*
X89729951Y-103817382D01*
X89633444Y-104006788D01*
X89567753Y-104208963D01*
X89564401Y-104230129D01*
X89534500Y-104418916D01*
X88452320Y-104418916D01*
X88447714Y-101659910D01*
X88467287Y-101592838D01*
X88520014Y-101546995D01*
X88571714Y-101535703D01*
X128209264Y-101535703D01*
X128276303Y-101555388D01*
G37*
%TD.AperFunction*%
%TD*%
M02*
