%TF.GenerationSoftware,KiCad,Pcbnew,9.0.5*%
%TF.CreationDate,2025-11-27T16:28:19+01:00*%
%TF.ProjectId,7segment-driver-board,37736567-6d65-46e7-942d-647269766572,1.0*%
%TF.SameCoordinates,Original*%
%TF.FileFunction,Soldermask,Top*%
%TF.FilePolarity,Negative*%
%FSLAX46Y46*%
G04 Gerber Fmt 4.6, Leading zero omitted, Abs format (unit mm)*
G04 Created by KiCad (PCBNEW 9.0.5) date 2025-11-27 16:28:19*
%MOMM*%
%LPD*%
G01*
G04 APERTURE LIST*
G04 APERTURE END LIST*
G36*
X101665558Y-114450341D02*
G01*
X101711931Y-114457686D01*
X101717982Y-114460769D01*
X101732746Y-114463706D01*
X101761650Y-114483020D01*
X101788436Y-114496668D01*
X101801243Y-114509475D01*
X101822286Y-114523536D01*
X101836346Y-114544578D01*
X101849153Y-114557385D01*
X101862799Y-114584168D01*
X101882116Y-114613076D01*
X101885052Y-114627841D01*
X101888135Y-114633890D01*
X101895476Y-114680242D01*
X101903125Y-114718697D01*
X101903125Y-115468697D01*
X101895475Y-115507155D01*
X101888135Y-115553503D01*
X101885053Y-115559551D01*
X101882116Y-115574318D01*
X101862797Y-115603229D01*
X101849153Y-115630008D01*
X101836348Y-115642812D01*
X101822286Y-115663858D01*
X101801240Y-115677920D01*
X101788436Y-115690725D01*
X101761657Y-115704369D01*
X101732746Y-115723688D01*
X101717979Y-115726625D01*
X101711931Y-115729707D01*
X101665583Y-115737047D01*
X101627125Y-115744697D01*
X101177125Y-115744697D01*
X101138670Y-115737048D01*
X101092318Y-115729707D01*
X101086269Y-115726624D01*
X101071504Y-115723688D01*
X101042596Y-115704371D01*
X101015813Y-115690725D01*
X101003006Y-115677918D01*
X100981964Y-115663858D01*
X100967903Y-115642815D01*
X100955096Y-115630008D01*
X100941448Y-115603222D01*
X100922134Y-115574318D01*
X100919197Y-115559554D01*
X100916114Y-115553503D01*
X100908769Y-115507130D01*
X100901125Y-115468697D01*
X100901125Y-114718697D01*
X100908769Y-114680267D01*
X100916114Y-114633890D01*
X100919197Y-114627838D01*
X100922134Y-114613076D01*
X100941445Y-114584174D01*
X100955096Y-114557385D01*
X100967905Y-114544575D01*
X100981964Y-114523536D01*
X101003003Y-114509477D01*
X101015813Y-114496668D01*
X101042602Y-114483017D01*
X101071504Y-114463706D01*
X101086266Y-114460769D01*
X101092318Y-114457686D01*
X101138695Y-114450341D01*
X101177125Y-114442697D01*
X101627125Y-114442697D01*
X101665558Y-114450341D01*
G37*
G36*
X104965558Y-114450341D02*
G01*
X105011931Y-114457686D01*
X105017982Y-114460769D01*
X105032746Y-114463706D01*
X105061650Y-114483020D01*
X105088436Y-114496668D01*
X105101243Y-114509475D01*
X105122286Y-114523536D01*
X105136346Y-114544578D01*
X105149153Y-114557385D01*
X105162799Y-114584168D01*
X105182116Y-114613076D01*
X105185052Y-114627841D01*
X105188135Y-114633890D01*
X105195476Y-114680242D01*
X105203125Y-114718697D01*
X105203125Y-115468697D01*
X105195475Y-115507155D01*
X105188135Y-115553503D01*
X105185053Y-115559551D01*
X105182116Y-115574318D01*
X105162797Y-115603229D01*
X105149153Y-115630008D01*
X105136348Y-115642812D01*
X105122286Y-115663858D01*
X105101240Y-115677920D01*
X105088436Y-115690725D01*
X105061657Y-115704369D01*
X105032746Y-115723688D01*
X105017979Y-115726625D01*
X105011931Y-115729707D01*
X104965583Y-115737047D01*
X104927125Y-115744697D01*
X104477125Y-115744697D01*
X104438670Y-115737048D01*
X104392318Y-115729707D01*
X104386269Y-115726624D01*
X104371504Y-115723688D01*
X104342596Y-115704371D01*
X104315813Y-115690725D01*
X104303006Y-115677918D01*
X104281964Y-115663858D01*
X104267903Y-115642815D01*
X104255096Y-115630008D01*
X104241448Y-115603222D01*
X104222134Y-115574318D01*
X104219197Y-115559554D01*
X104216114Y-115553503D01*
X104208769Y-115507130D01*
X104201125Y-115468697D01*
X104201125Y-114718697D01*
X104208769Y-114680267D01*
X104216114Y-114633890D01*
X104219197Y-114627838D01*
X104222134Y-114613076D01*
X104241445Y-114584174D01*
X104255096Y-114557385D01*
X104267905Y-114544575D01*
X104281964Y-114523536D01*
X104303003Y-114509477D01*
X104315813Y-114496668D01*
X104342602Y-114483017D01*
X104371504Y-114463706D01*
X104386266Y-114460769D01*
X104392318Y-114457686D01*
X104438695Y-114450341D01*
X104477125Y-114442697D01*
X104927125Y-114442697D01*
X104965558Y-114450341D01*
G37*
G36*
X91803914Y-113632198D02*
G01*
X91819726Y-113639179D01*
X91827531Y-113640416D01*
X91860039Y-113656979D01*
X91905106Y-113676879D01*
X91983324Y-113755097D01*
X92003226Y-113800170D01*
X92019786Y-113832671D01*
X92021021Y-113840473D01*
X92028005Y-113856289D01*
X92036000Y-113925203D01*
X92036000Y-115125203D01*
X92028005Y-115194117D01*
X92021021Y-115209932D01*
X92019786Y-115217734D01*
X92003229Y-115250227D01*
X91983324Y-115295309D01*
X91905106Y-115373527D01*
X91860024Y-115393432D01*
X91827531Y-115409989D01*
X91819729Y-115411224D01*
X91803914Y-115418208D01*
X91735000Y-115426203D01*
X90285000Y-115426203D01*
X90216086Y-115418208D01*
X90200270Y-115411224D01*
X90192468Y-115409989D01*
X90159967Y-115393429D01*
X90114894Y-115373527D01*
X90036676Y-115295309D01*
X90016776Y-115250242D01*
X90000213Y-115217734D01*
X89998976Y-115209929D01*
X89991995Y-115194117D01*
X89984000Y-115125203D01*
X89984000Y-113925203D01*
X89991995Y-113856289D01*
X89998976Y-113840477D01*
X90000213Y-113832671D01*
X90016780Y-113800156D01*
X90036676Y-113755097D01*
X90114894Y-113676879D01*
X90159953Y-113656983D01*
X90192468Y-113640416D01*
X90200274Y-113639179D01*
X90216086Y-113632198D01*
X90285000Y-113624203D01*
X91735000Y-113624203D01*
X91803914Y-113632198D01*
G37*
G36*
X125483914Y-113566995D02*
G01*
X125499726Y-113573976D01*
X125507531Y-113575213D01*
X125540039Y-113591776D01*
X125585106Y-113611676D01*
X125663324Y-113689894D01*
X125683226Y-113734967D01*
X125699786Y-113767468D01*
X125701021Y-113775270D01*
X125708005Y-113791086D01*
X125716000Y-113860000D01*
X125716000Y-115060000D01*
X125708005Y-115128914D01*
X125701021Y-115144729D01*
X125699786Y-115152531D01*
X125683229Y-115185024D01*
X125663324Y-115230106D01*
X125585106Y-115308324D01*
X125540024Y-115328229D01*
X125507531Y-115344786D01*
X125499729Y-115346021D01*
X125483914Y-115353005D01*
X125415000Y-115361000D01*
X123965000Y-115361000D01*
X123896086Y-115353005D01*
X123880270Y-115346021D01*
X123872468Y-115344786D01*
X123839967Y-115328226D01*
X123794894Y-115308324D01*
X123716676Y-115230106D01*
X123696776Y-115185039D01*
X123680213Y-115152531D01*
X123678976Y-115144726D01*
X123671995Y-115128914D01*
X123664000Y-115060000D01*
X123664000Y-113860000D01*
X123671995Y-113791086D01*
X123678976Y-113775274D01*
X123680213Y-113767468D01*
X123696780Y-113734953D01*
X123716676Y-113689894D01*
X123794894Y-113611676D01*
X123839953Y-113591780D01*
X123872468Y-113575213D01*
X123880274Y-113573976D01*
X123896086Y-113566995D01*
X123965000Y-113559000D01*
X125415000Y-113559000D01*
X125483914Y-113566995D01*
G37*
G36*
X106991040Y-113102393D02*
G01*
X107023987Y-113106731D01*
X107032274Y-113110595D01*
X107051919Y-113114503D01*
X107077938Y-113131889D01*
X107089180Y-113137131D01*
X107096019Y-113143970D01*
X107117128Y-113158075D01*
X107131232Y-113179183D01*
X107138071Y-113186022D01*
X107143312Y-113197261D01*
X107160700Y-113223284D01*
X107164607Y-113242930D01*
X107168471Y-113251215D01*
X107172806Y-113284149D01*
X107176000Y-113300203D01*
X107176000Y-115050203D01*
X107172806Y-115066257D01*
X107168471Y-115099190D01*
X107164608Y-115107473D01*
X107160700Y-115127122D01*
X107143310Y-115153146D01*
X107138071Y-115164383D01*
X107131234Y-115171219D01*
X107117128Y-115192331D01*
X107096016Y-115206437D01*
X107089180Y-115213274D01*
X107077943Y-115218513D01*
X107051919Y-115235903D01*
X107032270Y-115239811D01*
X107023987Y-115243674D01*
X106991054Y-115248009D01*
X106975000Y-115251203D01*
X106675000Y-115251203D01*
X106658946Y-115248009D01*
X106626012Y-115243674D01*
X106617727Y-115239810D01*
X106598081Y-115235903D01*
X106572058Y-115218515D01*
X106560819Y-115213274D01*
X106553980Y-115206435D01*
X106532872Y-115192331D01*
X106518767Y-115171222D01*
X106511928Y-115164383D01*
X106506686Y-115153141D01*
X106489300Y-115127122D01*
X106485392Y-115107477D01*
X106481528Y-115099190D01*
X106477190Y-115066243D01*
X106474000Y-115050203D01*
X106474000Y-113300203D01*
X106477190Y-113284164D01*
X106481528Y-113251215D01*
X106485392Y-113242926D01*
X106489300Y-113223284D01*
X106506684Y-113197266D01*
X106511928Y-113186022D01*
X106518769Y-113179180D01*
X106532872Y-113158075D01*
X106553977Y-113143972D01*
X106560819Y-113137131D01*
X106572063Y-113131887D01*
X106598081Y-113114503D01*
X106617723Y-113110595D01*
X106626012Y-113106731D01*
X106658961Y-113102393D01*
X106675000Y-113099203D01*
X106975000Y-113099203D01*
X106991040Y-113102393D01*
G37*
G36*
X108261040Y-113102393D02*
G01*
X108293987Y-113106731D01*
X108302274Y-113110595D01*
X108321919Y-113114503D01*
X108347938Y-113131889D01*
X108359180Y-113137131D01*
X108366019Y-113143970D01*
X108387128Y-113158075D01*
X108401232Y-113179183D01*
X108408071Y-113186022D01*
X108413312Y-113197261D01*
X108430700Y-113223284D01*
X108434607Y-113242930D01*
X108438471Y-113251215D01*
X108442806Y-113284149D01*
X108446000Y-113300203D01*
X108446000Y-115050203D01*
X108442806Y-115066257D01*
X108438471Y-115099190D01*
X108434608Y-115107473D01*
X108430700Y-115127122D01*
X108413310Y-115153146D01*
X108408071Y-115164383D01*
X108401234Y-115171219D01*
X108387128Y-115192331D01*
X108366016Y-115206437D01*
X108359180Y-115213274D01*
X108347943Y-115218513D01*
X108321919Y-115235903D01*
X108302270Y-115239811D01*
X108293987Y-115243674D01*
X108261054Y-115248009D01*
X108245000Y-115251203D01*
X107945000Y-115251203D01*
X107928946Y-115248009D01*
X107896012Y-115243674D01*
X107887727Y-115239810D01*
X107868081Y-115235903D01*
X107842058Y-115218515D01*
X107830819Y-115213274D01*
X107823980Y-115206435D01*
X107802872Y-115192331D01*
X107788767Y-115171222D01*
X107781928Y-115164383D01*
X107776686Y-115153141D01*
X107759300Y-115127122D01*
X107755392Y-115107477D01*
X107751528Y-115099190D01*
X107747190Y-115066243D01*
X107744000Y-115050203D01*
X107744000Y-113300203D01*
X107747190Y-113284164D01*
X107751528Y-113251215D01*
X107755392Y-113242926D01*
X107759300Y-113223284D01*
X107776684Y-113197266D01*
X107781928Y-113186022D01*
X107788769Y-113179180D01*
X107802872Y-113158075D01*
X107823977Y-113143972D01*
X107830819Y-113137131D01*
X107842063Y-113131887D01*
X107868081Y-113114503D01*
X107887723Y-113110595D01*
X107896012Y-113106731D01*
X107928961Y-113102393D01*
X107945000Y-113099203D01*
X108245000Y-113099203D01*
X108261040Y-113102393D01*
G37*
G36*
X109531040Y-113102393D02*
G01*
X109563987Y-113106731D01*
X109572274Y-113110595D01*
X109591919Y-113114503D01*
X109617938Y-113131889D01*
X109629180Y-113137131D01*
X109636019Y-113143970D01*
X109657128Y-113158075D01*
X109671232Y-113179183D01*
X109678071Y-113186022D01*
X109683312Y-113197261D01*
X109700700Y-113223284D01*
X109704607Y-113242930D01*
X109708471Y-113251215D01*
X109712806Y-113284149D01*
X109716000Y-113300203D01*
X109716000Y-115050203D01*
X109712806Y-115066257D01*
X109708471Y-115099190D01*
X109704608Y-115107473D01*
X109700700Y-115127122D01*
X109683310Y-115153146D01*
X109678071Y-115164383D01*
X109671234Y-115171219D01*
X109657128Y-115192331D01*
X109636016Y-115206437D01*
X109629180Y-115213274D01*
X109617943Y-115218513D01*
X109591919Y-115235903D01*
X109572270Y-115239811D01*
X109563987Y-115243674D01*
X109531054Y-115248009D01*
X109515000Y-115251203D01*
X109215000Y-115251203D01*
X109198946Y-115248009D01*
X109166012Y-115243674D01*
X109157727Y-115239810D01*
X109138081Y-115235903D01*
X109112058Y-115218515D01*
X109100819Y-115213274D01*
X109093980Y-115206435D01*
X109072872Y-115192331D01*
X109058767Y-115171222D01*
X109051928Y-115164383D01*
X109046686Y-115153141D01*
X109029300Y-115127122D01*
X109025392Y-115107477D01*
X109021528Y-115099190D01*
X109017190Y-115066243D01*
X109014000Y-115050203D01*
X109014000Y-113300203D01*
X109017190Y-113284164D01*
X109021528Y-113251215D01*
X109025392Y-113242926D01*
X109029300Y-113223284D01*
X109046684Y-113197266D01*
X109051928Y-113186022D01*
X109058769Y-113179180D01*
X109072872Y-113158075D01*
X109093977Y-113143972D01*
X109100819Y-113137131D01*
X109112063Y-113131887D01*
X109138081Y-113114503D01*
X109157723Y-113110595D01*
X109166012Y-113106731D01*
X109198961Y-113102393D01*
X109215000Y-113099203D01*
X109515000Y-113099203D01*
X109531040Y-113102393D01*
G37*
G36*
X110801040Y-113102393D02*
G01*
X110833987Y-113106731D01*
X110842274Y-113110595D01*
X110861919Y-113114503D01*
X110887938Y-113131889D01*
X110899180Y-113137131D01*
X110906019Y-113143970D01*
X110927128Y-113158075D01*
X110941232Y-113179183D01*
X110948071Y-113186022D01*
X110953312Y-113197261D01*
X110970700Y-113223284D01*
X110974607Y-113242930D01*
X110978471Y-113251215D01*
X110982806Y-113284149D01*
X110986000Y-113300203D01*
X110986000Y-115050203D01*
X110982806Y-115066257D01*
X110978471Y-115099190D01*
X110974608Y-115107473D01*
X110970700Y-115127122D01*
X110953310Y-115153146D01*
X110948071Y-115164383D01*
X110941234Y-115171219D01*
X110927128Y-115192331D01*
X110906016Y-115206437D01*
X110899180Y-115213274D01*
X110887943Y-115218513D01*
X110861919Y-115235903D01*
X110842270Y-115239811D01*
X110833987Y-115243674D01*
X110801054Y-115248009D01*
X110785000Y-115251203D01*
X110485000Y-115251203D01*
X110468946Y-115248009D01*
X110436012Y-115243674D01*
X110427727Y-115239810D01*
X110408081Y-115235903D01*
X110382058Y-115218515D01*
X110370819Y-115213274D01*
X110363980Y-115206435D01*
X110342872Y-115192331D01*
X110328767Y-115171222D01*
X110321928Y-115164383D01*
X110316686Y-115153141D01*
X110299300Y-115127122D01*
X110295392Y-115107477D01*
X110291528Y-115099190D01*
X110287190Y-115066243D01*
X110284000Y-115050203D01*
X110284000Y-113300203D01*
X110287190Y-113284164D01*
X110291528Y-113251215D01*
X110295392Y-113242926D01*
X110299300Y-113223284D01*
X110316684Y-113197266D01*
X110321928Y-113186022D01*
X110328769Y-113179180D01*
X110342872Y-113158075D01*
X110363977Y-113143972D01*
X110370819Y-113137131D01*
X110382063Y-113131887D01*
X110408081Y-113114503D01*
X110427723Y-113110595D01*
X110436012Y-113106731D01*
X110468961Y-113102393D01*
X110485000Y-113099203D01*
X110785000Y-113099203D01*
X110801040Y-113102393D01*
G37*
G36*
X112071040Y-113102393D02*
G01*
X112103987Y-113106731D01*
X112112274Y-113110595D01*
X112131919Y-113114503D01*
X112157938Y-113131889D01*
X112169180Y-113137131D01*
X112176019Y-113143970D01*
X112197128Y-113158075D01*
X112211232Y-113179183D01*
X112218071Y-113186022D01*
X112223312Y-113197261D01*
X112240700Y-113223284D01*
X112244607Y-113242930D01*
X112248471Y-113251215D01*
X112252806Y-113284149D01*
X112256000Y-113300203D01*
X112256000Y-115050203D01*
X112252806Y-115066257D01*
X112248471Y-115099190D01*
X112244608Y-115107473D01*
X112240700Y-115127122D01*
X112223310Y-115153146D01*
X112218071Y-115164383D01*
X112211234Y-115171219D01*
X112197128Y-115192331D01*
X112176016Y-115206437D01*
X112169180Y-115213274D01*
X112157943Y-115218513D01*
X112131919Y-115235903D01*
X112112270Y-115239811D01*
X112103987Y-115243674D01*
X112071054Y-115248009D01*
X112055000Y-115251203D01*
X111755000Y-115251203D01*
X111738946Y-115248009D01*
X111706012Y-115243674D01*
X111697727Y-115239810D01*
X111678081Y-115235903D01*
X111652058Y-115218515D01*
X111640819Y-115213274D01*
X111633980Y-115206435D01*
X111612872Y-115192331D01*
X111598767Y-115171222D01*
X111591928Y-115164383D01*
X111586686Y-115153141D01*
X111569300Y-115127122D01*
X111565392Y-115107477D01*
X111561528Y-115099190D01*
X111557190Y-115066243D01*
X111554000Y-115050203D01*
X111554000Y-113300203D01*
X111557190Y-113284164D01*
X111561528Y-113251215D01*
X111565392Y-113242926D01*
X111569300Y-113223284D01*
X111586684Y-113197266D01*
X111591928Y-113186022D01*
X111598769Y-113179180D01*
X111612872Y-113158075D01*
X111633977Y-113143972D01*
X111640819Y-113137131D01*
X111652063Y-113131887D01*
X111678081Y-113114503D01*
X111697723Y-113110595D01*
X111706012Y-113106731D01*
X111738961Y-113102393D01*
X111755000Y-113099203D01*
X112055000Y-113099203D01*
X112071040Y-113102393D01*
G37*
G36*
X113341040Y-113102393D02*
G01*
X113373987Y-113106731D01*
X113382274Y-113110595D01*
X113401919Y-113114503D01*
X113427938Y-113131889D01*
X113439180Y-113137131D01*
X113446019Y-113143970D01*
X113467128Y-113158075D01*
X113481232Y-113179183D01*
X113488071Y-113186022D01*
X113493312Y-113197261D01*
X113510700Y-113223284D01*
X113514607Y-113242930D01*
X113518471Y-113251215D01*
X113522806Y-113284149D01*
X113526000Y-113300203D01*
X113526000Y-115050203D01*
X113522806Y-115066257D01*
X113518471Y-115099190D01*
X113514608Y-115107473D01*
X113510700Y-115127122D01*
X113493310Y-115153146D01*
X113488071Y-115164383D01*
X113481234Y-115171219D01*
X113467128Y-115192331D01*
X113446016Y-115206437D01*
X113439180Y-115213274D01*
X113427943Y-115218513D01*
X113401919Y-115235903D01*
X113382270Y-115239811D01*
X113373987Y-115243674D01*
X113341054Y-115248009D01*
X113325000Y-115251203D01*
X113025000Y-115251203D01*
X113008946Y-115248009D01*
X112976012Y-115243674D01*
X112967727Y-115239810D01*
X112948081Y-115235903D01*
X112922058Y-115218515D01*
X112910819Y-115213274D01*
X112903980Y-115206435D01*
X112882872Y-115192331D01*
X112868767Y-115171222D01*
X112861928Y-115164383D01*
X112856686Y-115153141D01*
X112839300Y-115127122D01*
X112835392Y-115107477D01*
X112831528Y-115099190D01*
X112827190Y-115066243D01*
X112824000Y-115050203D01*
X112824000Y-113300203D01*
X112827190Y-113284164D01*
X112831528Y-113251215D01*
X112835392Y-113242926D01*
X112839300Y-113223284D01*
X112856684Y-113197266D01*
X112861928Y-113186022D01*
X112868769Y-113179180D01*
X112882872Y-113158075D01*
X112903977Y-113143972D01*
X112910819Y-113137131D01*
X112922063Y-113131887D01*
X112948081Y-113114503D01*
X112967723Y-113110595D01*
X112976012Y-113106731D01*
X113008961Y-113102393D01*
X113025000Y-113099203D01*
X113325000Y-113099203D01*
X113341040Y-113102393D01*
G37*
G36*
X114611040Y-113102393D02*
G01*
X114643987Y-113106731D01*
X114652274Y-113110595D01*
X114671919Y-113114503D01*
X114697938Y-113131889D01*
X114709180Y-113137131D01*
X114716019Y-113143970D01*
X114737128Y-113158075D01*
X114751232Y-113179183D01*
X114758071Y-113186022D01*
X114763312Y-113197261D01*
X114780700Y-113223284D01*
X114784607Y-113242930D01*
X114788471Y-113251215D01*
X114792806Y-113284149D01*
X114796000Y-113300203D01*
X114796000Y-115050203D01*
X114792806Y-115066257D01*
X114788471Y-115099190D01*
X114784608Y-115107473D01*
X114780700Y-115127122D01*
X114763310Y-115153146D01*
X114758071Y-115164383D01*
X114751234Y-115171219D01*
X114737128Y-115192331D01*
X114716016Y-115206437D01*
X114709180Y-115213274D01*
X114697943Y-115218513D01*
X114671919Y-115235903D01*
X114652270Y-115239811D01*
X114643987Y-115243674D01*
X114611054Y-115248009D01*
X114595000Y-115251203D01*
X114295000Y-115251203D01*
X114278946Y-115248009D01*
X114246012Y-115243674D01*
X114237727Y-115239810D01*
X114218081Y-115235903D01*
X114192058Y-115218515D01*
X114180819Y-115213274D01*
X114173980Y-115206435D01*
X114152872Y-115192331D01*
X114138767Y-115171222D01*
X114131928Y-115164383D01*
X114126686Y-115153141D01*
X114109300Y-115127122D01*
X114105392Y-115107477D01*
X114101528Y-115099190D01*
X114097190Y-115066243D01*
X114094000Y-115050203D01*
X114094000Y-113300203D01*
X114097190Y-113284164D01*
X114101528Y-113251215D01*
X114105392Y-113242926D01*
X114109300Y-113223284D01*
X114126684Y-113197266D01*
X114131928Y-113186022D01*
X114138769Y-113179180D01*
X114152872Y-113158075D01*
X114173977Y-113143972D01*
X114180819Y-113137131D01*
X114192063Y-113131887D01*
X114218081Y-113114503D01*
X114237723Y-113110595D01*
X114246012Y-113106731D01*
X114278961Y-113102393D01*
X114295000Y-113099203D01*
X114595000Y-113099203D01*
X114611040Y-113102393D01*
G37*
G36*
X115881040Y-113102393D02*
G01*
X115913987Y-113106731D01*
X115922274Y-113110595D01*
X115941919Y-113114503D01*
X115967938Y-113131889D01*
X115979180Y-113137131D01*
X115986019Y-113143970D01*
X116007128Y-113158075D01*
X116021232Y-113179183D01*
X116028071Y-113186022D01*
X116033312Y-113197261D01*
X116050700Y-113223284D01*
X116054607Y-113242930D01*
X116058471Y-113251215D01*
X116062806Y-113284149D01*
X116066000Y-113300203D01*
X116066000Y-115050203D01*
X116062806Y-115066257D01*
X116058471Y-115099190D01*
X116054608Y-115107473D01*
X116050700Y-115127122D01*
X116033310Y-115153146D01*
X116028071Y-115164383D01*
X116021234Y-115171219D01*
X116007128Y-115192331D01*
X115986016Y-115206437D01*
X115979180Y-115213274D01*
X115967943Y-115218513D01*
X115941919Y-115235903D01*
X115922270Y-115239811D01*
X115913987Y-115243674D01*
X115881054Y-115248009D01*
X115865000Y-115251203D01*
X115565000Y-115251203D01*
X115548946Y-115248009D01*
X115516012Y-115243674D01*
X115507727Y-115239810D01*
X115488081Y-115235903D01*
X115462058Y-115218515D01*
X115450819Y-115213274D01*
X115443980Y-115206435D01*
X115422872Y-115192331D01*
X115408767Y-115171222D01*
X115401928Y-115164383D01*
X115396686Y-115153141D01*
X115379300Y-115127122D01*
X115375392Y-115107477D01*
X115371528Y-115099190D01*
X115367190Y-115066243D01*
X115364000Y-115050203D01*
X115364000Y-113300203D01*
X115367190Y-113284164D01*
X115371528Y-113251215D01*
X115375392Y-113242926D01*
X115379300Y-113223284D01*
X115396684Y-113197266D01*
X115401928Y-113186022D01*
X115408769Y-113179180D01*
X115422872Y-113158075D01*
X115443977Y-113143972D01*
X115450819Y-113137131D01*
X115462063Y-113131887D01*
X115488081Y-113114503D01*
X115507723Y-113110595D01*
X115516012Y-113106731D01*
X115548961Y-113102393D01*
X115565000Y-113099203D01*
X115865000Y-113099203D01*
X115881040Y-113102393D01*
G37*
G36*
X117151040Y-113102393D02*
G01*
X117183987Y-113106731D01*
X117192274Y-113110595D01*
X117211919Y-113114503D01*
X117237938Y-113131889D01*
X117249180Y-113137131D01*
X117256019Y-113143970D01*
X117277128Y-113158075D01*
X117291232Y-113179183D01*
X117298071Y-113186022D01*
X117303312Y-113197261D01*
X117320700Y-113223284D01*
X117324607Y-113242930D01*
X117328471Y-113251215D01*
X117332806Y-113284149D01*
X117336000Y-113300203D01*
X117336000Y-115050203D01*
X117332806Y-115066257D01*
X117328471Y-115099190D01*
X117324608Y-115107473D01*
X117320700Y-115127122D01*
X117303310Y-115153146D01*
X117298071Y-115164383D01*
X117291234Y-115171219D01*
X117277128Y-115192331D01*
X117256016Y-115206437D01*
X117249180Y-115213274D01*
X117237943Y-115218513D01*
X117211919Y-115235903D01*
X117192270Y-115239811D01*
X117183987Y-115243674D01*
X117151054Y-115248009D01*
X117135000Y-115251203D01*
X116835000Y-115251203D01*
X116818946Y-115248009D01*
X116786012Y-115243674D01*
X116777727Y-115239810D01*
X116758081Y-115235903D01*
X116732058Y-115218515D01*
X116720819Y-115213274D01*
X116713980Y-115206435D01*
X116692872Y-115192331D01*
X116678767Y-115171222D01*
X116671928Y-115164383D01*
X116666686Y-115153141D01*
X116649300Y-115127122D01*
X116645392Y-115107477D01*
X116641528Y-115099190D01*
X116637190Y-115066243D01*
X116634000Y-115050203D01*
X116634000Y-113300203D01*
X116637190Y-113284164D01*
X116641528Y-113251215D01*
X116645392Y-113242926D01*
X116649300Y-113223284D01*
X116666684Y-113197266D01*
X116671928Y-113186022D01*
X116678769Y-113179180D01*
X116692872Y-113158075D01*
X116713977Y-113143972D01*
X116720819Y-113137131D01*
X116732063Y-113131887D01*
X116758081Y-113114503D01*
X116777723Y-113110595D01*
X116786012Y-113106731D01*
X116818961Y-113102393D01*
X116835000Y-113099203D01*
X117135000Y-113099203D01*
X117151040Y-113102393D01*
G37*
G36*
X118421040Y-113102393D02*
G01*
X118453987Y-113106731D01*
X118462274Y-113110595D01*
X118481919Y-113114503D01*
X118507938Y-113131889D01*
X118519180Y-113137131D01*
X118526019Y-113143970D01*
X118547128Y-113158075D01*
X118561232Y-113179183D01*
X118568071Y-113186022D01*
X118573312Y-113197261D01*
X118590700Y-113223284D01*
X118594607Y-113242930D01*
X118598471Y-113251215D01*
X118602806Y-113284149D01*
X118606000Y-113300203D01*
X118606000Y-115050203D01*
X118602806Y-115066257D01*
X118598471Y-115099190D01*
X118594608Y-115107473D01*
X118590700Y-115127122D01*
X118573310Y-115153146D01*
X118568071Y-115164383D01*
X118561234Y-115171219D01*
X118547128Y-115192331D01*
X118526016Y-115206437D01*
X118519180Y-115213274D01*
X118507943Y-115218513D01*
X118481919Y-115235903D01*
X118462270Y-115239811D01*
X118453987Y-115243674D01*
X118421054Y-115248009D01*
X118405000Y-115251203D01*
X118105000Y-115251203D01*
X118088946Y-115248009D01*
X118056012Y-115243674D01*
X118047727Y-115239810D01*
X118028081Y-115235903D01*
X118002058Y-115218515D01*
X117990819Y-115213274D01*
X117983980Y-115206435D01*
X117962872Y-115192331D01*
X117948767Y-115171222D01*
X117941928Y-115164383D01*
X117936686Y-115153141D01*
X117919300Y-115127122D01*
X117915392Y-115107477D01*
X117911528Y-115099190D01*
X117907190Y-115066243D01*
X117904000Y-115050203D01*
X117904000Y-113300203D01*
X117907190Y-113284164D01*
X117911528Y-113251215D01*
X117915392Y-113242926D01*
X117919300Y-113223284D01*
X117936684Y-113197266D01*
X117941928Y-113186022D01*
X117948769Y-113179180D01*
X117962872Y-113158075D01*
X117983977Y-113143972D01*
X117990819Y-113137131D01*
X118002063Y-113131887D01*
X118028081Y-113114503D01*
X118047723Y-113110595D01*
X118056012Y-113106731D01*
X118088961Y-113102393D01*
X118105000Y-113099203D01*
X118405000Y-113099203D01*
X118421040Y-113102393D01*
G37*
G36*
X119691040Y-113102393D02*
G01*
X119723987Y-113106731D01*
X119732274Y-113110595D01*
X119751919Y-113114503D01*
X119777938Y-113131889D01*
X119789180Y-113137131D01*
X119796019Y-113143970D01*
X119817128Y-113158075D01*
X119831232Y-113179183D01*
X119838071Y-113186022D01*
X119843312Y-113197261D01*
X119860700Y-113223284D01*
X119864607Y-113242930D01*
X119868471Y-113251215D01*
X119872806Y-113284149D01*
X119876000Y-113300203D01*
X119876000Y-115050203D01*
X119872806Y-115066257D01*
X119868471Y-115099190D01*
X119864608Y-115107473D01*
X119860700Y-115127122D01*
X119843310Y-115153146D01*
X119838071Y-115164383D01*
X119831234Y-115171219D01*
X119817128Y-115192331D01*
X119796016Y-115206437D01*
X119789180Y-115213274D01*
X119777943Y-115218513D01*
X119751919Y-115235903D01*
X119732270Y-115239811D01*
X119723987Y-115243674D01*
X119691054Y-115248009D01*
X119675000Y-115251203D01*
X119375000Y-115251203D01*
X119358946Y-115248009D01*
X119326012Y-115243674D01*
X119317727Y-115239810D01*
X119298081Y-115235903D01*
X119272058Y-115218515D01*
X119260819Y-115213274D01*
X119253980Y-115206435D01*
X119232872Y-115192331D01*
X119218767Y-115171222D01*
X119211928Y-115164383D01*
X119206686Y-115153141D01*
X119189300Y-115127122D01*
X119185392Y-115107477D01*
X119181528Y-115099190D01*
X119177190Y-115066243D01*
X119174000Y-115050203D01*
X119174000Y-113300203D01*
X119177190Y-113284164D01*
X119181528Y-113251215D01*
X119185392Y-113242926D01*
X119189300Y-113223284D01*
X119206684Y-113197266D01*
X119211928Y-113186022D01*
X119218769Y-113179180D01*
X119232872Y-113158075D01*
X119253977Y-113143972D01*
X119260819Y-113137131D01*
X119272063Y-113131887D01*
X119298081Y-113114503D01*
X119317723Y-113110595D01*
X119326012Y-113106731D01*
X119358961Y-113102393D01*
X119375000Y-113099203D01*
X119675000Y-113099203D01*
X119691040Y-113102393D01*
G37*
G36*
X120961040Y-113102393D02*
G01*
X120993987Y-113106731D01*
X121002274Y-113110595D01*
X121021919Y-113114503D01*
X121047938Y-113131889D01*
X121059180Y-113137131D01*
X121066019Y-113143970D01*
X121087128Y-113158075D01*
X121101232Y-113179183D01*
X121108071Y-113186022D01*
X121113312Y-113197261D01*
X121130700Y-113223284D01*
X121134607Y-113242930D01*
X121138471Y-113251215D01*
X121142806Y-113284149D01*
X121146000Y-113300203D01*
X121146000Y-115050203D01*
X121142806Y-115066257D01*
X121138471Y-115099190D01*
X121134608Y-115107473D01*
X121130700Y-115127122D01*
X121113310Y-115153146D01*
X121108071Y-115164383D01*
X121101234Y-115171219D01*
X121087128Y-115192331D01*
X121066016Y-115206437D01*
X121059180Y-115213274D01*
X121047943Y-115218513D01*
X121021919Y-115235903D01*
X121002270Y-115239811D01*
X120993987Y-115243674D01*
X120961054Y-115248009D01*
X120945000Y-115251203D01*
X120645000Y-115251203D01*
X120628946Y-115248009D01*
X120596012Y-115243674D01*
X120587727Y-115239810D01*
X120568081Y-115235903D01*
X120542058Y-115218515D01*
X120530819Y-115213274D01*
X120523980Y-115206435D01*
X120502872Y-115192331D01*
X120488767Y-115171222D01*
X120481928Y-115164383D01*
X120476686Y-115153141D01*
X120459300Y-115127122D01*
X120455392Y-115107477D01*
X120451528Y-115099190D01*
X120447190Y-115066243D01*
X120444000Y-115050203D01*
X120444000Y-113300203D01*
X120447190Y-113284164D01*
X120451528Y-113251215D01*
X120455392Y-113242926D01*
X120459300Y-113223284D01*
X120476684Y-113197266D01*
X120481928Y-113186022D01*
X120488769Y-113179180D01*
X120502872Y-113158075D01*
X120523977Y-113143972D01*
X120530819Y-113137131D01*
X120542063Y-113131887D01*
X120568081Y-113114503D01*
X120587723Y-113110595D01*
X120596012Y-113106731D01*
X120628961Y-113102393D01*
X120645000Y-113099203D01*
X120945000Y-113099203D01*
X120961040Y-113102393D01*
G37*
G36*
X102646971Y-112427749D02*
G01*
X102692111Y-112434326D01*
X102700395Y-112438376D01*
X102718232Y-112441924D01*
X102747075Y-112461196D01*
X102767022Y-112470948D01*
X102777800Y-112481726D01*
X102799662Y-112496334D01*
X102814269Y-112518195D01*
X102825047Y-112528973D01*
X102834797Y-112548917D01*
X102854072Y-112577764D01*
X102857620Y-112595601D01*
X102861669Y-112603884D01*
X102868243Y-112649008D01*
X102873178Y-112673818D01*
X102873178Y-113223818D01*
X102868242Y-113248630D01*
X102861669Y-113293751D01*
X102857620Y-113302032D01*
X102854072Y-113319872D01*
X102834795Y-113348721D01*
X102825047Y-113368662D01*
X102814271Y-113379437D01*
X102799662Y-113401302D01*
X102777797Y-113415911D01*
X102767022Y-113426687D01*
X102747081Y-113436435D01*
X102718232Y-113455712D01*
X102700392Y-113459260D01*
X102692111Y-113463309D01*
X102646990Y-113469882D01*
X102622178Y-113474818D01*
X102222178Y-113474818D01*
X102197368Y-113469883D01*
X102152244Y-113463309D01*
X102143961Y-113459260D01*
X102126124Y-113455712D01*
X102097277Y-113436437D01*
X102077333Y-113426687D01*
X102066555Y-113415909D01*
X102044694Y-113401302D01*
X102030086Y-113379440D01*
X102019308Y-113368662D01*
X102009556Y-113348715D01*
X101990284Y-113319872D01*
X101986736Y-113302035D01*
X101982686Y-113293751D01*
X101976109Y-113248611D01*
X101971178Y-113223818D01*
X101971178Y-112673818D01*
X101976109Y-112649027D01*
X101982686Y-112603884D01*
X101986736Y-112595598D01*
X101990284Y-112577764D01*
X102009554Y-112548923D01*
X102019308Y-112528973D01*
X102030088Y-112518192D01*
X102044694Y-112496334D01*
X102066552Y-112481728D01*
X102077333Y-112470948D01*
X102097283Y-112461194D01*
X102126124Y-112441924D01*
X102143958Y-112438376D01*
X102152244Y-112434326D01*
X102197387Y-112427749D01*
X102222178Y-112422818D01*
X102622178Y-112422818D01*
X102646971Y-112427749D01*
G37*
G36*
X104296971Y-112427749D02*
G01*
X104342111Y-112434326D01*
X104350395Y-112438376D01*
X104368232Y-112441924D01*
X104397075Y-112461196D01*
X104417022Y-112470948D01*
X104427800Y-112481726D01*
X104449662Y-112496334D01*
X104464269Y-112518195D01*
X104475047Y-112528973D01*
X104484797Y-112548917D01*
X104504072Y-112577764D01*
X104507620Y-112595601D01*
X104511669Y-112603884D01*
X104518243Y-112649008D01*
X104523178Y-112673818D01*
X104523178Y-113223818D01*
X104518242Y-113248630D01*
X104511669Y-113293751D01*
X104507620Y-113302032D01*
X104504072Y-113319872D01*
X104484795Y-113348721D01*
X104475047Y-113368662D01*
X104464271Y-113379437D01*
X104449662Y-113401302D01*
X104427797Y-113415911D01*
X104417022Y-113426687D01*
X104397081Y-113436435D01*
X104368232Y-113455712D01*
X104350392Y-113459260D01*
X104342111Y-113463309D01*
X104296990Y-113469882D01*
X104272178Y-113474818D01*
X103872178Y-113474818D01*
X103847368Y-113469883D01*
X103802244Y-113463309D01*
X103793961Y-113459260D01*
X103776124Y-113455712D01*
X103747277Y-113436437D01*
X103727333Y-113426687D01*
X103716555Y-113415909D01*
X103694694Y-113401302D01*
X103680086Y-113379440D01*
X103669308Y-113368662D01*
X103659556Y-113348715D01*
X103640284Y-113319872D01*
X103636736Y-113302035D01*
X103632686Y-113293751D01*
X103626109Y-113248611D01*
X103621178Y-113223818D01*
X103621178Y-112673818D01*
X103626109Y-112649027D01*
X103632686Y-112603884D01*
X103636736Y-112595598D01*
X103640284Y-112577764D01*
X103659554Y-112548923D01*
X103669308Y-112528973D01*
X103680088Y-112518192D01*
X103694694Y-112496334D01*
X103716552Y-112481728D01*
X103727333Y-112470948D01*
X103747283Y-112461194D01*
X103776124Y-112441924D01*
X103793958Y-112438376D01*
X103802244Y-112434326D01*
X103847387Y-112427749D01*
X103872178Y-112422818D01*
X104272178Y-112422818D01*
X104296971Y-112427749D01*
G37*
G36*
X91223313Y-111128542D02*
G01*
X91396546Y-111163000D01*
X91559728Y-111230592D01*
X91706588Y-111328721D01*
X91831482Y-111453615D01*
X91929611Y-111600475D01*
X91997203Y-111763657D01*
X92031661Y-111936890D01*
X92031661Y-112113516D01*
X91997203Y-112286749D01*
X91929611Y-112449931D01*
X91831482Y-112596791D01*
X91706588Y-112721685D01*
X91559728Y-112819814D01*
X91396546Y-112887406D01*
X91223313Y-112921864D01*
X91135000Y-112926203D01*
X91131941Y-112926203D01*
X90888059Y-112926203D01*
X90885000Y-112926203D01*
X90796687Y-112921864D01*
X90623454Y-112887406D01*
X90460272Y-112819814D01*
X90313412Y-112721685D01*
X90188518Y-112596791D01*
X90090389Y-112449931D01*
X90022797Y-112286749D01*
X89988339Y-112113516D01*
X89988339Y-111936890D01*
X90022797Y-111763657D01*
X90090389Y-111600475D01*
X90188518Y-111453615D01*
X90313412Y-111328721D01*
X90460272Y-111230592D01*
X90623454Y-111163000D01*
X90796687Y-111128542D01*
X90885000Y-111124203D01*
X91135000Y-111124203D01*
X91223313Y-111128542D01*
G37*
G36*
X124903313Y-111063339D02*
G01*
X125076546Y-111097797D01*
X125239728Y-111165389D01*
X125386588Y-111263518D01*
X125511482Y-111388412D01*
X125609611Y-111535272D01*
X125677203Y-111698454D01*
X125711661Y-111871687D01*
X125711661Y-112048313D01*
X125677203Y-112221546D01*
X125609611Y-112384728D01*
X125511482Y-112531588D01*
X125386588Y-112656482D01*
X125239728Y-112754611D01*
X125076546Y-112822203D01*
X124903313Y-112856661D01*
X124815000Y-112861000D01*
X124811941Y-112861000D01*
X124568059Y-112861000D01*
X124565000Y-112861000D01*
X124476687Y-112856661D01*
X124303454Y-112822203D01*
X124140272Y-112754611D01*
X123993412Y-112656482D01*
X123868518Y-112531588D01*
X123770389Y-112384728D01*
X123702797Y-112221546D01*
X123668339Y-112048313D01*
X123668339Y-111871687D01*
X123702797Y-111698454D01*
X123770389Y-111535272D01*
X123868518Y-111388412D01*
X123993412Y-111263518D01*
X124140272Y-111165389D01*
X124303454Y-111097797D01*
X124476687Y-111063339D01*
X124565000Y-111059000D01*
X124815000Y-111059000D01*
X124903313Y-111063339D01*
G37*
G36*
X98477386Y-109868742D02*
G01*
X98493198Y-109875723D01*
X98501003Y-109876960D01*
X98533511Y-109893523D01*
X98578578Y-109913423D01*
X98656796Y-109991641D01*
X98676698Y-110036714D01*
X98693258Y-110069215D01*
X98694493Y-110077017D01*
X98701477Y-110092833D01*
X98709472Y-110161747D01*
X98709472Y-111361747D01*
X98701477Y-111430661D01*
X98694493Y-111446476D01*
X98693258Y-111454278D01*
X98676701Y-111486771D01*
X98656796Y-111531853D01*
X98578578Y-111610071D01*
X98533496Y-111629976D01*
X98501003Y-111646533D01*
X98493201Y-111647768D01*
X98477386Y-111654752D01*
X98408472Y-111662747D01*
X96908472Y-111662747D01*
X96839558Y-111654752D01*
X96823742Y-111647768D01*
X96815940Y-111646533D01*
X96783439Y-111629973D01*
X96738366Y-111610071D01*
X96660148Y-111531853D01*
X96640248Y-111486786D01*
X96623685Y-111454278D01*
X96622448Y-111446473D01*
X96615467Y-111430661D01*
X96607472Y-111361747D01*
X96607472Y-110161747D01*
X96615467Y-110092833D01*
X96622448Y-110077021D01*
X96623685Y-110069215D01*
X96640252Y-110036700D01*
X96660148Y-109991641D01*
X96738366Y-109913423D01*
X96783425Y-109893527D01*
X96815940Y-109876960D01*
X96823746Y-109875723D01*
X96839558Y-109868742D01*
X96908472Y-109860747D01*
X98408472Y-109860747D01*
X98477386Y-109868742D01*
G37*
G36*
X102731528Y-110226425D02*
G01*
X102777901Y-110233770D01*
X102783952Y-110236853D01*
X102798716Y-110239790D01*
X102827620Y-110259104D01*
X102854406Y-110272752D01*
X102867213Y-110285559D01*
X102888256Y-110299620D01*
X102902316Y-110320662D01*
X102915123Y-110333469D01*
X102928769Y-110360252D01*
X102948086Y-110389160D01*
X102951022Y-110403925D01*
X102954105Y-110409974D01*
X102961446Y-110456326D01*
X102969095Y-110494781D01*
X102969095Y-110994781D01*
X102961445Y-111033239D01*
X102954105Y-111079587D01*
X102951023Y-111085635D01*
X102948086Y-111100402D01*
X102928767Y-111129313D01*
X102915123Y-111156092D01*
X102902318Y-111168896D01*
X102888256Y-111189942D01*
X102867210Y-111204004D01*
X102854406Y-111216809D01*
X102827627Y-111230453D01*
X102798716Y-111249772D01*
X102783949Y-111252709D01*
X102777901Y-111255791D01*
X102731553Y-111263131D01*
X102693095Y-111270781D01*
X102243095Y-111270781D01*
X102204640Y-111263132D01*
X102158288Y-111255791D01*
X102152239Y-111252708D01*
X102137474Y-111249772D01*
X102108566Y-111230455D01*
X102081783Y-111216809D01*
X102068976Y-111204002D01*
X102047934Y-111189942D01*
X102033873Y-111168899D01*
X102021066Y-111156092D01*
X102007418Y-111129306D01*
X101988104Y-111100402D01*
X101985167Y-111085638D01*
X101982084Y-111079587D01*
X101974739Y-111033214D01*
X101967095Y-110994781D01*
X101967095Y-110494781D01*
X101974739Y-110456351D01*
X101982084Y-110409974D01*
X101985167Y-110403922D01*
X101988104Y-110389160D01*
X102007415Y-110360258D01*
X102021066Y-110333469D01*
X102033875Y-110320659D01*
X102047934Y-110299620D01*
X102068973Y-110285561D01*
X102081783Y-110272752D01*
X102108572Y-110259101D01*
X102137474Y-110239790D01*
X102152236Y-110236853D01*
X102158288Y-110233770D01*
X102204665Y-110226425D01*
X102243095Y-110218781D01*
X102693095Y-110218781D01*
X102731528Y-110226425D01*
G37*
G36*
X104281528Y-110226425D02*
G01*
X104327901Y-110233770D01*
X104333952Y-110236853D01*
X104348716Y-110239790D01*
X104377620Y-110259104D01*
X104404406Y-110272752D01*
X104417213Y-110285559D01*
X104438256Y-110299620D01*
X104452316Y-110320662D01*
X104465123Y-110333469D01*
X104478769Y-110360252D01*
X104498086Y-110389160D01*
X104501022Y-110403925D01*
X104504105Y-110409974D01*
X104511446Y-110456326D01*
X104519095Y-110494781D01*
X104519095Y-110994781D01*
X104511445Y-111033239D01*
X104504105Y-111079587D01*
X104501023Y-111085635D01*
X104498086Y-111100402D01*
X104478767Y-111129313D01*
X104465123Y-111156092D01*
X104452318Y-111168896D01*
X104438256Y-111189942D01*
X104417210Y-111204004D01*
X104404406Y-111216809D01*
X104377627Y-111230453D01*
X104348716Y-111249772D01*
X104333949Y-111252709D01*
X104327901Y-111255791D01*
X104281553Y-111263131D01*
X104243095Y-111270781D01*
X103793095Y-111270781D01*
X103754640Y-111263132D01*
X103708288Y-111255791D01*
X103702239Y-111252708D01*
X103687474Y-111249772D01*
X103658566Y-111230455D01*
X103631783Y-111216809D01*
X103618976Y-111204002D01*
X103597934Y-111189942D01*
X103583873Y-111168899D01*
X103571066Y-111156092D01*
X103557418Y-111129306D01*
X103538104Y-111100402D01*
X103535167Y-111085638D01*
X103532084Y-111079587D01*
X103524739Y-111033214D01*
X103517095Y-110994781D01*
X103517095Y-110494781D01*
X103524739Y-110456351D01*
X103532084Y-110409974D01*
X103535167Y-110403922D01*
X103538104Y-110389160D01*
X103557415Y-110360258D01*
X103571066Y-110333469D01*
X103583875Y-110320659D01*
X103597934Y-110299620D01*
X103618973Y-110285561D01*
X103631783Y-110272752D01*
X103658572Y-110259101D01*
X103687474Y-110239790D01*
X103702236Y-110236853D01*
X103708288Y-110233770D01*
X103754665Y-110226425D01*
X103793095Y-110218781D01*
X104243095Y-110218781D01*
X104281528Y-110226425D01*
G37*
G36*
X91223313Y-108628542D02*
G01*
X91396546Y-108663000D01*
X91559728Y-108730592D01*
X91706588Y-108828721D01*
X91831482Y-108953615D01*
X91929611Y-109100475D01*
X91997203Y-109263657D01*
X92031661Y-109436890D01*
X92031661Y-109613516D01*
X91997203Y-109786749D01*
X91929611Y-109949931D01*
X91831482Y-110096791D01*
X91706588Y-110221685D01*
X91559728Y-110319814D01*
X91396546Y-110387406D01*
X91223313Y-110421864D01*
X91135000Y-110426203D01*
X91131941Y-110426203D01*
X90888059Y-110426203D01*
X90885000Y-110426203D01*
X90796687Y-110421864D01*
X90623454Y-110387406D01*
X90460272Y-110319814D01*
X90313412Y-110221685D01*
X90188518Y-110096791D01*
X90090389Y-109949931D01*
X90022797Y-109786749D01*
X89988339Y-109613516D01*
X89988339Y-109436890D01*
X90022797Y-109263657D01*
X90090389Y-109100475D01*
X90188518Y-108953615D01*
X90313412Y-108828721D01*
X90460272Y-108730592D01*
X90623454Y-108663000D01*
X90796687Y-108628542D01*
X90885000Y-108624203D01*
X91135000Y-108624203D01*
X91223313Y-108628542D01*
G37*
G36*
X124903313Y-108563339D02*
G01*
X125076546Y-108597797D01*
X125239728Y-108665389D01*
X125386588Y-108763518D01*
X125511482Y-108888412D01*
X125609611Y-109035272D01*
X125677203Y-109198454D01*
X125711661Y-109371687D01*
X125711661Y-109548313D01*
X125677203Y-109721546D01*
X125609611Y-109884728D01*
X125511482Y-110031588D01*
X125386588Y-110156482D01*
X125239728Y-110254611D01*
X125076546Y-110322203D01*
X124903313Y-110356661D01*
X124815000Y-110361000D01*
X124811941Y-110361000D01*
X124568059Y-110361000D01*
X124565000Y-110361000D01*
X124476687Y-110356661D01*
X124303454Y-110322203D01*
X124140272Y-110254611D01*
X123993412Y-110156482D01*
X123868518Y-110031588D01*
X123770389Y-109884728D01*
X123702797Y-109721546D01*
X123668339Y-109548313D01*
X123668339Y-109371687D01*
X123702797Y-109198454D01*
X123770389Y-109035272D01*
X123868518Y-108888412D01*
X123993412Y-108763518D01*
X124140272Y-108665389D01*
X124303454Y-108597797D01*
X124476687Y-108563339D01*
X124565000Y-108559000D01*
X124815000Y-108559000D01*
X124903313Y-108563339D01*
G37*
G36*
X104440607Y-108335672D02*
G01*
X104456419Y-108342653D01*
X104464224Y-108343890D01*
X104496732Y-108360453D01*
X104541799Y-108380353D01*
X104620017Y-108458571D01*
X104639919Y-108503644D01*
X104656479Y-108536145D01*
X104657714Y-108543947D01*
X104664698Y-108559763D01*
X104672693Y-108628677D01*
X104672693Y-109468677D01*
X104664698Y-109537591D01*
X104657714Y-109553406D01*
X104656479Y-109561208D01*
X104639922Y-109593701D01*
X104620017Y-109638783D01*
X104541799Y-109717001D01*
X104496717Y-109736906D01*
X104464224Y-109753463D01*
X104456422Y-109754698D01*
X104440607Y-109761682D01*
X104371693Y-109769677D01*
X102481693Y-109769677D01*
X102412779Y-109761682D01*
X102396963Y-109754698D01*
X102389161Y-109753463D01*
X102356660Y-109736903D01*
X102311587Y-109717001D01*
X102233369Y-109638783D01*
X102213469Y-109593716D01*
X102196906Y-109561208D01*
X102195669Y-109553403D01*
X102188688Y-109537591D01*
X102180693Y-109468677D01*
X102180693Y-108628677D01*
X102188688Y-108559763D01*
X102195669Y-108543951D01*
X102196906Y-108536145D01*
X102213473Y-108503630D01*
X102233369Y-108458571D01*
X102311587Y-108380353D01*
X102356646Y-108360457D01*
X102389161Y-108343890D01*
X102396967Y-108342653D01*
X102412779Y-108335672D01*
X102481693Y-108327677D01*
X104371693Y-108327677D01*
X104440607Y-108335672D01*
G37*
G36*
X97896785Y-107365086D02*
G01*
X98070018Y-107399544D01*
X98233200Y-107467136D01*
X98380060Y-107565265D01*
X98504954Y-107690159D01*
X98603083Y-107837019D01*
X98670675Y-108000201D01*
X98705133Y-108173434D01*
X98705133Y-108350060D01*
X98670675Y-108523293D01*
X98603083Y-108686475D01*
X98504954Y-108833335D01*
X98380060Y-108958229D01*
X98233200Y-109056358D01*
X98070018Y-109123950D01*
X97896785Y-109158408D01*
X97808472Y-109162747D01*
X97805413Y-109162747D01*
X97511531Y-109162747D01*
X97508472Y-109162747D01*
X97420159Y-109158408D01*
X97246926Y-109123950D01*
X97083744Y-109056358D01*
X96936884Y-108958229D01*
X96811990Y-108833335D01*
X96713861Y-108686475D01*
X96646269Y-108523293D01*
X96611811Y-108350060D01*
X96611811Y-108173434D01*
X96646269Y-108000201D01*
X96713861Y-107837019D01*
X96811990Y-107690159D01*
X96936884Y-107565265D01*
X97083744Y-107467136D01*
X97246926Y-107399544D01*
X97420159Y-107365086D01*
X97508472Y-107360747D01*
X97808472Y-107360747D01*
X97896785Y-107365086D01*
G37*
G36*
X91223313Y-106128542D02*
G01*
X91396546Y-106163000D01*
X91559728Y-106230592D01*
X91706588Y-106328721D01*
X91831482Y-106453615D01*
X91929611Y-106600475D01*
X91997203Y-106763657D01*
X92031661Y-106936890D01*
X92031661Y-107113516D01*
X91997203Y-107286749D01*
X91929611Y-107449931D01*
X91831482Y-107596791D01*
X91706588Y-107721685D01*
X91559728Y-107819814D01*
X91396546Y-107887406D01*
X91223313Y-107921864D01*
X91135000Y-107926203D01*
X91131941Y-107926203D01*
X90888059Y-107926203D01*
X90885000Y-107926203D01*
X90796687Y-107921864D01*
X90623454Y-107887406D01*
X90460272Y-107819814D01*
X90313412Y-107721685D01*
X90188518Y-107596791D01*
X90090389Y-107449931D01*
X90022797Y-107286749D01*
X89988339Y-107113516D01*
X89988339Y-106936890D01*
X90022797Y-106763657D01*
X90090389Y-106600475D01*
X90188518Y-106453615D01*
X90313412Y-106328721D01*
X90460272Y-106230592D01*
X90623454Y-106163000D01*
X90796687Y-106128542D01*
X90885000Y-106124203D01*
X91135000Y-106124203D01*
X91223313Y-106128542D01*
G37*
G36*
X124903313Y-106063339D02*
G01*
X125076546Y-106097797D01*
X125239728Y-106165389D01*
X125386588Y-106263518D01*
X125511482Y-106388412D01*
X125609611Y-106535272D01*
X125677203Y-106698454D01*
X125711661Y-106871687D01*
X125711661Y-107048313D01*
X125677203Y-107221546D01*
X125609611Y-107384728D01*
X125511482Y-107531588D01*
X125386588Y-107656482D01*
X125239728Y-107754611D01*
X125076546Y-107822203D01*
X124903313Y-107856661D01*
X124815000Y-107861000D01*
X124811941Y-107861000D01*
X124568059Y-107861000D01*
X124565000Y-107861000D01*
X124476687Y-107856661D01*
X124303454Y-107822203D01*
X124140272Y-107754611D01*
X123993412Y-107656482D01*
X123868518Y-107531588D01*
X123770389Y-107384728D01*
X123702797Y-107221546D01*
X123668339Y-107048313D01*
X123668339Y-106871687D01*
X123702797Y-106698454D01*
X123770389Y-106535272D01*
X123868518Y-106388412D01*
X123993412Y-106263518D01*
X124140272Y-106165389D01*
X124303454Y-106097797D01*
X124476687Y-106063339D01*
X124565000Y-106059000D01*
X124815000Y-106059000D01*
X124903313Y-106063339D01*
G37*
G36*
X104440607Y-105255672D02*
G01*
X104456419Y-105262653D01*
X104464224Y-105263890D01*
X104496732Y-105280453D01*
X104541799Y-105300353D01*
X104620017Y-105378571D01*
X104639919Y-105423644D01*
X104656479Y-105456145D01*
X104657714Y-105463947D01*
X104664698Y-105479763D01*
X104672693Y-105548677D01*
X104672693Y-106388677D01*
X104664698Y-106457591D01*
X104657714Y-106473406D01*
X104656479Y-106481208D01*
X104639922Y-106513701D01*
X104620017Y-106558783D01*
X104541799Y-106637001D01*
X104496717Y-106656906D01*
X104464224Y-106673463D01*
X104456422Y-106674698D01*
X104440607Y-106681682D01*
X104371693Y-106689677D01*
X102481693Y-106689677D01*
X102412779Y-106681682D01*
X102396963Y-106674698D01*
X102389161Y-106673463D01*
X102356660Y-106656903D01*
X102311587Y-106637001D01*
X102233369Y-106558783D01*
X102213469Y-106513716D01*
X102196906Y-106481208D01*
X102195669Y-106473403D01*
X102188688Y-106457591D01*
X102180693Y-106388677D01*
X102180693Y-105548677D01*
X102188688Y-105479763D01*
X102195669Y-105463951D01*
X102196906Y-105456145D01*
X102213473Y-105423630D01*
X102233369Y-105378571D01*
X102311587Y-105300353D01*
X102356646Y-105280457D01*
X102389161Y-105263890D01*
X102396967Y-105262653D01*
X102412779Y-105255672D01*
X102481693Y-105247677D01*
X104371693Y-105247677D01*
X104440607Y-105255672D01*
G37*
G36*
X106991040Y-103802393D02*
G01*
X107023987Y-103806731D01*
X107032274Y-103810595D01*
X107051919Y-103814503D01*
X107077938Y-103831889D01*
X107089180Y-103837131D01*
X107096019Y-103843970D01*
X107117128Y-103858075D01*
X107131232Y-103879183D01*
X107138071Y-103886022D01*
X107143312Y-103897261D01*
X107160700Y-103923284D01*
X107164607Y-103942930D01*
X107168471Y-103951215D01*
X107172806Y-103984149D01*
X107176000Y-104000203D01*
X107176000Y-105750203D01*
X107172806Y-105766257D01*
X107168471Y-105799190D01*
X107164608Y-105807473D01*
X107160700Y-105827122D01*
X107143310Y-105853146D01*
X107138071Y-105864383D01*
X107131234Y-105871219D01*
X107117128Y-105892331D01*
X107096016Y-105906437D01*
X107089180Y-105913274D01*
X107077943Y-105918513D01*
X107051919Y-105935903D01*
X107032270Y-105939811D01*
X107023987Y-105943674D01*
X106991054Y-105948009D01*
X106975000Y-105951203D01*
X106675000Y-105951203D01*
X106658946Y-105948009D01*
X106626012Y-105943674D01*
X106617727Y-105939810D01*
X106598081Y-105935903D01*
X106572058Y-105918515D01*
X106560819Y-105913274D01*
X106553980Y-105906435D01*
X106532872Y-105892331D01*
X106518767Y-105871222D01*
X106511928Y-105864383D01*
X106506686Y-105853141D01*
X106489300Y-105827122D01*
X106485392Y-105807477D01*
X106481528Y-105799190D01*
X106477190Y-105766243D01*
X106474000Y-105750203D01*
X106474000Y-104000203D01*
X106477190Y-103984164D01*
X106481528Y-103951215D01*
X106485392Y-103942926D01*
X106489300Y-103923284D01*
X106506684Y-103897266D01*
X106511928Y-103886022D01*
X106518769Y-103879180D01*
X106532872Y-103858075D01*
X106553977Y-103843972D01*
X106560819Y-103837131D01*
X106572063Y-103831887D01*
X106598081Y-103814503D01*
X106617723Y-103810595D01*
X106626012Y-103806731D01*
X106658961Y-103802393D01*
X106675000Y-103799203D01*
X106975000Y-103799203D01*
X106991040Y-103802393D01*
G37*
G36*
X108261040Y-103802393D02*
G01*
X108293987Y-103806731D01*
X108302274Y-103810595D01*
X108321919Y-103814503D01*
X108347938Y-103831889D01*
X108359180Y-103837131D01*
X108366019Y-103843970D01*
X108387128Y-103858075D01*
X108401232Y-103879183D01*
X108408071Y-103886022D01*
X108413312Y-103897261D01*
X108430700Y-103923284D01*
X108434607Y-103942930D01*
X108438471Y-103951215D01*
X108442806Y-103984149D01*
X108446000Y-104000203D01*
X108446000Y-105750203D01*
X108442806Y-105766257D01*
X108438471Y-105799190D01*
X108434608Y-105807473D01*
X108430700Y-105827122D01*
X108413310Y-105853146D01*
X108408071Y-105864383D01*
X108401234Y-105871219D01*
X108387128Y-105892331D01*
X108366016Y-105906437D01*
X108359180Y-105913274D01*
X108347943Y-105918513D01*
X108321919Y-105935903D01*
X108302270Y-105939811D01*
X108293987Y-105943674D01*
X108261054Y-105948009D01*
X108245000Y-105951203D01*
X107945000Y-105951203D01*
X107928946Y-105948009D01*
X107896012Y-105943674D01*
X107887727Y-105939810D01*
X107868081Y-105935903D01*
X107842058Y-105918515D01*
X107830819Y-105913274D01*
X107823980Y-105906435D01*
X107802872Y-105892331D01*
X107788767Y-105871222D01*
X107781928Y-105864383D01*
X107776686Y-105853141D01*
X107759300Y-105827122D01*
X107755392Y-105807477D01*
X107751528Y-105799190D01*
X107747190Y-105766243D01*
X107744000Y-105750203D01*
X107744000Y-104000203D01*
X107747190Y-103984164D01*
X107751528Y-103951215D01*
X107755392Y-103942926D01*
X107759300Y-103923284D01*
X107776684Y-103897266D01*
X107781928Y-103886022D01*
X107788769Y-103879180D01*
X107802872Y-103858075D01*
X107823977Y-103843972D01*
X107830819Y-103837131D01*
X107842063Y-103831887D01*
X107868081Y-103814503D01*
X107887723Y-103810595D01*
X107896012Y-103806731D01*
X107928961Y-103802393D01*
X107945000Y-103799203D01*
X108245000Y-103799203D01*
X108261040Y-103802393D01*
G37*
G36*
X109531040Y-103802393D02*
G01*
X109563987Y-103806731D01*
X109572274Y-103810595D01*
X109591919Y-103814503D01*
X109617938Y-103831889D01*
X109629180Y-103837131D01*
X109636019Y-103843970D01*
X109657128Y-103858075D01*
X109671232Y-103879183D01*
X109678071Y-103886022D01*
X109683312Y-103897261D01*
X109700700Y-103923284D01*
X109704607Y-103942930D01*
X109708471Y-103951215D01*
X109712806Y-103984149D01*
X109716000Y-104000203D01*
X109716000Y-105750203D01*
X109712806Y-105766257D01*
X109708471Y-105799190D01*
X109704608Y-105807473D01*
X109700700Y-105827122D01*
X109683310Y-105853146D01*
X109678071Y-105864383D01*
X109671234Y-105871219D01*
X109657128Y-105892331D01*
X109636016Y-105906437D01*
X109629180Y-105913274D01*
X109617943Y-105918513D01*
X109591919Y-105935903D01*
X109572270Y-105939811D01*
X109563987Y-105943674D01*
X109531054Y-105948009D01*
X109515000Y-105951203D01*
X109215000Y-105951203D01*
X109198946Y-105948009D01*
X109166012Y-105943674D01*
X109157727Y-105939810D01*
X109138081Y-105935903D01*
X109112058Y-105918515D01*
X109100819Y-105913274D01*
X109093980Y-105906435D01*
X109072872Y-105892331D01*
X109058767Y-105871222D01*
X109051928Y-105864383D01*
X109046686Y-105853141D01*
X109029300Y-105827122D01*
X109025392Y-105807477D01*
X109021528Y-105799190D01*
X109017190Y-105766243D01*
X109014000Y-105750203D01*
X109014000Y-104000203D01*
X109017190Y-103984164D01*
X109021528Y-103951215D01*
X109025392Y-103942926D01*
X109029300Y-103923284D01*
X109046684Y-103897266D01*
X109051928Y-103886022D01*
X109058769Y-103879180D01*
X109072872Y-103858075D01*
X109093977Y-103843972D01*
X109100819Y-103837131D01*
X109112063Y-103831887D01*
X109138081Y-103814503D01*
X109157723Y-103810595D01*
X109166012Y-103806731D01*
X109198961Y-103802393D01*
X109215000Y-103799203D01*
X109515000Y-103799203D01*
X109531040Y-103802393D01*
G37*
G36*
X110801040Y-103802393D02*
G01*
X110833987Y-103806731D01*
X110842274Y-103810595D01*
X110861919Y-103814503D01*
X110887938Y-103831889D01*
X110899180Y-103837131D01*
X110906019Y-103843970D01*
X110927128Y-103858075D01*
X110941232Y-103879183D01*
X110948071Y-103886022D01*
X110953312Y-103897261D01*
X110970700Y-103923284D01*
X110974607Y-103942930D01*
X110978471Y-103951215D01*
X110982806Y-103984149D01*
X110986000Y-104000203D01*
X110986000Y-105750203D01*
X110982806Y-105766257D01*
X110978471Y-105799190D01*
X110974608Y-105807473D01*
X110970700Y-105827122D01*
X110953310Y-105853146D01*
X110948071Y-105864383D01*
X110941234Y-105871219D01*
X110927128Y-105892331D01*
X110906016Y-105906437D01*
X110899180Y-105913274D01*
X110887943Y-105918513D01*
X110861919Y-105935903D01*
X110842270Y-105939811D01*
X110833987Y-105943674D01*
X110801054Y-105948009D01*
X110785000Y-105951203D01*
X110485000Y-105951203D01*
X110468946Y-105948009D01*
X110436012Y-105943674D01*
X110427727Y-105939810D01*
X110408081Y-105935903D01*
X110382058Y-105918515D01*
X110370819Y-105913274D01*
X110363980Y-105906435D01*
X110342872Y-105892331D01*
X110328767Y-105871222D01*
X110321928Y-105864383D01*
X110316686Y-105853141D01*
X110299300Y-105827122D01*
X110295392Y-105807477D01*
X110291528Y-105799190D01*
X110287190Y-105766243D01*
X110284000Y-105750203D01*
X110284000Y-104000203D01*
X110287190Y-103984164D01*
X110291528Y-103951215D01*
X110295392Y-103942926D01*
X110299300Y-103923284D01*
X110316684Y-103897266D01*
X110321928Y-103886022D01*
X110328769Y-103879180D01*
X110342872Y-103858075D01*
X110363977Y-103843972D01*
X110370819Y-103837131D01*
X110382063Y-103831887D01*
X110408081Y-103814503D01*
X110427723Y-103810595D01*
X110436012Y-103806731D01*
X110468961Y-103802393D01*
X110485000Y-103799203D01*
X110785000Y-103799203D01*
X110801040Y-103802393D01*
G37*
G36*
X112071040Y-103802393D02*
G01*
X112103987Y-103806731D01*
X112112274Y-103810595D01*
X112131919Y-103814503D01*
X112157938Y-103831889D01*
X112169180Y-103837131D01*
X112176019Y-103843970D01*
X112197128Y-103858075D01*
X112211232Y-103879183D01*
X112218071Y-103886022D01*
X112223312Y-103897261D01*
X112240700Y-103923284D01*
X112244607Y-103942930D01*
X112248471Y-103951215D01*
X112252806Y-103984149D01*
X112256000Y-104000203D01*
X112256000Y-105750203D01*
X112252806Y-105766257D01*
X112248471Y-105799190D01*
X112244608Y-105807473D01*
X112240700Y-105827122D01*
X112223310Y-105853146D01*
X112218071Y-105864383D01*
X112211234Y-105871219D01*
X112197128Y-105892331D01*
X112176016Y-105906437D01*
X112169180Y-105913274D01*
X112157943Y-105918513D01*
X112131919Y-105935903D01*
X112112270Y-105939811D01*
X112103987Y-105943674D01*
X112071054Y-105948009D01*
X112055000Y-105951203D01*
X111755000Y-105951203D01*
X111738946Y-105948009D01*
X111706012Y-105943674D01*
X111697727Y-105939810D01*
X111678081Y-105935903D01*
X111652058Y-105918515D01*
X111640819Y-105913274D01*
X111633980Y-105906435D01*
X111612872Y-105892331D01*
X111598767Y-105871222D01*
X111591928Y-105864383D01*
X111586686Y-105853141D01*
X111569300Y-105827122D01*
X111565392Y-105807477D01*
X111561528Y-105799190D01*
X111557190Y-105766243D01*
X111554000Y-105750203D01*
X111554000Y-104000203D01*
X111557190Y-103984164D01*
X111561528Y-103951215D01*
X111565392Y-103942926D01*
X111569300Y-103923284D01*
X111586684Y-103897266D01*
X111591928Y-103886022D01*
X111598769Y-103879180D01*
X111612872Y-103858075D01*
X111633977Y-103843972D01*
X111640819Y-103837131D01*
X111652063Y-103831887D01*
X111678081Y-103814503D01*
X111697723Y-103810595D01*
X111706012Y-103806731D01*
X111738961Y-103802393D01*
X111755000Y-103799203D01*
X112055000Y-103799203D01*
X112071040Y-103802393D01*
G37*
G36*
X113341040Y-103802393D02*
G01*
X113373987Y-103806731D01*
X113382274Y-103810595D01*
X113401919Y-103814503D01*
X113427938Y-103831889D01*
X113439180Y-103837131D01*
X113446019Y-103843970D01*
X113467128Y-103858075D01*
X113481232Y-103879183D01*
X113488071Y-103886022D01*
X113493312Y-103897261D01*
X113510700Y-103923284D01*
X113514607Y-103942930D01*
X113518471Y-103951215D01*
X113522806Y-103984149D01*
X113526000Y-104000203D01*
X113526000Y-105750203D01*
X113522806Y-105766257D01*
X113518471Y-105799190D01*
X113514608Y-105807473D01*
X113510700Y-105827122D01*
X113493310Y-105853146D01*
X113488071Y-105864383D01*
X113481234Y-105871219D01*
X113467128Y-105892331D01*
X113446016Y-105906437D01*
X113439180Y-105913274D01*
X113427943Y-105918513D01*
X113401919Y-105935903D01*
X113382270Y-105939811D01*
X113373987Y-105943674D01*
X113341054Y-105948009D01*
X113325000Y-105951203D01*
X113025000Y-105951203D01*
X113008946Y-105948009D01*
X112976012Y-105943674D01*
X112967727Y-105939810D01*
X112948081Y-105935903D01*
X112922058Y-105918515D01*
X112910819Y-105913274D01*
X112903980Y-105906435D01*
X112882872Y-105892331D01*
X112868767Y-105871222D01*
X112861928Y-105864383D01*
X112856686Y-105853141D01*
X112839300Y-105827122D01*
X112835392Y-105807477D01*
X112831528Y-105799190D01*
X112827190Y-105766243D01*
X112824000Y-105750203D01*
X112824000Y-104000203D01*
X112827190Y-103984164D01*
X112831528Y-103951215D01*
X112835392Y-103942926D01*
X112839300Y-103923284D01*
X112856684Y-103897266D01*
X112861928Y-103886022D01*
X112868769Y-103879180D01*
X112882872Y-103858075D01*
X112903977Y-103843972D01*
X112910819Y-103837131D01*
X112922063Y-103831887D01*
X112948081Y-103814503D01*
X112967723Y-103810595D01*
X112976012Y-103806731D01*
X113008961Y-103802393D01*
X113025000Y-103799203D01*
X113325000Y-103799203D01*
X113341040Y-103802393D01*
G37*
G36*
X114611040Y-103802393D02*
G01*
X114643987Y-103806731D01*
X114652274Y-103810595D01*
X114671919Y-103814503D01*
X114697938Y-103831889D01*
X114709180Y-103837131D01*
X114716019Y-103843970D01*
X114737128Y-103858075D01*
X114751232Y-103879183D01*
X114758071Y-103886022D01*
X114763312Y-103897261D01*
X114780700Y-103923284D01*
X114784607Y-103942930D01*
X114788471Y-103951215D01*
X114792806Y-103984149D01*
X114796000Y-104000203D01*
X114796000Y-105750203D01*
X114792806Y-105766257D01*
X114788471Y-105799190D01*
X114784608Y-105807473D01*
X114780700Y-105827122D01*
X114763310Y-105853146D01*
X114758071Y-105864383D01*
X114751234Y-105871219D01*
X114737128Y-105892331D01*
X114716016Y-105906437D01*
X114709180Y-105913274D01*
X114697943Y-105918513D01*
X114671919Y-105935903D01*
X114652270Y-105939811D01*
X114643987Y-105943674D01*
X114611054Y-105948009D01*
X114595000Y-105951203D01*
X114295000Y-105951203D01*
X114278946Y-105948009D01*
X114246012Y-105943674D01*
X114237727Y-105939810D01*
X114218081Y-105935903D01*
X114192058Y-105918515D01*
X114180819Y-105913274D01*
X114173980Y-105906435D01*
X114152872Y-105892331D01*
X114138767Y-105871222D01*
X114131928Y-105864383D01*
X114126686Y-105853141D01*
X114109300Y-105827122D01*
X114105392Y-105807477D01*
X114101528Y-105799190D01*
X114097190Y-105766243D01*
X114094000Y-105750203D01*
X114094000Y-104000203D01*
X114097190Y-103984164D01*
X114101528Y-103951215D01*
X114105392Y-103942926D01*
X114109300Y-103923284D01*
X114126684Y-103897266D01*
X114131928Y-103886022D01*
X114138769Y-103879180D01*
X114152872Y-103858075D01*
X114173977Y-103843972D01*
X114180819Y-103837131D01*
X114192063Y-103831887D01*
X114218081Y-103814503D01*
X114237723Y-103810595D01*
X114246012Y-103806731D01*
X114278961Y-103802393D01*
X114295000Y-103799203D01*
X114595000Y-103799203D01*
X114611040Y-103802393D01*
G37*
G36*
X115881040Y-103802393D02*
G01*
X115913987Y-103806731D01*
X115922274Y-103810595D01*
X115941919Y-103814503D01*
X115967938Y-103831889D01*
X115979180Y-103837131D01*
X115986019Y-103843970D01*
X116007128Y-103858075D01*
X116021232Y-103879183D01*
X116028071Y-103886022D01*
X116033312Y-103897261D01*
X116050700Y-103923284D01*
X116054607Y-103942930D01*
X116058471Y-103951215D01*
X116062806Y-103984149D01*
X116066000Y-104000203D01*
X116066000Y-105750203D01*
X116062806Y-105766257D01*
X116058471Y-105799190D01*
X116054608Y-105807473D01*
X116050700Y-105827122D01*
X116033310Y-105853146D01*
X116028071Y-105864383D01*
X116021234Y-105871219D01*
X116007128Y-105892331D01*
X115986016Y-105906437D01*
X115979180Y-105913274D01*
X115967943Y-105918513D01*
X115941919Y-105935903D01*
X115922270Y-105939811D01*
X115913987Y-105943674D01*
X115881054Y-105948009D01*
X115865000Y-105951203D01*
X115565000Y-105951203D01*
X115548946Y-105948009D01*
X115516012Y-105943674D01*
X115507727Y-105939810D01*
X115488081Y-105935903D01*
X115462058Y-105918515D01*
X115450819Y-105913274D01*
X115443980Y-105906435D01*
X115422872Y-105892331D01*
X115408767Y-105871222D01*
X115401928Y-105864383D01*
X115396686Y-105853141D01*
X115379300Y-105827122D01*
X115375392Y-105807477D01*
X115371528Y-105799190D01*
X115367190Y-105766243D01*
X115364000Y-105750203D01*
X115364000Y-104000203D01*
X115367190Y-103984164D01*
X115371528Y-103951215D01*
X115375392Y-103942926D01*
X115379300Y-103923284D01*
X115396684Y-103897266D01*
X115401928Y-103886022D01*
X115408769Y-103879180D01*
X115422872Y-103858075D01*
X115443977Y-103843972D01*
X115450819Y-103837131D01*
X115462063Y-103831887D01*
X115488081Y-103814503D01*
X115507723Y-103810595D01*
X115516012Y-103806731D01*
X115548961Y-103802393D01*
X115565000Y-103799203D01*
X115865000Y-103799203D01*
X115881040Y-103802393D01*
G37*
G36*
X117151040Y-103802393D02*
G01*
X117183987Y-103806731D01*
X117192274Y-103810595D01*
X117211919Y-103814503D01*
X117237938Y-103831889D01*
X117249180Y-103837131D01*
X117256019Y-103843970D01*
X117277128Y-103858075D01*
X117291232Y-103879183D01*
X117298071Y-103886022D01*
X117303312Y-103897261D01*
X117320700Y-103923284D01*
X117324607Y-103942930D01*
X117328471Y-103951215D01*
X117332806Y-103984149D01*
X117336000Y-104000203D01*
X117336000Y-105750203D01*
X117332806Y-105766257D01*
X117328471Y-105799190D01*
X117324608Y-105807473D01*
X117320700Y-105827122D01*
X117303310Y-105853146D01*
X117298071Y-105864383D01*
X117291234Y-105871219D01*
X117277128Y-105892331D01*
X117256016Y-105906437D01*
X117249180Y-105913274D01*
X117237943Y-105918513D01*
X117211919Y-105935903D01*
X117192270Y-105939811D01*
X117183987Y-105943674D01*
X117151054Y-105948009D01*
X117135000Y-105951203D01*
X116835000Y-105951203D01*
X116818946Y-105948009D01*
X116786012Y-105943674D01*
X116777727Y-105939810D01*
X116758081Y-105935903D01*
X116732058Y-105918515D01*
X116720819Y-105913274D01*
X116713980Y-105906435D01*
X116692872Y-105892331D01*
X116678767Y-105871222D01*
X116671928Y-105864383D01*
X116666686Y-105853141D01*
X116649300Y-105827122D01*
X116645392Y-105807477D01*
X116641528Y-105799190D01*
X116637190Y-105766243D01*
X116634000Y-105750203D01*
X116634000Y-104000203D01*
X116637190Y-103984164D01*
X116641528Y-103951215D01*
X116645392Y-103942926D01*
X116649300Y-103923284D01*
X116666684Y-103897266D01*
X116671928Y-103886022D01*
X116678769Y-103879180D01*
X116692872Y-103858075D01*
X116713977Y-103843972D01*
X116720819Y-103837131D01*
X116732063Y-103831887D01*
X116758081Y-103814503D01*
X116777723Y-103810595D01*
X116786012Y-103806731D01*
X116818961Y-103802393D01*
X116835000Y-103799203D01*
X117135000Y-103799203D01*
X117151040Y-103802393D01*
G37*
G36*
X118421040Y-103802393D02*
G01*
X118453987Y-103806731D01*
X118462274Y-103810595D01*
X118481919Y-103814503D01*
X118507938Y-103831889D01*
X118519180Y-103837131D01*
X118526019Y-103843970D01*
X118547128Y-103858075D01*
X118561232Y-103879183D01*
X118568071Y-103886022D01*
X118573312Y-103897261D01*
X118590700Y-103923284D01*
X118594607Y-103942930D01*
X118598471Y-103951215D01*
X118602806Y-103984149D01*
X118606000Y-104000203D01*
X118606000Y-105750203D01*
X118602806Y-105766257D01*
X118598471Y-105799190D01*
X118594608Y-105807473D01*
X118590700Y-105827122D01*
X118573310Y-105853146D01*
X118568071Y-105864383D01*
X118561234Y-105871219D01*
X118547128Y-105892331D01*
X118526016Y-105906437D01*
X118519180Y-105913274D01*
X118507943Y-105918513D01*
X118481919Y-105935903D01*
X118462270Y-105939811D01*
X118453987Y-105943674D01*
X118421054Y-105948009D01*
X118405000Y-105951203D01*
X118105000Y-105951203D01*
X118088946Y-105948009D01*
X118056012Y-105943674D01*
X118047727Y-105939810D01*
X118028081Y-105935903D01*
X118002058Y-105918515D01*
X117990819Y-105913274D01*
X117983980Y-105906435D01*
X117962872Y-105892331D01*
X117948767Y-105871222D01*
X117941928Y-105864383D01*
X117936686Y-105853141D01*
X117919300Y-105827122D01*
X117915392Y-105807477D01*
X117911528Y-105799190D01*
X117907190Y-105766243D01*
X117904000Y-105750203D01*
X117904000Y-104000203D01*
X117907190Y-103984164D01*
X117911528Y-103951215D01*
X117915392Y-103942926D01*
X117919300Y-103923284D01*
X117936684Y-103897266D01*
X117941928Y-103886022D01*
X117948769Y-103879180D01*
X117962872Y-103858075D01*
X117983977Y-103843972D01*
X117990819Y-103837131D01*
X118002063Y-103831887D01*
X118028081Y-103814503D01*
X118047723Y-103810595D01*
X118056012Y-103806731D01*
X118088961Y-103802393D01*
X118105000Y-103799203D01*
X118405000Y-103799203D01*
X118421040Y-103802393D01*
G37*
G36*
X119691040Y-103802393D02*
G01*
X119723987Y-103806731D01*
X119732274Y-103810595D01*
X119751919Y-103814503D01*
X119777938Y-103831889D01*
X119789180Y-103837131D01*
X119796019Y-103843970D01*
X119817128Y-103858075D01*
X119831232Y-103879183D01*
X119838071Y-103886022D01*
X119843312Y-103897261D01*
X119860700Y-103923284D01*
X119864607Y-103942930D01*
X119868471Y-103951215D01*
X119872806Y-103984149D01*
X119876000Y-104000203D01*
X119876000Y-105750203D01*
X119872806Y-105766257D01*
X119868471Y-105799190D01*
X119864608Y-105807473D01*
X119860700Y-105827122D01*
X119843310Y-105853146D01*
X119838071Y-105864383D01*
X119831234Y-105871219D01*
X119817128Y-105892331D01*
X119796016Y-105906437D01*
X119789180Y-105913274D01*
X119777943Y-105918513D01*
X119751919Y-105935903D01*
X119732270Y-105939811D01*
X119723987Y-105943674D01*
X119691054Y-105948009D01*
X119675000Y-105951203D01*
X119375000Y-105951203D01*
X119358946Y-105948009D01*
X119326012Y-105943674D01*
X119317727Y-105939810D01*
X119298081Y-105935903D01*
X119272058Y-105918515D01*
X119260819Y-105913274D01*
X119253980Y-105906435D01*
X119232872Y-105892331D01*
X119218767Y-105871222D01*
X119211928Y-105864383D01*
X119206686Y-105853141D01*
X119189300Y-105827122D01*
X119185392Y-105807477D01*
X119181528Y-105799190D01*
X119177190Y-105766243D01*
X119174000Y-105750203D01*
X119174000Y-104000203D01*
X119177190Y-103984164D01*
X119181528Y-103951215D01*
X119185392Y-103942926D01*
X119189300Y-103923284D01*
X119206684Y-103897266D01*
X119211928Y-103886022D01*
X119218769Y-103879180D01*
X119232872Y-103858075D01*
X119253977Y-103843972D01*
X119260819Y-103837131D01*
X119272063Y-103831887D01*
X119298081Y-103814503D01*
X119317723Y-103810595D01*
X119326012Y-103806731D01*
X119358961Y-103802393D01*
X119375000Y-103799203D01*
X119675000Y-103799203D01*
X119691040Y-103802393D01*
G37*
G36*
X120961040Y-103802393D02*
G01*
X120993987Y-103806731D01*
X121002274Y-103810595D01*
X121021919Y-103814503D01*
X121047938Y-103831889D01*
X121059180Y-103837131D01*
X121066019Y-103843970D01*
X121087128Y-103858075D01*
X121101232Y-103879183D01*
X121108071Y-103886022D01*
X121113312Y-103897261D01*
X121130700Y-103923284D01*
X121134607Y-103942930D01*
X121138471Y-103951215D01*
X121142806Y-103984149D01*
X121146000Y-104000203D01*
X121146000Y-105750203D01*
X121142806Y-105766257D01*
X121138471Y-105799190D01*
X121134608Y-105807473D01*
X121130700Y-105827122D01*
X121113310Y-105853146D01*
X121108071Y-105864383D01*
X121101234Y-105871219D01*
X121087128Y-105892331D01*
X121066016Y-105906437D01*
X121059180Y-105913274D01*
X121047943Y-105918513D01*
X121021919Y-105935903D01*
X121002270Y-105939811D01*
X120993987Y-105943674D01*
X120961054Y-105948009D01*
X120945000Y-105951203D01*
X120645000Y-105951203D01*
X120628946Y-105948009D01*
X120596012Y-105943674D01*
X120587727Y-105939810D01*
X120568081Y-105935903D01*
X120542058Y-105918515D01*
X120530819Y-105913274D01*
X120523980Y-105906435D01*
X120502872Y-105892331D01*
X120488767Y-105871222D01*
X120481928Y-105864383D01*
X120476686Y-105853141D01*
X120459300Y-105827122D01*
X120455392Y-105807477D01*
X120451528Y-105799190D01*
X120447190Y-105766243D01*
X120444000Y-105750203D01*
X120444000Y-104000203D01*
X120447190Y-103984164D01*
X120451528Y-103951215D01*
X120455392Y-103942926D01*
X120459300Y-103923284D01*
X120476684Y-103897266D01*
X120481928Y-103886022D01*
X120488769Y-103879180D01*
X120502872Y-103858075D01*
X120523977Y-103843972D01*
X120530819Y-103837131D01*
X120542063Y-103831887D01*
X120568081Y-103814503D01*
X120587723Y-103810595D01*
X120596012Y-103806731D01*
X120628961Y-103802393D01*
X120645000Y-103799203D01*
X120945000Y-103799203D01*
X120961040Y-103802393D01*
G37*
G36*
X91223313Y-103628542D02*
G01*
X91396546Y-103663000D01*
X91559728Y-103730592D01*
X91706588Y-103828721D01*
X91831482Y-103953615D01*
X91929611Y-104100475D01*
X91997203Y-104263657D01*
X92031661Y-104436890D01*
X92031661Y-104613516D01*
X91997203Y-104786749D01*
X91929611Y-104949931D01*
X91831482Y-105096791D01*
X91706588Y-105221685D01*
X91559728Y-105319814D01*
X91396546Y-105387406D01*
X91223313Y-105421864D01*
X91135000Y-105426203D01*
X91131941Y-105426203D01*
X90888059Y-105426203D01*
X90885000Y-105426203D01*
X90796687Y-105421864D01*
X90623454Y-105387406D01*
X90460272Y-105319814D01*
X90313412Y-105221685D01*
X90188518Y-105096791D01*
X90090389Y-104949931D01*
X90022797Y-104786749D01*
X89988339Y-104613516D01*
X89988339Y-104436890D01*
X90022797Y-104263657D01*
X90090389Y-104100475D01*
X90188518Y-103953615D01*
X90313412Y-103828721D01*
X90460272Y-103730592D01*
X90623454Y-103663000D01*
X90796687Y-103628542D01*
X90885000Y-103624203D01*
X91135000Y-103624203D01*
X91223313Y-103628542D01*
G37*
G36*
X124903313Y-103563339D02*
G01*
X125076546Y-103597797D01*
X125239728Y-103665389D01*
X125386588Y-103763518D01*
X125511482Y-103888412D01*
X125609611Y-104035272D01*
X125677203Y-104198454D01*
X125711661Y-104371687D01*
X125711661Y-104548313D01*
X125677203Y-104721546D01*
X125609611Y-104884728D01*
X125511482Y-105031588D01*
X125386588Y-105156482D01*
X125239728Y-105254611D01*
X125076546Y-105322203D01*
X124903313Y-105356661D01*
X124815000Y-105361000D01*
X124811941Y-105361000D01*
X124568059Y-105361000D01*
X124565000Y-105361000D01*
X124476687Y-105356661D01*
X124303454Y-105322203D01*
X124140272Y-105254611D01*
X123993412Y-105156482D01*
X123868518Y-105031588D01*
X123770389Y-104884728D01*
X123702797Y-104721546D01*
X123668339Y-104548313D01*
X123668339Y-104371687D01*
X123702797Y-104198454D01*
X123770389Y-104035272D01*
X123868518Y-103888412D01*
X123993412Y-103763518D01*
X124140272Y-103665389D01*
X124303454Y-103597797D01*
X124476687Y-103563339D01*
X124565000Y-103559000D01*
X124815000Y-103559000D01*
X124903313Y-103563339D01*
G37*
G36*
X101606717Y-103163418D02*
G01*
X101653090Y-103170763D01*
X101659141Y-103173846D01*
X101673905Y-103176783D01*
X101702809Y-103196097D01*
X101729595Y-103209745D01*
X101742402Y-103222552D01*
X101763445Y-103236613D01*
X101777505Y-103257655D01*
X101790312Y-103270462D01*
X101803958Y-103297245D01*
X101823275Y-103326153D01*
X101826211Y-103340918D01*
X101829294Y-103346967D01*
X101836635Y-103393319D01*
X101844284Y-103431774D01*
X101844284Y-104181774D01*
X101836634Y-104220232D01*
X101829294Y-104266580D01*
X101826212Y-104272628D01*
X101823275Y-104287395D01*
X101803956Y-104316306D01*
X101790312Y-104343085D01*
X101777507Y-104355889D01*
X101763445Y-104376935D01*
X101742399Y-104390997D01*
X101729595Y-104403802D01*
X101702816Y-104417446D01*
X101673905Y-104436765D01*
X101659138Y-104439702D01*
X101653090Y-104442784D01*
X101606742Y-104450124D01*
X101568284Y-104457774D01*
X101118284Y-104457774D01*
X101079829Y-104450125D01*
X101033477Y-104442784D01*
X101027428Y-104439701D01*
X101012663Y-104436765D01*
X100983755Y-104417448D01*
X100956972Y-104403802D01*
X100944165Y-104390995D01*
X100923123Y-104376935D01*
X100909062Y-104355892D01*
X100896255Y-104343085D01*
X100882607Y-104316299D01*
X100863293Y-104287395D01*
X100860356Y-104272631D01*
X100857273Y-104266580D01*
X100849928Y-104220207D01*
X100842284Y-104181774D01*
X100842284Y-103431774D01*
X100849928Y-103393344D01*
X100857273Y-103346967D01*
X100860356Y-103340915D01*
X100863293Y-103326153D01*
X100882604Y-103297251D01*
X100896255Y-103270462D01*
X100909064Y-103257652D01*
X100923123Y-103236613D01*
X100944162Y-103222554D01*
X100956972Y-103209745D01*
X100983761Y-103196094D01*
X101012663Y-103176783D01*
X101027425Y-103173846D01*
X101033477Y-103170763D01*
X101079854Y-103163418D01*
X101118284Y-103155774D01*
X101568284Y-103155774D01*
X101606717Y-103163418D01*
G37*
G36*
X104906717Y-103163418D02*
G01*
X104953090Y-103170763D01*
X104959141Y-103173846D01*
X104973905Y-103176783D01*
X105002809Y-103196097D01*
X105029595Y-103209745D01*
X105042402Y-103222552D01*
X105063445Y-103236613D01*
X105077505Y-103257655D01*
X105090312Y-103270462D01*
X105103958Y-103297245D01*
X105123275Y-103326153D01*
X105126211Y-103340918D01*
X105129294Y-103346967D01*
X105136635Y-103393319D01*
X105144284Y-103431774D01*
X105144284Y-104181774D01*
X105136634Y-104220232D01*
X105129294Y-104266580D01*
X105126212Y-104272628D01*
X105123275Y-104287395D01*
X105103956Y-104316306D01*
X105090312Y-104343085D01*
X105077507Y-104355889D01*
X105063445Y-104376935D01*
X105042399Y-104390997D01*
X105029595Y-104403802D01*
X105002816Y-104417446D01*
X104973905Y-104436765D01*
X104959138Y-104439702D01*
X104953090Y-104442784D01*
X104906742Y-104450124D01*
X104868284Y-104457774D01*
X104418284Y-104457774D01*
X104379829Y-104450125D01*
X104333477Y-104442784D01*
X104327428Y-104439701D01*
X104312663Y-104436765D01*
X104283755Y-104417448D01*
X104256972Y-104403802D01*
X104244165Y-104390995D01*
X104223123Y-104376935D01*
X104209062Y-104355892D01*
X104196255Y-104343085D01*
X104182607Y-104316299D01*
X104163293Y-104287395D01*
X104160356Y-104272631D01*
X104157273Y-104266580D01*
X104149928Y-104220207D01*
X104142284Y-104181774D01*
X104142284Y-103431774D01*
X104149928Y-103393344D01*
X104157273Y-103346967D01*
X104160356Y-103340915D01*
X104163293Y-103326153D01*
X104182604Y-103297251D01*
X104196255Y-103270462D01*
X104209064Y-103257652D01*
X104223123Y-103236613D01*
X104244162Y-103222554D01*
X104256972Y-103209745D01*
X104283761Y-103196094D01*
X104312663Y-103176783D01*
X104327425Y-103173846D01*
X104333477Y-103170763D01*
X104379854Y-103163418D01*
X104418284Y-103155774D01*
X104868284Y-103155774D01*
X104906717Y-103163418D01*
G37*
M02*
