%TF.GenerationSoftware,KiCad,Pcbnew,9.0.5*%
%TF.CreationDate,2025-11-27T16:28:19+01:00*%
%TF.ProjectId,7segment-driver-board,37736567-6d65-46e7-942d-647269766572,1.0*%
%TF.SameCoordinates,Original*%
%TF.FileFunction,Copper,L1,Top*%
%TF.FilePolarity,Positive*%
%FSLAX46Y46*%
G04 Gerber Fmt 4.6, Leading zero omitted, Abs format (unit mm)*
G04 Created by KiCad (PCBNEW 9.0.5) date 2025-11-27 16:28:19*
%MOMM*%
%LPD*%
G01*
G04 APERTURE LIST*
G04 Aperture macros list*
%AMRoundRect*
0 Rectangle with rounded corners*
0 $1 Rounding radius*
0 $2 $3 $4 $5 $6 $7 $8 $9 X,Y pos of 4 corners*
0 Add a 4 corners polygon primitive as box body*
4,1,4,$2,$3,$4,$5,$6,$7,$8,$9,$2,$3,0*
0 Add four circle primitives for the rounded corners*
1,1,$1+$1,$2,$3*
1,1,$1+$1,$4,$5*
1,1,$1+$1,$6,$7*
1,1,$1+$1,$8,$9*
0 Add four rect primitives between the rounded corners*
20,1,$1+$1,$2,$3,$4,$5,0*
20,1,$1+$1,$4,$5,$6,$7,0*
20,1,$1+$1,$6,$7,$8,$9,0*
20,1,$1+$1,$8,$9,$2,$3,0*%
G04 Aperture macros list end*
%TA.AperFunction,SMDPad,CuDef*%
%ADD10RoundRect,0.225000X0.225000X0.375000X-0.225000X0.375000X-0.225000X-0.375000X0.225000X-0.375000X0*%
%TD*%
%TA.AperFunction,SMDPad,CuDef*%
%ADD11RoundRect,0.225000X0.225000X0.250000X-0.225000X0.250000X-0.225000X-0.250000X0.225000X-0.250000X0*%
%TD*%
%TA.AperFunction,ComponentPad*%
%ADD12RoundRect,0.250000X0.725000X-0.600000X0.725000X0.600000X-0.725000X0.600000X-0.725000X-0.600000X0*%
%TD*%
%TA.AperFunction,ComponentPad*%
%ADD13O,1.950000X1.700000*%
%TD*%
%TA.AperFunction,SMDPad,CuDef*%
%ADD14RoundRect,0.200000X-0.200000X-0.275000X0.200000X-0.275000X0.200000X0.275000X-0.200000X0.275000X0*%
%TD*%
%TA.AperFunction,SMDPad,CuDef*%
%ADD15RoundRect,0.250000X0.945000X-0.420000X0.945000X0.420000X-0.945000X0.420000X-0.945000X-0.420000X0*%
%TD*%
%TA.AperFunction,SMDPad,CuDef*%
%ADD16RoundRect,0.150000X-0.150000X0.875000X-0.150000X-0.875000X0.150000X-0.875000X0.150000X0.875000X0*%
%TD*%
%TA.AperFunction,ComponentPad*%
%ADD17RoundRect,0.250000X0.750000X-0.600000X0.750000X0.600000X-0.750000X0.600000X-0.750000X-0.600000X0*%
%TD*%
%TA.AperFunction,ComponentPad*%
%ADD18O,2.000000X1.700000*%
%TD*%
%TA.AperFunction,ViaPad*%
%ADD19C,0.800000*%
%TD*%
%TA.AperFunction,Conductor*%
%ADD20C,0.200000*%
%TD*%
%TA.AperFunction,Conductor*%
%ADD21C,0.400000*%
%TD*%
G04 APERTURE END LIST*
D10*
%TO.P,D1,1,K*%
%TO.N,Net-(D1-K)*%
X104702125Y-115093697D03*
%TO.P,D1,2,A*%
%TO.N,Net-(D1-A)*%
X101402125Y-115093697D03*
%TD*%
D11*
%TO.P,C2,1*%
%TO.N,Net-(D1-K)*%
X104018095Y-110744781D03*
%TO.P,C2,2*%
%TO.N,GND*%
X102468095Y-110744781D03*
%TD*%
D12*
%TO.P,P2,1,Pin_1*%
%TO.N,GND*%
X91010000Y-114525203D03*
D13*
%TO.P,P2,2,Pin_2*%
%TO.N,Net-(D1-A)*%
X91010000Y-112025203D03*
%TO.P,P2,3,Pin_3*%
%TO.N,/Din*%
X91010000Y-109525203D03*
%TO.P,P2,4,Pin_4*%
%TO.N,/Sel*%
X91010000Y-107025203D03*
%TO.P,P2,5,Pin_5*%
%TO.N,/Clk*%
X91010000Y-104525203D03*
%TD*%
D14*
%TO.P,R2,1*%
%TO.N,Net-(IC1-ISET)*%
X102422178Y-112948818D03*
%TO.P,R2,2*%
%TO.N,VCC*%
X104072178Y-112948818D03*
%TD*%
D15*
%TO.P,C1,1*%
%TO.N,Net-(D1-K)*%
X103426693Y-109048677D03*
%TO.P,C1,2*%
%TO.N,GND*%
X103426693Y-105968677D03*
%TD*%
D10*
%TO.P,D2,1,K*%
%TO.N,VCC*%
X104643284Y-103806774D03*
%TO.P,D2,2,A*%
%TO.N,Net-(D1-K)*%
X101343284Y-103806774D03*
%TD*%
D12*
%TO.P,P3,1,Pin_1*%
%TO.N,GND*%
X124690000Y-114460000D03*
D13*
%TO.P,P3,2,Pin_2*%
%TO.N,Net-(D1-A)*%
X124690000Y-111960000D03*
%TO.P,P3,3,Pin_3*%
%TO.N,/DOut*%
X124690000Y-109460000D03*
%TO.P,P3,4,Pin_4*%
%TO.N,/Sel*%
X124690000Y-106960000D03*
%TO.P,P3,5,Pin_5*%
%TO.N,/Clk*%
X124690000Y-104460000D03*
%TD*%
D16*
%TO.P,IC1,1,DIN*%
%TO.N,/Din*%
X120795000Y-104875203D03*
%TO.P,IC1,2,DIG_0*%
%TO.N,/DIG_0*%
X119525000Y-104875203D03*
%TO.P,IC1,3,DIG_4*%
%TO.N,/DIG_4*%
X118255000Y-104875203D03*
%TO.P,IC1,4,GND*%
%TO.N,GND*%
X116985000Y-104875203D03*
%TO.P,IC1,5,DIG_6*%
%TO.N,/DIG_6*%
X115715000Y-104875203D03*
%TO.P,IC1,6,DIG_2*%
%TO.N,/DIG_2*%
X114445000Y-104875203D03*
%TO.P,IC1,7,DIG_3*%
%TO.N,/DIG_3*%
X113175000Y-104875203D03*
%TO.P,IC1,8,DIG_7*%
%TO.N,/DIG_7*%
X111905000Y-104875203D03*
%TO.P,IC1,9,GND*%
%TO.N,GND*%
X110635000Y-104875203D03*
%TO.P,IC1,10,DIG_5*%
%TO.N,/DIG_5*%
X109365000Y-104875203D03*
%TO.P,IC1,11,DIG_1*%
%TO.N,/DIG_1*%
X108095000Y-104875203D03*
%TO.P,IC1,12,LOAD*%
%TO.N,/Sel*%
X106825000Y-104875203D03*
%TO.P,IC1,13,CLK*%
%TO.N,/Clk*%
X106825000Y-114175203D03*
%TO.P,IC1,14,SEG_A*%
%TO.N,/SEG_A*%
X108095000Y-114175203D03*
%TO.P,IC1,15,SEG_F*%
%TO.N,/SEG_F*%
X109365000Y-114175203D03*
%TO.P,IC1,16,SEG_B*%
%TO.N,/SEG_B*%
X110635000Y-114175203D03*
%TO.P,IC1,17,SEG_G*%
%TO.N,/SEG_G*%
X111905000Y-114175203D03*
%TO.P,IC1,18,ISET*%
%TO.N,Net-(IC1-ISET)*%
X113175000Y-114175203D03*
%TO.P,IC1,19,V+*%
%TO.N,VCC*%
X114445000Y-114175203D03*
%TO.P,IC1,20,SEG_C*%
%TO.N,/SEG_C*%
X115715000Y-114175203D03*
%TO.P,IC1,21,SEG_E*%
%TO.N,/SEG_E*%
X116985000Y-114175203D03*
%TO.P,IC1,22,SEG_DP*%
%TO.N,/SEG_DP*%
X118255000Y-114175203D03*
%TO.P,IC1,23,SEG_D*%
%TO.N,/SEG_D*%
X119525000Y-114175203D03*
%TO.P,IC1,24,DOUT*%
%TO.N,/DOut*%
X120795000Y-114175203D03*
%TD*%
D17*
%TO.P,P1,1,Pin_1*%
%TO.N,GND*%
X97658472Y-110761747D03*
D18*
%TO.P,P1,2,Pin_2*%
%TO.N,Net-(D1-K)*%
X97658472Y-108261747D03*
%TD*%
D19*
%TO.N,GND*%
X96200000Y-104890000D03*
X120830000Y-110470000D03*
X92540000Y-110760000D03*
%TO.N,/Din*%
X95730000Y-107840000D03*
X120795000Y-104875203D03*
%TO.N,/Clk*%
X106825000Y-114175203D03*
%TO.N,/SEG_G*%
X111905000Y-114175203D03*
%TO.N,/DIG_2*%
X114445000Y-104875203D03*
%TO.N,/SEG_B*%
X108214843Y-110022823D03*
%TO.N,/SEG_A*%
X106450000Y-109530000D03*
%TO.N,/DIG_1*%
X108095000Y-104875203D03*
%TO.N,/DIG_4*%
X118255000Y-104875203D03*
%TO.N,/DIG_5*%
X109365000Y-104875203D03*
%TO.N,/DIG_7*%
X116380000Y-107440000D03*
%TO.N,/SEG_D*%
X119525000Y-114175203D03*
%TO.N,/SEG_F*%
X113550000Y-112160000D03*
%TO.N,/DIG_3*%
X113175000Y-104875203D03*
%TO.N,/SEG_DP*%
X118255000Y-114175203D03*
%TO.N,/SEG_C*%
X106247762Y-112180000D03*
%TO.N,/DIG_6*%
X115715000Y-104875203D03*
%TO.N,/SEG_E*%
X116985000Y-114175203D03*
%TO.N,/DIG_0*%
X119525000Y-104875203D03*
%TO.N,Net-(D1-A)*%
X99339798Y-115998131D03*
X100239798Y-115998131D03*
X98469798Y-116007928D03*
%TD*%
D20*
%TO.N,GND*%
X124652000Y-114498000D02*
X124690000Y-114460000D01*
D21*
%TO.N,VCC*%
X104077455Y-112889143D02*
X104480857Y-112889143D01*
X114480000Y-113002000D02*
X114480000Y-111700000D01*
X104480857Y-112889143D02*
X105022693Y-112347307D01*
X105982352Y-105145842D02*
X105982352Y-108401000D01*
X108642000Y-108832000D02*
X107348647Y-108832000D01*
X114446000Y-113036000D02*
X114480000Y-113002000D01*
X112035284Y-111120000D02*
X109745284Y-108830000D01*
X107348647Y-108832000D02*
X106917648Y-108401000D01*
X108644000Y-108830000D02*
X108642000Y-108832000D01*
X113218214Y-111119000D02*
X113217214Y-111120000D01*
X113899000Y-111119000D02*
X113218214Y-111119000D01*
X109745284Y-108830000D02*
X108644000Y-108830000D01*
X105022693Y-112347307D02*
X105022693Y-109360659D01*
X114445000Y-113435000D02*
X114446000Y-113434000D01*
X106917648Y-108401000D02*
X105982352Y-108401000D01*
X114445000Y-114175203D02*
X114445000Y-113435000D01*
X105022693Y-109360659D02*
X105982352Y-108401000D01*
X114446000Y-113434000D02*
X114446000Y-113036000D01*
X113217214Y-111120000D02*
X112035284Y-111120000D01*
X104643284Y-103806774D02*
X105982352Y-105145842D01*
X114480000Y-111700000D02*
X113899000Y-111119000D01*
D20*
%TO.N,/Din*%
X95720000Y-109210000D02*
X95390000Y-109540000D01*
X95390000Y-109540000D02*
X91010000Y-109540000D01*
X95730000Y-107840000D02*
X95720000Y-107850000D01*
X95720000Y-107850000D02*
X95720000Y-109210000D01*
X91491127Y-109527027D02*
X91502371Y-109538271D01*
X91510000Y-109540000D02*
X91510000Y-110037358D01*
%TO.N,/Clk*%
X124321373Y-104875905D02*
X124652000Y-104545278D01*
%TO.N,/SEG_B*%
X110635000Y-113445000D02*
X110635000Y-114175203D01*
X108214843Y-110022823D02*
X108214843Y-110024843D01*
X108214843Y-110024843D02*
X110630000Y-112440000D01*
X110630000Y-112440000D02*
X110630000Y-113440000D01*
X110630000Y-113440000D02*
X110635000Y-113445000D01*
%TO.N,/SEG_A*%
X106450000Y-109530000D02*
X106545000Y-109625000D01*
X106555000Y-109625000D02*
X108044000Y-111114000D01*
X106545000Y-109625000D02*
X106555000Y-109625000D01*
X108040000Y-114230203D02*
X108095000Y-114175203D01*
X108044000Y-111114000D02*
X108044000Y-114124203D01*
X108044000Y-114124203D02*
X108095000Y-114175203D01*
%TO.N,/DIG_7*%
X116380000Y-107440000D02*
X116380000Y-107370000D01*
X111905000Y-106145000D02*
X111905000Y-104875203D01*
X113150000Y-107390000D02*
X111905000Y-106145000D01*
X116360000Y-107390000D02*
X113150000Y-107390000D01*
X116380000Y-107370000D02*
X116360000Y-107390000D01*
%TO.N,/SEG_D*%
X119410487Y-113334208D02*
X119424496Y-113348217D01*
%TO.N,/SEG_F*%
X109365000Y-115205000D02*
X109365000Y-114175203D01*
X113801000Y-115251525D02*
X113422525Y-115630000D01*
X113422525Y-115630000D02*
X109790000Y-115630000D01*
X113801000Y-112411000D02*
X113801000Y-115251525D01*
X109790000Y-115630000D02*
X109365000Y-115205000D01*
X113550000Y-112160000D02*
X113801000Y-112411000D01*
%TO.N,/SEG_C*%
X106247762Y-112180000D02*
X106097000Y-112330762D01*
X106097000Y-112330762D02*
X106097000Y-115152353D01*
X114955202Y-115960000D02*
X115715000Y-115200202D01*
X106904647Y-115960000D02*
X114955202Y-115960000D01*
X115715000Y-115200202D02*
X115715000Y-114175203D01*
X106097000Y-115152353D02*
X106904647Y-115960000D01*
%TO.N,/Sel*%
X119640000Y-109290000D02*
X121970000Y-106960000D01*
X108020000Y-107270000D02*
X110840000Y-107270000D01*
X106825000Y-104875203D02*
X106825000Y-106075000D01*
X91054797Y-107025203D02*
X91010000Y-107025203D01*
X91491127Y-107451127D02*
X91491127Y-107027027D01*
X106825000Y-103850204D02*
X105853570Y-102878774D01*
X121970000Y-106960000D02*
X124690000Y-106960000D01*
X106825000Y-106075000D02*
X108020000Y-107270000D01*
X106825000Y-104875203D02*
X106825000Y-103850204D01*
X110840000Y-107270000D02*
X112860000Y-109290000D01*
X105853570Y-102878774D02*
X95201226Y-102878774D01*
X112860000Y-109290000D02*
X119640000Y-109290000D01*
X95201226Y-102878774D02*
X91054797Y-107025203D01*
%TO.N,/DOut*%
X120795000Y-114175203D02*
X120795000Y-112065000D01*
X123400000Y-109460000D02*
X124690000Y-109460000D01*
X120795000Y-112065000D02*
X123400000Y-109460000D01*
D21*
%TO.N,Net-(D1-A)*%
X100239798Y-115998131D02*
X100239798Y-115960202D01*
X99330001Y-116007928D02*
X98469798Y-116007928D01*
X101106303Y-115093697D02*
X101402125Y-115093697D01*
X100239798Y-115960202D02*
X101106303Y-115093697D01*
X99339798Y-115998131D02*
X100239798Y-115998131D01*
X101459446Y-115092082D02*
X101459446Y-115076961D01*
X101267567Y-114900203D02*
X101459446Y-115092082D01*
D20*
%TO.N,Net-(IC1-ISET)*%
X105532259Y-115707563D02*
X105530000Y-115705304D01*
X105186994Y-116050000D02*
X105529431Y-115707563D01*
X105530000Y-115705304D02*
X105530000Y-109458636D01*
X113180000Y-112970000D02*
X113180000Y-113460000D01*
X102427455Y-112889143D02*
X102431974Y-112893662D01*
X107151000Y-109260000D02*
X109470000Y-109260000D01*
X102431974Y-115051974D02*
X103430000Y-116050000D01*
X102431974Y-112893662D02*
X102431974Y-115051974D01*
X106159636Y-108829000D02*
X106740364Y-108829000D01*
X106740364Y-108829000D02*
X107151000Y-109239636D01*
X107151000Y-109239636D02*
X107151000Y-109260000D01*
X103430000Y-116050000D02*
X105186994Y-116050000D01*
X105529431Y-115707563D02*
X105532259Y-115707563D01*
X113175000Y-113465000D02*
X113175000Y-114175203D01*
X109470000Y-109260000D02*
X113180000Y-112970000D01*
X105530000Y-109458636D02*
X106159636Y-108829000D01*
X113180000Y-113460000D02*
X113175000Y-113465000D01*
D21*
%TO.N,Net-(D1-K)*%
X103963697Y-115093697D02*
X104702125Y-115093697D01*
X104030000Y-110334606D02*
X104019395Y-110345211D01*
X104019395Y-110345211D02*
X104019395Y-110780932D01*
X104030000Y-109651984D02*
X104030000Y-110334606D01*
X104754259Y-115097269D02*
X104759446Y-115092082D01*
X103976942Y-109061203D02*
X103701116Y-109061203D01*
X103426693Y-109048677D02*
X104030000Y-109651984D01*
D20*
X97658472Y-107827406D02*
X97750000Y-107735878D01*
D21*
X97658472Y-108261747D02*
X98457928Y-109061203D01*
X98457928Y-109061203D02*
X103701116Y-109061203D01*
X103260000Y-111540327D02*
X103260000Y-114390000D01*
X104759446Y-115092082D02*
X104759446Y-115076961D01*
X104772731Y-115097269D02*
X104754259Y-115097269D01*
X103688590Y-109048677D02*
X103426693Y-109048677D01*
X101343284Y-103806774D02*
X101343284Y-104313284D01*
X105350000Y-105599404D02*
X105350000Y-108286648D01*
X104460000Y-114803010D02*
X104754259Y-115097269D01*
X104648273Y-104897677D02*
X105350000Y-105599404D01*
X101343284Y-104313284D02*
X101927677Y-104897677D01*
X105350000Y-108286648D02*
X104587971Y-109048677D01*
X104587971Y-109048677D02*
X103426693Y-109048677D01*
X101927677Y-104897677D02*
X104648273Y-104897677D01*
X103260000Y-114390000D02*
X103963697Y-115093697D01*
X103701116Y-109061203D02*
X103688590Y-109048677D01*
X104019395Y-110780932D02*
X103260000Y-111540327D01*
%TD*%
%TA.AperFunction,Conductor*%
%TO.N,GND*%
G36*
X106888055Y-106987736D02*
G01*
X106894533Y-106993768D01*
X107535139Y-107634374D01*
X107535149Y-107634385D01*
X107539479Y-107638715D01*
X107539480Y-107638716D01*
X107651284Y-107750520D01*
X107651286Y-107750521D01*
X107651290Y-107750524D01*
X107715908Y-107787831D01*
X107715912Y-107787832D01*
X107715913Y-107787833D01*
X107752064Y-107808705D01*
X107788212Y-107829576D01*
X107788214Y-107829576D01*
X107788215Y-107829577D01*
X107940942Y-107870500D01*
X107940943Y-107870500D01*
X110539903Y-107870500D01*
X110606942Y-107890185D01*
X110627584Y-107906819D01*
X112375139Y-109654374D01*
X112375149Y-109654385D01*
X112379479Y-109658715D01*
X112379480Y-109658716D01*
X112491284Y-109770520D01*
X112491286Y-109770521D01*
X112491290Y-109770524D01*
X112628209Y-109849573D01*
X112628216Y-109849577D01*
X112740019Y-109879534D01*
X112780942Y-109890500D01*
X112780943Y-109890500D01*
X119553331Y-109890500D01*
X119553347Y-109890501D01*
X119560943Y-109890501D01*
X119719054Y-109890501D01*
X119719057Y-109890501D01*
X119871785Y-109849577D01*
X119945180Y-109807202D01*
X120008716Y-109770520D01*
X120120520Y-109658716D01*
X120120520Y-109658714D01*
X120130724Y-109648511D01*
X120130727Y-109648506D01*
X122182417Y-107596819D01*
X122243740Y-107563334D01*
X122270098Y-107560500D01*
X123279281Y-107560500D01*
X123346320Y-107580185D01*
X123389765Y-107628205D01*
X123409947Y-107667814D01*
X123409948Y-107667815D01*
X123534890Y-107839786D01*
X123685209Y-107990105D01*
X123685214Y-107990109D01*
X123849793Y-108109682D01*
X123892459Y-108165011D01*
X123898438Y-108234625D01*
X123865833Y-108296420D01*
X123849793Y-108310318D01*
X123685214Y-108429890D01*
X123685209Y-108429894D01*
X123534890Y-108580213D01*
X123409949Y-108752182D01*
X123385759Y-108799658D01*
X123337785Y-108850453D01*
X123307368Y-108863137D01*
X123280019Y-108870464D01*
X123280019Y-108870465D01*
X123242751Y-108880451D01*
X123168214Y-108900423D01*
X123168209Y-108900426D01*
X123031290Y-108979475D01*
X123031282Y-108979481D01*
X120314479Y-111696284D01*
X120300626Y-111720280D01*
X120281474Y-111753453D01*
X120235423Y-111833215D01*
X120194499Y-111985943D01*
X120194499Y-111985945D01*
X120194499Y-112154046D01*
X120194500Y-112154059D01*
X120194500Y-112634296D01*
X120174815Y-112701335D01*
X120122011Y-112747090D01*
X120052853Y-112757034D01*
X120007380Y-112741028D01*
X119935400Y-112698460D01*
X119935393Y-112698457D01*
X119777573Y-112652605D01*
X119777567Y-112652604D01*
X119740701Y-112649703D01*
X119740694Y-112649703D01*
X119309306Y-112649703D01*
X119309298Y-112649703D01*
X119272432Y-112652604D01*
X119272426Y-112652605D01*
X119114606Y-112698457D01*
X119114603Y-112698458D01*
X118973137Y-112782120D01*
X118966969Y-112786905D01*
X118965072Y-112784459D01*
X118916358Y-112811060D01*
X118846666Y-112806076D01*
X118814296Y-112785272D01*
X118813031Y-112786905D01*
X118806862Y-112782120D01*
X118713444Y-112726873D01*
X118665398Y-112698459D01*
X118665397Y-112698458D01*
X118665396Y-112698458D01*
X118665393Y-112698457D01*
X118507573Y-112652605D01*
X118507567Y-112652604D01*
X118470701Y-112649703D01*
X118470694Y-112649703D01*
X118039306Y-112649703D01*
X118039298Y-112649703D01*
X118002432Y-112652604D01*
X118002426Y-112652605D01*
X117844606Y-112698457D01*
X117844603Y-112698458D01*
X117703137Y-112782120D01*
X117696969Y-112786905D01*
X117695072Y-112784459D01*
X117646358Y-112811060D01*
X117576666Y-112806076D01*
X117544296Y-112785272D01*
X117543031Y-112786905D01*
X117536862Y-112782120D01*
X117443444Y-112726873D01*
X117395398Y-112698459D01*
X117395397Y-112698458D01*
X117395396Y-112698458D01*
X117395393Y-112698457D01*
X117237573Y-112652605D01*
X117237567Y-112652604D01*
X117200701Y-112649703D01*
X117200694Y-112649703D01*
X116769306Y-112649703D01*
X116769298Y-112649703D01*
X116732432Y-112652604D01*
X116732426Y-112652605D01*
X116574606Y-112698457D01*
X116574603Y-112698458D01*
X116433137Y-112782120D01*
X116426969Y-112786905D01*
X116425072Y-112784459D01*
X116376358Y-112811060D01*
X116306666Y-112806076D01*
X116274296Y-112785272D01*
X116273031Y-112786905D01*
X116266862Y-112782120D01*
X116173444Y-112726873D01*
X116125398Y-112698459D01*
X116125397Y-112698458D01*
X116125396Y-112698458D01*
X116125393Y-112698457D01*
X115967573Y-112652605D01*
X115967567Y-112652604D01*
X115930701Y-112649703D01*
X115930694Y-112649703D01*
X115499306Y-112649703D01*
X115499298Y-112649703D01*
X115462432Y-112652604D01*
X115462426Y-112652605D01*
X115339095Y-112688437D01*
X115269226Y-112688238D01*
X115210556Y-112650296D01*
X115181712Y-112586657D01*
X115180500Y-112569361D01*
X115180500Y-111631007D01*
X115176186Y-111609323D01*
X115176186Y-111609319D01*
X115157314Y-111514444D01*
X115153580Y-111495672D01*
X115147311Y-111480538D01*
X115100777Y-111368192D01*
X115024112Y-111253454D01*
X114345545Y-110574887D01*
X114230807Y-110498222D01*
X114103332Y-110445421D01*
X114103322Y-110445418D01*
X113967996Y-110418500D01*
X113967994Y-110418500D01*
X113967993Y-110418500D01*
X113149221Y-110418500D01*
X113149217Y-110418500D01*
X113145124Y-110418903D01*
X113132973Y-110419500D01*
X112376803Y-110419500D01*
X112309764Y-110399815D01*
X112289122Y-110383181D01*
X110191830Y-108285888D01*
X110191829Y-108285887D01*
X110077091Y-108209222D01*
X109949616Y-108156421D01*
X109949606Y-108156418D01*
X109814280Y-108129500D01*
X109814278Y-108129500D01*
X109814277Y-108129500D01*
X108575007Y-108129500D01*
X108575006Y-108129500D01*
X108568944Y-108130097D01*
X108568925Y-108129905D01*
X108552738Y-108131500D01*
X107690166Y-108131500D01*
X107623127Y-108111815D01*
X107602489Y-108095185D01*
X107364192Y-107856887D01*
X107364191Y-107856886D01*
X107364190Y-107856885D01*
X107364187Y-107856883D01*
X107260846Y-107787833D01*
X107260846Y-107787834D01*
X107260845Y-107787833D01*
X107249459Y-107780225D01*
X107249457Y-107780224D01*
X107249454Y-107780222D01*
X107177917Y-107750591D01*
X107177911Y-107750589D01*
X107172503Y-107748349D01*
X107121977Y-107727420D01*
X107073211Y-107717720D01*
X107035461Y-107710211D01*
X106986643Y-107700500D01*
X106986641Y-107700500D01*
X106806852Y-107700500D01*
X106739813Y-107680815D01*
X106694058Y-107628011D01*
X106682852Y-107576500D01*
X106682852Y-107081449D01*
X106702537Y-107014410D01*
X106755341Y-106968655D01*
X106824499Y-106958711D01*
X106888055Y-106987736D01*
G37*
%TD.AperFunction*%
%TA.AperFunction,Conductor*%
G36*
X100335823Y-103498959D02*
G01*
X100381578Y-103551763D01*
X100392784Y-103603274D01*
X100392784Y-104230111D01*
X100392785Y-104230129D01*
X100402934Y-104329481D01*
X100402935Y-104329484D01*
X100456280Y-104490468D01*
X100456285Y-104490479D01*
X100545313Y-104634814D01*
X100545316Y-104634818D01*
X100665239Y-104754741D01*
X100665243Y-104754744D01*
X100809578Y-104843772D01*
X100809581Y-104843773D01*
X100809587Y-104843777D01*
X100891665Y-104870974D01*
X100940341Y-104900998D01*
X101481128Y-105441786D01*
X101481131Y-105441789D01*
X101481134Y-105441791D01*
X101534806Y-105477653D01*
X101595866Y-105518452D01*
X101661097Y-105545471D01*
X101666761Y-105548540D01*
X101687158Y-105568802D01*
X101709548Y-105586846D01*
X101711636Y-105593120D01*
X101716329Y-105597782D01*
X101722534Y-105625861D01*
X101731614Y-105653140D01*
X101731693Y-105657567D01*
X101731693Y-105718677D01*
X103302693Y-105718677D01*
X103369732Y-105738362D01*
X103415487Y-105791166D01*
X103426693Y-105842677D01*
X103426693Y-105968677D01*
X103552693Y-105968677D01*
X103619732Y-105988362D01*
X103665487Y-106041166D01*
X103676693Y-106092677D01*
X103676693Y-107138676D01*
X104421665Y-107138676D01*
X104421677Y-107138675D01*
X104512897Y-107129356D01*
X104581590Y-107142125D01*
X104632475Y-107190005D01*
X104649500Y-107252714D01*
X104649500Y-107764135D01*
X104629815Y-107831174D01*
X104577011Y-107876929D01*
X104512898Y-107887493D01*
X104421704Y-107878177D01*
X102431691Y-107878177D01*
X102431674Y-107878178D01*
X102328896Y-107888677D01*
X102328893Y-107888678D01*
X102162361Y-107943862D01*
X102162356Y-107943864D01*
X102013035Y-108035966D01*
X101888982Y-108160019D01*
X101859864Y-108207227D01*
X101809912Y-108288214D01*
X101801532Y-108301800D01*
X101749584Y-108348524D01*
X101695993Y-108360703D01*
X99282972Y-108360703D01*
X99215933Y-108341018D01*
X99170178Y-108288214D01*
X99158972Y-108236703D01*
X99158972Y-108155460D01*
X99140046Y-108035966D01*
X99125718Y-107945504D01*
X99060029Y-107743335D01*
X98963523Y-107553931D01*
X98963521Y-107553928D01*
X98963520Y-107553926D01*
X98838581Y-107381960D01*
X98688258Y-107231637D01*
X98516292Y-107106698D01*
X98326886Y-107010191D01*
X98326885Y-107010190D01*
X98326884Y-107010190D01*
X98124715Y-106944501D01*
X98124713Y-106944500D01*
X98124712Y-106944500D01*
X97963179Y-106918916D01*
X97914759Y-106911247D01*
X97402185Y-106911247D01*
X97353765Y-106918916D01*
X97192232Y-106944500D01*
X97192229Y-106944501D01*
X97040602Y-106993768D01*
X96990057Y-107010191D01*
X96800651Y-107106698D01*
X96628683Y-107231639D01*
X96628682Y-107231640D01*
X96599589Y-107260732D01*
X96538264Y-107294215D01*
X96468573Y-107289228D01*
X96424229Y-107260729D01*
X96304038Y-107140538D01*
X96304034Y-107140535D01*
X96156553Y-107041990D01*
X96156540Y-107041983D01*
X95992667Y-106974106D01*
X95992658Y-106974103D01*
X95818694Y-106939500D01*
X95818691Y-106939500D01*
X95641309Y-106939500D01*
X95641306Y-106939500D01*
X95467341Y-106974103D01*
X95467332Y-106974106D01*
X95303459Y-107041983D01*
X95303446Y-107041990D01*
X95155965Y-107140535D01*
X95155961Y-107140538D01*
X95030538Y-107265961D01*
X95030535Y-107265965D01*
X94931990Y-107413446D01*
X94931983Y-107413459D01*
X94864106Y-107577332D01*
X94864103Y-107577341D01*
X94829500Y-107751304D01*
X94829500Y-107928695D01*
X94864103Y-108102658D01*
X94864106Y-108102667D01*
X94931983Y-108266540D01*
X94931990Y-108266553D01*
X95030535Y-108414034D01*
X95030538Y-108414038D01*
X95083180Y-108466679D01*
X95116666Y-108528002D01*
X95119500Y-108554361D01*
X95119500Y-108815500D01*
X95099815Y-108882539D01*
X95047011Y-108928294D01*
X94995500Y-108939500D01*
X92428258Y-108939500D01*
X92361219Y-108919815D01*
X92317773Y-108871795D01*
X92290051Y-108817387D01*
X92290049Y-108817384D01*
X92290048Y-108817382D01*
X92165109Y-108645416D01*
X92014792Y-108495099D01*
X91975675Y-108466679D01*
X91850204Y-108375519D01*
X91807540Y-108320192D01*
X91801561Y-108250579D01*
X91834166Y-108188783D01*
X91850199Y-108174889D01*
X92014792Y-108055307D01*
X92165104Y-107904995D01*
X92165106Y-107904991D01*
X92165109Y-107904989D01*
X92290048Y-107733023D01*
X92290047Y-107733023D01*
X92290051Y-107733019D01*
X92386557Y-107543615D01*
X92452246Y-107341446D01*
X92485500Y-107131490D01*
X92485500Y-106918916D01*
X92452246Y-106708960D01*
X92418837Y-106606142D01*
X92416843Y-106536304D01*
X92449086Y-106480147D01*
X92490570Y-106438663D01*
X101731694Y-106438663D01*
X101742187Y-106541374D01*
X101797334Y-106707796D01*
X101797336Y-106707801D01*
X101889377Y-106857022D01*
X102013347Y-106980992D01*
X102162568Y-107073033D01*
X102162573Y-107073035D01*
X102328995Y-107128182D01*
X102329002Y-107128183D01*
X102431712Y-107138676D01*
X103176692Y-107138676D01*
X103176693Y-107138675D01*
X103176693Y-106218677D01*
X101731694Y-106218677D01*
X101731694Y-106438663D01*
X92490570Y-106438663D01*
X95413642Y-103515593D01*
X95474965Y-103482108D01*
X95501323Y-103479274D01*
X100268784Y-103479274D01*
X100335823Y-103498959D01*
G37*
%TD.AperFunction*%
%TA.AperFunction,Conductor*%
G36*
X128086303Y-101745388D02*
G01*
X128132058Y-101798192D01*
X128143264Y-101849703D01*
X128143264Y-117200703D01*
X128123579Y-117267742D01*
X128070775Y-117313497D01*
X128019264Y-117324703D01*
X88668264Y-117324703D01*
X88601225Y-117305018D01*
X88555470Y-117252214D01*
X88544264Y-117200703D01*
X88544264Y-104418916D01*
X89534500Y-104418916D01*
X89534500Y-104631490D01*
X89535027Y-104634818D01*
X89555911Y-104766676D01*
X89567754Y-104841446D01*
X89607541Y-104963898D01*
X89633444Y-105043617D01*
X89729951Y-105233023D01*
X89854890Y-105404989D01*
X90005209Y-105555308D01*
X90005214Y-105555312D01*
X90169793Y-105674885D01*
X90212459Y-105730214D01*
X90218438Y-105799828D01*
X90185833Y-105861623D01*
X90169793Y-105875521D01*
X90005214Y-105995093D01*
X90005209Y-105995097D01*
X89854890Y-106145416D01*
X89729951Y-106317382D01*
X89633444Y-106506788D01*
X89633443Y-106506790D01*
X89633443Y-106506791D01*
X89631194Y-106513712D01*
X89567753Y-106708963D01*
X89544827Y-106853713D01*
X89534500Y-106918916D01*
X89534500Y-107131490D01*
X89541761Y-107177332D01*
X89554969Y-107260729D01*
X89567754Y-107341446D01*
X89628595Y-107528695D01*
X89633444Y-107543617D01*
X89729951Y-107733023D01*
X89854890Y-107904989D01*
X90005209Y-108055308D01*
X90005214Y-108055312D01*
X90169793Y-108174885D01*
X90212459Y-108230214D01*
X90218438Y-108299828D01*
X90185833Y-108361623D01*
X90169793Y-108375521D01*
X90005214Y-108495093D01*
X90005209Y-108495097D01*
X89854890Y-108645416D01*
X89729951Y-108817382D01*
X89633444Y-109006788D01*
X89567753Y-109208963D01*
X89544827Y-109353713D01*
X89534500Y-109418916D01*
X89534500Y-109631490D01*
X89543850Y-109690521D01*
X89559290Y-109788011D01*
X89567754Y-109841446D01*
X89625938Y-110020518D01*
X89633444Y-110043617D01*
X89729951Y-110233023D01*
X89854890Y-110404989D01*
X90005209Y-110555308D01*
X90005214Y-110555312D01*
X90169793Y-110674885D01*
X90212459Y-110730214D01*
X90218438Y-110799828D01*
X90185833Y-110861623D01*
X90169793Y-110875521D01*
X90005214Y-110995093D01*
X90005209Y-110995097D01*
X89854890Y-111145416D01*
X89729951Y-111317382D01*
X89633444Y-111506788D01*
X89633443Y-111506790D01*
X89633443Y-111506791D01*
X89630959Y-111514437D01*
X89567753Y-111708963D01*
X89560706Y-111753459D01*
X89534500Y-111918916D01*
X89534500Y-112131490D01*
X89536491Y-112144060D01*
X89556230Y-112268691D01*
X89567754Y-112341446D01*
X89623010Y-112511507D01*
X89633444Y-112543617D01*
X89729951Y-112733023D01*
X89854890Y-112904989D01*
X89994068Y-113044167D01*
X90027553Y-113105490D01*
X90022569Y-113175182D01*
X89980697Y-113231115D01*
X89971484Y-113237386D01*
X89816659Y-113332883D01*
X89816655Y-113332886D01*
X89692684Y-113456857D01*
X89600643Y-113606078D01*
X89600641Y-113606083D01*
X89545494Y-113772505D01*
X89545493Y-113772512D01*
X89535000Y-113875216D01*
X89535000Y-114275203D01*
X90605854Y-114275203D01*
X90567370Y-114341860D01*
X90535000Y-114462668D01*
X90535000Y-114587738D01*
X90567370Y-114708546D01*
X90605854Y-114775203D01*
X89535001Y-114775203D01*
X89535001Y-115175189D01*
X89545494Y-115277900D01*
X89600641Y-115444322D01*
X89600643Y-115444327D01*
X89692684Y-115593548D01*
X89816654Y-115717518D01*
X89965875Y-115809559D01*
X89965880Y-115809561D01*
X90132302Y-115864708D01*
X90132309Y-115864709D01*
X90235019Y-115875202D01*
X90759999Y-115875202D01*
X90760000Y-115875201D01*
X90760000Y-114929348D01*
X90826657Y-114967833D01*
X90947465Y-115000203D01*
X91072535Y-115000203D01*
X91193343Y-114967833D01*
X91260000Y-114929348D01*
X91260000Y-115875202D01*
X91784972Y-115875202D01*
X91784986Y-115875201D01*
X91887697Y-115864708D01*
X92054119Y-115809561D01*
X92054124Y-115809559D01*
X92203345Y-115717518D01*
X92327315Y-115593548D01*
X92419356Y-115444327D01*
X92419358Y-115444322D01*
X92474505Y-115277900D01*
X92474506Y-115277893D01*
X92484999Y-115175189D01*
X92485000Y-115175176D01*
X92485000Y-114775203D01*
X91414146Y-114775203D01*
X91452630Y-114708546D01*
X91485000Y-114587738D01*
X91485000Y-114462668D01*
X91452630Y-114341860D01*
X91414146Y-114275203D01*
X92484999Y-114275203D01*
X92484999Y-113875231D01*
X92484998Y-113875216D01*
X92474505Y-113772505D01*
X92419358Y-113606083D01*
X92419356Y-113606078D01*
X92327315Y-113456857D01*
X92203345Y-113332887D01*
X92048515Y-113237387D01*
X92001791Y-113185439D01*
X91990568Y-113116476D01*
X92018412Y-113052394D01*
X92025909Y-113044189D01*
X92165104Y-112904995D01*
X92212477Y-112839792D01*
X92274718Y-112754123D01*
X92290051Y-112733019D01*
X92386557Y-112543615D01*
X92452246Y-112341446D01*
X92485500Y-112131490D01*
X92485500Y-111918916D01*
X92452246Y-111708960D01*
X92386557Y-111506791D01*
X92290051Y-111317387D01*
X92290049Y-111317384D01*
X92290048Y-111317382D01*
X92165109Y-111145416D01*
X92014792Y-110995099D01*
X91959242Y-110954740D01*
X91850204Y-110875519D01*
X91807540Y-110820192D01*
X91801561Y-110750579D01*
X91834166Y-110688783D01*
X91850199Y-110674889D01*
X92014792Y-110555307D01*
X92165104Y-110404995D01*
X92165106Y-110404991D01*
X92165109Y-110404989D01*
X92269179Y-110261747D01*
X92290051Y-110233019D01*
X92300782Y-110211958D01*
X92302694Y-110208206D01*
X92350668Y-110157410D01*
X92413179Y-110140500D01*
X95303331Y-110140500D01*
X95303347Y-110140501D01*
X95310943Y-110140501D01*
X95469054Y-110140501D01*
X95469057Y-110140501D01*
X95621785Y-110099577D01*
X95687928Y-110061389D01*
X95758716Y-110020520D01*
X95870520Y-109908716D01*
X95870520Y-109908714D01*
X95880723Y-109898512D01*
X95880727Y-109898506D01*
X95996642Y-109782591D01*
X96057963Y-109749108D01*
X96127655Y-109754092D01*
X96183588Y-109795964D01*
X96208005Y-109861428D01*
X96202027Y-109909277D01*
X96168967Y-110009045D01*
X96168965Y-110009056D01*
X96158472Y-110111760D01*
X96158472Y-110511747D01*
X97225460Y-110511747D01*
X97192547Y-110568754D01*
X97158472Y-110695921D01*
X97158472Y-110827573D01*
X97192547Y-110954740D01*
X97225460Y-111011747D01*
X96158473Y-111011747D01*
X96158473Y-111411733D01*
X96168966Y-111514444D01*
X96224113Y-111680866D01*
X96224115Y-111680871D01*
X96316156Y-111830092D01*
X96440126Y-111954062D01*
X96589347Y-112046103D01*
X96589352Y-112046105D01*
X96755774Y-112101252D01*
X96755781Y-112101253D01*
X96858491Y-112111746D01*
X97408471Y-112111746D01*
X97408472Y-112111745D01*
X97408472Y-111194759D01*
X97465479Y-111227672D01*
X97592646Y-111261747D01*
X97724298Y-111261747D01*
X97851465Y-111227672D01*
X97908472Y-111194759D01*
X97908472Y-112111746D01*
X98458444Y-112111746D01*
X98458458Y-112111745D01*
X98561169Y-112101252D01*
X98727591Y-112046105D01*
X98727596Y-112046103D01*
X98876817Y-111954062D01*
X99000787Y-111830092D01*
X99092828Y-111680871D01*
X99092830Y-111680866D01*
X99147977Y-111514444D01*
X99147978Y-111514437D01*
X99158471Y-111411733D01*
X99158472Y-111411720D01*
X99158472Y-111043103D01*
X101518096Y-111043103D01*
X101528239Y-111142388D01*
X101581547Y-111303262D01*
X101581552Y-111303273D01*
X101670519Y-111447509D01*
X101670522Y-111447513D01*
X101790362Y-111567353D01*
X101790366Y-111567356D01*
X101934602Y-111656323D01*
X101934613Y-111656328D01*
X102095488Y-111709636D01*
X102194778Y-111719780D01*
X102218095Y-111719779D01*
X102218095Y-110994781D01*
X101518096Y-110994781D01*
X101518096Y-111043103D01*
X99158472Y-111043103D01*
X99158472Y-111011747D01*
X98091484Y-111011747D01*
X98124397Y-110954740D01*
X98158472Y-110827573D01*
X98158472Y-110695921D01*
X98124397Y-110568754D01*
X98091484Y-110511747D01*
X99158471Y-110511747D01*
X99158471Y-110111775D01*
X99158470Y-110111760D01*
X99147977Y-110009049D01*
X99120029Y-109924707D01*
X99117627Y-109854879D01*
X99153359Y-109794837D01*
X99215879Y-109763644D01*
X99237735Y-109761703D01*
X101651505Y-109761703D01*
X101718544Y-109781388D01*
X101764299Y-109834192D01*
X101774243Y-109903350D01*
X101745218Y-109966906D01*
X101739187Y-109973384D01*
X101670519Y-110042052D01*
X101581552Y-110186288D01*
X101581547Y-110186299D01*
X101528239Y-110347174D01*
X101518095Y-110446458D01*
X101518095Y-110494781D01*
X102344095Y-110494781D01*
X102411134Y-110514466D01*
X102456889Y-110567270D01*
X102468095Y-110618781D01*
X102468095Y-110744781D01*
X102594095Y-110744781D01*
X102602780Y-110747331D01*
X102611742Y-110746043D01*
X102635782Y-110757021D01*
X102661134Y-110764466D01*
X102667061Y-110771306D01*
X102675298Y-110775068D01*
X102689587Y-110797302D01*
X102706889Y-110817270D01*
X102709176Y-110827784D01*
X102713072Y-110833846D01*
X102718095Y-110868781D01*
X102718095Y-111052863D01*
X102698410Y-111119902D01*
X102697223Y-111121713D01*
X102674391Y-111155886D01*
X102670409Y-111161846D01*
X102639223Y-111208518D01*
X102586421Y-111335994D01*
X102586418Y-111336004D01*
X102559500Y-111471331D01*
X102559500Y-111849318D01*
X102539815Y-111916357D01*
X102487011Y-111962112D01*
X102435500Y-111973318D01*
X102165562Y-111973318D01*
X102146323Y-111975066D01*
X102094985Y-111979731D01*
X101932571Y-112030340D01*
X101786989Y-112118348D01*
X101666708Y-112238629D01*
X101578700Y-112384211D01*
X101528091Y-112546625D01*
X101521678Y-112617204D01*
X101521678Y-113280431D01*
X101528091Y-113351010D01*
X101528091Y-113351012D01*
X101528092Y-113351014D01*
X101578700Y-113513424D01*
X101666706Y-113659003D01*
X101786993Y-113779290D01*
X101786995Y-113779291D01*
X101791466Y-113783762D01*
X101824951Y-113845085D01*
X101819967Y-113914777D01*
X101778096Y-113970711D01*
X101712632Y-113995128D01*
X101691183Y-113994802D01*
X101675472Y-113993197D01*
X101128787Y-113993197D01*
X101128769Y-113993198D01*
X101029417Y-114003347D01*
X101029414Y-114003348D01*
X100868430Y-114056693D01*
X100868419Y-114056698D01*
X100724084Y-114145726D01*
X100724080Y-114145729D01*
X100604157Y-114265652D01*
X100604154Y-114265656D01*
X100515126Y-114409991D01*
X100515121Y-114410002D01*
X100461776Y-114570987D01*
X100451625Y-114670344D01*
X100451625Y-114706355D01*
X100431940Y-114773394D01*
X100415306Y-114794036D01*
X100128527Y-115080814D01*
X100067204Y-115114299D01*
X100065038Y-115114750D01*
X99977137Y-115132235D01*
X99977129Y-115132237D01*
X99837249Y-115190177D01*
X99767780Y-115197646D01*
X99742345Y-115190177D01*
X99602465Y-115132237D01*
X99602456Y-115132234D01*
X99428492Y-115097631D01*
X99428489Y-115097631D01*
X99251107Y-115097631D01*
X99251104Y-115097631D01*
X99077139Y-115132234D01*
X99077135Y-115132236D01*
X99077133Y-115132236D01*
X99077132Y-115132237D01*
X99053487Y-115142031D01*
X98940422Y-115188863D01*
X98870953Y-115196331D01*
X98845519Y-115188862D01*
X98732465Y-115142034D01*
X98732456Y-115142031D01*
X98558492Y-115107428D01*
X98558489Y-115107428D01*
X98381107Y-115107428D01*
X98381104Y-115107428D01*
X98207139Y-115142031D01*
X98207130Y-115142034D01*
X98043257Y-115209911D01*
X98043244Y-115209918D01*
X97895763Y-115308463D01*
X97895759Y-115308466D01*
X97770336Y-115433889D01*
X97770333Y-115433893D01*
X97671788Y-115581374D01*
X97671781Y-115581387D01*
X97603904Y-115745260D01*
X97603901Y-115745269D01*
X97569298Y-115919232D01*
X97569298Y-116096623D01*
X97603901Y-116270586D01*
X97603904Y-116270595D01*
X97671781Y-116434468D01*
X97671788Y-116434481D01*
X97770333Y-116581962D01*
X97770336Y-116581966D01*
X97895759Y-116707389D01*
X97895763Y-116707392D01*
X98043244Y-116805937D01*
X98043257Y-116805944D01*
X98166161Y-116856851D01*
X98207132Y-116873822D01*
X98207134Y-116873822D01*
X98207139Y-116873824D01*
X98381102Y-116908427D01*
X98381105Y-116908428D01*
X98381107Y-116908428D01*
X98558491Y-116908428D01*
X98558492Y-116908427D01*
X98616480Y-116896892D01*
X98732456Y-116873824D01*
X98732459Y-116873822D01*
X98732464Y-116873822D01*
X98869172Y-116817195D01*
X98938641Y-116809727D01*
X98964074Y-116817195D01*
X99077132Y-116864025D01*
X99077134Y-116864025D01*
X99077139Y-116864027D01*
X99251102Y-116898630D01*
X99251105Y-116898631D01*
X99251107Y-116898631D01*
X99428491Y-116898631D01*
X99428492Y-116898630D01*
X99486480Y-116887095D01*
X99602456Y-116864027D01*
X99602459Y-116864025D01*
X99602464Y-116864025D01*
X99685923Y-116829455D01*
X99742346Y-116806085D01*
X99811815Y-116798616D01*
X99837250Y-116806085D01*
X99934846Y-116846509D01*
X99977132Y-116864025D01*
X99977134Y-116864025D01*
X99977139Y-116864027D01*
X100151102Y-116898630D01*
X100151105Y-116898631D01*
X100151107Y-116898631D01*
X100328491Y-116898631D01*
X100328492Y-116898630D01*
X100386480Y-116887095D01*
X100502456Y-116864027D01*
X100502459Y-116864025D01*
X100502464Y-116864025D01*
X100666345Y-116796144D01*
X100813833Y-116697595D01*
X100939262Y-116572166D01*
X100939264Y-116572164D01*
X101037807Y-116424684D01*
X101037807Y-116424683D01*
X101037811Y-116424678D01*
X101101572Y-116270741D01*
X101145411Y-116216341D01*
X101211705Y-116194275D01*
X101216084Y-116194196D01*
X101675469Y-116194196D01*
X101675477Y-116194195D01*
X101675480Y-116194195D01*
X101729885Y-116188637D01*
X101774833Y-116184046D01*
X101935822Y-116130700D01*
X102080169Y-116041665D01*
X102200093Y-115921741D01*
X102206705Y-115911021D01*
X102214060Y-115899098D01*
X102266008Y-115852373D01*
X102334970Y-115841152D01*
X102399052Y-115868995D01*
X102407279Y-115876514D01*
X102945139Y-116414374D01*
X102945149Y-116414385D01*
X102949479Y-116418715D01*
X102949480Y-116418716D01*
X103061284Y-116530520D01*
X103133418Y-116572166D01*
X103198215Y-116609577D01*
X103350943Y-116650501D01*
X103350946Y-116650501D01*
X103516653Y-116650501D01*
X103516669Y-116650500D01*
X105100325Y-116650500D01*
X105100341Y-116650501D01*
X105107937Y-116650501D01*
X105266048Y-116650501D01*
X105266051Y-116650501D01*
X105418779Y-116609577D01*
X105483576Y-116572166D01*
X105555710Y-116530520D01*
X105667514Y-116418716D01*
X105667514Y-116418714D01*
X105677718Y-116408511D01*
X105677722Y-116408506D01*
X105883159Y-116203068D01*
X105884104Y-116202134D01*
X105894899Y-116191589D01*
X105900975Y-116188083D01*
X106005120Y-116083937D01*
X106005593Y-116083476D01*
X106035852Y-116067413D01*
X106065877Y-116051019D01*
X106066635Y-116051073D01*
X106067307Y-116050717D01*
X106101402Y-116053559D01*
X106135569Y-116056003D01*
X106136293Y-116056468D01*
X106136935Y-116056522D01*
X106139818Y-116058733D01*
X106179916Y-116084504D01*
X106419786Y-116324374D01*
X106419796Y-116324385D01*
X106424126Y-116328715D01*
X106424127Y-116328716D01*
X106535931Y-116440520D01*
X106535933Y-116440521D01*
X106535937Y-116440524D01*
X106672856Y-116519573D01*
X106672863Y-116519577D01*
X106784666Y-116549534D01*
X106825589Y-116560500D01*
X106825590Y-116560500D01*
X114868533Y-116560500D01*
X114868549Y-116560501D01*
X114876145Y-116560501D01*
X115034256Y-116560501D01*
X115034259Y-116560501D01*
X115186987Y-116519577D01*
X115237106Y-116490639D01*
X115323918Y-116440520D01*
X115435722Y-116328716D01*
X115435722Y-116328714D01*
X115445930Y-116318507D01*
X115445931Y-116318504D01*
X116085920Y-115678516D01*
X116109867Y-115659832D01*
X116120796Y-115653283D01*
X116125398Y-115651947D01*
X116266865Y-115568284D01*
X116273140Y-115562008D01*
X116286270Y-115554142D01*
X116305836Y-115549058D01*
X116323579Y-115539358D01*
X116338965Y-115540450D01*
X116353894Y-115536572D01*
X116373105Y-115542874D01*
X116393274Y-115544307D01*
X116409755Y-115554899D01*
X116420283Y-115558353D01*
X116425747Y-115565075D01*
X116426969Y-115563501D01*
X116433132Y-115568281D01*
X116433135Y-115568284D01*
X116574602Y-115651947D01*
X116575869Y-115652315D01*
X116732426Y-115697800D01*
X116732429Y-115697800D01*
X116732431Y-115697801D01*
X116769306Y-115700703D01*
X116769314Y-115700703D01*
X117200686Y-115700703D01*
X117200694Y-115700703D01*
X117237569Y-115697801D01*
X117237571Y-115697800D01*
X117237573Y-115697800D01*
X117303934Y-115678520D01*
X117395398Y-115651947D01*
X117536865Y-115568284D01*
X117536870Y-115568278D01*
X117543031Y-115563501D01*
X117544933Y-115565953D01*
X117593579Y-115539358D01*
X117663274Y-115544307D01*
X117695695Y-115565143D01*
X117696969Y-115563501D01*
X117703132Y-115568281D01*
X117703135Y-115568284D01*
X117844602Y-115651947D01*
X117845869Y-115652315D01*
X118002426Y-115697800D01*
X118002429Y-115697800D01*
X118002431Y-115697801D01*
X118039306Y-115700703D01*
X118039314Y-115700703D01*
X118470686Y-115700703D01*
X118470694Y-115700703D01*
X118507569Y-115697801D01*
X118507571Y-115697800D01*
X118507573Y-115697800D01*
X118573934Y-115678520D01*
X118665398Y-115651947D01*
X118806865Y-115568284D01*
X118806870Y-115568278D01*
X118813031Y-115563501D01*
X118814933Y-115565953D01*
X118863579Y-115539358D01*
X118933274Y-115544307D01*
X118965695Y-115565143D01*
X118966969Y-115563501D01*
X118973132Y-115568281D01*
X118973135Y-115568284D01*
X119114602Y-115651947D01*
X119115869Y-115652315D01*
X119272426Y-115697800D01*
X119272429Y-115697800D01*
X119272431Y-115697801D01*
X119309306Y-115700703D01*
X119309314Y-115700703D01*
X119740686Y-115700703D01*
X119740694Y-115700703D01*
X119777569Y-115697801D01*
X119777571Y-115697800D01*
X119777573Y-115697800D01*
X119843934Y-115678520D01*
X119935398Y-115651947D01*
X120076865Y-115568284D01*
X120076870Y-115568278D01*
X120083031Y-115563501D01*
X120084933Y-115565953D01*
X120133579Y-115539358D01*
X120203274Y-115544307D01*
X120235695Y-115565143D01*
X120236969Y-115563501D01*
X120243132Y-115568281D01*
X120243135Y-115568284D01*
X120384602Y-115651947D01*
X120385869Y-115652315D01*
X120542426Y-115697800D01*
X120542429Y-115697800D01*
X120542431Y-115697801D01*
X120579306Y-115700703D01*
X120579314Y-115700703D01*
X121010686Y-115700703D01*
X121010694Y-115700703D01*
X121047569Y-115697801D01*
X121047571Y-115697800D01*
X121047573Y-115697800D01*
X121113934Y-115678520D01*
X121205398Y-115651947D01*
X121346865Y-115568284D01*
X121463081Y-115452068D01*
X121546744Y-115310601D01*
X121581731Y-115190177D01*
X121592597Y-115152776D01*
X121592598Y-115152770D01*
X121595499Y-115115904D01*
X121595500Y-115115897D01*
X121595500Y-113234509D01*
X121592598Y-113197634D01*
X121565827Y-113105490D01*
X121546745Y-113039809D01*
X121546744Y-113039806D01*
X121546744Y-113039805D01*
X121463081Y-112898338D01*
X121463079Y-112898336D01*
X121463076Y-112898332D01*
X121431819Y-112867075D01*
X121398334Y-112805752D01*
X121395500Y-112779394D01*
X121395500Y-112365096D01*
X121415185Y-112298057D01*
X121431814Y-112277420D01*
X123364488Y-110344745D01*
X123425811Y-110311261D01*
X123495503Y-110316245D01*
X123539850Y-110344746D01*
X123685209Y-110490105D01*
X123685214Y-110490109D01*
X123849793Y-110609682D01*
X123892459Y-110665011D01*
X123898438Y-110734625D01*
X123865833Y-110796420D01*
X123849793Y-110810318D01*
X123685214Y-110929890D01*
X123685209Y-110929894D01*
X123534890Y-111080213D01*
X123409951Y-111252179D01*
X123313444Y-111441585D01*
X123247753Y-111643760D01*
X123230379Y-111753459D01*
X123214500Y-111853713D01*
X123214500Y-112066287D01*
X123218462Y-112091304D01*
X123246558Y-112268695D01*
X123247754Y-112276243D01*
X123301828Y-112442666D01*
X123313444Y-112478414D01*
X123409951Y-112667820D01*
X123534890Y-112839786D01*
X123674068Y-112978964D01*
X123707553Y-113040287D01*
X123702569Y-113109979D01*
X123660697Y-113165912D01*
X123651484Y-113172183D01*
X123496659Y-113267680D01*
X123496655Y-113267683D01*
X123372684Y-113391654D01*
X123280643Y-113540875D01*
X123280641Y-113540880D01*
X123225494Y-113707302D01*
X123225493Y-113707309D01*
X123215000Y-113810013D01*
X123215000Y-114210000D01*
X124285854Y-114210000D01*
X124247370Y-114276657D01*
X124215000Y-114397465D01*
X124215000Y-114522535D01*
X124247370Y-114643343D01*
X124285854Y-114710000D01*
X123215001Y-114710000D01*
X123215001Y-115109986D01*
X123225494Y-115212697D01*
X123280641Y-115379119D01*
X123280643Y-115379124D01*
X123372684Y-115528345D01*
X123496654Y-115652315D01*
X123645875Y-115744356D01*
X123645880Y-115744358D01*
X123812302Y-115799505D01*
X123812309Y-115799506D01*
X123915019Y-115809999D01*
X124439999Y-115809999D01*
X124440000Y-115809998D01*
X124440000Y-114864145D01*
X124506657Y-114902630D01*
X124627465Y-114935000D01*
X124752535Y-114935000D01*
X124873343Y-114902630D01*
X124940000Y-114864145D01*
X124940000Y-115809999D01*
X125464972Y-115809999D01*
X125464986Y-115809998D01*
X125567697Y-115799505D01*
X125734119Y-115744358D01*
X125734124Y-115744356D01*
X125883345Y-115652315D01*
X126007315Y-115528345D01*
X126099356Y-115379124D01*
X126099358Y-115379119D01*
X126154505Y-115212697D01*
X126154506Y-115212690D01*
X126164999Y-115109986D01*
X126165000Y-115109973D01*
X126165000Y-114710000D01*
X125094146Y-114710000D01*
X125132630Y-114643343D01*
X125165000Y-114522535D01*
X125165000Y-114397465D01*
X125132630Y-114276657D01*
X125094146Y-114210000D01*
X126164999Y-114210000D01*
X126164999Y-113810028D01*
X126164998Y-113810013D01*
X126154505Y-113707302D01*
X126099358Y-113540880D01*
X126099356Y-113540875D01*
X126007315Y-113391654D01*
X125883345Y-113267684D01*
X125728515Y-113172184D01*
X125681791Y-113120236D01*
X125670568Y-113051273D01*
X125698412Y-112987191D01*
X125705909Y-112978986D01*
X125845104Y-112839792D01*
X125885306Y-112784459D01*
X125964842Y-112674985D01*
X125970051Y-112667816D01*
X126066557Y-112478412D01*
X126132246Y-112276243D01*
X126165500Y-112066287D01*
X126165500Y-111853713D01*
X126132246Y-111643757D01*
X126066557Y-111441588D01*
X125970051Y-111252184D01*
X125970049Y-111252181D01*
X125970048Y-111252179D01*
X125845109Y-111080213D01*
X125694792Y-110929896D01*
X125619952Y-110875522D01*
X125530204Y-110810316D01*
X125487540Y-110754989D01*
X125481561Y-110685376D01*
X125514166Y-110623580D01*
X125530199Y-110609686D01*
X125694792Y-110490104D01*
X125845104Y-110339792D01*
X125845106Y-110339788D01*
X125845109Y-110339786D01*
X125970048Y-110167820D01*
X125970047Y-110167820D01*
X125970051Y-110167816D01*
X126066557Y-109978412D01*
X126132246Y-109776243D01*
X126165500Y-109566287D01*
X126165500Y-109353713D01*
X126132246Y-109143757D01*
X126066557Y-108941588D01*
X125970051Y-108752184D01*
X125970049Y-108752181D01*
X125970048Y-108752179D01*
X125845109Y-108580213D01*
X125694792Y-108429896D01*
X125619952Y-108375522D01*
X125530204Y-108310316D01*
X125487540Y-108254989D01*
X125481561Y-108185376D01*
X125514166Y-108123580D01*
X125530199Y-108109686D01*
X125694792Y-107990104D01*
X125845104Y-107839792D01*
X125845106Y-107839788D01*
X125845109Y-107839786D01*
X125970048Y-107667820D01*
X125970047Y-107667820D01*
X125970051Y-107667816D01*
X126066557Y-107478412D01*
X126132246Y-107276243D01*
X126165500Y-107066287D01*
X126165500Y-106853713D01*
X126132246Y-106643757D01*
X126066557Y-106441588D01*
X125970051Y-106252184D01*
X125970049Y-106252181D01*
X125970048Y-106252179D01*
X125845109Y-106080213D01*
X125694792Y-105929896D01*
X125639275Y-105889561D01*
X125530204Y-105810316D01*
X125487540Y-105754989D01*
X125481561Y-105685376D01*
X125514166Y-105623580D01*
X125530199Y-105609686D01*
X125694792Y-105490104D01*
X125845104Y-105339792D01*
X125845106Y-105339788D01*
X125845109Y-105339786D01*
X125970048Y-105167820D01*
X125970047Y-105167820D01*
X125970051Y-105167816D01*
X126066557Y-104978412D01*
X126132246Y-104776243D01*
X126165500Y-104566287D01*
X126165500Y-104353713D01*
X126132246Y-104143757D01*
X126066557Y-103941588D01*
X125970051Y-103752184D01*
X125970049Y-103752181D01*
X125970048Y-103752179D01*
X125845109Y-103580213D01*
X125694786Y-103429890D01*
X125522820Y-103304951D01*
X125333414Y-103208444D01*
X125333413Y-103208443D01*
X125333412Y-103208443D01*
X125131243Y-103142754D01*
X125131241Y-103142753D01*
X125131240Y-103142753D01*
X124969957Y-103117208D01*
X124921287Y-103109500D01*
X124458713Y-103109500D01*
X124410042Y-103117208D01*
X124248760Y-103142753D01*
X124046585Y-103208444D01*
X123857179Y-103304951D01*
X123685213Y-103429890D01*
X123534890Y-103580213D01*
X123409951Y-103752179D01*
X123313444Y-103941585D01*
X123247753Y-104143760D01*
X123214500Y-104353713D01*
X123214500Y-104566286D01*
X123246238Y-104766676D01*
X123247754Y-104776243D01*
X123308726Y-104963896D01*
X123313444Y-104978414D01*
X123409951Y-105167820D01*
X123534890Y-105339786D01*
X123685209Y-105490105D01*
X123685214Y-105490109D01*
X123849793Y-105609682D01*
X123892459Y-105665011D01*
X123898438Y-105734625D01*
X123865833Y-105796420D01*
X123849793Y-105810318D01*
X123685214Y-105929890D01*
X123685209Y-105929894D01*
X123534890Y-106080213D01*
X123409948Y-106252184D01*
X123409947Y-106252185D01*
X123389765Y-106291795D01*
X123341791Y-106342591D01*
X123279281Y-106359500D01*
X122056670Y-106359500D01*
X122056654Y-106359499D01*
X122049058Y-106359499D01*
X121890943Y-106359499D01*
X121826425Y-106376787D01*
X121738214Y-106400423D01*
X121738209Y-106400426D01*
X121601290Y-106479475D01*
X121601282Y-106479481D01*
X119427584Y-108653181D01*
X119366261Y-108686666D01*
X119339903Y-108689500D01*
X113160097Y-108689500D01*
X113093058Y-108669815D01*
X113072416Y-108653181D01*
X111327590Y-106908355D01*
X111327588Y-106908352D01*
X111208717Y-106789481D01*
X111208716Y-106789480D01*
X111102601Y-106728215D01*
X111102600Y-106728214D01*
X111071783Y-106710422D01*
X111015881Y-106695443D01*
X110919057Y-106669499D01*
X110760943Y-106669499D01*
X110753347Y-106669499D01*
X110753331Y-106669500D01*
X108320097Y-106669500D01*
X108290656Y-106660855D01*
X108260670Y-106654332D01*
X108255654Y-106650577D01*
X108253058Y-106649815D01*
X108232416Y-106633181D01*
X108211619Y-106612384D01*
X108178134Y-106551061D01*
X108183118Y-106481369D01*
X108224990Y-106425436D01*
X108290454Y-106401019D01*
X108299300Y-106400703D01*
X108310686Y-106400703D01*
X108310694Y-106400703D01*
X108347569Y-106397801D01*
X108347571Y-106397800D01*
X108347573Y-106397800D01*
X108419899Y-106376787D01*
X108505398Y-106351947D01*
X108646865Y-106268284D01*
X108646870Y-106268278D01*
X108653031Y-106263501D01*
X108654933Y-106265953D01*
X108703579Y-106239358D01*
X108773274Y-106244307D01*
X108805695Y-106265143D01*
X108806969Y-106263501D01*
X108813132Y-106268281D01*
X108813135Y-106268284D01*
X108954602Y-106351947D01*
X108996224Y-106364039D01*
X109112426Y-106397800D01*
X109112429Y-106397800D01*
X109112431Y-106397801D01*
X109149306Y-106400703D01*
X109149314Y-106400703D01*
X109580686Y-106400703D01*
X109580694Y-106400703D01*
X109617569Y-106397801D01*
X109617571Y-106397800D01*
X109617573Y-106397800D01*
X109689899Y-106376787D01*
X109775398Y-106351947D01*
X109916865Y-106268284D01*
X109916870Y-106268279D01*
X109923026Y-106263504D01*
X109924839Y-106265841D01*
X109973949Y-106239001D01*
X110043643Y-106243959D01*
X110075996Y-106264754D01*
X110077278Y-106263103D01*
X110083447Y-106267888D01*
X110224801Y-106351484D01*
X110382514Y-106397303D01*
X110382511Y-106397303D01*
X110384998Y-106397498D01*
X110385000Y-106397498D01*
X110385000Y-103352906D01*
X110885000Y-103352906D01*
X110885000Y-106397498D01*
X110885001Y-106397498D01*
X110887486Y-106397303D01*
X111045198Y-106351484D01*
X111157889Y-106284839D01*
X111225612Y-106267656D01*
X111291875Y-106289816D01*
X111335639Y-106344282D01*
X111340784Y-106359473D01*
X111345423Y-106376787D01*
X111360764Y-106403356D01*
X111360765Y-106403358D01*
X111424477Y-106513712D01*
X111424481Y-106513717D01*
X111543349Y-106632585D01*
X111543355Y-106632590D01*
X112665139Y-107754374D01*
X112665149Y-107754385D01*
X112669479Y-107758715D01*
X112669480Y-107758716D01*
X112781284Y-107870520D01*
X112781286Y-107870521D01*
X112781290Y-107870524D01*
X112843535Y-107906461D01*
X112843539Y-107906462D01*
X112843540Y-107906463D01*
X112918215Y-107949577D01*
X113070943Y-107990501D01*
X113070946Y-107990501D01*
X113236653Y-107990501D01*
X113236669Y-107990500D01*
X115605639Y-107990500D01*
X115672678Y-108010185D01*
X115693315Y-108026814D01*
X115761682Y-108095181D01*
X115805966Y-108139465D01*
X115953446Y-108238009D01*
X115953459Y-108238016D01*
X116069030Y-108285886D01*
X116117334Y-108305894D01*
X116117336Y-108305894D01*
X116117341Y-108305896D01*
X116291304Y-108340499D01*
X116291307Y-108340500D01*
X116291309Y-108340500D01*
X116468693Y-108340500D01*
X116468694Y-108340499D01*
X116570786Y-108320192D01*
X116642658Y-108305896D01*
X116642661Y-108305894D01*
X116642666Y-108305894D01*
X116806547Y-108238013D01*
X116954035Y-108139464D01*
X117079464Y-108014035D01*
X117178013Y-107866547D01*
X117245894Y-107702666D01*
X117250241Y-107680815D01*
X117280499Y-107528695D01*
X117280500Y-107528693D01*
X117280500Y-107351306D01*
X117280499Y-107351304D01*
X117245896Y-107177341D01*
X117245893Y-107177332D01*
X117229881Y-107138676D01*
X117206178Y-107081449D01*
X117178016Y-107013459D01*
X117178009Y-107013446D01*
X117079464Y-106865965D01*
X117079461Y-106865961D01*
X116954038Y-106740538D01*
X116954034Y-106740535D01*
X116806553Y-106641990D01*
X116806540Y-106641983D01*
X116753457Y-106619996D01*
X116699053Y-106576155D01*
X116676988Y-106509861D01*
X116694267Y-106442162D01*
X116716738Y-106414378D01*
X116735000Y-106397497D01*
X116735000Y-103352906D01*
X117235000Y-103352906D01*
X117235000Y-106397498D01*
X117235001Y-106397498D01*
X117237486Y-106397303D01*
X117395198Y-106351484D01*
X117536550Y-106267889D01*
X117542717Y-106263106D01*
X117544630Y-106265572D01*
X117593222Y-106239005D01*
X117662917Y-106243952D01*
X117695762Y-106265056D01*
X117696969Y-106263501D01*
X117703132Y-106268281D01*
X117703135Y-106268284D01*
X117844602Y-106351947D01*
X117886224Y-106364039D01*
X118002426Y-106397800D01*
X118002429Y-106397800D01*
X118002431Y-106397801D01*
X118039306Y-106400703D01*
X118039314Y-106400703D01*
X118470686Y-106400703D01*
X118470694Y-106400703D01*
X118507569Y-106397801D01*
X118507571Y-106397800D01*
X118507573Y-106397800D01*
X118579899Y-106376787D01*
X118665398Y-106351947D01*
X118806865Y-106268284D01*
X118806870Y-106268278D01*
X118813031Y-106263501D01*
X118814933Y-106265953D01*
X118863579Y-106239358D01*
X118933274Y-106244307D01*
X118965695Y-106265143D01*
X118966969Y-106263501D01*
X118973132Y-106268281D01*
X118973135Y-106268284D01*
X119114602Y-106351947D01*
X119156224Y-106364039D01*
X119272426Y-106397800D01*
X119272429Y-106397800D01*
X119272431Y-106397801D01*
X119309306Y-106400703D01*
X119309314Y-106400703D01*
X119740686Y-106400703D01*
X119740694Y-106400703D01*
X119777569Y-106397801D01*
X119777571Y-106397800D01*
X119777573Y-106397800D01*
X119849899Y-106376787D01*
X119935398Y-106351947D01*
X120076865Y-106268284D01*
X120076870Y-106268278D01*
X120083031Y-106263501D01*
X120084933Y-106265953D01*
X120133579Y-106239358D01*
X120203274Y-106244307D01*
X120235695Y-106265143D01*
X120236969Y-106263501D01*
X120243132Y-106268281D01*
X120243135Y-106268284D01*
X120384602Y-106351947D01*
X120426224Y-106364039D01*
X120542426Y-106397800D01*
X120542429Y-106397800D01*
X120542431Y-106397801D01*
X120579306Y-106400703D01*
X120579314Y-106400703D01*
X121010686Y-106400703D01*
X121010694Y-106400703D01*
X121047569Y-106397801D01*
X121047571Y-106397800D01*
X121047573Y-106397800D01*
X121119899Y-106376787D01*
X121205398Y-106351947D01*
X121346865Y-106268284D01*
X121463081Y-106152068D01*
X121546744Y-106010601D01*
X121592598Y-105852772D01*
X121595500Y-105815897D01*
X121595500Y-105320410D01*
X121604939Y-105272958D01*
X121648488Y-105167820D01*
X121660894Y-105137869D01*
X121695500Y-104963894D01*
X121695500Y-104786512D01*
X121695500Y-104786509D01*
X121695499Y-104786507D01*
X121660896Y-104612544D01*
X121660893Y-104612535D01*
X121604939Y-104477448D01*
X121595500Y-104429996D01*
X121595500Y-103934516D01*
X121595499Y-103934501D01*
X121592598Y-103897635D01*
X121592597Y-103897629D01*
X121546745Y-103739809D01*
X121546744Y-103739806D01*
X121546744Y-103739805D01*
X121463081Y-103598338D01*
X121463079Y-103598336D01*
X121463076Y-103598332D01*
X121346870Y-103482126D01*
X121346862Y-103482120D01*
X121258545Y-103429890D01*
X121205398Y-103398459D01*
X121205397Y-103398458D01*
X121205396Y-103398458D01*
X121205393Y-103398457D01*
X121047573Y-103352605D01*
X121047567Y-103352604D01*
X121010701Y-103349703D01*
X121010694Y-103349703D01*
X120579306Y-103349703D01*
X120579298Y-103349703D01*
X120542432Y-103352604D01*
X120542426Y-103352605D01*
X120384606Y-103398457D01*
X120384603Y-103398458D01*
X120243137Y-103482120D01*
X120236969Y-103486905D01*
X120235072Y-103484459D01*
X120186358Y-103511060D01*
X120116666Y-103506076D01*
X120084296Y-103485272D01*
X120083031Y-103486905D01*
X120076862Y-103482120D01*
X119988545Y-103429890D01*
X119935398Y-103398459D01*
X119935397Y-103398458D01*
X119935396Y-103398458D01*
X119935393Y-103398457D01*
X119777573Y-103352605D01*
X119777567Y-103352604D01*
X119740701Y-103349703D01*
X119740694Y-103349703D01*
X119309306Y-103349703D01*
X119309298Y-103349703D01*
X119272432Y-103352604D01*
X119272426Y-103352605D01*
X119114606Y-103398457D01*
X119114603Y-103398458D01*
X118973137Y-103482120D01*
X118966969Y-103486905D01*
X118965072Y-103484459D01*
X118916358Y-103511060D01*
X118846666Y-103506076D01*
X118814296Y-103485272D01*
X118813031Y-103486905D01*
X118806862Y-103482120D01*
X118718545Y-103429890D01*
X118665398Y-103398459D01*
X118665397Y-103398458D01*
X118665396Y-103398458D01*
X118665393Y-103398457D01*
X118507573Y-103352605D01*
X118507567Y-103352604D01*
X118470701Y-103349703D01*
X118470694Y-103349703D01*
X118039306Y-103349703D01*
X118039298Y-103349703D01*
X118002432Y-103352604D01*
X118002426Y-103352605D01*
X117844606Y-103398457D01*
X117844603Y-103398458D01*
X117703140Y-103482118D01*
X117696974Y-103486902D01*
X117695174Y-103484582D01*
X117645913Y-103511433D01*
X117576225Y-103506396D01*
X117543992Y-103485664D01*
X117542722Y-103487303D01*
X117536552Y-103482517D01*
X117395196Y-103398920D01*
X117395193Y-103398919D01*
X117237494Y-103353103D01*
X117237497Y-103353103D01*
X117235000Y-103352906D01*
X116735000Y-103352906D01*
X116732503Y-103353103D01*
X116574806Y-103398919D01*
X116574803Y-103398920D01*
X116433449Y-103482516D01*
X116427283Y-103487300D01*
X116425389Y-103484858D01*
X116376580Y-103511442D01*
X116306894Y-103506382D01*
X116274227Y-103485362D01*
X116273031Y-103486905D01*
X116266862Y-103482120D01*
X116178545Y-103429890D01*
X116125398Y-103398459D01*
X116125397Y-103398458D01*
X116125396Y-103398458D01*
X116125393Y-103398457D01*
X115967573Y-103352605D01*
X115967567Y-103352604D01*
X115930701Y-103349703D01*
X115930694Y-103349703D01*
X115499306Y-103349703D01*
X115499298Y-103349703D01*
X115462432Y-103352604D01*
X115462426Y-103352605D01*
X115304606Y-103398457D01*
X115304603Y-103398458D01*
X115163137Y-103482120D01*
X115156969Y-103486905D01*
X115155072Y-103484459D01*
X115106358Y-103511060D01*
X115036666Y-103506076D01*
X115004296Y-103485272D01*
X115003031Y-103486905D01*
X114996862Y-103482120D01*
X114908545Y-103429890D01*
X114855398Y-103398459D01*
X114855397Y-103398458D01*
X114855396Y-103398458D01*
X114855393Y-103398457D01*
X114697573Y-103352605D01*
X114697567Y-103352604D01*
X114660701Y-103349703D01*
X114660694Y-103349703D01*
X114229306Y-103349703D01*
X114229298Y-103349703D01*
X114192432Y-103352604D01*
X114192426Y-103352605D01*
X114034606Y-103398457D01*
X114034603Y-103398458D01*
X113893137Y-103482120D01*
X113886969Y-103486905D01*
X113885072Y-103484459D01*
X113836358Y-103511060D01*
X113766666Y-103506076D01*
X113734296Y-103485272D01*
X113733031Y-103486905D01*
X113726862Y-103482120D01*
X113638545Y-103429890D01*
X113585398Y-103398459D01*
X113585397Y-103398458D01*
X113585396Y-103398458D01*
X113585393Y-103398457D01*
X113427573Y-103352605D01*
X113427567Y-103352604D01*
X113390701Y-103349703D01*
X113390694Y-103349703D01*
X112959306Y-103349703D01*
X112959298Y-103349703D01*
X112922432Y-103352604D01*
X112922426Y-103352605D01*
X112764606Y-103398457D01*
X112764603Y-103398458D01*
X112623137Y-103482120D01*
X112616969Y-103486905D01*
X112615072Y-103484459D01*
X112566358Y-103511060D01*
X112496666Y-103506076D01*
X112464296Y-103485272D01*
X112463031Y-103486905D01*
X112456862Y-103482120D01*
X112368545Y-103429890D01*
X112315398Y-103398459D01*
X112315397Y-103398458D01*
X112315396Y-103398458D01*
X112315393Y-103398457D01*
X112157573Y-103352605D01*
X112157567Y-103352604D01*
X112120701Y-103349703D01*
X112120694Y-103349703D01*
X111689306Y-103349703D01*
X111689298Y-103349703D01*
X111652432Y-103352604D01*
X111652426Y-103352605D01*
X111494606Y-103398457D01*
X111494603Y-103398458D01*
X111353140Y-103482118D01*
X111346974Y-103486902D01*
X111345174Y-103484582D01*
X111295913Y-103511433D01*
X111226225Y-103506396D01*
X111193992Y-103485664D01*
X111192722Y-103487303D01*
X111186552Y-103482517D01*
X111045196Y-103398920D01*
X111045193Y-103398919D01*
X110887494Y-103353103D01*
X110887497Y-103353103D01*
X110885000Y-103352906D01*
X110385000Y-103352906D01*
X110382503Y-103353103D01*
X110224806Y-103398919D01*
X110224803Y-103398920D01*
X110083449Y-103482516D01*
X110077283Y-103487300D01*
X110075389Y-103484858D01*
X110026580Y-103511442D01*
X109956894Y-103506382D01*
X109924227Y-103485362D01*
X109923031Y-103486905D01*
X109916862Y-103482120D01*
X109828545Y-103429890D01*
X109775398Y-103398459D01*
X109775397Y-103398458D01*
X109775396Y-103398458D01*
X109775393Y-103398457D01*
X109617573Y-103352605D01*
X109617567Y-103352604D01*
X109580701Y-103349703D01*
X109580694Y-103349703D01*
X109149306Y-103349703D01*
X109149298Y-103349703D01*
X109112432Y-103352604D01*
X109112426Y-103352605D01*
X108954606Y-103398457D01*
X108954603Y-103398458D01*
X108813137Y-103482120D01*
X108806969Y-103486905D01*
X108805072Y-103484459D01*
X108756358Y-103511060D01*
X108686666Y-103506076D01*
X108654296Y-103485272D01*
X108653031Y-103486905D01*
X108646862Y-103482120D01*
X108558545Y-103429890D01*
X108505398Y-103398459D01*
X108505397Y-103398458D01*
X108505396Y-103398458D01*
X108505393Y-103398457D01*
X108347573Y-103352605D01*
X108347567Y-103352604D01*
X108310701Y-103349703D01*
X108310694Y-103349703D01*
X107879306Y-103349703D01*
X107879298Y-103349703D01*
X107842432Y-103352604D01*
X107842426Y-103352605D01*
X107684606Y-103398457D01*
X107684603Y-103398458D01*
X107543137Y-103482120D01*
X107536969Y-103486905D01*
X107535072Y-103484459D01*
X107486358Y-103511060D01*
X107416666Y-103506076D01*
X107396269Y-103496263D01*
X107383139Y-103488396D01*
X107376865Y-103482122D01*
X107235398Y-103398459D01*
X107230799Y-103397122D01*
X107219869Y-103390574D01*
X107213898Y-103384105D01*
X107195919Y-103371886D01*
X107189397Y-103365364D01*
X107189374Y-103365343D01*
X106341160Y-102517129D01*
X106341158Y-102517126D01*
X106222287Y-102398255D01*
X106222286Y-102398254D01*
X106135474Y-102348134D01*
X106135474Y-102348133D01*
X106135470Y-102348132D01*
X106085355Y-102319197D01*
X105932627Y-102278273D01*
X105774513Y-102278273D01*
X105766917Y-102278273D01*
X105766901Y-102278274D01*
X95280283Y-102278274D01*
X95122169Y-102278274D01*
X94969441Y-102319197D01*
X94969440Y-102319197D01*
X94969438Y-102319198D01*
X94969435Y-102319199D01*
X94919322Y-102348133D01*
X94919321Y-102348134D01*
X94875915Y-102373194D01*
X94832511Y-102398253D01*
X94832508Y-102398255D01*
X92697181Y-104533583D01*
X92635858Y-104567068D01*
X92566166Y-104562084D01*
X92510233Y-104520212D01*
X92485816Y-104454748D01*
X92485500Y-104445902D01*
X92485500Y-104418916D01*
X92471335Y-104329481D01*
X92452246Y-104208960D01*
X92386557Y-104006791D01*
X92290051Y-103817387D01*
X92290049Y-103817384D01*
X92290048Y-103817382D01*
X92165109Y-103645416D01*
X92014786Y-103495093D01*
X91842820Y-103370154D01*
X91653414Y-103273647D01*
X91653413Y-103273646D01*
X91653412Y-103273646D01*
X91451243Y-103207957D01*
X91451241Y-103207956D01*
X91451240Y-103207956D01*
X91289957Y-103182411D01*
X91241287Y-103174703D01*
X90778713Y-103174703D01*
X90730042Y-103182411D01*
X90568760Y-103207956D01*
X90366585Y-103273647D01*
X90177179Y-103370154D01*
X90005213Y-103495093D01*
X89854890Y-103645416D01*
X89729951Y-103817382D01*
X89633444Y-104006788D01*
X89567753Y-104208963D01*
X89564401Y-104230129D01*
X89534500Y-104418916D01*
X88544264Y-104418916D01*
X88544264Y-101849703D01*
X88563949Y-101782664D01*
X88616753Y-101736909D01*
X88668264Y-101725703D01*
X128019264Y-101725703D01*
X128086303Y-101745388D01*
G37*
%TD.AperFunction*%
%TD*%
M02*
