%TF.GenerationSoftware,KiCad,Pcbnew,9.0.5*%
%TF.CreationDate,2025-11-21T15:13:49+01:00*%
%TF.ProjectId,7segment-driver-board,37736567-6d65-46e7-942d-647269766572,1.0*%
%TF.SameCoordinates,Original*%
%TF.FileFunction,Copper,L2,Bot*%
%TF.FilePolarity,Positive*%
%FSLAX46Y46*%
G04 Gerber Fmt 4.6, Leading zero omitted, Abs format (unit mm)*
G04 Created by KiCad (PCBNEW 9.0.5) date 2025-11-21 15:13:49*
%MOMM*%
%LPD*%
G01*
G04 APERTURE LIST*
G04 Aperture macros list*
%AMRoundRect*
0 Rectangle with rounded corners*
0 $1 Rounding radius*
0 $2 $3 $4 $5 $6 $7 $8 $9 X,Y pos of 4 corners*
0 Add a 4 corners polygon primitive as box body*
4,1,4,$2,$3,$4,$5,$6,$7,$8,$9,$2,$3,0*
0 Add four circle primitives for the rounded corners*
1,1,$1+$1,$2,$3*
1,1,$1+$1,$4,$5*
1,1,$1+$1,$6,$7*
1,1,$1+$1,$8,$9*
0 Add four rect primitives between the rounded corners*
20,1,$1+$1,$2,$3,$4,$5,0*
20,1,$1+$1,$4,$5,$6,$7,0*
20,1,$1+$1,$6,$7,$8,$9,0*
20,1,$1+$1,$8,$9,$2,$3,0*%
G04 Aperture macros list end*
%TA.AperFunction,ComponentPad*%
%ADD10RoundRect,0.250000X0.725000X-0.600000X0.725000X0.600000X-0.725000X0.600000X-0.725000X-0.600000X0*%
%TD*%
%TA.AperFunction,ComponentPad*%
%ADD11O,1.950000X1.700000*%
%TD*%
%TA.AperFunction,ComponentPad*%
%ADD12RoundRect,0.250000X0.750000X-0.600000X0.750000X0.600000X-0.750000X0.600000X-0.750000X-0.600000X0*%
%TD*%
%TA.AperFunction,ComponentPad*%
%ADD13O,2.000000X1.700000*%
%TD*%
%TA.AperFunction,SMDPad,CuDef*%
%ADD14R,1.000000X3.000000*%
%TD*%
%TA.AperFunction,ViaPad*%
%ADD15C,0.800000*%
%TD*%
%TA.AperFunction,Conductor*%
%ADD16C,0.250000*%
%TD*%
%TA.AperFunction,Conductor*%
%ADD17C,0.381000*%
%TD*%
%TA.AperFunction,Conductor*%
%ADD18C,0.254000*%
%TD*%
G04 APERTURE END LIST*
D10*
%TO.P,P2,1,Pin_1*%
%TO.N,GND*%
X91010000Y-114525203D03*
D11*
%TO.P,P2,2,Pin_2*%
%TO.N,Net-(D1-A)*%
X91010000Y-112025203D03*
%TO.P,P2,3,Pin_3*%
%TO.N,/Din*%
X91010000Y-109525203D03*
%TO.P,P2,4,Pin_4*%
%TO.N,/Sel*%
X91010000Y-107025203D03*
%TO.P,P2,5,Pin_5*%
%TO.N,/Clk*%
X91010000Y-104525203D03*
%TD*%
D10*
%TO.P,P3,1,Pin_1*%
%TO.N,GND*%
X124690000Y-114460000D03*
D11*
%TO.P,P3,2,Pin_2*%
%TO.N,Net-(D1-A)*%
X124690000Y-111960000D03*
%TO.P,P3,3,Pin_3*%
%TO.N,/DOut*%
X124690000Y-109460000D03*
%TO.P,P3,4,Pin_4*%
%TO.N,/Sel*%
X124690000Y-106960000D03*
%TO.P,P3,5,Pin_5*%
%TO.N,/Clk*%
X124690000Y-104460000D03*
%TD*%
D12*
%TO.P,P1,1,Pin_1*%
%TO.N,GND*%
X97658472Y-110761747D03*
D13*
%TO.P,P1,2,Pin_2*%
%TO.N,Net-(D2-A)*%
X97658472Y-108261747D03*
%TD*%
D14*
%TO.P,P4,1,Pin_1*%
%TO.N,/SEG_A*%
X99841171Y-112066562D03*
%TO.P,P4,2,Pin_2*%
%TO.N,/DIG_0*%
X99841171Y-107026562D03*
%TO.P,P4,3,Pin_3*%
%TO.N,/SEG_B*%
X102381171Y-112066562D03*
%TO.P,P4,4,Pin_4*%
%TO.N,/DIG_1*%
X102381171Y-107026562D03*
%TO.P,P4,5,Pin_5*%
%TO.N,/SEG_C*%
X104921171Y-112066562D03*
%TO.P,P4,6,Pin_6*%
%TO.N,/DIG_2*%
X104921171Y-107026562D03*
%TO.P,P4,7,Pin_7*%
%TO.N,/SEG_D*%
X107461171Y-112066562D03*
%TO.P,P4,8,Pin_8*%
%TO.N,/DIG_3*%
X107461171Y-107026562D03*
%TO.P,P4,9,Pin_9*%
%TO.N,/SEG_E*%
X110001171Y-112066562D03*
%TO.P,P4,10,Pin_10*%
%TO.N,/DIG_4*%
X110001171Y-107026562D03*
%TO.P,P4,11,Pin_11*%
%TO.N,/SEG_F*%
X112541171Y-112066562D03*
%TO.P,P4,12,Pin_12*%
%TO.N,/DIG_5*%
X112541171Y-107026562D03*
%TO.P,P4,13,Pin_13*%
%TO.N,/SEG_G*%
X115081171Y-112066562D03*
%TO.P,P4,14,Pin_14*%
%TO.N,/DIG_6*%
X115081171Y-107026562D03*
%TO.P,P4,15,Pin_15*%
%TO.N,/SEG_DP*%
X117621171Y-112066562D03*
%TO.P,P4,16,Pin_16*%
%TO.N,/DIG_7*%
X117621171Y-107026562D03*
%TD*%
D15*
%TO.N,/SEG_B*%
X106247762Y-110350000D03*
%TO.N,/SEG_F*%
X113654500Y-112070000D03*
%TO.N,/DIG_1*%
X108095000Y-104875203D03*
%TO.N,GND*%
X120360000Y-108250000D03*
X121730000Y-112110000D03*
%TO.N,/Din*%
X95730000Y-107840000D03*
X120795000Y-104875203D03*
%TO.N,/Clk*%
X106825000Y-114175203D03*
%TO.N,/SEG_G*%
X111122933Y-112100000D03*
%TO.N,/DIG_2*%
X114445000Y-104875203D03*
%TO.N,/SEG_A*%
X107079696Y-109625000D03*
%TO.N,/DIG_4*%
X118255000Y-104875203D03*
%TO.N,/DIG_5*%
X109365000Y-104875203D03*
%TO.N,/DIG_7*%
X116350000Y-106480000D03*
%TO.N,/SEG_D*%
X119840000Y-112510000D03*
%TO.N,/DIG_3*%
X113175000Y-104875203D03*
%TO.N,/SEG_DP*%
X118800000Y-112040000D03*
%TO.N,/SEG_C*%
X106247762Y-112180000D03*
%TO.N,/DIG_6*%
X115715000Y-104875203D03*
%TO.N,/SEG_E*%
X116521169Y-112030000D03*
%TO.N,/DIG_0*%
X119525000Y-104875203D03*
%TO.N,Net-(D1-A)*%
X99350000Y-114900203D03*
X100250000Y-114900203D03*
X98480000Y-114910000D03*
%TD*%
D16*
%TO.N,/Clk*%
X123799362Y-104460000D02*
X124690000Y-104460000D01*
X122687000Y-105572362D02*
X123799362Y-104460000D01*
X122687000Y-113332558D02*
X122687000Y-105572362D01*
X121844355Y-114175203D02*
X122687000Y-113332558D01*
X106825000Y-114175203D02*
X121844355Y-114175203D01*
D17*
%TO.N,Net-(D1-A)*%
X121783297Y-114966703D02*
X124690000Y-112060000D01*
X100316500Y-114966703D02*
X121783297Y-114966703D01*
X100250000Y-114900203D02*
X100316500Y-114966703D01*
X124690000Y-112060000D02*
X124690000Y-111960000D01*
X100090203Y-114900203D02*
X100250000Y-115060000D01*
X100250000Y-115060000D02*
X100250000Y-114900203D01*
X98489797Y-114900203D02*
X100090203Y-114900203D01*
X98480000Y-114910000D02*
X98489797Y-114900203D01*
X92291933Y-112025203D02*
X91010000Y-112025203D01*
X95176730Y-114910000D02*
X92291933Y-112025203D01*
X98480000Y-114910000D02*
X95176730Y-114910000D01*
X98480000Y-114910000D02*
X98473494Y-114916506D01*
D16*
%TO.N,/Clk*%
X93633000Y-106663000D02*
X91510000Y-104540000D01*
X93633000Y-111992362D02*
X93633000Y-106663000D01*
X95815841Y-114175203D02*
X93633000Y-111992362D01*
X106825000Y-114175203D02*
X95815841Y-114175203D01*
%TO.N,/SEG_A*%
X99740000Y-112059870D02*
X99728764Y-112071106D01*
X100495000Y-109625000D02*
X99740000Y-110380000D01*
X99740000Y-110380000D02*
X99740000Y-112059870D01*
X107079696Y-109625000D02*
X100495000Y-109625000D01*
%TO.N,/SEG_B*%
X102381171Y-110418829D02*
X102381171Y-112066562D01*
X102599000Y-110201000D02*
X102381171Y-110418829D01*
X106247762Y-110206493D02*
X106242269Y-110201000D01*
X106247762Y-110350000D02*
X106247762Y-110206493D01*
X106242269Y-110201000D02*
X102599000Y-110201000D01*
%TO.N,/DIG_1*%
X102381171Y-108800171D02*
X102381171Y-107026562D01*
X102481000Y-108900000D02*
X102381171Y-108800171D01*
X108710000Y-108382190D02*
X108192190Y-108900000D01*
X108192190Y-108900000D02*
X102481000Y-108900000D01*
X108095000Y-104875203D02*
X108710000Y-105490203D01*
X108710000Y-105490203D02*
X108710000Y-108382190D01*
%TO.N,/SEG_G*%
X111122933Y-110832800D02*
X111122933Y-112100000D01*
X114790562Y-110240562D02*
X111715171Y-110240562D01*
X111715171Y-110240562D02*
X111122933Y-110832800D01*
X115081171Y-112066562D02*
X115081171Y-110531171D01*
X115081171Y-110531171D02*
X114790562Y-110240562D01*
D18*
%TO.N,/SEG_E*%
X109888764Y-110241236D02*
X109888764Y-112071106D01*
X110346000Y-109784000D02*
X109888764Y-110241236D01*
X115404000Y-109784000D02*
X110346000Y-109784000D01*
X116530000Y-112021169D02*
X116530000Y-110910000D01*
D16*
%TO.N,/SEG_D*%
X107348764Y-110381236D02*
X107348764Y-112071106D01*
X108399000Y-109331000D02*
X107348764Y-110381236D01*
X118161000Y-109331000D02*
X108399000Y-109331000D01*
X119830000Y-111000000D02*
X118161000Y-109331000D01*
X119840000Y-112510000D02*
X119830000Y-112500000D01*
X119830000Y-112500000D02*
X119830000Y-111000000D01*
D18*
%TO.N,/SEG_E*%
X116530000Y-110910000D02*
X115404000Y-109784000D01*
D16*
%TO.N,/DIG_4*%
X109888764Y-108688764D02*
X109888764Y-107031106D01*
X118610000Y-108580000D02*
X118310000Y-108880000D01*
X118310000Y-108880000D02*
X110080000Y-108880000D01*
X118610000Y-105230203D02*
X118610000Y-108580000D01*
X118255000Y-104875203D02*
X118610000Y-105230203D01*
X110080000Y-108880000D02*
X109888764Y-108688764D01*
D18*
%TO.N,/SEG_E*%
X116521169Y-112030000D02*
X116530000Y-112021169D01*
D16*
%TO.N,/DIG_7*%
X116896562Y-107026562D02*
X117621171Y-107026562D01*
X116350000Y-106480000D02*
X116896562Y-107026562D01*
%TO.N,/DIG_6*%
X115081171Y-105509032D02*
X115715000Y-104875203D01*
X115081171Y-107026562D02*
X115081171Y-105509032D01*
%TO.N,/SEG_DP*%
X118773438Y-112066562D02*
X118800000Y-112040000D01*
X117621171Y-112066562D02*
X118773438Y-112066562D01*
%TO.N,/SEG_F*%
X113421906Y-112066562D02*
X112541171Y-112066562D01*
X113654500Y-112070000D02*
X113425344Y-112070000D01*
X113425344Y-112070000D02*
X113421906Y-112066562D01*
%TO.N,/Din*%
X118629797Y-102710000D02*
X120795000Y-104875203D01*
X95730000Y-107840000D02*
X100860000Y-102710000D01*
X100860000Y-102710000D02*
X118629797Y-102710000D01*
%TO.N,/DIG_2*%
X114445000Y-104875203D02*
X114405203Y-104875203D01*
X106380000Y-103650000D02*
X104808764Y-105221236D01*
X113180000Y-103650000D02*
X106380000Y-103650000D01*
X114405203Y-104875203D02*
X113180000Y-103650000D01*
X104808764Y-105221236D02*
X104808764Y-107031106D01*
%TO.N,/DIG_1*%
X102380000Y-107025391D02*
X102381171Y-107026562D01*
%TO.N,/DIG_5*%
X109365000Y-104875203D02*
X111945203Y-104875203D01*
X112428764Y-105358764D02*
X112428764Y-107031106D01*
X111945203Y-104875203D02*
X112428764Y-105358764D01*
%TO.N,/DIG_3*%
X107320000Y-107002342D02*
X107348764Y-107031106D01*
X113165203Y-104875203D02*
X112420000Y-104130000D01*
X113175000Y-104875203D02*
X113165203Y-104875203D01*
X112420000Y-104130000D02*
X107800000Y-104130000D01*
X107800000Y-104130000D02*
X107320000Y-104610000D01*
X107320000Y-104610000D02*
X107320000Y-107002342D01*
D18*
%TO.N,/SEG_C*%
X104877658Y-112140000D02*
X104808764Y-112071106D01*
X106247762Y-112177762D02*
X106210000Y-112140000D01*
X106247762Y-112180000D02*
X106247762Y-112177762D01*
X106210000Y-112140000D02*
X104877658Y-112140000D01*
D16*
%TO.N,/DIG_0*%
X99728764Y-107031106D02*
X99728764Y-105151236D01*
X117850000Y-103170000D02*
X119525000Y-104845000D01*
X119525000Y-104845000D02*
X119525000Y-104875203D01*
X99728764Y-105151236D02*
X101710000Y-103170000D01*
X101710000Y-103170000D02*
X117850000Y-103170000D01*
%TO.N,/Sel*%
X124234722Y-107045278D02*
X124652000Y-107045278D01*
D18*
%TO.N,/DOut*%
X124652000Y-110058000D02*
X124652000Y-109545278D01*
X124690000Y-110169056D02*
X124690000Y-109460000D01*
D17*
%TO.N,Net-(D1-A)*%
X124652000Y-112045278D02*
X124652000Y-112098000D01*
%TD*%
%TA.AperFunction,Conductor*%
%TO.N,GND*%
G36*
X128276303Y-101555388D02*
G01*
X128322058Y-101608192D01*
X128333264Y-101659703D01*
X128333264Y-117390703D01*
X128313579Y-117457742D01*
X128260775Y-117503497D01*
X128209264Y-117514703D01*
X88597976Y-117514703D01*
X88530937Y-117495018D01*
X88485182Y-117442214D01*
X88473976Y-117390913D01*
X88452320Y-104418916D01*
X89534500Y-104418916D01*
X89534500Y-104631489D01*
X89564753Y-104822503D01*
X89567754Y-104841446D01*
X89632341Y-105040224D01*
X89633444Y-105043617D01*
X89729951Y-105233023D01*
X89854890Y-105404989D01*
X90005209Y-105555308D01*
X90005214Y-105555312D01*
X90169793Y-105674885D01*
X90212459Y-105730214D01*
X90218438Y-105799828D01*
X90185833Y-105861623D01*
X90169793Y-105875521D01*
X90005214Y-105995093D01*
X90005209Y-105995097D01*
X89854890Y-106145416D01*
X89729951Y-106317382D01*
X89633444Y-106506788D01*
X89567753Y-106708963D01*
X89558149Y-106769600D01*
X89534500Y-106918916D01*
X89534500Y-107131490D01*
X89567754Y-107341446D01*
X89591151Y-107413453D01*
X89633443Y-107543615D01*
X89729951Y-107733023D01*
X89854890Y-107904989D01*
X90005209Y-108055308D01*
X90005214Y-108055312D01*
X90169793Y-108174885D01*
X90212459Y-108230214D01*
X90218438Y-108299828D01*
X90185833Y-108361623D01*
X90169793Y-108375521D01*
X90005214Y-108495093D01*
X90005209Y-108495097D01*
X89854890Y-108645416D01*
X89729951Y-108817382D01*
X89633444Y-109006788D01*
X89567753Y-109208963D01*
X89554625Y-109291851D01*
X89534500Y-109418916D01*
X89534500Y-109631490D01*
X89567754Y-109841446D01*
X89625298Y-110018548D01*
X89633444Y-110043617D01*
X89729951Y-110233023D01*
X89854890Y-110404989D01*
X90005209Y-110555308D01*
X90005214Y-110555312D01*
X90169793Y-110674885D01*
X90212459Y-110730214D01*
X90218438Y-110799828D01*
X90185833Y-110861623D01*
X90169793Y-110875521D01*
X90005214Y-110995093D01*
X90005209Y-110995097D01*
X89854890Y-111145416D01*
X89729951Y-111317382D01*
X89633444Y-111506788D01*
X89567753Y-111708963D01*
X89549059Y-111826996D01*
X89534500Y-111918916D01*
X89534500Y-112131490D01*
X89567754Y-112341446D01*
X89593703Y-112421309D01*
X89633444Y-112543617D01*
X89729951Y-112733023D01*
X89854890Y-112904989D01*
X89994068Y-113044167D01*
X90027553Y-113105490D01*
X90022569Y-113175182D01*
X89980697Y-113231115D01*
X89971484Y-113237386D01*
X89816659Y-113332883D01*
X89816655Y-113332886D01*
X89692684Y-113456857D01*
X89600643Y-113606078D01*
X89600641Y-113606083D01*
X89545494Y-113772505D01*
X89545493Y-113772512D01*
X89535000Y-113875216D01*
X89535000Y-114275203D01*
X90605854Y-114275203D01*
X90567370Y-114341860D01*
X90535000Y-114462668D01*
X90535000Y-114587738D01*
X90567370Y-114708546D01*
X90605854Y-114775203D01*
X89535001Y-114775203D01*
X89535001Y-115175189D01*
X89545494Y-115277900D01*
X89600641Y-115444322D01*
X89600643Y-115444327D01*
X89692684Y-115593548D01*
X89816654Y-115717518D01*
X89965875Y-115809559D01*
X89965880Y-115809561D01*
X90132302Y-115864708D01*
X90132309Y-115864709D01*
X90235019Y-115875202D01*
X90759999Y-115875202D01*
X90760000Y-115875201D01*
X90760000Y-114929348D01*
X90826657Y-114967833D01*
X90947465Y-115000203D01*
X91072535Y-115000203D01*
X91193343Y-114967833D01*
X91260000Y-114929348D01*
X91260000Y-115875202D01*
X91784972Y-115875202D01*
X91784986Y-115875201D01*
X91887697Y-115864708D01*
X92054119Y-115809561D01*
X92054124Y-115809559D01*
X92203345Y-115717518D01*
X92327315Y-115593548D01*
X92419356Y-115444327D01*
X92419358Y-115444322D01*
X92474505Y-115277900D01*
X92474506Y-115277893D01*
X92484999Y-115175189D01*
X92485000Y-115175176D01*
X92485000Y-114775203D01*
X91414146Y-114775203D01*
X91452630Y-114708546D01*
X91485000Y-114587738D01*
X91485000Y-114462668D01*
X91452630Y-114341860D01*
X91414146Y-114275203D01*
X92484999Y-114275203D01*
X92484999Y-113875231D01*
X92484998Y-113875216D01*
X92474505Y-113772505D01*
X92419358Y-113606083D01*
X92419356Y-113606078D01*
X92327315Y-113456857D01*
X92203345Y-113332887D01*
X92048515Y-113237387D01*
X92001791Y-113185439D01*
X91990568Y-113116476D01*
X92018412Y-113052394D01*
X92025920Y-113044178D01*
X92092124Y-112977974D01*
X92153445Y-112944491D01*
X92223137Y-112949475D01*
X92267484Y-112977976D01*
X94736237Y-115446730D01*
X94736240Y-115446733D01*
X94821105Y-115503438D01*
X94821106Y-115503438D01*
X94835359Y-115512962D01*
X94849420Y-115522357D01*
X94951521Y-115564648D01*
X94975173Y-115574445D01*
X94975177Y-115574445D01*
X94975178Y-115574446D01*
X95108669Y-115601000D01*
X95108672Y-115601000D01*
X95108673Y-115601000D01*
X95244787Y-115601000D01*
X97855682Y-115601000D01*
X97922721Y-115620685D01*
X97924573Y-115621898D01*
X98053446Y-115708009D01*
X98053459Y-115708016D01*
X98176363Y-115758923D01*
X98217334Y-115775894D01*
X98217336Y-115775894D01*
X98217341Y-115775896D01*
X98391304Y-115810499D01*
X98391307Y-115810500D01*
X98391309Y-115810500D01*
X98568693Y-115810500D01*
X98568694Y-115810499D01*
X98626682Y-115798964D01*
X98742658Y-115775896D01*
X98742661Y-115775894D01*
X98742666Y-115775894D01*
X98879374Y-115719267D01*
X98948843Y-115711799D01*
X98974276Y-115719267D01*
X99087334Y-115766097D01*
X99087336Y-115766097D01*
X99087341Y-115766099D01*
X99261304Y-115800702D01*
X99261307Y-115800703D01*
X99261309Y-115800703D01*
X99438693Y-115800703D01*
X99438694Y-115800702D01*
X99496682Y-115789167D01*
X99612658Y-115766099D01*
X99612661Y-115766097D01*
X99612666Y-115766097D01*
X99696125Y-115731527D01*
X99752548Y-115708157D01*
X99822017Y-115700688D01*
X99847452Y-115708157D01*
X99934846Y-115744356D01*
X99987334Y-115766097D01*
X99987336Y-115766097D01*
X99987341Y-115766099D01*
X100161304Y-115800702D01*
X100161307Y-115800703D01*
X100161309Y-115800703D01*
X100338693Y-115800703D01*
X100338694Y-115800702D01*
X100396682Y-115789167D01*
X100512658Y-115766099D01*
X100512661Y-115766097D01*
X100512666Y-115766097D01*
X100676547Y-115698216D01*
X100676550Y-115698213D01*
X100676552Y-115698213D01*
X100705902Y-115678602D01*
X100772579Y-115657723D01*
X100774794Y-115657703D01*
X121851357Y-115657703D01*
X121941167Y-115639837D01*
X121984854Y-115631148D01*
X122068690Y-115596422D01*
X122110606Y-115579060D01*
X122110608Y-115579059D01*
X122132177Y-115564648D01*
X122195471Y-115522356D01*
X122223784Y-115503438D01*
X123003321Y-114723899D01*
X123064642Y-114690416D01*
X123134333Y-114695400D01*
X123190267Y-114737271D01*
X123214684Y-114802736D01*
X123215000Y-114811582D01*
X123215000Y-115109970D01*
X123215001Y-115109987D01*
X123225494Y-115212697D01*
X123280641Y-115379119D01*
X123280643Y-115379124D01*
X123372684Y-115528345D01*
X123496654Y-115652315D01*
X123645875Y-115744356D01*
X123645880Y-115744358D01*
X123812302Y-115799505D01*
X123812309Y-115799506D01*
X123915019Y-115809999D01*
X124439999Y-115809999D01*
X124440000Y-115809998D01*
X124440000Y-114864145D01*
X124506657Y-114902630D01*
X124627465Y-114935000D01*
X124752535Y-114935000D01*
X124873343Y-114902630D01*
X124940000Y-114864145D01*
X124940000Y-115809999D01*
X125464972Y-115809999D01*
X125464986Y-115809998D01*
X125567697Y-115799505D01*
X125734119Y-115744358D01*
X125734124Y-115744356D01*
X125883345Y-115652315D01*
X126007315Y-115528345D01*
X126099356Y-115379124D01*
X126099358Y-115379119D01*
X126154505Y-115212697D01*
X126154506Y-115212690D01*
X126164999Y-115109986D01*
X126165000Y-115109973D01*
X126165000Y-114710000D01*
X125094146Y-114710000D01*
X125132630Y-114643343D01*
X125165000Y-114522535D01*
X125165000Y-114397465D01*
X125132630Y-114276657D01*
X125094146Y-114210000D01*
X126164999Y-114210000D01*
X126164999Y-113810028D01*
X126164998Y-113810013D01*
X126154505Y-113707302D01*
X126099358Y-113540880D01*
X126099356Y-113540875D01*
X126007315Y-113391654D01*
X125883345Y-113267684D01*
X125728515Y-113172184D01*
X125681791Y-113120236D01*
X125670568Y-113051273D01*
X125698412Y-112987191D01*
X125705909Y-112978986D01*
X125845104Y-112839792D01*
X125970051Y-112667816D01*
X126066557Y-112478412D01*
X126132246Y-112276243D01*
X126165500Y-112066287D01*
X126165500Y-111853713D01*
X126132246Y-111643757D01*
X126066557Y-111441588D01*
X125970051Y-111252184D01*
X125970049Y-111252181D01*
X125970048Y-111252179D01*
X125845109Y-111080213D01*
X125694792Y-110929896D01*
X125645539Y-110894112D01*
X125530204Y-110810316D01*
X125487540Y-110754989D01*
X125481561Y-110685376D01*
X125514166Y-110623580D01*
X125530199Y-110609686D01*
X125694792Y-110490104D01*
X125845104Y-110339792D01*
X125845106Y-110339788D01*
X125845109Y-110339786D01*
X125970048Y-110167820D01*
X125970047Y-110167820D01*
X125970051Y-110167816D01*
X126066557Y-109978412D01*
X126132246Y-109776243D01*
X126165500Y-109566287D01*
X126165500Y-109353713D01*
X126132246Y-109143757D01*
X126066557Y-108941588D01*
X125970051Y-108752184D01*
X125970049Y-108752181D01*
X125970048Y-108752179D01*
X125845109Y-108580213D01*
X125694792Y-108429896D01*
X125619952Y-108375522D01*
X125530204Y-108310316D01*
X125487540Y-108254989D01*
X125481561Y-108185376D01*
X125514166Y-108123580D01*
X125530199Y-108109686D01*
X125694792Y-107990104D01*
X125845104Y-107839792D01*
X125845106Y-107839788D01*
X125845109Y-107839786D01*
X125970048Y-107667820D01*
X125970047Y-107667820D01*
X125970051Y-107667816D01*
X126066557Y-107478412D01*
X126132246Y-107276243D01*
X126165500Y-107066287D01*
X126165500Y-106853713D01*
X126132246Y-106643757D01*
X126066557Y-106441588D01*
X125970051Y-106252184D01*
X125970049Y-106252181D01*
X125970048Y-106252179D01*
X125845109Y-106080213D01*
X125694792Y-105929896D01*
X125671923Y-105913281D01*
X125530204Y-105810316D01*
X125487540Y-105754989D01*
X125481561Y-105685376D01*
X125514166Y-105623580D01*
X125530199Y-105609686D01*
X125694792Y-105490104D01*
X125845104Y-105339792D01*
X125845106Y-105339788D01*
X125845109Y-105339786D01*
X125970048Y-105167820D01*
X125970047Y-105167820D01*
X125970051Y-105167816D01*
X126066557Y-104978412D01*
X126132246Y-104776243D01*
X126165500Y-104566287D01*
X126165500Y-104353713D01*
X126132246Y-104143757D01*
X126066557Y-103941588D01*
X125970051Y-103752184D01*
X125970049Y-103752181D01*
X125970048Y-103752179D01*
X125845109Y-103580213D01*
X125694786Y-103429890D01*
X125522820Y-103304951D01*
X125333414Y-103208444D01*
X125333413Y-103208443D01*
X125333412Y-103208443D01*
X125131243Y-103142754D01*
X125131241Y-103142753D01*
X125131240Y-103142753D01*
X124969957Y-103117208D01*
X124921287Y-103109500D01*
X124458713Y-103109500D01*
X124410042Y-103117208D01*
X124248760Y-103142753D01*
X124046585Y-103208444D01*
X123857179Y-103304951D01*
X123685213Y-103429890D01*
X123534890Y-103580213D01*
X123409951Y-103752179D01*
X123313444Y-103941583D01*
X123265010Y-104090648D01*
X123234760Y-104140010D01*
X122743862Y-104630909D01*
X122288269Y-105086502D01*
X122288267Y-105086504D01*
X122249912Y-105124859D01*
X122201140Y-105173630D01*
X122181951Y-105202349D01*
X122181946Y-105202357D01*
X122178835Y-105207014D01*
X122132688Y-105276076D01*
X122106297Y-105339792D01*
X122103783Y-105345860D01*
X122103776Y-105345874D01*
X122085539Y-105389903D01*
X122085536Y-105389913D01*
X122083666Y-105399311D01*
X122083667Y-105399312D01*
X122063501Y-105500698D01*
X122061500Y-105510757D01*
X122061500Y-113022106D01*
X122041815Y-113089145D01*
X122025181Y-113109787D01*
X121621584Y-113513384D01*
X121560261Y-113546869D01*
X121533903Y-113549703D01*
X120306446Y-113549703D01*
X120239407Y-113530018D01*
X120193652Y-113477214D01*
X120183708Y-113408056D01*
X120212733Y-113344500D01*
X120258992Y-113311142D01*
X120266547Y-113308013D01*
X120414035Y-113209464D01*
X120539464Y-113084035D01*
X120638013Y-112936547D01*
X120638284Y-112935894D01*
X120666336Y-112868168D01*
X120705894Y-112772666D01*
X120713781Y-112733019D01*
X120740499Y-112598695D01*
X120740500Y-112598693D01*
X120740500Y-112421306D01*
X120740499Y-112421304D01*
X120705896Y-112247341D01*
X120705893Y-112247332D01*
X120638016Y-112083459D01*
X120638009Y-112083446D01*
X120539464Y-111935965D01*
X120539461Y-111935961D01*
X120491819Y-111888319D01*
X120458334Y-111826996D01*
X120455500Y-111800638D01*
X120455500Y-110938394D01*
X120446692Y-110894114D01*
X120443341Y-110877268D01*
X120433457Y-110827573D01*
X120431463Y-110817548D01*
X120384311Y-110703714D01*
X120374335Y-110688783D01*
X120369676Y-110681810D01*
X120369676Y-110681811D01*
X120315859Y-110601268D01*
X120283345Y-110568754D01*
X120228733Y-110514142D01*
X120228732Y-110514141D01*
X118982271Y-109267680D01*
X118977933Y-109259736D01*
X118970687Y-109254312D01*
X118961450Y-109229550D01*
X118948786Y-109206357D01*
X118949431Y-109197329D01*
X118946268Y-109188848D01*
X118951884Y-109163024D01*
X118953770Y-109136665D01*
X118959587Y-109127613D01*
X118961118Y-109120575D01*
X118982265Y-109092323D01*
X119008729Y-109065860D01*
X119008733Y-109065858D01*
X119095858Y-108978733D01*
X119145849Y-108903917D01*
X119164312Y-108876286D01*
X119211463Y-108762451D01*
X119212129Y-108759106D01*
X119235500Y-108641606D01*
X119235500Y-105886854D01*
X119255185Y-105819815D01*
X119307989Y-105774060D01*
X119377147Y-105764116D01*
X119383692Y-105765237D01*
X119436306Y-105775703D01*
X119436309Y-105775703D01*
X119613693Y-105775703D01*
X119613694Y-105775702D01*
X119717827Y-105754989D01*
X119787658Y-105741099D01*
X119787661Y-105741097D01*
X119787666Y-105741097D01*
X119951547Y-105673216D01*
X120091109Y-105579962D01*
X120157786Y-105559085D01*
X120225166Y-105577569D01*
X120228890Y-105579962D01*
X120368453Y-105673216D01*
X120368455Y-105673217D01*
X120368459Y-105673219D01*
X120457258Y-105710000D01*
X120532334Y-105741097D01*
X120532336Y-105741097D01*
X120532341Y-105741099D01*
X120706304Y-105775702D01*
X120706307Y-105775703D01*
X120706309Y-105775703D01*
X120883693Y-105775703D01*
X120883694Y-105775702D01*
X120987827Y-105754989D01*
X121057658Y-105741099D01*
X121057661Y-105741097D01*
X121057666Y-105741097D01*
X121221547Y-105673216D01*
X121369035Y-105574667D01*
X121494464Y-105449238D01*
X121593013Y-105301750D01*
X121660894Y-105137869D01*
X121667962Y-105102339D01*
X121694106Y-104970900D01*
X121695500Y-104963894D01*
X121695500Y-104786512D01*
X121695500Y-104786509D01*
X121695499Y-104786507D01*
X121660896Y-104612544D01*
X121660893Y-104612535D01*
X121593016Y-104448662D01*
X121593009Y-104448649D01*
X121494464Y-104301168D01*
X121494461Y-104301164D01*
X121369038Y-104175741D01*
X121369034Y-104175738D01*
X121221553Y-104077193D01*
X121221540Y-104077186D01*
X121057667Y-104009309D01*
X121057658Y-104009306D01*
X120883694Y-103974703D01*
X120883691Y-103974703D01*
X120830453Y-103974703D01*
X120763414Y-103955018D01*
X120742772Y-103938384D01*
X119125619Y-102321232D01*
X119115656Y-102311269D01*
X119115655Y-102311267D01*
X119028530Y-102224142D01*
X118977306Y-102189915D01*
X118926083Y-102155688D01*
X118926080Y-102155686D01*
X118926077Y-102155685D01*
X118852400Y-102125168D01*
X118852398Y-102125167D01*
X118845589Y-102122347D01*
X118812249Y-102108537D01*
X118751826Y-102096518D01*
X118747103Y-102095578D01*
X118747101Y-102095578D01*
X118691407Y-102084500D01*
X118691404Y-102084500D01*
X118691403Y-102084500D01*
X100927741Y-102084500D01*
X100927721Y-102084499D01*
X100921607Y-102084499D01*
X100798394Y-102084499D01*
X100697597Y-102104548D01*
X100697592Y-102104548D01*
X100677549Y-102108536D01*
X100677547Y-102108536D01*
X100630397Y-102128067D01*
X100563719Y-102155685D01*
X100563717Y-102155686D01*
X100461266Y-102224141D01*
X100461263Y-102224144D01*
X95782229Y-106903181D01*
X95720906Y-106936666D01*
X95694548Y-106939500D01*
X95641306Y-106939500D01*
X95467341Y-106974103D01*
X95467332Y-106974106D01*
X95303459Y-107041983D01*
X95303446Y-107041990D01*
X95155965Y-107140535D01*
X95155961Y-107140538D01*
X95030538Y-107265961D01*
X95030535Y-107265965D01*
X94931990Y-107413446D01*
X94931983Y-107413459D01*
X94864106Y-107577332D01*
X94864103Y-107577341D01*
X94829500Y-107751304D01*
X94829500Y-107928695D01*
X94864103Y-108102658D01*
X94864106Y-108102667D01*
X94931983Y-108266540D01*
X94931990Y-108266553D01*
X95030535Y-108414034D01*
X95030538Y-108414038D01*
X95155961Y-108539461D01*
X95155965Y-108539464D01*
X95303446Y-108638009D01*
X95303459Y-108638016D01*
X95426363Y-108688923D01*
X95467334Y-108705894D01*
X95467336Y-108705894D01*
X95467341Y-108705896D01*
X95641304Y-108740499D01*
X95641307Y-108740500D01*
X95641309Y-108740500D01*
X95818693Y-108740500D01*
X95818694Y-108740499D01*
X95876682Y-108728964D01*
X95992658Y-108705896D01*
X95992661Y-108705894D01*
X95992666Y-108705894D01*
X96080370Y-108669565D01*
X96149839Y-108662097D01*
X96212318Y-108693372D01*
X96245752Y-108745805D01*
X96256916Y-108780162D01*
X96353423Y-108969567D01*
X96478362Y-109141533D01*
X96617540Y-109280711D01*
X96651025Y-109342034D01*
X96646041Y-109411726D01*
X96604169Y-109467659D01*
X96594956Y-109473930D01*
X96440131Y-109569427D01*
X96440127Y-109569430D01*
X96316156Y-109693401D01*
X96224115Y-109842622D01*
X96224113Y-109842627D01*
X96168966Y-110009049D01*
X96168965Y-110009056D01*
X96158472Y-110111760D01*
X96158472Y-110511747D01*
X97225460Y-110511747D01*
X97192547Y-110568754D01*
X97158472Y-110695921D01*
X97158472Y-110827573D01*
X97192547Y-110954740D01*
X97225460Y-111011747D01*
X96158473Y-111011747D01*
X96158473Y-111411733D01*
X96168966Y-111514444D01*
X96224113Y-111680866D01*
X96224115Y-111680871D01*
X96316156Y-111830092D01*
X96440126Y-111954062D01*
X96589347Y-112046103D01*
X96589352Y-112046105D01*
X96755774Y-112101252D01*
X96755781Y-112101253D01*
X96858491Y-112111746D01*
X97408471Y-112111746D01*
X97408472Y-112111745D01*
X97408472Y-111194759D01*
X97465479Y-111227672D01*
X97592646Y-111261747D01*
X97724298Y-111261747D01*
X97851465Y-111227672D01*
X97908472Y-111194759D01*
X97908472Y-112111746D01*
X98458444Y-112111746D01*
X98458458Y-112111745D01*
X98561167Y-112101253D01*
X98677666Y-112062648D01*
X98747494Y-112060246D01*
X98807536Y-112095977D01*
X98838730Y-112158497D01*
X98840671Y-112180354D01*
X98840672Y-113425703D01*
X98820987Y-113492742D01*
X98768184Y-113538497D01*
X98716672Y-113549703D01*
X96126294Y-113549703D01*
X96059255Y-113530018D01*
X96038613Y-113513384D01*
X94294819Y-111769590D01*
X94261334Y-111708267D01*
X94258500Y-111681909D01*
X94258500Y-106601393D01*
X94258499Y-106601389D01*
X94234464Y-106480555D01*
X94234463Y-106480548D01*
X94187311Y-106366714D01*
X94187310Y-106366713D01*
X94187307Y-106366707D01*
X94118859Y-106264268D01*
X94106770Y-106252179D01*
X94031733Y-106177142D01*
X94031732Y-106177141D01*
X92521819Y-104667228D01*
X92488334Y-104605905D01*
X92485500Y-104579547D01*
X92485500Y-104418916D01*
X92475173Y-104353713D01*
X92452246Y-104208960D01*
X92386557Y-104006791D01*
X92290051Y-103817387D01*
X92290049Y-103817384D01*
X92290048Y-103817382D01*
X92165109Y-103645416D01*
X92014786Y-103495093D01*
X91842820Y-103370154D01*
X91653414Y-103273647D01*
X91653413Y-103273646D01*
X91653412Y-103273646D01*
X91451243Y-103207957D01*
X91451241Y-103207956D01*
X91451240Y-103207956D01*
X91289957Y-103182411D01*
X91241287Y-103174703D01*
X90778713Y-103174703D01*
X90730042Y-103182411D01*
X90568760Y-103207956D01*
X90366585Y-103273647D01*
X90177179Y-103370154D01*
X90005213Y-103495093D01*
X89854890Y-103645416D01*
X89729951Y-103817382D01*
X89633444Y-104006788D01*
X89567753Y-104208963D01*
X89534500Y-104418916D01*
X88452320Y-104418916D01*
X88448542Y-102155685D01*
X88447714Y-101659910D01*
X88467287Y-101592838D01*
X88520014Y-101546995D01*
X88571714Y-101535703D01*
X128209264Y-101535703D01*
X128276303Y-101555388D01*
G37*
%TD.AperFunction*%
%TD*%
M02*
