M48
; DRILL file {KiCad 9.0.5} date 2025-11-21T15:13:49+0100
; FORMAT={-:-/ absolute / inch / decimal}
; #@! TF.CreationDate,2025-11-21T15:13:49+01:00
; #@! TF.GenerationSoftware,Kicad,Pcbnew,9.0.5
; #@! TF.FileFunction,Plated,1,2,PTH
FMAT,2
INCH
; #@! TA.AperFunction,Plated,PTH,ViaDrill
T1C0.0157
; #@! TA.AperFunction,Plated,PTH,ComponentDrill
T2C0.0374
; #@! TA.AperFunction,Plated,PTH,ComponentDrill
T3C0.0394
%
G90
G05
T1
X3.7689Y-4.2457
X3.8772Y-4.524
X3.9114Y-4.5236
X3.9469Y-4.5236
X4.183Y-4.3445
X4.183Y-4.4165
X4.2057Y-4.4951
X4.2157Y-4.3159
X4.2557Y-4.1289
X4.3057Y-4.1289
X4.3749Y-4.4134
X4.4557Y-4.1289
X4.4746Y-4.4122
X4.5057Y-4.1289
X4.5557Y-4.1289
X4.5807Y-4.1921
X4.5874Y-4.4106
X4.6557Y-4.1289
X4.6772Y-4.411
X4.7057Y-4.1289
X4.7181Y-4.4295
X4.7386Y-4.2618
X4.7557Y-4.1289
X4.7925Y-4.4138
T2
X3.5831Y-4.1152
X3.5831Y-4.2136
X3.5831Y-4.312
X3.5831Y-4.4104
X3.5831Y-4.5089
X4.9091Y-4.1126
X4.9091Y-4.211
X4.9091Y-4.3094
X4.9091Y-4.4079
X4.9091Y-4.5063
T3
X3.8448Y-4.2623
X3.8448Y-4.3607
M30
