%TF.GenerationSoftware,KiCad,Pcbnew,9.0.5*%
%TF.CreationDate,2025-11-22T08:22:05+01:00*%
%TF.ProjectId,7segment-driver-board,37736567-6d65-46e7-942d-647269766572,1.0*%
%TF.SameCoordinates,Original*%
%TF.FileFunction,Copper,L2,Bot*%
%TF.FilePolarity,Positive*%
%FSLAX46Y46*%
G04 Gerber Fmt 4.6, Leading zero omitted, Abs format (unit mm)*
G04 Created by KiCad (PCBNEW 9.0.5) date 2025-11-22 08:22:05*
%MOMM*%
%LPD*%
G01*
G04 APERTURE LIST*
G04 Aperture macros list*
%AMRoundRect*
0 Rectangle with rounded corners*
0 $1 Rounding radius*
0 $2 $3 $4 $5 $6 $7 $8 $9 X,Y pos of 4 corners*
0 Add a 4 corners polygon primitive as box body*
4,1,4,$2,$3,$4,$5,$6,$7,$8,$9,$2,$3,0*
0 Add four circle primitives for the rounded corners*
1,1,$1+$1,$2,$3*
1,1,$1+$1,$4,$5*
1,1,$1+$1,$6,$7*
1,1,$1+$1,$8,$9*
0 Add four rect primitives between the rounded corners*
20,1,$1+$1,$2,$3,$4,$5,0*
20,1,$1+$1,$4,$5,$6,$7,0*
20,1,$1+$1,$6,$7,$8,$9,0*
20,1,$1+$1,$8,$9,$2,$3,0*%
G04 Aperture macros list end*
%TA.AperFunction,ComponentPad*%
%ADD10RoundRect,0.250000X0.725000X-0.600000X0.725000X0.600000X-0.725000X0.600000X-0.725000X-0.600000X0*%
%TD*%
%TA.AperFunction,ComponentPad*%
%ADD11O,1.950000X1.700000*%
%TD*%
%TA.AperFunction,ComponentPad*%
%ADD12RoundRect,0.250000X0.750000X-0.600000X0.750000X0.600000X-0.750000X0.600000X-0.750000X-0.600000X0*%
%TD*%
%TA.AperFunction,ComponentPad*%
%ADD13O,2.000000X1.700000*%
%TD*%
%TA.AperFunction,SMDPad,CuDef*%
%ADD14R,1.000000X3.000000*%
%TD*%
%TA.AperFunction,ViaPad*%
%ADD15C,0.800000*%
%TD*%
%TA.AperFunction,Conductor*%
%ADD16C,0.200000*%
%TD*%
%TA.AperFunction,Conductor*%
%ADD17C,0.400000*%
%TD*%
G04 APERTURE END LIST*
D10*
%TO.P,P2,1,Pin_1*%
%TO.N,GND*%
X91010000Y-114525203D03*
D11*
%TO.P,P2,2,Pin_2*%
%TO.N,Net-(D1-A)*%
X91010000Y-112025203D03*
%TO.P,P2,3,Pin_3*%
%TO.N,/Din*%
X91010000Y-109525203D03*
%TO.P,P2,4,Pin_4*%
%TO.N,/Sel*%
X91010000Y-107025203D03*
%TO.P,P2,5,Pin_5*%
%TO.N,/Clk*%
X91010000Y-104525203D03*
%TD*%
D10*
%TO.P,P3,1,Pin_1*%
%TO.N,GND*%
X124690000Y-114460000D03*
D11*
%TO.P,P3,2,Pin_2*%
%TO.N,Net-(D1-A)*%
X124690000Y-111960000D03*
%TO.P,P3,3,Pin_3*%
%TO.N,/DOut*%
X124690000Y-109460000D03*
%TO.P,P3,4,Pin_4*%
%TO.N,/Sel*%
X124690000Y-106960000D03*
%TO.P,P3,5,Pin_5*%
%TO.N,/Clk*%
X124690000Y-104460000D03*
%TD*%
D12*
%TO.P,P1,1,Pin_1*%
%TO.N,GND*%
X97658472Y-110761747D03*
D13*
%TO.P,P1,2,Pin_2*%
%TO.N,Net-(D2-A)*%
X97658472Y-108261747D03*
%TD*%
D14*
%TO.P,P4,1,Pin_1*%
%TO.N,/SEG_A*%
X99841171Y-112066562D03*
%TO.P,P4,2,Pin_2*%
%TO.N,/DIG_0*%
X99841171Y-107026562D03*
%TO.P,P4,3,Pin_3*%
%TO.N,/SEG_B*%
X102381171Y-112066562D03*
%TO.P,P4,4,Pin_4*%
%TO.N,/DIG_1*%
X102381171Y-107026562D03*
%TO.P,P4,5,Pin_5*%
%TO.N,/SEG_C*%
X104921171Y-112066562D03*
%TO.P,P4,6,Pin_6*%
%TO.N,/DIG_2*%
X104921171Y-107026562D03*
%TO.P,P4,7,Pin_7*%
%TO.N,/SEG_D*%
X107461171Y-112066562D03*
%TO.P,P4,8,Pin_8*%
%TO.N,/DIG_3*%
X107461171Y-107026562D03*
%TO.P,P4,9,Pin_9*%
%TO.N,/SEG_E*%
X110001171Y-112066562D03*
%TO.P,P4,10,Pin_10*%
%TO.N,/DIG_4*%
X110001171Y-107026562D03*
%TO.P,P4,11,Pin_11*%
%TO.N,/SEG_F*%
X112541171Y-112066562D03*
%TO.P,P4,12,Pin_12*%
%TO.N,/DIG_5*%
X112541171Y-107026562D03*
%TO.P,P4,13,Pin_13*%
%TO.N,/SEG_G*%
X115081171Y-112066562D03*
%TO.P,P4,14,Pin_14*%
%TO.N,/DIG_6*%
X115081171Y-107026562D03*
%TO.P,P4,15,Pin_15*%
%TO.N,/SEG_DP*%
X117621171Y-112066562D03*
%TO.P,P4,16,Pin_16*%
%TO.N,/DIG_7*%
X117621171Y-107026562D03*
%TD*%
D15*
%TO.N,GND*%
X96200000Y-104890000D03*
X120830000Y-110470000D03*
X92540000Y-110760000D03*
%TO.N,/Din*%
X95730000Y-107840000D03*
X120795000Y-104875203D03*
%TO.N,/Clk*%
X106825000Y-114175203D03*
%TO.N,/SEG_G*%
X111905000Y-114175203D03*
%TO.N,/DIG_2*%
X114445000Y-104875203D03*
%TO.N,/SEG_B*%
X108214843Y-110022823D03*
%TO.N,/SEG_A*%
X106450000Y-109530000D03*
%TO.N,/DIG_1*%
X108095000Y-104875203D03*
%TO.N,/DIG_4*%
X118255000Y-104875203D03*
%TO.N,/DIG_5*%
X109365000Y-104875203D03*
%TO.N,/DIG_7*%
X116380000Y-107440000D03*
%TO.N,/SEG_D*%
X119525000Y-114175203D03*
%TO.N,/SEG_F*%
X113550000Y-112160000D03*
%TO.N,/DIG_3*%
X113175000Y-104875203D03*
%TO.N,/SEG_DP*%
X118255000Y-114175203D03*
%TO.N,/SEG_C*%
X106247762Y-112180000D03*
%TO.N,/DIG_6*%
X115715000Y-104875203D03*
%TO.N,/SEG_E*%
X116985000Y-114175203D03*
%TO.N,/DIG_0*%
X119525000Y-104875203D03*
%TO.N,Net-(D1-A)*%
X99339798Y-115998131D03*
X100239798Y-115998131D03*
X98469798Y-116007928D03*
%TD*%
D16*
%TO.N,/Din*%
X119762000Y-103102000D02*
X120795000Y-104135000D01*
X95730000Y-107840000D02*
X100468000Y-103102000D01*
X120795000Y-104135000D02*
X120795000Y-104875203D01*
X100468000Y-103102000D02*
X119762000Y-103102000D01*
%TO.N,/Clk*%
X122687000Y-112473000D02*
X122687000Y-105572362D01*
X93640000Y-112330000D02*
X93640000Y-106670000D01*
X107959797Y-115310000D02*
X119850000Y-115310000D01*
X106825000Y-114175203D02*
X95485203Y-114175203D01*
X119850000Y-115310000D02*
X122687000Y-112473000D01*
X123799362Y-104460000D02*
X124690000Y-104460000D01*
X122687000Y-105572362D02*
X123799362Y-104460000D01*
X95485203Y-114175203D02*
X93640000Y-112330000D01*
X93640000Y-106670000D02*
X91510000Y-104540000D01*
X106825000Y-114175203D02*
X107959797Y-115310000D01*
%TO.N,/SEG_G*%
X111905000Y-114175203D02*
X111930203Y-114150000D01*
X115081171Y-113818829D02*
X115081171Y-112066562D01*
X114750000Y-114150000D02*
X115081171Y-113818829D01*
X111930203Y-114150000D02*
X114750000Y-114150000D01*
%TO.N,/DIG_2*%
X114405203Y-104875203D02*
X113310000Y-103780000D01*
X106250000Y-103780000D02*
X104808764Y-105221236D01*
X113310000Y-103780000D02*
X106250000Y-103780000D01*
X114445000Y-104875203D02*
X114405203Y-104875203D01*
X104808764Y-105221236D02*
X104808764Y-107031106D01*
%TO.N,/SEG_B*%
X102670000Y-110230000D02*
X102381171Y-110518829D01*
X108192020Y-110000000D02*
X108192020Y-110045646D01*
X108214843Y-110022823D02*
X108192020Y-110000000D01*
X102381171Y-110518829D02*
X102381171Y-112066562D01*
X108192020Y-110045646D02*
X108007666Y-110230000D01*
X108007666Y-110230000D02*
X102670000Y-110230000D01*
%TO.N,/SEG_A*%
X106450000Y-109530000D02*
X106355000Y-109625000D01*
X100495000Y-109625000D02*
X99740000Y-110380000D01*
X99740000Y-112059870D02*
X99728764Y-112071106D01*
X99740000Y-110380000D02*
X99740000Y-112059870D01*
X106355000Y-109625000D02*
X100495000Y-109625000D01*
%TO.N,/DIG_1*%
X108095000Y-104875203D02*
X108710000Y-105490203D01*
X102381171Y-108551171D02*
X102381171Y-107026562D01*
X102380000Y-107025391D02*
X102381171Y-107026562D01*
X108710000Y-108382190D02*
X108262190Y-108830000D01*
X102660000Y-108830000D02*
X102381171Y-108551171D01*
X108262190Y-108830000D02*
X102660000Y-108830000D01*
X108710000Y-105490203D02*
X108710000Y-108382190D01*
%TO.N,/DIG_4*%
X118610000Y-105230203D02*
X118610000Y-108580000D01*
X109888764Y-108688764D02*
X109888764Y-107031106D01*
X118610000Y-108580000D02*
X118230000Y-108960000D01*
X118230000Y-108960000D02*
X110160000Y-108960000D01*
X110160000Y-108960000D02*
X109888764Y-108688764D01*
X118255000Y-104875203D02*
X118610000Y-105230203D01*
%TO.N,/DIG_5*%
X109365000Y-104875203D02*
X111945203Y-104875203D01*
X112428764Y-105358764D02*
X112428764Y-107031106D01*
X111945203Y-104875203D02*
X112428764Y-105358764D01*
%TO.N,/DIG_7*%
X116617735Y-107026562D02*
X117621171Y-107026562D01*
X116380000Y-107440000D02*
X116380000Y-107264297D01*
X116380000Y-107264297D02*
X116617735Y-107026562D01*
%TO.N,/SEG_D*%
X119525000Y-114175203D02*
X119540025Y-114160178D01*
X119540025Y-114160178D02*
X119540025Y-110710025D01*
X119540025Y-110710025D02*
X118118000Y-109288000D01*
X107348764Y-112021236D02*
X107348764Y-112071106D01*
X110082000Y-109288000D02*
X107348764Y-112021236D01*
X118118000Y-109288000D02*
X110082000Y-109288000D01*
%TO.N,/SEG_F*%
X113456562Y-112066562D02*
X113550000Y-112160000D01*
X112541171Y-112066562D02*
X113456562Y-112066562D01*
%TO.N,/DIG_3*%
X107320000Y-107002342D02*
X107348764Y-107031106D01*
X113165203Y-104875203D02*
X112420000Y-104130000D01*
X113175000Y-104875203D02*
X113165203Y-104875203D01*
X112420000Y-104130000D02*
X107800000Y-104130000D01*
X107800000Y-104130000D02*
X107320000Y-104610000D01*
X107320000Y-104610000D02*
X107320000Y-107002342D01*
%TO.N,/SEG_DP*%
X117620000Y-112067733D02*
X117621171Y-112066562D01*
X117995203Y-114175203D02*
X117620000Y-113800000D01*
X118255000Y-114175203D02*
X117995203Y-114175203D01*
X117620000Y-113800000D02*
X117620000Y-112067733D01*
%TO.N,/SEG_C*%
X104877658Y-112140000D02*
X104808764Y-112071106D01*
X106247762Y-112177762D02*
X106210000Y-112140000D01*
X106247762Y-112180000D02*
X106247762Y-112177762D01*
X106210000Y-112140000D02*
X104877658Y-112140000D01*
%TO.N,/DIG_6*%
X115081171Y-105509032D02*
X115715000Y-104875203D01*
X115081171Y-107026562D02*
X115081171Y-105509032D01*
%TO.N,/SEG_E*%
X116530000Y-110910000D02*
X115236000Y-109616000D01*
X110514000Y-109616000D02*
X109888764Y-110241236D01*
X116985000Y-114175203D02*
X116530000Y-113720203D01*
X116530000Y-113720203D02*
X116530000Y-110910000D01*
X115236000Y-109616000D02*
X110514000Y-109616000D01*
X109888764Y-110241236D02*
X109888764Y-112071106D01*
%TO.N,/DIG_0*%
X101442000Y-103438000D02*
X118888000Y-103438000D01*
X99728764Y-107031106D02*
X99728764Y-105151236D01*
X99728764Y-105151236D02*
X101442000Y-103438000D01*
X118888000Y-103438000D02*
X119525000Y-104075000D01*
X119525000Y-104075000D02*
X119525000Y-104875203D01*
%TO.N,/Sel*%
X124234722Y-107045278D02*
X124652000Y-107045278D01*
%TO.N,/DOut*%
X124652000Y-110058000D02*
X124652000Y-109545278D01*
X124690000Y-110169056D02*
X124690000Y-109460000D01*
D17*
%TO.N,Net-(D1-A)*%
X101347928Y-115998131D02*
X101379797Y-116030000D01*
X98469798Y-116007928D02*
X94957928Y-116007928D01*
X120720000Y-116030000D02*
X124690000Y-112060000D01*
X98480000Y-115998131D02*
X101347928Y-115998131D01*
X91010000Y-112060000D02*
X91010000Y-112025203D01*
X101379797Y-116030000D02*
X120720000Y-116030000D01*
X124690000Y-112060000D02*
X124690000Y-111960000D01*
X124652000Y-112045278D02*
X124652000Y-112098000D01*
X94957928Y-116007928D02*
X91010000Y-112060000D01*
%TD*%
%TA.AperFunction,Conductor*%
%TO.N,GND*%
G36*
X92596368Y-106488476D02*
G01*
X92635780Y-106515015D01*
X93003181Y-106882416D01*
X93036666Y-106943739D01*
X93039500Y-106970097D01*
X93039500Y-112243330D01*
X93039499Y-112243348D01*
X93039499Y-112409054D01*
X93039498Y-112409054D01*
X93080423Y-112561785D01*
X93091409Y-112580813D01*
X93159477Y-112698712D01*
X93159481Y-112698717D01*
X93278349Y-112817585D01*
X93278355Y-112817590D01*
X95000342Y-114539577D01*
X95000352Y-114539588D01*
X95004682Y-114543918D01*
X95004683Y-114543919D01*
X95116487Y-114655723D01*
X95159644Y-114680639D01*
X95203298Y-114705842D01*
X95203300Y-114705844D01*
X95241354Y-114727814D01*
X95253418Y-114734780D01*
X95406146Y-114775703D01*
X95564260Y-114775703D01*
X106100639Y-114775703D01*
X106167678Y-114795388D01*
X106188315Y-114812017D01*
X106250965Y-114874667D01*
X106250966Y-114874668D01*
X106398446Y-114973212D01*
X106398459Y-114973219D01*
X106463606Y-115000203D01*
X106562334Y-115041097D01*
X106562336Y-115041097D01*
X106562341Y-115041099D01*
X106736304Y-115075702D01*
X106736307Y-115075703D01*
X106736309Y-115075703D01*
X106824903Y-115075703D01*
X106854343Y-115084347D01*
X106884330Y-115090871D01*
X106889345Y-115094625D01*
X106891942Y-115095388D01*
X106912584Y-115112022D01*
X106918381Y-115117819D01*
X106951866Y-115179142D01*
X106946882Y-115248834D01*
X106905010Y-115304767D01*
X106839546Y-115329184D01*
X106830700Y-115329500D01*
X101586964Y-115329500D01*
X101558326Y-115325251D01*
X101558230Y-115325739D01*
X101416924Y-115297631D01*
X101416922Y-115297631D01*
X101416921Y-115297631D01*
X100849898Y-115297631D01*
X100782859Y-115277946D01*
X100781007Y-115276733D01*
X100666347Y-115200119D01*
X100666345Y-115200118D01*
X100502465Y-115132237D01*
X100502456Y-115132234D01*
X100328492Y-115097631D01*
X100328489Y-115097631D01*
X100151107Y-115097631D01*
X100151104Y-115097631D01*
X99977139Y-115132234D01*
X99977130Y-115132237D01*
X99837250Y-115190177D01*
X99767781Y-115197646D01*
X99742346Y-115190177D01*
X99602465Y-115132237D01*
X99602456Y-115132234D01*
X99428492Y-115097631D01*
X99428489Y-115097631D01*
X99251107Y-115097631D01*
X99251104Y-115097631D01*
X99077139Y-115132234D01*
X99077135Y-115132236D01*
X99077133Y-115132236D01*
X99077132Y-115132237D01*
X99053487Y-115142031D01*
X98940422Y-115188863D01*
X98870953Y-115196331D01*
X98845519Y-115188862D01*
X98732465Y-115142034D01*
X98732456Y-115142031D01*
X98558492Y-115107428D01*
X98558489Y-115107428D01*
X98381107Y-115107428D01*
X98381104Y-115107428D01*
X98207139Y-115142031D01*
X98207130Y-115142034D01*
X98043250Y-115209915D01*
X98043248Y-115209916D01*
X97928589Y-115286530D01*
X97861912Y-115307408D01*
X97859698Y-115307428D01*
X95299446Y-115307428D01*
X95232407Y-115287743D01*
X95211765Y-115271109D01*
X92464251Y-112523594D01*
X92430766Y-112462271D01*
X92434000Y-112397597D01*
X92452246Y-112341446D01*
X92485500Y-112131490D01*
X92485500Y-111918916D01*
X92452246Y-111708960D01*
X92386557Y-111506791D01*
X92290051Y-111317387D01*
X92290049Y-111317384D01*
X92290048Y-111317382D01*
X92165109Y-111145416D01*
X92014792Y-110995099D01*
X92014784Y-110995093D01*
X91850204Y-110875519D01*
X91807540Y-110820192D01*
X91801561Y-110750579D01*
X91834166Y-110688783D01*
X91850199Y-110674889D01*
X92014792Y-110555307D01*
X92165104Y-110404995D01*
X92165106Y-110404991D01*
X92165109Y-110404989D01*
X92290048Y-110233023D01*
X92290047Y-110233023D01*
X92290051Y-110233019D01*
X92386557Y-110043615D01*
X92452246Y-109841446D01*
X92485500Y-109631490D01*
X92485500Y-109418916D01*
X92452246Y-109208960D01*
X92386557Y-109006791D01*
X92290051Y-108817387D01*
X92290049Y-108817384D01*
X92290048Y-108817382D01*
X92165109Y-108645416D01*
X92014792Y-108495099D01*
X92014784Y-108495093D01*
X91850204Y-108375519D01*
X91807540Y-108320192D01*
X91801561Y-108250579D01*
X91834166Y-108188783D01*
X91850199Y-108174889D01*
X92014792Y-108055307D01*
X92165104Y-107904995D01*
X92165106Y-107904991D01*
X92165109Y-107904989D01*
X92290048Y-107733023D01*
X92290047Y-107733023D01*
X92290051Y-107733019D01*
X92386557Y-107543615D01*
X92452246Y-107341446D01*
X92485500Y-107131490D01*
X92485500Y-106918916D01*
X92452246Y-106708960D01*
X92430167Y-106641010D01*
X92428173Y-106571174D01*
X92464253Y-106511341D01*
X92526953Y-106480512D01*
X92596368Y-106488476D01*
G37*
%TD.AperFunction*%
%TA.AperFunction,Conductor*%
G36*
X128086303Y-101745388D02*
G01*
X128132058Y-101798192D01*
X128143264Y-101849703D01*
X128143264Y-117200703D01*
X128123579Y-117267742D01*
X128070775Y-117313497D01*
X128019264Y-117324703D01*
X88668264Y-117324703D01*
X88601225Y-117305018D01*
X88555470Y-117252214D01*
X88544264Y-117200703D01*
X88544264Y-104418916D01*
X89534500Y-104418916D01*
X89534500Y-104631489D01*
X89551799Y-104740714D01*
X89567754Y-104841446D01*
X89632947Y-105042089D01*
X89633444Y-105043617D01*
X89729951Y-105233023D01*
X89854890Y-105404989D01*
X90005209Y-105555308D01*
X90005214Y-105555312D01*
X90169793Y-105674885D01*
X90212459Y-105730214D01*
X90218438Y-105799828D01*
X90185833Y-105861623D01*
X90169793Y-105875521D01*
X90005214Y-105995093D01*
X90005209Y-105995097D01*
X89854890Y-106145416D01*
X89729951Y-106317382D01*
X89633444Y-106506788D01*
X89633443Y-106506790D01*
X89633443Y-106506791D01*
X89612524Y-106571174D01*
X89567753Y-106708963D01*
X89559821Y-106759046D01*
X89534500Y-106918916D01*
X89534500Y-107131490D01*
X89567754Y-107341446D01*
X89591148Y-107413446D01*
X89633444Y-107543617D01*
X89729951Y-107733023D01*
X89854890Y-107904989D01*
X90005209Y-108055308D01*
X90005214Y-108055312D01*
X90169793Y-108174885D01*
X90212459Y-108230214D01*
X90218438Y-108299828D01*
X90185833Y-108361623D01*
X90169793Y-108375521D01*
X90005214Y-108495093D01*
X90005209Y-108495097D01*
X89854890Y-108645416D01*
X89729951Y-108817382D01*
X89633444Y-109006788D01*
X89633443Y-109006790D01*
X89633443Y-109006791D01*
X89620461Y-109046745D01*
X89567753Y-109208963D01*
X89546677Y-109342034D01*
X89534500Y-109418916D01*
X89534500Y-109631490D01*
X89567754Y-109841446D01*
X89613041Y-109980825D01*
X89633444Y-110043617D01*
X89729951Y-110233023D01*
X89854890Y-110404989D01*
X90005209Y-110555308D01*
X90005214Y-110555312D01*
X90169793Y-110674885D01*
X90212459Y-110730214D01*
X90218438Y-110799828D01*
X90185833Y-110861623D01*
X90169793Y-110875521D01*
X90005214Y-110995093D01*
X90005209Y-110995097D01*
X89854890Y-111145416D01*
X89729951Y-111317382D01*
X89633444Y-111506788D01*
X89567753Y-111708963D01*
X89534500Y-111918916D01*
X89534500Y-112131489D01*
X89553419Y-112250943D01*
X89567754Y-112341446D01*
X89610122Y-112471842D01*
X89633444Y-112543617D01*
X89729951Y-112733023D01*
X89854890Y-112904989D01*
X89994068Y-113044167D01*
X90027553Y-113105490D01*
X90022569Y-113175182D01*
X89980697Y-113231115D01*
X89971484Y-113237386D01*
X89816659Y-113332883D01*
X89816655Y-113332886D01*
X89692684Y-113456857D01*
X89600643Y-113606078D01*
X89600641Y-113606083D01*
X89545494Y-113772505D01*
X89545493Y-113772512D01*
X89535000Y-113875216D01*
X89535000Y-114275203D01*
X90605854Y-114275203D01*
X90567370Y-114341860D01*
X90535000Y-114462668D01*
X90535000Y-114587738D01*
X90567370Y-114708546D01*
X90605854Y-114775203D01*
X89535001Y-114775203D01*
X89535001Y-115175189D01*
X89545494Y-115277900D01*
X89600641Y-115444322D01*
X89600643Y-115444327D01*
X89692684Y-115593548D01*
X89816654Y-115717518D01*
X89965875Y-115809559D01*
X89965880Y-115809561D01*
X90132302Y-115864708D01*
X90132309Y-115864709D01*
X90235019Y-115875202D01*
X90759999Y-115875202D01*
X90760000Y-115875201D01*
X90760000Y-114929348D01*
X90826657Y-114967833D01*
X90947465Y-115000203D01*
X91072535Y-115000203D01*
X91193343Y-114967833D01*
X91260000Y-114929348D01*
X91260000Y-115875202D01*
X91784972Y-115875202D01*
X91784986Y-115875201D01*
X91887697Y-115864708D01*
X92054119Y-115809561D01*
X92054124Y-115809559D01*
X92203345Y-115717518D01*
X92327315Y-115593548D01*
X92419356Y-115444327D01*
X92419358Y-115444322D01*
X92474505Y-115277900D01*
X92474506Y-115277893D01*
X92484999Y-115175189D01*
X92484999Y-114825018D01*
X92504683Y-114757979D01*
X92557487Y-114712224D01*
X92626646Y-114702280D01*
X92690201Y-114731305D01*
X92696680Y-114737337D01*
X93611659Y-115652315D01*
X94413814Y-116454470D01*
X94511386Y-116552042D01*
X94511387Y-116552043D01*
X94626112Y-116628700D01*
X94626113Y-116628700D01*
X94626117Y-116628703D01*
X94716260Y-116666041D01*
X94753599Y-116681508D01*
X94780519Y-116686862D01*
X94869223Y-116704506D01*
X94888934Y-116708428D01*
X94888935Y-116708428D01*
X97859698Y-116708428D01*
X97926737Y-116728113D01*
X97928586Y-116729324D01*
X98043251Y-116805941D01*
X98207132Y-116873822D01*
X98207134Y-116873822D01*
X98207139Y-116873824D01*
X98381102Y-116908427D01*
X98381105Y-116908428D01*
X98381107Y-116908428D01*
X98558491Y-116908428D01*
X98558492Y-116908427D01*
X98616480Y-116896892D01*
X98732456Y-116873824D01*
X98732459Y-116873822D01*
X98732464Y-116873822D01*
X98869172Y-116817195D01*
X98938641Y-116809727D01*
X98964074Y-116817195D01*
X99077132Y-116864025D01*
X99077134Y-116864025D01*
X99077139Y-116864027D01*
X99251102Y-116898630D01*
X99251105Y-116898631D01*
X99251107Y-116898631D01*
X99428491Y-116898631D01*
X99428492Y-116898630D01*
X99486480Y-116887095D01*
X99602456Y-116864027D01*
X99602459Y-116864025D01*
X99602464Y-116864025D01*
X99685923Y-116829455D01*
X99742346Y-116806085D01*
X99811815Y-116798616D01*
X99837250Y-116806085D01*
X99934846Y-116846509D01*
X99977132Y-116864025D01*
X99977134Y-116864025D01*
X99977139Y-116864027D01*
X100151102Y-116898630D01*
X100151105Y-116898631D01*
X100151107Y-116898631D01*
X100328491Y-116898631D01*
X100328492Y-116898630D01*
X100386480Y-116887095D01*
X100502456Y-116864027D01*
X100502459Y-116864025D01*
X100502464Y-116864025D01*
X100666345Y-116796144D01*
X100781007Y-116719528D01*
X100847684Y-116698651D01*
X100849898Y-116698631D01*
X101140761Y-116698631D01*
X101169398Y-116702879D01*
X101169495Y-116702392D01*
X101310800Y-116730500D01*
X101310803Y-116730500D01*
X120788996Y-116730500D01*
X120880040Y-116712389D01*
X120924328Y-116703580D01*
X120988069Y-116677177D01*
X121051807Y-116650777D01*
X121051808Y-116650776D01*
X121051811Y-116650775D01*
X121166543Y-116574114D01*
X123003324Y-114737332D01*
X123064642Y-114703850D01*
X123134333Y-114708834D01*
X123190267Y-114750705D01*
X123214684Y-114816170D01*
X123215000Y-114825016D01*
X123215000Y-115109970D01*
X123215001Y-115109987D01*
X123225494Y-115212697D01*
X123280641Y-115379119D01*
X123280643Y-115379124D01*
X123372684Y-115528345D01*
X123496654Y-115652315D01*
X123645875Y-115744356D01*
X123645880Y-115744358D01*
X123812302Y-115799505D01*
X123812309Y-115799506D01*
X123915019Y-115809999D01*
X124439999Y-115809999D01*
X124440000Y-115809998D01*
X124440000Y-114864145D01*
X124506657Y-114902630D01*
X124627465Y-114935000D01*
X124752535Y-114935000D01*
X124873343Y-114902630D01*
X124940000Y-114864145D01*
X124940000Y-115809999D01*
X125464972Y-115809999D01*
X125464986Y-115809998D01*
X125567697Y-115799505D01*
X125734119Y-115744358D01*
X125734124Y-115744356D01*
X125883345Y-115652315D01*
X126007315Y-115528345D01*
X126099356Y-115379124D01*
X126099358Y-115379119D01*
X126154505Y-115212697D01*
X126154506Y-115212690D01*
X126164999Y-115109986D01*
X126165000Y-115109973D01*
X126165000Y-114710000D01*
X125094146Y-114710000D01*
X125132630Y-114643343D01*
X125165000Y-114522535D01*
X125165000Y-114397465D01*
X125132630Y-114276657D01*
X125094146Y-114210000D01*
X126164999Y-114210000D01*
X126164999Y-113810028D01*
X126164998Y-113810013D01*
X126154505Y-113707302D01*
X126099358Y-113540880D01*
X126099356Y-113540875D01*
X126007315Y-113391654D01*
X125883345Y-113267684D01*
X125728515Y-113172184D01*
X125681791Y-113120236D01*
X125670568Y-113051273D01*
X125698412Y-112987191D01*
X125705909Y-112978986D01*
X125845104Y-112839792D01*
X125866371Y-112810521D01*
X125970048Y-112667820D01*
X125970047Y-112667820D01*
X125970051Y-112667816D01*
X126066557Y-112478412D01*
X126132246Y-112276243D01*
X126165500Y-112066287D01*
X126165500Y-111853713D01*
X126132246Y-111643757D01*
X126066557Y-111441588D01*
X125970051Y-111252184D01*
X125970049Y-111252181D01*
X125970048Y-111252179D01*
X125845109Y-111080213D01*
X125694792Y-110929896D01*
X125649422Y-110896933D01*
X125530204Y-110810316D01*
X125487540Y-110754989D01*
X125481561Y-110685376D01*
X125514166Y-110623580D01*
X125530199Y-110609686D01*
X125694792Y-110490104D01*
X125845104Y-110339792D01*
X125845106Y-110339788D01*
X125845109Y-110339786D01*
X125970048Y-110167820D01*
X125970047Y-110167820D01*
X125970051Y-110167816D01*
X126066557Y-109978412D01*
X126132246Y-109776243D01*
X126165500Y-109566287D01*
X126165500Y-109353713D01*
X126132246Y-109143757D01*
X126066557Y-108941588D01*
X125970051Y-108752184D01*
X125970049Y-108752181D01*
X125970048Y-108752179D01*
X125845109Y-108580213D01*
X125694792Y-108429896D01*
X125619952Y-108375522D01*
X125530204Y-108310316D01*
X125487540Y-108254989D01*
X125481561Y-108185376D01*
X125514166Y-108123580D01*
X125530199Y-108109686D01*
X125694792Y-107990104D01*
X125845104Y-107839792D01*
X125845106Y-107839788D01*
X125845109Y-107839786D01*
X125970048Y-107667820D01*
X125970047Y-107667820D01*
X125970051Y-107667816D01*
X126066557Y-107478412D01*
X126132246Y-107276243D01*
X126165500Y-107066287D01*
X126165500Y-106853713D01*
X126132246Y-106643757D01*
X126066557Y-106441588D01*
X125970051Y-106252184D01*
X125970049Y-106252181D01*
X125970048Y-106252179D01*
X125845109Y-106080213D01*
X125694792Y-105929896D01*
X125694784Y-105929890D01*
X125530204Y-105810316D01*
X125487540Y-105754989D01*
X125481561Y-105685376D01*
X125514166Y-105623580D01*
X125530199Y-105609686D01*
X125694792Y-105490104D01*
X125845104Y-105339792D01*
X125845106Y-105339788D01*
X125845109Y-105339786D01*
X125970048Y-105167820D01*
X125970047Y-105167820D01*
X125970051Y-105167816D01*
X126066557Y-104978412D01*
X126132246Y-104776243D01*
X126165500Y-104566287D01*
X126165500Y-104353713D01*
X126132246Y-104143757D01*
X126066557Y-103941588D01*
X125970051Y-103752184D01*
X125970049Y-103752181D01*
X125970048Y-103752179D01*
X125845109Y-103580213D01*
X125694786Y-103429890D01*
X125522820Y-103304951D01*
X125333414Y-103208444D01*
X125333413Y-103208443D01*
X125333412Y-103208443D01*
X125131243Y-103142754D01*
X125131241Y-103142753D01*
X125131240Y-103142753D01*
X124969957Y-103117208D01*
X124921287Y-103109500D01*
X124458713Y-103109500D01*
X124410042Y-103117208D01*
X124248760Y-103142753D01*
X124046585Y-103208444D01*
X123857179Y-103304951D01*
X123685213Y-103429890D01*
X123534890Y-103580213D01*
X123409951Y-103752179D01*
X123313444Y-103941583D01*
X123247993Y-104143020D01*
X123217743Y-104192382D01*
X122320844Y-105089281D01*
X122320835Y-105089290D01*
X122318286Y-105091840D01*
X122318284Y-105091842D01*
X122206480Y-105203646D01*
X122189522Y-105233019D01*
X122183191Y-105243982D01*
X122183191Y-105243984D01*
X122159953Y-105284233D01*
X122127423Y-105340577D01*
X122086499Y-105493305D01*
X122086499Y-105493307D01*
X122086499Y-105661408D01*
X122086500Y-105661421D01*
X122086500Y-112172902D01*
X122066815Y-112239941D01*
X122050181Y-112260583D01*
X120524266Y-113786497D01*
X120462943Y-113819982D01*
X120393251Y-113814998D01*
X120337318Y-113773126D01*
X120326312Y-113753796D01*
X120325883Y-113754026D01*
X120323009Y-113748649D01*
X120224464Y-113601168D01*
X120224461Y-113601164D01*
X120176844Y-113553547D01*
X120143359Y-113492224D01*
X120140525Y-113465866D01*
X120140525Y-110799084D01*
X120140526Y-110799071D01*
X120140526Y-110630970D01*
X120140526Y-110630968D01*
X120099602Y-110478240D01*
X120049545Y-110391539D01*
X120020545Y-110341309D01*
X119908741Y-110229505D01*
X119904410Y-110225174D01*
X119904399Y-110225164D01*
X118946916Y-109267681D01*
X118942578Y-109259737D01*
X118935332Y-109254313D01*
X118926095Y-109229551D01*
X118913431Y-109206358D01*
X118914076Y-109197330D01*
X118910913Y-109188849D01*
X118916529Y-109163025D01*
X118918415Y-109136666D01*
X118924232Y-109127614D01*
X118925763Y-109120576D01*
X118946914Y-109092321D01*
X118968502Y-109070732D01*
X118968507Y-109070728D01*
X118978714Y-109060520D01*
X118978716Y-109060520D01*
X119090520Y-108948716D01*
X119159349Y-108829500D01*
X119169577Y-108811785D01*
X119210500Y-108659057D01*
X119210500Y-108500943D01*
X119210500Y-105881881D01*
X119230185Y-105814842D01*
X119282989Y-105769087D01*
X119352147Y-105759143D01*
X119358692Y-105760264D01*
X119436306Y-105775703D01*
X119436309Y-105775703D01*
X119613693Y-105775703D01*
X119613694Y-105775702D01*
X119691308Y-105760264D01*
X119787658Y-105741099D01*
X119787661Y-105741097D01*
X119787666Y-105741097D01*
X119951547Y-105673216D01*
X120091109Y-105579962D01*
X120157786Y-105559085D01*
X120225166Y-105577569D01*
X120228890Y-105579962D01*
X120368453Y-105673216D01*
X120368455Y-105673217D01*
X120368459Y-105673219D01*
X120446720Y-105705635D01*
X120532334Y-105741097D01*
X120532336Y-105741097D01*
X120532341Y-105741099D01*
X120706304Y-105775702D01*
X120706307Y-105775703D01*
X120706309Y-105775703D01*
X120883693Y-105775703D01*
X120883694Y-105775702D01*
X120961308Y-105760264D01*
X121057658Y-105741099D01*
X121057661Y-105741097D01*
X121057666Y-105741097D01*
X121221547Y-105673216D01*
X121369035Y-105574667D01*
X121494464Y-105449238D01*
X121593013Y-105301750D01*
X121660894Y-105137869D01*
X121664555Y-105119468D01*
X121695499Y-104963898D01*
X121695500Y-104963896D01*
X121695500Y-104786509D01*
X121695499Y-104786507D01*
X121660896Y-104612544D01*
X121660893Y-104612535D01*
X121593016Y-104448662D01*
X121593009Y-104448649D01*
X121494464Y-104301168D01*
X121494461Y-104301164D01*
X121431820Y-104238523D01*
X121398335Y-104177200D01*
X121395501Y-104150842D01*
X121395501Y-104055944D01*
X121391586Y-104041334D01*
X121354577Y-103903216D01*
X121305024Y-103817387D01*
X121275524Y-103766290D01*
X121275518Y-103766282D01*
X120249590Y-102740355D01*
X120249588Y-102740352D01*
X120130717Y-102621481D01*
X120130716Y-102621480D01*
X120043904Y-102571360D01*
X120043904Y-102571359D01*
X120043900Y-102571358D01*
X119993785Y-102542423D01*
X119841057Y-102501499D01*
X119682943Y-102501499D01*
X119675347Y-102501499D01*
X119675331Y-102501500D01*
X100554669Y-102501500D01*
X100554653Y-102501499D01*
X100547057Y-102501499D01*
X100388943Y-102501499D01*
X100281587Y-102530265D01*
X100236210Y-102542424D01*
X100236209Y-102542425D01*
X100186096Y-102571359D01*
X100186095Y-102571360D01*
X100142689Y-102596420D01*
X100099285Y-102621479D01*
X100099282Y-102621481D01*
X99987478Y-102733286D01*
X95817584Y-106903181D01*
X95756261Y-106936666D01*
X95729903Y-106939500D01*
X95641306Y-106939500D01*
X95467341Y-106974103D01*
X95467332Y-106974106D01*
X95303459Y-107041983D01*
X95303446Y-107041990D01*
X95155965Y-107140535D01*
X95155961Y-107140538D01*
X95030538Y-107265961D01*
X95030535Y-107265965D01*
X94931990Y-107413446D01*
X94931983Y-107413459D01*
X94864106Y-107577332D01*
X94864103Y-107577341D01*
X94829500Y-107751304D01*
X94829500Y-107928695D01*
X94864103Y-108102658D01*
X94864106Y-108102667D01*
X94931983Y-108266540D01*
X94931990Y-108266553D01*
X95030535Y-108414034D01*
X95030538Y-108414038D01*
X95155961Y-108539461D01*
X95155965Y-108539464D01*
X95303446Y-108638009D01*
X95303459Y-108638016D01*
X95426363Y-108688923D01*
X95467334Y-108705894D01*
X95467336Y-108705894D01*
X95467341Y-108705896D01*
X95641304Y-108740499D01*
X95641307Y-108740500D01*
X95641309Y-108740500D01*
X95818693Y-108740500D01*
X95818694Y-108740499D01*
X95876682Y-108728964D01*
X95992658Y-108705896D01*
X95992661Y-108705894D01*
X95992666Y-108705894D01*
X96080370Y-108669565D01*
X96149839Y-108662097D01*
X96212318Y-108693372D01*
X96245752Y-108745805D01*
X96256916Y-108780162D01*
X96353423Y-108969567D01*
X96478362Y-109141533D01*
X96617540Y-109280711D01*
X96651025Y-109342034D01*
X96646041Y-109411726D01*
X96604169Y-109467659D01*
X96594956Y-109473930D01*
X96440131Y-109569427D01*
X96440127Y-109569430D01*
X96316156Y-109693401D01*
X96224115Y-109842622D01*
X96224113Y-109842627D01*
X96168966Y-110009049D01*
X96168965Y-110009056D01*
X96158472Y-110111760D01*
X96158472Y-110511747D01*
X97225460Y-110511747D01*
X97192547Y-110568754D01*
X97158472Y-110695921D01*
X97158472Y-110827573D01*
X97192547Y-110954740D01*
X97225460Y-111011747D01*
X96158473Y-111011747D01*
X96158473Y-111411733D01*
X96168966Y-111514444D01*
X96224113Y-111680866D01*
X96224115Y-111680871D01*
X96316156Y-111830092D01*
X96440126Y-111954062D01*
X96589347Y-112046103D01*
X96589352Y-112046105D01*
X96755774Y-112101252D01*
X96755781Y-112101253D01*
X96858491Y-112111746D01*
X97408471Y-112111746D01*
X97408472Y-112111745D01*
X97408472Y-111194759D01*
X97465479Y-111227672D01*
X97592646Y-111261747D01*
X97724298Y-111261747D01*
X97851465Y-111227672D01*
X97908472Y-111194759D01*
X97908472Y-112111746D01*
X98458444Y-112111746D01*
X98458458Y-112111745D01*
X98561167Y-112101253D01*
X98677666Y-112062648D01*
X98747494Y-112060246D01*
X98807536Y-112095977D01*
X98838730Y-112158497D01*
X98840671Y-112180354D01*
X98840672Y-113450703D01*
X98820987Y-113517742D01*
X98768184Y-113563497D01*
X98716672Y-113574703D01*
X95785300Y-113574703D01*
X95718261Y-113555018D01*
X95697619Y-113538384D01*
X94276819Y-112117584D01*
X94243334Y-112056261D01*
X94240500Y-112029903D01*
X94240500Y-106759059D01*
X94240501Y-106759046D01*
X94240501Y-106590945D01*
X94240501Y-106590943D01*
X94199577Y-106438215D01*
X94141807Y-106338155D01*
X94120520Y-106301284D01*
X94008716Y-106189480D01*
X94008713Y-106189478D01*
X92521819Y-104702584D01*
X92488334Y-104641261D01*
X92485500Y-104614903D01*
X92485500Y-104418916D01*
X92466850Y-104301164D01*
X92452246Y-104208960D01*
X92386557Y-104006791D01*
X92290051Y-103817387D01*
X92290049Y-103817384D01*
X92290048Y-103817382D01*
X92165109Y-103645416D01*
X92014786Y-103495093D01*
X91842820Y-103370154D01*
X91653414Y-103273647D01*
X91653413Y-103273646D01*
X91653412Y-103273646D01*
X91451243Y-103207957D01*
X91451241Y-103207956D01*
X91451240Y-103207956D01*
X91289957Y-103182411D01*
X91241287Y-103174703D01*
X90778713Y-103174703D01*
X90730042Y-103182411D01*
X90568760Y-103207956D01*
X90366585Y-103273647D01*
X90177179Y-103370154D01*
X90005213Y-103495093D01*
X89854890Y-103645416D01*
X89729951Y-103817382D01*
X89633444Y-104006788D01*
X89567753Y-104208963D01*
X89534500Y-104418916D01*
X88544264Y-104418916D01*
X88544264Y-101849703D01*
X88563949Y-101782664D01*
X88616753Y-101736909D01*
X88668264Y-101725703D01*
X128019264Y-101725703D01*
X128086303Y-101745388D01*
G37*
%TD.AperFunction*%
%TD*%
M02*
