%TF.GenerationSoftware,KiCad,Pcbnew,9.0.5*%
%TF.CreationDate,2025-11-22T08:22:05+01:00*%
%TF.ProjectId,7segment-driver-board,37736567-6d65-46e7-942d-647269766572,1.0*%
%TF.SameCoordinates,Original*%
%TF.FileFunction,Soldermask,Bot*%
%TF.FilePolarity,Negative*%
%FSLAX46Y46*%
G04 Gerber Fmt 4.6, Leading zero omitted, Abs format (unit mm)*
G04 Created by KiCad (PCBNEW 9.0.5) date 2025-11-22 08:22:05*
%MOMM*%
%LPD*%
G01*
G04 APERTURE LIST*
G04 APERTURE END LIST*
G36*
X91803914Y-113632198D02*
G01*
X91819726Y-113639179D01*
X91827531Y-113640416D01*
X91860039Y-113656979D01*
X91905106Y-113676879D01*
X91983324Y-113755097D01*
X92003226Y-113800170D01*
X92019786Y-113832671D01*
X92021021Y-113840473D01*
X92028005Y-113856289D01*
X92036000Y-113925203D01*
X92036000Y-115125203D01*
X92028005Y-115194117D01*
X92021021Y-115209932D01*
X92019786Y-115217734D01*
X92003229Y-115250227D01*
X91983324Y-115295309D01*
X91905106Y-115373527D01*
X91860024Y-115393432D01*
X91827531Y-115409989D01*
X91819729Y-115411224D01*
X91803914Y-115418208D01*
X91735000Y-115426203D01*
X90285000Y-115426203D01*
X90216086Y-115418208D01*
X90200270Y-115411224D01*
X90192468Y-115409989D01*
X90159967Y-115393429D01*
X90114894Y-115373527D01*
X90036676Y-115295309D01*
X90016776Y-115250242D01*
X90000213Y-115217734D01*
X89998976Y-115209929D01*
X89991995Y-115194117D01*
X89984000Y-115125203D01*
X89984000Y-113925203D01*
X89991995Y-113856289D01*
X89998976Y-113840477D01*
X90000213Y-113832671D01*
X90016780Y-113800156D01*
X90036676Y-113755097D01*
X90114894Y-113676879D01*
X90159953Y-113656983D01*
X90192468Y-113640416D01*
X90200274Y-113639179D01*
X90216086Y-113632198D01*
X90285000Y-113624203D01*
X91735000Y-113624203D01*
X91803914Y-113632198D01*
G37*
G36*
X125483914Y-113566995D02*
G01*
X125499726Y-113573976D01*
X125507531Y-113575213D01*
X125540039Y-113591776D01*
X125585106Y-113611676D01*
X125663324Y-113689894D01*
X125683226Y-113734967D01*
X125699786Y-113767468D01*
X125701021Y-113775270D01*
X125708005Y-113791086D01*
X125716000Y-113860000D01*
X125716000Y-115060000D01*
X125708005Y-115128914D01*
X125701021Y-115144729D01*
X125699786Y-115152531D01*
X125683229Y-115185024D01*
X125663324Y-115230106D01*
X125585106Y-115308324D01*
X125540024Y-115328229D01*
X125507531Y-115344786D01*
X125499729Y-115346021D01*
X125483914Y-115353005D01*
X125415000Y-115361000D01*
X123965000Y-115361000D01*
X123896086Y-115353005D01*
X123880270Y-115346021D01*
X123872468Y-115344786D01*
X123839967Y-115328226D01*
X123794894Y-115308324D01*
X123716676Y-115230106D01*
X123696776Y-115185039D01*
X123680213Y-115152531D01*
X123678976Y-115144726D01*
X123671995Y-115128914D01*
X123664000Y-115060000D01*
X123664000Y-113860000D01*
X123671995Y-113791086D01*
X123678976Y-113775274D01*
X123680213Y-113767468D01*
X123696780Y-113734953D01*
X123716676Y-113689894D01*
X123794894Y-113611676D01*
X123839953Y-113591780D01*
X123872468Y-113575213D01*
X123880274Y-113573976D01*
X123896086Y-113566995D01*
X123965000Y-113559000D01*
X125415000Y-113559000D01*
X125483914Y-113566995D01*
G37*
G36*
X100360688Y-110519444D02*
G01*
X100377233Y-110530500D01*
X100388289Y-110547045D01*
X100392171Y-110566562D01*
X100392171Y-113566562D01*
X100388289Y-113586079D01*
X100377233Y-113602624D01*
X100360688Y-113613680D01*
X100341171Y-113617562D01*
X99341171Y-113617562D01*
X99321654Y-113613680D01*
X99305109Y-113602624D01*
X99294053Y-113586079D01*
X99290171Y-113566562D01*
X99290171Y-110566562D01*
X99294053Y-110547045D01*
X99305109Y-110530500D01*
X99321654Y-110519444D01*
X99341171Y-110515562D01*
X100341171Y-110515562D01*
X100360688Y-110519444D01*
G37*
G36*
X102900688Y-110519444D02*
G01*
X102917233Y-110530500D01*
X102928289Y-110547045D01*
X102932171Y-110566562D01*
X102932171Y-113566562D01*
X102928289Y-113586079D01*
X102917233Y-113602624D01*
X102900688Y-113613680D01*
X102881171Y-113617562D01*
X101881171Y-113617562D01*
X101861654Y-113613680D01*
X101845109Y-113602624D01*
X101834053Y-113586079D01*
X101830171Y-113566562D01*
X101830171Y-110566562D01*
X101834053Y-110547045D01*
X101845109Y-110530500D01*
X101861654Y-110519444D01*
X101881171Y-110515562D01*
X102881171Y-110515562D01*
X102900688Y-110519444D01*
G37*
G36*
X105440688Y-110519444D02*
G01*
X105457233Y-110530500D01*
X105468289Y-110547045D01*
X105472171Y-110566562D01*
X105472171Y-113566562D01*
X105468289Y-113586079D01*
X105457233Y-113602624D01*
X105440688Y-113613680D01*
X105421171Y-113617562D01*
X104421171Y-113617562D01*
X104401654Y-113613680D01*
X104385109Y-113602624D01*
X104374053Y-113586079D01*
X104370171Y-113566562D01*
X104370171Y-110566562D01*
X104374053Y-110547045D01*
X104385109Y-110530500D01*
X104401654Y-110519444D01*
X104421171Y-110515562D01*
X105421171Y-110515562D01*
X105440688Y-110519444D01*
G37*
G36*
X107980688Y-110519444D02*
G01*
X107997233Y-110530500D01*
X108008289Y-110547045D01*
X108012171Y-110566562D01*
X108012171Y-113566562D01*
X108008289Y-113586079D01*
X107997233Y-113602624D01*
X107980688Y-113613680D01*
X107961171Y-113617562D01*
X106961171Y-113617562D01*
X106941654Y-113613680D01*
X106925109Y-113602624D01*
X106914053Y-113586079D01*
X106910171Y-113566562D01*
X106910171Y-110566562D01*
X106914053Y-110547045D01*
X106925109Y-110530500D01*
X106941654Y-110519444D01*
X106961171Y-110515562D01*
X107961171Y-110515562D01*
X107980688Y-110519444D01*
G37*
G36*
X110520688Y-110519444D02*
G01*
X110537233Y-110530500D01*
X110548289Y-110547045D01*
X110552171Y-110566562D01*
X110552171Y-113566562D01*
X110548289Y-113586079D01*
X110537233Y-113602624D01*
X110520688Y-113613680D01*
X110501171Y-113617562D01*
X109501171Y-113617562D01*
X109481654Y-113613680D01*
X109465109Y-113602624D01*
X109454053Y-113586079D01*
X109450171Y-113566562D01*
X109450171Y-110566562D01*
X109454053Y-110547045D01*
X109465109Y-110530500D01*
X109481654Y-110519444D01*
X109501171Y-110515562D01*
X110501171Y-110515562D01*
X110520688Y-110519444D01*
G37*
G36*
X113060688Y-110519444D02*
G01*
X113077233Y-110530500D01*
X113088289Y-110547045D01*
X113092171Y-110566562D01*
X113092171Y-113566562D01*
X113088289Y-113586079D01*
X113077233Y-113602624D01*
X113060688Y-113613680D01*
X113041171Y-113617562D01*
X112041171Y-113617562D01*
X112021654Y-113613680D01*
X112005109Y-113602624D01*
X111994053Y-113586079D01*
X111990171Y-113566562D01*
X111990171Y-110566562D01*
X111994053Y-110547045D01*
X112005109Y-110530500D01*
X112021654Y-110519444D01*
X112041171Y-110515562D01*
X113041171Y-110515562D01*
X113060688Y-110519444D01*
G37*
G36*
X115600688Y-110519444D02*
G01*
X115617233Y-110530500D01*
X115628289Y-110547045D01*
X115632171Y-110566562D01*
X115632171Y-113566562D01*
X115628289Y-113586079D01*
X115617233Y-113602624D01*
X115600688Y-113613680D01*
X115581171Y-113617562D01*
X114581171Y-113617562D01*
X114561654Y-113613680D01*
X114545109Y-113602624D01*
X114534053Y-113586079D01*
X114530171Y-113566562D01*
X114530171Y-110566562D01*
X114534053Y-110547045D01*
X114545109Y-110530500D01*
X114561654Y-110519444D01*
X114581171Y-110515562D01*
X115581171Y-110515562D01*
X115600688Y-110519444D01*
G37*
G36*
X118140688Y-110519444D02*
G01*
X118157233Y-110530500D01*
X118168289Y-110547045D01*
X118172171Y-110566562D01*
X118172171Y-113566562D01*
X118168289Y-113586079D01*
X118157233Y-113602624D01*
X118140688Y-113613680D01*
X118121171Y-113617562D01*
X117121171Y-113617562D01*
X117101654Y-113613680D01*
X117085109Y-113602624D01*
X117074053Y-113586079D01*
X117070171Y-113566562D01*
X117070171Y-110566562D01*
X117074053Y-110547045D01*
X117085109Y-110530500D01*
X117101654Y-110519444D01*
X117121171Y-110515562D01*
X118121171Y-110515562D01*
X118140688Y-110519444D01*
G37*
G36*
X91223313Y-111128542D02*
G01*
X91396546Y-111163000D01*
X91559728Y-111230592D01*
X91706588Y-111328721D01*
X91831482Y-111453615D01*
X91929611Y-111600475D01*
X91997203Y-111763657D01*
X92031661Y-111936890D01*
X92031661Y-112113516D01*
X91997203Y-112286749D01*
X91929611Y-112449931D01*
X91831482Y-112596791D01*
X91706588Y-112721685D01*
X91559728Y-112819814D01*
X91396546Y-112887406D01*
X91223313Y-112921864D01*
X91135000Y-112926203D01*
X91131941Y-112926203D01*
X90888059Y-112926203D01*
X90885000Y-112926203D01*
X90796687Y-112921864D01*
X90623454Y-112887406D01*
X90460272Y-112819814D01*
X90313412Y-112721685D01*
X90188518Y-112596791D01*
X90090389Y-112449931D01*
X90022797Y-112286749D01*
X89988339Y-112113516D01*
X89988339Y-111936890D01*
X90022797Y-111763657D01*
X90090389Y-111600475D01*
X90188518Y-111453615D01*
X90313412Y-111328721D01*
X90460272Y-111230592D01*
X90623454Y-111163000D01*
X90796687Y-111128542D01*
X90885000Y-111124203D01*
X91135000Y-111124203D01*
X91223313Y-111128542D01*
G37*
G36*
X124903313Y-111063339D02*
G01*
X125076546Y-111097797D01*
X125239728Y-111165389D01*
X125386588Y-111263518D01*
X125511482Y-111388412D01*
X125609611Y-111535272D01*
X125677203Y-111698454D01*
X125711661Y-111871687D01*
X125711661Y-112048313D01*
X125677203Y-112221546D01*
X125609611Y-112384728D01*
X125511482Y-112531588D01*
X125386588Y-112656482D01*
X125239728Y-112754611D01*
X125076546Y-112822203D01*
X124903313Y-112856661D01*
X124815000Y-112861000D01*
X124811941Y-112861000D01*
X124568059Y-112861000D01*
X124565000Y-112861000D01*
X124476687Y-112856661D01*
X124303454Y-112822203D01*
X124140272Y-112754611D01*
X123993412Y-112656482D01*
X123868518Y-112531588D01*
X123770389Y-112384728D01*
X123702797Y-112221546D01*
X123668339Y-112048313D01*
X123668339Y-111871687D01*
X123702797Y-111698454D01*
X123770389Y-111535272D01*
X123868518Y-111388412D01*
X123993412Y-111263518D01*
X124140272Y-111165389D01*
X124303454Y-111097797D01*
X124476687Y-111063339D01*
X124565000Y-111059000D01*
X124815000Y-111059000D01*
X124903313Y-111063339D01*
G37*
G36*
X98477386Y-109868742D02*
G01*
X98493198Y-109875723D01*
X98501003Y-109876960D01*
X98533511Y-109893523D01*
X98578578Y-109913423D01*
X98656796Y-109991641D01*
X98676698Y-110036714D01*
X98693258Y-110069215D01*
X98694493Y-110077017D01*
X98701477Y-110092833D01*
X98709472Y-110161747D01*
X98709472Y-111361747D01*
X98701477Y-111430661D01*
X98694493Y-111446476D01*
X98693258Y-111454278D01*
X98676701Y-111486771D01*
X98656796Y-111531853D01*
X98578578Y-111610071D01*
X98533496Y-111629976D01*
X98501003Y-111646533D01*
X98493201Y-111647768D01*
X98477386Y-111654752D01*
X98408472Y-111662747D01*
X96908472Y-111662747D01*
X96839558Y-111654752D01*
X96823742Y-111647768D01*
X96815940Y-111646533D01*
X96783439Y-111629973D01*
X96738366Y-111610071D01*
X96660148Y-111531853D01*
X96640248Y-111486786D01*
X96623685Y-111454278D01*
X96622448Y-111446473D01*
X96615467Y-111430661D01*
X96607472Y-111361747D01*
X96607472Y-110161747D01*
X96615467Y-110092833D01*
X96622448Y-110077021D01*
X96623685Y-110069215D01*
X96640252Y-110036700D01*
X96660148Y-109991641D01*
X96738366Y-109913423D01*
X96783425Y-109893527D01*
X96815940Y-109876960D01*
X96823746Y-109875723D01*
X96839558Y-109868742D01*
X96908472Y-109860747D01*
X98408472Y-109860747D01*
X98477386Y-109868742D01*
G37*
G36*
X91223313Y-108628542D02*
G01*
X91396546Y-108663000D01*
X91559728Y-108730592D01*
X91706588Y-108828721D01*
X91831482Y-108953615D01*
X91929611Y-109100475D01*
X91997203Y-109263657D01*
X92031661Y-109436890D01*
X92031661Y-109613516D01*
X91997203Y-109786749D01*
X91929611Y-109949931D01*
X91831482Y-110096791D01*
X91706588Y-110221685D01*
X91559728Y-110319814D01*
X91396546Y-110387406D01*
X91223313Y-110421864D01*
X91135000Y-110426203D01*
X91131941Y-110426203D01*
X90888059Y-110426203D01*
X90885000Y-110426203D01*
X90796687Y-110421864D01*
X90623454Y-110387406D01*
X90460272Y-110319814D01*
X90313412Y-110221685D01*
X90188518Y-110096791D01*
X90090389Y-109949931D01*
X90022797Y-109786749D01*
X89988339Y-109613516D01*
X89988339Y-109436890D01*
X90022797Y-109263657D01*
X90090389Y-109100475D01*
X90188518Y-108953615D01*
X90313412Y-108828721D01*
X90460272Y-108730592D01*
X90623454Y-108663000D01*
X90796687Y-108628542D01*
X90885000Y-108624203D01*
X91135000Y-108624203D01*
X91223313Y-108628542D01*
G37*
G36*
X124903313Y-108563339D02*
G01*
X125076546Y-108597797D01*
X125239728Y-108665389D01*
X125386588Y-108763518D01*
X125511482Y-108888412D01*
X125609611Y-109035272D01*
X125677203Y-109198454D01*
X125711661Y-109371687D01*
X125711661Y-109548313D01*
X125677203Y-109721546D01*
X125609611Y-109884728D01*
X125511482Y-110031588D01*
X125386588Y-110156482D01*
X125239728Y-110254611D01*
X125076546Y-110322203D01*
X124903313Y-110356661D01*
X124815000Y-110361000D01*
X124811941Y-110361000D01*
X124568059Y-110361000D01*
X124565000Y-110361000D01*
X124476687Y-110356661D01*
X124303454Y-110322203D01*
X124140272Y-110254611D01*
X123993412Y-110156482D01*
X123868518Y-110031588D01*
X123770389Y-109884728D01*
X123702797Y-109721546D01*
X123668339Y-109548313D01*
X123668339Y-109371687D01*
X123702797Y-109198454D01*
X123770389Y-109035272D01*
X123868518Y-108888412D01*
X123993412Y-108763518D01*
X124140272Y-108665389D01*
X124303454Y-108597797D01*
X124476687Y-108563339D01*
X124565000Y-108559000D01*
X124815000Y-108559000D01*
X124903313Y-108563339D01*
G37*
G36*
X97896785Y-107365086D02*
G01*
X98070018Y-107399544D01*
X98233200Y-107467136D01*
X98380060Y-107565265D01*
X98504954Y-107690159D01*
X98603083Y-107837019D01*
X98670675Y-108000201D01*
X98705133Y-108173434D01*
X98705133Y-108350060D01*
X98670675Y-108523293D01*
X98603083Y-108686475D01*
X98504954Y-108833335D01*
X98380060Y-108958229D01*
X98233200Y-109056358D01*
X98070018Y-109123950D01*
X97896785Y-109158408D01*
X97808472Y-109162747D01*
X97805413Y-109162747D01*
X97511531Y-109162747D01*
X97508472Y-109162747D01*
X97420159Y-109158408D01*
X97246926Y-109123950D01*
X97083744Y-109056358D01*
X96936884Y-108958229D01*
X96811990Y-108833335D01*
X96713861Y-108686475D01*
X96646269Y-108523293D01*
X96611811Y-108350060D01*
X96611811Y-108173434D01*
X96646269Y-108000201D01*
X96713861Y-107837019D01*
X96811990Y-107690159D01*
X96936884Y-107565265D01*
X97083744Y-107467136D01*
X97246926Y-107399544D01*
X97420159Y-107365086D01*
X97508472Y-107360747D01*
X97808472Y-107360747D01*
X97896785Y-107365086D01*
G37*
G36*
X100360688Y-105479444D02*
G01*
X100377233Y-105490500D01*
X100388289Y-105507045D01*
X100392171Y-105526562D01*
X100392171Y-108526562D01*
X100388289Y-108546079D01*
X100377233Y-108562624D01*
X100360688Y-108573680D01*
X100341171Y-108577562D01*
X99341171Y-108577562D01*
X99321654Y-108573680D01*
X99305109Y-108562624D01*
X99294053Y-108546079D01*
X99290171Y-108526562D01*
X99290171Y-105526562D01*
X99294053Y-105507045D01*
X99305109Y-105490500D01*
X99321654Y-105479444D01*
X99341171Y-105475562D01*
X100341171Y-105475562D01*
X100360688Y-105479444D01*
G37*
G36*
X102900688Y-105479444D02*
G01*
X102917233Y-105490500D01*
X102928289Y-105507045D01*
X102932171Y-105526562D01*
X102932171Y-108526562D01*
X102928289Y-108546079D01*
X102917233Y-108562624D01*
X102900688Y-108573680D01*
X102881171Y-108577562D01*
X101881171Y-108577562D01*
X101861654Y-108573680D01*
X101845109Y-108562624D01*
X101834053Y-108546079D01*
X101830171Y-108526562D01*
X101830171Y-105526562D01*
X101834053Y-105507045D01*
X101845109Y-105490500D01*
X101861654Y-105479444D01*
X101881171Y-105475562D01*
X102881171Y-105475562D01*
X102900688Y-105479444D01*
G37*
G36*
X105440688Y-105479444D02*
G01*
X105457233Y-105490500D01*
X105468289Y-105507045D01*
X105472171Y-105526562D01*
X105472171Y-108526562D01*
X105468289Y-108546079D01*
X105457233Y-108562624D01*
X105440688Y-108573680D01*
X105421171Y-108577562D01*
X104421171Y-108577562D01*
X104401654Y-108573680D01*
X104385109Y-108562624D01*
X104374053Y-108546079D01*
X104370171Y-108526562D01*
X104370171Y-105526562D01*
X104374053Y-105507045D01*
X104385109Y-105490500D01*
X104401654Y-105479444D01*
X104421171Y-105475562D01*
X105421171Y-105475562D01*
X105440688Y-105479444D01*
G37*
G36*
X107980688Y-105479444D02*
G01*
X107997233Y-105490500D01*
X108008289Y-105507045D01*
X108012171Y-105526562D01*
X108012171Y-108526562D01*
X108008289Y-108546079D01*
X107997233Y-108562624D01*
X107980688Y-108573680D01*
X107961171Y-108577562D01*
X106961171Y-108577562D01*
X106941654Y-108573680D01*
X106925109Y-108562624D01*
X106914053Y-108546079D01*
X106910171Y-108526562D01*
X106910171Y-105526562D01*
X106914053Y-105507045D01*
X106925109Y-105490500D01*
X106941654Y-105479444D01*
X106961171Y-105475562D01*
X107961171Y-105475562D01*
X107980688Y-105479444D01*
G37*
G36*
X110520688Y-105479444D02*
G01*
X110537233Y-105490500D01*
X110548289Y-105507045D01*
X110552171Y-105526562D01*
X110552171Y-108526562D01*
X110548289Y-108546079D01*
X110537233Y-108562624D01*
X110520688Y-108573680D01*
X110501171Y-108577562D01*
X109501171Y-108577562D01*
X109481654Y-108573680D01*
X109465109Y-108562624D01*
X109454053Y-108546079D01*
X109450171Y-108526562D01*
X109450171Y-105526562D01*
X109454053Y-105507045D01*
X109465109Y-105490500D01*
X109481654Y-105479444D01*
X109501171Y-105475562D01*
X110501171Y-105475562D01*
X110520688Y-105479444D01*
G37*
G36*
X113060688Y-105479444D02*
G01*
X113077233Y-105490500D01*
X113088289Y-105507045D01*
X113092171Y-105526562D01*
X113092171Y-108526562D01*
X113088289Y-108546079D01*
X113077233Y-108562624D01*
X113060688Y-108573680D01*
X113041171Y-108577562D01*
X112041171Y-108577562D01*
X112021654Y-108573680D01*
X112005109Y-108562624D01*
X111994053Y-108546079D01*
X111990171Y-108526562D01*
X111990171Y-105526562D01*
X111994053Y-105507045D01*
X112005109Y-105490500D01*
X112021654Y-105479444D01*
X112041171Y-105475562D01*
X113041171Y-105475562D01*
X113060688Y-105479444D01*
G37*
G36*
X115600688Y-105479444D02*
G01*
X115617233Y-105490500D01*
X115628289Y-105507045D01*
X115632171Y-105526562D01*
X115632171Y-108526562D01*
X115628289Y-108546079D01*
X115617233Y-108562624D01*
X115600688Y-108573680D01*
X115581171Y-108577562D01*
X114581171Y-108577562D01*
X114561654Y-108573680D01*
X114545109Y-108562624D01*
X114534053Y-108546079D01*
X114530171Y-108526562D01*
X114530171Y-105526562D01*
X114534053Y-105507045D01*
X114545109Y-105490500D01*
X114561654Y-105479444D01*
X114581171Y-105475562D01*
X115581171Y-105475562D01*
X115600688Y-105479444D01*
G37*
G36*
X118140688Y-105479444D02*
G01*
X118157233Y-105490500D01*
X118168289Y-105507045D01*
X118172171Y-105526562D01*
X118172171Y-108526562D01*
X118168289Y-108546079D01*
X118157233Y-108562624D01*
X118140688Y-108573680D01*
X118121171Y-108577562D01*
X117121171Y-108577562D01*
X117101654Y-108573680D01*
X117085109Y-108562624D01*
X117074053Y-108546079D01*
X117070171Y-108526562D01*
X117070171Y-105526562D01*
X117074053Y-105507045D01*
X117085109Y-105490500D01*
X117101654Y-105479444D01*
X117121171Y-105475562D01*
X118121171Y-105475562D01*
X118140688Y-105479444D01*
G37*
G36*
X91223313Y-106128542D02*
G01*
X91396546Y-106163000D01*
X91559728Y-106230592D01*
X91706588Y-106328721D01*
X91831482Y-106453615D01*
X91929611Y-106600475D01*
X91997203Y-106763657D01*
X92031661Y-106936890D01*
X92031661Y-107113516D01*
X91997203Y-107286749D01*
X91929611Y-107449931D01*
X91831482Y-107596791D01*
X91706588Y-107721685D01*
X91559728Y-107819814D01*
X91396546Y-107887406D01*
X91223313Y-107921864D01*
X91135000Y-107926203D01*
X91131941Y-107926203D01*
X90888059Y-107926203D01*
X90885000Y-107926203D01*
X90796687Y-107921864D01*
X90623454Y-107887406D01*
X90460272Y-107819814D01*
X90313412Y-107721685D01*
X90188518Y-107596791D01*
X90090389Y-107449931D01*
X90022797Y-107286749D01*
X89988339Y-107113516D01*
X89988339Y-106936890D01*
X90022797Y-106763657D01*
X90090389Y-106600475D01*
X90188518Y-106453615D01*
X90313412Y-106328721D01*
X90460272Y-106230592D01*
X90623454Y-106163000D01*
X90796687Y-106128542D01*
X90885000Y-106124203D01*
X91135000Y-106124203D01*
X91223313Y-106128542D01*
G37*
G36*
X124903313Y-106063339D02*
G01*
X125076546Y-106097797D01*
X125239728Y-106165389D01*
X125386588Y-106263518D01*
X125511482Y-106388412D01*
X125609611Y-106535272D01*
X125677203Y-106698454D01*
X125711661Y-106871687D01*
X125711661Y-107048313D01*
X125677203Y-107221546D01*
X125609611Y-107384728D01*
X125511482Y-107531588D01*
X125386588Y-107656482D01*
X125239728Y-107754611D01*
X125076546Y-107822203D01*
X124903313Y-107856661D01*
X124815000Y-107861000D01*
X124811941Y-107861000D01*
X124568059Y-107861000D01*
X124565000Y-107861000D01*
X124476687Y-107856661D01*
X124303454Y-107822203D01*
X124140272Y-107754611D01*
X123993412Y-107656482D01*
X123868518Y-107531588D01*
X123770389Y-107384728D01*
X123702797Y-107221546D01*
X123668339Y-107048313D01*
X123668339Y-106871687D01*
X123702797Y-106698454D01*
X123770389Y-106535272D01*
X123868518Y-106388412D01*
X123993412Y-106263518D01*
X124140272Y-106165389D01*
X124303454Y-106097797D01*
X124476687Y-106063339D01*
X124565000Y-106059000D01*
X124815000Y-106059000D01*
X124903313Y-106063339D01*
G37*
G36*
X91223313Y-103628542D02*
G01*
X91396546Y-103663000D01*
X91559728Y-103730592D01*
X91706588Y-103828721D01*
X91831482Y-103953615D01*
X91929611Y-104100475D01*
X91997203Y-104263657D01*
X92031661Y-104436890D01*
X92031661Y-104613516D01*
X91997203Y-104786749D01*
X91929611Y-104949931D01*
X91831482Y-105096791D01*
X91706588Y-105221685D01*
X91559728Y-105319814D01*
X91396546Y-105387406D01*
X91223313Y-105421864D01*
X91135000Y-105426203D01*
X91131941Y-105426203D01*
X90888059Y-105426203D01*
X90885000Y-105426203D01*
X90796687Y-105421864D01*
X90623454Y-105387406D01*
X90460272Y-105319814D01*
X90313412Y-105221685D01*
X90188518Y-105096791D01*
X90090389Y-104949931D01*
X90022797Y-104786749D01*
X89988339Y-104613516D01*
X89988339Y-104436890D01*
X90022797Y-104263657D01*
X90090389Y-104100475D01*
X90188518Y-103953615D01*
X90313412Y-103828721D01*
X90460272Y-103730592D01*
X90623454Y-103663000D01*
X90796687Y-103628542D01*
X90885000Y-103624203D01*
X91135000Y-103624203D01*
X91223313Y-103628542D01*
G37*
G36*
X124903313Y-103563339D02*
G01*
X125076546Y-103597797D01*
X125239728Y-103665389D01*
X125386588Y-103763518D01*
X125511482Y-103888412D01*
X125609611Y-104035272D01*
X125677203Y-104198454D01*
X125711661Y-104371687D01*
X125711661Y-104548313D01*
X125677203Y-104721546D01*
X125609611Y-104884728D01*
X125511482Y-105031588D01*
X125386588Y-105156482D01*
X125239728Y-105254611D01*
X125076546Y-105322203D01*
X124903313Y-105356661D01*
X124815000Y-105361000D01*
X124811941Y-105361000D01*
X124568059Y-105361000D01*
X124565000Y-105361000D01*
X124476687Y-105356661D01*
X124303454Y-105322203D01*
X124140272Y-105254611D01*
X123993412Y-105156482D01*
X123868518Y-105031588D01*
X123770389Y-104884728D01*
X123702797Y-104721546D01*
X123668339Y-104548313D01*
X123668339Y-104371687D01*
X123702797Y-104198454D01*
X123770389Y-104035272D01*
X123868518Y-103888412D01*
X123993412Y-103763518D01*
X124140272Y-103665389D01*
X124303454Y-103597797D01*
X124476687Y-103563339D01*
X124565000Y-103559000D01*
X124815000Y-103559000D01*
X124903313Y-103563339D01*
G37*
M02*
