<?xml version="1.0" encoding="UTF-8" standalone="no"?>
<svg
   xmlns:dc="http://purl.org/dc/elements/1.1/"
   xmlns:cc="http://creativecommons.org/ns#"
   xmlns:rdf="http://www.w3.org/1999/02/22-rdf-syntax-ns#"
   xmlns:svg="http://www.w3.org/2000/svg"
   xmlns="http://www.w3.org/2000/svg"
   xmlns:sodipodi="http://sodipodi.sourceforge.net/DTD/sodipodi-0.dtd"
   xmlns:inkscape="http://www.inkscape.org/namespaces/inkscape"
   sodipodi:docname="qr-code-documentation.svg"
   inkscape:version="1.0.1 (3bc2e813f5, 2020-09-07)"
   id="svg967"
   version="1.1"
   viewBox="0 0 11 11"
   height="11mm"
   width="11mm">
  <defs
     id="defs961" />
  <sodipodi:namedview
     id="base"
     pagecolor="#ffffff"
     bordercolor="#666666"
     borderopacity="1.0"
     inkscape:pageopacity="0"
     inkscape:pageshadow="2"
     inkscape:zoom="22.4"
     inkscape:cx="21.376198"
     inkscape:cy="20.803868"
     inkscape:document-units="mm"
     inkscape:current-layer="layer3"
     inkscape:document-rotation="0"
     showgrid="false"
     inkscape:pagecheckerboard="true"
     inkscape:window-width="3840"
     inkscape:window-height="2054"
     inkscape:window-x="-11"
     inkscape:window-y="-11"
     inkscape:window-maximized="1" />
  <metadata
     id="metadata964">
    <rdf:RDF>
      <cc:Work
         rdf:about="">
        <dc:format>image/svg+xml</dc:format>
        <dc:type
           rdf:resource="http://purl.org/dc/dcmitype/StillImage" />
        <dc:title />
      </cc:Work>
    </rdf:RDF>
  </metadata>
  <g
     inkscape:groupmode="layer"
     id="layer3"
     inkscape:label="QR Code -MAX7219 Breakout Board"
     style="display:inline">
    <g
       inkscape:label="QR Code: https://mobiflight.com/community-products/max7219-breakout-system.html"
       transform="matrix(0.08333333,0,0,0.08333333,-1.3333333,-1.3333333)"
       id="g1087"
       style="stroke-width:3.175">
      <g
         style="fill:#000000;stroke:none;stroke-width:3.175"
         id="g1085">
        <path
           d="m 143.6,148 h -3.2 c -0.22091,0 -0.4,-0.17909 -0.4,-0.4 v -3.2 c 0,-0.22091 0.17909,-0.4 0.4,-0.4 h 3.2 c 0.22091,0 0.4,0.17909 0.4,0.4 v 3.2 c 0,0.22091 -0.17909,0.4 -0.4,0.4 z m -8,0 h -7.2 c -0.22091,0 -0.4,-0.17909 -0.4,-0.4 V 144 h 7.6 c 0.22091,0 0.4,0.17909 0.4,0.4 v 3.2 c 0,0.22091 -0.17909,0.4 -0.4,0.4 z m -12,0 h -11.2 c -0.22091,0 -0.4,-0.17909 -0.4,-0.4 v -3.2 c 0,-0.22091 -0.17909,-0.4 -0.4,-0.4 h -7.2 c -0.22091,0 -0.4,0.17909 -0.4,0.4 v 3.2 c 0,0.22091 -0.17909,0.4 -0.4,0.4 h -3.2 c -0.22091,0 -0.4,-0.17909 -0.4,-0.4 v -3.2 c 0,-0.22091 -0.179086,-0.4 -0.4,-0.4 h -3.2 c -0.220914,0 -0.4,0.17909 -0.4,0.4 v 3.2 c 0,0.22091 -0.179086,0.4 -0.4,0.4 H 92.4 C 92.179086,148 92,147.82091 92,147.6 V 140 h 7.6 c 0.220914,0 0.4,-0.17909 0.4,-0.4 v -7.2 c 0,-0.22091 -0.179086,-0.4 -0.4,-0.4 h -7.2 c -0.220914,0 -0.4,-0.17909 -0.4,-0.4 v -3.2 c 0,-0.22091 -0.179086,-0.4 -0.4,-0.4 h -3.2 c -0.220914,0 -0.4,0.17909 -0.4,0.4 v 3.2 c 0,0.22091 -0.179086,0.4 -0.4,0.4 H 84 v -3.6 C 84,128.17909 83.820914,128 83.6,128 H 76.4 C 76.179086,128 76,127.82091 76,127.6 V 124 h 7.6 c 0.220914,0 0.4,-0.17909 0.4,-0.4 v -3.2 c 0,-0.22091 0.179086,-0.4 0.4,-0.4 h 3.2 c 0.220914,0 0.4,0.17909 0.4,0.4 v 3.2 c 0,0.22091 0.179086,0.4 0.4,0.4 H 104 v 3.6 c 0,0.22091 0.17909,0.4 0.4,0.4 h 3.2 c 0.22091,0 0.4,0.17909 0.4,0.4 v 3.2 c 0,0.22091 0.17909,0.4 0.4,0.4 h 3.2 c 0.22091,0 0.4,-0.17909 0.4,-0.4 v -11.2 c 0,-0.22091 -0.17909,-0.4 -0.4,-0.4 H 108 v -8 h 3.6 c 0.22091,0 0.4,-0.17909 0.4,-0.4 v -3.2 c 0,-0.22091 0.17909,-0.4 0.4,-0.4 h 7.2 c 0.22091,0 0.4,0.17909 0.4,0.4 v 3.2 c 0,0.22091 0.17909,0.4 0.4,0.4 h 3.2 c 0.22091,0 0.4,-0.17909 0.4,-0.4 V 104 h 3.6 c 0.22091,0 0.4,0.17909 0.4,0.4 v 3.2 c 0,0.22091 0.17909,0.4 0.4,0.4 h 3.2 c 0.22091,0 0.4,-0.17909 0.4,-0.4 v -3.2 c 0,-0.22091 0.17909,-0.4 0.4,-0.4 h 3.6 v 7.6 c 0,0.22091 -0.17909,0.4 -0.4,0.4 h -3.2 c -0.22091,0 -0.4,0.17909 -0.4,0.4 v 19.2 c 0,0.22091 0.17909,0.4 0.4,0.4 h 11.2 c 0.22091,0 0.4,-0.17909 0.4,-0.4 v -3.2 c 0,-0.22091 -0.17909,-0.4 -0.4,-0.4 h -3.2 c -0.22091,0 -0.4,-0.17909 -0.4,-0.4 v -3.2 c 0,-0.22091 -0.17909,-0.4 -0.4,-0.4 h -3.2 c -0.22091,0 -0.4,-0.17909 -0.4,-0.4 v -7.2 c 0,-0.22091 0.17909,-0.4 0.4,-0.4 h 3.2 c 0.22091,0 0.4,0.17909 0.4,0.4 v 3.2 c 0,0.22091 0.17909,0.4 0.4,0.4 h 3.6 v 3.6 c 0,0.22091 0.17909,0.4 0.4,0.4 h 3.2 c 0.22091,0 0.4,0.17909 0.4,0.4 v 15.2 c 0,0.22091 -0.17909,0.4 -0.4,0.4 h -7.2 c -0.22091,0 -0.4,-0.17909 -0.4,-0.4 v -3.2 c 0,-0.22091 -0.17909,-0.4 -0.4,-0.4 h -3.2 c -0.22091,0 -0.4,0.17909 -0.4,0.4 v 3.2 c 0,0.22091 -0.17909,0.4 -0.4,0.4 h -7.2 c -0.22091,0 -0.4,0.17909 -0.4,0.4 v 3.6 h -4 v -7.6 c 0,-0.22091 -0.17909,-0.4 -0.4,-0.4 h -3.2 c -0.22091,0 -0.4,-0.17909 -0.4,-0.4 v -3.2 c 0,-0.22091 -0.17909,-0.4 -0.4,-0.4 h -3.2 c -0.22091,0 -0.4,0.17909 -0.4,0.4 v 3.2 c 0,0.22091 -0.17909,0.4 -0.4,0.4 h -3.2 c -0.22091,0 -0.4,0.17909 -0.4,0.4 v 3.2 c 0,0.22091 0.17909,0.4 0.4,0.4 h 3.2 c 0.22091,0 0.4,0.17909 0.4,0.4 v 3.2 c 0,0.22091 0.17909,0.4 0.4,0.4 h 7.6 v 3.6 c 0,0.22091 -0.17909,0.4 -0.4,0.4 z m -48,0 H 68.4 C 68.179086,148 68,147.82091 68,147.6 V 144 h 7.6 c 0.220914,0 0.4,0.17909 0.4,0.4 v 3.2 c 0,0.22091 -0.179086,0.4 -0.4,0.4 z m -12,0 h -3.2 c -0.220914,0 -0.4,-0.17909 -0.4,-0.4 v -7.2 c 0,-0.22091 0.179086,-0.4 0.4,-0.4 h 3.2 c 0.220914,0 0.4,-0.17909 0.4,-0.4 v -3.2 c 0,-0.22091 -0.179086,-0.4 -0.4,-0.4 h -3.2 c -0.220914,0 -0.4,-0.17909 -0.4,-0.4 v -15.2 c 0,-0.22091 0.179086,-0.4 0.4,-0.4 H 64 v 3.6 c 0,0.22091 0.179086,0.4 0.4,0.4 h 3.2 c 0.220914,0 0.4,-0.17909 0.4,-0.4 v -3.2 C 68,120.17909 67.820914,120 67.6,120 H 64 v -3.6 C 64,116.17909 63.820914,116 63.6,116 H 56 v -3.6 c 0,-0.22091 0.179086,-0.4 0.4,-0.4 h 7.2 c 0.220914,0 0.4,-0.17909 0.4,-0.4 V 104 h 7.6 c 0.220914,0 0.4,0.17909 0.4,0.4 v 7.2 c 0,0.22091 0.179086,0.4 0.4,0.4 H 76 v 3.6 c 0,0.22091 -0.179086,0.4 -0.4,0.4 h -3.2 c -0.220914,0 -0.4,0.17909 -0.4,0.4 v 3.2 c 0,0.22091 0.179086,0.4 0.4,0.4 h 3.2 c 0.220914,0 0.4,0.17909 0.4,0.4 v 3.6 h -3.6 c -0.220914,0 -0.4,0.17909 -0.4,0.4 v 3.2 c 0,0.22091 -0.179086,0.4 -0.4,0.4 h -3.2 c -0.220914,0 -0.4,0.17909 -0.4,0.4 V 144 h -3.6 c -0.220914,0 -0.4,0.17909 -0.4,0.4 v 3.2 c 0,0.22091 -0.179086,0.4 -0.4,0.4 z m -12,0 h -3.2 c -0.220914,0 -0.4,-0.17909 -0.4,-0.4 v -7.2 c 0,-0.22091 0.179086,-0.4 0.4,-0.4 h 3.2 c 0.220914,0 0.4,0.17909 0.4,0.4 v 7.2 c 0,0.22091 -0.179086,0.4 -0.4,0.4 z m -8,0 H 16.4 c -0.220914,0 -0.4,-0.17909 -0.4,-0.4 v -27.2 c 0,-0.22091 0.179086,-0.4 0.4,-0.4 h 27.2 c 0.220914,0 0.4,0.17909 0.4,0.4 v 27.2 c 0,0.22091 -0.179086,0.4 -0.4,0.4 z m 44,-4 h -7.2 c -0.220914,0 -0.4,-0.17909 -0.4,-0.4 v -11.2 c 0,-0.22091 0.179086,-0.4 0.4,-0.4 H 84 v 3.6 c 0,0.22091 0.179086,0.4 0.4,0.4 h 7.2 c 0.220914,0 0.4,0.17909 0.4,0.4 v 3.6 h -3.6 c -0.220914,0 -0.4,0.17909 -0.4,0.4 v 3.2 c 0,0.22091 -0.179086,0.4 -0.4,0.4 z M 40,143.6 V 124.4 C 40,124.17909 39.820914,124 39.6,124 H 20.4 c -0.220914,0 -0.4,0.17909 -0.4,0.4 v 19.2 c 0,0.22091 0.179086,0.4 0.4,0.4 h 19.2 c 0.220914,0 0.4,-0.17909 0.4,-0.4 z M 75.6,140 h -3.2 c -0.220914,0 -0.4,-0.17909 -0.4,-0.4 v -7.2 c 0,-0.22091 0.179086,-0.4 0.4,-0.4 h 3.2 c 0.220914,0 0.4,0.17909 0.4,0.4 v 7.2 c 0,0.22091 -0.179086,0.4 -0.4,0.4 z m -40,0 H 24.4 c -0.220914,0 -0.4,-0.17909 -0.4,-0.4 v -11.2 c 0,-0.22091 0.179086,-0.4 0.4,-0.4 h 11.2 c 0.220914,0 0.4,0.17909 0.4,0.4 v 11.2 c 0,0.22091 -0.179086,0.4 -0.4,0.4 z m 16,-4 h -3.2 c -0.220914,0 -0.4,-0.17909 -0.4,-0.4 v -3.2 c 0,-0.22091 0.179086,-0.4 0.4,-0.4 H 52 v 3.6 c 0,0.22091 -0.179086,0.4 -0.4,0.4 z m 4,-4 H 52 v -3.6 c 0,-0.22091 0.179086,-0.4 0.4,-0.4 h 3.2 c 0.220914,0 0.4,0.17909 0.4,0.4 v 3.2 c 0,0.22091 -0.179086,0.4 -0.4,0.4 z m 72.4,-4.4 v -11.2 c 0,-0.22091 -0.17909,-0.4 -0.4,-0.4 h -11.2 c -0.22091,0 -0.4,0.17909 -0.4,0.4 v 11.2 c 0,0.22091 0.17909,0.4 0.4,0.4 h 11.2 c 0.22091,0 0.4,-0.17909 0.4,-0.4 z m -4.4,-3.6 h -3.2 c -0.22091,0 -0.4,-0.17909 -0.4,-0.4 v -3.2 c 0,-0.22091 0.17909,-0.4 0.4,-0.4 h 3.2 c 0.22091,0 0.4,0.17909 0.4,0.4 v 3.2 c 0,0.22091 -0.17909,0.4 -0.4,0.4 z m -16,0 H 104 v -4 h 4 v 3.6 c 0,0.22091 -0.17909,0.4 -0.4,0.4 z m -52,0 H 48.4 C 48.179086,124 48,123.82091 48,123.6 V 116 h 8 v 7.6 c 0,0.22091 -0.179086,0.4 -0.4,0.4 z m 92,-4 H 144 v -3.6 c 0,-0.22091 0.17909,-0.4 0.4,-0.4 h 3.2 c 0.22091,0 0.4,0.17909 0.4,0.4 v 3.2 c 0,0.22091 -0.17909,0.4 -0.4,0.4 z m -44,0 H 92.4 C 92.179086,120 92,119.82091 92,119.6 V 116 h 7.6 c 0.220914,0 0.4,-0.17909 0.4,-0.4 v -7.2 c 0,-0.22091 0.17909,-0.4 0.4,-0.4 h 3.2 c 0.22091,0 0.4,-0.17909 0.4,-0.4 v -3.2 c 0,-0.22091 0.17909,-0.4 0.4,-0.4 h 3.2 c 0.22091,0 0.4,0.17909 0.4,0.4 v 7.6 h -3.6 c -0.22091,0 -0.4,0.17909 -0.4,0.4 v 7.6 z m -12,-4 H 80.4 C 80.179086,116 80,115.82091 80,115.6 V 112 h 7.6 c 0.220914,0 0.4,-0.17909 0.4,-0.4 V 96.4 C 88,96.179086 87.820914,96 87.6,96 H 84.4 C 84.179086,96 84,96.179086 84,96.4 v 11.2 c 0,0.22091 -0.179086,0.4 -0.4,0.4 H 80 v -7.6 C 80,100.17909 79.820914,100 79.6,100 H 64 V 92.4 C 64,92.179086 63.820914,92 63.6,92 H 60 v -4 h 3.6 C 63.820914,88 64,87.820914 64,87.6 V 80 h 4 v 3.6 c 0,0.220914 0.179086,0.4 0.4,0.4 H 76 v 3.6 C 76,87.820914 75.820914,88 75.6,88 H 68.4 C 68.179086,88 68,88.179086 68,88.4 v 7.2 c 0,0.220914 0.179086,0.4 0.4,0.4 h 3.2 C 71.820914,96 72,95.820914 72,95.6 V 92.4 C 72,92.179086 72.179086,92 72.4,92 h 3.2 c 0.220914,0 0.4,0.179086 0.4,0.4 v 3.2 c 0,0.220914 0.179086,0.4 0.4,0.4 h 3.2 C 79.820914,96 80,95.820914 80,95.6 V 92.4 C 80,92.179086 80.179086,92 80.4,92 h 7.2 C 87.820914,92 88,91.820914 88,91.6 V 84.4 C 88,84.179086 87.820914,84 87.6,84 H 84 V 80.4 C 84,80.179086 83.820914,80 83.6,80 H 80 V 76.4 C 80,76.179086 80.179086,76 80.4,76 H 88 v 3.6 c 0,0.220914 0.179086,0.4 0.4,0.4 h 3.2 C 91.820914,80 92,79.820914 92,79.6 V 76 h 11.6 c 0.22091,0 0.4,0.179086 0.4,0.4 v 3.2 c 0,0.220914 0.17909,0.4 0.4,0.4 h 3.2 c 0.22091,0 0.4,0.179086 0.4,0.4 v 3.2 c 0,0.220914 0.17909,0.4 0.4,0.4 h 3.2 c 0.22091,0 0.4,-0.179086 0.4,-0.4 v -3.2 c 0,-0.220914 0.17909,-0.4 0.4,-0.4 h 3.6 v 8 h -7.6 c -0.22091,0 -0.4,0.179086 -0.4,0.4 v 3.2 c 0,0.220914 -0.17909,0.4 -0.4,0.4 H 104 v -7.6 c 0,-0.220914 -0.17909,-0.4 -0.4,-0.4 h -3.2 C 100.17909,84 100,83.820914 100,83.6 V 80.4 C 100,80.179086 99.820914,80 99.6,80 H 96.4 C 96.179086,80 96,80.179086 96,80.4 v 3.2 C 96,83.820914 95.820914,84 95.6,84 H 92.4 C 92.179086,84 92,84.179086 92,84.4 v 7.2 c 0,0.220914 0.179086,0.4 0.4,0.4 h 3.2 c 0.220914,0 0.4,0.179086 0.4,0.4 v 3.2 C 96,95.820914 95.820914,96 95.6,96 H 92.4 C 92.179086,96 92,96.179086 92,96.4 v 7.2 c 0,0.22091 0.179086,0.4 0.4,0.4 H 96 v 7.6 c 0,0.22091 -0.179086,0.4 -0.4,0.4 h -3.2 c -0.220914,0 -0.4,0.17909 -0.4,0.4 v 3.6 z m -44,0 H 32.4 C 32.179086,116 32,115.82091 32,115.6 V 108 h 8 v 3.6 c 0,0.22091 0.179086,0.4 0.4,0.4 H 48 v 4 z m -20,0 H 24.4 C 24.179086,116 24,115.82091 24,115.6 V 112 h 3.6 c 0.220914,0 0.4,0.17909 0.4,0.4 v 3.2 c 0,0.22091 -0.179086,0.4 -0.4,0.4 z m -8,0 h -3.2 c -0.220914,0 -0.4,-0.17909 -0.4,-0.4 v -3.2 c 0,-0.22091 0.179086,-0.4 0.4,-0.4 H 20 v 3.6 c 0,0.22091 -0.179086,0.4 -0.4,0.4 z m 128,-4 h -7.2 c -0.22091,0 -0.4,-0.17909 -0.4,-0.4 v -3.2 c 0,-0.22091 0.17909,-0.4 0.4,-0.4 h 3.2 c 0.22091,0 0.4,-0.17909 0.4,-0.4 V 100 h 3.6 c 0.22091,0 0.4,0.17909 0.4,0.4 v 11.2 c 0,0.22091 -0.17909,0.4 -0.4,0.4 z m -68,0 H 76 v -3.6 c 0,-0.22091 0.179086,-0.4 0.4,-0.4 H 80 v 4 z m -28,0 H 48 v -3.6 C 48,108.17909 47.820914,108 47.6,108 H 40 v -4 h 3.6 c 0.220914,0 0.4,-0.17909 0.4,-0.4 V 100 h 4 v 3.6 c 0,0.22091 0.179086,0.4 0.4,0.4 h 3.2 c 0.220914,0 0.4,0.17909 0.4,0.4 v 7.2 c 0,0.22091 -0.179086,0.4 -0.4,0.4 z m -28,0 H 20 v -3.6 c 0,-0.22091 -0.179086,-0.4 -0.4,-0.4 h -3.2 c -0.220914,0 -0.4,-0.17909 -0.4,-0.4 v -3.2 c 0,-0.22091 0.179086,-0.4 0.4,-0.4 h 3.2 c 0.220914,0 0.4,-0.17909 0.4,-0.4 v -3.2 C 20,100.17909 19.820914,100 19.6,100 H 16.4 C 16.179086,100 16,99.820914 16,99.6 V 84.4 C 16,84.179086 16.179086,84 16.4,84 H 20 v 11.6 c 0,0.220914 0.179086,0.4 0.4,0.4 h 3.2 C 23.820914,96 24,95.820914 24,95.6 V 92.4 C 24,92.179086 24.179086,92 24.4,92 h 3.2 C 27.820914,92 28,91.820914 28,91.6 V 76.4 C 28,76.179086 27.820914,76 27.6,76 H 24.4 C 24.179086,76 24,76.179086 24,76.4 v 7.2 C 24,83.820914 23.820914,84 23.6,84 H 20 V 72.4 C 20,72.179086 19.820914,72 19.6,72 H 16.4 C 16.179086,72 16,71.820914 16,71.6 V 56.4 C 16,56.179086 16.179086,56 16.4,56 H 24 v 8 H 20.4 C 20.179086,64 20,64.179086 20,64.4 v 3.2 c 0,0.220914 0.179086,0.4 0.4,0.4 H 24 v 3.6 c 0,0.220914 0.179086,0.4 0.4,0.4 H 32 v 3.6 c 0,0.220914 0.179086,0.4 0.4,0.4 H 36 v 4 H 32.4 C 32.179086,80 32,80.179086 32,80.4 v 19.2 c 0,0.220914 0.179086,0.4 0.4,0.4 h 3.2 c 0.220914,0 0.4,-0.179086 0.4,-0.4 V 96.4 C 36,96.179086 36.179086,96 36.4,96 h 7.2 c 0.220914,0 0.4,0.179086 0.4,0.4 v 3.6 h -3.6 c -0.220914,0 -0.4,0.17909 -0.4,0.4 v 3.6 h -7.6 c -0.220914,0 -0.4,0.17909 -0.4,0.4 v 3.6 h -3.6 c -0.220914,0 -0.4,-0.17909 -0.4,-0.4 v -3.2 c 0,-0.22091 -0.179086,-0.4 -0.4,-0.4 h -3.2 c -0.220914,0 -0.4,0.17909 -0.4,0.4 v 7.6 z m 116,-8 H 136 v -4 h 4 v 3.6 c 0,0.22091 -0.17909,0.4 -0.4,0.4 z m -16,0 h -7.2 c -0.22091,0 -0.4,-0.17909 -0.4,-0.4 V 100 h 7.6 c 0.22091,0 0.4,0.17909 0.4,0.4 v 3.6 z m -24,0 H 96 v -3.6 c 0,-0.22091 0.179086,-0.4 0.4,-0.4 h 3.6 v 3.6 c 0,0.22091 -0.179086,0.4 -0.4,0.4 z m -36,0 H 56.4 C 56.179086,104 56,103.82091 56,103.6 V 92 h 4 v 7.6 c 0,0.220914 0.179086,0.4 0.4,0.4 H 64 v 4 z m 80,-4 H 140 v -3.6 c 0,-0.220914 0.17909,-0.4 0.4,-0.4 h 3.2 c 0.22091,0 0.4,0.179086 0.4,0.4 v 3.6 z m -8,0 h -3.2 c -0.22091,0 -0.4,-0.179086 -0.4,-0.4 v -3.2 c 0,-0.220914 -0.17909,-0.4 -0.4,-0.4 h -3.2 c -0.22091,0 -0.4,-0.179086 -0.4,-0.4 v -3.2 c 0,-0.220914 0.17909,-0.4 0.4,-0.4 h 3.2 c 0.22091,0 0.4,-0.179086 0.4,-0.4 V 84 h 7.6 c 0.22091,0 0.4,0.179086 0.4,0.4 V 88 h -3.6 c -0.22091,0 -0.4,0.179086 -0.4,0.4 V 100 Z m -20,0 h -3.2 c -0.22091,0 -0.4,-0.179086 -0.4,-0.4 v -7.2 c 0,-0.220914 0.17909,-0.4 0.4,-0.4 h 3.6 v 8 z m -8,0 H 100 v -7.6 c 0,-0.220914 0.17909,-0.4 0.4,-0.4 h 3.6 v 3.6 c 0,0.220914 0.17909,0.4 0.4,0.4 h 3.2 c 0.22091,0 0.4,0.179086 0.4,0.4 v 3.2 c 0,0.220914 -0.17909,0.4 -0.4,0.4 z m -56,0 H 48 v -8 h 4 v 7.6 c 0,0.220914 -0.179086,0.4 -0.4,0.4 z m 96,-8 h -7.2 C 140.17909,92 140,91.820914 140,91.6 V 88 h 7.6 c 0.22091,0 0.4,0.179086 0.4,0.4 v 3.2 c 0,0.220914 -0.17909,0.4 -0.4,0.4 z m -24,0 H 116 v -4 h 7.6 c 0.22091,0 0.4,0.179086 0.4,0.4 v 3.2 c 0,0.220914 -0.17909,0.4 -0.4,0.4 z m -68,0 H 52 v -4 h 4 v 4 z m -8,0 H 40.4 C 40.179086,92 40,91.820914 40,91.6 V 88 h 3.6 C 43.820914,88 44,87.820914 44,87.6 V 84.4 C 44,84.179086 43.820914,84 43.6,84 H 40.4 C 40.179086,84 40,84.179086 40,84.4 V 88 H 36.4 C 36.179086,88 36,87.820914 36,87.6 V 80 h 16 v 8 H 48.4 C 48.179086,88 48,88.179086 48,88.4 V 92 Z m 36,-4 H 80.4 C 80.179086,88 80,87.820914 80,87.6 V 84 h 4 v 3.6 c 0,0.220914 -0.179086,0.4 -0.4,0.4 z m -24,0 H 56 V 84.4 C 56,84.179086 56.179086,84 56.4,84 h 3.2 c 0.220914,0 0.4,0.179086 0.4,0.4 V 88 Z m 88,-4 h -3.2 C 144.17909,84 144,83.820914 144,83.6 V 80 h 3.6 c 0.22091,0 0.4,0.179086 0.4,0.4 v 3.2 c 0,0.220914 -0.17909,0.4 -0.4,0.4 z m -16,0 h -3.2 C 128.17909,84 128,83.820914 128,83.6 V 68.4 c 0,-0.220914 0.17909,-0.4 0.4,-0.4 h 3.2 c 0.22091,0 0.4,-0.179086 0.4,-0.4 V 64 h 3.6 c 0.22091,0 0.4,0.179086 0.4,0.4 v 3.2 c 0,0.220914 0.17909,0.4 0.4,0.4 h 7.2 c 0.22091,0 0.4,-0.179086 0.4,-0.4 v -3.2 c 0,-0.220914 -0.17909,-0.4 -0.4,-0.4 h -3.2 c -0.22091,0 -0.4,-0.179086 -0.4,-0.4 v -3.2 c 0,-0.220914 0.17909,-0.4 0.4,-0.4 h 3.2 c 0.22091,0 0.4,-0.179086 0.4,-0.4 V 52 h 3.6 c 0.22091,0 0.4,0.179086 0.4,0.4 v 19.2 c 0,0.220914 -0.17909,0.4 -0.4,0.4 h -3.2 c -0.22091,0 -0.4,0.179086 -0.4,0.4 V 80 h -3.6 c -0.22091,0 -0.4,-0.179086 -0.4,-0.4 v -7.2 c 0,-0.220914 -0.17909,-0.4 -0.4,-0.4 h -3.2 c -0.22091,0 -0.4,0.179086 -0.4,0.4 v 7.2 c 0,0.220914 -0.17909,0.4 -0.4,0.4 h -3.2 c -0.22091,0 -0.4,0.179086 -0.4,0.4 V 84 Z m -8,0 h -3.2 C 120.17909,84 120,83.820914 120,83.6 V 80 h 3.6 c 0.22091,0 0.4,0.179086 0.4,0.4 v 3.2 c 0,0.220914 -0.17909,0.4 -0.4,0.4 z m -44,0 H 76 V 80.4 C 76,80.179086 76.179086,80 76.4,80 H 80 v 4 z m 40,-4 H 116 v -3.6 c 0,-0.220914 0.17909,-0.4 0.4,-0.4 h 3.6 v 4 z m -48,0 H 68 V 76.4 C 68,76.179086 68.179086,76 68.4,76 H 72 v 3.6 c 0,0.220914 -0.179086,0.4 -0.4,0.4 z m -8,0 H 52 V 76.4 C 52,76.179086 51.820914,76 51.6,76 H 36 v -4 h 7.6 C 43.820914,72 44,71.820914 44,71.6 V 68 h 4 v 3.6 c 0,0.220914 0.179086,0.4 0.4,0.4 H 59.6 C 59.820914,72 60,71.820914 60,71.6 V 68.4 C 60,68.179086 59.820914,68 59.6,68 H 56.4 C 56.179086,68 56,67.820914 56,67.6 V 64.4 C 56,64.179086 55.820914,64 55.6,64 H 52 V 60.4 C 52,60.179086 52.179086,60 52.4,60 h 7.2 C 59.820914,60 60,59.820914 60,59.6 V 48.4 C 60,48.179086 59.820914,48 59.6,48 H 56.4 C 56.179086,48 56,47.820914 56,47.6 V 36.4 C 56,36.179086 55.820914,36 55.6,36 H 52.4 C 52.179086,36 52,36.179086 52,36.4 V 47.6 C 52,47.820914 51.820914,48 51.6,48 H 48 V 32.4 C 48,32.179086 48.179086,32 48.4,32 h 3.2 C 51.820914,32 52,31.820914 52,31.6 V 28 h 3.6 c 0.220914,0 0.4,0.179086 0.4,0.4 v 3.2 c 0,0.220914 0.179086,0.4 0.4,0.4 h 3.2 c 0.220914,0 0.4,0.179086 0.4,0.4 v 11.2 c 0,0.220914 0.179086,0.4 0.4,0.4 H 64 v 3.6 c 0,0.220914 0.179086,0.4 0.4,0.4 h 7.2 C 71.820914,48 72,47.820914 72,47.6 V 40.4 C 72,40.179086 71.820914,40 71.6,40 H 68.4 C 68.179086,40 68,40.179086 68,40.4 v 3.2 C 68,43.820914 67.820914,44 67.6,44 H 64 V 28.4 C 64,28.179086 64.179086,28 64.4,28 h 3.2 c 0.220914,0 0.4,0.179086 0.4,0.4 v 7.2 c 0,0.220914 0.179086,0.4 0.4,0.4 h 7.2 C 75.820914,36 76,35.820914 76,35.6 V 32 h 3.6 c 0.220914,0 0.4,0.179086 0.4,0.4 V 40 H 76.4 C 76.179086,40 76,40.179086 76,40.4 v 3.2 c 0,0.220914 0.179086,0.4 0.4,0.4 H 80 v 3.6 C 80,47.820914 79.820914,48 79.6,48 H 76.4 C 76.179086,48 76,48.179086 76,48.4 V 60 H 72 V 56.4 C 72,56.179086 71.820914,56 71.6,56 H 68.4 C 68.179086,56 68,56.179086 68,56.4 v 3.2 c 0,0.220914 0.179086,0.4 0.4,0.4 H 72 v 8 H 68.4 C 68.179086,68 68,67.820914 68,67.6 V 64.4 C 68,64.179086 67.820914,64 67.6,64 H 64.4 C 64.179086,64 64,64.179086 64,64.4 V 80 Z m 60,-4 H 120 v -7.6 c 0,-0.220914 -0.17909,-0.4 -0.4,-0.4 h -3.2 c -0.22091,0 -0.4,0.179086 -0.4,0.4 v 3.2 c 0,0.220914 -0.17909,0.4 -0.4,0.4 H 112 v -3.6 c 0,-0.220914 -0.17909,-0.4 -0.4,-0.4 h -3.2 c -0.22091,0 -0.4,-0.179086 -0.4,-0.4 v -3.2 c 0,-0.220914 -0.17909,-0.4 -0.4,-0.4 h -3.2 c -0.22091,0 -0.4,0.179086 -0.4,0.4 v 7.2 c 0,0.220914 -0.17909,0.4 -0.4,0.4 H 92.4 C 92.179086,72 92,72.179086 92,72.4 V 76 H 88 V 72.4 C 88,72.179086 87.820914,72 87.6,72 H 84.4 C 84.179086,72 84,71.820914 84,71.6 V 64 h 3.6 C 87.820914,64 88,63.820914 88,63.6 V 60 h 4 v 7.6 c 0,0.220914 0.179086,0.4 0.4,0.4 h 7.2 c 0.220914,0 0.4,-0.179086 0.4,-0.4 V 64.4 C 100,64.179086 99.820914,64 99.6,64 H 96.4 C 96.179086,64 96,63.820914 96,63.6 V 60 h 19.6 c 0.22091,0 0.4,0.179086 0.4,0.4 v 3.2 c 0,0.220914 0.17909,0.4 0.4,0.4 h 7.6 v 11.6 c 0,0.220914 -0.17909,0.4 -0.4,0.4 z m -12,0 h -3.2 c -0.22091,0 -0.4,-0.179086 -0.4,-0.4 v -3.2 c 0,-0.220914 0.17909,-0.4 0.4,-0.4 h 3.6 v 3.6 c 0,0.220914 -0.17909,0.4 -0.4,0.4 z m -36,0 H 72 v -8 h 3.6 c 0.220914,0 0.4,0.179086 0.4,0.4 v 7.2 c 0,0.220914 -0.179086,0.4 -0.4,0.4 z m -40,-4 H 32 V 64.4 C 32,64.179086 32.179086,64 32.4,64 h 3.2 c 0.220914,0 0.4,0.179086 0.4,0.4 V 72 Z m 16,-4 H 48 V 64.4 C 48,64.179086 48.179086,64 48.4,64 H 52 v 3.6 c 0,0.220914 -0.179086,0.4 -0.4,0.4 z m -8,0 H 40.4 C 40.179086,68 40,67.820914 40,67.6 V 64.4 C 40,64.179086 40.179086,64 40.4,64 h 3.2 c 0.220914,0 0.4,0.179086 0.4,0.4 V 68 Z m -16,0 H 24 v -4 h 3.6 c 0.220914,0 0.4,0.179086 0.4,0.4 v 3.2 c 0,0.220914 -0.179086,0.4 -0.4,0.4 z m 104,-4 H 124 v -3.6 c 0,-0.220914 -0.17909,-0.4 -0.4,-0.4 h -3.2 c -0.22091,0 -0.4,-0.179086 -0.4,-0.4 v -3.2 c 0,-0.220914 -0.17909,-0.4 -0.4,-0.4 h -7.2 c -0.22091,0 -0.4,-0.179086 -0.4,-0.4 v -7.2 c 0,-0.220914 -0.17909,-0.4 -0.4,-0.4 h -7.2 c -0.22091,0 -0.4,0.179086 -0.4,0.4 v 3.2 c 0,0.220914 -0.17909,0.4 -0.4,0.4 h -3.2 C 100.17909,52 100,51.820914 100,51.6 V 48.4 C 100,48.179086 99.820914,48 99.6,48 H 96.4 C 96.179086,48 96,48.179086 96,48.4 v 3.2 C 96,51.820914 95.820914,52 95.6,52 H 92.4 C 92.179086,52 92,52.179086 92,52.4 V 56 H 88.4 C 88.179086,56 88,56.179086 88,56.4 V 60 H 84.4 C 84.179086,60 84,60.179086 84,60.4 V 64 H 76.4 C 76.179086,64 76,63.820914 76,63.6 V 60 h 3.6 C 79.820914,60 80,59.820914 80,59.6 V 52.4 C 80,52.179086 80.179086,52 80.4,52 h 7.2 C 87.820914,52 88,51.820914 88,51.6 V 48 h 3.6 C 91.820914,48 92,47.820914 92,47.6 V 44 h 3.6 C 95.820914,44 96,43.820914 96,43.6 V 40 h 3.6 c 0.220914,0 0.4,0.179086 0.4,0.4 v 3.2 c 0,0.220914 0.17909,0.4 0.4,0.4 h 3.2 c 0.22091,0 0.4,-0.179086 0.4,-0.4 V 36 h 4 v 7.6 c 0,0.220914 0.17909,0.4 0.4,0.4 h 3.2 c 0.22091,0 0.4,-0.179086 0.4,-0.4 V 36 h 3.6 c 0.22091,0 0.4,0.179086 0.4,0.4 v 15.2 c 0,0.220914 0.17909,0.4 0.4,0.4 h 3.2 c 0.22091,0 0.4,-0.179086 0.4,-0.4 v -3.2 c 0,-0.220914 0.17909,-0.4 0.4,-0.4 h 11.2 c 0.22091,0 0.4,0.179086 0.4,0.4 V 52 h -7.6 c -0.22091,0 -0.4,0.179086 -0.4,0.4 v 3.2 c 0,0.220914 0.17909,0.4 0.4,0.4 h 3.2 c 0.22091,0 0.4,0.179086 0.4,0.4 v 3.2 c 0,0.220914 0.17909,0.4 0.4,0.4 h 3.6 v 4 z m 4,-4 H 132 v -8 h 4 v 7.6 c 0,0.220914 -0.17909,0.4 -0.4,0.4 z m -40,0 H 92 v -4 h 3.6 c 0.220914,0 0.4,0.179086 0.4,0.4 V 60 Z m -52,0 H 36.4 C 36.179086,60 36,59.820914 36,59.6 V 56.4 C 36,56.179086 36.179086,56 36.4,56 h 7.2 c 0.220914,0 0.4,0.179086 0.4,0.4 v 3.2 c 0,0.220914 -0.179086,0.4 -0.4,0.4 z m 12,-4 H 48.4 C 48.179086,56 48,55.820914 48,55.6 V 52 h 7.6 c 0.220914,0 0.4,0.179086 0.4,0.4 v 3.2 c 0,0.220914 -0.179086,0.4 -0.4,0.4 z m -28,0 H 24 v -4 h 4 v 3.6 c 0,0.220914 -0.179086,0.4 -0.4,0.4 z m 116,-4 H 136 v -3.6 c 0,-0.220914 0.17909,-0.4 0.4,-0.4 h 7.2 c 0.22091,0 0.4,0.179086 0.4,0.4 V 52 Z m -96,0 H 40.4 C 40.179086,52 40,51.820914 40,51.6 V 48.4 C 40,48.179086 40.179086,48 40.4,48 H 48 v 4 z m -16,0 H 28 V 48.4 C 28,48.179086 28.179086,48 28.4,48 h 3.2 c 0.220914,0 0.4,0.179086 0.4,0.4 v 3.2 c 0,0.220914 -0.179086,0.4 -0.4,0.4 z m -8,0 H 16.4 C 16.179086,52 16,51.820914 16,51.6 V 48.4 C 16,48.179086 16.179086,48 16.4,48 h 7.2 c 0.220914,0 0.4,0.179086 0.4,0.4 V 52 Z m 64,-4 H 84.4 C 84.179086,48 84,47.820914 84,47.6 V 44 h 4 v 4 z m 60,-4 H 120.4 C 120.17909,44 120,43.820914 120,43.6 V 16.4 c 0,-0.220914 0.17909,-0.4 0.4,-0.4 h 27.2 c 0.22091,0 0.4,0.179086 0.4,0.4 v 27.2 c 0,0.220914 -0.17909,0.4 -0.4,0.4 z m -56,0 H 88 V 40.4 C 88,40.179086 88.179086,40 88.4,40 H 92 v 4 z m -8,0 H 80 v -4 h 3.6 c 0.220914,0 0.4,0.179086 0.4,0.4 V 44 Z m -40,0 H 16.4 C 16.179086,44 16,43.820914 16,43.6 V 16.4 C 16,16.179086 16.179086,16 16.4,16 h 27.2 c 0.220914,0 0.4,0.179086 0.4,0.4 V 43.6 C 44,43.820914 43.820914,44 43.6,44 Z M 144,39.6 V 20.4 c 0,-0.220914 -0.17909,-0.4 -0.4,-0.4 h -19.2 c -0.22091,0 -0.4,0.179086 -0.4,0.4 v 19.2 c 0,0.220914 0.17909,0.4 0.4,0.4 h 19.2 c 0.22091,0 0.4,-0.179086 0.4,-0.4 z M 95.6,40 H 92 V 36.4 C 92,36.179086 92.179086,36 92.4,36 h 3.2 c 0.220914,0 0.4,0.179086 0.4,0.4 V 40 Z M 40,39.6 V 20.4 C 40,20.179086 39.820914,20 39.6,20 H 20.4 C 20.179086,20 20,20.179086 20,20.4 v 19.2 c 0,0.220914 0.179086,0.4 0.4,0.4 H 39.6 C 39.820914,40 40,39.820914 40,39.6 Z M 139.6,36 H 128.4 C 128.17909,36 128,35.820914 128,35.6 V 24.4 c 0,-0.220914 0.17909,-0.4 0.4,-0.4 h 11.2 c 0.22091,0 0.4,0.179086 0.4,0.4 v 11.2 c 0,0.220914 -0.17909,0.4 -0.4,0.4 z m -28,0 H 108 v -4 h 3.6 c 0.22091,0 0.4,0.179086 0.4,0.4 V 36 Z m -8,0 h -3.2 c -0.22091,0 -0.4,-0.179086 -0.4,-0.4 v -3.2 c 0,-0.220914 0.17909,-0.4 0.4,-0.4 h 3.6 v 4 z m -16,0 H 84.4 C 84.179086,36 84,35.820914 84,35.6 V 32.4 C 84,32.179086 84.179086,32 84.4,32 H 88 v 3.6 c 0,0.220914 -0.179086,0.4 -0.4,0.4 z m -52,0 H 24.4 C 24.179086,36 24,35.820914 24,35.6 V 24.4 C 24,24.179086 24.179086,24 24.4,24 h 11.2 c 0.220914,0 0.4,0.179086 0.4,0.4 v 11.2 c 0,0.220914 -0.179086,0.4 -0.4,0.4 z m 72,-4 H 104 v -3.6 c 0,-0.220914 0.17909,-0.4 0.4,-0.4 h 3.6 v 4 z m -16,0 H 88 v -4 h 3.6 c 0.220914,0 0.4,0.179086 0.4,0.4 v 3.2 c 0,0.220914 -0.179086,0.4 -0.4,0.4 z m -16,0 H 72.4 C 72.179086,32 72,31.820914 72,31.6 V 24 h 4 v 8 z m 36,-4 H 108 V 16.4 c 0,-0.220914 0.17909,-0.4 0.4,-0.4 h 3.2 c 0.22091,0 0.4,0.179086 0.4,0.4 v 3.2 c 0,0.220914 0.17909,0.4 0.4,0.4 h 3.2 c 0.22091,0 0.4,0.179086 0.4,0.4 v 3.2 c 0,0.220914 -0.17909,0.4 -0.4,0.4 h -3.2 c -0.22091,0 -0.4,0.179086 -0.4,0.4 v 3.2 c 0,0.220914 -0.17909,0.4 -0.4,0.4 z m -12,0 H 96.4 C 96.179086,28 96,27.820914 96,27.6 V 20 h 7.6 c 0.22091,0 0.4,0.179086 0.4,0.4 v 3.2 c 0,0.220914 -0.17909,0.4 -0.4,0.4 h -3.2 c -0.22091,0 -0.4,0.179086 -0.4,0.4 v 3.2 c 0,0.220914 -0.179086,0.4 -0.4,0.4 z m -12,0 H 84.4 C 84.179086,28 84,27.820914 84,27.6 V 20.4 C 84,20.179086 84.179086,20 84.4,20 H 88 v 8 z m -36,0 H 48.4 C 48.179086,28 48,27.820914 48,27.6 V 20.4 C 48,20.179086 48.179086,20 48.4,20 h 7.2 C 55.820914,20 56,19.820914 56,19.6 V 16.4 C 56,16.179086 56.179086,16 56.4,16 h 3.2 c 0.220914,0 0.4,0.179086 0.4,0.4 v 7.2 C 60,23.820914 59.820914,24 59.6,24 H 52.4 C 52.179086,24 52,24.179086 52,24.4 V 28 Z m 28,-4 H 76 V 16.4 C 76,16.179086 76.179086,16 76.4,16 h 3.2 c 0.220914,0 0.4,0.179086 0.4,0.4 v 7.2 c 0,0.220914 -0.179086,0.4 -0.4,0.4 z m -8,0 H 68.4 C 68.179086,24 68,23.820914 68,23.6 V 20.4 C 68,20.179086 68.179086,20 68.4,20 h 3.2 c 0.220914,0 0.4,0.179086 0.4,0.4 V 24 Z m 24,-4 H 88 V 16.4 C 88,16.179086 88.179086,16 88.4,16 h 7.2 c 0.220914,0 0.4,0.179086 0.4,0.4 V 20 Z"
           id="path1083"
           style="fill:#ffffff;fill-opacity:1;stroke-width:3.175" />
      </g>
    </g>
  </g>
</svg>
