<?xml version="1.0" encoding="UTF-8" standalone="no"?>
<!-- Created with Inkscape (http://www.inkscape.org/) -->

<svg
   width="16mm"
   height="16mm"
   viewBox="0 0 16 16"
   version="1.1"
   id="svg1"
   inkscape:version="1.3-alpha (19e85f5fe, 2023-04-14)"
   sodipodi:docname="github-barcode.svg"
   xmlns:inkscape="http://www.inkscape.org/namespaces/inkscape"
   xmlns:sodipodi="http://sodipodi.sourceforge.net/DTD/sodipodi-0.dtd"
   xmlns="http://www.w3.org/2000/svg"
   xmlns:svg="http://www.w3.org/2000/svg">
  <sodipodi:namedview
     id="namedview1"
     pagecolor="#b1b1b1"
     bordercolor="#000000"
     borderopacity="0.25"
     inkscape:showpageshadow="2"
     inkscape:pageopacity="0.0"
     inkscape:pagecheckerboard="0"
     inkscape:deskcolor="#d1d1d1"
     inkscape:document-units="mm"
     inkscape:zoom="1.6819304"
     inkscape:cx="149.23328"
     inkscape:cy="136.15308"
     inkscape:window-width="1918"
     inkscape:window-height="1120"
     inkscape:window-x="1913"
     inkscape:window-y="0"
     inkscape:window-maximized="0"
     inkscape:current-layer="layer1" />
  <defs
     id="defs1" />
  <g
     inkscape:label="Layer 1"
     inkscape:groupmode="layer"
     id="layer1"
     transform="translate(-92.542098,-108.55961)">
    <path
       id="rect1"
       style="fill:#ffffff;stroke:none;stroke-width:0.264583"
       d="m 93.408092,108.55961 c -0.479784,0 -0.865994,0.38621 -0.865994,0.86598 v 14.26782 c 0,0.47978 0.38621,0.8662 0.865994,0.8662 H 107.6761 c 0.47979,0 0.866,-0.38642 0.866,-0.8662 v -14.26782 c 0,-0.47977 -0.38621,-0.86598 -0.866,-0.86598 z m 0.04328,0.86598 h 2.93999 c 0.0239,0 0.04328,0.0194 0.04328,0.0433 v 2.94016 c 0,0.0239 -0.01941,0.0431 -0.04328,0.0431 h -2.93999 c -0.02388,0 -0.04328,-0.0192 -0.04328,-0.0431 v -2.94016 c 0,-0.0239 0.0194,-0.0433 0.04328,-0.0433 z m 3.891275,0 h 0.345807 c 0.0239,0 0.04328,0.0194 0.04328,0.0433 v 0.77837 c 0,0.0239 0.0194,0.0431 0.04328,0.0431 h 0.345807 c 0.0239,0 0.04328,-0.0192 0.04328,-0.0431 v -0.34601 c 0,-0.0239 0.01941,-0.0433 0.04328,-0.0433 h 0.82145 v -0.38908 c 0,-0.0239 0.01941,-0.0433 0.04328,-0.0433 h 0.345806 c 0.02386,0 0.04328,0.0194 0.04328,0.0433 v 0.38908 h 0.821453 c 0.0239,0 0.0433,-0.0192 0.0433,-0.0431 v -0.34601 c 0,-0.0239 0.0194,-0.0433 0.0433,-0.0433 h 0.3458 c 0.0239,0 0.0433,0.0194 0.0433,0.0433 v 0.34601 c 0,0.0239 0.0194,0.0431 0.0433,0.0431 h 0.34581 c 0.0239,0 0.0433,-0.0192 0.0433,-0.0431 v -0.34601 c 0,-0.0239 0.0194,-0.0433 0.0433,-0.0433 h 1.21054 c 0.0239,0 0.0433,0.0194 0.0433,0.0433 v 0.34601 c 0,0.0239 0.0194,0.0431 0.0433,0.0431 h 0.34581 c 0.0239,0 0.0433,0.0194 0.0433,0.0433 v 0.82144 h 0.43236 v -0.38908 c 0,-0.0239 0.0194,-0.0433 0.0433,-0.0433 h 0.34581 c 0.0239,0 0.0433,0.0194 0.0433,0.0433 v 0.38908 h 0.38908 c 0.0239,0 0.0433,0.0194 0.0433,0.0433 v 0.34602 c 0,0.0239 -0.0194,0.0431 -0.0433,0.0431 h -0.38908 v 0.38929 c 0,0.0238 -0.0194,0.0431 -0.0433,0.0431 h -0.34581 c -0.0239,0 -0.0433,0.0194 -0.0433,0.0433 v 0.77837 c 0,0.0239 -0.0194,0.0431 -0.0433,0.0431 h -0.38908 v 0.38929 c 0,0.0239 -0.0194,0.0431 -0.0433,0.0431 h -0.38908 v 1.25401 c 0,0.0238 0.0194,0.0431 0.0433,0.0431 h 0.34581 c 0.0239,0 0.0433,-0.0192 0.0433,-0.0431 v -0.34601 c 0,-0.0239 0.0194,-0.0433 0.0433,-0.0433 h 0.38908 v -0.82144 c 0,-0.0239 0.0194,-0.0433 0.0433,-0.0433 h 0.34581 c 0.0239,0 0.0433,-0.0192 0.0433,-0.0431 v -0.77837 c 0,-0.0239 0.0194,-0.0433 0.0433,-0.0433 h 0.3458 c 0.0239,0 0.0433,0.0194 0.0433,0.0433 v 0.77837 c 0,0.0239 0.0194,0.0431 0.0433,0.0431 h 0.34581 c 0.0239,0 0.0433,0.0194 0.0433,0.0433 v 0.38908 h 0.43236 v -0.38908 c 0,-0.0239 0.0194,-0.0433 0.0433,-0.0433 h 0.3458 c 0.0239,0 0.0433,0.0194 0.0433,0.0433 v 0.34601 c 0,0.0239 -0.0194,0.0431 -0.0433,0.0431 h -0.38908 v 0.43236 h 1.29709 v -0.43236 h -0.0433 -0.3458 c -0.0239,0 -0.0433,-0.0192 -0.0433,-0.0431 v -0.34601 c 0,-0.0239 0.0194,-0.0433 0.0433,-0.0433 h 0.3458 c 0.0239,0 0.0433,0.0194 0.0433,0.0433 v 0.38908 h 0.38909 c 0.0238,0 0.0433,-0.0192 0.0433,-0.0431 v -0.34601 c 0,-0.0239 0.0194,-0.0433 0.0433,-0.0433 h 0.3458 c 0.0239,0 0.0433,0.0194 0.0433,0.0433 v 0.34601 c 0,0.0239 0.0194,0.0431 0.0433,0.0431 h 0.34581 c 0.0238,0 0.0433,0.0194 0.0433,0.0433 v 0.34602 c 0,0.0239 -0.0194,0.0431 -0.0433,0.0431 h -0.34581 c -0.0239,0 -0.0433,0.0194 -0.0433,0.0433 v 0.34601 c 0,0.0238 -0.0194,0.0431 -0.0433,0.0431 h -0.38908 v 0.3893 c 0,0.0238 -0.0194,0.0431 -0.0433,0.0431 h -0.38909 v 0.38929 c 0,0.0239 -0.0194,0.0431 -0.0433,0.0431 h -0.77817 c -0.0239,0 -0.0433,0.0194 -0.0433,0.0433 v 0.34601 c 0,0.0239 0.0194,0.0431 0.0433,0.0431 h 0.34581 c 0.0239,0 0.0433,0.0194 0.0433,0.0433 v 0.34601 c 0,0.0239 -0.0194,0.0431 -0.0433,0.0431 h -0.34581 c -0.0239,0 -0.0433,0.0194 -0.0433,0.0433 v 0.34602 c 0,0.0239 0.0194,0.0431 0.0433,0.0431 h 0.34581 c 0.0239,0 0.0433,0.0194 0.0433,0.0433 v 0.38908 h 0.38908 c 0.0239,0 0.0433,0.0194 0.0433,0.0433 v 0.82144 h 0.43237 v -1.29707 h -0.0433 -0.34581 c -0.0239,0 -0.0433,-0.0192 -0.0433,-0.0431 v -0.34602 c 0,-0.0238 0.0194,-0.0433 0.0433,-0.0433 h 0.38909 v -0.82144 c 0,-0.0239 0.0194,-0.0433 0.0433,-0.0433 h 0.77817 c 0.0238,0 0.0433,0.0194 0.0433,0.0433 v 0.34601 c 0,0.0239 -0.0194,0.0431 -0.0433,0.0431 h -0.34581 c -0.0239,0 -0.0433,0.0194 -0.0433,0.0433 v 0.34601 c 0,0.0239 -0.0194,0.0431 -0.0433,0.0431 h -0.38908 v 0.43236 h 0.38908 c 0.0239,0 0.0433,0.0194 0.0433,0.0433 v 0.34602 c 0,0.0238 0.0194,0.0431 0.0433,0.0431 h 0.34581 c 0.0238,0 0.0433,0.0194 0.0433,0.0433 v 0.34602 c 0,0.0238 -0.0194,0.0431 -0.0433,0.0431 h -0.34581 c -0.0239,0 -0.0433,0.0194 -0.0433,0.0433 v 0.34601 c 0,0.0239 -0.0194,0.0431 -0.0433,0.0431 h -0.38908 v 0.43236 h 0.38908 c 0.0239,0 0.0433,0.0194 0.0433,0.0433 v 0.34601 c 0,0.0239 0.0194,0.0431 0.0433,0.0431 h 0.34581 c 0.0238,0 0.0433,0.0194 0.0433,0.0433 v 0.34602 c 0,0.0239 -0.0194,0.0431 -0.0433,0.0431 h -0.34581 c -0.0239,0 -0.0433,0.0194 -0.0433,0.0433 v 0.34601 c 0,0.0239 -0.0194,0.0431 -0.0433,0.0431 h -0.38908 v 0.3893 c 0,0.0238 -0.0194,0.0431 -0.0433,0.0431 h -0.77817 c -0.0239,0 -0.0433,0.0194 -0.0433,0.0433 v 0.34601 c 0,0.0239 0.0194,0.0431 0.0433,0.0431 h 0.77817 c 0.0238,0 0.0433,0.0194 0.0433,0.0433 v 0.38908 h 0.43236 v -0.82144 c 0,-0.0239 0.0194,-0.0433 0.0433,-0.0433 h 0.34581 c 0.0238,0 0.0433,0.0194 0.0433,0.0433 v 0.77837 c 0,0.0239 -0.0194,0.0431 -0.0433,0.0431 h -0.38909 v 0.38929 c 0,0.0238 -0.0194,0.0431 -0.0433,0.0431 h -0.38908 v 0.43235 h 0.38908 c 0.0239,0 0.0433,0.0194 0.0433,0.0433 v 0.34601 c 0,0.0239 -0.0194,0.0431 -0.0433,0.0431 h -0.3458 c -0.0239,0 -0.0433,-0.0192 -0.0433,-0.0431 v -0.38929 h -0.82145 c -0.0239,0 -0.0433,0.0194 -0.0433,0.0433 v 0.82144 h 1.25381 c 0.0239,0 0.0433,0.0194 0.0433,0.0433 v 0.34601 c 0,0.0239 -0.0194,0.0431 -0.0433,0.0431 h -0.3458 c -0.0239,0 -0.0433,0.0194 -0.0433,0.0433 v 0.38909 h 0.38908 c 0.0239,0 0.0433,0.0194 0.0433,0.0433 v 0.34601 c 0,0.0238 -0.0194,0.0431 -0.0433,0.0431 h -0.3458 c -0.0239,0 -0.0433,-0.0192 -0.0433,-0.0431 v -0.38929 h -0.38909 c -0.0239,0 -0.0433,0.0194 -0.0433,0.0433 v 0.34601 c 0,0.0238 -0.0194,0.0431 -0.0433,0.0431 h -0.3458 c -0.0239,0 -0.0433,-0.0192 -0.0433,-0.0431 v -1.25401 h -0.0433 -0.77817 c -0.0239,0 -0.0433,-0.0192 -0.0433,-0.0431 v -0.34602 c 0,-0.0239 -0.0194,-0.0433 -0.0433,-0.0433 h -0.3458 c -0.0239,0 -0.0433,0.0194 -0.0433,0.0433 v 0.34602 c 0,0.0238 -0.0194,0.0431 -0.0433,0.0431 h -0.34581 c -0.0239,0 -0.0433,-0.0192 -0.0433,-0.0431 v -0.34602 c 0,-0.0239 -0.0194,-0.0433 -0.0433,-0.0433 h -0.38908 v 0.82165 c 0,0.0239 -0.0194,0.0431 -0.0433,0.0431 h -0.82145 v 0.43236 h 1.25381 c 0.0239,0 0.0433,-0.0192 0.0433,-0.0431 v -0.34602 c 0,-0.0239 0.0194,-0.0433 0.0433,-0.0433 h 1.21053 c 0.0239,0 0.0433,0.0194 0.0433,0.0433 v 0.34602 c 0,0.0239 -0.0194,0.0431 -0.0433,0.0431 h -0.77816 c -0.0239,0 -0.0433,0.0194 -0.0433,0.0433 v 0.34601 c 0,0.0238 -0.0194,0.0431 -0.0433,0.0431 h -1.6429 c -0.0239,0 -0.0433,-0.0192 -0.0433,-0.0431 v -0.38929 h -0.0433 -0.82145 v 0.38929 c 0,0.0238 -0.0194,0.0431 -0.0433,0.0431 h -0.34581 c -0.0239,0 -0.0433,-0.0192 -0.0433,-0.0431 v -0.34601 c 0,-0.0239 0.0194,-0.0433 0.0433,-0.0433 h 0.38908 v -0.38909 c 0,-0.0239 0.0194,-0.0433 0.0433,-0.0433 h 0.82145 v -0.43236 h -1.68618 c -0.0239,0 -0.0433,0.0194 -0.0433,0.0433 v 0.34601 c 0,0.0239 -0.0194,0.0431 -0.0433,0.0431 h -0.34581 c -0.0239,0 -0.0433,0.0194 -0.0433,0.0433 v 0.38909 h 0.38909 c 0.0239,0 0.0433,0.0194 0.0433,0.0433 v 0.34601 c 0,0.0238 -0.0194,0.0431 -0.0433,0.0431 h -0.34581 c -0.0239,0 -0.0433,-0.0192 -0.0433,-0.0431 v -0.38929 h -0.0433 -0.821446 v 0.38929 c 0,0.0238 -0.0194,0.0431 -0.04328,0.0431 h -1.210536 c -0.02386,0 -0.04328,-0.0192 -0.04328,-0.0431 v -0.34601 c 0,-0.0239 0.0194,-0.0433 0.04328,-0.0433 h 1.253816 v -0.86472 h -0.432367 v 0.38929 c 0,0.0239 -0.0194,0.0431 -0.04328,0.0431 h -0.778173 c -0.02386,0 -0.04328,-0.0192 -0.04328,-0.0431 v -0.77837 c 0,-0.0239 -0.01941,-0.0433 -0.04328,-0.0433 h -0.389087 v 1.68637 c 0,0.0238 -0.01941,0.0431 -0.04328,0.0431 H 96.91019 c -0.0239,0 -0.04328,-0.0192 -0.04328,-0.0431 v -2.07545 c 0,-0.0239 0.01941,-0.0433 0.04328,-0.0433 h 0.82145 v -0.38908 c 0,-0.0238 0.0194,-0.0433 0.04328,-0.0433 h 0.345807 c 0.0239,0 0.04328,-0.0192 0.04328,-0.0431 v -0.34601 c 0,-0.0239 0.01941,-0.0433 0.04328,-0.0433 h 0.77817 c 0.02386,0 0.04328,0.0194 0.04328,0.0433 v 0.34601 c 0,0.0238 -0.01941,0.0431 -0.04328,0.0431 H 98.63965 c -0.02386,0 -0.04328,0.0194 -0.04328,0.0433 v 0.34602 c 0,0.0239 0.0194,0.0431 0.04328,0.0431 h 0.778173 c 0.02386,0 0.04328,-0.0192 0.04328,-0.0431 v -0.34602 c 0,-0.0238 0.01941,-0.0433 0.04328,-0.0433 h 0.345807 c 0.02386,0 0.04328,-0.0192 0.04328,-0.0431 v -0.34601 c 0,-0.0239 0.01941,-0.0433 0.04328,-0.0433 h 0.34581 c 0.0239,0 0.0433,-0.0192 0.0433,-0.0431 v -0.34601 c 0,-0.0239 0.0194,-0.0433 0.0433,-0.0433 h 0.38908 v -0.38908 c 0,-0.0239 0.0194,-0.0433 0.0433,-0.0433 h 0.34581 c 0.0239,0 0.0433,0.0194 0.0433,0.0433 v 0.38908 h 1.25381 c 0.0239,0 0.0433,0.0194 0.0433,0.0433 v 0.34601 c 0,0.0239 0.0194,0.0431 0.0433,0.0431 h 0.34581 c 0.0239,0 0.0433,0.0194 0.0433,0.0433 v 0.34601 c 0,0.0238 0.0194,0.0431 0.0433,0.0431 h 0.3458 c 0.0239,0 0.0433,-0.0192 0.0433,-0.0431 v -0.34601 c 0,-0.0239 0.0194,-0.0433 0.0433,-0.0433 h 0.34581 c 0.0239,0 0.0433,-0.0192 0.0433,-0.0431 v -0.77837 c 0,-0.0239 -0.0194,-0.0433 -0.0433,-0.0433 h -0.38909 v 0.38929 c 0,0.0239 -0.0194,0.0431 -0.0433,0.0431 h -0.3458 c -0.0239,0 -0.0433,-0.0192 -0.0433,-0.0431 v -0.38929 h -0.0433 -1.21053 c -0.0239,0 -0.0433,-0.0192 -0.0433,-0.0431 v -0.34602 c 0,-0.0239 0.0194,-0.0433 0.0433,-0.0433 h 0.34581 c 0.0238,0 0.0433,-0.0192 0.0433,-0.0431 v -0.34601 c 0,-0.0238 -0.0194,-0.0433 -0.0433,-0.0433 h -0.77818 c -0.0239,0 -0.0433,-0.0192 -0.0433,-0.0431 v -0.38929 h -0.0433 -0.38909 v 0.82164 c 0,0.0239 -0.0194,0.0431 -0.0433,0.0431 h -0.3458 c -0.0239,0 -0.0433,0.0194 -0.0433,0.0433 v 0.34602 c 0,0.0238 -0.0194,0.0431 -0.0433,0.0431 h -0.34581 c -0.02386,0 -0.04328,0.0194 -0.04328,0.0433 v 0.34601 c 0,0.0239 -0.0194,0.0431 -0.04328,0.0431 h -1.210536 c -0.02386,0 -0.04328,-0.0192 -0.04328,-0.0431 v -0.77837 c 0,-0.0239 0.0194,-0.0433 0.04328,-0.0433 h 0.389087 v -0.38908 c 0,-0.0238 -0.01941,-0.0433 -0.04328,-0.0433 h -0.345807 c -0.02386,0 -0.04328,-0.0192 -0.04328,-0.0431 v -0.38929 h -0.389087 c -0.02386,0 -0.04328,0.0194 -0.04328,0.0433 v 1.64309 c 0,0.0239 -0.01941,0.0431 -0.04328,0.0431 H 97.73168 v 0.38929 c 0,0.0239 -0.01941,0.0431 -0.04328,0.0431 h -0.345807 c -0.02386,0 -0.04328,0.0194 -0.04328,0.0433 v 0.34601 c 0,0.0238 -0.0194,0.0431 -0.04328,0.0431 h -0.345807 c -0.0239,0 -0.04328,-0.0192 -0.04328,-0.0431 v -0.82165 h -0.821449 c -0.0239,0 -0.04328,-0.0192 -0.04328,-0.0431 v -0.34601 c 0,-0.0239 0.0194,-0.0433 0.04328,-0.0433 h 0.345807 c 0.0239,0 0.04328,-0.0192 0.04328,-0.0431 v -0.3893 h -0.04328 -0.821449 v 0.3893 c 0,0.0238 -0.0194,0.0431 -0.04328,0.0431 h -0.389086 v 0.38929 c 0,0.0239 -0.0194,0.0431 -0.04328,0.0431 h -0.345807 c -0.02388,0 -0.04328,-0.0192 -0.04328,-0.0431 v -0.38929 h -0.04328 -0.345807 c -0.02388,0 -0.04328,-0.0192 -0.04328,-0.0431 v -0.77838 c 0,-0.0238 0.0194,-0.0433 0.04328,-0.0433 h 0.345807 c 0.02388,0 0.04328,-0.0192 0.04328,-0.0431 v -0.38929 h -0.04328 -0.345807 c -0.02388,0 -0.04328,-0.0192 -0.04328,-0.0431 v -0.34601 c 0,-0.0239 -0.0194,-0.0433 -0.04328,-0.0433 h -0.389086 v 2.11872 c 0,0.0239 -0.0194,0.0431 -0.04328,0.0431 h -0.345807 c -0.02388,0 -0.04328,-0.0192 -0.04328,-0.0431 v -2.07544 c 0,-0.0239 0.0194,-0.0433 0.04328,-0.0433 h 0.389085 V 117.6413 H 93.797107 93.4513 c -0.02388,0 -0.04328,-0.0192 -0.04328,-0.0431 v -1.21073 c 0,-0.0238 0.0194,-0.0433 0.04328,-0.0433 h 0.345807 c 0.02388,0 0.04328,-0.0192 0.04328,-0.0431 v -0.34602 c 0,-0.0238 -0.0194,-0.0433 -0.04328,-0.0433 H 93.4513 c -0.02388,0 -0.04328,-0.0192 -0.04328,-0.0431 v -1.21073 c 0,-0.0239 0.0194,-0.0433 0.04328,-0.0433 h 0.389085 v -0.82143 c 0,-0.0239 -0.0194,-0.0433 -0.04328,-0.0433 h -0.345807 c -0.02388,0 -0.04328,-0.0192 -0.04328,-0.0431 v -0.77837 c 0,-0.0239 0.0194,-0.0433 0.04328,-0.0433 h 2.075263 c 0.02388,0 0.04328,0.0194 0.04328,0.0433 v 0.38908 h 0.432366 v -0.38908 c 0,-0.0239 0.0194,-0.0433 0.04328,-0.0433 h 2.075266 c 0.0239,0 0.04328,0.0194 0.04328,0.0433 v 0.34601 c 0,0.0239 -0.01941,0.0431 -0.04328,0.0431 h -0.345807 c -0.0239,0 -0.04328,0.0194 -0.04328,0.0433 v 0.77838 c 0,0.0238 0.0194,0.0431 0.04328,0.0431 h 0.345807 c 0.0239,0 0.04328,-0.0192 0.04328,-0.0431 v -0.34601 c 0,-0.0239 0.01941,-0.0433 0.04328,-0.0433 h 1.253812 v -0.38909 c 0,-0.0239 -0.0194,-0.0433 -0.04328,-0.0433 h -0.778173 c -0.02386,0 -0.04328,-0.0192 -0.04328,-0.0431 v -1.21073 c 0,-0.0239 0.0194,-0.0433 0.04328,-0.0433 h 0.345807 c 0.02386,0 0.04328,0.0194 0.04328,0.0433 v 0.77837 c 0,0.0239 0.01941,0.0431 0.04328,0.0431 h 0.345806 c 0.02386,0 0.04328,-0.0192 0.04328,-0.0431 v -1.21073 c 0,-0.0239 0.01941,-0.0433 0.04328,-0.0433 h 0.778175 c 0.0239,0 0.0433,-0.0192 0.0433,-0.0431 v -0.34601 c 0,-0.0239 0.0194,-0.0433 0.0433,-0.0433 h 0.38908 v -0.43236 h -0.821452 c -0.02386,0 -0.04328,0.0194 -0.04328,0.0433 v 0.34602 c 0,0.0239 -0.0194,0.0431 -0.04328,0.0431 h -0.821449 v 0.38929 c 0,0.0238 -0.01941,0.0431 -0.04328,0.0431 h -0.345807 c -0.02386,0 -0.04328,-0.0192 -0.04328,-0.0431 v -0.38929 h -0.04328 -0.389087 v 1.254 c 0,0.0239 -0.01941,0.0431 -0.04328,0.0431 h -0.345807 c -0.0239,0 -0.04328,-0.0192 -0.04328,-0.0431 v -1.254 h -0.82145 c -0.0239,0 -0.04328,-0.0192 -0.04328,-0.0431 v -0.34602 c 0,-0.0239 0.01941,-0.0433 0.04328,-0.0433 h 0.345807 c 0.0239,0 0.04328,-0.0192 0.04328,-0.0431 v -0.34601 c 0,-0.0239 -0.0194,-0.0433 -0.04328,-0.0433 h -0.345807 c -0.0239,0 -0.04328,-0.0192 -0.04328,-0.0431 v -0.34601 c 0,-0.0239 0.01941,-0.0433 0.04328,-0.0433 h 0.345807 c 0.0239,0 0.04328,-0.0192 0.04328,-0.0431 v -0.34601 c 0,-0.0239 0.01941,-0.0433 0.04328,-0.0433 z m 0.389087,1.72944 h 0.432362 v -0.38909 c 0,-0.0239 -0.01941,-0.0433 -0.04328,-0.0433 h -0.345807 c -0.0239,0 -0.04328,0.0194 -0.04328,0.0433 z m 0.864729,0 h 0.432363 v -0.38909 c 0,-0.0239 0.01941,-0.0433 0.04328,-0.0433 h 0.345806 c 0.02386,0 0.04328,-0.0192 0.04328,-0.0431 v -0.82165 h -0.04328 -0.389086 v 0.38929 c 0,0.0239 -0.01941,0.0431 -0.04328,0.0431 h -0.345807 c -0.02386,0 -0.04328,0.0194 -0.04328,0.0433 z m 2.161817,-0.43236 h 0.43237 v -0.38908 c 0,-0.0239 -0.0194,-0.0433 -0.0433,-0.0433 h -0.34581 c -0.0239,0 -0.0433,0.0194 -0.0433,0.0433 z m 0.43237,0 v 0.38929 c 0,0.0239 -0.0194,0.0431 -0.0433,0.0431 h -0.38909 v 0.38929 c 0,0.0238 0.0194,0.0431 0.0433,0.0431 h 0.82145 v -0.38907 c 0,-0.0239 0.0194,-0.0433 0.0433,-0.0433 h 1.21053 c 0.0239,0 0.0433,-0.0192 0.0433,-0.0431 v -0.38929 h -0.38909 c -0.0239,0 -0.0433,-0.0192 -0.0433,-0.0431 v -0.34601 c 0,-0.0239 -0.0194,-0.0433 -0.0433,-0.0433 h -0.38909 v 0.38929 c 0,0.0239 -0.0194,0.0431 -0.0433,0.0431 z m 0.86472,-0.43236 v -0.38908 c 0,-0.0239 -0.0194,-0.0433 -0.0433,-0.0433 h -0.34581 c -0.0239,0 -0.0433,0.0194 -0.0433,0.0433 v 0.34601 c 0,0.0239 0.0194,0.0431 0.0433,0.0431 z m -0.43236,1.29707 v 0.82165 c 0,0.0239 -0.0194,0.0431 -0.0433,0.0431 h -0.34581 c -0.0239,0 -0.0433,-0.0192 -0.0433,-0.0431 v -0.34601 c 0,-0.0239 -0.0194,-0.0433 -0.0433,-0.0433 h -0.34581 c -0.0239,0 -0.0433,0.0194 -0.0433,0.0433 v 0.34601 c 0,0.0239 -0.0194,0.0431 -0.0433,0.0431 h -0.38908 v 0.38929 c 0,0.0239 -0.0194,0.0431 -0.0433,0.0431 h -0.345809 c -0.02386,0 -0.04328,0.0194 -0.04328,0.0433 v 0.82144 h 0.432369 v -0.38909 c 0,-0.0239 0.0194,-0.0433 0.0433,-0.0433 h 0.3458 c 0.0239,0 0.0433,-0.0192 0.0433,-0.0431 v -0.34601 c 0,-0.0239 0.0194,-0.0433 0.0433,-0.0433 h 0.77817 c 0.0239,0 0.0433,0.0194 0.0433,0.0433 v 0.34601 c 0,0.0239 0.0194,0.0431 0.0433,0.0431 h 0.34581 c 0.0238,0 0.0433,-0.0192 0.0433,-0.0431 v -0.34601 c 0,-0.0239 0.0194,-0.0433 0.0433,-0.0433 h 0.38909 v -0.43236 h -0.0433 -0.34581 c -0.0239,0 -0.0433,-0.0192 -0.0433,-0.0431 v -0.34601 c 0,-0.0239 0.0194,-0.0433 0.0433,-0.0433 h 0.38909 v -0.38908 c 0,-0.0239 -0.0194,-0.0433 -0.0433,-0.0433 z m 0.86473,0.43236 v 0.43236 h 0.43236 v -0.38908 c 0,-0.0239 -0.0194,-0.0433 -0.0433,-0.0433 z m -2.16182,1.72944 v 0.38929 c 0,0.0238 0.0194,0.0431 0.0433,0.0431 h 0.38908 v -0.38907 c 0,-0.0239 -0.0194,-0.0433 -0.0433,-0.0433 z m 0.43236,0.43235 v 0.43236 h 0.38909 c 0.0239,0 0.0433,0.0194 0.0433,0.0433 v 0.34601 c 0,0.0239 -0.0194,0.0431 -0.0433,0.0431 h -0.38909 v 1.29708 h 0.43237 v -0.38909 c 0,-0.0238 0.0194,-0.0433 0.0433,-0.0433 h 0.34581 c 0.0239,0 0.0433,0.0194 0.0433,0.0433 v 0.34602 c 0,0.0239 -0.0194,0.0431 -0.0433,0.0431 h -0.38908 v 0.38929 c 0,0.0238 -0.0194,0.0431 -0.0433,0.0431 h -0.34581 c -0.0239,0 -0.0433,-0.0192 -0.0433,-0.0431 v -0.38929 h -0.38908 c -0.0239,0 -0.0433,-0.0192 -0.0433,-0.0431 v -0.34602 c 0,-0.0238 -0.0194,-0.0433 -0.0433,-0.0433 h -0.345809 c -0.02386,0 -0.04328,0.0194 -0.04328,0.0433 v 0.77838 c 0,0.0238 -0.0194,0.0431 -0.04328,0.0431 h -1.210536 c -0.02386,0 -0.04328,-0.0192 -0.04328,-0.0431 v -0.77838 c 0,-0.0238 0.0194,-0.0433 0.04328,-0.0433 h 0.345807 c 0.02386,0 0.04328,0.0194 0.04328,0.0433 v 0.34602 c 0,0.0239 0.01941,0.0431 0.04328,0.0431 h 0.345806 c 0.02386,0 0.04328,-0.0192 0.04328,-0.0431 v -0.82165 h -0.04328 -0.778173 c -0.02386,0 -0.04328,-0.0192 -0.04328,-0.0431 v -0.38929 h -0.04328 -0.389087 v 1.68637 c 0,0.0238 -0.01941,0.0431 -0.04328,0.0431 h -0.778174 c -0.02386,0 -0.04328,-0.0192 -0.04328,-0.0431 v -0.38929 h -0.389087 c -0.0239,0 -0.04328,0.0194 -0.04328,0.0433 v 0.34602 c 0,0.0238 -0.0194,0.0431 -0.04327,0.0431 h -0.82145 v 0.43236 H 96.3913 c 0.0239,0 0.04328,0.0194 0.04328,0.0433 v 0.34601 c 0,0.0239 -0.01941,0.0431 -0.04328,0.0431 h -0.389083 v 0.38929 c 0,0.0239 0.0194,0.0431 0.04328,0.0431 h 1.210536 c 0.0239,0 0.04328,0.0194 0.04328,0.0433 v 0.34601 c 0,0.0239 -0.0194,0.0431 -0.04328,0.0431 h -1.210536 c -0.0239,0 -0.04328,0.0194 -0.04328,0.0433 v 0.34602 c 0,0.0239 0.0194,0.0431 0.04328,0.0431 h 0.345807 c 0.0239,0 0.04328,0.0194 0.04328,0.0433 v 0.38908 h 1.253812 c 0.0239,0 0.04328,-0.0192 0.04328,-0.0431 v -1.21072 c 0,-0.0239 0.0194,-0.0433 0.04328,-0.0433 h 0.345807 c 0.0239,0 0.04328,-0.0192 0.04328,-0.0431 v -0.34601 c 0,-0.0239 -0.01941,-0.0433 -0.04328,-0.0433 h -0.345807 c -0.0239,0 -0.04328,-0.0192 -0.04328,-0.0431 v -0.34601 c 0,-0.0239 0.0194,-0.0433 0.04328,-0.0433 h 1.642898 c 0.02386,0 0.04328,0.0194 0.04328,0.0433 v 0.34601 c 0,0.0239 -0.0194,0.0431 -0.04328,0.0431 h -0.778173 c -0.02386,0 -0.04328,0.0194 -0.04328,0.0433 v 0.82144 h 0.389083 c 0.02386,0 0.04328,-0.0192 0.04328,-0.0431 v -0.34601 c 0,-0.0239 0.01941,-0.0433 0.04328,-0.0433 h 0.778169 c 0.02386,0 0.04328,0.0194 0.04328,0.0433 v 0.34601 c 0,0.0239 -0.0194,0.0431 -0.04328,0.0431 h -0.345807 c -0.02386,0 -0.04328,0.0194 -0.04328,0.0433 v 0.34602 c 0,0.0239 0.01941,0.0431 0.04328,0.0431 h 0.778174 c 0.0239,0 0.0433,-0.0192 0.0433,-0.0431 v -0.34602 c 0,-0.0238 0.0194,-0.0433 0.0433,-0.0433 h 0.38908 v -0.43236 h -0.0433 -0.3458 c -0.0239,0 -0.0433,-0.0192 -0.0433,-0.0431 v -0.38929 h -0.0433 -0.345811 c -0.02386,0 -0.04328,-0.0192 -0.04328,-0.0431 v -0.34601 c 0,-0.0239 0.01941,-0.0433 0.04328,-0.0433 h 0.345811 c 0.0239,0 0.0433,0.0194 0.0433,0.0433 v 0.38908 h 0.43236 v -0.38908 c 0,-0.0239 0.0194,-0.0433 0.0433,-0.0433 h 0.82145 v -0.38908 c 0,-0.0239 0.0194,-0.0433 0.0433,-0.0433 h 0.34581 c 0.0238,0 0.0433,-0.0192 0.0433,-0.0431 v -0.77838 c 0,-0.0238 0.0194,-0.0433 0.0433,-0.0433 h 0.34581 c 0.0239,0 0.0433,-0.0192 0.0433,-0.0431 v -0.34601 c 0,-0.0239 0.0194,-0.0433 0.0433,-0.0433 h 0.82145 v -0.38908 c 0,-0.0239 -0.0194,-0.0433 -0.0433,-0.0433 h -0.3458 c -0.0239,0 -0.0433,-0.0192 -0.0433,-0.0431 v -0.34601 c 0,-0.0239 -0.0194,-0.0433 -0.0433,-0.0433 h -0.82145 v 0.82165 c 0,0.0239 -0.0194,0.0431 -0.0433,0.0431 h -0.34581 c -0.0239,0 -0.0433,-0.0192 -0.0433,-0.0431 v -0.77837 c 0,-0.0239 0.0194,-0.0433 0.0433,-0.0433 h 0.38908 v -0.82143 c 0,-0.0239 -0.0194,-0.0433 -0.0433,-0.0433 h -0.77818 c -0.0239,0 -0.0433,0.0194 -0.0433,0.0433 v 0.34601 c 0,0.0238 -0.0194,0.0431 -0.0433,0.0431 z m 2.59418,1.29708 v 0.38929 c 0,0.0239 0.0194,0.0431 0.0433,0.0431 h 0.38909 v -0.43236 h -0.0433 z m 0.43237,0 h 0.82145 c 0.0239,0 0.0433,-0.0192 0.0433,-0.0431 v -0.38929 h -0.82145 c -0.0239,0 -0.0433,0.0194 -0.0433,0.0433 z m 0.86473,-0.43236 h 0.38908 c 0.0239,0 0.0433,-0.0192 0.0433,-0.0431 v -0.38929 h -0.38908 c -0.0239,0 -0.0433,0.0194 -0.0433,0.0433 z m 0.43236,-0.43236 h 0.38908 c 0.0239,0 0.0433,-0.0192 0.0433,-0.0431 v -0.34602 c 0,-0.0239 -0.0194,-0.0433 -0.0433,-0.0433 h -0.38908 z m 0,-0.43236 v -0.43235 h -0.0433 -0.3458 c -0.0239,0 -0.0433,-0.0192 -0.0433,-0.0431 v -0.38929 h -0.82145 c -0.0239,0 -0.0433,0.0194 -0.0433,0.0433 v 0.38909 h 0.38908 c 0.0239,0 0.0433,0.0194 0.0433,0.0433 v 0.38907 z m -0.86473,0 h -0.0433 -0.3458 c -0.0239,0 -0.0433,-0.0192 -0.0433,-0.0431 v -0.38929 h -0.0433 -0.38909 v 0.82165 c 0,0.0238 0.0194,0.0431 0.0433,0.0431 h 0.77817 c 0.0239,0 0.0433,-0.0192 0.0433,-0.0431 z m -0.43236,1.72944 v 0.43236 h 0.38908 c 0.0239,0 0.0433,-0.0192 0.0433,-0.0431 v -0.34602 c 0,-0.0238 -0.0194,-0.0433 -0.0433,-0.0433 z m 0,0.43236 h -0.38909 c -0.0239,0 -0.0433,0.0194 -0.0433,0.0433 v 0.34602 c 0,0.0238 -0.0194,0.0431 -0.0433,0.0431 h -0.3458 c -0.0239,0 -0.0433,-0.0192 -0.0433,-0.0431 v -0.34602 c 0,-0.0238 -0.0194,-0.0433 -0.0433,-0.0433 h -0.34581 c -0.0239,0 -0.0433,0.0194 -0.0433,0.0433 v 0.77838 c 0,0.0238 -0.0194,0.0431 -0.0433,0.0431 h -0.82145 v 0.86472 h 0.38909 c 0.0238,0 0.0433,0.0194 0.0433,0.0433 v 0.34601 c 0,0.0239 0.0194,0.0431 0.0433,0.0431 h 0.82145 v -0.38908 c 0,-0.0239 -0.0194,-0.0433 -0.0433,-0.0433 h -0.34581 c -0.0239,0 -0.0433,-0.0192 -0.0433,-0.0431 v -0.34601 c 0,-0.0239 0.0194,-0.0433 0.0433,-0.0433 h 0.34581 c 0.0239,0 0.0433,-0.0192 0.0433,-0.0431 v -0.34601 c 0,-0.0239 0.0194,-0.0433 0.0433,-0.0433 h 0.3458 c 0.0239,0 0.0433,0.0194 0.0433,0.0433 v 0.77837 c 0,0.0239 0.0194,0.0431 0.0433,0.0431 h 0.34581 c 0.0239,0 0.0433,-0.0192 0.0433,-0.0431 v -0.34601 c 0,-0.0239 0.0194,-0.0433 0.0433,-0.0433 h 0.3458 c 0.0239,0 0.0433,-0.0192 0.0433,-0.0431 v -0.34601 c 0,-0.0239 0.0194,-0.0433 0.0433,-0.0433 h 0.34581 c 0.0239,0 0.0433,-0.0192 0.0433,-0.0431 v -0.3893 h -0.82145 c -0.0239,0 -0.0433,-0.0192 -0.0433,-0.0431 z m 0.86473,0.43235 h 0.43236 v -0.38908 c 0,-0.0238 -0.0194,-0.0433 -0.0433,-0.0433 h -0.3458 c -0.0239,0 -0.0433,0.0194 -0.0433,0.0433 z m 0.43236,0 v 0.82165 c 0,0.0239 -0.0194,0.0431 -0.0433,0.0431 h -0.3458 c -0.0239,0 -0.0433,0.0194 -0.0433,0.0433 v 0.34601 c 0,0.0239 -0.0194,0.0431 -0.0433,0.0431 h -0.34581 c -0.0239,0 -0.0433,0.0194 -0.0433,0.0433 v 0.34601 c 0,0.0239 -0.0194,0.0431 -0.0433,0.0431 h -0.3458 c -0.0239,0 -0.0433,0.0194 -0.0433,0.0433 v 0.38909 h 0.82145 c 0.0239,0 0.0433,-0.0192 0.0433,-0.0431 v -0.34602 c 0,-0.0238 0.0194,-0.0433 0.0433,-0.0433 h 0.3458 c 0.0239,0 0.0433,0.0194 0.0433,0.0433 v 0.34602 c 0,0.0239 0.0194,0.0431 0.0433,0.0431 h 0.3458 c 0.0239,0 0.0433,0.0194 0.0433,0.0433 v 0.34601 c 0,0.0239 0.0194,0.0431 0.0433,0.0431 h 0.34581 c 0.0239,0 0.0433,-0.0192 0.0433,-0.0431 v -0.82164 h -0.0433 -0.34581 c -0.0239,0 -0.0433,-0.0192 -0.0433,-0.0431 v -0.34601 c 0,-0.0239 0.0194,-0.0433 0.0433,-0.0433 h 0.34581 c 0.0239,0 0.0433,0.0194 0.0433,0.0433 v 0.38908 h 0.38908 c 0.0239,0 0.0433,0.0194 0.0433,0.0433 v 0.77837 c 0,0.0239 0.0194,0.0431 0.0433,0.0431 h 0.38909 v -1.29707 h -0.0433 -0.34581 c -0.0239,0 -0.0433,-0.0192 -0.0433,-0.0431 v -0.38929 h -0.0433 -0.3458 c -0.0239,0 -0.0433,-0.0192 -0.0433,-0.0431 v -0.82165 h -0.0433 z m -1.29709,2.1618 h -0.0433 -0.34581 c -0.0239,0 -0.0433,-0.0192 -0.0433,-0.0431 v -0.34602 c 0,-0.0238 -0.0194,-0.0433 -0.0433,-0.0433 h -0.38908 v 0.38929 c 0,0.0239 -0.0194,0.0431 -0.0433,0.0431 h -0.34581 c -0.0239,0 -0.0433,0.0194 -0.0433,0.0433 v 0.34601 c 0,0.0239 0.0194,0.0431 0.0433,0.0431 h 0.34581 c 0.0239,0 0.0433,0.0194 0.0433,0.0433 v 0.38908 h 0.43236 v -0.38908 c 0,-0.0239 0.0194,-0.0433 0.0433,-0.0433 h 0.34581 c 0.0239,0 0.0433,-0.0192 0.0433,-0.0431 z m -2.16182,-0.86472 h -0.0433 -0.38908 v 0.43236 h 0.38908 c 0.0239,0 0.0433,-0.0192 0.0433,-0.0431 z m -0.43236,0 v -0.38908 c 0,-0.0239 -0.0194,-0.0433 -0.0433,-0.0433 h -0.38909 v 0.43236 z m -5.188371,-0.43236 v -0.43236 h -0.04328 -0.82145 v 0.43236 z m -0.86473,0 h -0.04328 -0.389086 v 0.86472 h 0.389086 c 0.02388,0 0.04328,0.0194 0.04328,0.0433 v 0.82144 h 0.432364 v -1.25379 c 0,-0.0239 -0.0194,-0.0433 -0.04328,-0.0433 h -0.345807 c -0.02388,0 -0.04328,-0.0192 -0.04328,-0.0431 z m 0,1.72943 h -0.389085 c -0.02388,0 -0.04328,0.0194 -0.04328,0.0433 v 0.38908 h 0.432364 z m -0.432364,-1.72943 v -0.38908 c 0,-0.0239 0.0194,-0.0433 0.04328,-0.0433 h 0.389085 v -0.38908 c 0,-0.0239 0.0194,-0.0433 0.04328,-0.0433 h 0.821451 v -0.43235 H 95.18083 c -0.02388,0 -0.04328,-0.0192 -0.04328,-0.0431 v -0.34602 c 0,-0.0238 -0.0194,-0.0433 -0.04328,-0.0433 h -0.778171 c -0.02388,0 -0.04328,0.0194 -0.04328,0.0433 v 1.21074 c 0,0.0238 -0.0194,0.0431 -0.04328,0.0431 h -0.345807 c -0.02388,0 -0.04328,0.0194 -0.04328,0.0433 v 0.38908 z m 1.297094,-1.29707 h 0.389083 c 0.0239,0 0.04328,-0.0192 0.04328,-0.0431 v -0.38929 h -0.04328 -0.389083 z m 0,-0.43236 v -0.43236 h -0.389087 c -0.0239,0 -0.04328,0.0194 -0.04328,0.0433 v 0.34601 c 0,0.0239 0.0194,0.0431 0.04328,0.0431 z m 0,-0.43236 h 0.432363 v -0.43236 h -0.04328 -0.389083 z m 0,-0.43236 v -0.43236 h -0.04328 -0.389086 v 0.38929 c 0,0.0239 0.0194,0.0431 0.04328,0.0431 z m -0.432366,-0.43236 v -0.38908 c 0,-0.0239 0.0194,-0.0433 0.04328,-0.0433 h 0.389087 v -0.43235 H 95.959 95.613193 c -0.0239,0 -0.04328,-0.0192 -0.04328,-0.0431 v -0.38929 h -0.389085 c -0.02388,0 -0.04328,0.0194 -0.04328,0.0433 v 0.34602 c 0,0.0239 -0.0194,0.0431 -0.04328,0.0431 h -0.778171 c -0.02388,0 -0.04328,0.0194 -0.04328,0.0433 v 0.34601 c 0,0.0238 0.0194,0.0431 0.04328,0.0431 h 0.778171 c 0.02388,0 0.04328,0.0194 0.04328,0.0433 v 0.34602 c 0,0.0238 0.0194,0.0431 0.04328,0.0431 z m 0.432366,-0.86471 h 0.864725 v -0.38909 c 0,-0.0239 -0.0194,-0.0433 -0.04327,-0.0433 h -0.82145 z m 0.864725,0 v 0.43235 h 0.389087 c 0.0239,0 0.04328,-0.0192 0.04328,-0.0431 v -0.34601 c 0,-0.0239 -0.0194,-0.0433 -0.04328,-0.0433 z m 0,0.43235 h -0.04327 -0.82145 v 0.43236 h 0.389083 c 0.0239,0 0.04328,0.0194 0.04328,0.0433 v 0.38908 h 0.864729 v -0.38908 c 0,-0.0239 -0.0194,-0.0433 -0.04328,-0.0433 h -0.345807 c -0.0239,0 -0.04328,-0.0192 -0.04328,-0.0431 z m 0.432367,0.86472 v 1.29708 h 0.389083 c 0.0239,0 0.04328,-0.0192 0.04328,-0.0431 v -1.25401 z m 0.432363,0 h 0.432362 v -0.38908 c 0,-0.0239 -0.01941,-0.0433 -0.04328,-0.0433 h -0.345807 c -0.0239,0 -0.04328,0.0194 -0.04328,0.0433 z m -1.297092,0.43236 v 0.43236 h 0.389087 c 0.0239,0 0.04327,-0.0192 0.04327,-0.0431 v -0.34601 c 0,-0.0239 -0.0194,-0.0433 -0.04327,-0.0433 z m 2.161821,-0.43236 h 0.389083 c 0.02386,0 0.04328,-0.0192 0.04328,-0.0431 v -0.34601 c 0,-0.0239 0.01941,-0.0433 0.04328,-0.0433 h 0.345806 c 0.02386,0 0.04328,0.0194 0.04328,0.0433 v 0.82144 h 0.821448 c 0.0239,0 0.0433,-0.0192 0.0433,-0.0431 v -0.38929 h -0.0433 -0.345805 c -0.02386,0 -0.04328,-0.0192 -0.04328,-0.0431 v -1.254 h -0.04328 -0.389087 v 0.38929 c 0,0.0238 -0.0194,0.0431 -0.04328,0.0431 h -0.778173 c -0.02386,0 -0.04328,0.0194 -0.04328,0.0433 z m 1.729457,0 h 0.43236 v -0.43236 h -0.38908 c -0.0239,0 -0.0433,0.0194 -0.0433,0.0433 z m 0,-2.59415 v -0.38908 c 0,-0.0239 -0.0194,-0.0433 -0.0433,-0.0433 h -0.345809 c -0.02386,0 -0.04328,0.0194 -0.04328,0.0433 v 0.34601 c 0,0.0239 0.01941,0.0431 0.04328,0.0431 z m -6.485463,2.16179 v 0.38929 c 0,0.0239 0.0194,0.0431 0.04328,0.0431 h 0.778171 c 0.02388,0 0.04328,-0.0192 0.04328,-0.0431 v -0.34601 c 0,-0.0239 -0.0194,-0.0433 -0.04328,-0.0433 z m 3.026547,5.62066 h 0.86473 v -0.38908 c 0,-0.0239 -0.01941,-0.0433 -0.04328,-0.0433 h -0.77817 c -0.0239,0 -0.04328,0.0194 -0.04328,0.0433 z m 2.161822,-0.86472 v 0.3893 c 0,0.0238 0.01941,0.0431 0.04328,0.0431 h 0.345806 c 0.02386,0 0.04328,-0.0192 0.04328,-0.0431 v -0.34602 c 0,-0.0239 -0.0194,-0.0433 -0.04328,-0.0433 z m 2.161824,0.86472 h -0.0433 -0.38909 v 0.82165 c 0,0.0238 -0.0194,0.0431 -0.0433,0.0431 h -0.3458 c -0.0239,0 -0.0433,0.0194 -0.0433,0.0433 v 0.82144 h 0.38908 c 0.0239,0 0.0433,-0.0192 0.0433,-0.0431 v -0.34601 c 0,-0.0239 0.0194,-0.0433 0.0433,-0.0433 h 1.21054 c 0.0238,0 0.0433,0.0194 0.0433,0.0433 v 0.34601 c 0,0.0239 0.0194,0.0431 0.0433,0.0431 h 0.82145 v -0.38908 c 0,-0.0239 -0.0194,-0.0433 -0.0433,-0.0433 h -0.34581 c -0.0239,0 -0.0433,-0.0192 -0.0433,-0.0431 v -0.34602 c 0,-0.0238 -0.0194,-0.0433 -0.0433,-0.0433 h -0.34581 c -0.0239,0 -0.0433,-0.0192 -0.0433,-0.0431 v -0.34601 c 0,-0.0239 -0.0194,-0.0433 -0.0433,-0.0433 h -0.77818 c -0.0239,0 -0.0433,-0.0192 -0.0433,-0.0431 z m 1.72945,1.72943 v 0.43236 h 0.38908 c 0.0239,0 0.0433,-0.0192 0.0433,-0.0431 v -0.3893 z m 0.43236,0 h 0.43237 v -0.38908 c 0,-0.0239 -0.0194,-0.0433 -0.0433,-0.0433 h -0.34581 c -0.0239,0 -0.0433,0.0194 -0.0433,0.0433 z m -3.02654,0 h -0.389089 c -0.02386,0 -0.04328,0.0194 -0.04328,0.0433 v 0.38908 h 0.389089 c 0.0239,0 0.0433,-0.0192 0.0433,-0.0431 z m -2.594186,-0.43236 v 0.43236 h 0.432362 v -0.38908 c 0,-0.0239 -0.01941,-0.0433 -0.04328,-0.0433 z m 0,0.43236 h -0.389087 c -0.02386,0 -0.04328,0.0194 -0.04328,0.0433 v 1.21073 c 0,0.0239 0.01941,0.0431 0.04328,0.0431 h 0.345807 c 0.0239,0 0.04328,-0.0192 0.04328,-0.0431 z m 1.729454,0.43236 v -0.38908 c 0,-0.0239 -0.0194,-0.0433 -0.04328,-0.0433 h -0.345806 c -0.02386,0 -0.04328,0.0194 -0.04328,0.0433 v 0.34602 c 0,0.0238 0.01941,0.0431 0.04328,0.0431 z m 7.350192,-1.29707 v -0.43236 h -0.38909 c -0.0239,0 -0.0433,0.0194 -0.0433,0.0433 v 0.34601 c 0,0.0238 0.0194,0.0431 0.0433,0.0431 z m -0.43237,-6.48538 v -0.43236 h -0.38908 c -0.0239,0 -0.0433,0.0194 -0.0433,0.0433 v 0.34602 c 0,0.0238 0.0194,0.0431 0.0433,0.0431 z m 0,-0.43236 h 0.43237 v -0.38907 c 0,-0.0239 -0.0194,-0.0433 -0.0433,-0.0433 h -0.38909 z m -2.59418,-3.0265 v -0.43236 h -0.0433 -0.38909 v 0.38929 c 0,0.0239 0.0194,0.0431 0.0433,0.0431 z m -0.38909,-1.72944 h 0.34581 c 0.0239,0 0.0433,0.0194 0.0433,0.0433 v 0.34601 c 0,0.0239 -0.0194,0.0431 -0.0433,0.0431 h -0.34581 c -0.0239,0 -0.0433,-0.0192 -0.0433,-0.0431 v -0.34601 c 0,-0.0239 0.0194,-0.0433 0.0433,-0.0433 z m 1.2971,0 h 2.93999 c 0.0238,0 0.0433,0.0194 0.0433,0.0433 v 2.94016 c 0,0.0239 -0.0194,0.0431 -0.0433,0.0431 h -2.93999 c -0.0239,0 -0.0433,-0.0192 -0.0433,-0.0431 v -2.94016 c 0,-0.0239 0.0194,-0.0433 0.0433,-0.0433 z m -10.809104,0.43236 c -0.02388,0 -0.04328,0.0194 -0.04328,0.0433 v 2.07545 c 0,0.0239 0.0194,0.0431 0.04328,0.0431 h 2.075263 c 0.0239,0 0.04328,-0.0192 0.04328,-0.0431 v -2.07545 c 0,-0.0239 -0.01941,-0.0433 -0.04328,-0.0433 z m 11.241464,0 c -0.0239,0 -0.0433,0.0194 -0.0433,0.0433 v 2.07545 c 0,0.0239 0.0194,0.0431 0.0433,0.0431 h 2.07526 c 0.0239,0 0.0433,-0.0192 0.0433,-0.0431 v -2.07545 c 0,-0.0239 -0.0194,-0.0433 -0.0433,-0.0433 z m -10.8091,0.43236 h 1.210535 c 0.02388,0 0.04328,0.0194 0.04328,0.0433 v 1.21073 c 0,0.0238 -0.0194,0.0431 -0.04328,0.0431 H 94.3161 c -0.02388,0 -0.04328,-0.0192 -0.04328,-0.0431 v -1.21073 c 0,-0.0239 0.0194,-0.0433 0.04328,-0.0433 z m 11.24146,0 h 1.21054 c 0.0238,0 0.0433,0.0194 0.0433,0.0433 v 1.21073 c 0,0.0238 -0.0194,0.0431 -0.0433,0.0431 h -1.21054 c -0.0239,0 -0.0433,-0.0192 -0.0433,-0.0431 v -1.21073 c 0,-0.0239 0.0194,-0.0433 0.0433,-0.0433 z m -8.647276,1.29707 h 0.345807 c 0.0239,0 0.04328,0.0194 0.04328,0.0433 v 0.77837 c 0,0.0239 -0.0194,0.0431 -0.04328,0.0431 h -0.345807 c -0.0239,0 -0.04328,-0.0192 -0.04328,-0.0431 v -0.77837 c 0,-0.0239 0.01941,-0.0433 0.04328,-0.0433 z m 7.350186,8.64717 c -0.0239,0 -0.0433,0.0194 -0.0433,0.0433 v 1.21073 c 0,0.0239 0.0194,0.0431 0.0433,0.0431 h 1.21053 c 0.0239,0 0.0433,-0.0192 0.0433,-0.0431 v -1.21073 c 0,-0.0239 -0.0194,-0.0433 -0.0433,-0.0433 z m -10.809098,0.43236 h 2.93999 c 0.0239,0 0.04328,0.0194 0.04328,0.0433 v 2.94016 c 0,0.0238 -0.01941,0.0431 -0.04328,0.0431 h -2.93999 c -0.02388,0 -0.04328,-0.0192 -0.04328,-0.0431 v -2.94016 c 0,-0.0239 0.0194,-0.0433 0.04328,-0.0433 z m 11.241468,0 h 0.3458 c 0.0239,0 0.0433,0.0194 0.0433,0.0433 v 0.34601 c 0,0.0238 -0.0194,0.0431 -0.0433,0.0431 h -0.3458 c -0.0239,0 -0.0433,-0.0192 -0.0433,-0.0431 v -0.34601 c 0,-0.0239 0.0194,-0.0433 0.0433,-0.0433 z m -10.809104,0.43236 c -0.02388,0 -0.04328,0.0194 -0.04328,0.0433 v 2.07545 c 0,0.0239 0.0194,0.0431 0.04328,0.0431 h 2.075263 c 0.0239,0 0.04328,-0.0192 0.04328,-0.0431 v -2.07545 c 0,-0.0238 -0.01941,-0.0433 -0.04328,-0.0433 z m 0.432364,0.43235 h 1.210535 c 0.02388,0 0.04328,0.0194 0.04328,0.0433 v 1.21073 c 0,0.0239 -0.0194,0.0431 -0.04328,0.0431 H 94.3161 c -0.02388,0 -0.04328,-0.0192 -0.04328,-0.0431 v -1.21073 c 0,-0.0239 0.0194,-0.0433 0.04328,-0.0433 z" />
  </g>
</svg>
