<?xml version="1.0" encoding="UTF-8" standalone="no"?>
<svg
   xmlns:dc="http://purl.org/dc/elements/1.1/"
   xmlns:cc="http://creativecommons.org/ns#"
   xmlns:rdf="http://www.w3.org/1999/02/22-rdf-syntax-ns#"
   xmlns:svg="http://www.w3.org/2000/svg"
   xmlns="http://www.w3.org/2000/svg"
   xmlns:sodipodi="http://sodipodi.sourceforge.net/DTD/sodipodi-0.dtd"
   xmlns:inkscape="http://www.inkscape.org/namespaces/inkscape"
   width="11mm"
   height="11mm"
   viewBox="0 0 11 11"
   version="1.1"
   id="svg967"
   inkscape:version="1.0.1 (3bc2e813f5, 2020-09-07)"
   sodipodi:docname="qr-code-documentation.svg">
  <defs
     id="defs961" />
  <sodipodi:namedview
     id="base"
     pagecolor="#ffffff"
     bordercolor="#666666"
     borderopacity="1.0"
     inkscape:pageopacity="0"
     inkscape:pageshadow="2"
     inkscape:zoom="5.6"
     inkscape:cx="12.286914"
     inkscape:cy="31.284384"
     inkscape:document-units="mm"
     inkscape:current-layer="layer1"
     inkscape:document-rotation="0"
     showgrid="false"
     inkscape:pagecheckerboard="true"
     inkscape:window-width="1624"
     inkscape:window-height="1228"
     inkscape:window-x="152"
     inkscape:window-y="152"
     inkscape:window-maximized="0" />
  <metadata
     id="metadata964">
    <rdf:RDF>
      <cc:Work
         rdf:about="">
        <dc:format>image/svg+xml</dc:format>
        <dc:type
           rdf:resource="http://purl.org/dc/dcmitype/StillImage" />
        <dc:title />
      </cc:Work>
    </rdf:RDF>
  </metadata>
  <g
     inkscape:label="Layer 1"
     inkscape:groupmode="layer"
     id="layer1">
    <path
       d="m 10.63318,10.999512 h -0.266663 c -0.01845,0 -0.03329,-0.01493 -0.03329,-0.03329 v -0.266651 c 0,-0.01845 0.01494,-0.03329 0.03329,-0.03329 h 0.266663 c 0.01845,0 0.03329,0.01493 0.03329,0.03329 v 0.266651 c 0,0.01845 -0.01493,0.03329 -0.03329,0.03329 z m -0.6666533,0 H 9.3665266 c -0.01845,0 -0.033288,-0.01493 -0.033288,-0.03329 V 10.66624 h 0.6333268 c 0.01845,0 0.033385,0.01493 0.033385,0.03329 v 0.26666 c 0,0.01845 -0.014935,0.03338 -0.033385,0.03338 z m -0.9999903,0 H 8.0332099 c -0.01845,0 -0.033385,-0.01493 -0.033385,-0.03329 v -0.266651 c 0,-0.01845 -0.014935,-0.03329 -0.033288,-0.03329 H 7.3665372 c -0.01845,0 -0.033288,0.01493 -0.033288,0.03329 v 0.266651 c 0,0.01845 -0.014936,0.03329 -0.033288,0.03329 h -0.266663 c -0.01845,0 -0.033288,-0.01493 -0.033288,-0.03329 v -0.266651 c 0,-0.01845 -0.014936,-0.03329 -0.033288,-0.03329 h -0.266663 c -0.01845,0 -0.033288,0.01493 -0.033288,0.03329 v 0.266651 c 0,0.01845 -0.014936,0.03329 -0.033288,0.03329 h -0.266663 c -0.01845,0 -0.033288,-0.01493 -0.033288,-0.03329 V 10.33293 h 0.6333269 c 0.01845,0 0.033288,-0.01493 0.033288,-0.03329 V 9.6996831 c 0,-0.018351 -0.014936,-0.033286 -0.033288,-0.033286 H 6.3335324 V 9.3664116 c 0,-0.018449 -0.014936,-0.033286 -0.033288,-0.033286 H 6.0335812 c -0.01845,0 -0.033288,0.014935 -0.033288,0.033286 V 9.633062 c 0,0.018449 0.014936,0.033384 0.033288,0.033384 h 0.3 v 0.66662 H 6.0002446 v -0.299975 c 0,-0.01845 -0.014936,-0.033384 -0.033288,-0.033384 h -0.6 c -0.01845,0 -0.033288,-0.014935 -0.033288,-0.033384 V 9.3663628 c 0,-0.018449 0.014936,-0.033286 0.033288,-0.033286 H 5.63362 c 0.01845,0 0.033288,-0.014935 0.033288,-0.033286 V 9.03314 c 0,-0.018449 -0.014936,-0.033384 -0.033288,-0.033384 H 5.3669568 c -0.01845,0 -0.033288,-0.014935 -0.033288,-0.033286 V 8.3664997 c 0,-0.018449 -0.014936,-0.033384 -0.033288,-0.033384 h -0.266663 c -0.01845,0 -0.033288,-0.014935 -0.033288,-0.033286 V 7.6998591 c 0,-0.018351 0.014936,-0.033286 0.033288,-0.033286 h 0.2666634 c 0.01845,0 0.033288,-0.014935 0.033288,-0.033384 V 5.3666557 c 0,-0.018449 0.014936,-0.033286 0.033288,-0.033286 h 0.2666634 c 0.01845,0 0.033288,-0.014935 0.033288,-0.033384 V 5.0333354 c 0,-0.018449 -0.014936,-0.033384 -0.033288,-0.033384 H 5.3669568 c -0.01845,0 -0.033288,-0.014935 -0.033288,-0.033286 V 4.7000151 c 0,-0.018449 0.014936,-0.033286 0.033288,-0.033286 h 0.9666635 v 0.2999756 c 0,0.018449 0.014935,0.033286 0.033288,0.033286 H 7.300235 c 0.01845,0 0.033288,0.014935 0.033288,0.033384 v 0.2666505 c 0,0.018449 0.014936,0.033286 0.033288,0.033286 h 0.266663 c 0.01845,0 0.033288,0.014935 0.033288,0.033384 v 0.2666504 c 0,0.018449 0.014936,0.033384 0.033288,0.033384 h 0.2666727 c 0.01845,0 0.033288,-0.014935 0.033288,-0.033384 V 5.3666948 c 0,-0.018449 0.014936,-0.033384 0.033385,-0.033384 h 0.29999 V 5.999942 H 7.700069 c -0.01845,0 -0.033385,0.014935 -0.033385,0.033384 v 0.2666504 c 0,0.018449 -0.014935,0.033286 -0.033288,0.033286 H 7.3334056 v -0.633296 c 0,-0.018449 -0.014936,-0.033286 -0.033288,-0.033286 H 7.0334544 c -0.01845,0 -0.033288,-0.014935 -0.033288,-0.033384 V 5.366646 c 0,-0.018449 -0.014936,-0.033384 -0.033288,-0.033384 h -0.266663 c -0.01845,0 -0.033288,0.014935 -0.033288,0.033384 v 0.2666504 c 0,0.018449 -0.014936,0.033384 -0.033288,0.033384 H 6.3336496 V 5.3666948 c 0,-0.018449 -0.014936,-0.033384 -0.033288,-0.033384 H 6.0336983 c -0.01845,0 -0.033288,0.014935 -0.033288,0.033384 v 0.2999854 h -0.29999 c -0.01845,0 -0.033288,0.014935 -0.033288,0.033286 V 6.299937 c 0,0.018449 0.014936,0.033286 0.033288,0.033286 h 0.2999903 v 0.2999853 c 0,0.018449 -0.014936,0.033384 -0.033288,0.033384 H 5.7004593 c -0.01845,0 -0.033288,0.014935 -0.033288,0.033286 v 1.2665918 c 0,0.018449 0.014935,0.033286 0.033288,0.033286 h 0.2666635 c 0.01845,0 0.033288,0.014935 0.033288,0.033384 v 0.9332712 c 0,0.018449 0.014935,0.033384 0.033288,0.033384 h 1.2999904 v 0.2999854 c 0,0.018351 0.014936,0.033286 0.033288,0.033286 h 0.2666634 c 0.01845,0 0.033288,0.014935 0.033288,0.033384 V 9.633101 c 0,0.018449 0.014936,0.033286 0.033288,0.033286 h 0.2666727 c 0.01845,0 0.033288,-0.014935 0.033288,-0.033286 V 8.6998201 c 0,-0.018351 -0.014936,-0.033286 -0.033288,-0.033286 H 7.6668886 V 7.999903 h 0.2999996 c 0.01845,0 0.033288,-0.014935 0.033288,-0.033286 V 7.6999567 c 0,-0.018351 0.014935,-0.033286 0.033385,-0.033286 h 0.5999903 c 0.01845,0 0.033385,0.014935 0.033385,0.033286 v 0.2666504 c 0,0.018449 0.014935,0.033286 0.033288,0.033286 h 0.266663 c 0.01845,0 0.033288,-0.014935 0.033288,-0.033286 V 7.3333112 h 0.3 c 0.01845,0 0.033385,0.014935 0.033385,0.033384 v 0.2666504 c 0,0.018449 0.014936,0.033384 0.033288,0.033384 h 0.2666634 c 0.01845,0 0.033288,-0.014935 0.033288,-0.033384 V 7.366695 c 0,-0.018449 0.014936,-0.033384 0.033288,-0.033384 h 0.3000001 v 0.6333056 c 0,0.018351 -0.014936,0.033286 -0.033288,0.033286 H 9.7001464 c -0.01845,0 -0.033288,0.014935 -0.033288,0.033384 v 1.5999021 c 0,0.018449 0.014935,0.033384 0.033288,0.033384 h 0.5999906 c 0.01845,0 0.03329,-0.014935 0.03329,-0.033384 V 9.3665385 c 0,-0.018449 0.01494,-0.033286 0.03329,-0.033286 h 0.266664 c 0.01845,0 0.03329,0.014935 0.03329,0.033286 v 0.2666504 c 0,0.018449 0.01494,0.033384 0.03329,0.033384 h 0.266664 c 0.01845,0 0.03339,0.014935 0.03339,0.033286 v 0.5999701 c 0,0.01845 -0.01494,0.03338 -0.03339,0.03338 h -0.599991 c -0.01845,0 -0.03329,-0.01494 -0.03329,-0.03338 v -0.26665 c 0,-0.01845 -0.01494,-0.033384 -0.03339,-0.033384 h -0.266663 c -0.01845,0 -0.03329,0.014935 -0.03329,0.033384 v 0.26665 c 0,0.01845 -0.014936,0.03338 -0.033385,0.03338 H 9.3666145 c -0.01845,0 -0.033288,0.01493 -0.033288,0.03338 v 0.299975 H 8.9999901 v -0.633296 c 0,-0.01845 -0.014936,-0.033384 -0.033288,-0.033384 H 8.7000394 c -0.01845,0 -0.033288,-0.014935 -0.033288,-0.033384 V 9.6998588 c 0,-0.018351 -0.014936,-0.033286 -0.033385,-0.033286 H 8.3667027 c -0.01845,0 -0.033288,0.014935 -0.033288,0.033286 v 0.2666597 c 0,0.018449 -0.014936,0.033286 -0.033288,0.033286 h -0.266663 c -0.01845,0 -0.033385,0.014935 -0.033385,0.033385 v 0.26665 c 0,0.01845 0.014935,0.03338 0.033385,0.03338 h 0.2666635 c 0.01845,0 0.033288,0.01493 0.033288,0.03338 v 0.266651 c 0,0.01845 0.014935,0.03338 0.033288,0.03338 h 0.6333264 v 0.299975 c 0,0.01845 -0.014935,0.03338 -0.033288,0.03338 z m -3.3333067,0 H 5.3665663 c -0.01845,0 -0.033288,-0.01493 -0.033288,-0.03329 V 10.66624 h 0.3333269 v 0.299986 c 0,0.01845 -0.014936,0.03329 -0.033288,0.03329 z m -0.6666537,0 H 3.6999222 c -0.01845,0 -0.033385,-0.01493 -0.033385,-0.03329 v -0.266651 c 0,-0.01845 -0.014936,-0.03329 -0.033288,-0.03329 H 3.0332588 c -0.01845,0 -0.033385,0.01493 -0.033385,0.03329 v 0.266651 c 0,0.01845 -0.014936,0.03329 -0.033288,0.03329 H 2.6999222 c -0.01845,0 -0.033288,-0.01493 -0.033288,-0.03329 v -0.599961 c 0,-0.01845 0.014935,-0.03338 0.033288,-0.03338 h 0.5999903 c 0.01845,0 0.033288,-0.01494 0.033288,-0.03329 V 9.9996094 h 0.3333269 v 0.2999856 c 0,0.01845 0.014936,0.03329 0.033385,0.03329 h 0.2666634 c 0.01845,0 0.033288,-0.01494 0.033288,-0.03329 V 9.9996094 h 0.3 c 0.01845,0 0.033385,-0.014935 0.033385,-0.033384 V 9.6662603 h 0.2999903 c 0.01845,0 0.033385,0.014935 0.033385,0.033286 v 0.2666596 c 0,0.018449 0.014936,0.033286 0.033288,0.033286 H 4.966576 c 0.01845,0 0.033288,0.014935 0.033288,0.033384 v 0.299976 H 4.3665369 c -0.01845,0 -0.033288,0.01493 -0.033288,0.03338 v 0.266651 c 0,0.01845 0.014936,0.03329 0.033288,0.03329 h 0.6333269 v 0.299985 c 0,0.01845 -0.014936,0.03338 -0.033288,0.03338 z m -2.6666441,0 H 0.03328778 C 0.01483796,10.999512 0,10.984577 0,10.966226 V 8.6996834 C 0,8.6813321 0.01493557,8.6663973 0.03328778,8.6663973 H 2.2999319 c 0.01845,0 0.033288,0.014935 0.033288,0.033286 v 2.2665427 c 0,0.01845 -0.014936,0.03338 -0.033288,0.03338 z m 3.6666344,-0.333311 h -0.3 v -0.299985 c 0,-0.01845 0.014936,-0.03338 0.033288,-0.03338 h 0.2999903 v 0.299986 c 0,0.01845 -0.014936,0.03338 -0.033288,0.03338 z m -0.6666634,0 H 4.9999028 v -0.33332 h 0.3000001 c 0.01845,0 0.033288,0.01493 0.033288,0.03338 v 0.299985 z m -3.299971,-0.03338 V 9.0329155 c 0,-0.018449 -0.014936,-0.033384 -0.033288,-0.033384 H 0.36665371 c -0.0184498,0 -0.0332878,0.014935 -0.0332878,0.033384 v 1.5999025 c 0,0.01845 0.0149356,0.03338 0.0332878,0.03338 H 1.9666441 c 0.01845,0 0.033288,-0.01493 0.033288,-0.03338 z M 1.6332684,10.332832 H 0.69995129 c -0.0184498,0 -0.0332878,-0.01493 -0.0332878,-0.03329 V 9.3662749 c 0,-0.018449 0.0149356,-0.033286 0.0332878,-0.033286 H 1.6332684 c 0.01845,0 0.033288,0.014935 0.033288,0.033286 v 0.9332811 c 0,0.01845 -0.014936,0.03338 -0.033288,0.03338 z M 3.9665857,9.9995216 h -0.3 V 9.3328911 h 0.3 c 0.01845,0 0.033288,-0.014935 0.033288,-0.033286 V 9.0329546 c 0,-0.018449 -0.014936,-0.033384 -0.033288,-0.033384 H 3.6999222 c -0.01845,0 -0.033385,0.014935 -0.033385,0.033384 V 9.3329302 H 3.33321 V 9.0329546 c 0,-0.018449 -0.014936,-0.033384 -0.033288,-0.033384 H 2.6999319 c -0.01845,0 -0.033288,-0.014935 -0.033288,-0.033286 V 7.9996687 H 2.966644 c 0.01845,0 0.033288,-0.014935 0.033288,-0.033286 V 7.6997225 c 0,-0.018351 0.014936,-0.033286 0.033385,-0.033286 H 3.3333174 V 8.3330574 H 3.0333173 c -0.01845,0 -0.033385,0.014935 -0.033385,0.033384 v 0.2666504 c 0,0.018449 0.014936,0.033286 0.033385,0.033286 h 0.2666635 c 0.01845,0 0.033288,-0.014935 0.033288,-0.033286 V 8.3331062 h 0.3333268 v 0.2999854 c 0,0.018449 0.014936,0.033286 0.033385,0.033286 h 0.2666635 c 0.01845,0 0.033288,-0.014935 0.033288,-0.033286 V 8.3664412 c 0,-0.018449 -0.014935,-0.033384 -0.033288,-0.033384 H 3.6666442 V 8.0330818 c 0,-0.018449 0.014936,-0.033384 0.033385,-0.033384 h 0.5999903 c 0.01845,0 0.033385,-0.014935 0.033385,-0.033286 V 7.6664266 h 0.2999903 c 0.01845,0 0.033385,0.014935 0.033385,0.033286 v 0.5999707 c 0,0.018449 -0.014936,0.033286 -0.033385,0.033286 H 4.3667322 c -0.01845,0 -0.033288,0.014935 -0.033288,0.033384 v 0.5999606 c 0,0.018449 0.014935,0.033384 0.033288,0.033384 h 0.6 c 0.01845,0 0.033288,0.014935 0.033288,0.033384 v 0.2666504 c 0,0.018351 -0.014936,0.033286 -0.033288,0.033286 h -0.6 c -0.01845,0 -0.033288,0.014935 -0.033288,0.033384 V 9.6663872 H 4.0334443 c -0.01845,0 -0.033288,0.014935 -0.033288,0.033286 V 9.999658 Z m -0.6666635,0 H 2.6999319 c -0.01845,0 -0.033288,-0.014935 -0.033288,-0.033384 V 9.6994879 c 0,-0.018351 0.014936,-0.033286 0.033288,-0.033286 h 0.2666635 c 0.01845,0 0.033288,-0.014935 0.033288,-0.033384 V 9.3661675 c 0,-0.018449 0.014936,-0.033286 0.033385,-0.033286 H 3.3332686 V 9.9995021 Z M 9.3331998,9.2995659 V 8.366285 c 0,-0.018449 -0.014936,-0.033384 -0.033385,-0.033384 H 8.366488 c -0.01845,0 -0.033288,0.014935 -0.033288,0.033384 v 0.9332809 c 0,0.018449 0.014936,0.033286 0.033288,0.033286 h 0.9333264 c 0.01845,0 0.033385,-0.014935 0.033385,-0.033286 z M 10.63318,8.9995806 h -0.59999 c -0.01845,0 -0.033288,-0.014935 -0.033288,-0.033286 V 8.366324 c 0,-0.018449 0.014936,-0.033384 0.033288,-0.033384 h 0.266664 c 0.01845,0 0.03329,0.014935 0.03329,0.033384 v 0.2666504 c 0,0.018449 0.01494,0.033286 0.03329,0.033286 h 0.3 v 0.2999752 c 0,0.018449 -0.01494,0.033384 -0.03329,0.033384 z m -1.6666436,0 h -0.266663 c -0.01845,0 -0.033288,-0.014935 -0.033288,-0.033286 v -0.26666 c 0,-0.018351 0.014936,-0.033286 0.033288,-0.033286 h 0.266663 c 0.01845,0 0.033288,0.014935 0.033288,0.033286 v 0.2666598 c 0,0.018449 -0.014935,0.033286 -0.033288,0.033286 z m -1.333326,0 H 7.3332201 V 8.6662704 H 7.666547 v 0.299985 c 0,0.018449 -0.014936,0.033286 -0.033288,0.033286 z M 10.966517,8.6662704 h -0.3 V 8.366285 c 0,-0.018449 0.01494,-0.033384 0.03329,-0.033384 h 0.266663 c 0.01845,0 0.03329,0.014935 0.03329,0.033384 v 0.2666504 c 0,0.018449 -0.01494,0.033286 -0.03329,0.033286 z m -3.6666335,0 H 6.3665566 c -0.01845,0 -0.033288,-0.014935 -0.033288,-0.033286 V 8.3663338 c 0,-0.018449 0.014936,-0.033384 0.033288,-0.033384 h 0.6000001 c 0.01845,0 0.033288,-0.014935 0.033288,-0.033286 V 7.6996932 c 0,-0.018351 0.014935,-0.033286 0.033288,-0.033286 h 0.2666635 c 0.01845,0 0.033288,-0.014935 0.033288,-0.033384 V 7.3663728 c 0,-0.018449 0.014935,-0.033384 0.033288,-0.033384 h 0.2666635 c 0.01845,0 0.033288,0.014935 0.033288,0.033384 V 7.9996687 H 7.3663224 c -0.01845,0 -0.033288,0.014935 -0.033288,0.033384 v 0.633296 z M 2.2999319,8.33295 H 2.0332684 c -0.01845,0 -0.033288,-0.014935 -0.033288,-0.033286 V 8.0330134 c 0,-0.018449 0.014935,-0.033384 0.033288,-0.033384 h 0.3000001 v 0.2999854 c 0,0.018449 -0.014936,0.033286 -0.033288,0.033286 z m -0.9999903,0 H 0.69995129 c -0.0184498,0 -0.0332878,-0.014935 -0.0332878,-0.033286 V 8.0330134 c 0,-0.018449 -0.0149356,-0.033384 -0.0332878,-0.033384 H 0.33338546 v -0.299985 c 0,-0.018351 -0.0149356,-0.033286 -0.0333854,-0.033286 H 0.03333659 c -0.01844983,0 -0.03328778094,-0.014935 -0.03328778094,-0.033384 V 7.366324 C 4.880906e-5,7.347875 0.01498438,7.33294 0.03333659,7.33294 h 0.59999032 c 0.0184498,0 0.0332878,0.014935 0.0332878,0.033384 v 0.2666505 c 0,0.018449 0.0149356,0.033384 0.0332878,0.033384 h 0.26666343 c 0.0184498,0 0.0332878,0.014935 0.0332878,0.033286 v 0.2666503 c 0,0.018449 0.0149356,0.033286 0.0332878,0.033286 h 0.3 v 0.2999853 c 0,0.018449 -0.014936,0.033286 -0.033288,0.033286 z m -0.99999035,0 H 0.03328778 C 0.01483796,8.33295 0,8.3180152 0,8.2996639 V 8.0330134 c 0,-0.018449 0.01493557,-0.033384 0.03328778,-0.033384 h 0.30000006 v 0.2999854 c 0,0.018449 -0.0149356,0.033286 -0.0333854,0.033286 z M 10.966517,7.9996394 h -0.6 c -0.01845,0 -0.03329,-0.014935 -0.03329,-0.033286 V 7.6996932 c 0,-0.018351 0.01494,-0.033286 0.03329,-0.033286 h 0.266663 c 0.01845,0 0.03329,-0.014935 0.03329,-0.033384 v -0.633296 h 0.3 c 0.01845,0 0.03329,0.014935 0.03329,0.033384 v 0.9332715 c 0,0.018449 -0.01494,0.033286 -0.03329,0.033286 z m -4.3332969,0 H 6.3665566 c -0.01845,0 -0.033288,-0.014935 -0.033288,-0.033286 V 7.3663826 c 0,-0.018449 0.014936,-0.033384 0.033288,-0.033384 h 0.3000001 v 0.6333057 c 0,0.018351 -0.014936,0.033286 -0.033288,0.033286 z m -3.9999614,0 H 2.3332685 V 7.6996541 c 0,-0.018351 -0.014936,-0.033286 -0.033288,-0.033286 H 1.6666538 V 7.3663826 c 0,-0.018449 -0.014936,-0.033384 -0.033288,-0.033384 H 1.0333757 c -0.01845,0 -0.033288,-0.014935 -0.033288,-0.033286 V 7.0330623 c 0,-0.018449 0.014936,-0.033384 0.033288,-0.033384 h 0.2666635 c 0.01845,0 0.033288,-0.014935 0.033288,-0.033286 V 6.6997321 c 0,-0.018449 -0.014935,-0.033286 -0.033288,-0.033286 H 1.0333757 c -0.01845,0 -0.033288,-0.014935 -0.033288,-0.033384 V 6.0331403 c 0,-0.018449 -0.0149355,-0.033384 -0.0332877,-0.033384 H 0.66680014 V 5.6997711 c 0,-0.018449 0.0149356,-0.033286 0.0332878,-0.033286 h 0.26666344 c 0.0184498,0 0.0332877,-0.014935 0.0332877,-0.033384 V 5.3664508 c 0,-0.018449 0.014936,-0.033384 0.033288,-0.033384 h 0.5999903 c 0.01845,0 0.033288,0.014935 0.033288,0.033384 v 0.2999853 h -0.3 c -0.01845,0 -0.033288,0.014935 -0.033288,0.033286 v 0.2666504 c 0,0.018449 0.014936,0.033384 0.033288,0.033384 h 0.2666634 c 0.01845,0 0.033288,-0.014935 0.033288,-0.033384 V 5.6663971 H 1.999883 v 0.2999756 c 0,0.018449 0.014936,0.033384 0.033288,0.033384 H 2.3331709 V 6.3330671 H 2.0331708 c -0.01845,0 -0.033288,0.014935 -0.033288,0.033384 v 0.2666505 c 0,0.018449 0.014936,0.033384 0.033288,0.033384 h 0.2666635 c 0.01845,0 0.033288,-0.014935 0.033288,-0.033384 V 6.3331159 h 0.2999903 c 0.01845,0 0.033288,0.014935 0.033288,0.033384 V 7.999737 Z m -0.9999903,0 H 1.3332781 V 7.6996541 c 0,-0.018351 0.014936,-0.033286 0.033288,-0.033286 h 0.3 v 0.2999853 c 0,0.018351 -0.014935,0.033286 -0.033288,0.033286 z M 4.2999125,7.6663289 H 4.0332491 c -0.01845,0 -0.033288,-0.014935 -0.033288,-0.033384 v -0.633296 h 0.3333366 v 0.6666309 z m -0.6666634,0 H 3.3332588 V 6.6997126 c 0,-0.018449 0.014936,-0.033286 0.033288,-0.033286 H 3.63321 c 0.01845,0 0.033288,-0.014935 0.033288,-0.033384 V 6.3663923 c 0,-0.018449 0.014936,-0.033384 0.033385,-0.033384 h 0.2666634 c 0.01845,0 0.033288,-0.014935 0.033288,-0.033286 v -0.266582 c 0,-0.018449 -0.014936,-0.033384 -0.033288,-0.033384 H 3.6998832 c -0.01845,0 -0.033385,-0.014935 -0.033385,-0.033286 V 4.6665532 h 0.3333269 v 0.2999756 c 0,0.018449 0.014935,0.033286 0.033288,0.033286 h 0.5999903 c 0.01845,0 0.033385,-0.014935 0.033385,-0.033286 V 4.6665532 h 0.3000001 c 0.01845,0 0.033288,0.014935 0.033288,0.033286 V 5.29981 c 0,0.018449 -0.014935,0.033286 -0.033288,0.033286 H 4.3664881 c -0.01845,0 -0.033288,0.014935 -0.033288,0.033384 v 0.2666505 c 0,0.018449 0.014936,0.033384 0.033288,0.033384 h 0.6000001 c 0.01845,0 0.033288,0.014935 0.033288,0.033286 v 0.5999708 c 0,0.018449 -0.014935,0.033286 -0.033288,0.033286 H 4.3664881 c -0.01845,0 -0.033288,0.014935 -0.033288,0.033384 v 0.2999854 h -0.3 c -0.01845,0 -0.033288,0.014935 -0.033288,0.033286 V 6.999698 H 3.6999222 c -0.01845,0 -0.033385,0.014935 -0.033385,0.033286 v 0.5999707 c 0,0.018449 -0.014936,0.033286 -0.033288,0.033286 z M 10.299854,7.3330086 H 9.9998535 V 6.999698 H 10.33319 v 0.2999854 c 0,0.018449 -0.01493,0.033286 -0.03329,0.033286 z m -1.3333176,0 H 8.3665368 c -0.01845,0 -0.033288,-0.014935 -0.033288,-0.033286 V 6.9997371 h 0.6333264 c 0.01845,0 0.033288,0.014935 0.033288,0.033384 v 0.2999756 z m -1.9999797,0 h -0.3 V 7.033033 c 0,-0.018449 0.014935,-0.033384 0.033288,-0.033384 H 6.999835 v 0.2999854 c 0,0.018449 -0.014936,0.033286 -0.033288,0.033286 z M 2.3332685,7.2997224 V 7.033072 c 0,-0.018449 -0.014936,-0.033384 -0.033288,-0.033384 H 2.0333173 c -0.01845,0 -0.033288,0.014935 -0.033288,0.033384 v 0.2666504 c 0,0.018449 0.014935,0.033286 0.033288,0.033286 h 0.2666634 c 0.01845,0 0.033288,-0.014935 0.033288,-0.033286 z M 10.63318,6.9997371 H 10.33319 V 6.6997517 c 0,-0.018449 0.01494,-0.033286 0.03329,-0.033286 h 0.266663 c 0.01845,0 0.03329,0.014935 0.03329,0.033286 v 0.2999854 z m -0.6666533,0 H 9.6998633 c -0.01845,0 -0.033288,-0.014935 -0.033288,-0.033286 V 6.6997907 c 0,-0.018449 -0.014936,-0.033286 -0.033288,-0.033286 h -0.266663 c -0.01845,0 -0.033288,-0.014935 -0.033288,-0.033384 V 6.3664704 c 0,-0.018449 0.014936,-0.033384 0.033288,-0.033384 h 0.2666634 c 0.01845,0 0.033288,-0.014935 0.033288,-0.033286 V 5.6665045 h 0.6333263 c 0.01845,0 0.03329,0.014935 0.03329,0.033286 V 5.999776 h -0.3 c -0.01845,0 -0.033288,0.014935 -0.033288,0.033384 v 0.9666065 z m -1.6666533,0 H 8.0332099 c -0.01845,0 -0.033385,-0.014935 -0.033385,-0.033286 v -0.599971 c 0,-0.018449 0.014936,-0.033384 0.033385,-0.033384 H 8.33321 V 6.999727 Z m -0.666663,0 H 6.9998835 v -0.633296 c 0,-0.018449 0.014936,-0.033384 0.033288,-0.033384 h 0.3 v 0.2999854 c 0,0.018449 0.014936,0.033384 0.033288,0.033384 h 0.2666634 c 0.01845,0 0.033288,0.014935 0.033288,0.033286 V 6.966363 c 0,0.018449 -0.014936,0.033384 -0.033288,0.033384 z m -2.6666344,0 H 4.3332491 V 6.6664265 H 4.966576 c 0.01845,0 0.033288,0.014935 0.033288,0.033286 V 6.966363 c 0,0.018449 -0.014936,0.033384 -0.033288,0.033384 z M 6.6332201,6.6664265 H 6.3665566 c -0.01845,0 -0.033288,-0.014935 -0.033288,-0.033384 V 6.3330573 h 0.2999903 c 0.01845,0 0.033288,0.014935 0.033288,0.033384 v 0.2666504 c 0,0.018449 -0.014936,0.033384 -0.033288,0.033384 z M 10.966517,6.3331061 h -0.6 c -0.01845,0 -0.03329,-0.014935 -0.03329,-0.033286 V 5.9998346 h 0.633337 c 0.01845,0 0.03329,0.014935 0.03329,0.033384 v 0.2666505 c 0,0.018449 -0.01494,0.033286 -0.03329,0.033286 z m -1.9999806,0 H 8.33321 V 5.9997955 h 0.6333264 c 0.01845,0 0.033288,0.014935 0.033288,0.033384 v 0.2666504 c 0,0.018449 -0.014935,0.033286 -0.033288,0.033286 z m -2.6666432,0 h -0.3 V 5.6664849 h 0.3333366 v 0.6666212 z m -5.6666151,0 H 0.36661467 c -0.0184498,0 -0.0332878,-0.014935 -0.0332878,-0.033286 V 6.0331403 c 0,-0.018449 0.0149356,-0.033384 0.0332878,-0.033384 h 0.30000002 v 0.2999854 c 0,0.018449 -0.0149356,0.033286 -0.0332878,0.033286 z M 3.2999222,5.9997955 H 3.0332588 c -0.01845,0 -0.033385,-0.014935 -0.033385,-0.033384 v -0.633296 h 0.3 c 0.01845,0 0.033288,0.014935 0.033288,0.033384 v 0.599961 c 0,0.018449 -0.014936,0.033384 -0.033288,0.033384 z m -0.6666635,0 H 2.3332685 V 5.6664849 h 0.2999902 c 0.01845,0 0.033288,0.014935 0.033288,0.033286 v 0.2666504 c 0,0.018449 -0.014936,0.033384 -0.033288,0.033384 z M 10.966517,5.6664849 h -0.266663 c -0.01845,0 -0.03329,-0.014935 -0.03329,-0.033384 V 5.3331158 h 0.29999 c 0.01845,0 0.03329,0.014935 0.03329,0.033384 V 5.63315 c 0,0.018449 -0.01494,0.033384 -0.03329,0.033384 z m -1.3333269,0 H 9.3665266 c -0.01845,0 -0.033288,-0.014935 -0.033288,-0.033384 v -1.266592 c 0,-0.018449 0.014935,-0.033384 0.033288,-0.033384 h 0.2666635 c 0.01845,0 0.033288,-0.014935 0.033288,-0.033286 v -0.299985 h 0.3 c 0.01845,0 0.033385,0.014935 0.033385,0.033384 v 0.2666504 c 0,0.018449 0.014936,0.033286 0.033288,0.033286 h 0.59999 c 0.01845,0 0.03329,-0.014935 0.03329,-0.033286 V 4.0332377 c 0,-0.018449 -0.01494,-0.033384 -0.03329,-0.033384 h -0.266663 c -0.01845,0 -0.03329,-0.014935 -0.03329,-0.033384 v -0.26665 c 0,-0.018449 0.01494,-0.033286 0.03329,-0.033286 h 0.266663 c 0.01845,0 0.03329,-0.014935 0.03329,-0.033384 v -0.633296 h 0.3 c 0.01845,0 0.03339,0.014935 0.03339,0.033384 v 1.5999025 c 0,0.018449 -0.01494,0.033384 -0.03339,0.033384 h -0.266663 c -0.01845,0 -0.03329,0.014935 -0.03329,0.033286 V 5.333106 h -0.3 c -0.01845,0 -0.03329,-0.014935 -0.03329,-0.033286 V 4.6998491 c 0,-0.018449 -0.01493,-0.033286 -0.03329,-0.033286 h -0.266663 c -0.01845,0 -0.033288,0.014935 -0.033288,0.033286 v 0.5999708 c 0,0.018449 -0.014935,0.033286 -0.033288,0.033286 H 9.7000097 c -0.01845,0 -0.033288,0.014935 -0.033288,0.033384 v 0.2999854 z m -0.6666537,0 h -0.266663 c -0.01845,0 -0.033288,-0.014935 -0.033288,-0.033384 V 5.3331158 H 8.966585 c 0.01845,0 0.033288,0.014935 0.033288,0.033384 V 5.63315 c 0,0.018449 -0.014936,0.033384 -0.033288,0.033384 z m -6.6666045,0 h -0.3 V 5.3664996 c 0,-0.018449 0.014935,-0.033384 0.033288,-0.033384 H 2.33322 v 0.3333203 z m -1.99998065,0 H 0.03328778 C 0.01483796,5.6664849 0,5.6515501 0,5.6331012 v -0.599961 c 0,-0.018449 0.01493557,-0.033384 0.03328778,-0.033384 h 0.26666347 c 0.0184498,0 0.0333854,-0.014935 0.0333854,-0.033286 V 4.6665532 H 0.6666635 v 0.633296 c 0,0.018449 -0.0149356,0.033286 -0.0332878,0.033286 H 0.36671229 c -0.0184498,0 -0.0332878,0.014935 -0.0332878,0.033384 v 0.2666504 c 0,0.018449 -0.0149356,0.033384 -0.0333854,0.033384 z M 8.6332002,5.3331646 H 8.33321 V 5.033189 c 0,-0.018449 0.014935,-0.033384 0.033288,-0.033384 h 0.3 v 0.3333106 z m -5.6666048,0 H 2.3332685 V 5.033189 c 0,-0.018449 -0.014936,-0.033384 -0.033288,-0.033384 H 1.0333269 c -0.01845,0 -0.033288,-0.014935 -0.033288,-0.033286 V 4.6665532 H 1.300039 c 0.01845,0 0.033288,-0.014935 0.033288,-0.033384 V 3.9998735 h 0.3333269 v 0.2999853 c 0,0.018449 0.014936,0.033286 0.033288,0.033286 h 0.2999903 v 0.2999854 c 0,0.018449 0.014935,0.033384 0.033288,0.033384 h 0.6333269 v 0.2999757 c 0,0.018449 0.014936,0.033286 0.033288,0.033286 h 0.2666732 c 0.01845,0 0.033288,0.014935 0.033288,0.033384 V 5.3331353 Z M 8.9665364,4.999854 H 8.6665368 V 4.366558 c 0,-0.018449 -0.014935,-0.033384 -0.033385,-0.033384 H 8.366488 c -0.01845,0 -0.033288,0.014935 -0.033288,0.033384 v 0.2666505 c 0,0.018449 -0.014936,0.033384 -0.033288,0.033384 h -0.3 V 4.3666069 c 0,-0.018449 -0.014936,-0.033384 -0.033288,-0.033384 H 7.6999617 c -0.01845,0 -0.033385,-0.014935 -0.033385,-0.033286 V 4.0332865 c 0,-0.018449 -0.014936,-0.033384 -0.033288,-0.033384 H 7.3666251 c -0.01845,0 -0.033288,0.014935 -0.033288,0.033384 v 0.599961 c 0,0.018449 -0.014936,0.033384 -0.033288,0.033384 H 6.3333957 V 4.3666459 c 0,-0.018449 0.014936,-0.033384 0.033288,-0.033384 h 0.6000001 c 0.01845,0 0.033288,-0.014935 0.033288,-0.033286 V 4.0333255 c 0,-0.018449 -0.014936,-0.033384 -0.033288,-0.033384 H 6.7000201 c -0.01845,0 -0.033288,-0.014935 -0.033288,-0.033384 V 3.6665824 h 1.6333167 c 0.01845,0 0.033288,0.014935 0.033288,0.033286 V 3.966519 c 0,0.018449 0.014935,0.033384 0.033288,0.033384 h 0.6333264 v 0.9666066 c 0,0.018449 -0.014936,0.033286 -0.033288,0.033286 z m -0.9999899,0 H 7.6998836 c -0.01845,0 -0.033385,-0.014935 -0.033385,-0.033286 V 4.6999174 c 0,-0.018449 0.014935,-0.033286 0.033385,-0.033286 H 7.9998734 V 4.966607 c 0,0.018449 -0.014936,0.033286 -0.033288,0.033286 z M 4.6332394,4.6665434 H 3.9999125 V 4.366558 c 0,-0.018449 -0.014936,-0.033384 -0.033288,-0.033384 h -0.3 V 4.0331987 c 0,-0.018449 0.014936,-0.033384 0.033385,-0.033384 h 0.2666634 c 0.01845,0 0.033288,-0.014935 0.033288,-0.033286 V 3.333223 H 4.299961 c 0.01845,0 0.033385,-0.014935 0.033385,-0.033286 V 3.0332864 c 0,-0.018449 -0.014936,-0.033384 -0.033385,-0.033384 H 3.9999613 V 1.9999611 h 0.3333366 v 0.633296 c 0,0.018449 0.014936,0.033384 0.033288,0.033384 h 0.2666635 c 0.01845,0 0.033385,-0.014935 0.033385,-0.033384 v -0.633296 h 0.3333268 v 0.2999854 c 0,0.018449 0.014936,0.033286 0.033288,0.033286 h 0.2666634 c 0.01845,0 0.033288,-0.014935 0.033288,-0.033286 V 2.0332961 c 0,-0.018449 -0.014936,-0.033286 -0.033288,-0.033286 h -0.3 V 1.333379 h 0.9666635 c 0.01845,0 0.033288,-0.014935 0.033288,-0.033286 V 1.0001075 h 0.3 c 0.01845,0 0.033288,0.014935 0.033288,0.033384 v 0.599961 c 0,0.018449 0.014936,0.033384 0.033288,0.033384 h 0.2666634 c 0.01845,0 0.033288,0.014935 0.033288,0.033286 v 0.2999853 h -0.3 c -0.01845,0 -0.033288,0.014935 -0.033288,0.033286 V 2.3333693 H 5.9997663 V 1.7000734 c 0,-0.018449 -0.014936,-0.033286 -0.033288,-0.033286 H 5.6998151 c -0.01845,0 -0.033288,0.014935 -0.033288,0.033286 v 0.5999707 c 0,0.018449 0.014935,0.033286 0.033288,0.033286 h 0.2999902 v 0.2999854 c 0,0.018449 -0.014936,0.033384 -0.033288,0.033384 H 5.6998541 c -0.01845,0 -0.033288,0.014935 -0.033288,0.033286 V 2.966636 c 0,0.018449 0.014936,0.033384 0.033288,0.033384 H 6.333181 V 3.3333304 H 5.6998541 c -0.01845,0 -0.033288,0.014935 -0.033288,0.033384 v 0.599961 c 0,0.018449 0.014936,0.033384 0.033288,0.033384 h 0.2666634 c 0.01845,0 0.033288,0.014935 0.033288,0.033384 v 0.2666504 c 0,0.018449 -0.014936,0.033286 -0.033288,0.033286 h -0.6 c -0.01845,0 -0.033288,-0.014935 -0.033288,-0.033286 V 4.0334427 c 0,-0.018449 -0.014936,-0.033384 -0.033288,-0.033384 h -0.266663 c -0.01845,0 -0.033288,0.014935 -0.033288,0.033384 v 0.2666504 c 0,0.018449 -0.014936,0.033286 -0.033288,0.033286 h -0.266663 c -0.01845,0 -0.033288,0.014935 -0.033288,0.033384 v 0.2999854 z m -0.9999903,0 H 2.6665953 V 4.366558 c 0,-0.018449 0.014936,-0.033384 0.033288,-0.033384 h 0.9666538 v 0.3333203 z m -2.66663438,0 H 0.66661469 V 4.3332231 h 0.30000003 c 0.0184498,0 0.0332878,0.014935 0.0332878,0.033384 v 0.2999853 z m -0.66666347,0 H 0.03328778 C 0.01483796,4.6665434 0,4.6516086 0,4.6331597 v -0.599961 c 0,-0.018449 0.01493557,-0.033384 0.03328778,-0.033384 h 0.26666347 c 0.0184498,0 0.0333854,-0.014935 0.0333854,-0.033384 v -0.26665 c 0,-0.018449 -0.0149356,-0.033286 -0.0333854,-0.033286 H 0.03328778 C 0.01483796,3.6664945 0,3.6515597 0,3.6331108 V 2.6998294 C 0,2.6813805 0.01493557,2.6665433 0.03328778,2.6665433 H 0.6332781 c 0.0184498,0 0.0332878,0.014935 0.0332878,0.033286 v 0.2666504 c 0,0.018449 0.0149356,0.033384 0.0332878,0.033384 h 0.2666634 c 0.0184498,0 0.0332878,-0.014935 0.0332878,-0.033384 V 2.6998294 c 0,-0.018449 0.0149356,-0.033286 0.0332878,-0.033286 h 0.2666634 c 0.01845,0 0.033288,0.014935 0.033288,0.033286 v 0.5999708 c 0,0.018449 0.014936,0.033286 0.033288,0.033286 h 0.3 V 3.6664067 H 1.3663316 c -0.01845,0 -0.033288,0.014935 -0.033288,0.033286 V 3.9996782 H 0.699717 c -0.0184498,0 -0.0332878,0.014935 -0.0332878,0.033384 V 4.3330376 H 0.36642919 c -0.0184498,0 -0.0332878,0.014935 -0.0332878,0.033384 V 4.6664068 Z M 2.2999319,4.3332231 h -0.3 V 3.9999125 h 0.3 c 0.01845,0 0.033288,0.014935 0.033288,0.033384 v 0.2666504 c 0,0.018449 -0.014936,0.033286 -0.033288,0.033286 z M 9.6331901,3.9999125 H 8.9998632 V 3.6999271 c 0,-0.018449 -0.014936,-0.033286 -0.033288,-0.033286 H 8.6999125 c -0.01845,0 -0.033288,-0.014935 -0.033288,-0.033384 V 3.3666068 c 0,-0.018449 -0.014936,-0.033384 -0.033385,-0.033384 H 8.033249 c -0.01845,0 -0.033385,-0.014935 -0.033385,-0.033286 V 2.6999661 c 0,-0.018449 -0.014936,-0.033286 -0.033288,-0.033286 H 7.3665762 c -0.01845,0 -0.033288,0.014935 -0.033288,0.033286 v 0.2666504 c 0,0.018449 -0.014936,0.033384 -0.033288,0.033384 h -0.266663 c -0.01845,0 -0.033288,-0.014935 -0.033288,-0.033384 V 2.6999661 c 0,-0.018449 -0.014936,-0.033286 -0.033288,-0.033286 h -0.266663 c -0.01845,0 -0.033288,0.014935 -0.033288,0.033286 v 0.2666504 c 0,0.018449 -0.014936,0.033384 -0.033288,0.033384 H 6.3335324 v -0.666631 h 0.2999903 c 0.01845,0 0.033288,-0.014935 0.033288,-0.033286 V 2.0000978 h 0.3 c 0.01845,0 0.033288,0.014935 0.033288,0.033286 v 0.2666505 c 0,0.018449 0.014935,0.033286 0.033288,0.033286 h 0.2666634 c 0.01845,0 0.033288,-0.014935 0.033288,-0.033286 v -0.633296 h 0.3333268 v 0.633296 c 0,0.018449 0.014936,0.033286 0.033385,0.033286 h 0.266663 c 0.01845,0 0.033288,-0.014935 0.033288,-0.033286 v -0.633296 h 0.3 c 0.01845,0 0.033288,0.014935 0.033288,0.033286 v 1.2665919 c 0,0.018449 0.014935,0.033384 0.033288,0.033384 h 0.2666635 c 0.01845,0 0.033385,-0.014935 0.033385,-0.033384 V 2.6999661 c 0,-0.018449 0.014936,-0.033286 0.033288,-0.033286 h 0.9333264 c 0.01845,0 0.033288,0.014935 0.033288,0.033286 v 0.2999854 h -0.633328 c -0.01845,0 -0.033288,0.014935 -0.033288,0.033384 v 0.2666504 c 0,0.018449 0.014936,0.033286 0.033288,0.033286 h 0.2666634 c 0.01845,0 0.033385,0.014935 0.033385,0.033384 V 3.633306 c 0,0.018449 0.014936,0.033384 0.033288,0.033384 h 0.3 v 0.3333105 z m -6.6665947,0 H 2.6999319 c -0.01845,0 -0.033288,-0.014935 -0.033288,-0.033384 v -0.599961 c 0,-0.018449 0.014936,-0.033384 0.033288,-0.033384 h 0.5999903 c 0.01845,0 0.033288,-0.014935 0.033288,-0.033286 v -0.633296 h 0.2999903 c 0.01845,0 0.033288,0.014935 0.033288,0.033286 v 0.2666504 c 0,0.018449 0.014936,0.033384 0.033385,0.033384 H 3.9998637 V 3.3332328 H 3.6998734 c -0.01845,0 -0.033385,0.014935 -0.033385,0.033384 v 0.2666504 c 0,0.018449 -0.014935,0.033384 -0.033288,0.033384 H 3.03321 c -0.01845,0 -0.033385,0.014935 -0.033385,0.033286 v 0.2666504 c 0,0.018449 -0.014936,0.033384 -0.033288,0.033384 z m -0.9999904,0 h -0.3 V 3.6666019 H 1.9999319 V 3.9999125 Z M 9.9665267,3.6666019 h -0.3 V 2.999971 h 0.3333268 v 0.6332959 c 0,0.018449 -0.014935,0.033384 -0.033288,0.033384 z m -3.3333066,0 H 6.3665566 c -0.01845,0 -0.033288,-0.014935 -0.033288,-0.033384 V 3.3332328 h 0.2999903 c 0.01845,0 0.033288,0.014935 0.033288,0.033384 V 3.6666019 Z M 5.3332395,3.6332181 V 2.6999368 c 0,-0.018449 -0.014936,-0.033286 -0.033288,-0.033286 H 5.0332882 c -0.01845,0 -0.033288,0.014935 -0.033288,0.033286 v 0.5999708 c 0,0.018449 -0.014936,0.033286 -0.033288,0.033286 h -0.266663 c -0.01845,0 -0.033288,0.014935 -0.033288,0.033384 V 3.633228 c 0,0.018449 0.014935,0.033384 0.033288,0.033384 h 0.5999903 c 0.01845,0 0.033288,-0.014935 0.033288,-0.033384 z m -3.0333076,0.033384 h -0.3 V 3.3332816 h 0.3 c 0.01845,0 0.033288,0.014935 0.033288,0.033384 v 0.2666505 c 0,0.018449 -0.014936,0.033384 -0.033288,0.033384 z M 1.966605,3.3332816 h -0.3 V 3.0333059 c 0,-0.018449 0.014936,-0.033384 0.033288,-0.033384 h 0.29999 V 3.3332328 Z M 10.63318,2.999971 H 9.9998535 V 2.6999856 c 0,-0.018449 0.014935,-0.033286 0.033288,-0.033286 h 0.6 c 0.01845,0 0.03329,0.014935 0.03329,0.033286 V 2.999971 Z m -7.9999213,0 H 1.9999319 V 2.6999856 c 0,-0.018449 0.014935,-0.033286 0.033288,-0.033286 h 0.6333269 v 0.2999757 c 0,0.018449 -0.014936,0.033384 -0.033288,0.033384 z M 3.2999222,2.6666604 H 2.6665953 V 1.3667335 c 0,-0.018449 0.014936,-0.033286 0.033288,-0.033286 h 0.2999903 v 0.2999854 c 0,0.018449 0.014935,0.033384 0.033385,0.033384 H 3.299922 c 0.01845,0 0.033288,0.014935 0.033288,0.033286 V 2.000088 h -0.3 c -0.01845,0 -0.033385,0.014935 -0.033385,0.033286 v 0.2666504 c 0,0.018351 0.014935,0.033286 0.033385,0.033286 h 0.3 V 2.6666311 Z M 10.966517,2.33334 H 8.6998734 c -0.01845,0 -0.033288,-0.014935 -0.033288,-0.033286 V 0.03352043 c 0,-0.01844893 0.014936,-0.0333837713 0.033288,-0.0333837713 h 2.2666436 c 0.01845,0 0.03329,0.0149348413 0.03329,0.0333837713 V 2.3000539 c 0,0.018449 -0.01494,0.033286 -0.03329,0.033286 z m -7.3332679,0 H 3.3332588 V 2.0000295 h 0.3333269 v 0.2999853 c 0,0.018449 -0.014936,0.033286 -0.033288,0.033286 z m -1.3333172,0 H 0.03328778 C 0.01483796,2.33334 0,2.3184052 0,2.3000539 V 0.03352043 C 0,0.0150715 0.01493557,1.3665871e-4 0.03328778,1.3665871e-4 H 2.2999319 c 0.01845,0 0.033288,0.0149348413 0.033288,0.0333837713 V 2.3000539 c 0,0.018449 -0.014936,0.033286 -0.033288,0.033286 z M 10.666517,1.9666945 V 0.36679194 c 0,-0.0184489 -0.01494,-0.0333838 -0.03329,-0.0333838 H 9.0332486 c -0.01845,0 -0.033288,0.0149348 -0.033288,0.0333838 V 1.9666945 c 0,0.018449 0.014936,0.033384 0.033288,0.033384 h 1.5999804 c 0.01845,0 0.03329,-0.014935 0.03329,-0.033384 z M 4.6332394,2.0000783 H 4.3332491 v -0.633296 c 0,-0.018449 0.014936,-0.033286 0.033288,-0.033286 h 0.3 v 0.666631 z m -0.6666537,0 h -0.3 V 1.7000929 c 0,-0.018449 0.014935,-0.033286 0.033385,-0.033286 h 0.2666634 c 0.01845,0 0.033288,0.014935 0.033288,0.033286 V 2.0000783 Z M 1.9999319,1.9666945 V 0.36679194 c 0,-0.0184489 -0.014936,-0.0333838 -0.033288,-0.0333838 H 0.36665371 c -0.0184498,0 -0.0332878,0.0149348 -0.0332878,0.0333838 V 1.9666945 c 0,0.018449 0.0149356,0.033384 0.0332878,0.033384 H 1.9666441 c 0.01845,0 0.033288,-0.014935 0.033288,-0.033384 z M 10.299854,1.6667189 H 9.3665266 c -0.01845,0 -0.033288,-0.014935 -0.033288,-0.033384 V 0.70005372 c 0,-0.0184489 0.014935,-0.0332862 0.033288,-0.0332862 h 0.9333274 c 0.01845,0 0.03329,0.0149348 0.03329,0.0332862 V 1.6333351 c 0,0.018449 -0.01493,0.033384 -0.03329,0.033384 z m -2.3333075,0 H 7.666547 V 1.3333985 h 0.2999995 c 0.01845,0 0.033288,0.014935 0.033288,0.033286 v 0.2999854 z m -0.666663,0 H 7.0332201 c -0.01845,0 -0.033288,-0.014935 -0.033288,-0.033384 V 1.3666847 c 0,-0.018449 0.014936,-0.033286 0.033288,-0.033286 h 0.3 v 0.3333204 z m -5.6666151,0 H 0.69995129 c -0.0184498,0 -0.0332878,-0.014935 -0.0332878,-0.033384 V 0.70005372 c 0,-0.0184489 0.0149356,-0.0332862 0.0332878,-0.0332862 H 1.6332684 c 0.01845,0 0.033288,0.0149348 0.033288,0.0332862 V 1.6333351 c 0,0.018449 -0.014936,0.033384 -0.033288,0.033384 z M 7.6332104,1.3333985 H 7.3332201 V 1.0334229 c 0,-0.018449 0.014936,-0.033384 0.033288,-0.033384 h 0.3 v 0.3333106 z m -2.6666344,0 h -0.3 V 0.70010253 c 0,-0.0184489 -0.014936,-0.0332862 -0.033385,-0.0332862 H 4.3665272 c -0.01845,0 -0.033288,0.0149348 -0.033288,0.0332862 v 0.26665042 c 0,0.0184489 -0.014936,0.0333838 -0.033385,0.0333838 H 4.0331905 c -0.01845,0 -0.033288,0.014935 -0.033288,0.033384 v 0.2666504 c 0,0.018351 -0.014936,0.033286 -0.033288,0.033286 H 2.9999515 V 1.0334815 c 0,-0.018449 -0.014936,-0.033384 -0.033288,-0.033384 H 2.7000003 c -0.01845,0 -0.033288,-0.0149348 -0.033288,-0.0333838 V 0.36675292 c 0,-0.0184489 0.014935,-0.0333838 0.033288,-0.0333838 h 0.2999902 v 0.29998539 c 0,0.0184489 0.014936,0.0333838 0.033385,0.0333838 h 0.5999903 c 0.01845,0 0.033288,-0.0149348 0.033288,-0.0333838 V 0.36670412 c 0,-0.0184489 0.014936,-0.0333838 0.033385,-0.0333838 h 0.2666634 c 0.01845,0 0.033288,-0.0149348 0.033288,-0.0332862 V 0.03338377 C 3.9999906,0.01493484 4.0149262,0 4.0332784,0 h 1.2666538 c 0.01845,0 0.033288,0.01493484 0.033288,0.03338377 v 0.59996098 c 0,0.0184489 0.014936,0.0333838 0.033288,0.0333838 h 0.2666635 c 0.01845,0 0.033288,-0.0149349 0.033288,-0.0333838 V 0.36669433 c 0,-0.0184489 0.014936,-0.0333838 0.033288,-0.0333838 h 0.6333367 v 0.29998538 c 0,0.0184489 -0.014936,0.0333838 -0.033288,0.0333838 H 6.0331322 c -0.01845,0 -0.033288,0.0149348 -0.033288,0.0332862 V 0.99995128 H 5.0331906 c -0.01845,0 -0.033288,0.0149348 -0.033288,0.0333838 V 1.3333107 Z M 7.9665465,1.0000879 H 7.666547 V 0.03348138 c 0,-0.01844892 0.014936,-0.03338376664 0.033385,-0.03338376664 h 0.2666629 c 0.01845,0 0.033288,0.01493484664 0.033288,0.03338376664 v 0.26665039 c 0,0.0184489 0.014936,0.0332862 0.033385,0.0332862 H 8.299932 c 0.01845,0 0.033288,0.0149348 0.033288,0.0333838 v 0.26665042 c 0,0.0184489 -0.014935,0.0333838 -0.033288,0.0333838 H 8.0332685 c -0.01845,0 -0.033385,0.0149349 -0.033385,0.0332862 v 0.26665042 c 0,0.0184489 -0.014936,0.0333837 -0.033288,0.0333837 z m -0.9999898,0 H 6.6998932 c -0.01845,0 -0.033288,-0.0149348 -0.033288,-0.0333837 V 0.3334082 H 7.299932 c 0.01845,0 0.033288,0.0149348 0.033288,0.0333838 v 0.26665042 c 0,0.0184489 -0.014935,0.0333838 -0.033288,0.0333838 H 7.0332689 c -0.01845,0 -0.033288,0.0149348 -0.033288,0.0332862 v 0.26665042 c 0,0.0184489 -0.014935,0.0333838 -0.033288,0.0333838 z M 6.6332201,0.33345698 H 6.3332298 v -0.2999756 c 0,-0.01844892 0.014936,-0.03338376664 0.033288,-0.03338376664 H 6.633181 c 0.01845,0 0.033288,0.01493484664 0.033288,0.03338376664 v 0.2999756 z m -3.3332979,0 h -0.3 v -0.2999756 c 0,-0.01844892 0.014936,-0.03338376664 0.033385,-0.03338376664 H 3.299971 c 0.01845,0 0.033288,0.01493484664 0.033288,0.03338376664 v 0.26665039 c 0,0.0184489 -0.014936,0.0332862 -0.033288,0.0332862 z"
       id="path938"
       style="fill:#ffffff;fill-opacity:1;stroke:none;stroke-width:0.264583"
       inkscape:export-xdpi="1200.7289"
       inkscape:export-ydpi="1200.7289" />
  </g>
</svg>
