%TF.GenerationSoftware,KiCad,Pcbnew,9.0.5*%
%TF.CreationDate,2025-11-27T10:58:54+01:00*%
%TF.ProjectId,7-Segment_V5_2.8_4er,372d5365-676d-4656-9e74-5f56355f322e,V5.2*%
%TF.SameCoordinates,Original*%
%TF.FileFunction,Copper,L2,Bot*%
%TF.FilePolarity,Positive*%
%FSLAX46Y46*%
G04 Gerber Fmt 4.6, Leading zero omitted, Abs format (unit mm)*
G04 Created by KiCad (PCBNEW 9.0.5) date 2025-11-27 10:58:54*
%MOMM*%
%LPD*%
G01*
G04 APERTURE LIST*
G04 Aperture macros list*
%AMRoundRect*
0 Rectangle with rounded corners*
0 $1 Rounding radius*
0 $2 $3 $4 $5 $6 $7 $8 $9 X,Y pos of 4 corners*
0 Add a 4 corners polygon primitive as box body*
4,1,4,$2,$3,$4,$5,$6,$7,$8,$9,$2,$3,0*
0 Add four circle primitives for the rounded corners*
1,1,$1+$1,$2,$3*
1,1,$1+$1,$4,$5*
1,1,$1+$1,$6,$7*
1,1,$1+$1,$8,$9*
0 Add four rect primitives between the rounded corners*
20,1,$1+$1,$2,$3,$4,$5,0*
20,1,$1+$1,$4,$5,$6,$7,0*
20,1,$1+$1,$6,$7,$8,$9,0*
20,1,$1+$1,$8,$9,$2,$3,0*%
G04 Aperture macros list end*
%TA.AperFunction,ComponentPad*%
%ADD10R,1.500000X1.500000*%
%TD*%
%TA.AperFunction,ComponentPad*%
%ADD11C,1.500000*%
%TD*%
%TA.AperFunction,ComponentPad*%
%ADD12C,1.700000*%
%TD*%
%TA.AperFunction,ComponentPad*%
%ADD13RoundRect,0.250000X0.600000X-0.600000X0.600000X0.600000X-0.600000X0.600000X-0.600000X-0.600000X0*%
%TD*%
%TA.AperFunction,ComponentPad*%
%ADD14C,6.400000*%
%TD*%
%TA.AperFunction,Conductor*%
%ADD15C,0.250000*%
%TD*%
G04 APERTURE END LIST*
D10*
%TO.P,U1,1,E*%
%TO.N,/E*%
X97793412Y-63463412D03*
D11*
%TO.P,U1,2,D*%
%TO.N,/D*%
X100333412Y-63463412D03*
%TO.P,U1,3,C*%
%TO.N,/C*%
X102873412Y-63463412D03*
%TO.P,U1,4,G*%
%TO.N,/G*%
X105413412Y-63463412D03*
%TO.P,U1,5,DP*%
%TO.N,/DP*%
X107953412Y-63463412D03*
%TO.P,U1,6,CC_DIG2*%
%TO.N,/DIG2*%
X107953412Y-55843412D03*
%TO.P,U1,7,A*%
%TO.N,/A*%
X105413412Y-55843412D03*
%TO.P,U1,8,B*%
%TO.N,/B*%
X102873412Y-55843412D03*
%TO.P,U1,9,CC_DIG1*%
%TO.N,/DIG3*%
X100333412Y-55843412D03*
%TO.P,U1,10,F*%
%TO.N,/F*%
X97793412Y-55843412D03*
%TD*%
D12*
%TO.P,J1,16,Pin_16*%
%TO.N,unconnected-(J1-Pin_16-Pad16)*%
X86982627Y-58330000D03*
%TO.P,J1,15,Pin_15*%
%TO.N,/DP*%
X86982627Y-60870000D03*
%TO.P,J1,14,Pin_14*%
%TO.N,unconnected-(J1-Pin_14-Pad14)*%
X89522627Y-58330000D03*
%TO.P,J1,13,Pin_13*%
%TO.N,/G*%
X89522627Y-60870000D03*
%TO.P,J1,12,Pin_12*%
%TO.N,unconnected-(J1-Pin_12-Pad12)*%
X92062627Y-58330000D03*
%TO.P,J1,11,Pin_11*%
%TO.N,/F*%
X92062627Y-60870000D03*
%TO.P,J1,10,Pin_10*%
%TO.N,unconnected-(J1-Pin_10-Pad10)*%
X94602627Y-58330000D03*
%TO.P,J1,9,Pin_9*%
%TO.N,/E*%
X94602627Y-60870000D03*
%TO.P,J1,8,Pin_8*%
%TO.N,/DIG3*%
X97142627Y-58330000D03*
%TO.P,J1,7,Pin_7*%
%TO.N,/D*%
X97142627Y-60870000D03*
%TO.P,J1,6,Pin_6*%
%TO.N,/DIG2*%
X99682627Y-58330000D03*
%TO.P,J1,5,Pin_5*%
%TO.N,/C*%
X99682627Y-60870000D03*
%TO.P,J1,4,Pin_4*%
%TO.N,/DIG1*%
X102222627Y-58330000D03*
%TO.P,J1,3,Pin_3*%
%TO.N,/B*%
X102222627Y-60870000D03*
%TO.P,J1,2,Pin_2*%
%TO.N,/DIG0*%
X104762627Y-58330000D03*
D13*
%TO.P,J1,1,Pin_1*%
%TO.N,/A*%
X104762627Y-60870000D03*
%TD*%
D14*
%TO.P,H2,1*%
%TO.N,N/C*%
X115268612Y-59602612D03*
%TD*%
%TO.P,H1,1*%
%TO.N,N/C*%
X76495612Y-59571212D03*
%TD*%
D10*
%TO.P,U2,1,E*%
%TO.N,/E*%
X82502612Y-63463412D03*
D11*
%TO.P,U2,2,D*%
%TO.N,/D*%
X85042612Y-63463412D03*
%TO.P,U2,3,C*%
%TO.N,/C*%
X87582612Y-63463412D03*
%TO.P,U2,4,G*%
%TO.N,/G*%
X90122612Y-63463412D03*
%TO.P,U2,5,DP*%
%TO.N,/DP*%
X92662612Y-63463412D03*
%TO.P,U2,6,CC_DIG2*%
%TO.N,/DIG0*%
X92662612Y-55843412D03*
%TO.P,U2,7,A*%
%TO.N,/A*%
X90122612Y-55843412D03*
%TO.P,U2,8,B*%
%TO.N,/B*%
X87582612Y-55843412D03*
%TO.P,U2,9,CC_DIG1*%
%TO.N,/DIG1*%
X85042612Y-55843412D03*
%TO.P,U2,10,F*%
%TO.N,/F*%
X82502612Y-55843412D03*
%TD*%
D15*
%TO.N,/A*%
X103860212Y-54290212D02*
X105413412Y-55843412D01*
X89649712Y-55868812D02*
X90122612Y-55868812D01*
X90122612Y-55868812D02*
X91701212Y-54290212D01*
X91701212Y-54290212D02*
X103860212Y-54290212D01*
%TO.N,/B*%
X88895612Y-59601212D02*
X100953839Y-59601212D01*
X100953839Y-59601212D02*
X102222627Y-60870000D01*
X88225612Y-56511812D02*
X88225612Y-58931212D01*
X88225612Y-58931212D02*
X88895612Y-59601212D01*
X87582612Y-55868812D02*
X88225612Y-56511812D01*
%TO.N,/C*%
X99682627Y-60870000D02*
X100280000Y-60870000D01*
X87582612Y-63488812D02*
X88810212Y-62261212D01*
X88054312Y-63488812D02*
X87582612Y-63488812D01*
X88810212Y-62261212D02*
X98291415Y-62261212D01*
X98291415Y-62261212D02*
X99682627Y-60870000D01*
%TO.N,/D*%
X85042612Y-63488812D02*
X86569612Y-65015812D01*
X86569612Y-65015812D02*
X105921012Y-65015812D01*
X101645612Y-62151212D02*
X100333412Y-63463412D01*
X106625612Y-64311212D02*
X106625612Y-62871212D01*
X105905612Y-62151212D02*
X101645612Y-62151212D01*
X106625612Y-62871212D02*
X105905612Y-62151212D01*
X105921012Y-65015812D02*
X106625612Y-64311212D01*
%TO.N,/G*%
X104869412Y-63463412D02*
X105413412Y-63463412D01*
X90122612Y-63488812D02*
X91198612Y-64564812D01*
X91198612Y-64564812D02*
X104312012Y-64564812D01*
X104312012Y-64564812D02*
X105413412Y-63463412D01*
%TO.N,/DIG0*%
X92662612Y-55868812D02*
X93790212Y-54741212D01*
X103555612Y-54741212D02*
X104337412Y-55523012D01*
X104337412Y-57904785D02*
X104762627Y-58330000D01*
X93790212Y-54741212D02*
X103555612Y-54741212D01*
X92662612Y-55868812D02*
X92234412Y-55868812D01*
X104337412Y-55523012D02*
X104337412Y-57904785D01*
%TO.N,/DIG1*%
X88885612Y-56361212D02*
X89635612Y-57111212D01*
X86360212Y-54551212D02*
X87975612Y-54551212D01*
X89635612Y-57111212D02*
X101003839Y-57111212D01*
X101003839Y-57111212D02*
X102222627Y-58330000D01*
X87975612Y-54551212D02*
X88885612Y-55461212D01*
X88885612Y-55461212D02*
X88885612Y-56361212D01*
X85042612Y-55868812D02*
X86360212Y-54551212D01*
%TD*%
%TA.AperFunction,NonConductor*%
G36*
X96517133Y-55394714D02*
G01*
X96563626Y-55448370D01*
X96573730Y-55518644D01*
X96568846Y-55539643D01*
X96567457Y-55543919D01*
X96565900Y-55548710D01*
X96565900Y-55548712D01*
X96534912Y-55744366D01*
X96534912Y-55942458D01*
X96560923Y-56106685D01*
X96565901Y-56138117D01*
X96622652Y-56312776D01*
X96624680Y-56383743D01*
X96588017Y-56444541D01*
X96524305Y-56475867D01*
X96502819Y-56477712D01*
X93953205Y-56477712D01*
X93885084Y-56457710D01*
X93838591Y-56404054D01*
X93828487Y-56333780D01*
X93833372Y-56312776D01*
X93890124Y-56138112D01*
X93921112Y-55942458D01*
X93921112Y-55744366D01*
X93898593Y-55602184D01*
X93899305Y-55596672D01*
X93897363Y-55591464D01*
X93903807Y-55561842D01*
X93907693Y-55531775D01*
X93911586Y-55526080D01*
X93912455Y-55522090D01*
X93933947Y-55493380D01*
X94015712Y-55411616D01*
X94078025Y-55377591D01*
X94104807Y-55374712D01*
X96449012Y-55374712D01*
X96517133Y-55394714D01*
G37*
%TD.AperFunction*%
%TA.AperFunction,NonConductor*%
G36*
X101676010Y-56297537D02*
G01*
X101715676Y-56343314D01*
X101797046Y-56503010D01*
X101797048Y-56503013D01*
X101913483Y-56663272D01*
X102032358Y-56782147D01*
X102037396Y-56791373D01*
X102045681Y-56797849D01*
X102054121Y-56822002D01*
X102066384Y-56844459D01*
X102065633Y-56854946D01*
X102069102Y-56864871D01*
X102063144Y-56889752D01*
X102061319Y-56915274D01*
X102055018Y-56923690D01*
X102052570Y-56933916D01*
X102034104Y-56951628D01*
X102018772Y-56972110D01*
X102007560Y-56977089D01*
X102001333Y-56983063D01*
X101973436Y-56992246D01*
X101967478Y-56994893D01*
X101965209Y-56995337D01*
X101904511Y-57004951D01*
X101886903Y-57010671D01*
X101879422Y-57012137D01*
X101851350Y-57009541D01*
X101823170Y-57010345D01*
X101816092Y-57006281D01*
X101808727Y-57005600D01*
X101791617Y-56992226D01*
X101766113Y-56977582D01*
X101434599Y-56646068D01*
X101400574Y-56583756D01*
X101405639Y-56512940D01*
X101411422Y-56499782D01*
X101491146Y-56343314D01*
X101539893Y-56291702D01*
X101608808Y-56274636D01*
X101676010Y-56297537D01*
G37*
%TD.AperFunction*%
%TA.AperFunction,NonConductor*%
G36*
X103656270Y-56939641D02*
G01*
X103697177Y-56997668D01*
X103703912Y-57038312D01*
X103703912Y-57435037D01*
X103697877Y-57455590D01*
X103696726Y-57476980D01*
X103685040Y-57499307D01*
X103683910Y-57503158D01*
X103680139Y-57508671D01*
X103680096Y-57508755D01*
X103679893Y-57509035D01*
X103600733Y-57617991D01*
X103599391Y-57620623D01*
X103594811Y-57626973D01*
X103570368Y-57645952D01*
X103547414Y-57666721D01*
X103542593Y-57667519D01*
X103538735Y-57670516D01*
X103507903Y-57673268D01*
X103477372Y-57678328D01*
X103472886Y-57676394D01*
X103468020Y-57676829D01*
X103440598Y-57662477D01*
X103412174Y-57650226D01*
X103409444Y-57646173D01*
X103405117Y-57643908D01*
X103387491Y-57621951D01*
X103387431Y-57621996D01*
X103386512Y-57620731D01*
X103385193Y-57619088D01*
X103384523Y-57617996D01*
X103384521Y-57617991D01*
X103258833Y-57444996D01*
X103258830Y-57444993D01*
X103258828Y-57444990D01*
X103107639Y-57293801D01*
X103104795Y-57291372D01*
X103065986Y-57231921D01*
X103065480Y-57160926D01*
X103103436Y-57100928D01*
X103163462Y-57072739D01*
X103163304Y-57072078D01*
X103166508Y-57071308D01*
X103166928Y-57071111D01*
X103168112Y-57070924D01*
X103356509Y-57009710D01*
X103520711Y-56926044D01*
X103590486Y-56912941D01*
X103656270Y-56939641D01*
G37*
%TD.AperFunction*%
%TA.AperFunction,NonConductor*%
G36*
X103573072Y-59009766D02*
G01*
X103597648Y-59038130D01*
X103597823Y-59038004D01*
X103599295Y-59040030D01*
X103600066Y-59040920D01*
X103600732Y-59042007D01*
X103600733Y-59042009D01*
X103726421Y-59215004D01*
X103726423Y-59215006D01*
X103726425Y-59215009D01*
X103881123Y-59369707D01*
X103879874Y-59370955D01*
X103914521Y-59424007D01*
X103915041Y-59495002D01*
X103877096Y-59555008D01*
X103845721Y-59573025D01*
X103846541Y-59574783D01*
X103839893Y-59577883D01*
X103839890Y-59577884D01*
X103839889Y-59577885D01*
X103804035Y-59600000D01*
X103688974Y-59670970D01*
X103688968Y-59670975D01*
X103563602Y-59796341D01*
X103563597Y-59796347D01*
X103470510Y-59947266D01*
X103467410Y-59953914D01*
X103464560Y-59952585D01*
X103432083Y-59999366D01*
X103366492Y-60026538D01*
X103296623Y-60013936D01*
X103263117Y-59987712D01*
X103262334Y-59988496D01*
X103107636Y-59833798D01*
X103107633Y-59833796D01*
X103107631Y-59833794D01*
X102934636Y-59708106D01*
X102934634Y-59708105D01*
X102933547Y-59707439D01*
X102933218Y-59707075D01*
X102930631Y-59705196D01*
X102931025Y-59704652D01*
X102885910Y-59654796D01*
X102874297Y-59584756D01*
X102902393Y-59519555D01*
X102930757Y-59494978D01*
X102930631Y-59494804D01*
X102932657Y-59493331D01*
X102933547Y-59492561D01*
X102934624Y-59491899D01*
X102934636Y-59491894D01*
X103107631Y-59366206D01*
X103258833Y-59215004D01*
X103384521Y-59042009D01*
X103384526Y-59041997D01*
X103385188Y-59040920D01*
X103385551Y-59040591D01*
X103387431Y-59038004D01*
X103387974Y-59038398D01*
X103437831Y-58993283D01*
X103507871Y-58981670D01*
X103573072Y-59009766D01*
G37*
%TD.AperFunction*%
%TA.AperFunction,NonConductor*%
G36*
X87858195Y-59465694D02*
G01*
X87907103Y-59517158D01*
X87914604Y-59556433D01*
X88019758Y-59632832D01*
X88027525Y-59638955D01*
X88035054Y-59645385D01*
X88042321Y-59652103D01*
X88200524Y-59810306D01*
X88207242Y-59817573D01*
X88213672Y-59825102D01*
X88219795Y-59832869D01*
X88351303Y-60013874D01*
X88356801Y-60022102D01*
X88360061Y-60027422D01*
X88252627Y-60093255D01*
X88248626Y-60090803D01*
X88194546Y-60152085D01*
X88043178Y-60018505D01*
X88018833Y-59984996D01*
X87867631Y-59833794D01*
X87694636Y-59708106D01*
X87687091Y-59704261D01*
X87675999Y-59694473D01*
X87638158Y-59634402D01*
X87638801Y-59563408D01*
X87677724Y-59504032D01*
X87686455Y-59497242D01*
X87692350Y-59493058D01*
X87694636Y-59491894D01*
X87721602Y-59472301D01*
X87722098Y-59471950D01*
X87789228Y-59448841D01*
X87858195Y-59465694D01*
G37*
%TD.AperFunction*%
%TA.AperFunction,NonConductor*%
G36*
X100965932Y-61521991D02*
G01*
X100967871Y-61521670D01*
X100998801Y-61534998D01*
X101030120Y-61547392D01*
X101031927Y-61549272D01*
X101033072Y-61549766D01*
X101039207Y-61556846D01*
X101054972Y-61573249D01*
X101059439Y-61579469D01*
X101060733Y-61582009D01*
X101106371Y-61644825D01*
X101106531Y-61645047D01*
X101118152Y-61678198D01*
X101129980Y-61711348D01*
X101129897Y-61711702D01*
X101130018Y-61712046D01*
X101121858Y-61746273D01*
X101113900Y-61780500D01*
X101113639Y-61780753D01*
X101113555Y-61781107D01*
X101093281Y-61807637D01*
X100705369Y-62195549D01*
X100643057Y-62229575D01*
X100596564Y-62230903D01*
X100540646Y-62222047D01*
X100506334Y-62216612D01*
X100442182Y-62186201D01*
X100404655Y-62125933D01*
X100405668Y-62054944D01*
X100444900Y-61995772D01*
X100451984Y-61990228D01*
X100567631Y-61906206D01*
X100718833Y-61755004D01*
X100844521Y-61582009D01*
X100844526Y-61581997D01*
X100845188Y-61580920D01*
X100845551Y-61580591D01*
X100847431Y-61578004D01*
X100847974Y-61578398D01*
X100870154Y-61558327D01*
X100894445Y-61534981D01*
X100896374Y-61534601D01*
X100897831Y-61533283D01*
X100931048Y-61527775D01*
X100964105Y-61521268D01*
X100965932Y-61521991D01*
G37*
%TD.AperFunction*%
%TA.AperFunction,NonConductor*%
G36*
X88333072Y-61549766D02*
G01*
X88357648Y-61578129D01*
X88357823Y-61578003D01*
X88359300Y-61580036D01*
X88360066Y-61580920D01*
X88360730Y-61582004D01*
X88360733Y-61582009D01*
X88395434Y-61629771D01*
X88419291Y-61696636D01*
X88403211Y-61765788D01*
X88382593Y-61792925D01*
X87976497Y-62199022D01*
X87914184Y-62233047D01*
X87867692Y-62234376D01*
X87828883Y-62228229D01*
X87797243Y-62223218D01*
X87733090Y-62192808D01*
X87695563Y-62132540D01*
X87696576Y-62061550D01*
X87735808Y-62002378D01*
X87742892Y-61996834D01*
X87751984Y-61990228D01*
X87867631Y-61906206D01*
X88018833Y-61755004D01*
X88144521Y-61582009D01*
X88144526Y-61581997D01*
X88145188Y-61580920D01*
X88145551Y-61580591D01*
X88147431Y-61578004D01*
X88147974Y-61578398D01*
X88197831Y-61533283D01*
X88267871Y-61521670D01*
X88333072Y-61549766D01*
G37*
%TD.AperFunction*%
%TA.AperFunction,NonConductor*%
G36*
X99354141Y-62191679D02*
G01*
X99364511Y-62195049D01*
X99534975Y-62222048D01*
X99599126Y-62252459D01*
X99636653Y-62312728D01*
X99635639Y-62383717D01*
X99596406Y-62442889D01*
X99589328Y-62448428D01*
X99532000Y-62490080D01*
X99513547Y-62503487D01*
X99373483Y-62643551D01*
X99279848Y-62772429D01*
X99223625Y-62815783D01*
X99152889Y-62821858D01*
X99090097Y-62788726D01*
X99055186Y-62726906D01*
X99051912Y-62698368D01*
X99051912Y-62664779D01*
X99051911Y-62664762D01*
X99045402Y-62604215D01*
X99045401Y-62604210D01*
X99026486Y-62553499D01*
X99019072Y-62533623D01*
X99014007Y-62462809D01*
X99048029Y-62400500D01*
X99226113Y-62222416D01*
X99239682Y-62215007D01*
X99250141Y-62203612D01*
X99270211Y-62198336D01*
X99288423Y-62188392D01*
X99304908Y-62189216D01*
X99318805Y-62185564D01*
X99354141Y-62191679D01*
G37*
%TD.AperFunction*%
%TA.AperFunction,NonConductor*%
G36*
X96477033Y-62914714D02*
G01*
X96523526Y-62968370D01*
X96534912Y-63020712D01*
X96534912Y-63805312D01*
X96514910Y-63873433D01*
X96461254Y-63919926D01*
X96408912Y-63931312D01*
X94007272Y-63931312D01*
X93939151Y-63911310D01*
X93892658Y-63857654D01*
X93882554Y-63787380D01*
X93887439Y-63766375D01*
X93890124Y-63758112D01*
X93921112Y-63562458D01*
X93921112Y-63364366D01*
X93890124Y-63168712D01*
X93854687Y-63059648D01*
X93852659Y-62988681D01*
X93889322Y-62927883D01*
X93953034Y-62896557D01*
X93974520Y-62894712D01*
X96408912Y-62894712D01*
X96477033Y-62914714D01*
G37*
%TD.AperFunction*%
%TA.AperFunction,NonConductor*%
G36*
X88925210Y-63917537D02*
G01*
X88964876Y-63963314D01*
X89046246Y-64123010D01*
X89046248Y-64123013D01*
X89089287Y-64182251D01*
X89113146Y-64249119D01*
X89097065Y-64318270D01*
X89046151Y-64367750D01*
X88987351Y-64382312D01*
X88717873Y-64382312D01*
X88649752Y-64362310D01*
X88603259Y-64308654D01*
X88593155Y-64238380D01*
X88615937Y-64182251D01*
X88636176Y-64154394D01*
X88658978Y-64123010D01*
X88740346Y-63963314D01*
X88789093Y-63911702D01*
X88858008Y-63894636D01*
X88925210Y-63917537D01*
G37*
%TD.AperFunction*%
%TA.AperFunction,NonConductor*%
G36*
X115618143Y-53631814D02*
G01*
X116047411Y-53649113D01*
X116052695Y-53649438D01*
X116149380Y-53657450D01*
X116154024Y-53657924D01*
X116530459Y-53703633D01*
X116535942Y-53704423D01*
X116590882Y-53713591D01*
X116630355Y-53720179D01*
X116634797Y-53721002D01*
X117007724Y-53797136D01*
X117013435Y-53798441D01*
X117104374Y-53821470D01*
X117108332Y-53822545D01*
X117476130Y-53929079D01*
X117481933Y-53930914D01*
X117567925Y-53960435D01*
X117571600Y-53961763D01*
X117932531Y-54098647D01*
X117938370Y-54101033D01*
X118018048Y-54135983D01*
X118021403Y-54137514D01*
X118373791Y-54304725D01*
X118379745Y-54307746D01*
X118451759Y-54346718D01*
X118454777Y-54348406D01*
X118797074Y-54546031D01*
X118802989Y-54549667D01*
X118866184Y-54590955D01*
X118868788Y-54592703D01*
X119008131Y-54688885D01*
X119199517Y-54820990D01*
X119205330Y-54825253D01*
X119258533Y-54866663D01*
X119260713Y-54868400D01*
X119450737Y-55023551D01*
X119578417Y-55127799D01*
X119584067Y-55132698D01*
X119626077Y-55171371D01*
X119627985Y-55173166D01*
X119931289Y-55464494D01*
X119936680Y-55470001D01*
X119966488Y-55502382D01*
X119968056Y-55504118D01*
X120180900Y-55744369D01*
X120255672Y-55828769D01*
X120260789Y-55834929D01*
X120277461Y-55856348D01*
X120278746Y-55858029D01*
X120332698Y-55929825D01*
X120549488Y-56218321D01*
X120554240Y-56225097D01*
X120556922Y-56229202D01*
X120557934Y-56230776D01*
X120808595Y-56627164D01*
X120813669Y-56635952D01*
X121033485Y-57054779D01*
X121037834Y-57063946D01*
X121223226Y-57499076D01*
X121226825Y-57508564D01*
X121376609Y-57957223D01*
X121379431Y-57966966D01*
X121383559Y-57983712D01*
X121492629Y-58426227D01*
X121494658Y-58436169D01*
X121570530Y-58903032D01*
X121571753Y-58913105D01*
X121607213Y-59352355D01*
X121608719Y-59371013D01*
X121609813Y-59384558D01*
X121610222Y-59394697D01*
X121610222Y-59867702D01*
X121609813Y-59877841D01*
X121571753Y-60349294D01*
X121570530Y-60359367D01*
X121494658Y-60826230D01*
X121492629Y-60836172D01*
X121379432Y-61295430D01*
X121376609Y-61305176D01*
X121226825Y-61753835D01*
X121223226Y-61763323D01*
X121037834Y-62198453D01*
X121033485Y-62207620D01*
X120813669Y-62626447D01*
X120808595Y-62635235D01*
X120557944Y-63031608D01*
X120556922Y-63033197D01*
X120554230Y-63037316D01*
X120549488Y-63044077D01*
X120278761Y-63404350D01*
X120277461Y-63406050D01*
X120260789Y-63427469D01*
X120255672Y-63433629D01*
X119968099Y-63758233D01*
X119966488Y-63760016D01*
X119936680Y-63792397D01*
X119931261Y-63797933D01*
X119628022Y-64089198D01*
X119626077Y-64091027D01*
X119584067Y-64129700D01*
X119578417Y-64134599D01*
X119260766Y-64393955D01*
X119258467Y-64395788D01*
X119205330Y-64437145D01*
X119199517Y-64441408D01*
X118868816Y-64669676D01*
X118866155Y-64671463D01*
X118802989Y-64712731D01*
X118797074Y-64716367D01*
X118454790Y-64913985D01*
X118451759Y-64915680D01*
X118379745Y-64954652D01*
X118373791Y-64957673D01*
X118021424Y-65124874D01*
X118018024Y-65126426D01*
X117938417Y-65161346D01*
X117932482Y-65163771D01*
X117571655Y-65300615D01*
X117567887Y-65301976D01*
X117481947Y-65331479D01*
X117476091Y-65333331D01*
X117108431Y-65439826D01*
X117104305Y-65440946D01*
X117013441Y-65463955D01*
X117007714Y-65465264D01*
X116634818Y-65541392D01*
X116630355Y-65542219D01*
X116535957Y-65557972D01*
X116530405Y-65558772D01*
X116154094Y-65604466D01*
X116149310Y-65604955D01*
X116052718Y-65612958D01*
X116047388Y-65613286D01*
X115617546Y-65630610D01*
X115612472Y-65630712D01*
X106506206Y-65630712D01*
X106438085Y-65610710D01*
X106391592Y-65557054D01*
X106381488Y-65486780D01*
X106410982Y-65422200D01*
X106417111Y-65415617D01*
X106707854Y-65124874D01*
X107117683Y-64715045D01*
X107187012Y-64611287D01*
X107187011Y-64611287D01*
X107187578Y-64610440D01*
X107242054Y-64564912D01*
X107312497Y-64556063D01*
X107349540Y-64568172D01*
X107470315Y-64629710D01*
X107658712Y-64690924D01*
X107854366Y-64721912D01*
X107854369Y-64721912D01*
X108052455Y-64721912D01*
X108052458Y-64721912D01*
X108248112Y-64690924D01*
X108436509Y-64629710D01*
X108613010Y-64539778D01*
X108773270Y-64423342D01*
X108913342Y-64283270D01*
X109029778Y-64123010D01*
X109119710Y-63946509D01*
X109180924Y-63758112D01*
X109211912Y-63562458D01*
X109211912Y-63364366D01*
X109180924Y-63168712D01*
X109119710Y-62980315D01*
X109029778Y-62803814D01*
X108913342Y-62643554D01*
X108913340Y-62643551D01*
X108773272Y-62503483D01*
X108613013Y-62387048D01*
X108613012Y-62387047D01*
X108613010Y-62387046D01*
X108436509Y-62297114D01*
X108248112Y-62235900D01*
X108052458Y-62204912D01*
X107854366Y-62204912D01*
X107658712Y-62235900D01*
X107658709Y-62235900D01*
X107658708Y-62235901D01*
X107470315Y-62297114D01*
X107470313Y-62297115D01*
X107293811Y-62387047D01*
X107232333Y-62431714D01*
X107165465Y-62455572D01*
X107096314Y-62439491D01*
X107069178Y-62418873D01*
X106879880Y-62229575D01*
X106309445Y-61659141D01*
X106205687Y-61589812D01*
X106205688Y-61589812D01*
X106205686Y-61589811D01*
X106205681Y-61589809D01*
X106198907Y-61587003D01*
X106143626Y-61542455D01*
X106121206Y-61475091D01*
X106121126Y-61470649D01*
X106121126Y-60219456D01*
X106110514Y-60115574D01*
X106054742Y-59947262D01*
X105961657Y-59796348D01*
X105961656Y-59796347D01*
X105961651Y-59796341D01*
X105836285Y-59670975D01*
X105836279Y-59670970D01*
X105794799Y-59645385D01*
X105685365Y-59577885D01*
X105685361Y-59577883D01*
X105685360Y-59577883D01*
X105678713Y-59574783D01*
X105679641Y-59572791D01*
X105660512Y-59558376D01*
X105633300Y-59539505D01*
X105632314Y-59537128D01*
X105630259Y-59535580D01*
X105618784Y-59504516D01*
X105606094Y-59473928D01*
X105606549Y-59471395D01*
X105605658Y-59468982D01*
X105612800Y-59436642D01*
X105615718Y-59420418D01*
X111560112Y-59420418D01*
X111560112Y-59784805D01*
X111595825Y-60147402D01*
X111595828Y-60147423D01*
X111666909Y-60504777D01*
X111666912Y-60504788D01*
X111666913Y-60504791D01*
X111694134Y-60594526D01*
X111772683Y-60853470D01*
X111772684Y-60853473D01*
X111912125Y-61190112D01*
X112083891Y-61511463D01*
X112286321Y-61814422D01*
X112517480Y-62096091D01*
X112517497Y-62096109D01*
X112775114Y-62353726D01*
X112775132Y-62353743D01*
X112994319Y-62533625D01*
X113056801Y-62584902D01*
X113269326Y-62726906D01*
X113359763Y-62787334D01*
X113681112Y-62959099D01*
X114017749Y-63098539D01*
X114366433Y-63204311D01*
X114366442Y-63204312D01*
X114366446Y-63204314D01*
X114487686Y-63228429D01*
X114723806Y-63275397D01*
X115086425Y-63311112D01*
X115086434Y-63311112D01*
X115450790Y-63311112D01*
X115450799Y-63311112D01*
X115813418Y-63275397D01*
X116107769Y-63216846D01*
X116170777Y-63204314D01*
X116170779Y-63204313D01*
X116170791Y-63204311D01*
X116519475Y-63098539D01*
X116856112Y-62959099D01*
X117177461Y-62787334D01*
X117480427Y-62584899D01*
X117762092Y-62353743D01*
X118019743Y-62096092D01*
X118250899Y-61814427D01*
X118453334Y-61511461D01*
X118625099Y-61190112D01*
X118764539Y-60853475D01*
X118870311Y-60504791D01*
X118941397Y-60147418D01*
X118977112Y-59784799D01*
X118977112Y-59420425D01*
X118941397Y-59057806D01*
X118870311Y-58700433D01*
X118764539Y-58351749D01*
X118625099Y-58015112D01*
X118453334Y-57693763D01*
X118420022Y-57643908D01*
X118250902Y-57390801D01*
X118225129Y-57359397D01*
X118019743Y-57109132D01*
X118019726Y-57109114D01*
X117762109Y-56851497D01*
X117762091Y-56851480D01*
X117511795Y-56646068D01*
X117480427Y-56620325D01*
X117480426Y-56620324D01*
X117480422Y-56620321D01*
X117177463Y-56417891D01*
X116856112Y-56246125D01*
X116519473Y-56106684D01*
X116519470Y-56106683D01*
X116245346Y-56023529D01*
X116170791Y-56000913D01*
X116170788Y-56000912D01*
X116170777Y-56000909D01*
X115813423Y-55929828D01*
X115813418Y-55929827D01*
X115813411Y-55929826D01*
X115813402Y-55929825D01*
X115450805Y-55894112D01*
X115450799Y-55894112D01*
X115086425Y-55894112D01*
X115086418Y-55894112D01*
X114723821Y-55929825D01*
X114723809Y-55929826D01*
X114723806Y-55929827D01*
X114723803Y-55929827D01*
X114723800Y-55929828D01*
X114366446Y-56000909D01*
X114017753Y-56106683D01*
X114017750Y-56106684D01*
X113681111Y-56246125D01*
X113359760Y-56417891D01*
X113056801Y-56620321D01*
X112775132Y-56851480D01*
X112775114Y-56851497D01*
X112517497Y-57109114D01*
X112517480Y-57109132D01*
X112286321Y-57390801D01*
X112083891Y-57693760D01*
X111912125Y-58015111D01*
X111772684Y-58351750D01*
X111772683Y-58351753D01*
X111666909Y-58700446D01*
X111595828Y-59057800D01*
X111595825Y-59057821D01*
X111560112Y-59420418D01*
X105615718Y-59420418D01*
X105618662Y-59404052D01*
X105620585Y-59401392D01*
X105620969Y-59399655D01*
X105628721Y-59390139D01*
X105642552Y-59371013D01*
X105646732Y-59366858D01*
X105647631Y-59366206D01*
X105685724Y-59328112D01*
X105685883Y-59327955D01*
X105798828Y-59215009D01*
X105798833Y-59215004D01*
X105924521Y-59042009D01*
X106021599Y-58851483D01*
X106087676Y-58648116D01*
X106121127Y-58436916D01*
X106121127Y-58223084D01*
X106087676Y-58011884D01*
X106021599Y-57808517D01*
X105924521Y-57617991D01*
X105798833Y-57444996D01*
X105798830Y-57444993D01*
X105798828Y-57444990D01*
X105647639Y-57293801D01*
X105644795Y-57291372D01*
X105605986Y-57231921D01*
X105605480Y-57160926D01*
X105643436Y-57100928D01*
X105703462Y-57072739D01*
X105703304Y-57072078D01*
X105706508Y-57071308D01*
X105706928Y-57071111D01*
X105708112Y-57070924D01*
X105896509Y-57009710D01*
X106073010Y-56919778D01*
X106233270Y-56803342D01*
X106373342Y-56663270D01*
X106489778Y-56503010D01*
X106571146Y-56343314D01*
X106619893Y-56291702D01*
X106688808Y-56274636D01*
X106756010Y-56297537D01*
X106795676Y-56343314D01*
X106877046Y-56503010D01*
X106877048Y-56503013D01*
X106993483Y-56663272D01*
X107133551Y-56803340D01*
X107204581Y-56854946D01*
X107293814Y-56919778D01*
X107470315Y-57009710D01*
X107658712Y-57070924D01*
X107854366Y-57101912D01*
X107854369Y-57101912D01*
X108052455Y-57101912D01*
X108052458Y-57101912D01*
X108248112Y-57070924D01*
X108436509Y-57009710D01*
X108613010Y-56919778D01*
X108773270Y-56803342D01*
X108913342Y-56663270D01*
X109029778Y-56503010D01*
X109119710Y-56326509D01*
X109180924Y-56138112D01*
X109211912Y-55942458D01*
X109211912Y-55744366D01*
X109180924Y-55548712D01*
X109119710Y-55360315D01*
X109029778Y-55183814D01*
X108913342Y-55023554D01*
X108913340Y-55023551D01*
X108773272Y-54883483D01*
X108613013Y-54767048D01*
X108613012Y-54767047D01*
X108613010Y-54767046D01*
X108436509Y-54677114D01*
X108248112Y-54615900D01*
X108052458Y-54584912D01*
X107854366Y-54584912D01*
X107658712Y-54615900D01*
X107658709Y-54615900D01*
X107658708Y-54615901D01*
X107470315Y-54677114D01*
X107470313Y-54677115D01*
X107293810Y-54767048D01*
X107133551Y-54883483D01*
X106993483Y-55023551D01*
X106877048Y-55183810D01*
X106877046Y-55183814D01*
X106817783Y-55300125D01*
X106795679Y-55343506D01*
X106746931Y-55395121D01*
X106678016Y-55412187D01*
X106610814Y-55389286D01*
X106571145Y-55343506D01*
X106489778Y-55183814D01*
X106373342Y-55023554D01*
X106373340Y-55023551D01*
X106233272Y-54883483D01*
X106073013Y-54767048D01*
X106073012Y-54767047D01*
X106073010Y-54767046D01*
X105896509Y-54677114D01*
X105708112Y-54615900D01*
X105512458Y-54584912D01*
X105314366Y-54584912D01*
X105150257Y-54610903D01*
X105079848Y-54601804D01*
X105041454Y-54575550D01*
X104312711Y-53846807D01*
X104278685Y-53784495D01*
X104283750Y-53713680D01*
X104326297Y-53656844D01*
X104392817Y-53632033D01*
X104401806Y-53631712D01*
X110615405Y-53631712D01*
X115613069Y-53631712D01*
X115618143Y-53631814D01*
G37*
%TD.AperFunction*%
%TA.AperFunction,NonConductor*%
G36*
X91227738Y-53651714D02*
G01*
X91274231Y-53705370D01*
X91284335Y-53775644D01*
X91254841Y-53840224D01*
X91248725Y-53846793D01*
X90790794Y-54304725D01*
X90516496Y-54579023D01*
X90454184Y-54613048D01*
X90407691Y-54614376D01*
X90328312Y-54601804D01*
X90221658Y-54584912D01*
X90023566Y-54584912D01*
X89827912Y-54615900D01*
X89827909Y-54615900D01*
X89827908Y-54615901D01*
X89639515Y-54677114D01*
X89639513Y-54677115D01*
X89463010Y-54767048D01*
X89332493Y-54861874D01*
X89265625Y-54885733D01*
X89196473Y-54869652D01*
X89169337Y-54849033D01*
X88379447Y-54059143D01*
X88379445Y-54059141D01*
X88275687Y-53989812D01*
X88160397Y-53942057D01*
X88086698Y-53927397D01*
X88038008Y-53917712D01*
X88038006Y-53917712D01*
X86422606Y-53917712D01*
X86297818Y-53917712D01*
X86297815Y-53917712D01*
X86175426Y-53942057D01*
X86175421Y-53942059D01*
X86060136Y-53989811D01*
X85956383Y-54059137D01*
X85956381Y-54059138D01*
X85436496Y-54579023D01*
X85374184Y-54613048D01*
X85327691Y-54614376D01*
X85248312Y-54601804D01*
X85141658Y-54584912D01*
X84943566Y-54584912D01*
X84747912Y-54615900D01*
X84747909Y-54615900D01*
X84747908Y-54615901D01*
X84559515Y-54677114D01*
X84559513Y-54677115D01*
X84383010Y-54767048D01*
X84222751Y-54883483D01*
X84082683Y-55023551D01*
X83966248Y-55183810D01*
X83966246Y-55183814D01*
X83906983Y-55300125D01*
X83884879Y-55343506D01*
X83836131Y-55395121D01*
X83767216Y-55412187D01*
X83700014Y-55389286D01*
X83660345Y-55343506D01*
X83578978Y-55183814D01*
X83462542Y-55023554D01*
X83462540Y-55023551D01*
X83322472Y-54883483D01*
X83162213Y-54767048D01*
X83162212Y-54767047D01*
X83162210Y-54767046D01*
X82985709Y-54677114D01*
X82797312Y-54615900D01*
X82601658Y-54584912D01*
X82403566Y-54584912D01*
X82207912Y-54615900D01*
X82207909Y-54615900D01*
X82207908Y-54615901D01*
X82019515Y-54677114D01*
X82019513Y-54677115D01*
X81843010Y-54767048D01*
X81682751Y-54883483D01*
X81542683Y-55023551D01*
X81426248Y-55183810D01*
X81336315Y-55360313D01*
X81336314Y-55360315D01*
X81282454Y-55526080D01*
X81275100Y-55548712D01*
X81244112Y-55744366D01*
X81244112Y-55942458D01*
X81275100Y-56138112D01*
X81336314Y-56326509D01*
X81426246Y-56503010D01*
X81426248Y-56503013D01*
X81542683Y-56663272D01*
X81682751Y-56803340D01*
X81753781Y-56854946D01*
X81843014Y-56919778D01*
X82019515Y-57009710D01*
X82207912Y-57070924D01*
X82403566Y-57101912D01*
X82403569Y-57101912D01*
X82601655Y-57101912D01*
X82601658Y-57101912D01*
X82797312Y-57070924D01*
X82985709Y-57009710D01*
X83162210Y-56919778D01*
X83322470Y-56803342D01*
X83462542Y-56663270D01*
X83578978Y-56503010D01*
X83660346Y-56343314D01*
X83709093Y-56291702D01*
X83778008Y-56274636D01*
X83845210Y-56297537D01*
X83884876Y-56343314D01*
X83966246Y-56503010D01*
X83966248Y-56503013D01*
X84082683Y-56663272D01*
X84222751Y-56803340D01*
X84293781Y-56854946D01*
X84383014Y-56919778D01*
X84559515Y-57009710D01*
X84747912Y-57070924D01*
X84943566Y-57101912D01*
X84943569Y-57101912D01*
X85141655Y-57101912D01*
X85141658Y-57101912D01*
X85337312Y-57070924D01*
X85525709Y-57009710D01*
X85702210Y-56919778D01*
X85862470Y-56803342D01*
X86002542Y-56663270D01*
X86118978Y-56503010D01*
X86200346Y-56343314D01*
X86249093Y-56291702D01*
X86318008Y-56274636D01*
X86385210Y-56297537D01*
X86424876Y-56343314D01*
X86506246Y-56503010D01*
X86506248Y-56503013D01*
X86622683Y-56663272D01*
X86748504Y-56789093D01*
X86782530Y-56851405D01*
X86777465Y-56922220D01*
X86734918Y-56979056D01*
X86679125Y-57002636D01*
X86664508Y-57004951D01*
X86664506Y-57004952D01*
X86461148Y-57071026D01*
X86461142Y-57071029D01*
X86270614Y-57168108D01*
X86097620Y-57293796D01*
X86097617Y-57293798D01*
X85946425Y-57444990D01*
X85946423Y-57444993D01*
X85820735Y-57617987D01*
X85723656Y-57808515D01*
X85723653Y-57808521D01*
X85657579Y-58011878D01*
X85657578Y-58011883D01*
X85657578Y-58011884D01*
X85624127Y-58223084D01*
X85624127Y-58436916D01*
X85657578Y-58648116D01*
X85657579Y-58648121D01*
X85723653Y-58851478D01*
X85723655Y-58851483D01*
X85820733Y-59042009D01*
X85946421Y-59215004D01*
X85946423Y-59215006D01*
X85946425Y-59215009D01*
X86097617Y-59366201D01*
X86097620Y-59366203D01*
X86097623Y-59366206D01*
X86270618Y-59491894D01*
X86270623Y-59491896D01*
X86271715Y-59492566D01*
X86272045Y-59492931D01*
X86274623Y-59494804D01*
X86274229Y-59495345D01*
X86319348Y-59545213D01*
X86330955Y-59615255D01*
X86302853Y-59680453D01*
X86274497Y-59705023D01*
X86274623Y-59705196D01*
X86272609Y-59706658D01*
X86271715Y-59707434D01*
X86270614Y-59708108D01*
X86097620Y-59833796D01*
X86097617Y-59833798D01*
X85946425Y-59984990D01*
X85946423Y-59984993D01*
X85820735Y-60157987D01*
X85723656Y-60348515D01*
X85723653Y-60348521D01*
X85657579Y-60551878D01*
X85657578Y-60551883D01*
X85657578Y-60551884D01*
X85624127Y-60763084D01*
X85624127Y-60976916D01*
X85652921Y-61158712D01*
X85657579Y-61188121D01*
X85723653Y-61391478D01*
X85723655Y-61391483D01*
X85820733Y-61582009D01*
X85946421Y-61755004D01*
X85946423Y-61755006D01*
X85946425Y-61755009D01*
X86097617Y-61906201D01*
X86097620Y-61906203D01*
X86097623Y-61906206D01*
X86270618Y-62031894D01*
X86461144Y-62128972D01*
X86664505Y-62195047D01*
X86664506Y-62195047D01*
X86664511Y-62195049D01*
X86793267Y-62215442D01*
X86857418Y-62245854D01*
X86894945Y-62306122D01*
X86893931Y-62377111D01*
X86854698Y-62436283D01*
X86847616Y-62441826D01*
X86762747Y-62503487D01*
X86622683Y-62643551D01*
X86506248Y-62803810D01*
X86506246Y-62803814D01*
X86443124Y-62927699D01*
X86424879Y-62963506D01*
X86376131Y-63015121D01*
X86307216Y-63032187D01*
X86240014Y-63009286D01*
X86200345Y-62963506D01*
X86118978Y-62803814D01*
X86002542Y-62643554D01*
X86002540Y-62643551D01*
X85862472Y-62503483D01*
X85702213Y-62387048D01*
X85702212Y-62387047D01*
X85702210Y-62387046D01*
X85525709Y-62297114D01*
X85337312Y-62235900D01*
X85141658Y-62204912D01*
X84943566Y-62204912D01*
X84747912Y-62235900D01*
X84747909Y-62235900D01*
X84747908Y-62235901D01*
X84559515Y-62297114D01*
X84559513Y-62297115D01*
X84383010Y-62387048D01*
X84222751Y-62503483D01*
X84082683Y-62643551D01*
X83989048Y-62772429D01*
X83932825Y-62815783D01*
X83862089Y-62821858D01*
X83799297Y-62788726D01*
X83764386Y-62726906D01*
X83761112Y-62698368D01*
X83761112Y-62664779D01*
X83761111Y-62664762D01*
X83754602Y-62604215D01*
X83754600Y-62604207D01*
X83725536Y-62526287D01*
X83703501Y-62467208D01*
X83703500Y-62467206D01*
X83703499Y-62467204D01*
X83615873Y-62350150D01*
X83498819Y-62262524D01*
X83498814Y-62262522D01*
X83361816Y-62211423D01*
X83361808Y-62211421D01*
X83301261Y-62204912D01*
X83301250Y-62204912D01*
X81703974Y-62204912D01*
X81703962Y-62204912D01*
X81643415Y-62211421D01*
X81643407Y-62211423D01*
X81506409Y-62262522D01*
X81506404Y-62262524D01*
X81389350Y-62350150D01*
X81301724Y-62467204D01*
X81301722Y-62467209D01*
X81250623Y-62604207D01*
X81250621Y-62604215D01*
X81244112Y-62664762D01*
X81244112Y-64262061D01*
X81250621Y-64322608D01*
X81250623Y-64322616D01*
X81301722Y-64459614D01*
X81301724Y-64459619D01*
X81389350Y-64576673D01*
X81506404Y-64664299D01*
X81506406Y-64664300D01*
X81506408Y-64664301D01*
X81529790Y-64673022D01*
X81643407Y-64715400D01*
X81643415Y-64715402D01*
X81703962Y-64721911D01*
X81703967Y-64721911D01*
X81703974Y-64721912D01*
X81703980Y-64721912D01*
X83301244Y-64721912D01*
X83301250Y-64721912D01*
X83301257Y-64721911D01*
X83301261Y-64721911D01*
X83361808Y-64715402D01*
X83361811Y-64715401D01*
X83361813Y-64715401D01*
X83362768Y-64715045D01*
X83380657Y-64708372D01*
X83498816Y-64664301D01*
X83545026Y-64629709D01*
X83615873Y-64576673D01*
X83703499Y-64459619D01*
X83703499Y-64459618D01*
X83703501Y-64459616D01*
X83754601Y-64322613D01*
X83758831Y-64283272D01*
X83761111Y-64262061D01*
X83761112Y-64262044D01*
X83761112Y-64228455D01*
X83781114Y-64160334D01*
X83834770Y-64113841D01*
X83905044Y-64103737D01*
X83969624Y-64133231D01*
X83989047Y-64154393D01*
X84082682Y-64283270D01*
X84082684Y-64283272D01*
X84082686Y-64283275D01*
X84222751Y-64423340D01*
X84272678Y-64459614D01*
X84383014Y-64539778D01*
X84559515Y-64629710D01*
X84747912Y-64690924D01*
X84943566Y-64721912D01*
X84943569Y-64721912D01*
X85141656Y-64721912D01*
X85141658Y-64721912D01*
X85283839Y-64699393D01*
X85354249Y-64708493D01*
X85392643Y-64734747D01*
X86073513Y-65415617D01*
X86107539Y-65477929D01*
X86102474Y-65548744D01*
X86059927Y-65605580D01*
X85993407Y-65630391D01*
X85984418Y-65630712D01*
X76618155Y-65630712D01*
X76613081Y-65630610D01*
X76182224Y-65613246D01*
X76176894Y-65612918D01*
X76083684Y-65605195D01*
X76078900Y-65604706D01*
X75699294Y-65558613D01*
X75693743Y-65557814D01*
X75602707Y-65542623D01*
X75598243Y-65541795D01*
X75222071Y-65464999D01*
X75216344Y-65463690D01*
X75128849Y-65441534D01*
X75124723Y-65440414D01*
X74753759Y-65332962D01*
X74747904Y-65331110D01*
X74665362Y-65302774D01*
X74661593Y-65301413D01*
X74297463Y-65163317D01*
X74291530Y-65160893D01*
X74215287Y-65127450D01*
X74211919Y-65125913D01*
X74054588Y-65051258D01*
X73856243Y-64957142D01*
X73850290Y-64954121D01*
X73781617Y-64916957D01*
X73778586Y-64915262D01*
X73433052Y-64715769D01*
X73427136Y-64712133D01*
X73394670Y-64690922D01*
X73367273Y-64673022D01*
X73364623Y-64671242D01*
X73197757Y-64556063D01*
X73030689Y-64440744D01*
X73024881Y-64436485D01*
X73007992Y-64423340D01*
X72975025Y-64397680D01*
X72972739Y-64395857D01*
X72972654Y-64395788D01*
X72767709Y-64228455D01*
X72651871Y-64133876D01*
X72646231Y-64128986D01*
X72607515Y-64093345D01*
X72605587Y-64091532D01*
X72307599Y-63805312D01*
X72299117Y-63797164D01*
X72293732Y-63791665D01*
X72267058Y-63762689D01*
X72265496Y-63760958D01*
X71974811Y-63432842D01*
X71969693Y-63426682D01*
X71956144Y-63409274D01*
X71954897Y-63407643D01*
X71952422Y-63404350D01*
X71775349Y-63168708D01*
X71681166Y-63043373D01*
X71675402Y-63035023D01*
X71422600Y-62635249D01*
X71417530Y-62626468D01*
X71405848Y-62604210D01*
X71197713Y-62207639D01*
X71193364Y-62198472D01*
X71102453Y-61985097D01*
X71007970Y-61763338D01*
X71004372Y-61753853D01*
X71004366Y-61753835D01*
X70854581Y-61305174D01*
X70851769Y-61295466D01*
X70738566Y-60836183D01*
X70736538Y-60826245D01*
X70735860Y-60822073D01*
X70660663Y-60359367D01*
X70659442Y-60349307D01*
X70659378Y-60348517D01*
X70621383Y-59877852D01*
X70620974Y-59867713D01*
X70620974Y-59394706D01*
X70621203Y-59389018D01*
X72787112Y-59389018D01*
X72787112Y-59753405D01*
X72822825Y-60116002D01*
X72822828Y-60116023D01*
X72893909Y-60473377D01*
X72999683Y-60822070D01*
X72999684Y-60822073D01*
X73139125Y-61158712D01*
X73310891Y-61480063D01*
X73513321Y-61783022D01*
X73744480Y-62064691D01*
X73744497Y-62064709D01*
X74002114Y-62322326D01*
X74002132Y-62322343D01*
X74259580Y-62533625D01*
X74283801Y-62553502D01*
X74500609Y-62698368D01*
X74586763Y-62755934D01*
X74908112Y-62927699D01*
X75244749Y-63067139D01*
X75593433Y-63172911D01*
X75593442Y-63172912D01*
X75593446Y-63172914D01*
X75714686Y-63197029D01*
X75950806Y-63243997D01*
X76313425Y-63279712D01*
X76313434Y-63279712D01*
X76677790Y-63279712D01*
X76677799Y-63279712D01*
X77040418Y-63243997D01*
X77334769Y-63185446D01*
X77397777Y-63172914D01*
X77397779Y-63172913D01*
X77397791Y-63172911D01*
X77746475Y-63067139D01*
X78083112Y-62927699D01*
X78404461Y-62755934D01*
X78707427Y-62553499D01*
X78989092Y-62322343D01*
X79246743Y-62064692D01*
X79477899Y-61783027D01*
X79680334Y-61480061D01*
X79852099Y-61158712D01*
X79991539Y-60822075D01*
X80097311Y-60473391D01*
X80168397Y-60116018D01*
X80204112Y-59753399D01*
X80204112Y-59389025D01*
X80168397Y-59026406D01*
X80121429Y-58790286D01*
X80097314Y-58669046D01*
X80097312Y-58669042D01*
X80097311Y-58669033D01*
X79991539Y-58320349D01*
X79852099Y-57983712D01*
X79680334Y-57662363D01*
X79577697Y-57508755D01*
X79477902Y-57359401D01*
X79320912Y-57168108D01*
X79246743Y-57077732D01*
X79246726Y-57077714D01*
X78989109Y-56820097D01*
X78989091Y-56820080D01*
X78707422Y-56588921D01*
X78404463Y-56386491D01*
X78083112Y-56214725D01*
X77746473Y-56075284D01*
X77746470Y-56075283D01*
X77501290Y-56000909D01*
X77397791Y-55969513D01*
X77397788Y-55969512D01*
X77397777Y-55969509D01*
X77040423Y-55898428D01*
X77040418Y-55898427D01*
X77040411Y-55898426D01*
X77040402Y-55898425D01*
X76677805Y-55862712D01*
X76677799Y-55862712D01*
X76313425Y-55862712D01*
X76313418Y-55862712D01*
X75950821Y-55898425D01*
X75950809Y-55898426D01*
X75950806Y-55898427D01*
X75950803Y-55898427D01*
X75950800Y-55898428D01*
X75593446Y-55969509D01*
X75244753Y-56075283D01*
X75244750Y-56075284D01*
X74908111Y-56214725D01*
X74586760Y-56386491D01*
X74283801Y-56588921D01*
X74002132Y-56820080D01*
X74002114Y-56820097D01*
X73744497Y-57077714D01*
X73744480Y-57077732D01*
X73513321Y-57359401D01*
X73310891Y-57662360D01*
X73139125Y-57983711D01*
X72999684Y-58320350D01*
X72999683Y-58320353D01*
X72893909Y-58669046D01*
X72822828Y-59026400D01*
X72822825Y-59026421D01*
X72787112Y-59389018D01*
X70621203Y-59389018D01*
X70621381Y-59384587D01*
X70659443Y-58913103D01*
X70660665Y-58903039D01*
X70660667Y-58903032D01*
X70736539Y-58436165D01*
X70738567Y-58426232D01*
X70851771Y-57966946D01*
X70854579Y-57957251D01*
X71004376Y-57508554D01*
X71007966Y-57499089D01*
X71193368Y-57063937D01*
X71197713Y-57054780D01*
X71197714Y-57054779D01*
X71417539Y-56635933D01*
X71422593Y-56627181D01*
X71675420Y-56227368D01*
X71681153Y-56219063D01*
X71955000Y-55854639D01*
X71956057Y-55853257D01*
X71969724Y-55835698D01*
X71974781Y-55829611D01*
X72265598Y-55501346D01*
X72266966Y-55499830D01*
X72293763Y-55470721D01*
X72299084Y-55465286D01*
X72605661Y-55170815D01*
X72607413Y-55169167D01*
X72646269Y-55133399D01*
X72651839Y-55128569D01*
X72972859Y-54866464D01*
X72974921Y-54864820D01*
X73024932Y-54825895D01*
X73030643Y-54821707D01*
X73364726Y-54591106D01*
X73367164Y-54589468D01*
X73427195Y-54550248D01*
X73433000Y-54546680D01*
X73778631Y-54347130D01*
X73781574Y-54345484D01*
X73850312Y-54308285D01*
X73856206Y-54305294D01*
X74212032Y-54136453D01*
X74215166Y-54135022D01*
X74291591Y-54101499D01*
X74297401Y-54099126D01*
X74661662Y-53960980D01*
X74665314Y-53959661D01*
X74747911Y-53931305D01*
X74753730Y-53929465D01*
X75124829Y-53821974D01*
X75128759Y-53820908D01*
X75216385Y-53798718D01*
X75222032Y-53797427D01*
X75598317Y-53720609D01*
X75602627Y-53719809D01*
X75693800Y-53704595D01*
X75699247Y-53703811D01*
X76078959Y-53657705D01*
X76083631Y-53657228D01*
X76176911Y-53649498D01*
X76182207Y-53649173D01*
X76612982Y-53631814D01*
X76618055Y-53631712D01*
X80620205Y-53631712D01*
X91159617Y-53631712D01*
X91227738Y-53651714D01*
G37*
%TD.AperFunction*%
M02*
