%TF.GenerationSoftware,KiCad,Pcbnew,9.0.5*%
%TF.CreationDate,2025-11-27T10:58:54+01:00*%
%TF.ProjectId,7-Segment_V5_2.8_4er,372d5365-676d-4656-9e74-5f56355f322e,V5.2*%
%TF.SameCoordinates,Original*%
%TF.FileFunction,Legend,Top*%
%TF.FilePolarity,Positive*%
%FSLAX46Y46*%
G04 Gerber Fmt 4.6, Leading zero omitted, Abs format (unit mm)*
G04 Created by KiCad (PCBNEW 9.0.5) date 2025-11-27 10:58:54*
%MOMM*%
%LPD*%
G01*
G04 APERTURE LIST*
G04 Aperture macros list*
%AMRoundRect*
0 Rectangle with rounded corners*
0 $1 Rounding radius*
0 $2 $3 $4 $5 $6 $7 $8 $9 X,Y pos of 4 corners*
0 Add a 4 corners polygon primitive as box body*
4,1,4,$2,$3,$4,$5,$6,$7,$8,$9,$2,$3,0*
0 Add four circle primitives for the rounded corners*
1,1,$1+$1,$2,$3*
1,1,$1+$1,$4,$5*
1,1,$1+$1,$6,$7*
1,1,$1+$1,$8,$9*
0 Add four rect primitives between the rounded corners*
20,1,$1+$1,$2,$3,$4,$5,0*
20,1,$1+$1,$4,$5,$6,$7,0*
20,1,$1+$1,$6,$7,$8,$9,0*
20,1,$1+$1,$8,$9,$2,$3,0*%
G04 Aperture macros list end*
%ADD10C,0.150000*%
%ADD11C,0.100000*%
%ADD12C,0.120000*%
%ADD13R,1.500000X1.500000*%
%ADD14C,1.500000*%
%ADD15C,1.700000*%
%ADD16RoundRect,0.250000X0.600000X-0.600000X0.600000X0.600000X-0.600000X0.600000X-0.600000X-0.600000X0*%
%ADD17C,6.400000*%
G04 APERTURE END LIST*
D10*
X80627612Y-53751212D02*
X80627612Y-65541212D01*
X111255412Y-53731212D02*
X111255412Y-65511212D01*
D11*
%TO.C,U1*%
X99063412Y-59563412D02*
X99063412Y-57203412D01*
X99063412Y-61923412D02*
X99063412Y-59563412D01*
X101513412Y-57113412D02*
X99153412Y-57113412D01*
X101513412Y-59399412D02*
X99153412Y-59399412D01*
X101513412Y-61939412D02*
X99153412Y-61939412D01*
X101603412Y-59563412D02*
X101603412Y-57203412D01*
X101603412Y-61849412D02*
X101603412Y-59489412D01*
X104143412Y-59653412D02*
X104143412Y-57293412D01*
X104143412Y-62013412D02*
X104143412Y-59653412D01*
X106593412Y-57203412D02*
X104233412Y-57203412D01*
X106593412Y-59489412D02*
X104233412Y-59489412D01*
X106593412Y-62029412D02*
X104233412Y-62029412D01*
X106683412Y-59653412D02*
X106683412Y-57293412D01*
X106683412Y-61939412D02*
X106683412Y-59579412D01*
D12*
X95918412Y-54573412D02*
X111145412Y-54573412D01*
X111145412Y-64615412D01*
X95918412Y-64615412D01*
X95918412Y-54573412D01*
D11*
%TO.C,U2*%
X83772612Y-59563412D02*
X83772612Y-57203412D01*
X83772612Y-61923412D02*
X83772612Y-59563412D01*
X86222612Y-57113412D02*
X83862612Y-57113412D01*
X86222612Y-59399412D02*
X83862612Y-59399412D01*
X86222612Y-61939412D02*
X83862612Y-61939412D01*
X86312612Y-59563412D02*
X86312612Y-57203412D01*
X86312612Y-61849412D02*
X86312612Y-59489412D01*
X88852612Y-59653412D02*
X88852612Y-57293412D01*
X88852612Y-62013412D02*
X88852612Y-59653412D01*
X91302612Y-57203412D02*
X88942612Y-57203412D01*
X91302612Y-59489412D02*
X88942612Y-59489412D01*
X91302612Y-62029412D02*
X88942612Y-62029412D01*
X91392612Y-59653412D02*
X91392612Y-57293412D01*
X91392612Y-61939412D02*
X91392612Y-59579412D01*
D12*
X80627612Y-54573412D02*
X95854612Y-54573412D01*
X95854612Y-64615412D01*
X80627612Y-64615412D01*
X80627612Y-54573412D01*
%TD*%
%LPC*%
D13*
%TO.C,U1*%
X97793412Y-63463412D03*
D14*
X100333412Y-63463412D03*
X102873412Y-63463412D03*
X105413412Y-63463412D03*
X107953412Y-63463412D03*
X107953412Y-55843412D03*
X105413412Y-55843412D03*
X102873412Y-55843412D03*
X100333412Y-55843412D03*
X97793412Y-55843412D03*
%TD*%
D15*
%TO.C,J1*%
X86982627Y-58330000D03*
X86982627Y-60870000D03*
X89522627Y-58330000D03*
X89522627Y-60870000D03*
X92062627Y-58330000D03*
X92062627Y-60870000D03*
X94602627Y-58330000D03*
X94602627Y-60870000D03*
X97142627Y-58330000D03*
X97142627Y-60870000D03*
X99682627Y-58330000D03*
X99682627Y-60870000D03*
X102222627Y-58330000D03*
X102222627Y-60870000D03*
X104762627Y-58330000D03*
D16*
X104762627Y-60870000D03*
%TD*%
D17*
%TO.C,H2*%
X115268612Y-59602612D03*
%TD*%
%TO.C,H1*%
X76495612Y-59571212D03*
%TD*%
D13*
%TO.C,U2*%
X82502612Y-63463412D03*
D14*
X85042612Y-63463412D03*
X87582612Y-63463412D03*
X90122612Y-63463412D03*
X92662612Y-63463412D03*
X92662612Y-55843412D03*
X90122612Y-55843412D03*
X87582612Y-55843412D03*
X85042612Y-55843412D03*
X82502612Y-55843412D03*
%TD*%
%LPD*%
M02*
