M48
; DRILL file {KiCad 9.0.5} date 2025-11-27T10:58:54+0100
; FORMAT={-:-/ absolute / inch / decimal}
; #@! TF.CreationDate,2025-11-27T10:58:54+01:00
; #@! TF.GenerationSoftware,Kicad,Pcbnew,9.0.5
; #@! TF.FileFunction,Plated,1,2,PTH
FMAT,2
INCH
; #@! TA.AperFunction,Plated,PTH,ComponentDrill
T1C0.0276
; #@! TA.AperFunction,Plated,PTH,ComponentDrill
T2C0.0394
; #@! TA.AperFunction,Plated,PTH,ComponentDrill
T3C0.1260
%
G90
G05
T1
X3.2481Y-2.1986
X3.2481Y-2.4986
X3.3481Y-2.1986
X3.3481Y-2.4986
X3.4481Y-2.1986
X3.4481Y-2.4986
X3.5481Y-2.1986
X3.5481Y-2.4986
X3.6481Y-2.1986
X3.6481Y-2.4986
X3.8501Y-2.1986
X3.8501Y-2.4986
X3.9501Y-2.1986
X3.9501Y-2.4986
X4.0501Y-2.1986
X4.0501Y-2.4986
X4.1501Y-2.1986
X4.1501Y-2.4986
X4.2501Y-2.1986
X4.2501Y-2.4986
T2
X3.4245Y-2.2965
X3.4245Y-2.3965
X3.5245Y-2.2965
X3.5245Y-2.3965
X3.6245Y-2.2965
X3.6245Y-2.3965
X3.7245Y-2.2965
X3.7245Y-2.3965
X3.8245Y-2.2965
X3.8245Y-2.3965
X3.9245Y-2.2965
X3.9245Y-2.3965
X4.0245Y-2.2965
X4.0245Y-2.3965
X4.1245Y-2.2965
X4.1245Y-2.3965
T3
X3.0116Y-2.3453
X4.5381Y-2.3466
M30
