%TF.GenerationSoftware,KiCad,Pcbnew,9.0.5*%
%TF.CreationDate,2025-11-20T20:14:26+01:00*%
%TF.ProjectId,7segment-driver-board,37736567-6d65-46e7-942d-647269766572,1.0*%
%TF.SameCoordinates,Original*%
%TF.FileFunction,Copper,L2,Bot*%
%TF.FilePolarity,Positive*%
%FSLAX46Y46*%
G04 Gerber Fmt 4.6, Leading zero omitted, Abs format (unit mm)*
G04 Created by KiCad (PCBNEW 9.0.5) date 2025-11-20 20:14:26*
%MOMM*%
%LPD*%
G01*
G04 APERTURE LIST*
G04 Aperture macros list*
%AMRoundRect*
0 Rectangle with rounded corners*
0 $1 Rounding radius*
0 $2 $3 $4 $5 $6 $7 $8 $9 X,Y pos of 4 corners*
0 Add a 4 corners polygon primitive as box body*
4,1,4,$2,$3,$4,$5,$6,$7,$8,$9,$2,$3,0*
0 Add four circle primitives for the rounded corners*
1,1,$1+$1,$2,$3*
1,1,$1+$1,$4,$5*
1,1,$1+$1,$6,$7*
1,1,$1+$1,$8,$9*
0 Add four rect primitives between the rounded corners*
20,1,$1+$1,$2,$3,$4,$5,0*
20,1,$1+$1,$4,$5,$6,$7,0*
20,1,$1+$1,$6,$7,$8,$9,0*
20,1,$1+$1,$8,$9,$2,$3,0*%
G04 Aperture macros list end*
%TA.AperFunction,ComponentPad*%
%ADD10RoundRect,0.250000X0.725000X-0.600000X0.725000X0.600000X-0.725000X0.600000X-0.725000X-0.600000X0*%
%TD*%
%TA.AperFunction,ComponentPad*%
%ADD11O,1.950000X1.700000*%
%TD*%
%TA.AperFunction,ComponentPad*%
%ADD12RoundRect,0.250000X0.750000X-0.600000X0.750000X0.600000X-0.750000X0.600000X-0.750000X-0.600000X0*%
%TD*%
%TA.AperFunction,ComponentPad*%
%ADD13O,2.000000X1.700000*%
%TD*%
%TA.AperFunction,SMDPad,CuDef*%
%ADD14R,1.000000X3.000000*%
%TD*%
%TA.AperFunction,ViaPad*%
%ADD15C,0.800000*%
%TD*%
%TA.AperFunction,Conductor*%
%ADD16C,0.254000*%
%TD*%
%TA.AperFunction,Conductor*%
%ADD17C,0.250000*%
%TD*%
%TA.AperFunction,Conductor*%
%ADD18C,0.381000*%
%TD*%
G04 APERTURE END LIST*
D10*
%TO.P,P2,1,Pin_1*%
%TO.N,GND*%
X91510000Y-114540000D03*
D11*
%TO.P,P2,2,Pin_2*%
%TO.N,Net-(D1-A)*%
X91510000Y-112040000D03*
%TO.P,P2,3,Pin_3*%
%TO.N,/Din*%
X91510000Y-109540000D03*
%TO.P,P2,4,Pin_4*%
%TO.N,/Sel*%
X91510000Y-107040000D03*
%TO.P,P2,5,Pin_5*%
%TO.N,/Clk*%
X91510000Y-104540000D03*
%TD*%
D10*
%TO.P,P3,1,Pin_1*%
%TO.N,GND*%
X124690000Y-114460000D03*
D11*
%TO.P,P3,2,Pin_2*%
%TO.N,Net-(D1-A)*%
X124690000Y-111960000D03*
%TO.P,P3,3,Pin_3*%
%TO.N,/DOut*%
X124690000Y-109460000D03*
%TO.P,P3,4,Pin_4*%
%TO.N,/Sel*%
X124690000Y-106960000D03*
%TO.P,P3,5,Pin_5*%
%TO.N,/Clk*%
X124690000Y-104460000D03*
%TD*%
D12*
%TO.P,P1,1,Pin_1*%
%TO.N,GND*%
X98286793Y-110772671D03*
D13*
%TO.P,P1,2,Pin_2*%
%TO.N,Net-(D2-A)*%
X98286793Y-108272671D03*
%TD*%
D14*
%TO.P,P4,1,Pin_1*%
%TO.N,/SEG_A*%
X101288470Y-112071106D03*
%TO.P,P4,2,Pin_2*%
%TO.N,/SEG_B*%
X101288470Y-107031106D03*
%TO.P,P4,3,Pin_3*%
%TO.N,/SEG_C*%
X103828470Y-112071106D03*
%TO.P,P4,4,Pin_4*%
%TO.N,/SEG_D*%
X103828470Y-107031106D03*
%TO.P,P4,5,Pin_5*%
%TO.N,/SEG_E*%
X106368470Y-112071106D03*
%TO.P,P4,6,Pin_6*%
%TO.N,/SEG_F*%
X106368470Y-107031106D03*
%TO.P,P4,7,Pin_7*%
%TO.N,/SEG_G*%
X108908470Y-112071106D03*
%TO.P,P4,8,Pin_8*%
%TO.N,/SEG_DP*%
X108908470Y-107031106D03*
%TO.P,P4,9,Pin_9*%
%TO.N,/DIG_0*%
X111448470Y-112071106D03*
%TO.P,P4,10,Pin_10*%
%TO.N,/DIG_1*%
X111448470Y-107031106D03*
%TO.P,P4,11,Pin_11*%
%TO.N,/DIG_2*%
X113988470Y-112071106D03*
%TO.P,P4,12,Pin_12*%
%TO.N,/DIG_3*%
X113988470Y-107031106D03*
%TO.P,P4,13,Pin_13*%
%TO.N,/DIG_4*%
X116528470Y-112071106D03*
%TO.P,P4,14,Pin_14*%
%TO.N,/DIG_5*%
X116528470Y-107031106D03*
%TD*%
D15*
%TO.N,GND*%
X119570000Y-107950000D03*
X122390000Y-110890000D03*
%TO.N,/Sel*%
X120694496Y-114175905D03*
%TO.N,GND*%
X99630000Y-112680000D03*
%TO.N,/Clk*%
X120694496Y-104875905D03*
%TO.N,/SEG_G*%
X108906373Y-111808932D03*
%TO.N,/DIG_2*%
X113988470Y-112071106D03*
%TO.N,/SEG_B*%
X117080000Y-103477000D03*
%TO.N,/SEG_A*%
X119424496Y-104875905D03*
%TO.N,/DIG_1*%
X119410487Y-112320000D03*
%TO.N,/DIG_4*%
X112770000Y-110140000D03*
%TO.N,/DIG_5*%
X118154496Y-112320000D03*
%TO.N,/SEG_D*%
X107575933Y-108855933D03*
%TO.N,/SEG_F*%
X118154496Y-104952000D03*
%TO.N,/DIG_3*%
X114132000Y-109128000D03*
%TO.N,/SEG_DP*%
X108908470Y-107031106D03*
%TO.N,/SEG_C*%
X110270000Y-108900000D03*
%TO.N,/SEG_E*%
X108920000Y-109750000D03*
%TO.N,/DIG_0*%
X111448470Y-112044000D03*
%TO.N,Net-(D1-A)*%
X99420000Y-115640000D03*
X100350000Y-115640000D03*
X98476336Y-115640000D03*
%TD*%
D16*
%TO.N,/Sel*%
X93180000Y-108710000D02*
X91510000Y-107040000D01*
X93180000Y-112180000D02*
X93180000Y-108710000D01*
X95870000Y-114870000D02*
X93180000Y-112180000D01*
X119970000Y-114870000D02*
X95870000Y-114870000D01*
X120664095Y-114175905D02*
X119970000Y-114870000D01*
D17*
%TO.N,/Clk*%
X93633000Y-106663000D02*
X91510000Y-104540000D01*
D16*
%TO.N,/Sel*%
X120694496Y-114175905D02*
X120664095Y-114175905D01*
D17*
%TO.N,/Clk*%
X93633000Y-111992362D02*
X93633000Y-106663000D01*
X119083000Y-114417000D02*
X96057638Y-114417000D01*
X120660000Y-104910401D02*
X120660000Y-112840000D01*
X120660000Y-112840000D02*
X119083000Y-114417000D01*
X120694496Y-104875905D02*
X120660000Y-104910401D01*
X96057638Y-114417000D02*
X93633000Y-111992362D01*
D16*
%TO.N,/Sel*%
X121940000Y-106960000D02*
X124690000Y-106960000D01*
X120694496Y-114145504D02*
X121130000Y-113710000D01*
X121130000Y-113710000D02*
X121130000Y-107770000D01*
X121130000Y-107770000D02*
X121940000Y-106960000D01*
%TO.N,/SEG_E*%
X106368470Y-110461530D02*
X106368470Y-112071106D01*
X106665000Y-110165000D02*
X106368470Y-110461530D01*
X108505000Y-110165000D02*
X106665000Y-110165000D01*
X108920000Y-109750000D02*
X108505000Y-110165000D01*
%TO.N,/DIG_5*%
X116672000Y-107174636D02*
X116528470Y-107031106D01*
X118154496Y-110657496D02*
X116672000Y-109175000D01*
X116672000Y-109175000D02*
X116672000Y-107174636D01*
X118154496Y-112320000D02*
X118154496Y-110657496D01*
%TO.N,/SEG_C*%
X103828470Y-110441530D02*
X103828470Y-111939741D01*
X104560000Y-109710000D02*
X103828470Y-110441530D01*
X103828470Y-111939741D02*
X103972000Y-112083271D01*
X108560000Y-108900000D02*
X107750000Y-109710000D01*
X107750000Y-109710000D02*
X104560000Y-109710000D01*
X110270000Y-108900000D02*
X108560000Y-108900000D01*
%TO.N,/SEG_B*%
X101432000Y-106887576D02*
X101288470Y-107031106D01*
X102140000Y-104715000D02*
X101432000Y-105423000D01*
X105515000Y-104715000D02*
X102140000Y-104715000D01*
X101432000Y-105423000D02*
X101432000Y-106887576D01*
X106460000Y-103770000D02*
X105515000Y-104715000D01*
X116787000Y-103770000D02*
X106460000Y-103770000D01*
X117080000Y-103477000D02*
X116787000Y-103770000D01*
%TO.N,/SEG_F*%
X106368470Y-105148464D02*
X106368470Y-107031106D01*
X106836935Y-104680000D02*
X106368470Y-105148464D01*
X117882496Y-104680000D02*
X106836935Y-104680000D01*
X118168218Y-104965722D02*
X117882496Y-104680000D01*
%TO.N,/SEG_A*%
X101432000Y-109898000D02*
X101432000Y-112083271D01*
X102860000Y-105170000D02*
X102550000Y-105480000D01*
X102550000Y-108780000D02*
X101432000Y-109898000D01*
X106648468Y-104225000D02*
X105703467Y-105170000D01*
X105703467Y-105170000D02*
X102860000Y-105170000D01*
X118925000Y-104225000D02*
X106648468Y-104225000D01*
X119424496Y-104724496D02*
X118925000Y-104225000D01*
X102550000Y-105480000D02*
X102550000Y-108780000D01*
X119424496Y-104875905D02*
X119424496Y-104724496D01*
D17*
%TO.N,/Clk*%
X124274095Y-104875905D02*
X124690000Y-104460000D01*
X120694496Y-104875905D02*
X124274095Y-104875905D01*
D16*
%TO.N,/SEG_G*%
X108856726Y-112071106D02*
X108908470Y-112071106D01*
X108817875Y-112032255D02*
X108856726Y-112071106D01*
%TO.N,/SEG_A*%
X119470000Y-104921409D02*
X119424496Y-104875905D01*
%TO.N,/DIG_1*%
X119410487Y-110881148D02*
X118040000Y-109510661D01*
X118040000Y-105886636D02*
X117356470Y-105203106D01*
X117356470Y-105203106D02*
X111876894Y-105203106D01*
X111876894Y-105203106D02*
X111448470Y-105631530D01*
X119410487Y-112320000D02*
X119410487Y-110881148D01*
X111448470Y-105631530D02*
X111448470Y-107031106D01*
X118040000Y-109510661D02*
X118040000Y-105886636D01*
D17*
%TO.N,/DIG_4*%
X116528470Y-112071106D02*
X116528470Y-110428470D01*
X112850000Y-110060000D02*
X112770000Y-110140000D01*
X116528470Y-110428470D02*
X116160000Y-110060000D01*
X116160000Y-110060000D02*
X112850000Y-110060000D01*
D16*
%TO.N,/SEG_D*%
X107575933Y-108855933D02*
X107211866Y-109220000D01*
X103972000Y-107174636D02*
X103828470Y-107031106D01*
X103972000Y-108802000D02*
X103972000Y-107174636D01*
X104390000Y-109220000D02*
X103972000Y-108802000D01*
X107211866Y-109220000D02*
X104390000Y-109220000D01*
%TO.N,/SEG_F*%
X106512000Y-107043271D02*
X106380635Y-107043271D01*
X106380635Y-107043271D02*
X106368470Y-107031106D01*
%TO.N,/DIG_3*%
X114132000Y-109128000D02*
X114132000Y-107174636D01*
X114132000Y-107174636D02*
X113988470Y-107031106D01*
%TO.N,/SEG_E*%
X106368470Y-112071106D02*
X106380635Y-112083271D01*
X106380635Y-112083271D02*
X106512000Y-112083271D01*
%TO.N,/DIG_0*%
X111448470Y-112044000D02*
X111448470Y-112071106D01*
D17*
%TO.N,/Sel*%
X124234722Y-107045278D02*
X124652000Y-107045278D01*
D16*
X120694496Y-114175905D02*
X120694496Y-114164560D01*
%TO.N,/DOut*%
X124652000Y-110058000D02*
X124652000Y-109545278D01*
X124690000Y-110169056D02*
X124690000Y-109460000D01*
D18*
%TO.N,Net-(D1-A)*%
X121110000Y-115640000D02*
X124690000Y-112060000D01*
X98424845Y-115588509D02*
X98476336Y-115640000D01*
X124690000Y-112060000D02*
X124690000Y-111960000D01*
X98476336Y-115640000D02*
X121110000Y-115640000D01*
X124652000Y-112045278D02*
X124652000Y-112098000D01*
%TD*%
%TA.AperFunction,Conductor*%
%TO.N,GND*%
G36*
X123360078Y-107607185D02*
G01*
X123403525Y-107655208D01*
X123409949Y-107667818D01*
X123534890Y-107839786D01*
X123685209Y-107990105D01*
X123685214Y-107990109D01*
X123849793Y-108109682D01*
X123892459Y-108165011D01*
X123898438Y-108234625D01*
X123865833Y-108296420D01*
X123849793Y-108310318D01*
X123685214Y-108429890D01*
X123685209Y-108429894D01*
X123534890Y-108580213D01*
X123409951Y-108752179D01*
X123313444Y-108941585D01*
X123247753Y-109143760D01*
X123214500Y-109353713D01*
X123214500Y-109566286D01*
X123246114Y-109765893D01*
X123247754Y-109776243D01*
X123273746Y-109856239D01*
X123313444Y-109978414D01*
X123409951Y-110167820D01*
X123534890Y-110339786D01*
X123685209Y-110490105D01*
X123685214Y-110490109D01*
X123849793Y-110609682D01*
X123892459Y-110665011D01*
X123898438Y-110734625D01*
X123865833Y-110796420D01*
X123849793Y-110810318D01*
X123685214Y-110929890D01*
X123685209Y-110929894D01*
X123534890Y-111080213D01*
X123409951Y-111252179D01*
X123313444Y-111441585D01*
X123247753Y-111643760D01*
X123214500Y-111853713D01*
X123214500Y-112066286D01*
X123247754Y-112276244D01*
X123247754Y-112276247D01*
X123285282Y-112391745D01*
X123287277Y-112461586D01*
X123255032Y-112517744D01*
X121969181Y-113803596D01*
X121907858Y-113837081D01*
X121838166Y-113832097D01*
X121782233Y-113790225D01*
X121757816Y-113724761D01*
X121757500Y-113715915D01*
X121757500Y-108081281D01*
X121777185Y-108014242D01*
X121793819Y-107993600D01*
X122163600Y-107623819D01*
X122224923Y-107590334D01*
X122251281Y-107587500D01*
X123293039Y-107587500D01*
X123360078Y-107607185D01*
G37*
%TD.AperFunction*%
%TA.AperFunction,Conductor*%
G36*
X118844025Y-105597748D02*
G01*
X118875761Y-105598315D01*
X118879944Y-105600316D01*
X118882038Y-105600466D01*
X118907594Y-105613544D01*
X118997949Y-105673918D01*
X118997951Y-105673919D01*
X118997955Y-105673921D01*
X119120859Y-105724828D01*
X119161830Y-105741799D01*
X119161832Y-105741799D01*
X119161837Y-105741801D01*
X119335800Y-105776404D01*
X119335803Y-105776405D01*
X119335805Y-105776405D01*
X119513189Y-105776405D01*
X119513190Y-105776404D01*
X119571178Y-105764869D01*
X119687154Y-105741801D01*
X119687157Y-105741799D01*
X119687162Y-105741799D01*
X119851043Y-105673918D01*
X119851052Y-105673911D01*
X119852047Y-105673381D01*
X119852637Y-105673258D01*
X119856672Y-105671587D01*
X119856988Y-105672352D01*
X119920450Y-105659140D01*
X119985694Y-105684140D01*
X120027064Y-105740446D01*
X120034500Y-105782740D01*
X120034500Y-110318379D01*
X120028262Y-110339621D01*
X120026684Y-110361708D01*
X120018609Y-110372494D01*
X120014815Y-110385418D01*
X119998083Y-110399915D01*
X119984814Y-110417643D01*
X119972191Y-110422351D01*
X119962011Y-110431173D01*
X119940097Y-110434323D01*
X119919351Y-110442063D01*
X119906186Y-110439199D01*
X119892853Y-110441117D01*
X119872713Y-110431919D01*
X119851078Y-110427214D01*
X119833345Y-110413940D01*
X119829297Y-110412092D01*
X119822822Y-110406064D01*
X119816673Y-110399915D01*
X119810495Y-110393737D01*
X118703819Y-109287061D01*
X118670334Y-109225738D01*
X118667500Y-109199380D01*
X118667500Y-105824836D01*
X118667500Y-105824833D01*
X118663851Y-105806491D01*
X118660383Y-105789057D01*
X118666612Y-105719468D01*
X118709476Y-105664291D01*
X118713097Y-105661776D01*
X118728531Y-105651464D01*
X118751027Y-105628966D01*
X118778893Y-105613750D01*
X118805902Y-105597067D01*
X118809333Y-105597128D01*
X118812347Y-105595483D01*
X118844025Y-105597748D01*
G37*
%TD.AperFunction*%
%TA.AperFunction,Conductor*%
G36*
X128526303Y-101555388D02*
G01*
X128572058Y-101608192D01*
X128583264Y-101659703D01*
X128583264Y-117390703D01*
X128563579Y-117457742D01*
X128510775Y-117503497D01*
X128459264Y-117514703D01*
X88728264Y-117514703D01*
X88661225Y-117495018D01*
X88615470Y-117442214D01*
X88604264Y-117390703D01*
X88604264Y-104433713D01*
X90034500Y-104433713D01*
X90034500Y-104646286D01*
X90055082Y-104776239D01*
X90067754Y-104856243D01*
X90126957Y-105038451D01*
X90133444Y-105058414D01*
X90229951Y-105247820D01*
X90354890Y-105419786D01*
X90505209Y-105570105D01*
X90505214Y-105570109D01*
X90669793Y-105689682D01*
X90712459Y-105745011D01*
X90718438Y-105814625D01*
X90685833Y-105876420D01*
X90669793Y-105890318D01*
X90505214Y-106009890D01*
X90505209Y-106009894D01*
X90354890Y-106160213D01*
X90229951Y-106332179D01*
X90133444Y-106521585D01*
X90067753Y-106723760D01*
X90034500Y-106933713D01*
X90034500Y-107146286D01*
X90055082Y-107276239D01*
X90067754Y-107356243D01*
X90107449Y-107478412D01*
X90133444Y-107558414D01*
X90229951Y-107747820D01*
X90354890Y-107919786D01*
X90505209Y-108070105D01*
X90505214Y-108070109D01*
X90669793Y-108189682D01*
X90712459Y-108245011D01*
X90718438Y-108314625D01*
X90685833Y-108376420D01*
X90669793Y-108390318D01*
X90505214Y-108509890D01*
X90505209Y-108509894D01*
X90354890Y-108660213D01*
X90229951Y-108832179D01*
X90133444Y-109021585D01*
X90133443Y-109021587D01*
X90133443Y-109021588D01*
X90121463Y-109058460D01*
X90067753Y-109223760D01*
X90038162Y-109410590D01*
X90034500Y-109433713D01*
X90034500Y-109646287D01*
X90042692Y-109698009D01*
X90067327Y-109853551D01*
X90067754Y-109856243D01*
X90120953Y-110019973D01*
X90133444Y-110058414D01*
X90229951Y-110247820D01*
X90354890Y-110419786D01*
X90505209Y-110570105D01*
X90505214Y-110570109D01*
X90669793Y-110689682D01*
X90712459Y-110745011D01*
X90718438Y-110814625D01*
X90685833Y-110876420D01*
X90669793Y-110890318D01*
X90505214Y-111009890D01*
X90505209Y-111009894D01*
X90354890Y-111160213D01*
X90229951Y-111332179D01*
X90133444Y-111521585D01*
X90067753Y-111723760D01*
X90034500Y-111933713D01*
X90034500Y-112146286D01*
X90055082Y-112276239D01*
X90067754Y-112356243D01*
X90107449Y-112478412D01*
X90133444Y-112558414D01*
X90229951Y-112747820D01*
X90354890Y-112919786D01*
X90494068Y-113058964D01*
X90527553Y-113120287D01*
X90522569Y-113189979D01*
X90480697Y-113245912D01*
X90471484Y-113252183D01*
X90316659Y-113347680D01*
X90316655Y-113347683D01*
X90192684Y-113471654D01*
X90100643Y-113620875D01*
X90100641Y-113620880D01*
X90045494Y-113787302D01*
X90045493Y-113787309D01*
X90035000Y-113890013D01*
X90035000Y-114290000D01*
X91105854Y-114290000D01*
X91067370Y-114356657D01*
X91035000Y-114477465D01*
X91035000Y-114602535D01*
X91067370Y-114723343D01*
X91105854Y-114790000D01*
X90035001Y-114790000D01*
X90035001Y-115189986D01*
X90045494Y-115292697D01*
X90100641Y-115459119D01*
X90100643Y-115459124D01*
X90192684Y-115608345D01*
X90316654Y-115732315D01*
X90465875Y-115824356D01*
X90465880Y-115824358D01*
X90632302Y-115879505D01*
X90632309Y-115879506D01*
X90735019Y-115889999D01*
X91259999Y-115889999D01*
X91260000Y-115889998D01*
X91260000Y-114944145D01*
X91326657Y-114982630D01*
X91447465Y-115015000D01*
X91572535Y-115015000D01*
X91693343Y-114982630D01*
X91760000Y-114944145D01*
X91760000Y-115889999D01*
X92284972Y-115889999D01*
X92284986Y-115889998D01*
X92387697Y-115879505D01*
X92554119Y-115824358D01*
X92554124Y-115824356D01*
X92703345Y-115732315D01*
X92827315Y-115608345D01*
X92919356Y-115459124D01*
X92919358Y-115459119D01*
X92974505Y-115292697D01*
X92974506Y-115292690D01*
X92984999Y-115189986D01*
X92985000Y-115189973D01*
X92985000Y-114790000D01*
X91914146Y-114790000D01*
X91952630Y-114723343D01*
X91985000Y-114602535D01*
X91985000Y-114477465D01*
X91952630Y-114356657D01*
X91914146Y-114290000D01*
X92984999Y-114290000D01*
X92984999Y-113890028D01*
X92984998Y-113890013D01*
X92974505Y-113787302D01*
X92919358Y-113620880D01*
X92919356Y-113620875D01*
X92827315Y-113471654D01*
X92703345Y-113347684D01*
X92548515Y-113252184D01*
X92501791Y-113200236D01*
X92490568Y-113131273D01*
X92518412Y-113067191D01*
X92525909Y-113058986D01*
X92665104Y-112919792D01*
X92734317Y-112824527D01*
X92789643Y-112781864D01*
X92859256Y-112775883D01*
X92921052Y-112808488D01*
X92922314Y-112809733D01*
X95382589Y-115270008D01*
X95469992Y-115357411D01*
X95469993Y-115357412D01*
X95572760Y-115426079D01*
X95572773Y-115426086D01*
X95686960Y-115473383D01*
X95686965Y-115473385D01*
X95686969Y-115473385D01*
X95686970Y-115473386D01*
X95808193Y-115497500D01*
X95808196Y-115497500D01*
X95808197Y-115497500D01*
X97451836Y-115497500D01*
X97518875Y-115517185D01*
X97564630Y-115569989D01*
X97575836Y-115621500D01*
X97575836Y-115728695D01*
X97610439Y-115902658D01*
X97610442Y-115902667D01*
X97678319Y-116066540D01*
X97678326Y-116066553D01*
X97776871Y-116214034D01*
X97776874Y-116214038D01*
X97902297Y-116339461D01*
X97902301Y-116339464D01*
X98049782Y-116438009D01*
X98049795Y-116438016D01*
X98172699Y-116488923D01*
X98213670Y-116505894D01*
X98213672Y-116505894D01*
X98213677Y-116505896D01*
X98387640Y-116540499D01*
X98387643Y-116540500D01*
X98387645Y-116540500D01*
X98565029Y-116540500D01*
X98565030Y-116540499D01*
X98623018Y-116528964D01*
X98738994Y-116505896D01*
X98738997Y-116505894D01*
X98739002Y-116505894D01*
X98834238Y-116466446D01*
X98900716Y-116438911D01*
X98970185Y-116431442D01*
X98995620Y-116438911D01*
X99109532Y-116486094D01*
X99157334Y-116505894D01*
X99157336Y-116505894D01*
X99157341Y-116505896D01*
X99331304Y-116540499D01*
X99331307Y-116540500D01*
X99331309Y-116540500D01*
X99508693Y-116540500D01*
X99508694Y-116540499D01*
X99566682Y-116528964D01*
X99682658Y-116505896D01*
X99682661Y-116505894D01*
X99682666Y-116505894D01*
X99837549Y-116441739D01*
X99907017Y-116434271D01*
X99932448Y-116441738D01*
X100087334Y-116505894D01*
X100087336Y-116505894D01*
X100087341Y-116505896D01*
X100261304Y-116540499D01*
X100261307Y-116540500D01*
X100261309Y-116540500D01*
X100438693Y-116540500D01*
X100438694Y-116540499D01*
X100496682Y-116528964D01*
X100612658Y-116505896D01*
X100612661Y-116505894D01*
X100612666Y-116505894D01*
X100776547Y-116438013D01*
X100815001Y-116412319D01*
X100905427Y-116351898D01*
X100972104Y-116331020D01*
X100974318Y-116331000D01*
X121178060Y-116331000D01*
X121267870Y-116313134D01*
X121311557Y-116304445D01*
X121437311Y-116252356D01*
X121550487Y-116176735D01*
X123003323Y-114723897D01*
X123064642Y-114690415D01*
X123134333Y-114695399D01*
X123190267Y-114737270D01*
X123214684Y-114802735D01*
X123215000Y-114811581D01*
X123215000Y-115109970D01*
X123215001Y-115109987D01*
X123225494Y-115212697D01*
X123280641Y-115379119D01*
X123280643Y-115379124D01*
X123372684Y-115528345D01*
X123496654Y-115652315D01*
X123645875Y-115744356D01*
X123645880Y-115744358D01*
X123812302Y-115799505D01*
X123812309Y-115799506D01*
X123915019Y-115809999D01*
X124439999Y-115809999D01*
X124440000Y-115809998D01*
X124440000Y-114864145D01*
X124506657Y-114902630D01*
X124627465Y-114935000D01*
X124752535Y-114935000D01*
X124873343Y-114902630D01*
X124940000Y-114864145D01*
X124940000Y-115809999D01*
X125464972Y-115809999D01*
X125464986Y-115809998D01*
X125567697Y-115799505D01*
X125734119Y-115744358D01*
X125734124Y-115744356D01*
X125883345Y-115652315D01*
X126007315Y-115528345D01*
X126099356Y-115379124D01*
X126099358Y-115379119D01*
X126154505Y-115212697D01*
X126154506Y-115212690D01*
X126164999Y-115109986D01*
X126165000Y-115109973D01*
X126165000Y-114710000D01*
X125094146Y-114710000D01*
X125132630Y-114643343D01*
X125165000Y-114522535D01*
X125165000Y-114397465D01*
X125132630Y-114276657D01*
X125094146Y-114210000D01*
X126164999Y-114210000D01*
X126164999Y-113810028D01*
X126164998Y-113810013D01*
X126154505Y-113707302D01*
X126099358Y-113540880D01*
X126099356Y-113540875D01*
X126007315Y-113391654D01*
X125883345Y-113267684D01*
X125728515Y-113172184D01*
X125681791Y-113120236D01*
X125670568Y-113051273D01*
X125698412Y-112987191D01*
X125705909Y-112978986D01*
X125845104Y-112839792D01*
X125856193Y-112824530D01*
X125970048Y-112667820D01*
X125970047Y-112667820D01*
X125970051Y-112667816D01*
X126066557Y-112478412D01*
X126132246Y-112276243D01*
X126165500Y-112066287D01*
X126165500Y-111853713D01*
X126132246Y-111643757D01*
X126066557Y-111441588D01*
X125970051Y-111252184D01*
X125970049Y-111252181D01*
X125970048Y-111252179D01*
X125845109Y-111080213D01*
X125694792Y-110929896D01*
X125621188Y-110876420D01*
X125530204Y-110810316D01*
X125487540Y-110754989D01*
X125481561Y-110685376D01*
X125514166Y-110623580D01*
X125530199Y-110609686D01*
X125694792Y-110490104D01*
X125845104Y-110339792D01*
X125845106Y-110339788D01*
X125845109Y-110339786D01*
X125970048Y-110167820D01*
X125970047Y-110167820D01*
X125970051Y-110167816D01*
X126066557Y-109978412D01*
X126132246Y-109776243D01*
X126165500Y-109566287D01*
X126165500Y-109353713D01*
X126132246Y-109143757D01*
X126066557Y-108941588D01*
X125970051Y-108752184D01*
X125970049Y-108752181D01*
X125970048Y-108752179D01*
X125845109Y-108580213D01*
X125694792Y-108429896D01*
X125624681Y-108378958D01*
X125530204Y-108310316D01*
X125487540Y-108254989D01*
X125481561Y-108185376D01*
X125514166Y-108123580D01*
X125530199Y-108109686D01*
X125694792Y-107990104D01*
X125845104Y-107839792D01*
X125845106Y-107839788D01*
X125845109Y-107839786D01*
X125970048Y-107667820D01*
X125970047Y-107667820D01*
X125970051Y-107667816D01*
X126066557Y-107478412D01*
X126132246Y-107276243D01*
X126165500Y-107066287D01*
X126165500Y-106853713D01*
X126132246Y-106643757D01*
X126066557Y-106441588D01*
X125970051Y-106252184D01*
X125970049Y-106252181D01*
X125970048Y-106252179D01*
X125845109Y-106080213D01*
X125694792Y-105929896D01*
X125640317Y-105890318D01*
X125530204Y-105810316D01*
X125487540Y-105754989D01*
X125481561Y-105685376D01*
X125514166Y-105623580D01*
X125530199Y-105609686D01*
X125694792Y-105490104D01*
X125845104Y-105339792D01*
X125845106Y-105339788D01*
X125845109Y-105339786D01*
X125970048Y-105167820D01*
X125970047Y-105167820D01*
X125970051Y-105167816D01*
X126066557Y-104978412D01*
X126132246Y-104776243D01*
X126165500Y-104566287D01*
X126165500Y-104353713D01*
X126132246Y-104143757D01*
X126066557Y-103941588D01*
X125970051Y-103752184D01*
X125970049Y-103752181D01*
X125970048Y-103752179D01*
X125845109Y-103580213D01*
X125694786Y-103429890D01*
X125522820Y-103304951D01*
X125333414Y-103208444D01*
X125333413Y-103208443D01*
X125333412Y-103208443D01*
X125131243Y-103142754D01*
X125131241Y-103142753D01*
X125131240Y-103142753D01*
X124969957Y-103117208D01*
X124921287Y-103109500D01*
X124458713Y-103109500D01*
X124410042Y-103117208D01*
X124248760Y-103142753D01*
X124046585Y-103208444D01*
X123857179Y-103304951D01*
X123685213Y-103429890D01*
X123534890Y-103580213D01*
X123409951Y-103752179D01*
X123313444Y-103941585D01*
X123247754Y-104143756D01*
X123247431Y-104145799D01*
X123247092Y-104146513D01*
X123246616Y-104148497D01*
X123246199Y-104148396D01*
X123217503Y-104208935D01*
X123158193Y-104245868D01*
X123124957Y-104250405D01*
X121393857Y-104250405D01*
X121326818Y-104230720D01*
X121306175Y-104214085D01*
X121268534Y-104176443D01*
X121268530Y-104176440D01*
X121121049Y-104077895D01*
X121121036Y-104077888D01*
X120957163Y-104010011D01*
X120957154Y-104010008D01*
X120783190Y-103975405D01*
X120783187Y-103975405D01*
X120605805Y-103975405D01*
X120605802Y-103975405D01*
X120431837Y-104010008D01*
X120431828Y-104010011D01*
X120267955Y-104077888D01*
X120267942Y-104077895D01*
X120128387Y-104171144D01*
X120061709Y-104192022D01*
X119994329Y-104173538D01*
X119990605Y-104171144D01*
X119851049Y-104077895D01*
X119851036Y-104077888D01*
X119687163Y-104010011D01*
X119687154Y-104010008D01*
X119612041Y-103995068D01*
X119550130Y-103962683D01*
X119548551Y-103961132D01*
X119325011Y-103737591D01*
X119325007Y-103737588D01*
X119222239Y-103668920D01*
X119222226Y-103668913D01*
X119188785Y-103655062D01*
X119108035Y-103621614D01*
X119108027Y-103621612D01*
X118986807Y-103597500D01*
X118986803Y-103597500D01*
X118104500Y-103597500D01*
X118037461Y-103577815D01*
X117991706Y-103525011D01*
X117980500Y-103473500D01*
X117980500Y-103388306D01*
X117980499Y-103388304D01*
X117945896Y-103214341D01*
X117945893Y-103214332D01*
X117945722Y-103213920D01*
X117916245Y-103142754D01*
X117878016Y-103050459D01*
X117878009Y-103050446D01*
X117779464Y-102902965D01*
X117779461Y-102902961D01*
X117654038Y-102777538D01*
X117654034Y-102777535D01*
X117506553Y-102678990D01*
X117506540Y-102678983D01*
X117342667Y-102611106D01*
X117342658Y-102611103D01*
X117168694Y-102576500D01*
X117168691Y-102576500D01*
X116991309Y-102576500D01*
X116991306Y-102576500D01*
X116817341Y-102611103D01*
X116817332Y-102611106D01*
X116653459Y-102678983D01*
X116653446Y-102678990D01*
X116505965Y-102777535D01*
X116505961Y-102777538D01*
X116380538Y-102902961D01*
X116380535Y-102902965D01*
X116281985Y-103050455D01*
X116275568Y-103065950D01*
X116231728Y-103120355D01*
X116165434Y-103142421D01*
X116161006Y-103142500D01*
X106398192Y-103142500D01*
X106276973Y-103166612D01*
X106276965Y-103166614D01*
X106221715Y-103189500D01*
X106221714Y-103189500D01*
X106162773Y-103213913D01*
X106162760Y-103213920D01*
X106074836Y-103272669D01*
X106074837Y-103272670D01*
X106059988Y-103282591D01*
X106059986Y-103282593D01*
X105291400Y-104051181D01*
X105230077Y-104084666D01*
X105203719Y-104087500D01*
X102078195Y-104087500D01*
X101956970Y-104111613D01*
X101956960Y-104111616D01*
X101842773Y-104158913D01*
X101842760Y-104158920D01*
X101760202Y-104214085D01*
X101745727Y-104223757D01*
X101741934Y-104226291D01*
X101739987Y-104227592D01*
X101031992Y-104935589D01*
X101031991Y-104935590D01*
X100973292Y-104994288D01*
X100911969Y-105027772D01*
X100885613Y-105030606D01*
X100740600Y-105030606D01*
X100740593Y-105030607D01*
X100680986Y-105037014D01*
X100546141Y-105087308D01*
X100546134Y-105087312D01*
X100430925Y-105173558D01*
X100430922Y-105173561D01*
X100344676Y-105288770D01*
X100344672Y-105288777D01*
X100294378Y-105423623D01*
X100287971Y-105483222D01*
X100287970Y-105483241D01*
X100287970Y-108578976D01*
X100287971Y-108578982D01*
X100294378Y-108638589D01*
X100344672Y-108773434D01*
X100344676Y-108773441D01*
X100430922Y-108888650D01*
X100430925Y-108888653D01*
X100546134Y-108974899D01*
X100546141Y-108974903D01*
X100568320Y-108983175D01*
X100680987Y-109025197D01*
X100740597Y-109031606D01*
X101111614Y-109031605D01*
X101132859Y-109037843D01*
X101154946Y-109039423D01*
X101165728Y-109047494D01*
X101178652Y-109051289D01*
X101193152Y-109068023D01*
X101210880Y-109081294D01*
X101215587Y-109093914D01*
X101224407Y-109104093D01*
X101227558Y-109126011D01*
X101235297Y-109146759D01*
X101232434Y-109159919D01*
X101234351Y-109173252D01*
X101225151Y-109193394D01*
X101220445Y-109215032D01*
X101207173Y-109232760D01*
X101205326Y-109236807D01*
X101199300Y-109243279D01*
X101031992Y-109410589D01*
X101009674Y-109432907D01*
X100944587Y-109497993D01*
X100875920Y-109600760D01*
X100875913Y-109600773D01*
X100867947Y-109620007D01*
X100867947Y-109620008D01*
X100828614Y-109714964D01*
X100828612Y-109714972D01*
X100807047Y-109823381D01*
X100807048Y-109823382D01*
X100804500Y-109836191D01*
X100804500Y-109952352D01*
X100784815Y-110019391D01*
X100732011Y-110065146D01*
X100693757Y-110075641D01*
X100680989Y-110077013D01*
X100546141Y-110127308D01*
X100546134Y-110127312D01*
X100430925Y-110213558D01*
X100430922Y-110213561D01*
X100344676Y-110328770D01*
X100344672Y-110328777D01*
X100294378Y-110463623D01*
X100291531Y-110490109D01*
X100287971Y-110523229D01*
X100287970Y-110523241D01*
X100287970Y-113618976D01*
X100287971Y-113618982D01*
X100291762Y-113654247D01*
X100279355Y-113723007D01*
X100231744Y-113774143D01*
X100168472Y-113791500D01*
X96368090Y-113791500D01*
X96301051Y-113771815D01*
X96280409Y-113755181D01*
X94294819Y-111769591D01*
X94261334Y-111708268D01*
X94258500Y-111681910D01*
X94258500Y-108166384D01*
X96786293Y-108166384D01*
X96786293Y-108378958D01*
X96819547Y-108588914D01*
X96879502Y-108773437D01*
X96885237Y-108791085D01*
X96981744Y-108980491D01*
X97106683Y-109152457D01*
X97245861Y-109291635D01*
X97279346Y-109352958D01*
X97274362Y-109422650D01*
X97232490Y-109478583D01*
X97223277Y-109484854D01*
X97068452Y-109580351D01*
X97068448Y-109580354D01*
X96944477Y-109704325D01*
X96852436Y-109853546D01*
X96852434Y-109853551D01*
X96797287Y-110019973D01*
X96797286Y-110019980D01*
X96786793Y-110122684D01*
X96786793Y-110522671D01*
X97853781Y-110522671D01*
X97820868Y-110579678D01*
X97786793Y-110706845D01*
X97786793Y-110838497D01*
X97820868Y-110965664D01*
X97853781Y-111022671D01*
X96786794Y-111022671D01*
X96786794Y-111422657D01*
X96797287Y-111525368D01*
X96852434Y-111691790D01*
X96852436Y-111691795D01*
X96944477Y-111841016D01*
X97068447Y-111964986D01*
X97217668Y-112057027D01*
X97217673Y-112057029D01*
X97384095Y-112112176D01*
X97384102Y-112112177D01*
X97486812Y-112122670D01*
X98036792Y-112122670D01*
X98036793Y-112122669D01*
X98036793Y-111205683D01*
X98093800Y-111238596D01*
X98220967Y-111272671D01*
X98352619Y-111272671D01*
X98479786Y-111238596D01*
X98536793Y-111205683D01*
X98536793Y-112122670D01*
X99086765Y-112122670D01*
X99086779Y-112122669D01*
X99189490Y-112112176D01*
X99355912Y-112057029D01*
X99355917Y-112057027D01*
X99505138Y-111964986D01*
X99629108Y-111841016D01*
X99721149Y-111691795D01*
X99721151Y-111691790D01*
X99776298Y-111525368D01*
X99776299Y-111525361D01*
X99786792Y-111422657D01*
X99786793Y-111422644D01*
X99786793Y-111022671D01*
X98719805Y-111022671D01*
X98752718Y-110965664D01*
X98786793Y-110838497D01*
X98786793Y-110706845D01*
X98752718Y-110579678D01*
X98719805Y-110522671D01*
X99786792Y-110522671D01*
X99786792Y-110122699D01*
X99786791Y-110122684D01*
X99776298Y-110019973D01*
X99721151Y-109853551D01*
X99721149Y-109853546D01*
X99629108Y-109704325D01*
X99505138Y-109580355D01*
X99350308Y-109484855D01*
X99303584Y-109432907D01*
X99292361Y-109363944D01*
X99320205Y-109299862D01*
X99327702Y-109291657D01*
X99466897Y-109152463D01*
X99482189Y-109131416D01*
X99558363Y-109026570D01*
X99591844Y-108980487D01*
X99688350Y-108791083D01*
X99754039Y-108588914D01*
X99787293Y-108378958D01*
X99787293Y-108166384D01*
X99754039Y-107956428D01*
X99688350Y-107754259D01*
X99591844Y-107564855D01*
X99591842Y-107564852D01*
X99591841Y-107564850D01*
X99466902Y-107392884D01*
X99316579Y-107242561D01*
X99144613Y-107117622D01*
X98955207Y-107021115D01*
X98955206Y-107021114D01*
X98955205Y-107021114D01*
X98753036Y-106955425D01*
X98753034Y-106955424D01*
X98753033Y-106955424D01*
X98591750Y-106929879D01*
X98543080Y-106922171D01*
X98030506Y-106922171D01*
X97981835Y-106929879D01*
X97820553Y-106955424D01*
X97618378Y-107021115D01*
X97428972Y-107117622D01*
X97257006Y-107242561D01*
X97106683Y-107392884D01*
X96981744Y-107564850D01*
X96885237Y-107754256D01*
X96819546Y-107956431D01*
X96786510Y-108165011D01*
X96786293Y-108166384D01*
X94258500Y-108166384D01*
X94258500Y-106601394D01*
X94255152Y-106584566D01*
X94255151Y-106584561D01*
X94248055Y-106548884D01*
X94234463Y-106480548D01*
X94187311Y-106366714D01*
X94187310Y-106366712D01*
X94187310Y-106366711D01*
X94164239Y-106332183D01*
X94164239Y-106332184D01*
X94118859Y-106264268D01*
X94106770Y-106252179D01*
X94031733Y-106177142D01*
X94031732Y-106177141D01*
X92946773Y-105092182D01*
X92913288Y-105030859D01*
X92916522Y-104966185D01*
X92952246Y-104856243D01*
X92985500Y-104646287D01*
X92985500Y-104433713D01*
X92952246Y-104223757D01*
X92886557Y-104021588D01*
X92790051Y-103832184D01*
X92790049Y-103832181D01*
X92790048Y-103832179D01*
X92665109Y-103660213D01*
X92514786Y-103509890D01*
X92342820Y-103384951D01*
X92153414Y-103288444D01*
X92153413Y-103288443D01*
X92153412Y-103288443D01*
X91951243Y-103222754D01*
X91951241Y-103222753D01*
X91951240Y-103222753D01*
X91789957Y-103197208D01*
X91741287Y-103189500D01*
X91278713Y-103189500D01*
X91230042Y-103197208D01*
X91068760Y-103222753D01*
X90866585Y-103288444D01*
X90677179Y-103384951D01*
X90505213Y-103509890D01*
X90354890Y-103660213D01*
X90229951Y-103832179D01*
X90133444Y-104021585D01*
X90067754Y-104223757D01*
X90034500Y-104433713D01*
X88604264Y-104433713D01*
X88604264Y-101659703D01*
X88623949Y-101592664D01*
X88676753Y-101546909D01*
X88728264Y-101535703D01*
X128459264Y-101535703D01*
X128526303Y-101555388D01*
G37*
%TD.AperFunction*%
%TD*%
M02*
