M48
; DRILL file {KiCad 9.0.5} date 2025-11-20T20:14:27+0100
; FORMAT={-:-/ absolute / inch / decimal}
; #@! TF.CreationDate,2025-11-20T20:14:27+01:00
; #@! TF.GenerationSoftware,Kicad,Pcbnew,9.0.5
; #@! TF.FileFunction,Plated,1,2,PTH
FMAT,2
INCH
; #@! TA.AperFunction,Plated,PTH,ViaDrill
T1C0.0157
; #@! TA.AperFunction,Plated,PTH,ComponentDrill
T2C0.0374
; #@! TA.AperFunction,Plated,PTH,ComponentDrill
T3C0.0394
%
G90
G05
T1
X3.877Y-4.5528
X3.9142Y-4.5528
X3.9224Y-4.4362
X3.9508Y-4.5528
X4.2353Y-4.2857
X4.2877Y-4.4019
X4.2877Y-4.2138
X4.2882Y-4.3209
X4.3413Y-4.2874
X4.3877Y-4.4112
X4.4398Y-4.3362
X4.4877Y-4.4122
X4.4934Y-4.2964
X4.6094Y-4.0739
X4.6518Y-4.132
X4.6518Y-4.422
X4.7012Y-4.422
X4.7018Y-4.129
X4.7075Y-4.25
X4.7518Y-4.129
X4.7518Y-4.4951
X4.8185Y-4.3657
T2
X3.6028Y-4.1157
X3.6028Y-4.2142
X3.6028Y-4.3126
X3.6028Y-4.411
X3.6028Y-4.5094
X4.9091Y-4.1126
X4.9091Y-4.211
X4.9091Y-4.3094
X4.9091Y-4.4079
X4.9091Y-4.5063
T3
X3.8696Y-4.2627
X3.8696Y-4.3611
M30
