%TF.GenerationSoftware,KiCad,Pcbnew,9.0.5*%
%TF.CreationDate,2025-11-20T20:14:26+01:00*%
%TF.ProjectId,7segment-driver-board,37736567-6d65-46e7-942d-647269766572,1.0*%
%TF.SameCoordinates,Original*%
%TF.FileFunction,Legend,Bot*%
%TF.FilePolarity,Positive*%
%FSLAX46Y46*%
G04 Gerber Fmt 4.6, Leading zero omitted, Abs format (unit mm)*
G04 Created by KiCad (PCBNEW 9.0.5) date 2025-11-20 20:14:26*
%MOMM*%
%LPD*%
G01*
G04 APERTURE LIST*
%ADD10C,0.203200*%
%ADD11C,0.120000*%
G04 APERTURE END LIST*
D10*
X95560055Y-114032485D02*
X95681008Y-113972009D01*
X95681008Y-113972009D02*
X95862436Y-113972009D01*
X95862436Y-113972009D02*
X96043865Y-114032485D01*
X96043865Y-114032485D02*
X96164817Y-114153437D01*
X96164817Y-114153437D02*
X96225294Y-114274390D01*
X96225294Y-114274390D02*
X96285770Y-114516294D01*
X96285770Y-114516294D02*
X96285770Y-114697723D01*
X96285770Y-114697723D02*
X96225294Y-114939628D01*
X96225294Y-114939628D02*
X96164817Y-115060580D01*
X96164817Y-115060580D02*
X96043865Y-115181533D01*
X96043865Y-115181533D02*
X95862436Y-115242009D01*
X95862436Y-115242009D02*
X95741484Y-115242009D01*
X95741484Y-115242009D02*
X95560055Y-115181533D01*
X95560055Y-115181533D02*
X95499579Y-115121056D01*
X95499579Y-115121056D02*
X95499579Y-114697723D01*
X95499579Y-114697723D02*
X95741484Y-114697723D01*
X94955294Y-115242009D02*
X94955294Y-113972009D01*
X94955294Y-113972009D02*
X94229579Y-115242009D01*
X94229579Y-115242009D02*
X94229579Y-113972009D01*
X93624818Y-115242009D02*
X93624818Y-113972009D01*
X93624818Y-113972009D02*
X93322437Y-113972009D01*
X93322437Y-113972009D02*
X93141008Y-114032485D01*
X93141008Y-114032485D02*
X93020056Y-114153437D01*
X93020056Y-114153437D02*
X92959579Y-114274390D01*
X92959579Y-114274390D02*
X92899103Y-114516294D01*
X92899103Y-114516294D02*
X92899103Y-114697723D01*
X92899103Y-114697723D02*
X92959579Y-114939628D01*
X92959579Y-114939628D02*
X93020056Y-115060580D01*
X93020056Y-115060580D02*
X93141008Y-115181533D01*
X93141008Y-115181533D02*
X93322437Y-115242009D01*
X93322437Y-115242009D02*
X93624818Y-115242009D01*
X96225294Y-112078199D02*
X95257675Y-112078199D01*
X95741484Y-112562009D02*
X95741484Y-111594390D01*
X94048151Y-111292009D02*
X94652913Y-111292009D01*
X94652913Y-111292009D02*
X94713389Y-111896771D01*
X94713389Y-111896771D02*
X94652913Y-111836294D01*
X94652913Y-111836294D02*
X94531960Y-111775818D01*
X94531960Y-111775818D02*
X94229579Y-111775818D01*
X94229579Y-111775818D02*
X94108627Y-111836294D01*
X94108627Y-111836294D02*
X94048151Y-111896771D01*
X94048151Y-111896771D02*
X93987674Y-112017723D01*
X93987674Y-112017723D02*
X93987674Y-112320104D01*
X93987674Y-112320104D02*
X94048151Y-112441056D01*
X94048151Y-112441056D02*
X94108627Y-112501533D01*
X94108627Y-112501533D02*
X94229579Y-112562009D01*
X94229579Y-112562009D02*
X94531960Y-112562009D01*
X94531960Y-112562009D02*
X94652913Y-112501533D01*
X94652913Y-112501533D02*
X94713389Y-112441056D01*
X93624817Y-111292009D02*
X93201484Y-112562009D01*
X93201484Y-112562009D02*
X92778150Y-111292009D01*
X123176323Y-112072590D02*
X122208704Y-112072590D01*
X122692513Y-112556400D02*
X122692513Y-111588781D01*
X120999180Y-111286400D02*
X121603942Y-111286400D01*
X121603942Y-111286400D02*
X121664418Y-111891162D01*
X121664418Y-111891162D02*
X121603942Y-111830685D01*
X121603942Y-111830685D02*
X121482989Y-111770209D01*
X121482989Y-111770209D02*
X121180608Y-111770209D01*
X121180608Y-111770209D02*
X121059656Y-111830685D01*
X121059656Y-111830685D02*
X120999180Y-111891162D01*
X120999180Y-111891162D02*
X120938703Y-112012114D01*
X120938703Y-112012114D02*
X120938703Y-112314495D01*
X120938703Y-112314495D02*
X120999180Y-112435447D01*
X120999180Y-112435447D02*
X121059656Y-112495924D01*
X121059656Y-112495924D02*
X121180608Y-112556400D01*
X121180608Y-112556400D02*
X121482989Y-112556400D01*
X121482989Y-112556400D02*
X121603942Y-112495924D01*
X121603942Y-112495924D02*
X121664418Y-112435447D01*
X120575846Y-111286400D02*
X120152513Y-112556400D01*
X120152513Y-112556400D02*
X119729179Y-111286400D01*
X94108627Y-107468119D02*
X94169103Y-107528596D01*
X94169103Y-107528596D02*
X94350532Y-107589072D01*
X94350532Y-107589072D02*
X94471484Y-107589072D01*
X94471484Y-107589072D02*
X94652913Y-107528596D01*
X94652913Y-107528596D02*
X94773865Y-107407643D01*
X94773865Y-107407643D02*
X94834342Y-107286691D01*
X94834342Y-107286691D02*
X94894818Y-107044786D01*
X94894818Y-107044786D02*
X94894818Y-106863357D01*
X94894818Y-106863357D02*
X94834342Y-106621453D01*
X94834342Y-106621453D02*
X94773865Y-106500500D01*
X94773865Y-106500500D02*
X94652913Y-106379548D01*
X94652913Y-106379548D02*
X94471484Y-106319072D01*
X94471484Y-106319072D02*
X94350532Y-106319072D01*
X94350532Y-106319072D02*
X94169103Y-106379548D01*
X94169103Y-106379548D02*
X94108627Y-106440024D01*
X93624818Y-107528596D02*
X93443389Y-107589072D01*
X93443389Y-107589072D02*
X93141008Y-107589072D01*
X93141008Y-107589072D02*
X93020056Y-107528596D01*
X93020056Y-107528596D02*
X92959580Y-107468119D01*
X92959580Y-107468119D02*
X92899103Y-107347167D01*
X92899103Y-107347167D02*
X92899103Y-107226215D01*
X92899103Y-107226215D02*
X92959580Y-107105262D01*
X92959580Y-107105262D02*
X93020056Y-107044786D01*
X93020056Y-107044786D02*
X93141008Y-106984310D01*
X93141008Y-106984310D02*
X93382913Y-106923834D01*
X93382913Y-106923834D02*
X93503865Y-106863357D01*
X93503865Y-106863357D02*
X93564342Y-106802881D01*
X93564342Y-106802881D02*
X93624818Y-106681929D01*
X93624818Y-106681929D02*
X93624818Y-106560976D01*
X93624818Y-106560976D02*
X93564342Y-106440024D01*
X93564342Y-106440024D02*
X93503865Y-106379548D01*
X93503865Y-106379548D02*
X93382913Y-106319072D01*
X93382913Y-106319072D02*
X93080532Y-106319072D01*
X93080532Y-106319072D02*
X92899103Y-106379548D01*
X122450608Y-105029587D02*
X122511084Y-105090064D01*
X122511084Y-105090064D02*
X122692513Y-105150540D01*
X122692513Y-105150540D02*
X122813465Y-105150540D01*
X122813465Y-105150540D02*
X122994894Y-105090064D01*
X122994894Y-105090064D02*
X123115846Y-104969111D01*
X123115846Y-104969111D02*
X123176323Y-104848159D01*
X123176323Y-104848159D02*
X123236799Y-104606254D01*
X123236799Y-104606254D02*
X123236799Y-104424825D01*
X123236799Y-104424825D02*
X123176323Y-104182921D01*
X123176323Y-104182921D02*
X123115846Y-104061968D01*
X123115846Y-104061968D02*
X122994894Y-103941016D01*
X122994894Y-103941016D02*
X122813465Y-103880540D01*
X122813465Y-103880540D02*
X122692513Y-103880540D01*
X122692513Y-103880540D02*
X122511084Y-103941016D01*
X122511084Y-103941016D02*
X122450608Y-104001492D01*
X121301561Y-105150540D02*
X121906323Y-105150540D01*
X121906323Y-105150540D02*
X121906323Y-103880540D01*
X120878228Y-105150540D02*
X120878228Y-103880540D01*
X120152513Y-105150540D02*
X120696799Y-104424825D01*
X120152513Y-103880540D02*
X120878228Y-104606254D01*
X90117943Y-107031801D02*
X88847943Y-107031801D01*
X90117943Y-107636563D02*
X88847943Y-107636563D01*
X88847943Y-107636563D02*
X90117943Y-108362278D01*
X90117943Y-108362278D02*
X88847943Y-108362278D01*
X90117943Y-108967039D02*
X88847943Y-108967039D01*
X88847943Y-108967039D02*
X88847943Y-109450849D01*
X88847943Y-109450849D02*
X88908419Y-109571801D01*
X88908419Y-109571801D02*
X88968895Y-109632278D01*
X88968895Y-109632278D02*
X89089847Y-109692754D01*
X89089847Y-109692754D02*
X89271276Y-109692754D01*
X89271276Y-109692754D02*
X89392228Y-109632278D01*
X89392228Y-109632278D02*
X89452705Y-109571801D01*
X89452705Y-109571801D02*
X89513181Y-109450849D01*
X89513181Y-109450849D02*
X89513181Y-108967039D01*
X88847943Y-110237039D02*
X89876038Y-110237039D01*
X89876038Y-110237039D02*
X89996990Y-110297516D01*
X89996990Y-110297516D02*
X90057467Y-110357992D01*
X90057467Y-110357992D02*
X90117943Y-110478944D01*
X90117943Y-110478944D02*
X90117943Y-110720849D01*
X90117943Y-110720849D02*
X90057467Y-110841801D01*
X90057467Y-110841801D02*
X89996990Y-110902278D01*
X89996990Y-110902278D02*
X89876038Y-110962754D01*
X89876038Y-110962754D02*
X88847943Y-110962754D01*
X88847943Y-111386087D02*
X88847943Y-112111801D01*
X90117943Y-111748944D02*
X88847943Y-111748944D01*
X122511084Y-114026876D02*
X122632037Y-113966400D01*
X122632037Y-113966400D02*
X122813465Y-113966400D01*
X122813465Y-113966400D02*
X122994894Y-114026876D01*
X122994894Y-114026876D02*
X123115846Y-114147828D01*
X123115846Y-114147828D02*
X123176323Y-114268781D01*
X123176323Y-114268781D02*
X123236799Y-114510685D01*
X123236799Y-114510685D02*
X123236799Y-114692114D01*
X123236799Y-114692114D02*
X123176323Y-114934019D01*
X123176323Y-114934019D02*
X123115846Y-115054971D01*
X123115846Y-115054971D02*
X122994894Y-115175924D01*
X122994894Y-115175924D02*
X122813465Y-115236400D01*
X122813465Y-115236400D02*
X122692513Y-115236400D01*
X122692513Y-115236400D02*
X122511084Y-115175924D01*
X122511084Y-115175924D02*
X122450608Y-115115447D01*
X122450608Y-115115447D02*
X122450608Y-114692114D01*
X122450608Y-114692114D02*
X122692513Y-114692114D01*
X121906323Y-115236400D02*
X121906323Y-113966400D01*
X121906323Y-113966400D02*
X121180608Y-115236400D01*
X121180608Y-115236400D02*
X121180608Y-113966400D01*
X120575847Y-115236400D02*
X120575847Y-113966400D01*
X120575847Y-113966400D02*
X120273466Y-113966400D01*
X120273466Y-113966400D02*
X120092037Y-114026876D01*
X120092037Y-114026876D02*
X119971085Y-114147828D01*
X119971085Y-114147828D02*
X119910608Y-114268781D01*
X119910608Y-114268781D02*
X119850132Y-114510685D01*
X119850132Y-114510685D02*
X119850132Y-114692114D01*
X119850132Y-114692114D02*
X119910608Y-114934019D01*
X119910608Y-114934019D02*
X119971085Y-115054971D01*
X119971085Y-115054971D02*
X120092037Y-115175924D01*
X120092037Y-115175924D02*
X120273466Y-115236400D01*
X120273466Y-115236400D02*
X120575847Y-115236400D01*
X95560056Y-110079072D02*
X95560056Y-108809072D01*
X95560056Y-108809072D02*
X95257675Y-108809072D01*
X95257675Y-108809072D02*
X95076246Y-108869548D01*
X95076246Y-108869548D02*
X94955294Y-108990500D01*
X94955294Y-108990500D02*
X94894817Y-109111453D01*
X94894817Y-109111453D02*
X94834341Y-109353357D01*
X94834341Y-109353357D02*
X94834341Y-109534786D01*
X94834341Y-109534786D02*
X94894817Y-109776691D01*
X94894817Y-109776691D02*
X94955294Y-109897643D01*
X94955294Y-109897643D02*
X95076246Y-110018596D01*
X95076246Y-110018596D02*
X95257675Y-110079072D01*
X95257675Y-110079072D02*
X95560056Y-110079072D01*
X94290056Y-110079072D02*
X94290056Y-108809072D01*
X93685294Y-110079072D02*
X93685294Y-108809072D01*
X93685294Y-108809072D02*
X92959579Y-110079072D01*
X92959579Y-110079072D02*
X92959579Y-108809072D01*
X126438208Y-106427039D02*
X126438208Y-106668944D01*
X126438208Y-106668944D02*
X126498684Y-106789896D01*
X126498684Y-106789896D02*
X126619636Y-106910849D01*
X126619636Y-106910849D02*
X126861541Y-106971325D01*
X126861541Y-106971325D02*
X127284874Y-106971325D01*
X127284874Y-106971325D02*
X127526779Y-106910849D01*
X127526779Y-106910849D02*
X127647732Y-106789896D01*
X127647732Y-106789896D02*
X127708208Y-106668944D01*
X127708208Y-106668944D02*
X127708208Y-106427039D01*
X127708208Y-106427039D02*
X127647732Y-106306087D01*
X127647732Y-106306087D02*
X127526779Y-106185134D01*
X127526779Y-106185134D02*
X127284874Y-106124658D01*
X127284874Y-106124658D02*
X126861541Y-106124658D01*
X126861541Y-106124658D02*
X126619636Y-106185134D01*
X126619636Y-106185134D02*
X126498684Y-106306087D01*
X126498684Y-106306087D02*
X126438208Y-106427039D01*
X126438208Y-107515610D02*
X127466303Y-107515610D01*
X127466303Y-107515610D02*
X127587255Y-107576087D01*
X127587255Y-107576087D02*
X127647732Y-107636563D01*
X127647732Y-107636563D02*
X127708208Y-107757515D01*
X127708208Y-107757515D02*
X127708208Y-107999420D01*
X127708208Y-107999420D02*
X127647732Y-108120372D01*
X127647732Y-108120372D02*
X127587255Y-108180849D01*
X127587255Y-108180849D02*
X127466303Y-108241325D01*
X127466303Y-108241325D02*
X126438208Y-108241325D01*
X126438208Y-108664658D02*
X126438208Y-109390372D01*
X127708208Y-109027515D02*
X126438208Y-109027515D01*
X127708208Y-109813705D02*
X126438208Y-109813705D01*
X126438208Y-109813705D02*
X126438208Y-110297515D01*
X126438208Y-110297515D02*
X126498684Y-110418467D01*
X126498684Y-110418467D02*
X126559160Y-110478944D01*
X126559160Y-110478944D02*
X126680112Y-110539420D01*
X126680112Y-110539420D02*
X126861541Y-110539420D01*
X126861541Y-110539420D02*
X126982493Y-110478944D01*
X126982493Y-110478944D02*
X127042970Y-110418467D01*
X127042970Y-110418467D02*
X127103446Y-110297515D01*
X127103446Y-110297515D02*
X127103446Y-109813705D01*
X126438208Y-111083705D02*
X127466303Y-111083705D01*
X127466303Y-111083705D02*
X127587255Y-111144182D01*
X127587255Y-111144182D02*
X127647732Y-111204658D01*
X127647732Y-111204658D02*
X127708208Y-111325610D01*
X127708208Y-111325610D02*
X127708208Y-111567515D01*
X127708208Y-111567515D02*
X127647732Y-111688467D01*
X127647732Y-111688467D02*
X127587255Y-111748944D01*
X127587255Y-111748944D02*
X127466303Y-111809420D01*
X127466303Y-111809420D02*
X126438208Y-111809420D01*
X126438208Y-112232753D02*
X126438208Y-112958467D01*
X127708208Y-112595610D02*
X126438208Y-112595610D01*
X98630199Y-103746064D02*
X98630199Y-104713684D01*
X99114009Y-104229874D02*
X98146390Y-104229874D01*
X97844009Y-105923207D02*
X97844009Y-105318445D01*
X97844009Y-105318445D02*
X98448771Y-105257969D01*
X98448771Y-105257969D02*
X98388294Y-105318445D01*
X98388294Y-105318445D02*
X98327818Y-105439398D01*
X98327818Y-105439398D02*
X98327818Y-105741779D01*
X98327818Y-105741779D02*
X98388294Y-105862731D01*
X98388294Y-105862731D02*
X98448771Y-105923207D01*
X98448771Y-105923207D02*
X98569723Y-105983684D01*
X98569723Y-105983684D02*
X98872104Y-105983684D01*
X98872104Y-105983684D02*
X98993056Y-105923207D01*
X98993056Y-105923207D02*
X99053533Y-105862731D01*
X99053533Y-105862731D02*
X99114009Y-105741779D01*
X99114009Y-105741779D02*
X99114009Y-105439398D01*
X99114009Y-105439398D02*
X99053533Y-105318445D01*
X99053533Y-105318445D02*
X98993056Y-105257969D01*
X97844009Y-106346541D02*
X99114009Y-106769874D01*
X99114009Y-106769874D02*
X97844009Y-107193208D01*
X123176323Y-110200540D02*
X123176323Y-108930540D01*
X123176323Y-108930540D02*
X122873942Y-108930540D01*
X122873942Y-108930540D02*
X122692513Y-108991016D01*
X122692513Y-108991016D02*
X122571561Y-109111968D01*
X122571561Y-109111968D02*
X122511084Y-109232921D01*
X122511084Y-109232921D02*
X122450608Y-109474825D01*
X122450608Y-109474825D02*
X122450608Y-109656254D01*
X122450608Y-109656254D02*
X122511084Y-109898159D01*
X122511084Y-109898159D02*
X122571561Y-110019111D01*
X122571561Y-110019111D02*
X122692513Y-110140064D01*
X122692513Y-110140064D02*
X122873942Y-110200540D01*
X122873942Y-110200540D02*
X123176323Y-110200540D01*
X121664418Y-108930540D02*
X121422513Y-108930540D01*
X121422513Y-108930540D02*
X121301561Y-108991016D01*
X121301561Y-108991016D02*
X121180608Y-109111968D01*
X121180608Y-109111968D02*
X121120132Y-109353873D01*
X121120132Y-109353873D02*
X121120132Y-109777206D01*
X121120132Y-109777206D02*
X121180608Y-110019111D01*
X121180608Y-110019111D02*
X121301561Y-110140064D01*
X121301561Y-110140064D02*
X121422513Y-110200540D01*
X121422513Y-110200540D02*
X121664418Y-110200540D01*
X121664418Y-110200540D02*
X121785370Y-110140064D01*
X121785370Y-110140064D02*
X121906323Y-110019111D01*
X121906323Y-110019111D02*
X121966799Y-109777206D01*
X121966799Y-109777206D02*
X121966799Y-109353873D01*
X121966799Y-109353873D02*
X121906323Y-109111968D01*
X121906323Y-109111968D02*
X121785370Y-108991016D01*
X121785370Y-108991016D02*
X121664418Y-108930540D01*
X120575847Y-108930540D02*
X120575847Y-109958635D01*
X120575847Y-109958635D02*
X120515370Y-110079587D01*
X120515370Y-110079587D02*
X120454894Y-110140064D01*
X120454894Y-110140064D02*
X120333942Y-110200540D01*
X120333942Y-110200540D02*
X120092037Y-110200540D01*
X120092037Y-110200540D02*
X119971085Y-110140064D01*
X119971085Y-110140064D02*
X119910608Y-110079587D01*
X119910608Y-110079587D02*
X119850132Y-109958635D01*
X119850132Y-109958635D02*
X119850132Y-108930540D01*
X119426799Y-108930540D02*
X118701085Y-108930540D01*
X119063942Y-110200540D02*
X119063942Y-108930540D01*
X113069001Y-101949380D02*
X112222334Y-101949380D01*
X112222334Y-101949380D02*
X112766620Y-103219380D01*
X111799001Y-103158904D02*
X111617572Y-103219380D01*
X111617572Y-103219380D02*
X111315191Y-103219380D01*
X111315191Y-103219380D02*
X111194239Y-103158904D01*
X111194239Y-103158904D02*
X111133763Y-103098427D01*
X111133763Y-103098427D02*
X111073286Y-102977475D01*
X111073286Y-102977475D02*
X111073286Y-102856523D01*
X111073286Y-102856523D02*
X111133763Y-102735570D01*
X111133763Y-102735570D02*
X111194239Y-102675094D01*
X111194239Y-102675094D02*
X111315191Y-102614618D01*
X111315191Y-102614618D02*
X111557096Y-102554142D01*
X111557096Y-102554142D02*
X111678048Y-102493665D01*
X111678048Y-102493665D02*
X111738525Y-102433189D01*
X111738525Y-102433189D02*
X111799001Y-102312237D01*
X111799001Y-102312237D02*
X111799001Y-102191284D01*
X111799001Y-102191284D02*
X111738525Y-102070332D01*
X111738525Y-102070332D02*
X111678048Y-102009856D01*
X111678048Y-102009856D02*
X111557096Y-101949380D01*
X111557096Y-101949380D02*
X111254715Y-101949380D01*
X111254715Y-101949380D02*
X111073286Y-102009856D01*
X110045191Y-103158904D02*
X110166143Y-103219380D01*
X110166143Y-103219380D02*
X110408048Y-103219380D01*
X110408048Y-103219380D02*
X110529001Y-103158904D01*
X110529001Y-103158904D02*
X110589477Y-103037951D01*
X110589477Y-103037951D02*
X110589477Y-102554142D01*
X110589477Y-102554142D02*
X110529001Y-102433189D01*
X110529001Y-102433189D02*
X110408048Y-102372713D01*
X110408048Y-102372713D02*
X110166143Y-102372713D01*
X110166143Y-102372713D02*
X110045191Y-102433189D01*
X110045191Y-102433189D02*
X109984715Y-102554142D01*
X109984715Y-102554142D02*
X109984715Y-102675094D01*
X109984715Y-102675094D02*
X110589477Y-102796046D01*
X108896144Y-102372713D02*
X108896144Y-103400808D01*
X108896144Y-103400808D02*
X108956620Y-103521761D01*
X108956620Y-103521761D02*
X109017096Y-103582237D01*
X109017096Y-103582237D02*
X109138049Y-103642713D01*
X109138049Y-103642713D02*
X109319477Y-103642713D01*
X109319477Y-103642713D02*
X109440430Y-103582237D01*
X108896144Y-103158904D02*
X109017096Y-103219380D01*
X109017096Y-103219380D02*
X109259001Y-103219380D01*
X109259001Y-103219380D02*
X109379953Y-103158904D01*
X109379953Y-103158904D02*
X109440430Y-103098427D01*
X109440430Y-103098427D02*
X109500906Y-102977475D01*
X109500906Y-102977475D02*
X109500906Y-102614618D01*
X109500906Y-102614618D02*
X109440430Y-102493665D01*
X109440430Y-102493665D02*
X109379953Y-102433189D01*
X109379953Y-102433189D02*
X109259001Y-102372713D01*
X109259001Y-102372713D02*
X109017096Y-102372713D01*
X109017096Y-102372713D02*
X108896144Y-102433189D01*
X108291382Y-103219380D02*
X108291382Y-102372713D01*
X108291382Y-102493665D02*
X108230905Y-102433189D01*
X108230905Y-102433189D02*
X108109953Y-102372713D01*
X108109953Y-102372713D02*
X107928524Y-102372713D01*
X107928524Y-102372713D02*
X107807572Y-102433189D01*
X107807572Y-102433189D02*
X107747096Y-102554142D01*
X107747096Y-102554142D02*
X107747096Y-103219380D01*
X107747096Y-102554142D02*
X107686620Y-102433189D01*
X107686620Y-102433189D02*
X107565667Y-102372713D01*
X107565667Y-102372713D02*
X107384239Y-102372713D01*
X107384239Y-102372713D02*
X107263286Y-102433189D01*
X107263286Y-102433189D02*
X107202810Y-102554142D01*
X107202810Y-102554142D02*
X107202810Y-103219380D01*
X106114239Y-103158904D02*
X106235191Y-103219380D01*
X106235191Y-103219380D02*
X106477096Y-103219380D01*
X106477096Y-103219380D02*
X106598049Y-103158904D01*
X106598049Y-103158904D02*
X106658525Y-103037951D01*
X106658525Y-103037951D02*
X106658525Y-102554142D01*
X106658525Y-102554142D02*
X106598049Y-102433189D01*
X106598049Y-102433189D02*
X106477096Y-102372713D01*
X106477096Y-102372713D02*
X106235191Y-102372713D01*
X106235191Y-102372713D02*
X106114239Y-102433189D01*
X106114239Y-102433189D02*
X106053763Y-102554142D01*
X106053763Y-102554142D02*
X106053763Y-102675094D01*
X106053763Y-102675094D02*
X106658525Y-102796046D01*
X105509478Y-102372713D02*
X105509478Y-103219380D01*
X105509478Y-102493665D02*
X105449001Y-102433189D01*
X105449001Y-102433189D02*
X105328049Y-102372713D01*
X105328049Y-102372713D02*
X105146620Y-102372713D01*
X105146620Y-102372713D02*
X105025668Y-102433189D01*
X105025668Y-102433189D02*
X104965192Y-102554142D01*
X104965192Y-102554142D02*
X104965192Y-103219380D01*
X104541858Y-102372713D02*
X104058049Y-102372713D01*
X104360430Y-101949380D02*
X104360430Y-103037951D01*
X104360430Y-103037951D02*
X104299953Y-103158904D01*
X104299953Y-103158904D02*
X104179001Y-103219380D01*
X104179001Y-103219380D02*
X104058049Y-103219380D01*
X114278525Y-105264009D02*
X114278525Y-103994009D01*
X114278525Y-103994009D02*
X113976144Y-103994009D01*
X113976144Y-103994009D02*
X113794715Y-104054485D01*
X113794715Y-104054485D02*
X113673763Y-104175437D01*
X113673763Y-104175437D02*
X113613286Y-104296390D01*
X113613286Y-104296390D02*
X113552810Y-104538294D01*
X113552810Y-104538294D02*
X113552810Y-104719723D01*
X113552810Y-104719723D02*
X113613286Y-104961628D01*
X113613286Y-104961628D02*
X113673763Y-105082580D01*
X113673763Y-105082580D02*
X113794715Y-105203533D01*
X113794715Y-105203533D02*
X113976144Y-105264009D01*
X113976144Y-105264009D02*
X114278525Y-105264009D01*
X113008525Y-105264009D02*
X113008525Y-104417342D01*
X113008525Y-104659247D02*
X112948048Y-104538294D01*
X112948048Y-104538294D02*
X112887572Y-104477818D01*
X112887572Y-104477818D02*
X112766620Y-104417342D01*
X112766620Y-104417342D02*
X112645667Y-104417342D01*
X112222335Y-105264009D02*
X112222335Y-104417342D01*
X112222335Y-103994009D02*
X112282811Y-104054485D01*
X112282811Y-104054485D02*
X112222335Y-104114961D01*
X112222335Y-104114961D02*
X112161858Y-104054485D01*
X112161858Y-104054485D02*
X112222335Y-103994009D01*
X112222335Y-103994009D02*
X112222335Y-104114961D01*
X111738525Y-104417342D02*
X111436144Y-105264009D01*
X111436144Y-105264009D02*
X111133763Y-104417342D01*
X110166144Y-105203533D02*
X110287096Y-105264009D01*
X110287096Y-105264009D02*
X110529001Y-105264009D01*
X110529001Y-105264009D02*
X110649954Y-105203533D01*
X110649954Y-105203533D02*
X110710430Y-105082580D01*
X110710430Y-105082580D02*
X110710430Y-104598771D01*
X110710430Y-104598771D02*
X110649954Y-104477818D01*
X110649954Y-104477818D02*
X110529001Y-104417342D01*
X110529001Y-104417342D02*
X110287096Y-104417342D01*
X110287096Y-104417342D02*
X110166144Y-104477818D01*
X110166144Y-104477818D02*
X110105668Y-104598771D01*
X110105668Y-104598771D02*
X110105668Y-104719723D01*
X110105668Y-104719723D02*
X110710430Y-104840675D01*
X109561383Y-105264009D02*
X109561383Y-104417342D01*
X109561383Y-104659247D02*
X109500906Y-104538294D01*
X109500906Y-104538294D02*
X109440430Y-104477818D01*
X109440430Y-104477818D02*
X109319478Y-104417342D01*
X109319478Y-104417342D02*
X109198525Y-104417342D01*
X107384240Y-104598771D02*
X107202812Y-104659247D01*
X107202812Y-104659247D02*
X107142335Y-104719723D01*
X107142335Y-104719723D02*
X107081859Y-104840675D01*
X107081859Y-104840675D02*
X107081859Y-105022104D01*
X107081859Y-105022104D02*
X107142335Y-105143056D01*
X107142335Y-105143056D02*
X107202812Y-105203533D01*
X107202812Y-105203533D02*
X107323764Y-105264009D01*
X107323764Y-105264009D02*
X107807574Y-105264009D01*
X107807574Y-105264009D02*
X107807574Y-103994009D01*
X107807574Y-103994009D02*
X107384240Y-103994009D01*
X107384240Y-103994009D02*
X107263288Y-104054485D01*
X107263288Y-104054485D02*
X107202812Y-104114961D01*
X107202812Y-104114961D02*
X107142335Y-104235913D01*
X107142335Y-104235913D02*
X107142335Y-104356866D01*
X107142335Y-104356866D02*
X107202812Y-104477818D01*
X107202812Y-104477818D02*
X107263288Y-104538294D01*
X107263288Y-104538294D02*
X107384240Y-104598771D01*
X107384240Y-104598771D02*
X107807574Y-104598771D01*
X106356145Y-105264009D02*
X106477097Y-105203533D01*
X106477097Y-105203533D02*
X106537574Y-105143056D01*
X106537574Y-105143056D02*
X106598050Y-105022104D01*
X106598050Y-105022104D02*
X106598050Y-104659247D01*
X106598050Y-104659247D02*
X106537574Y-104538294D01*
X106537574Y-104538294D02*
X106477097Y-104477818D01*
X106477097Y-104477818D02*
X106356145Y-104417342D01*
X106356145Y-104417342D02*
X106174716Y-104417342D01*
X106174716Y-104417342D02*
X106053764Y-104477818D01*
X106053764Y-104477818D02*
X105993288Y-104538294D01*
X105993288Y-104538294D02*
X105932812Y-104659247D01*
X105932812Y-104659247D02*
X105932812Y-105022104D01*
X105932812Y-105022104D02*
X105993288Y-105143056D01*
X105993288Y-105143056D02*
X106053764Y-105203533D01*
X106053764Y-105203533D02*
X106174716Y-105264009D01*
X106174716Y-105264009D02*
X106356145Y-105264009D01*
X104844240Y-105264009D02*
X104844240Y-104598771D01*
X104844240Y-104598771D02*
X104904716Y-104477818D01*
X104904716Y-104477818D02*
X105025668Y-104417342D01*
X105025668Y-104417342D02*
X105267573Y-104417342D01*
X105267573Y-104417342D02*
X105388526Y-104477818D01*
X104844240Y-105203533D02*
X104965192Y-105264009D01*
X104965192Y-105264009D02*
X105267573Y-105264009D01*
X105267573Y-105264009D02*
X105388526Y-105203533D01*
X105388526Y-105203533D02*
X105449002Y-105082580D01*
X105449002Y-105082580D02*
X105449002Y-104961628D01*
X105449002Y-104961628D02*
X105388526Y-104840675D01*
X105388526Y-104840675D02*
X105267573Y-104780199D01*
X105267573Y-104780199D02*
X104965192Y-104780199D01*
X104965192Y-104780199D02*
X104844240Y-104719723D01*
X104239478Y-105264009D02*
X104239478Y-104417342D01*
X104239478Y-104659247D02*
X104179001Y-104538294D01*
X104179001Y-104538294D02*
X104118525Y-104477818D01*
X104118525Y-104477818D02*
X103997573Y-104417342D01*
X103997573Y-104417342D02*
X103876620Y-104417342D01*
X102909002Y-105264009D02*
X102909002Y-103994009D01*
X102909002Y-105203533D02*
X103029954Y-105264009D01*
X103029954Y-105264009D02*
X103271859Y-105264009D01*
X103271859Y-105264009D02*
X103392811Y-105203533D01*
X103392811Y-105203533D02*
X103453288Y-105143056D01*
X103453288Y-105143056D02*
X103513764Y-105022104D01*
X103513764Y-105022104D02*
X103513764Y-104659247D01*
X103513764Y-104659247D02*
X103453288Y-104538294D01*
X103453288Y-104538294D02*
X103392811Y-104477818D01*
X103392811Y-104477818D02*
X103271859Y-104417342D01*
X103271859Y-104417342D02*
X103029954Y-104417342D01*
X103029954Y-104417342D02*
X102909002Y-104477818D01*
X95203283Y-104974735D02*
X95263759Y-105035212D01*
X95263759Y-105035212D02*
X95445188Y-105095688D01*
X95445188Y-105095688D02*
X95566140Y-105095688D01*
X95566140Y-105095688D02*
X95747569Y-105035212D01*
X95747569Y-105035212D02*
X95868521Y-104914259D01*
X95868521Y-104914259D02*
X95928998Y-104793307D01*
X95928998Y-104793307D02*
X95989474Y-104551402D01*
X95989474Y-104551402D02*
X95989474Y-104369973D01*
X95989474Y-104369973D02*
X95928998Y-104128069D01*
X95928998Y-104128069D02*
X95868521Y-104007116D01*
X95868521Y-104007116D02*
X95747569Y-103886164D01*
X95747569Y-103886164D02*
X95566140Y-103825688D01*
X95566140Y-103825688D02*
X95445188Y-103825688D01*
X95445188Y-103825688D02*
X95263759Y-103886164D01*
X95263759Y-103886164D02*
X95203283Y-103946640D01*
X94054236Y-105095688D02*
X94658998Y-105095688D01*
X94658998Y-105095688D02*
X94658998Y-103825688D01*
X93630903Y-105095688D02*
X93630903Y-103825688D01*
X92905188Y-105095688D02*
X93449474Y-104369973D01*
X92905188Y-103825688D02*
X93630903Y-104551402D01*
X122450608Y-107549587D02*
X122511084Y-107610064D01*
X122511084Y-107610064D02*
X122692513Y-107670540D01*
X122692513Y-107670540D02*
X122813465Y-107670540D01*
X122813465Y-107670540D02*
X122994894Y-107610064D01*
X122994894Y-107610064D02*
X123115846Y-107489111D01*
X123115846Y-107489111D02*
X123176323Y-107368159D01*
X123176323Y-107368159D02*
X123236799Y-107126254D01*
X123236799Y-107126254D02*
X123236799Y-106944825D01*
X123236799Y-106944825D02*
X123176323Y-106702921D01*
X123176323Y-106702921D02*
X123115846Y-106581968D01*
X123115846Y-106581968D02*
X122994894Y-106461016D01*
X122994894Y-106461016D02*
X122813465Y-106400540D01*
X122813465Y-106400540D02*
X122692513Y-106400540D01*
X122692513Y-106400540D02*
X122511084Y-106461016D01*
X122511084Y-106461016D02*
X122450608Y-106521492D01*
X121966799Y-107610064D02*
X121785370Y-107670540D01*
X121785370Y-107670540D02*
X121482989Y-107670540D01*
X121482989Y-107670540D02*
X121362037Y-107610064D01*
X121362037Y-107610064D02*
X121301561Y-107549587D01*
X121301561Y-107549587D02*
X121241084Y-107428635D01*
X121241084Y-107428635D02*
X121241084Y-107307683D01*
X121241084Y-107307683D02*
X121301561Y-107186730D01*
X121301561Y-107186730D02*
X121362037Y-107126254D01*
X121362037Y-107126254D02*
X121482989Y-107065778D01*
X121482989Y-107065778D02*
X121724894Y-107005302D01*
X121724894Y-107005302D02*
X121845846Y-106944825D01*
X121845846Y-106944825D02*
X121906323Y-106884349D01*
X121906323Y-106884349D02*
X121966799Y-106763397D01*
X121966799Y-106763397D02*
X121966799Y-106642444D01*
X121966799Y-106642444D02*
X121906323Y-106521492D01*
X121906323Y-106521492D02*
X121845846Y-106461016D01*
X121845846Y-106461016D02*
X121724894Y-106400540D01*
X121724894Y-106400540D02*
X121422513Y-106400540D01*
X121422513Y-106400540D02*
X121241084Y-106461016D01*
X117846620Y-114341487D02*
X117604715Y-115188154D01*
X117604715Y-115188154D02*
X117362810Y-114583392D01*
X117362810Y-114583392D02*
X117120906Y-115188154D01*
X117120906Y-115188154D02*
X116879001Y-114341487D01*
X116516144Y-114341487D02*
X116274239Y-115188154D01*
X116274239Y-115188154D02*
X116032334Y-114583392D01*
X116032334Y-114583392D02*
X115790430Y-115188154D01*
X115790430Y-115188154D02*
X115548525Y-114341487D01*
X115185668Y-114341487D02*
X114943763Y-115188154D01*
X114943763Y-115188154D02*
X114701858Y-114583392D01*
X114701858Y-114583392D02*
X114459954Y-115188154D01*
X114459954Y-115188154D02*
X114218049Y-114341487D01*
X113734240Y-115067201D02*
X113673763Y-115127678D01*
X113673763Y-115127678D02*
X113734240Y-115188154D01*
X113734240Y-115188154D02*
X113794716Y-115127678D01*
X113794716Y-115127678D02*
X113734240Y-115067201D01*
X113734240Y-115067201D02*
X113734240Y-115188154D01*
X113129478Y-115188154D02*
X113129478Y-113918154D01*
X113129478Y-113918154D02*
X112706144Y-114825297D01*
X112706144Y-114825297D02*
X112282811Y-113918154D01*
X112282811Y-113918154D02*
X112282811Y-115188154D01*
X111496620Y-115188154D02*
X111617572Y-115127678D01*
X111617572Y-115127678D02*
X111678049Y-115067201D01*
X111678049Y-115067201D02*
X111738525Y-114946249D01*
X111738525Y-114946249D02*
X111738525Y-114583392D01*
X111738525Y-114583392D02*
X111678049Y-114462439D01*
X111678049Y-114462439D02*
X111617572Y-114401963D01*
X111617572Y-114401963D02*
X111496620Y-114341487D01*
X111496620Y-114341487D02*
X111315191Y-114341487D01*
X111315191Y-114341487D02*
X111194239Y-114401963D01*
X111194239Y-114401963D02*
X111133763Y-114462439D01*
X111133763Y-114462439D02*
X111073287Y-114583392D01*
X111073287Y-114583392D02*
X111073287Y-114946249D01*
X111073287Y-114946249D02*
X111133763Y-115067201D01*
X111133763Y-115067201D02*
X111194239Y-115127678D01*
X111194239Y-115127678D02*
X111315191Y-115188154D01*
X111315191Y-115188154D02*
X111496620Y-115188154D01*
X110529001Y-115188154D02*
X110529001Y-113918154D01*
X110529001Y-114401963D02*
X110408048Y-114341487D01*
X110408048Y-114341487D02*
X110166143Y-114341487D01*
X110166143Y-114341487D02*
X110045191Y-114401963D01*
X110045191Y-114401963D02*
X109984715Y-114462439D01*
X109984715Y-114462439D02*
X109924239Y-114583392D01*
X109924239Y-114583392D02*
X109924239Y-114946249D01*
X109924239Y-114946249D02*
X109984715Y-115067201D01*
X109984715Y-115067201D02*
X110045191Y-115127678D01*
X110045191Y-115127678D02*
X110166143Y-115188154D01*
X110166143Y-115188154D02*
X110408048Y-115188154D01*
X110408048Y-115188154D02*
X110529001Y-115127678D01*
X109379953Y-115188154D02*
X109379953Y-114341487D01*
X109379953Y-113918154D02*
X109440429Y-113978630D01*
X109440429Y-113978630D02*
X109379953Y-114039106D01*
X109379953Y-114039106D02*
X109319476Y-113978630D01*
X109319476Y-113978630D02*
X109379953Y-113918154D01*
X109379953Y-113918154D02*
X109379953Y-114039106D01*
X108351857Y-114522916D02*
X108775191Y-114522916D01*
X108775191Y-115188154D02*
X108775191Y-113918154D01*
X108775191Y-113918154D02*
X108170429Y-113918154D01*
X107505191Y-115188154D02*
X107626143Y-115127678D01*
X107626143Y-115127678D02*
X107686620Y-115006725D01*
X107686620Y-115006725D02*
X107686620Y-113918154D01*
X107021382Y-115188154D02*
X107021382Y-114341487D01*
X107021382Y-113918154D02*
X107081858Y-113978630D01*
X107081858Y-113978630D02*
X107021382Y-114039106D01*
X107021382Y-114039106D02*
X106960905Y-113978630D01*
X106960905Y-113978630D02*
X107021382Y-113918154D01*
X107021382Y-113918154D02*
X107021382Y-114039106D01*
X105872334Y-114341487D02*
X105872334Y-115369582D01*
X105872334Y-115369582D02*
X105932810Y-115490535D01*
X105932810Y-115490535D02*
X105993286Y-115551011D01*
X105993286Y-115551011D02*
X106114239Y-115611487D01*
X106114239Y-115611487D02*
X106295667Y-115611487D01*
X106295667Y-115611487D02*
X106416620Y-115551011D01*
X105872334Y-115127678D02*
X105993286Y-115188154D01*
X105993286Y-115188154D02*
X106235191Y-115188154D01*
X106235191Y-115188154D02*
X106356143Y-115127678D01*
X106356143Y-115127678D02*
X106416620Y-115067201D01*
X106416620Y-115067201D02*
X106477096Y-114946249D01*
X106477096Y-114946249D02*
X106477096Y-114583392D01*
X106477096Y-114583392D02*
X106416620Y-114462439D01*
X106416620Y-114462439D02*
X106356143Y-114401963D01*
X106356143Y-114401963D02*
X106235191Y-114341487D01*
X106235191Y-114341487D02*
X105993286Y-114341487D01*
X105993286Y-114341487D02*
X105872334Y-114401963D01*
X105267572Y-115188154D02*
X105267572Y-113918154D01*
X104723286Y-115188154D02*
X104723286Y-114522916D01*
X104723286Y-114522916D02*
X104783762Y-114401963D01*
X104783762Y-114401963D02*
X104904714Y-114341487D01*
X104904714Y-114341487D02*
X105086143Y-114341487D01*
X105086143Y-114341487D02*
X105207095Y-114401963D01*
X105207095Y-114401963D02*
X105267572Y-114462439D01*
X104299952Y-114341487D02*
X103816143Y-114341487D01*
X104118524Y-113918154D02*
X104118524Y-115006725D01*
X104118524Y-115006725D02*
X104058047Y-115127678D01*
X104058047Y-115127678D02*
X103937095Y-115188154D01*
X103937095Y-115188154D02*
X103816143Y-115188154D01*
X103392810Y-115067201D02*
X103332333Y-115127678D01*
X103332333Y-115127678D02*
X103392810Y-115188154D01*
X103392810Y-115188154D02*
X103453286Y-115127678D01*
X103453286Y-115127678D02*
X103392810Y-115067201D01*
X103392810Y-115067201D02*
X103392810Y-115188154D01*
X102243762Y-115127678D02*
X102364714Y-115188154D01*
X102364714Y-115188154D02*
X102606619Y-115188154D01*
X102606619Y-115188154D02*
X102727571Y-115127678D01*
X102727571Y-115127678D02*
X102788048Y-115067201D01*
X102788048Y-115067201D02*
X102848524Y-114946249D01*
X102848524Y-114946249D02*
X102848524Y-114583392D01*
X102848524Y-114583392D02*
X102788048Y-114462439D01*
X102788048Y-114462439D02*
X102727571Y-114401963D01*
X102727571Y-114401963D02*
X102606619Y-114341487D01*
X102606619Y-114341487D02*
X102364714Y-114341487D01*
X102364714Y-114341487D02*
X102243762Y-114401963D01*
X101518048Y-115188154D02*
X101639000Y-115127678D01*
X101639000Y-115127678D02*
X101699477Y-115067201D01*
X101699477Y-115067201D02*
X101759953Y-114946249D01*
X101759953Y-114946249D02*
X101759953Y-114583392D01*
X101759953Y-114583392D02*
X101699477Y-114462439D01*
X101699477Y-114462439D02*
X101639000Y-114401963D01*
X101639000Y-114401963D02*
X101518048Y-114341487D01*
X101518048Y-114341487D02*
X101336619Y-114341487D01*
X101336619Y-114341487D02*
X101215667Y-114401963D01*
X101215667Y-114401963D02*
X101155191Y-114462439D01*
X101155191Y-114462439D02*
X101094715Y-114583392D01*
X101094715Y-114583392D02*
X101094715Y-114946249D01*
X101094715Y-114946249D02*
X101155191Y-115067201D01*
X101155191Y-115067201D02*
X101215667Y-115127678D01*
X101215667Y-115127678D02*
X101336619Y-115188154D01*
X101336619Y-115188154D02*
X101518048Y-115188154D01*
X100550429Y-115188154D02*
X100550429Y-114341487D01*
X100550429Y-114462439D02*
X100489952Y-114401963D01*
X100489952Y-114401963D02*
X100369000Y-114341487D01*
X100369000Y-114341487D02*
X100187571Y-114341487D01*
X100187571Y-114341487D02*
X100066619Y-114401963D01*
X100066619Y-114401963D02*
X100006143Y-114522916D01*
X100006143Y-114522916D02*
X100006143Y-115188154D01*
X100006143Y-114522916D02*
X99945667Y-114401963D01*
X99945667Y-114401963D02*
X99824714Y-114341487D01*
X99824714Y-114341487D02*
X99643286Y-114341487D01*
X99643286Y-114341487D02*
X99522333Y-114401963D01*
X99522333Y-114401963D02*
X99461857Y-114522916D01*
X99461857Y-114522916D02*
X99461857Y-115188154D01*
X110529000Y-115962783D02*
X110105667Y-117232783D01*
X110105667Y-117232783D02*
X109682333Y-115962783D01*
X108593762Y-117232783D02*
X109319477Y-117232783D01*
X108956620Y-117232783D02*
X108956620Y-115962783D01*
X108956620Y-115962783D02*
X109077572Y-116144211D01*
X109077572Y-116144211D02*
X109198524Y-116265164D01*
X109198524Y-116265164D02*
X109319477Y-116325640D01*
X108049477Y-117111830D02*
X107989000Y-117172307D01*
X107989000Y-117172307D02*
X108049477Y-117232783D01*
X108049477Y-117232783D02*
X108109953Y-117172307D01*
X108109953Y-117172307D02*
X108049477Y-117111830D01*
X108049477Y-117111830D02*
X108049477Y-117232783D01*
X107202810Y-115962783D02*
X107081857Y-115962783D01*
X107081857Y-115962783D02*
X106960905Y-116023259D01*
X106960905Y-116023259D02*
X106900429Y-116083735D01*
X106900429Y-116083735D02*
X106839953Y-116204687D01*
X106839953Y-116204687D02*
X106779476Y-116446592D01*
X106779476Y-116446592D02*
X106779476Y-116748973D01*
X106779476Y-116748973D02*
X106839953Y-116990878D01*
X106839953Y-116990878D02*
X106900429Y-117111830D01*
X106900429Y-117111830D02*
X106960905Y-117172307D01*
X106960905Y-117172307D02*
X107081857Y-117232783D01*
X107081857Y-117232783D02*
X107202810Y-117232783D01*
X107202810Y-117232783D02*
X107323762Y-117172307D01*
X107323762Y-117172307D02*
X107384238Y-117111830D01*
X107384238Y-117111830D02*
X107444715Y-116990878D01*
X107444715Y-116990878D02*
X107505191Y-116748973D01*
X107505191Y-116748973D02*
X107505191Y-116446592D01*
X107505191Y-116446592D02*
X107444715Y-116204687D01*
X107444715Y-116204687D02*
X107384238Y-116083735D01*
X107384238Y-116083735D02*
X107323762Y-116023259D01*
X107323762Y-116023259D02*
X107202810Y-115962783D01*
D11*
%TO.C,P4*%
X99958470Y-106951106D02*
X99958470Y-112151106D01*
X99958470Y-106951106D02*
X100528470Y-106951106D01*
X99958470Y-112151106D02*
X100528470Y-112151106D01*
X100528470Y-112151106D02*
X100528470Y-113511106D01*
X102048470Y-106951106D02*
X103068470Y-106951106D01*
X102048470Y-112151106D02*
X103068470Y-112151106D01*
X104588470Y-106951106D02*
X105608470Y-106951106D01*
X104588470Y-112151106D02*
X105608470Y-112151106D01*
X107128470Y-106951106D02*
X108148470Y-106951106D01*
X107128470Y-112151106D02*
X108148470Y-112151106D01*
X109668470Y-106951106D02*
X110688470Y-106951106D01*
X109668470Y-112151106D02*
X110688470Y-112151106D01*
X112208470Y-106951106D02*
X113228470Y-106951106D01*
X112208470Y-112151106D02*
X113228470Y-112151106D01*
X114748470Y-106951106D02*
X115768470Y-106951106D01*
X114748470Y-112151106D02*
X115768470Y-112151106D01*
X117288470Y-106951106D02*
X117858470Y-106951106D01*
X117288470Y-112151106D02*
X117858470Y-112151106D01*
X117858470Y-106951106D02*
X117858470Y-112151106D01*
%TD*%
%LPC*%
G36*
X92303914Y-113646995D02*
G01*
X92319726Y-113653976D01*
X92327531Y-113655213D01*
X92360039Y-113671776D01*
X92405106Y-113691676D01*
X92483324Y-113769894D01*
X92503226Y-113814967D01*
X92519786Y-113847468D01*
X92521021Y-113855270D01*
X92528005Y-113871086D01*
X92536000Y-113940000D01*
X92536000Y-115140000D01*
X92528005Y-115208914D01*
X92521021Y-115224729D01*
X92519786Y-115232531D01*
X92503229Y-115265024D01*
X92483324Y-115310106D01*
X92405106Y-115388324D01*
X92360024Y-115408229D01*
X92327531Y-115424786D01*
X92319729Y-115426021D01*
X92303914Y-115433005D01*
X92235000Y-115441000D01*
X90785000Y-115441000D01*
X90716086Y-115433005D01*
X90700270Y-115426021D01*
X90692468Y-115424786D01*
X90659967Y-115408226D01*
X90614894Y-115388324D01*
X90536676Y-115310106D01*
X90516776Y-115265039D01*
X90500213Y-115232531D01*
X90498976Y-115224726D01*
X90491995Y-115208914D01*
X90484000Y-115140000D01*
X90484000Y-113940000D01*
X90491995Y-113871086D01*
X90498976Y-113855274D01*
X90500213Y-113847468D01*
X90516780Y-113814953D01*
X90536676Y-113769894D01*
X90614894Y-113691676D01*
X90659953Y-113671780D01*
X90692468Y-113655213D01*
X90700274Y-113653976D01*
X90716086Y-113646995D01*
X90785000Y-113639000D01*
X92235000Y-113639000D01*
X92303914Y-113646995D01*
G37*
G36*
X125483914Y-113566995D02*
G01*
X125499726Y-113573976D01*
X125507531Y-113575213D01*
X125540039Y-113591776D01*
X125585106Y-113611676D01*
X125663324Y-113689894D01*
X125683226Y-113734967D01*
X125699786Y-113767468D01*
X125701021Y-113775270D01*
X125708005Y-113791086D01*
X125716000Y-113860000D01*
X125716000Y-115060000D01*
X125708005Y-115128914D01*
X125701021Y-115144729D01*
X125699786Y-115152531D01*
X125683229Y-115185024D01*
X125663324Y-115230106D01*
X125585106Y-115308324D01*
X125540024Y-115328229D01*
X125507531Y-115344786D01*
X125499729Y-115346021D01*
X125483914Y-115353005D01*
X125415000Y-115361000D01*
X123965000Y-115361000D01*
X123896086Y-115353005D01*
X123880270Y-115346021D01*
X123872468Y-115344786D01*
X123839967Y-115328226D01*
X123794894Y-115308324D01*
X123716676Y-115230106D01*
X123696776Y-115185039D01*
X123680213Y-115152531D01*
X123678976Y-115144726D01*
X123671995Y-115128914D01*
X123664000Y-115060000D01*
X123664000Y-113860000D01*
X123671995Y-113791086D01*
X123678976Y-113775274D01*
X123680213Y-113767468D01*
X123696780Y-113734953D01*
X123716676Y-113689894D01*
X123794894Y-113611676D01*
X123839953Y-113591780D01*
X123872468Y-113575213D01*
X123880274Y-113573976D01*
X123896086Y-113566995D01*
X123965000Y-113559000D01*
X125415000Y-113559000D01*
X125483914Y-113566995D01*
G37*
G36*
X101807987Y-110523988D02*
G01*
X101824532Y-110535044D01*
X101835588Y-110551589D01*
X101839470Y-110571106D01*
X101839470Y-113571106D01*
X101835588Y-113590623D01*
X101824532Y-113607168D01*
X101807987Y-113618224D01*
X101788470Y-113622106D01*
X100788470Y-113622106D01*
X100768953Y-113618224D01*
X100752408Y-113607168D01*
X100741352Y-113590623D01*
X100737470Y-113571106D01*
X100737470Y-110571106D01*
X100741352Y-110551589D01*
X100752408Y-110535044D01*
X100768953Y-110523988D01*
X100788470Y-110520106D01*
X101788470Y-110520106D01*
X101807987Y-110523988D01*
G37*
G36*
X104347987Y-110523988D02*
G01*
X104364532Y-110535044D01*
X104375588Y-110551589D01*
X104379470Y-110571106D01*
X104379470Y-113571106D01*
X104375588Y-113590623D01*
X104364532Y-113607168D01*
X104347987Y-113618224D01*
X104328470Y-113622106D01*
X103328470Y-113622106D01*
X103308953Y-113618224D01*
X103292408Y-113607168D01*
X103281352Y-113590623D01*
X103277470Y-113571106D01*
X103277470Y-110571106D01*
X103281352Y-110551589D01*
X103292408Y-110535044D01*
X103308953Y-110523988D01*
X103328470Y-110520106D01*
X104328470Y-110520106D01*
X104347987Y-110523988D01*
G37*
G36*
X106887987Y-110523988D02*
G01*
X106904532Y-110535044D01*
X106915588Y-110551589D01*
X106919470Y-110571106D01*
X106919470Y-113571106D01*
X106915588Y-113590623D01*
X106904532Y-113607168D01*
X106887987Y-113618224D01*
X106868470Y-113622106D01*
X105868470Y-113622106D01*
X105848953Y-113618224D01*
X105832408Y-113607168D01*
X105821352Y-113590623D01*
X105817470Y-113571106D01*
X105817470Y-110571106D01*
X105821352Y-110551589D01*
X105832408Y-110535044D01*
X105848953Y-110523988D01*
X105868470Y-110520106D01*
X106868470Y-110520106D01*
X106887987Y-110523988D01*
G37*
G36*
X109427987Y-110523988D02*
G01*
X109444532Y-110535044D01*
X109455588Y-110551589D01*
X109459470Y-110571106D01*
X109459470Y-113571106D01*
X109455588Y-113590623D01*
X109444532Y-113607168D01*
X109427987Y-113618224D01*
X109408470Y-113622106D01*
X108408470Y-113622106D01*
X108388953Y-113618224D01*
X108372408Y-113607168D01*
X108361352Y-113590623D01*
X108357470Y-113571106D01*
X108357470Y-110571106D01*
X108361352Y-110551589D01*
X108372408Y-110535044D01*
X108388953Y-110523988D01*
X108408470Y-110520106D01*
X109408470Y-110520106D01*
X109427987Y-110523988D01*
G37*
G36*
X111967987Y-110523988D02*
G01*
X111984532Y-110535044D01*
X111995588Y-110551589D01*
X111999470Y-110571106D01*
X111999470Y-113571106D01*
X111995588Y-113590623D01*
X111984532Y-113607168D01*
X111967987Y-113618224D01*
X111948470Y-113622106D01*
X110948470Y-113622106D01*
X110928953Y-113618224D01*
X110912408Y-113607168D01*
X110901352Y-113590623D01*
X110897470Y-113571106D01*
X110897470Y-110571106D01*
X110901352Y-110551589D01*
X110912408Y-110535044D01*
X110928953Y-110523988D01*
X110948470Y-110520106D01*
X111948470Y-110520106D01*
X111967987Y-110523988D01*
G37*
G36*
X114507987Y-110523988D02*
G01*
X114524532Y-110535044D01*
X114535588Y-110551589D01*
X114539470Y-110571106D01*
X114539470Y-113571106D01*
X114535588Y-113590623D01*
X114524532Y-113607168D01*
X114507987Y-113618224D01*
X114488470Y-113622106D01*
X113488470Y-113622106D01*
X113468953Y-113618224D01*
X113452408Y-113607168D01*
X113441352Y-113590623D01*
X113437470Y-113571106D01*
X113437470Y-110571106D01*
X113441352Y-110551589D01*
X113452408Y-110535044D01*
X113468953Y-110523988D01*
X113488470Y-110520106D01*
X114488470Y-110520106D01*
X114507987Y-110523988D01*
G37*
G36*
X117047987Y-110523988D02*
G01*
X117064532Y-110535044D01*
X117075588Y-110551589D01*
X117079470Y-110571106D01*
X117079470Y-113571106D01*
X117075588Y-113590623D01*
X117064532Y-113607168D01*
X117047987Y-113618224D01*
X117028470Y-113622106D01*
X116028470Y-113622106D01*
X116008953Y-113618224D01*
X115992408Y-113607168D01*
X115981352Y-113590623D01*
X115977470Y-113571106D01*
X115977470Y-110571106D01*
X115981352Y-110551589D01*
X115992408Y-110535044D01*
X116008953Y-110523988D01*
X116028470Y-110520106D01*
X117028470Y-110520106D01*
X117047987Y-110523988D01*
G37*
G36*
X91723313Y-111143339D02*
G01*
X91896546Y-111177797D01*
X92059728Y-111245389D01*
X92206588Y-111343518D01*
X92331482Y-111468412D01*
X92429611Y-111615272D01*
X92497203Y-111778454D01*
X92531661Y-111951687D01*
X92531661Y-112128313D01*
X92497203Y-112301546D01*
X92429611Y-112464728D01*
X92331482Y-112611588D01*
X92206588Y-112736482D01*
X92059728Y-112834611D01*
X91896546Y-112902203D01*
X91723313Y-112936661D01*
X91635000Y-112941000D01*
X91631941Y-112941000D01*
X91388059Y-112941000D01*
X91385000Y-112941000D01*
X91296687Y-112936661D01*
X91123454Y-112902203D01*
X90960272Y-112834611D01*
X90813412Y-112736482D01*
X90688518Y-112611588D01*
X90590389Y-112464728D01*
X90522797Y-112301546D01*
X90488339Y-112128313D01*
X90488339Y-111951687D01*
X90522797Y-111778454D01*
X90590389Y-111615272D01*
X90688518Y-111468412D01*
X90813412Y-111343518D01*
X90960272Y-111245389D01*
X91123454Y-111177797D01*
X91296687Y-111143339D01*
X91385000Y-111139000D01*
X91635000Y-111139000D01*
X91723313Y-111143339D01*
G37*
G36*
X124903313Y-111063339D02*
G01*
X125076546Y-111097797D01*
X125239728Y-111165389D01*
X125386588Y-111263518D01*
X125511482Y-111388412D01*
X125609611Y-111535272D01*
X125677203Y-111698454D01*
X125711661Y-111871687D01*
X125711661Y-112048313D01*
X125677203Y-112221546D01*
X125609611Y-112384728D01*
X125511482Y-112531588D01*
X125386588Y-112656482D01*
X125239728Y-112754611D01*
X125076546Y-112822203D01*
X124903313Y-112856661D01*
X124815000Y-112861000D01*
X124811941Y-112861000D01*
X124568059Y-112861000D01*
X124565000Y-112861000D01*
X124476687Y-112856661D01*
X124303454Y-112822203D01*
X124140272Y-112754611D01*
X123993412Y-112656482D01*
X123868518Y-112531588D01*
X123770389Y-112384728D01*
X123702797Y-112221546D01*
X123668339Y-112048313D01*
X123668339Y-111871687D01*
X123702797Y-111698454D01*
X123770389Y-111535272D01*
X123868518Y-111388412D01*
X123993412Y-111263518D01*
X124140272Y-111165389D01*
X124303454Y-111097797D01*
X124476687Y-111063339D01*
X124565000Y-111059000D01*
X124815000Y-111059000D01*
X124903313Y-111063339D01*
G37*
G36*
X99105707Y-109879666D02*
G01*
X99121519Y-109886647D01*
X99129324Y-109887884D01*
X99161832Y-109904447D01*
X99206899Y-109924347D01*
X99285117Y-110002565D01*
X99305019Y-110047638D01*
X99321579Y-110080139D01*
X99322814Y-110087941D01*
X99329798Y-110103757D01*
X99337793Y-110172671D01*
X99337793Y-111372671D01*
X99329798Y-111441585D01*
X99322814Y-111457400D01*
X99321579Y-111465202D01*
X99305022Y-111497695D01*
X99285117Y-111542777D01*
X99206899Y-111620995D01*
X99161817Y-111640900D01*
X99129324Y-111657457D01*
X99121522Y-111658692D01*
X99105707Y-111665676D01*
X99036793Y-111673671D01*
X97536793Y-111673671D01*
X97467879Y-111665676D01*
X97452063Y-111658692D01*
X97444261Y-111657457D01*
X97411760Y-111640897D01*
X97366687Y-111620995D01*
X97288469Y-111542777D01*
X97268569Y-111497710D01*
X97252006Y-111465202D01*
X97250769Y-111457397D01*
X97243788Y-111441585D01*
X97235793Y-111372671D01*
X97235793Y-110172671D01*
X97243788Y-110103757D01*
X97250769Y-110087945D01*
X97252006Y-110080139D01*
X97268573Y-110047624D01*
X97288469Y-110002565D01*
X97366687Y-109924347D01*
X97411746Y-109904451D01*
X97444261Y-109887884D01*
X97452067Y-109886647D01*
X97467879Y-109879666D01*
X97536793Y-109871671D01*
X99036793Y-109871671D01*
X99105707Y-109879666D01*
G37*
G36*
X91723313Y-108643339D02*
G01*
X91896546Y-108677797D01*
X92059728Y-108745389D01*
X92206588Y-108843518D01*
X92331482Y-108968412D01*
X92429611Y-109115272D01*
X92497203Y-109278454D01*
X92531661Y-109451687D01*
X92531661Y-109628313D01*
X92497203Y-109801546D01*
X92429611Y-109964728D01*
X92331482Y-110111588D01*
X92206588Y-110236482D01*
X92059728Y-110334611D01*
X91896546Y-110402203D01*
X91723313Y-110436661D01*
X91635000Y-110441000D01*
X91631941Y-110441000D01*
X91388059Y-110441000D01*
X91385000Y-110441000D01*
X91296687Y-110436661D01*
X91123454Y-110402203D01*
X90960272Y-110334611D01*
X90813412Y-110236482D01*
X90688518Y-110111588D01*
X90590389Y-109964728D01*
X90522797Y-109801546D01*
X90488339Y-109628313D01*
X90488339Y-109451687D01*
X90522797Y-109278454D01*
X90590389Y-109115272D01*
X90688518Y-108968412D01*
X90813412Y-108843518D01*
X90960272Y-108745389D01*
X91123454Y-108677797D01*
X91296687Y-108643339D01*
X91385000Y-108639000D01*
X91635000Y-108639000D01*
X91723313Y-108643339D01*
G37*
G36*
X124903313Y-108563339D02*
G01*
X125076546Y-108597797D01*
X125239728Y-108665389D01*
X125386588Y-108763518D01*
X125511482Y-108888412D01*
X125609611Y-109035272D01*
X125677203Y-109198454D01*
X125711661Y-109371687D01*
X125711661Y-109548313D01*
X125677203Y-109721546D01*
X125609611Y-109884728D01*
X125511482Y-110031588D01*
X125386588Y-110156482D01*
X125239728Y-110254611D01*
X125076546Y-110322203D01*
X124903313Y-110356661D01*
X124815000Y-110361000D01*
X124811941Y-110361000D01*
X124568059Y-110361000D01*
X124565000Y-110361000D01*
X124476687Y-110356661D01*
X124303454Y-110322203D01*
X124140272Y-110254611D01*
X123993412Y-110156482D01*
X123868518Y-110031588D01*
X123770389Y-109884728D01*
X123702797Y-109721546D01*
X123668339Y-109548313D01*
X123668339Y-109371687D01*
X123702797Y-109198454D01*
X123770389Y-109035272D01*
X123868518Y-108888412D01*
X123993412Y-108763518D01*
X124140272Y-108665389D01*
X124303454Y-108597797D01*
X124476687Y-108563339D01*
X124565000Y-108559000D01*
X124815000Y-108559000D01*
X124903313Y-108563339D01*
G37*
G36*
X98525106Y-107376010D02*
G01*
X98698339Y-107410468D01*
X98861521Y-107478060D01*
X99008381Y-107576189D01*
X99133275Y-107701083D01*
X99231404Y-107847943D01*
X99298996Y-108011125D01*
X99333454Y-108184358D01*
X99333454Y-108360984D01*
X99298996Y-108534217D01*
X99231404Y-108697399D01*
X99133275Y-108844259D01*
X99008381Y-108969153D01*
X98861521Y-109067282D01*
X98698339Y-109134874D01*
X98525106Y-109169332D01*
X98436793Y-109173671D01*
X98433734Y-109173671D01*
X98139852Y-109173671D01*
X98136793Y-109173671D01*
X98048480Y-109169332D01*
X97875247Y-109134874D01*
X97712065Y-109067282D01*
X97565205Y-108969153D01*
X97440311Y-108844259D01*
X97342182Y-108697399D01*
X97274590Y-108534217D01*
X97240132Y-108360984D01*
X97240132Y-108184358D01*
X97274590Y-108011125D01*
X97342182Y-107847943D01*
X97440311Y-107701083D01*
X97565205Y-107576189D01*
X97712065Y-107478060D01*
X97875247Y-107410468D01*
X98048480Y-107376010D01*
X98136793Y-107371671D01*
X98436793Y-107371671D01*
X98525106Y-107376010D01*
G37*
G36*
X101807987Y-105483988D02*
G01*
X101824532Y-105495044D01*
X101835588Y-105511589D01*
X101839470Y-105531106D01*
X101839470Y-108531106D01*
X101835588Y-108550623D01*
X101824532Y-108567168D01*
X101807987Y-108578224D01*
X101788470Y-108582106D01*
X100788470Y-108582106D01*
X100768953Y-108578224D01*
X100752408Y-108567168D01*
X100741352Y-108550623D01*
X100737470Y-108531106D01*
X100737470Y-105531106D01*
X100741352Y-105511589D01*
X100752408Y-105495044D01*
X100768953Y-105483988D01*
X100788470Y-105480106D01*
X101788470Y-105480106D01*
X101807987Y-105483988D01*
G37*
G36*
X104347987Y-105483988D02*
G01*
X104364532Y-105495044D01*
X104375588Y-105511589D01*
X104379470Y-105531106D01*
X104379470Y-108531106D01*
X104375588Y-108550623D01*
X104364532Y-108567168D01*
X104347987Y-108578224D01*
X104328470Y-108582106D01*
X103328470Y-108582106D01*
X103308953Y-108578224D01*
X103292408Y-108567168D01*
X103281352Y-108550623D01*
X103277470Y-108531106D01*
X103277470Y-105531106D01*
X103281352Y-105511589D01*
X103292408Y-105495044D01*
X103308953Y-105483988D01*
X103328470Y-105480106D01*
X104328470Y-105480106D01*
X104347987Y-105483988D01*
G37*
G36*
X106887987Y-105483988D02*
G01*
X106904532Y-105495044D01*
X106915588Y-105511589D01*
X106919470Y-105531106D01*
X106919470Y-108531106D01*
X106915588Y-108550623D01*
X106904532Y-108567168D01*
X106887987Y-108578224D01*
X106868470Y-108582106D01*
X105868470Y-108582106D01*
X105848953Y-108578224D01*
X105832408Y-108567168D01*
X105821352Y-108550623D01*
X105817470Y-108531106D01*
X105817470Y-105531106D01*
X105821352Y-105511589D01*
X105832408Y-105495044D01*
X105848953Y-105483988D01*
X105868470Y-105480106D01*
X106868470Y-105480106D01*
X106887987Y-105483988D01*
G37*
G36*
X109427987Y-105483988D02*
G01*
X109444532Y-105495044D01*
X109455588Y-105511589D01*
X109459470Y-105531106D01*
X109459470Y-108531106D01*
X109455588Y-108550623D01*
X109444532Y-108567168D01*
X109427987Y-108578224D01*
X109408470Y-108582106D01*
X108408470Y-108582106D01*
X108388953Y-108578224D01*
X108372408Y-108567168D01*
X108361352Y-108550623D01*
X108357470Y-108531106D01*
X108357470Y-105531106D01*
X108361352Y-105511589D01*
X108372408Y-105495044D01*
X108388953Y-105483988D01*
X108408470Y-105480106D01*
X109408470Y-105480106D01*
X109427987Y-105483988D01*
G37*
G36*
X111967987Y-105483988D02*
G01*
X111984532Y-105495044D01*
X111995588Y-105511589D01*
X111999470Y-105531106D01*
X111999470Y-108531106D01*
X111995588Y-108550623D01*
X111984532Y-108567168D01*
X111967987Y-108578224D01*
X111948470Y-108582106D01*
X110948470Y-108582106D01*
X110928953Y-108578224D01*
X110912408Y-108567168D01*
X110901352Y-108550623D01*
X110897470Y-108531106D01*
X110897470Y-105531106D01*
X110901352Y-105511589D01*
X110912408Y-105495044D01*
X110928953Y-105483988D01*
X110948470Y-105480106D01*
X111948470Y-105480106D01*
X111967987Y-105483988D01*
G37*
G36*
X114507987Y-105483988D02*
G01*
X114524532Y-105495044D01*
X114535588Y-105511589D01*
X114539470Y-105531106D01*
X114539470Y-108531106D01*
X114535588Y-108550623D01*
X114524532Y-108567168D01*
X114507987Y-108578224D01*
X114488470Y-108582106D01*
X113488470Y-108582106D01*
X113468953Y-108578224D01*
X113452408Y-108567168D01*
X113441352Y-108550623D01*
X113437470Y-108531106D01*
X113437470Y-105531106D01*
X113441352Y-105511589D01*
X113452408Y-105495044D01*
X113468953Y-105483988D01*
X113488470Y-105480106D01*
X114488470Y-105480106D01*
X114507987Y-105483988D01*
G37*
G36*
X117047987Y-105483988D02*
G01*
X117064532Y-105495044D01*
X117075588Y-105511589D01*
X117079470Y-105531106D01*
X117079470Y-108531106D01*
X117075588Y-108550623D01*
X117064532Y-108567168D01*
X117047987Y-108578224D01*
X117028470Y-108582106D01*
X116028470Y-108582106D01*
X116008953Y-108578224D01*
X115992408Y-108567168D01*
X115981352Y-108550623D01*
X115977470Y-108531106D01*
X115977470Y-105531106D01*
X115981352Y-105511589D01*
X115992408Y-105495044D01*
X116008953Y-105483988D01*
X116028470Y-105480106D01*
X117028470Y-105480106D01*
X117047987Y-105483988D01*
G37*
G36*
X91723313Y-106143339D02*
G01*
X91896546Y-106177797D01*
X92059728Y-106245389D01*
X92206588Y-106343518D01*
X92331482Y-106468412D01*
X92429611Y-106615272D01*
X92497203Y-106778454D01*
X92531661Y-106951687D01*
X92531661Y-107128313D01*
X92497203Y-107301546D01*
X92429611Y-107464728D01*
X92331482Y-107611588D01*
X92206588Y-107736482D01*
X92059728Y-107834611D01*
X91896546Y-107902203D01*
X91723313Y-107936661D01*
X91635000Y-107941000D01*
X91631941Y-107941000D01*
X91388059Y-107941000D01*
X91385000Y-107941000D01*
X91296687Y-107936661D01*
X91123454Y-107902203D01*
X90960272Y-107834611D01*
X90813412Y-107736482D01*
X90688518Y-107611588D01*
X90590389Y-107464728D01*
X90522797Y-107301546D01*
X90488339Y-107128313D01*
X90488339Y-106951687D01*
X90522797Y-106778454D01*
X90590389Y-106615272D01*
X90688518Y-106468412D01*
X90813412Y-106343518D01*
X90960272Y-106245389D01*
X91123454Y-106177797D01*
X91296687Y-106143339D01*
X91385000Y-106139000D01*
X91635000Y-106139000D01*
X91723313Y-106143339D01*
G37*
G36*
X124903313Y-106063339D02*
G01*
X125076546Y-106097797D01*
X125239728Y-106165389D01*
X125386588Y-106263518D01*
X125511482Y-106388412D01*
X125609611Y-106535272D01*
X125677203Y-106698454D01*
X125711661Y-106871687D01*
X125711661Y-107048313D01*
X125677203Y-107221546D01*
X125609611Y-107384728D01*
X125511482Y-107531588D01*
X125386588Y-107656482D01*
X125239728Y-107754611D01*
X125076546Y-107822203D01*
X124903313Y-107856661D01*
X124815000Y-107861000D01*
X124811941Y-107861000D01*
X124568059Y-107861000D01*
X124565000Y-107861000D01*
X124476687Y-107856661D01*
X124303454Y-107822203D01*
X124140272Y-107754611D01*
X123993412Y-107656482D01*
X123868518Y-107531588D01*
X123770389Y-107384728D01*
X123702797Y-107221546D01*
X123668339Y-107048313D01*
X123668339Y-106871687D01*
X123702797Y-106698454D01*
X123770389Y-106535272D01*
X123868518Y-106388412D01*
X123993412Y-106263518D01*
X124140272Y-106165389D01*
X124303454Y-106097797D01*
X124476687Y-106063339D01*
X124565000Y-106059000D01*
X124815000Y-106059000D01*
X124903313Y-106063339D01*
G37*
G36*
X91723313Y-103643339D02*
G01*
X91896546Y-103677797D01*
X92059728Y-103745389D01*
X92206588Y-103843518D01*
X92331482Y-103968412D01*
X92429611Y-104115272D01*
X92497203Y-104278454D01*
X92531661Y-104451687D01*
X92531661Y-104628313D01*
X92497203Y-104801546D01*
X92429611Y-104964728D01*
X92331482Y-105111588D01*
X92206588Y-105236482D01*
X92059728Y-105334611D01*
X91896546Y-105402203D01*
X91723313Y-105436661D01*
X91635000Y-105441000D01*
X91631941Y-105441000D01*
X91388059Y-105441000D01*
X91385000Y-105441000D01*
X91296687Y-105436661D01*
X91123454Y-105402203D01*
X90960272Y-105334611D01*
X90813412Y-105236482D01*
X90688518Y-105111588D01*
X90590389Y-104964728D01*
X90522797Y-104801546D01*
X90488339Y-104628313D01*
X90488339Y-104451687D01*
X90522797Y-104278454D01*
X90590389Y-104115272D01*
X90688518Y-103968412D01*
X90813412Y-103843518D01*
X90960272Y-103745389D01*
X91123454Y-103677797D01*
X91296687Y-103643339D01*
X91385000Y-103639000D01*
X91635000Y-103639000D01*
X91723313Y-103643339D01*
G37*
G36*
X124903313Y-103563339D02*
G01*
X125076546Y-103597797D01*
X125239728Y-103665389D01*
X125386588Y-103763518D01*
X125511482Y-103888412D01*
X125609611Y-104035272D01*
X125677203Y-104198454D01*
X125711661Y-104371687D01*
X125711661Y-104548313D01*
X125677203Y-104721546D01*
X125609611Y-104884728D01*
X125511482Y-105031588D01*
X125386588Y-105156482D01*
X125239728Y-105254611D01*
X125076546Y-105322203D01*
X124903313Y-105356661D01*
X124815000Y-105361000D01*
X124811941Y-105361000D01*
X124568059Y-105361000D01*
X124565000Y-105361000D01*
X124476687Y-105356661D01*
X124303454Y-105322203D01*
X124140272Y-105254611D01*
X123993412Y-105156482D01*
X123868518Y-105031588D01*
X123770389Y-104884728D01*
X123702797Y-104721546D01*
X123668339Y-104548313D01*
X123668339Y-104371687D01*
X123702797Y-104198454D01*
X123770389Y-104035272D01*
X123868518Y-103888412D01*
X123993412Y-103763518D01*
X124140272Y-103665389D01*
X124303454Y-103597797D01*
X124476687Y-103563339D01*
X124565000Y-103559000D01*
X124815000Y-103559000D01*
X124903313Y-103563339D01*
G37*
%LPD*%
M02*
